%
M48
M72
T01C0.01969
T02C0.02362
T03C0.03150
T04C0.04000
T05C0.05906
%
T01
X97595Y80183
X77595Y80183
X77595Y157683
X75595Y167183
X77595Y243683
X97595Y157683
X93095Y194183
X82095Y194183
X79595Y222683
X95595Y222683
X97595Y243683
T02
X87595Y199683
X87595Y254183
T03
X92595Y61433
T04
X102595Y50183
X92595Y50183
X82595Y50183
X72595Y50183
T05
X117595Y61433
X117595Y48933
X57595Y61433
X57595Y48933
M30
