G75*
%MOIN*%
%OFA0B0*%
%FSLAX25Y25*%
%IPPOS*%
%LPD*%
%AMOC8*
5,1,8,0,0,1.08239X$1,22.5*
%
%ADD10C,0.00000*%
%ADD11R,0.03937X0.04331*%
%ADD12C,0.07400*%
%ADD13C,0.07600*%
%ADD14R,0.01969X0.03543*%
%ADD15R,0.05512X0.01969*%
%ADD16R,0.02283X0.00984*%
%ADD17R,0.02165X0.01575*%
%ADD18R,0.01575X0.02165*%
%ADD19R,0.02400X0.01800*%
%ADD20R,0.01181X0.02559*%
%ADD21R,0.01800X0.02400*%
%ADD22C,0.05600*%
%ADD23R,0.02756X0.04331*%
%ADD24R,0.02362X0.04331*%
%ADD25R,0.04331X0.03937*%
%ADD26R,0.02500X0.05000*%
%ADD27C,0.03200*%
%ADD28C,0.03169*%
%ADD29C,0.02400*%
%ADD30C,0.01200*%
%ADD31C,0.01600*%
D10*
X0062200Y0017200D02*
X0342200Y0017200D01*
X0195901Y0047200D02*
X0195903Y0047358D01*
X0195909Y0047516D01*
X0195919Y0047674D01*
X0195933Y0047832D01*
X0195951Y0047989D01*
X0195972Y0048146D01*
X0195998Y0048302D01*
X0196028Y0048458D01*
X0196061Y0048613D01*
X0196099Y0048766D01*
X0196140Y0048919D01*
X0196185Y0049071D01*
X0196234Y0049222D01*
X0196287Y0049371D01*
X0196343Y0049519D01*
X0196403Y0049665D01*
X0196467Y0049810D01*
X0196535Y0049953D01*
X0196606Y0050095D01*
X0196680Y0050235D01*
X0196758Y0050372D01*
X0196840Y0050508D01*
X0196924Y0050642D01*
X0197013Y0050773D01*
X0197104Y0050902D01*
X0197199Y0051029D01*
X0197296Y0051154D01*
X0197397Y0051276D01*
X0197501Y0051395D01*
X0197608Y0051512D01*
X0197718Y0051626D01*
X0197831Y0051737D01*
X0197946Y0051846D01*
X0198064Y0051951D01*
X0198185Y0052053D01*
X0198308Y0052153D01*
X0198434Y0052249D01*
X0198562Y0052342D01*
X0198692Y0052432D01*
X0198825Y0052518D01*
X0198960Y0052602D01*
X0199096Y0052681D01*
X0199235Y0052758D01*
X0199376Y0052830D01*
X0199518Y0052900D01*
X0199662Y0052965D01*
X0199808Y0053027D01*
X0199955Y0053085D01*
X0200104Y0053140D01*
X0200254Y0053191D01*
X0200405Y0053238D01*
X0200557Y0053281D01*
X0200710Y0053320D01*
X0200865Y0053356D01*
X0201020Y0053387D01*
X0201176Y0053415D01*
X0201332Y0053439D01*
X0201489Y0053459D01*
X0201647Y0053475D01*
X0201804Y0053487D01*
X0201963Y0053495D01*
X0202121Y0053499D01*
X0202279Y0053499D01*
X0202437Y0053495D01*
X0202596Y0053487D01*
X0202753Y0053475D01*
X0202911Y0053459D01*
X0203068Y0053439D01*
X0203224Y0053415D01*
X0203380Y0053387D01*
X0203535Y0053356D01*
X0203690Y0053320D01*
X0203843Y0053281D01*
X0203995Y0053238D01*
X0204146Y0053191D01*
X0204296Y0053140D01*
X0204445Y0053085D01*
X0204592Y0053027D01*
X0204738Y0052965D01*
X0204882Y0052900D01*
X0205024Y0052830D01*
X0205165Y0052758D01*
X0205304Y0052681D01*
X0205440Y0052602D01*
X0205575Y0052518D01*
X0205708Y0052432D01*
X0205838Y0052342D01*
X0205966Y0052249D01*
X0206092Y0052153D01*
X0206215Y0052053D01*
X0206336Y0051951D01*
X0206454Y0051846D01*
X0206569Y0051737D01*
X0206682Y0051626D01*
X0206792Y0051512D01*
X0206899Y0051395D01*
X0207003Y0051276D01*
X0207104Y0051154D01*
X0207201Y0051029D01*
X0207296Y0050902D01*
X0207387Y0050773D01*
X0207476Y0050642D01*
X0207560Y0050508D01*
X0207642Y0050372D01*
X0207720Y0050235D01*
X0207794Y0050095D01*
X0207865Y0049953D01*
X0207933Y0049810D01*
X0207997Y0049665D01*
X0208057Y0049519D01*
X0208113Y0049371D01*
X0208166Y0049222D01*
X0208215Y0049071D01*
X0208260Y0048919D01*
X0208301Y0048766D01*
X0208339Y0048613D01*
X0208372Y0048458D01*
X0208402Y0048302D01*
X0208428Y0048146D01*
X0208449Y0047989D01*
X0208467Y0047832D01*
X0208481Y0047674D01*
X0208491Y0047516D01*
X0208497Y0047358D01*
X0208499Y0047200D01*
X0208497Y0047042D01*
X0208491Y0046884D01*
X0208481Y0046726D01*
X0208467Y0046568D01*
X0208449Y0046411D01*
X0208428Y0046254D01*
X0208402Y0046098D01*
X0208372Y0045942D01*
X0208339Y0045787D01*
X0208301Y0045634D01*
X0208260Y0045481D01*
X0208215Y0045329D01*
X0208166Y0045178D01*
X0208113Y0045029D01*
X0208057Y0044881D01*
X0207997Y0044735D01*
X0207933Y0044590D01*
X0207865Y0044447D01*
X0207794Y0044305D01*
X0207720Y0044165D01*
X0207642Y0044028D01*
X0207560Y0043892D01*
X0207476Y0043758D01*
X0207387Y0043627D01*
X0207296Y0043498D01*
X0207201Y0043371D01*
X0207104Y0043246D01*
X0207003Y0043124D01*
X0206899Y0043005D01*
X0206792Y0042888D01*
X0206682Y0042774D01*
X0206569Y0042663D01*
X0206454Y0042554D01*
X0206336Y0042449D01*
X0206215Y0042347D01*
X0206092Y0042247D01*
X0205966Y0042151D01*
X0205838Y0042058D01*
X0205708Y0041968D01*
X0205575Y0041882D01*
X0205440Y0041798D01*
X0205304Y0041719D01*
X0205165Y0041642D01*
X0205024Y0041570D01*
X0204882Y0041500D01*
X0204738Y0041435D01*
X0204592Y0041373D01*
X0204445Y0041315D01*
X0204296Y0041260D01*
X0204146Y0041209D01*
X0203995Y0041162D01*
X0203843Y0041119D01*
X0203690Y0041080D01*
X0203535Y0041044D01*
X0203380Y0041013D01*
X0203224Y0040985D01*
X0203068Y0040961D01*
X0202911Y0040941D01*
X0202753Y0040925D01*
X0202596Y0040913D01*
X0202437Y0040905D01*
X0202279Y0040901D01*
X0202121Y0040901D01*
X0201963Y0040905D01*
X0201804Y0040913D01*
X0201647Y0040925D01*
X0201489Y0040941D01*
X0201332Y0040961D01*
X0201176Y0040985D01*
X0201020Y0041013D01*
X0200865Y0041044D01*
X0200710Y0041080D01*
X0200557Y0041119D01*
X0200405Y0041162D01*
X0200254Y0041209D01*
X0200104Y0041260D01*
X0199955Y0041315D01*
X0199808Y0041373D01*
X0199662Y0041435D01*
X0199518Y0041500D01*
X0199376Y0041570D01*
X0199235Y0041642D01*
X0199096Y0041719D01*
X0198960Y0041798D01*
X0198825Y0041882D01*
X0198692Y0041968D01*
X0198562Y0042058D01*
X0198434Y0042151D01*
X0198308Y0042247D01*
X0198185Y0042347D01*
X0198064Y0042449D01*
X0197946Y0042554D01*
X0197831Y0042663D01*
X0197718Y0042774D01*
X0197608Y0042888D01*
X0197501Y0043005D01*
X0197397Y0043124D01*
X0197296Y0043246D01*
X0197199Y0043371D01*
X0197104Y0043498D01*
X0197013Y0043627D01*
X0196924Y0043758D01*
X0196840Y0043892D01*
X0196758Y0044028D01*
X0196680Y0044165D01*
X0196606Y0044305D01*
X0196535Y0044447D01*
X0196467Y0044590D01*
X0196403Y0044735D01*
X0196343Y0044881D01*
X0196287Y0045029D01*
X0196234Y0045178D01*
X0196185Y0045329D01*
X0196140Y0045481D01*
X0196099Y0045634D01*
X0196061Y0045787D01*
X0196028Y0045942D01*
X0195998Y0046098D01*
X0195972Y0046254D01*
X0195951Y0046411D01*
X0195933Y0046568D01*
X0195919Y0046726D01*
X0195909Y0046884D01*
X0195903Y0047042D01*
X0195901Y0047200D01*
X0130901Y0037200D02*
X0130903Y0037358D01*
X0130909Y0037516D01*
X0130919Y0037674D01*
X0130933Y0037832D01*
X0130951Y0037989D01*
X0130972Y0038146D01*
X0130998Y0038302D01*
X0131028Y0038458D01*
X0131061Y0038613D01*
X0131099Y0038766D01*
X0131140Y0038919D01*
X0131185Y0039071D01*
X0131234Y0039222D01*
X0131287Y0039371D01*
X0131343Y0039519D01*
X0131403Y0039665D01*
X0131467Y0039810D01*
X0131535Y0039953D01*
X0131606Y0040095D01*
X0131680Y0040235D01*
X0131758Y0040372D01*
X0131840Y0040508D01*
X0131924Y0040642D01*
X0132013Y0040773D01*
X0132104Y0040902D01*
X0132199Y0041029D01*
X0132296Y0041154D01*
X0132397Y0041276D01*
X0132501Y0041395D01*
X0132608Y0041512D01*
X0132718Y0041626D01*
X0132831Y0041737D01*
X0132946Y0041846D01*
X0133064Y0041951D01*
X0133185Y0042053D01*
X0133308Y0042153D01*
X0133434Y0042249D01*
X0133562Y0042342D01*
X0133692Y0042432D01*
X0133825Y0042518D01*
X0133960Y0042602D01*
X0134096Y0042681D01*
X0134235Y0042758D01*
X0134376Y0042830D01*
X0134518Y0042900D01*
X0134662Y0042965D01*
X0134808Y0043027D01*
X0134955Y0043085D01*
X0135104Y0043140D01*
X0135254Y0043191D01*
X0135405Y0043238D01*
X0135557Y0043281D01*
X0135710Y0043320D01*
X0135865Y0043356D01*
X0136020Y0043387D01*
X0136176Y0043415D01*
X0136332Y0043439D01*
X0136489Y0043459D01*
X0136647Y0043475D01*
X0136804Y0043487D01*
X0136963Y0043495D01*
X0137121Y0043499D01*
X0137279Y0043499D01*
X0137437Y0043495D01*
X0137596Y0043487D01*
X0137753Y0043475D01*
X0137911Y0043459D01*
X0138068Y0043439D01*
X0138224Y0043415D01*
X0138380Y0043387D01*
X0138535Y0043356D01*
X0138690Y0043320D01*
X0138843Y0043281D01*
X0138995Y0043238D01*
X0139146Y0043191D01*
X0139296Y0043140D01*
X0139445Y0043085D01*
X0139592Y0043027D01*
X0139738Y0042965D01*
X0139882Y0042900D01*
X0140024Y0042830D01*
X0140165Y0042758D01*
X0140304Y0042681D01*
X0140440Y0042602D01*
X0140575Y0042518D01*
X0140708Y0042432D01*
X0140838Y0042342D01*
X0140966Y0042249D01*
X0141092Y0042153D01*
X0141215Y0042053D01*
X0141336Y0041951D01*
X0141454Y0041846D01*
X0141569Y0041737D01*
X0141682Y0041626D01*
X0141792Y0041512D01*
X0141899Y0041395D01*
X0142003Y0041276D01*
X0142104Y0041154D01*
X0142201Y0041029D01*
X0142296Y0040902D01*
X0142387Y0040773D01*
X0142476Y0040642D01*
X0142560Y0040508D01*
X0142642Y0040372D01*
X0142720Y0040235D01*
X0142794Y0040095D01*
X0142865Y0039953D01*
X0142933Y0039810D01*
X0142997Y0039665D01*
X0143057Y0039519D01*
X0143113Y0039371D01*
X0143166Y0039222D01*
X0143215Y0039071D01*
X0143260Y0038919D01*
X0143301Y0038766D01*
X0143339Y0038613D01*
X0143372Y0038458D01*
X0143402Y0038302D01*
X0143428Y0038146D01*
X0143449Y0037989D01*
X0143467Y0037832D01*
X0143481Y0037674D01*
X0143491Y0037516D01*
X0143497Y0037358D01*
X0143499Y0037200D01*
X0143497Y0037042D01*
X0143491Y0036884D01*
X0143481Y0036726D01*
X0143467Y0036568D01*
X0143449Y0036411D01*
X0143428Y0036254D01*
X0143402Y0036098D01*
X0143372Y0035942D01*
X0143339Y0035787D01*
X0143301Y0035634D01*
X0143260Y0035481D01*
X0143215Y0035329D01*
X0143166Y0035178D01*
X0143113Y0035029D01*
X0143057Y0034881D01*
X0142997Y0034735D01*
X0142933Y0034590D01*
X0142865Y0034447D01*
X0142794Y0034305D01*
X0142720Y0034165D01*
X0142642Y0034028D01*
X0142560Y0033892D01*
X0142476Y0033758D01*
X0142387Y0033627D01*
X0142296Y0033498D01*
X0142201Y0033371D01*
X0142104Y0033246D01*
X0142003Y0033124D01*
X0141899Y0033005D01*
X0141792Y0032888D01*
X0141682Y0032774D01*
X0141569Y0032663D01*
X0141454Y0032554D01*
X0141336Y0032449D01*
X0141215Y0032347D01*
X0141092Y0032247D01*
X0140966Y0032151D01*
X0140838Y0032058D01*
X0140708Y0031968D01*
X0140575Y0031882D01*
X0140440Y0031798D01*
X0140304Y0031719D01*
X0140165Y0031642D01*
X0140024Y0031570D01*
X0139882Y0031500D01*
X0139738Y0031435D01*
X0139592Y0031373D01*
X0139445Y0031315D01*
X0139296Y0031260D01*
X0139146Y0031209D01*
X0138995Y0031162D01*
X0138843Y0031119D01*
X0138690Y0031080D01*
X0138535Y0031044D01*
X0138380Y0031013D01*
X0138224Y0030985D01*
X0138068Y0030961D01*
X0137911Y0030941D01*
X0137753Y0030925D01*
X0137596Y0030913D01*
X0137437Y0030905D01*
X0137279Y0030901D01*
X0137121Y0030901D01*
X0136963Y0030905D01*
X0136804Y0030913D01*
X0136647Y0030925D01*
X0136489Y0030941D01*
X0136332Y0030961D01*
X0136176Y0030985D01*
X0136020Y0031013D01*
X0135865Y0031044D01*
X0135710Y0031080D01*
X0135557Y0031119D01*
X0135405Y0031162D01*
X0135254Y0031209D01*
X0135104Y0031260D01*
X0134955Y0031315D01*
X0134808Y0031373D01*
X0134662Y0031435D01*
X0134518Y0031500D01*
X0134376Y0031570D01*
X0134235Y0031642D01*
X0134096Y0031719D01*
X0133960Y0031798D01*
X0133825Y0031882D01*
X0133692Y0031968D01*
X0133562Y0032058D01*
X0133434Y0032151D01*
X0133308Y0032247D01*
X0133185Y0032347D01*
X0133064Y0032449D01*
X0132946Y0032554D01*
X0132831Y0032663D01*
X0132718Y0032774D01*
X0132608Y0032888D01*
X0132501Y0033005D01*
X0132397Y0033124D01*
X0132296Y0033246D01*
X0132199Y0033371D01*
X0132104Y0033498D01*
X0132013Y0033627D01*
X0131924Y0033758D01*
X0131840Y0033892D01*
X0131758Y0034028D01*
X0131680Y0034165D01*
X0131606Y0034305D01*
X0131535Y0034447D01*
X0131467Y0034590D01*
X0131403Y0034735D01*
X0131343Y0034881D01*
X0131287Y0035029D01*
X0131234Y0035178D01*
X0131185Y0035329D01*
X0131140Y0035481D01*
X0131099Y0035634D01*
X0131061Y0035787D01*
X0131028Y0035942D01*
X0130998Y0036098D01*
X0130972Y0036254D01*
X0130951Y0036411D01*
X0130933Y0036568D01*
X0130919Y0036726D01*
X0130909Y0036884D01*
X0130903Y0037042D01*
X0130901Y0037200D01*
X0110901Y0057200D02*
X0110903Y0057358D01*
X0110909Y0057516D01*
X0110919Y0057674D01*
X0110933Y0057832D01*
X0110951Y0057989D01*
X0110972Y0058146D01*
X0110998Y0058302D01*
X0111028Y0058458D01*
X0111061Y0058613D01*
X0111099Y0058766D01*
X0111140Y0058919D01*
X0111185Y0059071D01*
X0111234Y0059222D01*
X0111287Y0059371D01*
X0111343Y0059519D01*
X0111403Y0059665D01*
X0111467Y0059810D01*
X0111535Y0059953D01*
X0111606Y0060095D01*
X0111680Y0060235D01*
X0111758Y0060372D01*
X0111840Y0060508D01*
X0111924Y0060642D01*
X0112013Y0060773D01*
X0112104Y0060902D01*
X0112199Y0061029D01*
X0112296Y0061154D01*
X0112397Y0061276D01*
X0112501Y0061395D01*
X0112608Y0061512D01*
X0112718Y0061626D01*
X0112831Y0061737D01*
X0112946Y0061846D01*
X0113064Y0061951D01*
X0113185Y0062053D01*
X0113308Y0062153D01*
X0113434Y0062249D01*
X0113562Y0062342D01*
X0113692Y0062432D01*
X0113825Y0062518D01*
X0113960Y0062602D01*
X0114096Y0062681D01*
X0114235Y0062758D01*
X0114376Y0062830D01*
X0114518Y0062900D01*
X0114662Y0062965D01*
X0114808Y0063027D01*
X0114955Y0063085D01*
X0115104Y0063140D01*
X0115254Y0063191D01*
X0115405Y0063238D01*
X0115557Y0063281D01*
X0115710Y0063320D01*
X0115865Y0063356D01*
X0116020Y0063387D01*
X0116176Y0063415D01*
X0116332Y0063439D01*
X0116489Y0063459D01*
X0116647Y0063475D01*
X0116804Y0063487D01*
X0116963Y0063495D01*
X0117121Y0063499D01*
X0117279Y0063499D01*
X0117437Y0063495D01*
X0117596Y0063487D01*
X0117753Y0063475D01*
X0117911Y0063459D01*
X0118068Y0063439D01*
X0118224Y0063415D01*
X0118380Y0063387D01*
X0118535Y0063356D01*
X0118690Y0063320D01*
X0118843Y0063281D01*
X0118995Y0063238D01*
X0119146Y0063191D01*
X0119296Y0063140D01*
X0119445Y0063085D01*
X0119592Y0063027D01*
X0119738Y0062965D01*
X0119882Y0062900D01*
X0120024Y0062830D01*
X0120165Y0062758D01*
X0120304Y0062681D01*
X0120440Y0062602D01*
X0120575Y0062518D01*
X0120708Y0062432D01*
X0120838Y0062342D01*
X0120966Y0062249D01*
X0121092Y0062153D01*
X0121215Y0062053D01*
X0121336Y0061951D01*
X0121454Y0061846D01*
X0121569Y0061737D01*
X0121682Y0061626D01*
X0121792Y0061512D01*
X0121899Y0061395D01*
X0122003Y0061276D01*
X0122104Y0061154D01*
X0122201Y0061029D01*
X0122296Y0060902D01*
X0122387Y0060773D01*
X0122476Y0060642D01*
X0122560Y0060508D01*
X0122642Y0060372D01*
X0122720Y0060235D01*
X0122794Y0060095D01*
X0122865Y0059953D01*
X0122933Y0059810D01*
X0122997Y0059665D01*
X0123057Y0059519D01*
X0123113Y0059371D01*
X0123166Y0059222D01*
X0123215Y0059071D01*
X0123260Y0058919D01*
X0123301Y0058766D01*
X0123339Y0058613D01*
X0123372Y0058458D01*
X0123402Y0058302D01*
X0123428Y0058146D01*
X0123449Y0057989D01*
X0123467Y0057832D01*
X0123481Y0057674D01*
X0123491Y0057516D01*
X0123497Y0057358D01*
X0123499Y0057200D01*
X0123497Y0057042D01*
X0123491Y0056884D01*
X0123481Y0056726D01*
X0123467Y0056568D01*
X0123449Y0056411D01*
X0123428Y0056254D01*
X0123402Y0056098D01*
X0123372Y0055942D01*
X0123339Y0055787D01*
X0123301Y0055634D01*
X0123260Y0055481D01*
X0123215Y0055329D01*
X0123166Y0055178D01*
X0123113Y0055029D01*
X0123057Y0054881D01*
X0122997Y0054735D01*
X0122933Y0054590D01*
X0122865Y0054447D01*
X0122794Y0054305D01*
X0122720Y0054165D01*
X0122642Y0054028D01*
X0122560Y0053892D01*
X0122476Y0053758D01*
X0122387Y0053627D01*
X0122296Y0053498D01*
X0122201Y0053371D01*
X0122104Y0053246D01*
X0122003Y0053124D01*
X0121899Y0053005D01*
X0121792Y0052888D01*
X0121682Y0052774D01*
X0121569Y0052663D01*
X0121454Y0052554D01*
X0121336Y0052449D01*
X0121215Y0052347D01*
X0121092Y0052247D01*
X0120966Y0052151D01*
X0120838Y0052058D01*
X0120708Y0051968D01*
X0120575Y0051882D01*
X0120440Y0051798D01*
X0120304Y0051719D01*
X0120165Y0051642D01*
X0120024Y0051570D01*
X0119882Y0051500D01*
X0119738Y0051435D01*
X0119592Y0051373D01*
X0119445Y0051315D01*
X0119296Y0051260D01*
X0119146Y0051209D01*
X0118995Y0051162D01*
X0118843Y0051119D01*
X0118690Y0051080D01*
X0118535Y0051044D01*
X0118380Y0051013D01*
X0118224Y0050985D01*
X0118068Y0050961D01*
X0117911Y0050941D01*
X0117753Y0050925D01*
X0117596Y0050913D01*
X0117437Y0050905D01*
X0117279Y0050901D01*
X0117121Y0050901D01*
X0116963Y0050905D01*
X0116804Y0050913D01*
X0116647Y0050925D01*
X0116489Y0050941D01*
X0116332Y0050961D01*
X0116176Y0050985D01*
X0116020Y0051013D01*
X0115865Y0051044D01*
X0115710Y0051080D01*
X0115557Y0051119D01*
X0115405Y0051162D01*
X0115254Y0051209D01*
X0115104Y0051260D01*
X0114955Y0051315D01*
X0114808Y0051373D01*
X0114662Y0051435D01*
X0114518Y0051500D01*
X0114376Y0051570D01*
X0114235Y0051642D01*
X0114096Y0051719D01*
X0113960Y0051798D01*
X0113825Y0051882D01*
X0113692Y0051968D01*
X0113562Y0052058D01*
X0113434Y0052151D01*
X0113308Y0052247D01*
X0113185Y0052347D01*
X0113064Y0052449D01*
X0112946Y0052554D01*
X0112831Y0052663D01*
X0112718Y0052774D01*
X0112608Y0052888D01*
X0112501Y0053005D01*
X0112397Y0053124D01*
X0112296Y0053246D01*
X0112199Y0053371D01*
X0112104Y0053498D01*
X0112013Y0053627D01*
X0111924Y0053758D01*
X0111840Y0053892D01*
X0111758Y0054028D01*
X0111680Y0054165D01*
X0111606Y0054305D01*
X0111535Y0054447D01*
X0111467Y0054590D01*
X0111403Y0054735D01*
X0111343Y0054881D01*
X0111287Y0055029D01*
X0111234Y0055178D01*
X0111185Y0055329D01*
X0111140Y0055481D01*
X0111099Y0055634D01*
X0111061Y0055787D01*
X0111028Y0055942D01*
X0110998Y0056098D01*
X0110972Y0056254D01*
X0110951Y0056411D01*
X0110933Y0056568D01*
X0110919Y0056726D01*
X0110909Y0056884D01*
X0110903Y0057042D01*
X0110901Y0057200D01*
X0062200Y0017200D02*
X0059670Y0020657D01*
X0057225Y0024176D01*
X0054867Y0027753D01*
X0052597Y0031386D01*
X0050416Y0035075D01*
X0048327Y0038815D01*
X0046330Y0042605D01*
X0044426Y0046443D01*
X0042617Y0050327D01*
X0040903Y0054254D01*
X0039286Y0058221D01*
X0037766Y0062227D01*
X0036345Y0066269D01*
X0035023Y0070344D01*
X0033801Y0074451D01*
X0032680Y0078586D01*
X0031661Y0082747D01*
X0030744Y0086932D01*
X0029929Y0091139D01*
X0029218Y0095363D01*
X0028610Y0099605D01*
X0028107Y0103859D01*
X0027707Y0108125D01*
X0027412Y0112399D01*
X0027222Y0116679D01*
X0027136Y0120963D01*
X0027156Y0125247D01*
X0027280Y0129530D01*
X0027509Y0133808D01*
X0027842Y0138079D01*
X0028280Y0142341D01*
X0028822Y0146591D01*
X0029468Y0150827D01*
X0030218Y0155045D01*
X0031070Y0159244D01*
X0032025Y0163420D01*
X0033082Y0167572D01*
X0034240Y0171697D01*
X0035499Y0175793D01*
X0036857Y0179856D01*
X0038315Y0183885D01*
X0039871Y0187877D01*
X0041524Y0191829D01*
X0043273Y0195740D01*
X0045117Y0199607D01*
X0047056Y0203428D01*
X0049087Y0207200D01*
X0051210Y0210922D01*
X0053423Y0214590D01*
X0055726Y0218203D01*
X0058116Y0221759D01*
X0060593Y0225255D01*
X0063154Y0228689D01*
X0065799Y0232060D01*
X0068525Y0235365D01*
X0071332Y0238602D01*
X0074217Y0241770D01*
X0077178Y0244866D01*
X0080215Y0247889D01*
X0083324Y0250836D01*
X0086505Y0253707D01*
X0089754Y0256498D01*
X0093072Y0259210D01*
X0096454Y0261839D01*
X0099900Y0264385D01*
X0103407Y0266846D01*
X0106974Y0269220D01*
X0110597Y0271506D01*
X0114275Y0273703D01*
X0118006Y0275810D01*
X0121788Y0277824D01*
X0125617Y0279745D01*
X0129493Y0281572D01*
X0133411Y0283303D01*
X0137372Y0284939D01*
X0141371Y0286476D01*
X0145406Y0287916D01*
X0149475Y0289256D01*
X0153576Y0290496D01*
X0157706Y0291636D01*
X0161863Y0292674D01*
X0166044Y0293610D01*
X0170246Y0294443D01*
X0174468Y0295174D01*
X0178706Y0295800D01*
X0182959Y0296323D01*
X0187223Y0296742D01*
X0191495Y0297056D01*
X0195775Y0297266D01*
X0200058Y0297371D01*
X0204342Y0297371D01*
X0208625Y0297266D01*
X0212905Y0297056D01*
X0217177Y0296742D01*
X0221441Y0296323D01*
X0225694Y0295800D01*
X0229932Y0295174D01*
X0234154Y0294443D01*
X0238356Y0293610D01*
X0242537Y0292674D01*
X0246694Y0291636D01*
X0250824Y0290496D01*
X0254925Y0289256D01*
X0258994Y0287916D01*
X0263029Y0286476D01*
X0267028Y0284939D01*
X0270989Y0283303D01*
X0274907Y0281572D01*
X0278783Y0279745D01*
X0282612Y0277824D01*
X0286394Y0275810D01*
X0290125Y0273703D01*
X0293803Y0271506D01*
X0297426Y0269220D01*
X0300993Y0266846D01*
X0304500Y0264385D01*
X0307946Y0261839D01*
X0311328Y0259210D01*
X0314646Y0256498D01*
X0317895Y0253707D01*
X0321076Y0250836D01*
X0324185Y0247889D01*
X0327222Y0244866D01*
X0330183Y0241770D01*
X0333068Y0238602D01*
X0335875Y0235365D01*
X0338601Y0232060D01*
X0341246Y0228689D01*
X0343807Y0225255D01*
X0346284Y0221759D01*
X0348674Y0218203D01*
X0350977Y0214590D01*
X0353190Y0210922D01*
X0355313Y0207200D01*
X0357344Y0203428D01*
X0359283Y0199607D01*
X0361127Y0195740D01*
X0362876Y0191829D01*
X0364529Y0187877D01*
X0366085Y0183885D01*
X0367543Y0179856D01*
X0368901Y0175793D01*
X0370160Y0171697D01*
X0371318Y0167572D01*
X0372375Y0163420D01*
X0373330Y0159244D01*
X0374182Y0155045D01*
X0374932Y0150827D01*
X0375578Y0146591D01*
X0376120Y0142341D01*
X0376558Y0138079D01*
X0376891Y0133808D01*
X0377120Y0129530D01*
X0377244Y0125247D01*
X0377264Y0120963D01*
X0377178Y0116679D01*
X0376988Y0112399D01*
X0376693Y0108125D01*
X0376293Y0103859D01*
X0375790Y0099605D01*
X0375182Y0095363D01*
X0374471Y0091139D01*
X0373656Y0086932D01*
X0372739Y0082747D01*
X0371720Y0078586D01*
X0370599Y0074451D01*
X0369377Y0070344D01*
X0368055Y0066269D01*
X0366634Y0062227D01*
X0365114Y0058221D01*
X0363497Y0054254D01*
X0361783Y0050327D01*
X0359974Y0046443D01*
X0358070Y0042605D01*
X0356073Y0038815D01*
X0353984Y0035075D01*
X0351803Y0031386D01*
X0349533Y0027753D01*
X0347175Y0024176D01*
X0344730Y0020657D01*
X0342200Y0017200D01*
X0195901Y0197200D02*
X0195903Y0197358D01*
X0195909Y0197516D01*
X0195919Y0197674D01*
X0195933Y0197832D01*
X0195951Y0197989D01*
X0195972Y0198146D01*
X0195998Y0198302D01*
X0196028Y0198458D01*
X0196061Y0198613D01*
X0196099Y0198766D01*
X0196140Y0198919D01*
X0196185Y0199071D01*
X0196234Y0199222D01*
X0196287Y0199371D01*
X0196343Y0199519D01*
X0196403Y0199665D01*
X0196467Y0199810D01*
X0196535Y0199953D01*
X0196606Y0200095D01*
X0196680Y0200235D01*
X0196758Y0200372D01*
X0196840Y0200508D01*
X0196924Y0200642D01*
X0197013Y0200773D01*
X0197104Y0200902D01*
X0197199Y0201029D01*
X0197296Y0201154D01*
X0197397Y0201276D01*
X0197501Y0201395D01*
X0197608Y0201512D01*
X0197718Y0201626D01*
X0197831Y0201737D01*
X0197946Y0201846D01*
X0198064Y0201951D01*
X0198185Y0202053D01*
X0198308Y0202153D01*
X0198434Y0202249D01*
X0198562Y0202342D01*
X0198692Y0202432D01*
X0198825Y0202518D01*
X0198960Y0202602D01*
X0199096Y0202681D01*
X0199235Y0202758D01*
X0199376Y0202830D01*
X0199518Y0202900D01*
X0199662Y0202965D01*
X0199808Y0203027D01*
X0199955Y0203085D01*
X0200104Y0203140D01*
X0200254Y0203191D01*
X0200405Y0203238D01*
X0200557Y0203281D01*
X0200710Y0203320D01*
X0200865Y0203356D01*
X0201020Y0203387D01*
X0201176Y0203415D01*
X0201332Y0203439D01*
X0201489Y0203459D01*
X0201647Y0203475D01*
X0201804Y0203487D01*
X0201963Y0203495D01*
X0202121Y0203499D01*
X0202279Y0203499D01*
X0202437Y0203495D01*
X0202596Y0203487D01*
X0202753Y0203475D01*
X0202911Y0203459D01*
X0203068Y0203439D01*
X0203224Y0203415D01*
X0203380Y0203387D01*
X0203535Y0203356D01*
X0203690Y0203320D01*
X0203843Y0203281D01*
X0203995Y0203238D01*
X0204146Y0203191D01*
X0204296Y0203140D01*
X0204445Y0203085D01*
X0204592Y0203027D01*
X0204738Y0202965D01*
X0204882Y0202900D01*
X0205024Y0202830D01*
X0205165Y0202758D01*
X0205304Y0202681D01*
X0205440Y0202602D01*
X0205575Y0202518D01*
X0205708Y0202432D01*
X0205838Y0202342D01*
X0205966Y0202249D01*
X0206092Y0202153D01*
X0206215Y0202053D01*
X0206336Y0201951D01*
X0206454Y0201846D01*
X0206569Y0201737D01*
X0206682Y0201626D01*
X0206792Y0201512D01*
X0206899Y0201395D01*
X0207003Y0201276D01*
X0207104Y0201154D01*
X0207201Y0201029D01*
X0207296Y0200902D01*
X0207387Y0200773D01*
X0207476Y0200642D01*
X0207560Y0200508D01*
X0207642Y0200372D01*
X0207720Y0200235D01*
X0207794Y0200095D01*
X0207865Y0199953D01*
X0207933Y0199810D01*
X0207997Y0199665D01*
X0208057Y0199519D01*
X0208113Y0199371D01*
X0208166Y0199222D01*
X0208215Y0199071D01*
X0208260Y0198919D01*
X0208301Y0198766D01*
X0208339Y0198613D01*
X0208372Y0198458D01*
X0208402Y0198302D01*
X0208428Y0198146D01*
X0208449Y0197989D01*
X0208467Y0197832D01*
X0208481Y0197674D01*
X0208491Y0197516D01*
X0208497Y0197358D01*
X0208499Y0197200D01*
X0208497Y0197042D01*
X0208491Y0196884D01*
X0208481Y0196726D01*
X0208467Y0196568D01*
X0208449Y0196411D01*
X0208428Y0196254D01*
X0208402Y0196098D01*
X0208372Y0195942D01*
X0208339Y0195787D01*
X0208301Y0195634D01*
X0208260Y0195481D01*
X0208215Y0195329D01*
X0208166Y0195178D01*
X0208113Y0195029D01*
X0208057Y0194881D01*
X0207997Y0194735D01*
X0207933Y0194590D01*
X0207865Y0194447D01*
X0207794Y0194305D01*
X0207720Y0194165D01*
X0207642Y0194028D01*
X0207560Y0193892D01*
X0207476Y0193758D01*
X0207387Y0193627D01*
X0207296Y0193498D01*
X0207201Y0193371D01*
X0207104Y0193246D01*
X0207003Y0193124D01*
X0206899Y0193005D01*
X0206792Y0192888D01*
X0206682Y0192774D01*
X0206569Y0192663D01*
X0206454Y0192554D01*
X0206336Y0192449D01*
X0206215Y0192347D01*
X0206092Y0192247D01*
X0205966Y0192151D01*
X0205838Y0192058D01*
X0205708Y0191968D01*
X0205575Y0191882D01*
X0205440Y0191798D01*
X0205304Y0191719D01*
X0205165Y0191642D01*
X0205024Y0191570D01*
X0204882Y0191500D01*
X0204738Y0191435D01*
X0204592Y0191373D01*
X0204445Y0191315D01*
X0204296Y0191260D01*
X0204146Y0191209D01*
X0203995Y0191162D01*
X0203843Y0191119D01*
X0203690Y0191080D01*
X0203535Y0191044D01*
X0203380Y0191013D01*
X0203224Y0190985D01*
X0203068Y0190961D01*
X0202911Y0190941D01*
X0202753Y0190925D01*
X0202596Y0190913D01*
X0202437Y0190905D01*
X0202279Y0190901D01*
X0202121Y0190901D01*
X0201963Y0190905D01*
X0201804Y0190913D01*
X0201647Y0190925D01*
X0201489Y0190941D01*
X0201332Y0190961D01*
X0201176Y0190985D01*
X0201020Y0191013D01*
X0200865Y0191044D01*
X0200710Y0191080D01*
X0200557Y0191119D01*
X0200405Y0191162D01*
X0200254Y0191209D01*
X0200104Y0191260D01*
X0199955Y0191315D01*
X0199808Y0191373D01*
X0199662Y0191435D01*
X0199518Y0191500D01*
X0199376Y0191570D01*
X0199235Y0191642D01*
X0199096Y0191719D01*
X0198960Y0191798D01*
X0198825Y0191882D01*
X0198692Y0191968D01*
X0198562Y0192058D01*
X0198434Y0192151D01*
X0198308Y0192247D01*
X0198185Y0192347D01*
X0198064Y0192449D01*
X0197946Y0192554D01*
X0197831Y0192663D01*
X0197718Y0192774D01*
X0197608Y0192888D01*
X0197501Y0193005D01*
X0197397Y0193124D01*
X0197296Y0193246D01*
X0197199Y0193371D01*
X0197104Y0193498D01*
X0197013Y0193627D01*
X0196924Y0193758D01*
X0196840Y0193892D01*
X0196758Y0194028D01*
X0196680Y0194165D01*
X0196606Y0194305D01*
X0196535Y0194447D01*
X0196467Y0194590D01*
X0196403Y0194735D01*
X0196343Y0194881D01*
X0196287Y0195029D01*
X0196234Y0195178D01*
X0196185Y0195329D01*
X0196140Y0195481D01*
X0196099Y0195634D01*
X0196061Y0195787D01*
X0196028Y0195942D01*
X0195998Y0196098D01*
X0195972Y0196254D01*
X0195951Y0196411D01*
X0195933Y0196568D01*
X0195919Y0196726D01*
X0195909Y0196884D01*
X0195903Y0197042D01*
X0195901Y0197200D01*
D11*
X0244700Y0201354D03*
X0244700Y0208046D03*
X0254700Y0208046D03*
X0254700Y0201354D03*
X0229700Y0278854D03*
X0229700Y0285546D03*
X0219700Y0288046D03*
X0219700Y0281354D03*
X0207200Y0283854D03*
X0207200Y0290546D03*
X0197200Y0290546D03*
X0197200Y0283854D03*
X0184700Y0281354D03*
X0184700Y0288046D03*
X0174700Y0285546D03*
X0174700Y0278854D03*
X0132200Y0250546D03*
X0132200Y0243854D03*
X0122200Y0243854D03*
X0122200Y0250546D03*
D12*
X0134700Y0212200D03*
X0144700Y0212200D03*
X0199987Y0141413D03*
X0207058Y0134342D03*
X0214129Y0127271D03*
X0221200Y0120200D03*
X0272200Y0117200D03*
X0272200Y0127200D03*
X0272200Y0137200D03*
X0272200Y0147200D03*
D13*
X0117200Y0209700D03*
X0107200Y0199700D03*
X0097200Y0209700D03*
X0107200Y0219700D03*
D14*
X0133401Y0258263D03*
X0136550Y0258263D03*
X0139700Y0258263D03*
X0142850Y0258263D03*
X0145999Y0258263D03*
X0145999Y0266137D03*
X0142850Y0266137D03*
X0139700Y0266137D03*
X0136550Y0266137D03*
X0133401Y0266137D03*
D15*
X0131629Y0262200D03*
X0147771Y0262200D03*
D16*
X0133243Y0264857D03*
D17*
X0164228Y0264759D03*
X0164228Y0262200D03*
X0164228Y0259641D03*
X0164228Y0257082D03*
X0164228Y0267318D03*
X0180172Y0267318D03*
X0180172Y0264759D03*
X0180172Y0262200D03*
X0180172Y0259641D03*
X0180172Y0257082D03*
X0194228Y0257082D03*
X0194228Y0259641D03*
X0194228Y0262200D03*
X0194228Y0264759D03*
X0194228Y0267318D03*
X0210172Y0267318D03*
X0210172Y0264759D03*
X0210172Y0262200D03*
X0210172Y0259641D03*
X0210172Y0257082D03*
X0224228Y0257082D03*
X0224228Y0259641D03*
X0224228Y0262200D03*
X0224228Y0264759D03*
X0224228Y0267318D03*
X0240172Y0267318D03*
X0240172Y0264759D03*
X0240172Y0262200D03*
X0240172Y0259641D03*
X0240172Y0257082D03*
D18*
X0237318Y0254621D03*
X0234759Y0254621D03*
X0232200Y0254621D03*
X0229641Y0254621D03*
X0227082Y0254621D03*
X0227082Y0269779D03*
X0229641Y0269779D03*
X0232200Y0269779D03*
X0234759Y0269779D03*
X0237318Y0269779D03*
X0207318Y0269779D03*
X0204759Y0269779D03*
X0202200Y0269779D03*
X0199641Y0269779D03*
X0197082Y0269779D03*
X0197082Y0254621D03*
X0199641Y0254621D03*
X0202200Y0254621D03*
X0204759Y0254621D03*
X0207318Y0254621D03*
X0177318Y0254621D03*
X0174759Y0254621D03*
X0172200Y0254621D03*
X0169641Y0254621D03*
X0167082Y0254621D03*
X0167082Y0269779D03*
X0169641Y0269779D03*
X0172200Y0269779D03*
X0174759Y0269779D03*
X0177318Y0269779D03*
D19*
X0187200Y0264600D03*
X0187200Y0260800D03*
X0170200Y0243100D03*
X0170200Y0239300D03*
X0164700Y0226600D03*
X0164700Y0222800D03*
X0147200Y0272800D03*
X0147200Y0276600D03*
X0154700Y0275300D03*
X0154700Y0279100D03*
X0159700Y0277800D03*
X0159700Y0281600D03*
X0164700Y0280300D03*
X0164700Y0284100D03*
D20*
X0165153Y0244917D03*
X0163184Y0244917D03*
X0161216Y0244917D03*
X0159247Y0244917D03*
X0159247Y0234483D03*
X0161216Y0234483D03*
X0163184Y0234483D03*
X0165153Y0234483D03*
D21*
X0242800Y0242200D03*
X0246600Y0242200D03*
X0246600Y0247200D03*
X0242800Y0247200D03*
D22*
X0144700Y0202200D03*
X0134700Y0202200D03*
X0134700Y0192200D03*
X0144700Y0192200D03*
D23*
X0259700Y0255369D03*
X0259700Y0264031D03*
D24*
X0255763Y0264031D03*
X0263637Y0264031D03*
X0263637Y0255369D03*
X0255763Y0255369D03*
D25*
X0256354Y0274700D03*
X0263046Y0274700D03*
X0178046Y0232200D03*
X0171354Y0232200D03*
X0108046Y0234700D03*
X0101354Y0234700D03*
X0101354Y0244700D03*
X0108046Y0244700D03*
D26*
X0173100Y0219700D03*
X0176300Y0219700D03*
X0246500Y0219700D03*
X0249700Y0219700D03*
X0252900Y0219700D03*
D27*
X0254700Y0201354D02*
X0254700Y0154700D01*
X0244700Y0147200D02*
X0244700Y0201354D01*
X0244700Y0147200D02*
X0205774Y0147200D01*
X0199987Y0141413D01*
X0207058Y0134342D02*
X0209916Y0137200D01*
X0254700Y0137200D01*
X0272200Y0137200D01*
X0272200Y0127200D02*
X0249700Y0127200D01*
X0214200Y0127200D01*
X0214129Y0127271D01*
X0244700Y0147200D02*
X0272200Y0147200D01*
D28*
X0262200Y0142200D03*
X0254700Y0137200D03*
X0262200Y0132200D03*
X0249700Y0127200D03*
X0232200Y0132200D03*
X0232200Y0142200D03*
X0254700Y0154700D03*
X0224700Y0214700D03*
X0239700Y0227200D03*
X0249700Y0227200D03*
X0259700Y0227200D03*
X0267200Y0232200D03*
X0262200Y0237200D03*
X0244700Y0252200D03*
X0237318Y0247200D03*
X0232200Y0242200D03*
X0232200Y0237200D03*
X0209700Y0247200D03*
X0204700Y0242200D03*
X0187200Y0232200D03*
X0183700Y0237200D03*
X0179700Y0242200D03*
X0179700Y0247200D03*
X0167200Y0249700D03*
X0159700Y0252200D03*
X0159200Y0248200D03*
X0155700Y0243200D03*
X0152700Y0240200D03*
X0139700Y0232200D03*
X0134700Y0232200D03*
X0136550Y0237200D03*
X0125200Y0235200D03*
X0139700Y0227200D03*
X0146200Y0223700D03*
X0150700Y0217200D03*
X0169700Y0227200D03*
X0191200Y0223700D03*
X0152700Y0256200D03*
X0155700Y0260200D03*
X0153200Y0264200D03*
X0154700Y0269700D03*
X0159700Y0269700D03*
X0164700Y0275700D03*
X0168700Y0278700D03*
X0183200Y0272200D03*
X0190700Y0275700D03*
X0202200Y0276200D03*
X0213200Y0272200D03*
X0219700Y0264700D03*
X0214700Y0259700D03*
X0224700Y0273700D03*
X0243200Y0272200D03*
X0148200Y0252200D03*
X0143200Y0252200D03*
X0127200Y0262200D03*
X0139700Y0272200D03*
X0107200Y0209700D03*
D29*
X0128701Y0038252D02*
X0051167Y0038252D01*
X0050960Y0038589D02*
X0059319Y0025008D01*
X0063330Y0019400D01*
X0341070Y0019400D01*
X0345081Y0025008D01*
X0353440Y0038589D01*
X0360512Y0052882D01*
X0366237Y0067767D01*
X0370566Y0083116D01*
X0373462Y0098798D01*
X0374900Y0114680D01*
X0374869Y0130628D01*
X0373368Y0146504D01*
X0370411Y0162175D01*
X0366022Y0177507D01*
X0360239Y0192369D01*
X0353110Y0206634D01*
X0344698Y0220182D01*
X0335073Y0232898D01*
X0324317Y0244672D01*
X0312522Y0255405D01*
X0299787Y0265005D01*
X0286223Y0273391D01*
X0271943Y0280491D01*
X0257070Y0286245D01*
X0241730Y0290604D01*
X0226053Y0293530D01*
X0210174Y0295000D01*
X0194226Y0295000D01*
X0178347Y0293530D01*
X0162670Y0290604D01*
X0147330Y0286245D01*
X0132457Y0280491D01*
X0118177Y0273391D01*
X0104613Y0265005D01*
X0091878Y0255405D01*
X0080083Y0244672D01*
X0069327Y0232898D01*
X0059702Y0220182D01*
X0051290Y0206634D01*
X0044161Y0192369D01*
X0038378Y0177507D01*
X0033989Y0162175D01*
X0031032Y0146504D01*
X0029531Y0130628D01*
X0029500Y0114680D01*
X0030938Y0098798D01*
X0033834Y0083116D01*
X0038163Y0067767D01*
X0043888Y0052882D01*
X0050960Y0038589D01*
X0049940Y0040651D02*
X0129430Y0040651D01*
X0129995Y0042014D02*
X0128701Y0038891D01*
X0128701Y0035509D01*
X0129995Y0032386D01*
X0132386Y0029995D01*
X0135509Y0028701D01*
X0138891Y0028701D01*
X0142014Y0029995D01*
X0144405Y0032386D01*
X0145699Y0035509D01*
X0145699Y0038891D01*
X0144405Y0042014D01*
X0142014Y0044405D01*
X0138891Y0045699D01*
X0135509Y0045699D01*
X0132386Y0044405D01*
X0129995Y0042014D01*
X0131029Y0043049D02*
X0048753Y0043049D01*
X0047566Y0045448D02*
X0134902Y0045448D01*
X0139498Y0045448D02*
X0193726Y0045448D01*
X0193701Y0045509D02*
X0194995Y0042386D01*
X0197386Y0039995D01*
X0200509Y0038701D01*
X0203891Y0038701D01*
X0207014Y0039995D01*
X0209405Y0042386D01*
X0210699Y0045509D01*
X0210699Y0048891D01*
X0209405Y0052014D01*
X0207014Y0054405D01*
X0203891Y0055699D01*
X0200509Y0055699D01*
X0197386Y0054405D01*
X0194995Y0052014D01*
X0193701Y0048891D01*
X0193701Y0045509D01*
X0193701Y0047846D02*
X0046379Y0047846D01*
X0045193Y0050245D02*
X0112136Y0050245D01*
X0112386Y0049995D02*
X0115509Y0048701D01*
X0118891Y0048701D01*
X0122014Y0049995D01*
X0124405Y0052386D01*
X0125699Y0055509D01*
X0125699Y0058891D01*
X0124405Y0062014D01*
X0122014Y0064405D01*
X0118891Y0065699D01*
X0115509Y0065699D01*
X0112386Y0064405D01*
X0109995Y0062014D01*
X0108701Y0058891D01*
X0108701Y0055509D01*
X0109995Y0052386D01*
X0112386Y0049995D01*
X0109888Y0052643D02*
X0044006Y0052643D01*
X0043057Y0055042D02*
X0108895Y0055042D01*
X0108701Y0057440D02*
X0042135Y0057440D01*
X0041212Y0059839D02*
X0109094Y0059839D01*
X0110218Y0062237D02*
X0040290Y0062237D01*
X0039367Y0064636D02*
X0112942Y0064636D01*
X0121458Y0064636D02*
X0365033Y0064636D01*
X0365955Y0067034D02*
X0038445Y0067034D01*
X0037693Y0069433D02*
X0366707Y0069433D01*
X0367383Y0071831D02*
X0037017Y0071831D01*
X0036340Y0074230D02*
X0368060Y0074230D01*
X0368736Y0076628D02*
X0035664Y0076628D01*
X0034987Y0079027D02*
X0369413Y0079027D01*
X0370089Y0081425D02*
X0034311Y0081425D01*
X0033703Y0083824D02*
X0370697Y0083824D01*
X0371140Y0086222D02*
X0033260Y0086222D01*
X0032817Y0088621D02*
X0371583Y0088621D01*
X0372026Y0091019D02*
X0032374Y0091019D01*
X0031932Y0093418D02*
X0372468Y0093418D01*
X0372911Y0095816D02*
X0031489Y0095816D01*
X0031046Y0098215D02*
X0373354Y0098215D01*
X0373626Y0100613D02*
X0030774Y0100613D01*
X0030556Y0103012D02*
X0373844Y0103012D01*
X0374061Y0105410D02*
X0030339Y0105410D01*
X0030122Y0107809D02*
X0374278Y0107809D01*
X0374495Y0110207D02*
X0029905Y0110207D01*
X0029688Y0112606D02*
X0268485Y0112606D01*
X0268356Y0112700D02*
X0269108Y0112154D01*
X0269935Y0111732D01*
X0270818Y0111445D01*
X0271736Y0111300D01*
X0272200Y0111300D01*
X0272664Y0111300D01*
X0273582Y0111445D01*
X0274465Y0111732D01*
X0275292Y0112154D01*
X0276044Y0112700D01*
X0276700Y0113356D01*
X0277246Y0114108D01*
X0277668Y0114935D01*
X0277955Y0115818D01*
X0278100Y0116736D01*
X0278100Y0117200D01*
X0278100Y0117664D01*
X0277955Y0118582D01*
X0277668Y0119465D01*
X0277246Y0120292D01*
X0276700Y0121044D01*
X0276044Y0121700D01*
X0275292Y0122246D01*
X0274870Y0122461D01*
X0275259Y0122622D01*
X0276778Y0124141D01*
X0277600Y0126126D01*
X0277600Y0128274D01*
X0276778Y0130259D01*
X0275259Y0131778D01*
X0274240Y0132200D01*
X0275259Y0132622D01*
X0276778Y0134141D01*
X0277600Y0136126D01*
X0277600Y0138274D01*
X0276778Y0140259D01*
X0275259Y0141778D01*
X0274240Y0142200D01*
X0275259Y0142622D01*
X0276778Y0144141D01*
X0277600Y0146126D01*
X0277600Y0148274D01*
X0276778Y0150259D01*
X0275259Y0151778D01*
X0273274Y0152600D01*
X0271126Y0152600D01*
X0269141Y0151778D01*
X0267863Y0150500D01*
X0248000Y0150500D01*
X0248000Y0198116D01*
X0248368Y0198484D01*
X0248368Y0204223D01*
X0247892Y0204700D01*
X0248368Y0205177D01*
X0248368Y0210916D01*
X0247519Y0211766D01*
X0248800Y0213047D01*
X0248800Y0215500D01*
X0250600Y0215500D01*
X0250600Y0213047D01*
X0251881Y0211766D01*
X0251031Y0210916D01*
X0251031Y0205177D01*
X0251508Y0204700D01*
X0251031Y0204223D01*
X0251031Y0198484D01*
X0251400Y0198116D01*
X0251400Y0154044D01*
X0251902Y0152831D01*
X0252831Y0151902D01*
X0254044Y0151400D01*
X0255356Y0151400D01*
X0256569Y0151902D01*
X0257498Y0152831D01*
X0258000Y0154044D01*
X0258000Y0198116D01*
X0258368Y0198484D01*
X0258368Y0198854D01*
X0261851Y0198854D01*
X0262770Y0199234D01*
X0269319Y0205784D01*
X0269700Y0206703D01*
X0269700Y0230055D01*
X0269984Y0230340D01*
X0270484Y0231547D01*
X0270484Y0231949D01*
X0271819Y0233284D01*
X0272200Y0234203D01*
X0272200Y0265197D01*
X0271819Y0266116D01*
X0271116Y0266819D01*
X0268616Y0269319D01*
X0267697Y0269700D01*
X0264203Y0269700D01*
X0263284Y0269319D01*
X0262581Y0268616D01*
X0261861Y0267896D01*
X0258263Y0267896D01*
X0258263Y0271031D01*
X0259223Y0271031D01*
X0259346Y0271155D01*
X0259530Y0270971D01*
X0260032Y0270681D01*
X0260591Y0270531D01*
X0263046Y0270531D01*
X0263046Y0274700D01*
X0263046Y0278868D01*
X0260591Y0278868D01*
X0260032Y0278719D01*
X0259530Y0278429D01*
X0259346Y0278245D01*
X0259223Y0278368D01*
X0253484Y0278368D01*
X0252488Y0277373D01*
X0252488Y0277200D01*
X0251243Y0277200D01*
X0251215Y0277211D01*
X0246656Y0280999D01*
X0246343Y0281312D01*
X0246215Y0281365D01*
X0246109Y0281453D01*
X0245686Y0281584D01*
X0245277Y0281754D01*
X0245139Y0281754D01*
X0245007Y0281794D01*
X0244566Y0281754D01*
X0233338Y0281754D01*
X0233245Y0281846D01*
X0233429Y0282030D01*
X0233719Y0282532D01*
X0233868Y0283091D01*
X0233868Y0285546D01*
X0229700Y0285546D01*
X0225531Y0285546D01*
X0225531Y0283091D01*
X0225681Y0282532D01*
X0225971Y0282030D01*
X0226155Y0281846D01*
X0226031Y0281723D01*
X0226031Y0281354D01*
X0223368Y0281354D01*
X0223368Y0284223D01*
X0223245Y0284346D01*
X0223429Y0284530D01*
X0223719Y0285032D01*
X0223868Y0285591D01*
X0223868Y0288046D01*
X0219700Y0288046D01*
X0215531Y0288046D01*
X0215531Y0285591D01*
X0215681Y0285032D01*
X0215971Y0284530D01*
X0216155Y0284346D01*
X0216031Y0284223D01*
X0216031Y0283854D01*
X0210868Y0283854D01*
X0210868Y0286723D01*
X0210745Y0286846D01*
X0210929Y0287030D01*
X0211219Y0287532D01*
X0211368Y0288091D01*
X0211368Y0290546D01*
X0207200Y0290546D01*
X0203031Y0290546D01*
X0203031Y0288091D01*
X0203181Y0287532D01*
X0203471Y0287030D01*
X0203655Y0286846D01*
X0203531Y0286723D01*
X0203531Y0286354D01*
X0200868Y0286354D01*
X0200868Y0286723D01*
X0200745Y0286846D01*
X0200929Y0287030D01*
X0201219Y0287532D01*
X0201368Y0288091D01*
X0201368Y0290546D01*
X0197200Y0290546D01*
X0193031Y0290546D01*
X0193031Y0288091D01*
X0193181Y0287532D01*
X0193471Y0287030D01*
X0193655Y0286846D01*
X0193531Y0286723D01*
X0193531Y0283854D01*
X0188368Y0283854D01*
X0188368Y0284223D01*
X0188245Y0284346D01*
X0188429Y0284530D01*
X0188719Y0285032D01*
X0188868Y0285591D01*
X0188868Y0288046D01*
X0184700Y0288046D01*
X0180531Y0288046D01*
X0180531Y0285591D01*
X0180681Y0285032D01*
X0180971Y0284530D01*
X0181155Y0284346D01*
X0181031Y0284223D01*
X0181031Y0281354D01*
X0178368Y0281354D01*
X0178368Y0281723D01*
X0178245Y0281846D01*
X0178429Y0282030D01*
X0178719Y0282532D01*
X0178868Y0283091D01*
X0178868Y0285546D01*
X0174700Y0285546D01*
X0170531Y0285546D01*
X0170531Y0284904D01*
X0169216Y0286219D01*
X0168297Y0286600D01*
X0166704Y0286600D01*
X0166604Y0286700D01*
X0162796Y0286700D01*
X0162696Y0286600D01*
X0161703Y0286600D01*
X0160784Y0286219D01*
X0158764Y0284200D01*
X0157796Y0284200D01*
X0157696Y0284100D01*
X0156703Y0284100D01*
X0155784Y0283719D01*
X0153764Y0281700D01*
X0152796Y0281700D01*
X0152696Y0281600D01*
X0149203Y0281600D01*
X0148284Y0281219D01*
X0146264Y0279200D01*
X0145296Y0279200D01*
X0145196Y0279100D01*
X0138603Y0279100D01*
X0137684Y0278719D01*
X0132365Y0273401D01*
X0127903Y0273401D01*
X0126985Y0273020D01*
X0120784Y0266819D01*
X0120081Y0266116D01*
X0119700Y0265197D01*
X0119700Y0254412D01*
X0119527Y0254412D01*
X0118531Y0253416D01*
X0118531Y0253046D01*
X0117549Y0253046D01*
X0116630Y0252666D01*
X0115927Y0251963D01*
X0113284Y0249319D01*
X0112581Y0248616D01*
X0112200Y0247697D01*
X0112200Y0247200D01*
X0111912Y0247200D01*
X0111912Y0247373D01*
X0110916Y0248368D01*
X0105177Y0248368D01*
X0105054Y0248245D01*
X0104870Y0248429D01*
X0104368Y0248719D01*
X0103809Y0248868D01*
X0101354Y0248868D01*
X0101354Y0244700D01*
X0101354Y0240531D01*
X0103809Y0240531D01*
X0104368Y0240681D01*
X0104870Y0240971D01*
X0105054Y0241155D01*
X0105177Y0241031D01*
X0110916Y0241031D01*
X0111912Y0242027D01*
X0111912Y0242200D01*
X0112200Y0242200D01*
X0112200Y0237200D01*
X0111912Y0237200D01*
X0111912Y0237373D01*
X0110916Y0238368D01*
X0105177Y0238368D01*
X0105054Y0238245D01*
X0104870Y0238429D01*
X0104368Y0238719D01*
X0103809Y0238868D01*
X0101354Y0238868D01*
X0101354Y0234700D01*
X0101354Y0230531D01*
X0103809Y0230531D01*
X0104368Y0230681D01*
X0104870Y0230971D01*
X0105054Y0231155D01*
X0105177Y0231031D01*
X0110916Y0231031D01*
X0111912Y0232027D01*
X0111912Y0232200D01*
X0112200Y0232200D01*
X0112200Y0230736D01*
X0106664Y0225200D01*
X0106106Y0225200D01*
X0104084Y0224363D01*
X0102537Y0222815D01*
X0101700Y0220794D01*
X0101700Y0218606D01*
X0102537Y0216584D01*
X0104084Y0215037D01*
X0106106Y0214200D01*
X0108294Y0214200D01*
X0110315Y0215037D01*
X0111863Y0216584D01*
X0112700Y0218606D01*
X0112700Y0220794D01*
X0111863Y0222815D01*
X0111607Y0223071D01*
X0114700Y0226164D01*
X0115081Y0225784D01*
X0115081Y0225784D01*
X0115784Y0225081D01*
X0116703Y0224700D01*
X0137555Y0224700D01*
X0137840Y0224416D01*
X0139047Y0223916D01*
X0140353Y0223916D01*
X0140900Y0224142D01*
X0140900Y0221653D01*
X0136533Y0217286D01*
X0135774Y0217600D01*
X0133626Y0217600D01*
X0131641Y0216778D01*
X0130122Y0215259D01*
X0129300Y0213274D01*
X0129300Y0211126D01*
X0130122Y0209141D01*
X0131641Y0207622D01*
X0133626Y0206800D01*
X0135774Y0206800D01*
X0136241Y0206993D01*
X0135844Y0206597D01*
X0135595Y0206700D01*
X0133805Y0206700D01*
X0132151Y0206015D01*
X0130885Y0204749D01*
X0130200Y0203095D01*
X0130200Y0201305D01*
X0130885Y0199651D01*
X0132151Y0198385D01*
X0133805Y0197700D01*
X0135595Y0197700D01*
X0137249Y0198385D01*
X0138515Y0199651D01*
X0139200Y0201305D01*
X0139200Y0203095D01*
X0139097Y0203344D01*
X0139653Y0203900D01*
X0140533Y0203900D01*
X0140200Y0203095D01*
X0140200Y0201305D01*
X0140885Y0199651D01*
X0141036Y0199500D01*
X0138747Y0199500D01*
X0135844Y0196597D01*
X0135595Y0196700D01*
X0133805Y0196700D01*
X0132151Y0196015D01*
X0130885Y0194749D01*
X0130200Y0193095D01*
X0130200Y0191305D01*
X0130885Y0189651D01*
X0132151Y0188385D01*
X0133805Y0187700D01*
X0135595Y0187700D01*
X0137249Y0188385D01*
X0138515Y0189651D01*
X0139200Y0191305D01*
X0139200Y0193095D01*
X0139097Y0193344D01*
X0140653Y0194900D01*
X0141036Y0194900D01*
X0140885Y0194749D01*
X0140200Y0193095D01*
X0140200Y0191305D01*
X0140885Y0189651D01*
X0142151Y0188385D01*
X0143805Y0187700D01*
X0145595Y0187700D01*
X0147249Y0188385D01*
X0148515Y0189651D01*
X0149200Y0191305D01*
X0149200Y0193095D01*
X0149097Y0193344D01*
X0163516Y0207763D01*
X0163516Y0219700D01*
X0164700Y0219700D01*
X0166190Y0219700D01*
X0166749Y0219850D01*
X0167251Y0220140D01*
X0167660Y0220549D01*
X0167950Y0221051D01*
X0168100Y0221610D01*
X0168100Y0222800D01*
X0168100Y0223990D01*
X0168004Y0224348D01*
X0169047Y0223916D01*
X0170353Y0223916D01*
X0170596Y0224016D01*
X0170499Y0223960D01*
X0170090Y0223551D01*
X0169800Y0223049D01*
X0169650Y0222490D01*
X0169650Y0219700D01*
X0173100Y0219700D01*
X0173100Y0219700D01*
X0173100Y0224400D01*
X0174640Y0224400D01*
X0175199Y0224250D01*
X0175546Y0224050D01*
X0175546Y0228531D01*
X0175177Y0228531D01*
X0174700Y0229008D01*
X0174223Y0228531D01*
X0172703Y0228531D01*
X0172984Y0227853D01*
X0172984Y0226547D01*
X0172484Y0225340D01*
X0171560Y0224416D01*
X0171453Y0224371D01*
X0171560Y0224400D01*
X0173100Y0224400D01*
X0173100Y0219700D01*
X0173100Y0215000D01*
X0174640Y0215000D01*
X0175199Y0215150D01*
X0175701Y0215440D01*
X0175761Y0215500D01*
X0178254Y0215500D01*
X0179250Y0216496D01*
X0179250Y0219114D01*
X0179463Y0219327D01*
X0180166Y0220030D01*
X0180546Y0220949D01*
X0180546Y0228531D01*
X0180916Y0228531D01*
X0181912Y0229527D01*
X0181912Y0234386D01*
X0183047Y0233916D01*
X0184353Y0233916D01*
X0184356Y0233917D01*
X0183916Y0232853D01*
X0183916Y0231547D01*
X0184416Y0230340D01*
X0185340Y0229416D01*
X0186547Y0228916D01*
X0187853Y0228916D01*
X0188900Y0229349D01*
X0188900Y0226045D01*
X0188416Y0225560D01*
X0187916Y0224353D01*
X0187916Y0223047D01*
X0188416Y0221840D01*
X0189340Y0220916D01*
X0190547Y0220416D01*
X0191853Y0220416D01*
X0193060Y0220916D01*
X0193984Y0221840D01*
X0194484Y0223047D01*
X0194484Y0224353D01*
X0193984Y0225560D01*
X0193500Y0226045D01*
X0193500Y0254594D01*
X0194594Y0254594D01*
X0194594Y0252834D01*
X0195590Y0251839D01*
X0202400Y0251839D01*
X0202400Y0244545D01*
X0201916Y0244060D01*
X0201416Y0242853D01*
X0201416Y0241547D01*
X0201916Y0240340D01*
X0202840Y0239416D01*
X0204047Y0238916D01*
X0205353Y0238916D01*
X0206560Y0239416D01*
X0207484Y0240340D01*
X0207984Y0241547D01*
X0207984Y0242853D01*
X0207484Y0244060D01*
X0207000Y0244545D01*
X0207000Y0245255D01*
X0207840Y0244416D01*
X0209047Y0243916D01*
X0210353Y0243916D01*
X0211560Y0244416D01*
X0212484Y0245340D01*
X0212984Y0246547D01*
X0212984Y0247853D01*
X0212484Y0249060D01*
X0212000Y0249545D01*
X0212000Y0250653D01*
X0209805Y0252847D01*
X0209805Y0254594D01*
X0211959Y0254594D01*
X0212955Y0255590D01*
X0212955Y0262400D01*
X0215653Y0262400D01*
X0216675Y0263422D01*
X0216916Y0262840D01*
X0217840Y0261916D01*
X0219047Y0261416D01*
X0220353Y0261416D01*
X0221445Y0261868D01*
X0221445Y0255590D01*
X0222441Y0254594D01*
X0224594Y0254594D01*
X0224594Y0252834D01*
X0225590Y0251839D01*
X0232459Y0251839D01*
X0232459Y0250712D01*
X0229900Y0248153D01*
X0229900Y0244545D01*
X0229416Y0244060D01*
X0228916Y0242853D01*
X0228916Y0241547D01*
X0229416Y0240340D01*
X0230055Y0239700D01*
X0229416Y0239060D01*
X0228916Y0237853D01*
X0228916Y0236547D01*
X0229416Y0235340D01*
X0229700Y0235055D01*
X0229700Y0206703D01*
X0230081Y0205784D01*
X0230784Y0205081D01*
X0235927Y0199937D01*
X0236630Y0199234D01*
X0237549Y0198854D01*
X0241031Y0198854D01*
X0241031Y0198484D01*
X0241400Y0198116D01*
X0241400Y0150500D01*
X0205117Y0150500D01*
X0203904Y0149998D01*
X0202976Y0149069D01*
X0200720Y0146813D01*
X0198913Y0146813D01*
X0196928Y0145991D01*
X0195409Y0144472D01*
X0194587Y0142487D01*
X0194587Y0140339D01*
X0195409Y0138354D01*
X0196928Y0136835D01*
X0198913Y0136013D01*
X0201061Y0136013D01*
X0202080Y0136435D01*
X0201658Y0135416D01*
X0201658Y0133268D01*
X0202480Y0131283D01*
X0203999Y0129764D01*
X0205984Y0128942D01*
X0208132Y0128942D01*
X0209151Y0129364D01*
X0208729Y0128345D01*
X0208729Y0126197D01*
X0209551Y0124212D01*
X0211070Y0122693D01*
X0213055Y0121871D01*
X0215203Y0121871D01*
X0215592Y0122032D01*
X0215445Y0121582D01*
X0215300Y0120664D01*
X0215300Y0119736D01*
X0215445Y0118818D01*
X0215732Y0117935D01*
X0216154Y0117108D01*
X0216700Y0116356D01*
X0217028Y0116028D01*
X0217356Y0115700D01*
X0218108Y0115154D01*
X0218935Y0114732D01*
X0219818Y0114445D01*
X0220736Y0114300D01*
X0221664Y0114300D01*
X0222582Y0114445D01*
X0223465Y0114732D01*
X0224292Y0115154D01*
X0225044Y0115700D01*
X0225372Y0116028D01*
X0225700Y0116356D01*
X0226246Y0117108D01*
X0226668Y0117935D01*
X0226955Y0118818D01*
X0227100Y0119736D01*
X0227100Y0120664D01*
X0226955Y0121582D01*
X0226668Y0122465D01*
X0226246Y0123292D01*
X0225805Y0123900D01*
X0267863Y0123900D01*
X0269141Y0122622D01*
X0269530Y0122461D01*
X0269108Y0122246D01*
X0268356Y0121700D01*
X0267700Y0121044D01*
X0267154Y0120292D01*
X0266732Y0119465D01*
X0266445Y0118582D01*
X0266300Y0117664D01*
X0266300Y0117200D01*
X0272200Y0117200D01*
X0278100Y0117200D01*
X0272200Y0117200D01*
X0272200Y0117200D01*
X0272200Y0111300D01*
X0272200Y0117200D01*
X0272200Y0117200D01*
X0272200Y0117200D01*
X0266300Y0117200D01*
X0266300Y0116736D01*
X0266445Y0115818D01*
X0266732Y0114935D01*
X0267154Y0114108D01*
X0267700Y0113356D01*
X0268356Y0112700D01*
X0266710Y0115004D02*
X0223999Y0115004D01*
X0225372Y0116028D02*
X0221200Y0120200D01*
X0225372Y0116028D01*
X0226397Y0117403D02*
X0266300Y0117403D01*
X0266904Y0119801D02*
X0227100Y0119801D01*
X0226754Y0122200D02*
X0269044Y0122200D01*
X0275356Y0122200D02*
X0374886Y0122200D01*
X0374890Y0119801D02*
X0277496Y0119801D01*
X0278100Y0117403D02*
X0374895Y0117403D01*
X0374900Y0115004D02*
X0277690Y0115004D01*
X0275915Y0112606D02*
X0374712Y0112606D01*
X0374881Y0124599D02*
X0276967Y0124599D01*
X0277600Y0126997D02*
X0374876Y0126997D01*
X0374871Y0129396D02*
X0277135Y0129396D01*
X0275220Y0131794D02*
X0374759Y0131794D01*
X0374532Y0134193D02*
X0276799Y0134193D01*
X0277600Y0136591D02*
X0374305Y0136591D01*
X0374079Y0138990D02*
X0277304Y0138990D01*
X0275649Y0141388D02*
X0373852Y0141388D01*
X0373625Y0143787D02*
X0276423Y0143787D01*
X0277600Y0146185D02*
X0373398Y0146185D01*
X0372976Y0148584D02*
X0277472Y0148584D01*
X0276055Y0150982D02*
X0372523Y0150982D01*
X0372070Y0153381D02*
X0257725Y0153381D01*
X0258000Y0155779D02*
X0371618Y0155779D01*
X0371165Y0158178D02*
X0258000Y0158178D01*
X0258000Y0160576D02*
X0370713Y0160576D01*
X0370182Y0162975D02*
X0258000Y0162975D01*
X0258000Y0165373D02*
X0369495Y0165373D01*
X0368809Y0167772D02*
X0258000Y0167772D01*
X0258000Y0170170D02*
X0368122Y0170170D01*
X0367435Y0172569D02*
X0258000Y0172569D01*
X0258000Y0174967D02*
X0366749Y0174967D01*
X0366062Y0177366D02*
X0258000Y0177366D01*
X0258000Y0179764D02*
X0365143Y0179764D01*
X0364210Y0182163D02*
X0258000Y0182163D01*
X0258000Y0184561D02*
X0363277Y0184561D01*
X0362343Y0186960D02*
X0258000Y0186960D01*
X0258000Y0189358D02*
X0361410Y0189358D01*
X0360477Y0191757D02*
X0258000Y0191757D01*
X0258000Y0194155D02*
X0359346Y0194155D01*
X0358147Y0196554D02*
X0258000Y0196554D01*
X0262089Y0198952D02*
X0356949Y0198952D01*
X0355750Y0201351D02*
X0264886Y0201351D01*
X0267285Y0203749D02*
X0354552Y0203749D01*
X0353353Y0206148D02*
X0269470Y0206148D01*
X0269700Y0208546D02*
X0351923Y0208546D01*
X0350434Y0210945D02*
X0269700Y0210945D01*
X0269700Y0213343D02*
X0348944Y0213343D01*
X0347455Y0215742D02*
X0269700Y0215742D01*
X0269700Y0218140D02*
X0345966Y0218140D01*
X0344428Y0220539D02*
X0269700Y0220539D01*
X0269700Y0222937D02*
X0342612Y0222937D01*
X0340797Y0225336D02*
X0269700Y0225336D01*
X0269700Y0227734D02*
X0338981Y0227734D01*
X0337166Y0230133D02*
X0269778Y0230133D01*
X0271067Y0232532D02*
X0335350Y0232532D01*
X0333216Y0234930D02*
X0272200Y0234930D01*
X0272200Y0237329D02*
X0331025Y0237329D01*
X0328834Y0239727D02*
X0272200Y0239727D01*
X0272200Y0242126D02*
X0326643Y0242126D01*
X0324452Y0244524D02*
X0272200Y0244524D01*
X0272200Y0246923D02*
X0321843Y0246923D01*
X0319207Y0249321D02*
X0272200Y0249321D01*
X0272200Y0251720D02*
X0316571Y0251720D01*
X0313935Y0254118D02*
X0272200Y0254118D01*
X0272200Y0256517D02*
X0311046Y0256517D01*
X0307865Y0258915D02*
X0272200Y0258915D01*
X0272200Y0261314D02*
X0304684Y0261314D01*
X0301502Y0263712D02*
X0272200Y0263712D01*
X0271822Y0266111D02*
X0297999Y0266111D01*
X0294119Y0268509D02*
X0269426Y0268509D01*
X0266563Y0270971D02*
X0266972Y0271381D01*
X0267262Y0271882D01*
X0267412Y0272442D01*
X0267412Y0274700D01*
X0267412Y0276958D01*
X0267262Y0277518D01*
X0266972Y0278019D01*
X0266563Y0278429D01*
X0266061Y0278719D01*
X0265501Y0278868D01*
X0263047Y0278868D01*
X0263047Y0274700D01*
X0267412Y0274700D01*
X0263047Y0274700D01*
X0263047Y0274700D01*
X0263046Y0274700D01*
X0263047Y0274700D01*
X0263047Y0270531D01*
X0265501Y0270531D01*
X0266061Y0270681D01*
X0266563Y0270971D01*
X0266453Y0270908D02*
X0290239Y0270908D01*
X0286359Y0273306D02*
X0267412Y0273306D01*
X0267412Y0275705D02*
X0281569Y0275705D01*
X0276745Y0278103D02*
X0266888Y0278103D01*
X0263047Y0278103D02*
X0263046Y0278103D01*
X0263046Y0275705D02*
X0263047Y0275705D01*
X0263046Y0273306D02*
X0263047Y0273306D01*
X0263046Y0270908D02*
X0263047Y0270908D01*
X0262474Y0268509D02*
X0258263Y0268509D01*
X0258263Y0270908D02*
X0259640Y0270908D01*
X0253263Y0270908D02*
X0252600Y0270908D01*
X0253263Y0271253D02*
X0253263Y0267281D01*
X0252882Y0266900D01*
X0252882Y0261161D01*
X0253878Y0260165D01*
X0265522Y0260165D01*
X0266518Y0261161D01*
X0266518Y0264346D01*
X0267200Y0263664D01*
X0267200Y0235736D01*
X0266949Y0235484D01*
X0266547Y0235484D01*
X0265340Y0234984D01*
X0264416Y0234060D01*
X0263916Y0232853D01*
X0263916Y0231547D01*
X0264416Y0230340D01*
X0264700Y0230055D01*
X0264700Y0208236D01*
X0260318Y0203854D01*
X0258368Y0203854D01*
X0258368Y0204223D01*
X0257892Y0204700D01*
X0258368Y0205177D01*
X0258368Y0210916D01*
X0257373Y0211912D01*
X0257000Y0211912D01*
X0257000Y0213153D01*
X0255200Y0214953D01*
X0255200Y0215846D01*
X0255850Y0216496D01*
X0255850Y0222904D01*
X0254854Y0223900D01*
X0252600Y0223900D01*
X0252600Y0225619D01*
X0252984Y0226547D01*
X0252984Y0227853D01*
X0252600Y0228781D01*
X0252600Y0252237D01*
X0252821Y0251853D01*
X0253231Y0251443D01*
X0253733Y0251154D01*
X0254292Y0251004D01*
X0255763Y0251004D01*
X0257234Y0251004D01*
X0257793Y0251154D01*
X0258295Y0251443D01*
X0258355Y0251504D01*
X0260468Y0251504D01*
X0260081Y0251116D01*
X0259700Y0250197D01*
X0259700Y0239345D01*
X0259416Y0239060D01*
X0258916Y0237853D01*
X0258916Y0236547D01*
X0259416Y0235340D01*
X0260340Y0234416D01*
X0261547Y0233916D01*
X0262853Y0233916D01*
X0264060Y0234416D01*
X0264984Y0235340D01*
X0265484Y0236547D01*
X0265484Y0237853D01*
X0264984Y0239060D01*
X0264700Y0239345D01*
X0264700Y0248664D01*
X0265756Y0249721D01*
X0266137Y0250640D01*
X0266137Y0252119D01*
X0266518Y0252500D01*
X0266518Y0258239D01*
X0265522Y0259235D01*
X0258355Y0259235D01*
X0258295Y0259295D01*
X0257793Y0259585D01*
X0257234Y0259735D01*
X0255763Y0259735D01*
X0254292Y0259735D01*
X0253733Y0259585D01*
X0253231Y0259295D01*
X0252821Y0258885D01*
X0252600Y0258502D01*
X0252600Y0271916D01*
X0253263Y0271253D01*
X0253263Y0268509D02*
X0252600Y0268509D01*
X0252600Y0266111D02*
X0252882Y0266111D01*
X0252882Y0263712D02*
X0252600Y0263712D01*
X0252600Y0261314D02*
X0252882Y0261314D01*
X0252851Y0258915D02*
X0252600Y0258915D01*
X0255763Y0258915D02*
X0255763Y0258915D01*
X0255763Y0259735D02*
X0255763Y0255369D01*
X0255763Y0251004D01*
X0255763Y0255369D01*
X0255763Y0255369D01*
X0255763Y0255369D01*
X0255763Y0259735D01*
X0255763Y0256517D02*
X0255763Y0256517D01*
X0255763Y0254118D02*
X0255763Y0254118D01*
X0255763Y0251720D02*
X0255763Y0251720D01*
X0252955Y0251720D02*
X0252600Y0251720D01*
X0252600Y0249321D02*
X0259700Y0249321D01*
X0259700Y0246923D02*
X0252600Y0246923D01*
X0252600Y0244524D02*
X0259700Y0244524D01*
X0259700Y0242126D02*
X0252600Y0242126D01*
X0252600Y0239727D02*
X0259700Y0239727D01*
X0258916Y0237329D02*
X0252600Y0237329D01*
X0252600Y0234930D02*
X0259825Y0234930D01*
X0263916Y0232532D02*
X0252600Y0232532D01*
X0252600Y0230133D02*
X0264622Y0230133D01*
X0264700Y0227734D02*
X0252984Y0227734D01*
X0252600Y0225336D02*
X0264700Y0225336D01*
X0264700Y0222937D02*
X0255817Y0222937D01*
X0255850Y0220539D02*
X0264700Y0220539D01*
X0264700Y0218140D02*
X0255850Y0218140D01*
X0255200Y0215742D02*
X0264700Y0215742D01*
X0264700Y0213343D02*
X0256809Y0213343D01*
X0258340Y0210945D02*
X0264700Y0210945D01*
X0264700Y0208546D02*
X0258368Y0208546D01*
X0258368Y0206148D02*
X0262612Y0206148D01*
X0251031Y0206148D02*
X0248368Y0206148D01*
X0248368Y0208546D02*
X0251031Y0208546D01*
X0251060Y0210945D02*
X0248340Y0210945D01*
X0248800Y0213343D02*
X0250600Y0213343D01*
X0249700Y0219700D02*
X0249700Y0227200D01*
X0249700Y0242200D01*
X0249700Y0247200D01*
X0249700Y0264700D01*
X0249700Y0274700D01*
X0244700Y0278854D01*
X0234700Y0278854D01*
X0229700Y0278854D01*
X0226031Y0276354D02*
X0226031Y0275984D01*
X0227027Y0274988D01*
X0232373Y0274988D01*
X0232400Y0275016D01*
X0232400Y0272561D01*
X0225590Y0272561D01*
X0224594Y0271566D01*
X0224594Y0269805D01*
X0222441Y0269805D01*
X0221445Y0268810D01*
X0221445Y0267532D01*
X0220353Y0267984D01*
X0219500Y0267984D01*
X0219500Y0277488D01*
X0220030Y0277488D01*
X0220784Y0276734D01*
X0221703Y0276354D01*
X0226031Y0276354D01*
X0226311Y0275705D02*
X0219500Y0275705D01*
X0219500Y0273306D02*
X0232400Y0273306D01*
X0237000Y0273306D02*
X0246800Y0273306D01*
X0246800Y0273339D02*
X0246800Y0267259D01*
X0242955Y0267259D01*
X0242955Y0268810D01*
X0241959Y0269805D01*
X0240305Y0269805D01*
X0240305Y0271151D01*
X0240156Y0271711D01*
X0239866Y0272212D01*
X0239456Y0272622D01*
X0238955Y0272911D01*
X0238395Y0273061D01*
X0237318Y0273061D01*
X0237000Y0273061D01*
X0237000Y0275954D01*
X0243653Y0275954D01*
X0246800Y0273339D01*
X0246800Y0270908D02*
X0240305Y0270908D01*
X0237318Y0270908D02*
X0237318Y0270908D01*
X0237318Y0269779D02*
X0237318Y0273061D01*
X0237318Y0269779D01*
X0237318Y0269779D01*
X0237318Y0269779D01*
X0237318Y0266496D01*
X0236241Y0266496D01*
X0235682Y0266646D01*
X0235180Y0266936D01*
X0235119Y0266996D01*
X0227010Y0266996D01*
X0227010Y0257404D01*
X0237390Y0257404D01*
X0237390Y0266496D01*
X0237318Y0266496D01*
X0237318Y0269779D01*
X0237318Y0268509D02*
X0237318Y0268509D01*
X0237390Y0266111D02*
X0227010Y0266111D01*
X0227010Y0263712D02*
X0237390Y0263712D01*
X0237390Y0261314D02*
X0227010Y0261314D01*
X0227010Y0258915D02*
X0237390Y0258915D01*
X0239805Y0254594D02*
X0241959Y0254594D01*
X0242955Y0255590D01*
X0242955Y0262259D01*
X0246800Y0262259D01*
X0246800Y0250100D01*
X0244996Y0250100D01*
X0244700Y0249804D01*
X0244404Y0250100D01*
X0241196Y0250100D01*
X0240596Y0249500D01*
X0239663Y0249500D01*
X0239618Y0249545D01*
X0239618Y0252647D01*
X0239805Y0252834D01*
X0239805Y0254594D01*
X0239805Y0254118D02*
X0246800Y0254118D01*
X0246800Y0251720D02*
X0239618Y0251720D01*
X0242955Y0256517D02*
X0246800Y0256517D01*
X0246800Y0258915D02*
X0242955Y0258915D01*
X0242955Y0261314D02*
X0246800Y0261314D01*
X0246800Y0268509D02*
X0242955Y0268509D01*
X0243952Y0275705D02*
X0237000Y0275705D01*
X0233817Y0282900D02*
X0265715Y0282900D01*
X0259515Y0285299D02*
X0233868Y0285299D01*
X0233868Y0285547D02*
X0233868Y0288001D01*
X0233719Y0288561D01*
X0233429Y0289063D01*
X0233019Y0289472D01*
X0232518Y0289762D01*
X0231958Y0289912D01*
X0229700Y0289912D01*
X0229700Y0285547D01*
X0229700Y0289912D01*
X0227442Y0289912D01*
X0226882Y0289762D01*
X0226381Y0289472D01*
X0225971Y0289063D01*
X0225681Y0288561D01*
X0225531Y0288001D01*
X0225531Y0285547D01*
X0229700Y0285547D01*
X0229700Y0285547D01*
X0229700Y0285546D01*
X0229700Y0285547D01*
X0233868Y0285547D01*
X0233868Y0287697D02*
X0251958Y0287697D01*
X0243517Y0290096D02*
X0223868Y0290096D01*
X0223868Y0290501D02*
X0223719Y0291061D01*
X0223429Y0291563D01*
X0223019Y0291972D01*
X0222518Y0292262D01*
X0221958Y0292412D01*
X0219700Y0292412D01*
X0219700Y0288047D01*
X0219700Y0292412D01*
X0217442Y0292412D01*
X0216882Y0292262D01*
X0216381Y0291972D01*
X0215971Y0291563D01*
X0215681Y0291061D01*
X0215531Y0290501D01*
X0215531Y0288047D01*
X0219700Y0288047D01*
X0219700Y0288047D01*
X0219700Y0288046D01*
X0219700Y0288047D01*
X0223868Y0288047D01*
X0223868Y0290501D01*
X0223868Y0287697D02*
X0225531Y0287697D01*
X0225531Y0285299D02*
X0223790Y0285299D01*
X0223368Y0282900D02*
X0225583Y0282900D01*
X0229700Y0287697D02*
X0229700Y0287697D01*
X0231603Y0292494D02*
X0211368Y0292494D01*
X0211368Y0293001D02*
X0211219Y0293561D01*
X0210929Y0294063D01*
X0210519Y0294472D01*
X0210018Y0294762D01*
X0209458Y0294912D01*
X0207200Y0294912D01*
X0207200Y0290547D01*
X0207200Y0294912D01*
X0204942Y0294912D01*
X0204382Y0294762D01*
X0203881Y0294472D01*
X0203471Y0294063D01*
X0203181Y0293561D01*
X0203031Y0293001D01*
X0203031Y0290547D01*
X0207200Y0290547D01*
X0207200Y0290547D01*
X0207200Y0290546D01*
X0207200Y0290547D01*
X0211368Y0290547D01*
X0211368Y0293001D01*
X0211332Y0294893D02*
X0209529Y0294893D01*
X0207200Y0294893D02*
X0207200Y0294893D01*
X0204871Y0294893D02*
X0199529Y0294893D01*
X0199458Y0294912D02*
X0197200Y0294912D01*
X0197200Y0290547D01*
X0197200Y0294912D01*
X0194942Y0294912D01*
X0194382Y0294762D01*
X0193881Y0294472D01*
X0193471Y0294063D01*
X0193181Y0293561D01*
X0193031Y0293001D01*
X0193031Y0290547D01*
X0197200Y0290547D01*
X0197200Y0290547D01*
X0197200Y0290546D01*
X0197200Y0290547D01*
X0201368Y0290547D01*
X0201368Y0293001D01*
X0201219Y0293561D01*
X0200929Y0294063D01*
X0200519Y0294472D01*
X0200018Y0294762D01*
X0199458Y0294912D01*
X0197200Y0294893D02*
X0197200Y0294893D01*
X0194871Y0294893D02*
X0193068Y0294893D01*
X0193031Y0292494D02*
X0172797Y0292494D01*
X0172442Y0289912D02*
X0171882Y0289762D01*
X0171381Y0289472D01*
X0170971Y0289063D01*
X0170681Y0288561D01*
X0170531Y0288001D01*
X0170531Y0285547D01*
X0174700Y0285547D01*
X0174700Y0289912D01*
X0174700Y0285547D01*
X0174700Y0285547D01*
X0174700Y0285546D01*
X0174700Y0285547D01*
X0178868Y0285547D01*
X0178868Y0288001D01*
X0178719Y0288561D01*
X0178429Y0289063D01*
X0178019Y0289472D01*
X0177518Y0289762D01*
X0176958Y0289912D01*
X0174700Y0289912D01*
X0172442Y0289912D01*
X0170531Y0287697D02*
X0152442Y0287697D01*
X0154965Y0282900D02*
X0138685Y0282900D01*
X0137068Y0278103D02*
X0127655Y0278103D01*
X0122831Y0275705D02*
X0134669Y0275705D01*
X0139342Y0273306D02*
X0144300Y0273306D01*
X0144300Y0274100D02*
X0144300Y0271196D01*
X0144700Y0270796D01*
X0144700Y0270736D01*
X0144073Y0270109D01*
X0142850Y0270109D01*
X0142850Y0268327D01*
X0142850Y0268328D01*
X0142850Y0270109D01*
X0141576Y0270109D01*
X0141275Y0270028D01*
X0140974Y0270109D01*
X0139700Y0270109D01*
X0138426Y0270109D01*
X0138125Y0270028D01*
X0137824Y0270109D01*
X0136550Y0270109D01*
X0136144Y0270109D01*
X0140136Y0274100D01*
X0144300Y0274100D01*
X0144588Y0270908D02*
X0136943Y0270908D01*
X0136550Y0270109D02*
X0136550Y0268328D01*
X0136550Y0268327D01*
X0136550Y0270109D01*
X0136550Y0268509D02*
X0136550Y0268509D01*
X0136551Y0266137D02*
X0139700Y0266137D01*
X0142849Y0266137D01*
X0142849Y0266137D01*
X0139700Y0266137D01*
X0139700Y0266137D01*
X0139665Y0266137D01*
X0136551Y0266137D01*
X0136551Y0266137D01*
X0139700Y0266137D02*
X0139700Y0266137D01*
X0139700Y0268328D02*
X0139700Y0268328D01*
X0139700Y0270109D01*
X0139700Y0268328D01*
X0139700Y0268328D01*
X0139700Y0268509D02*
X0139700Y0268509D01*
X0142850Y0268509D02*
X0142850Y0268509D01*
X0148683Y0267648D02*
X0148683Y0265384D01*
X0150816Y0265384D01*
X0151376Y0265234D01*
X0151878Y0264945D01*
X0152287Y0264535D01*
X0152577Y0264033D01*
X0152727Y0263474D01*
X0152727Y0262200D01*
X0152727Y0261604D01*
X0152916Y0262060D01*
X0153840Y0262984D01*
X0155047Y0263484D01*
X0155732Y0263484D01*
X0156697Y0264450D01*
X0154732Y0266416D01*
X0154047Y0266416D01*
X0152840Y0266916D01*
X0151916Y0267840D01*
X0151416Y0269047D01*
X0151416Y0270353D01*
X0151916Y0271560D01*
X0152400Y0272045D01*
X0152400Y0273096D01*
X0151800Y0273696D01*
X0151800Y0276600D01*
X0150736Y0276600D01*
X0150100Y0275964D01*
X0150100Y0274996D01*
X0149804Y0274700D01*
X0150100Y0274404D01*
X0150100Y0271196D01*
X0149700Y0270796D01*
X0149700Y0269203D01*
X0149319Y0268284D01*
X0148683Y0267648D01*
X0149413Y0268509D02*
X0151638Y0268509D01*
X0151645Y0270908D02*
X0149812Y0270908D01*
X0150100Y0273306D02*
X0152190Y0273306D01*
X0151800Y0275705D02*
X0150100Y0275705D01*
X0147566Y0280502D02*
X0132485Y0280502D01*
X0127675Y0273306D02*
X0118041Y0273306D01*
X0114161Y0270908D02*
X0124872Y0270908D01*
X0122474Y0268509D02*
X0110281Y0268509D01*
X0106401Y0266111D02*
X0120078Y0266111D01*
X0119700Y0263712D02*
X0102898Y0263712D01*
X0099716Y0261314D02*
X0119700Y0261314D01*
X0119700Y0258915D02*
X0096535Y0258915D01*
X0093353Y0256517D02*
X0119700Y0256517D01*
X0119234Y0254118D02*
X0090465Y0254118D01*
X0087829Y0251720D02*
X0115684Y0251720D01*
X0113286Y0249321D02*
X0085193Y0249321D01*
X0082557Y0246923D02*
X0096988Y0246923D01*
X0096988Y0246958D02*
X0096988Y0244700D01*
X0101353Y0244700D01*
X0096988Y0244700D01*
X0096988Y0242442D01*
X0097138Y0241882D01*
X0097428Y0241381D01*
X0097837Y0240971D01*
X0098339Y0240681D01*
X0098899Y0240531D01*
X0101353Y0240531D01*
X0101353Y0244700D01*
X0101353Y0244700D01*
X0101354Y0244700D01*
X0101353Y0244700D01*
X0101353Y0248868D01*
X0098899Y0248868D01*
X0098339Y0248719D01*
X0097837Y0248429D01*
X0097428Y0248019D01*
X0097138Y0247518D01*
X0096988Y0246958D01*
X0096988Y0244524D02*
X0079948Y0244524D01*
X0077757Y0242126D02*
X0097073Y0242126D01*
X0098339Y0238719D02*
X0097837Y0238429D01*
X0097428Y0238019D01*
X0097138Y0237518D01*
X0096988Y0236958D01*
X0096988Y0234700D01*
X0101353Y0234700D01*
X0096988Y0234700D01*
X0096988Y0232442D01*
X0097138Y0231882D01*
X0097428Y0231381D01*
X0097837Y0230971D01*
X0098339Y0230681D01*
X0098899Y0230531D01*
X0101353Y0230531D01*
X0101353Y0234700D01*
X0101353Y0234700D01*
X0101354Y0234700D01*
X0101353Y0234700D01*
X0101353Y0238868D01*
X0098899Y0238868D01*
X0098339Y0238719D01*
X0097087Y0237329D02*
X0073375Y0237329D01*
X0075566Y0239727D02*
X0112200Y0239727D01*
X0112200Y0237329D02*
X0111912Y0237329D01*
X0117200Y0237329D02*
X0133266Y0237329D01*
X0133266Y0237853D02*
X0133266Y0236547D01*
X0133766Y0235340D01*
X0134690Y0234416D01*
X0135897Y0233916D01*
X0136856Y0233916D01*
X0136416Y0232853D01*
X0136416Y0231547D01*
X0136916Y0230340D01*
X0137555Y0229700D01*
X0118236Y0229700D01*
X0117200Y0230736D01*
X0117200Y0246164D01*
X0118622Y0247586D01*
X0118655Y0247554D01*
X0118471Y0247370D01*
X0118181Y0246868D01*
X0118031Y0246309D01*
X0118031Y0243854D01*
X0122200Y0243854D01*
X0126368Y0243854D01*
X0126368Y0246309D01*
X0126219Y0246868D01*
X0125929Y0247370D01*
X0125745Y0247554D01*
X0125868Y0247677D01*
X0125868Y0248046D01*
X0128531Y0248046D01*
X0128531Y0247677D01*
X0128655Y0247554D01*
X0128471Y0247370D01*
X0128181Y0246868D01*
X0128031Y0246309D01*
X0128031Y0243854D01*
X0132200Y0243854D01*
X0132200Y0243853D01*
X0132200Y0239488D01*
X0134194Y0239488D01*
X0133766Y0239060D01*
X0133266Y0237853D01*
X0132200Y0239488D02*
X0132200Y0243853D01*
X0132200Y0243853D01*
X0128031Y0243853D01*
X0128031Y0241399D01*
X0128181Y0240839D01*
X0128471Y0240337D01*
X0128881Y0239928D01*
X0129382Y0239638D01*
X0129942Y0239488D01*
X0132200Y0239488D01*
X0132200Y0239727D02*
X0132200Y0239727D01*
X0132200Y0242126D02*
X0132200Y0242126D01*
X0129228Y0239727D02*
X0125172Y0239727D01*
X0125018Y0239638D02*
X0125519Y0239928D01*
X0125929Y0240337D01*
X0126219Y0240839D01*
X0126368Y0241399D01*
X0126368Y0243853D01*
X0122200Y0243853D01*
X0122200Y0239488D01*
X0124458Y0239488D01*
X0125018Y0239638D01*
X0122200Y0239727D02*
X0122200Y0239727D01*
X0122200Y0239488D02*
X0122200Y0243853D01*
X0122200Y0243853D01*
X0122200Y0243854D01*
X0122200Y0243853D01*
X0118031Y0243853D01*
X0118031Y0241399D01*
X0118181Y0240839D01*
X0118471Y0240337D01*
X0118881Y0239928D01*
X0119382Y0239638D01*
X0119942Y0239488D01*
X0122200Y0239488D01*
X0122200Y0242126D02*
X0122200Y0242126D01*
X0119228Y0239727D02*
X0117200Y0239727D01*
X0117200Y0242126D02*
X0118031Y0242126D01*
X0118031Y0244524D02*
X0117200Y0244524D01*
X0117958Y0246923D02*
X0118213Y0246923D01*
X0112200Y0242126D02*
X0111912Y0242126D01*
X0117200Y0234930D02*
X0134176Y0234930D01*
X0136416Y0232532D02*
X0117200Y0232532D01*
X0117802Y0230133D02*
X0137122Y0230133D01*
X0140900Y0222937D02*
X0111741Y0222937D01*
X0112700Y0220539D02*
X0139786Y0220539D01*
X0137388Y0218140D02*
X0112507Y0218140D01*
X0111020Y0215742D02*
X0130605Y0215742D01*
X0129329Y0213343D02*
X0121335Y0213343D01*
X0121863Y0212815D02*
X0120315Y0214363D01*
X0118294Y0215200D01*
X0116106Y0215200D01*
X0114084Y0214363D01*
X0112537Y0212815D01*
X0111700Y0210794D01*
X0111700Y0208606D01*
X0112537Y0206584D01*
X0114084Y0205037D01*
X0116106Y0204200D01*
X0118294Y0204200D01*
X0120315Y0205037D01*
X0121863Y0206584D01*
X0122700Y0208606D01*
X0122700Y0210794D01*
X0121863Y0212815D01*
X0122637Y0210945D02*
X0129375Y0210945D01*
X0130717Y0208546D02*
X0122675Y0208546D01*
X0121426Y0206148D02*
X0132472Y0206148D01*
X0130471Y0203749D02*
X0110929Y0203749D01*
X0110315Y0204363D02*
X0109700Y0204618D01*
X0109700Y0207555D01*
X0109984Y0207840D01*
X0110484Y0209047D01*
X0110484Y0210353D01*
X0109984Y0211560D01*
X0109060Y0212484D01*
X0107853Y0212984D01*
X0106547Y0212984D01*
X0105340Y0212484D01*
X0104416Y0211560D01*
X0103916Y0210353D01*
X0103916Y0209047D01*
X0104416Y0207840D01*
X0104700Y0207555D01*
X0104700Y0204618D01*
X0104084Y0204363D01*
X0102537Y0202815D01*
X0101700Y0200794D01*
X0101700Y0198606D01*
X0102537Y0196584D01*
X0104084Y0195037D01*
X0106106Y0194200D01*
X0108294Y0194200D01*
X0110315Y0195037D01*
X0111863Y0196584D01*
X0112700Y0198606D01*
X0112700Y0200794D01*
X0111863Y0202815D01*
X0110315Y0204363D01*
X0109700Y0206148D02*
X0112974Y0206148D01*
X0111725Y0208546D02*
X0110277Y0208546D01*
X0110239Y0210945D02*
X0111763Y0210945D01*
X0113065Y0213343D02*
X0101969Y0213343D01*
X0101777Y0213609D02*
X0101109Y0214277D01*
X0100345Y0214832D01*
X0099503Y0215260D01*
X0098605Y0215552D01*
X0097672Y0215700D01*
X0097200Y0215700D01*
X0097200Y0209700D01*
X0097200Y0209700D01*
X0103200Y0209700D01*
X0103200Y0210172D01*
X0103052Y0211105D01*
X0102760Y0212003D01*
X0102332Y0212845D01*
X0101777Y0213609D01*
X0103380Y0215742D02*
X0056945Y0215742D01*
X0058434Y0218140D02*
X0101893Y0218140D01*
X0101700Y0220539D02*
X0059972Y0220539D01*
X0061788Y0222937D02*
X0102659Y0222937D01*
X0106800Y0225336D02*
X0063603Y0225336D01*
X0065419Y0227734D02*
X0109199Y0227734D01*
X0111597Y0230133D02*
X0067234Y0230133D01*
X0069050Y0232532D02*
X0096988Y0232532D01*
X0096988Y0234930D02*
X0071184Y0234930D01*
X0092623Y0213609D02*
X0093291Y0214277D01*
X0094055Y0214832D01*
X0094897Y0215260D01*
X0095795Y0215552D01*
X0096728Y0215700D01*
X0097200Y0215700D01*
X0097200Y0209700D01*
X0097200Y0209700D01*
X0097200Y0209700D01*
X0091200Y0209700D01*
X0091200Y0210172D01*
X0091348Y0211105D01*
X0091640Y0212003D01*
X0092068Y0212845D01*
X0092623Y0213609D01*
X0092431Y0213343D02*
X0055455Y0213343D01*
X0053966Y0210945D02*
X0091322Y0210945D01*
X0091200Y0209700D02*
X0091200Y0209228D01*
X0091348Y0208295D01*
X0091640Y0207397D01*
X0092068Y0206555D01*
X0092623Y0205791D01*
X0093291Y0205123D01*
X0094055Y0204568D01*
X0094897Y0204140D01*
X0095795Y0203848D01*
X0096728Y0203700D01*
X0097200Y0203700D01*
X0097672Y0203700D01*
X0098605Y0203848D01*
X0099503Y0204140D01*
X0100345Y0204568D01*
X0101109Y0205123D01*
X0101777Y0205791D01*
X0102332Y0206555D01*
X0102760Y0207397D01*
X0103052Y0208295D01*
X0103200Y0209228D01*
X0103200Y0209700D01*
X0097200Y0209700D01*
X0097200Y0203700D01*
X0097200Y0209700D01*
X0097200Y0209700D01*
X0091200Y0209700D01*
X0091308Y0208546D02*
X0052477Y0208546D01*
X0051047Y0206148D02*
X0092364Y0206148D01*
X0096416Y0203749D02*
X0049848Y0203749D01*
X0048650Y0201351D02*
X0101931Y0201351D01*
X0101700Y0198952D02*
X0047451Y0198952D01*
X0046253Y0196554D02*
X0102568Y0196554D01*
X0103471Y0203749D02*
X0097984Y0203749D01*
X0097200Y0203749D02*
X0097200Y0203749D01*
X0097200Y0206148D02*
X0097200Y0206148D01*
X0097200Y0208546D02*
X0097200Y0208546D01*
X0097200Y0210945D02*
X0097200Y0210945D01*
X0097200Y0213343D02*
X0097200Y0213343D01*
X0103078Y0210945D02*
X0104161Y0210945D01*
X0104123Y0208546D02*
X0103092Y0208546D01*
X0102036Y0206148D02*
X0104700Y0206148D01*
X0112469Y0201351D02*
X0130200Y0201351D01*
X0131584Y0198952D02*
X0112700Y0198952D01*
X0111832Y0196554D02*
X0133452Y0196554D01*
X0130639Y0194155D02*
X0045054Y0194155D01*
X0043923Y0191757D02*
X0130200Y0191757D01*
X0131178Y0189358D02*
X0042990Y0189358D01*
X0042057Y0186960D02*
X0241400Y0186960D01*
X0241400Y0189358D02*
X0205478Y0189358D01*
X0207014Y0189995D02*
X0203891Y0188701D01*
X0200509Y0188701D01*
X0197386Y0189995D01*
X0194995Y0192386D01*
X0193701Y0195509D01*
X0193701Y0198891D01*
X0194995Y0202014D01*
X0197386Y0204405D01*
X0200509Y0205699D01*
X0203891Y0205699D01*
X0207014Y0204405D01*
X0209405Y0202014D01*
X0210699Y0198891D01*
X0210699Y0195509D01*
X0209405Y0192386D01*
X0207014Y0189995D01*
X0208777Y0191757D02*
X0241400Y0191757D01*
X0241400Y0194155D02*
X0210138Y0194155D01*
X0210699Y0196554D02*
X0241400Y0196554D01*
X0237311Y0198952D02*
X0210674Y0198952D01*
X0209680Y0201351D02*
X0234514Y0201351D01*
X0235927Y0199937D02*
X0235927Y0199937D01*
X0239082Y0203854D02*
X0234700Y0208236D01*
X0234700Y0235055D01*
X0234984Y0235340D01*
X0235484Y0236547D01*
X0235484Y0237853D01*
X0234984Y0239060D01*
X0234345Y0239700D01*
X0234545Y0239900D01*
X0240596Y0239900D01*
X0241196Y0239300D01*
X0244404Y0239300D01*
X0244700Y0239596D01*
X0244996Y0239300D01*
X0246800Y0239300D01*
X0246800Y0228781D01*
X0246416Y0227853D01*
X0246416Y0226547D01*
X0246800Y0225619D01*
X0246800Y0223900D01*
X0244546Y0223900D01*
X0243550Y0222904D01*
X0243550Y0216496D01*
X0244200Y0215846D01*
X0244200Y0214953D01*
X0242400Y0213153D01*
X0242400Y0211912D01*
X0242027Y0211912D01*
X0241031Y0210916D01*
X0241031Y0205177D01*
X0241508Y0204700D01*
X0241031Y0204223D01*
X0241031Y0203854D01*
X0239082Y0203854D01*
X0241031Y0206148D02*
X0236788Y0206148D01*
X0234700Y0208546D02*
X0241031Y0208546D01*
X0241060Y0210945D02*
X0234700Y0210945D01*
X0234700Y0213343D02*
X0242591Y0213343D01*
X0244200Y0215742D02*
X0234700Y0215742D01*
X0234700Y0218140D02*
X0243550Y0218140D01*
X0243550Y0220539D02*
X0234700Y0220539D01*
X0234700Y0222937D02*
X0243583Y0222937D01*
X0246800Y0225336D02*
X0234700Y0225336D01*
X0234700Y0227734D02*
X0246416Y0227734D01*
X0246800Y0230133D02*
X0234700Y0230133D01*
X0234700Y0232532D02*
X0246800Y0232532D01*
X0246800Y0234930D02*
X0234700Y0234930D01*
X0235484Y0237329D02*
X0246800Y0237329D01*
X0240769Y0239727D02*
X0234372Y0239727D01*
X0230028Y0239727D02*
X0206872Y0239727D01*
X0207984Y0242126D02*
X0228916Y0242126D01*
X0229879Y0244524D02*
X0211669Y0244524D01*
X0212984Y0246923D02*
X0229900Y0246923D01*
X0231068Y0249321D02*
X0212224Y0249321D01*
X0210933Y0251720D02*
X0232459Y0251720D01*
X0224594Y0254118D02*
X0209805Y0254118D01*
X0212955Y0256517D02*
X0221445Y0256517D01*
X0221445Y0258915D02*
X0212955Y0258915D01*
X0212955Y0261314D02*
X0221445Y0261314D01*
X0221445Y0268509D02*
X0219500Y0268509D01*
X0219500Y0270908D02*
X0224594Y0270908D01*
X0214900Y0270908D02*
X0210305Y0270908D01*
X0210305Y0271151D02*
X0210156Y0271711D01*
X0209866Y0272212D01*
X0209456Y0272622D01*
X0208955Y0272911D01*
X0208726Y0272973D01*
X0209500Y0273747D01*
X0209500Y0278854D01*
X0214900Y0278854D01*
X0214900Y0277901D01*
X0214900Y0268153D01*
X0213747Y0267000D01*
X0212955Y0267000D01*
X0212955Y0268810D01*
X0211959Y0269805D01*
X0210305Y0269805D01*
X0210305Y0271151D01*
X0209059Y0273306D02*
X0214900Y0273306D01*
X0214900Y0275705D02*
X0209500Y0275705D01*
X0209500Y0278103D02*
X0214900Y0278103D01*
X0215610Y0285299D02*
X0210868Y0285299D01*
X0211263Y0287697D02*
X0215531Y0287697D01*
X0215531Y0290096D02*
X0211368Y0290096D01*
X0207200Y0292494D02*
X0207200Y0292494D01*
X0203031Y0292494D02*
X0201368Y0292494D01*
X0201368Y0290096D02*
X0203031Y0290096D01*
X0203137Y0287697D02*
X0201263Y0287697D01*
X0197200Y0292494D02*
X0197200Y0292494D01*
X0193031Y0290096D02*
X0188868Y0290096D01*
X0188868Y0290501D02*
X0188719Y0291061D01*
X0188429Y0291563D01*
X0188019Y0291972D01*
X0187518Y0292262D01*
X0186958Y0292412D01*
X0184700Y0292412D01*
X0184700Y0288047D01*
X0184700Y0292412D01*
X0182442Y0292412D01*
X0181882Y0292262D01*
X0181381Y0291972D01*
X0180971Y0291563D01*
X0180681Y0291061D01*
X0180531Y0290501D01*
X0180531Y0288047D01*
X0184700Y0288047D01*
X0184700Y0288047D01*
X0184700Y0288046D01*
X0184700Y0288047D01*
X0188868Y0288047D01*
X0188868Y0290501D01*
X0188868Y0287697D02*
X0193137Y0287697D01*
X0193531Y0285299D02*
X0188790Y0285299D01*
X0184700Y0290096D02*
X0184700Y0290096D01*
X0180531Y0290096D02*
X0160883Y0290096D01*
X0159863Y0285299D02*
X0144885Y0285299D01*
X0130717Y0268401D02*
X0130717Y0266369D01*
X0130402Y0266054D01*
X0130402Y0265384D01*
X0128584Y0265384D01*
X0128024Y0265234D01*
X0127522Y0264945D01*
X0127113Y0264535D01*
X0126823Y0264033D01*
X0126673Y0263474D01*
X0126673Y0262200D01*
X0126673Y0260926D01*
X0126823Y0260367D01*
X0127113Y0259865D01*
X0127522Y0259455D01*
X0128024Y0259166D01*
X0128584Y0259016D01*
X0130717Y0259016D01*
X0130717Y0255787D01*
X0130901Y0255603D01*
X0130901Y0255436D01*
X0130081Y0254616D01*
X0129996Y0254412D01*
X0129527Y0254412D01*
X0128531Y0253416D01*
X0128531Y0253046D01*
X0125868Y0253046D01*
X0125868Y0253416D01*
X0124873Y0254412D01*
X0124700Y0254412D01*
X0124700Y0263664D01*
X0129436Y0268401D01*
X0130717Y0268401D01*
X0130458Y0266111D02*
X0127146Y0266111D01*
X0126737Y0263712D02*
X0124748Y0263712D01*
X0124700Y0261314D02*
X0126673Y0261314D01*
X0126673Y0262200D02*
X0131629Y0262200D01*
X0131629Y0262200D01*
X0126673Y0262200D01*
X0124700Y0258915D02*
X0130717Y0258915D01*
X0130717Y0256517D02*
X0124700Y0256517D01*
X0125166Y0254118D02*
X0129234Y0254118D01*
X0128213Y0246923D02*
X0126187Y0246923D01*
X0126368Y0244524D02*
X0128031Y0244524D01*
X0128031Y0242126D02*
X0126368Y0242126D01*
X0145500Y0247253D02*
X0145500Y0249855D01*
X0145984Y0250340D01*
X0146484Y0251547D01*
X0146484Y0252853D01*
X0145984Y0254060D01*
X0145253Y0254791D01*
X0147688Y0254791D01*
X0148683Y0255787D01*
X0148683Y0259016D01*
X0150816Y0259016D01*
X0151098Y0259091D01*
X0150840Y0258984D01*
X0149916Y0258060D01*
X0149416Y0256853D01*
X0149416Y0255547D01*
X0149916Y0254340D01*
X0150840Y0253416D01*
X0151422Y0253175D01*
X0146247Y0248000D01*
X0145500Y0247253D01*
X0145500Y0249321D02*
X0147568Y0249321D01*
X0146484Y0251720D02*
X0149967Y0251720D01*
X0150137Y0254118D02*
X0145926Y0254118D01*
X0148683Y0256517D02*
X0149416Y0256517D01*
X0148683Y0258915D02*
X0150771Y0258915D01*
X0152727Y0262200D02*
X0147771Y0262200D01*
X0152727Y0262200D01*
X0152663Y0263712D02*
X0155959Y0263712D01*
X0155037Y0266111D02*
X0148683Y0266111D01*
X0147771Y0262200D02*
X0147771Y0262200D01*
X0144252Y0262200D01*
X0144253Y0262200D01*
X0147771Y0262200D01*
X0147771Y0262200D01*
X0135148Y0262200D02*
X0131629Y0262200D01*
X0135147Y0262200D01*
X0135148Y0262200D01*
X0131629Y0262200D02*
X0131629Y0262200D01*
X0154518Y0246265D02*
X0157754Y0249501D01*
X0157840Y0249416D01*
X0159047Y0248916D01*
X0160353Y0248916D01*
X0160884Y0249136D01*
X0160884Y0248132D01*
X0160687Y0248246D01*
X0160127Y0248396D01*
X0159247Y0248396D01*
X0158367Y0248396D01*
X0157808Y0248246D01*
X0157306Y0247956D01*
X0156896Y0247547D01*
X0156607Y0247045D01*
X0156457Y0246486D01*
X0156457Y0246441D01*
X0156353Y0246484D01*
X0155047Y0246484D01*
X0154518Y0246265D01*
X0155175Y0246923D02*
X0156574Y0246923D01*
X0157574Y0249321D02*
X0158068Y0249321D01*
X0159247Y0248396D02*
X0159247Y0247222D01*
X0159247Y0247222D01*
X0159247Y0248396D01*
X0167010Y0257404D02*
X0167010Y0266996D01*
X0175119Y0266996D01*
X0175180Y0266936D01*
X0175682Y0266646D01*
X0176241Y0266496D01*
X0177318Y0266496D01*
X0177318Y0269779D01*
X0177318Y0273061D01*
X0177059Y0273061D01*
X0177059Y0274988D01*
X0177373Y0274988D01*
X0178368Y0275984D01*
X0178368Y0276354D01*
X0182697Y0276354D01*
X0183616Y0276734D01*
X0184370Y0277488D01*
X0184900Y0277488D01*
X0184900Y0267000D01*
X0182955Y0267000D01*
X0182955Y0268810D01*
X0181959Y0269805D01*
X0180305Y0269805D01*
X0180305Y0271151D01*
X0180156Y0271711D01*
X0179866Y0272212D01*
X0179456Y0272622D01*
X0178955Y0272911D01*
X0178395Y0273061D01*
X0177318Y0273061D01*
X0177318Y0269779D01*
X0177318Y0269779D01*
X0177318Y0269779D01*
X0177318Y0266496D01*
X0177390Y0266496D01*
X0177390Y0257404D01*
X0167010Y0257404D01*
X0167010Y0258915D02*
X0177390Y0258915D01*
X0177390Y0261314D02*
X0167010Y0261314D01*
X0167010Y0263712D02*
X0177390Y0263712D01*
X0177390Y0266111D02*
X0167010Y0266111D01*
X0169592Y0272561D02*
X0169625Y0272762D01*
X0169500Y0272937D01*
X0169500Y0273153D01*
X0168961Y0273692D01*
X0167984Y0275059D01*
X0167984Y0276353D01*
X0167484Y0277560D01*
X0167000Y0278045D01*
X0167000Y0278096D01*
X0167600Y0278696D01*
X0167600Y0280764D01*
X0171031Y0277333D01*
X0171031Y0275984D01*
X0172027Y0274988D01*
X0172459Y0274988D01*
X0172459Y0272561D01*
X0169592Y0272561D01*
X0169346Y0273306D02*
X0172459Y0273306D01*
X0171311Y0275705D02*
X0167984Y0275705D01*
X0167007Y0278103D02*
X0170261Y0278103D01*
X0167863Y0280502D02*
X0167600Y0280502D01*
X0170137Y0285299D02*
X0170531Y0285299D01*
X0174700Y0287697D02*
X0174700Y0287697D01*
X0178868Y0287697D02*
X0180531Y0287697D01*
X0180610Y0285299D02*
X0178868Y0285299D01*
X0178817Y0282900D02*
X0181031Y0282900D01*
X0178089Y0275705D02*
X0184900Y0275705D01*
X0184900Y0273306D02*
X0177059Y0273306D01*
X0177318Y0270908D02*
X0177318Y0270908D01*
X0177318Y0268509D02*
X0177318Y0268509D01*
X0180305Y0270908D02*
X0184900Y0270908D01*
X0184900Y0268509D02*
X0182955Y0268509D01*
X0193000Y0269805D02*
X0193000Y0273355D01*
X0193484Y0273840D01*
X0193984Y0275047D01*
X0193984Y0276353D01*
X0193484Y0277560D01*
X0192560Y0278484D01*
X0191669Y0278854D01*
X0195197Y0278854D01*
X0196116Y0279234D01*
X0196870Y0279988D01*
X0199873Y0279988D01*
X0200868Y0280984D01*
X0200868Y0281354D01*
X0203531Y0281354D01*
X0203531Y0280984D01*
X0204527Y0279988D01*
X0204900Y0279988D01*
X0204900Y0275653D01*
X0202400Y0273153D01*
X0202400Y0272561D01*
X0195590Y0272561D01*
X0194594Y0271566D01*
X0194594Y0269805D01*
X0193000Y0269805D01*
X0193000Y0270908D02*
X0194594Y0270908D01*
X0193000Y0273306D02*
X0202554Y0273306D01*
X0204900Y0275705D02*
X0193984Y0275705D01*
X0192941Y0278103D02*
X0204900Y0278103D01*
X0204014Y0280502D02*
X0200386Y0280502D01*
X0207318Y0269779D02*
X0207318Y0269779D01*
X0207318Y0266496D01*
X0206241Y0266496D01*
X0205682Y0266646D01*
X0205180Y0266936D01*
X0205119Y0266996D01*
X0197010Y0266996D01*
X0197010Y0257404D01*
X0207390Y0257404D01*
X0207390Y0266496D01*
X0207318Y0266496D01*
X0207318Y0269779D01*
X0207318Y0268509D02*
X0207318Y0268509D01*
X0207390Y0266111D02*
X0197010Y0266111D01*
X0197010Y0263712D02*
X0207390Y0263712D01*
X0207390Y0261314D02*
X0197010Y0261314D01*
X0197010Y0258915D02*
X0207390Y0258915D01*
X0202400Y0251720D02*
X0193500Y0251720D01*
X0193500Y0254118D02*
X0194594Y0254118D01*
X0193500Y0249321D02*
X0202400Y0249321D01*
X0202400Y0246923D02*
X0193500Y0246923D01*
X0193500Y0244524D02*
X0202379Y0244524D01*
X0201416Y0242126D02*
X0193500Y0242126D01*
X0193500Y0239727D02*
X0202528Y0239727D01*
X0207021Y0244524D02*
X0207731Y0244524D01*
X0193500Y0237329D02*
X0228916Y0237329D01*
X0229700Y0234930D02*
X0193500Y0234930D01*
X0193500Y0232532D02*
X0229700Y0232532D01*
X0229700Y0230133D02*
X0193500Y0230133D01*
X0193500Y0227734D02*
X0229700Y0227734D01*
X0229700Y0225336D02*
X0194077Y0225336D01*
X0194439Y0222937D02*
X0229700Y0222937D01*
X0229700Y0220539D02*
X0192151Y0220539D01*
X0190249Y0220539D02*
X0180377Y0220539D01*
X0180546Y0222937D02*
X0187961Y0222937D01*
X0188323Y0225336D02*
X0180546Y0225336D01*
X0180546Y0227734D02*
X0188900Y0227734D01*
X0184622Y0230133D02*
X0181912Y0230133D01*
X0181912Y0232532D02*
X0183916Y0232532D01*
X0175546Y0227734D02*
X0172984Y0227734D01*
X0172481Y0225336D02*
X0175546Y0225336D01*
X0173100Y0222937D02*
X0173100Y0222937D01*
X0173100Y0220539D02*
X0173100Y0220539D01*
X0173100Y0219700D02*
X0173100Y0219700D01*
X0173100Y0219700D01*
X0173100Y0215000D01*
X0171560Y0215000D01*
X0171001Y0215150D01*
X0170499Y0215440D01*
X0170090Y0215849D01*
X0169800Y0216351D01*
X0169650Y0216910D01*
X0169650Y0219700D01*
X0173100Y0219700D01*
X0173100Y0218140D02*
X0173100Y0218140D01*
X0173100Y0215742D02*
X0173100Y0215742D01*
X0170197Y0215742D02*
X0163516Y0215742D01*
X0163516Y0218140D02*
X0169650Y0218140D01*
X0169650Y0220539D02*
X0167650Y0220539D01*
X0168100Y0222800D02*
X0164700Y0222800D01*
X0168100Y0222800D01*
X0168100Y0222937D02*
X0169770Y0222937D01*
X0164700Y0222800D02*
X0164700Y0222800D01*
X0164700Y0219700D01*
X0164700Y0222800D01*
X0164700Y0222800D01*
X0164700Y0220539D02*
X0164700Y0220539D01*
X0163516Y0213343D02*
X0229700Y0213343D01*
X0229700Y0210945D02*
X0163516Y0210945D01*
X0163516Y0208546D02*
X0229700Y0208546D01*
X0229930Y0206148D02*
X0161901Y0206148D01*
X0159502Y0203749D02*
X0196730Y0203749D01*
X0194720Y0201351D02*
X0157104Y0201351D01*
X0154705Y0198952D02*
X0193726Y0198952D01*
X0193701Y0196554D02*
X0152307Y0196554D01*
X0149908Y0194155D02*
X0194262Y0194155D01*
X0195623Y0191757D02*
X0149200Y0191757D01*
X0148222Y0189358D02*
X0198922Y0189358D01*
X0207670Y0203749D02*
X0232115Y0203749D01*
X0230784Y0205081D02*
X0230784Y0205081D01*
X0229700Y0215742D02*
X0178496Y0215742D01*
X0179250Y0218140D02*
X0229700Y0218140D01*
X0248368Y0203749D02*
X0251031Y0203749D01*
X0251031Y0201351D02*
X0248368Y0201351D01*
X0248368Y0198952D02*
X0251031Y0198952D01*
X0251400Y0196554D02*
X0248000Y0196554D01*
X0248000Y0194155D02*
X0251400Y0194155D01*
X0251400Y0191757D02*
X0248000Y0191757D01*
X0248000Y0189358D02*
X0251400Y0189358D01*
X0251400Y0186960D02*
X0248000Y0186960D01*
X0248000Y0184561D02*
X0251400Y0184561D01*
X0251400Y0182163D02*
X0248000Y0182163D01*
X0248000Y0179764D02*
X0251400Y0179764D01*
X0251400Y0177366D02*
X0248000Y0177366D01*
X0248000Y0174967D02*
X0251400Y0174967D01*
X0251400Y0172569D02*
X0248000Y0172569D01*
X0248000Y0170170D02*
X0251400Y0170170D01*
X0251400Y0167772D02*
X0248000Y0167772D01*
X0248000Y0165373D02*
X0251400Y0165373D01*
X0251400Y0162975D02*
X0248000Y0162975D01*
X0248000Y0160576D02*
X0251400Y0160576D01*
X0251400Y0158178D02*
X0248000Y0158178D01*
X0248000Y0155779D02*
X0251400Y0155779D01*
X0251675Y0153381D02*
X0248000Y0153381D01*
X0248000Y0150982D02*
X0268345Y0150982D01*
X0267863Y0143900D02*
X0269141Y0142622D01*
X0270160Y0142200D01*
X0269141Y0141778D01*
X0267863Y0140500D01*
X0209259Y0140500D01*
X0208046Y0139998D01*
X0207791Y0139742D01*
X0205984Y0139742D01*
X0204965Y0139320D01*
X0205387Y0140339D01*
X0205387Y0142146D01*
X0207140Y0143900D01*
X0267863Y0143900D01*
X0267977Y0143787D02*
X0207027Y0143787D01*
X0205387Y0141388D02*
X0268751Y0141388D01*
X0267863Y0133900D02*
X0269141Y0132622D01*
X0270160Y0132200D01*
X0269141Y0131778D01*
X0267863Y0130500D01*
X0218537Y0130500D01*
X0217188Y0131849D01*
X0215203Y0132671D01*
X0213055Y0132671D01*
X0212036Y0132249D01*
X0212458Y0133268D01*
X0212458Y0133900D01*
X0267863Y0133900D01*
X0269180Y0131794D02*
X0217243Y0131794D01*
X0208729Y0126997D02*
X0029524Y0126997D01*
X0029519Y0124599D02*
X0209391Y0124599D01*
X0212261Y0122200D02*
X0029514Y0122200D01*
X0029510Y0119801D02*
X0215300Y0119801D01*
X0216003Y0117403D02*
X0029505Y0117403D01*
X0029500Y0115004D02*
X0218401Y0115004D01*
X0217028Y0116028D02*
X0221200Y0120200D01*
X0221200Y0120200D01*
X0221200Y0120200D01*
X0217028Y0116028D01*
X0218403Y0117403D02*
X0218403Y0117403D01*
X0220801Y0119801D02*
X0220802Y0119801D01*
X0221598Y0119801D02*
X0221599Y0119801D01*
X0223997Y0117403D02*
X0223997Y0117403D01*
X0204889Y0129396D02*
X0029529Y0129396D01*
X0029641Y0131794D02*
X0202268Y0131794D01*
X0201658Y0134193D02*
X0029868Y0134193D01*
X0030095Y0136591D02*
X0197518Y0136591D01*
X0195146Y0138990D02*
X0030321Y0138990D01*
X0030548Y0141388D02*
X0194587Y0141388D01*
X0195125Y0143787D02*
X0030775Y0143787D01*
X0031002Y0146185D02*
X0197396Y0146185D01*
X0202490Y0148584D02*
X0031424Y0148584D01*
X0031877Y0150982D02*
X0241400Y0150982D01*
X0241400Y0153381D02*
X0032329Y0153381D01*
X0032782Y0155779D02*
X0241400Y0155779D01*
X0241400Y0158178D02*
X0033235Y0158178D01*
X0033687Y0160576D02*
X0241400Y0160576D01*
X0241400Y0162975D02*
X0034218Y0162975D01*
X0034905Y0165373D02*
X0241400Y0165373D01*
X0241400Y0167772D02*
X0035591Y0167772D01*
X0036278Y0170170D02*
X0241400Y0170170D01*
X0241400Y0172569D02*
X0036965Y0172569D01*
X0037651Y0174967D02*
X0241400Y0174967D01*
X0241400Y0177366D02*
X0038338Y0177366D01*
X0039257Y0179764D02*
X0241400Y0179764D01*
X0241400Y0182163D02*
X0040190Y0182163D01*
X0041123Y0184561D02*
X0241400Y0184561D01*
X0264575Y0234930D02*
X0265285Y0234930D01*
X0265484Y0237329D02*
X0267200Y0237329D01*
X0267200Y0239727D02*
X0264700Y0239727D01*
X0264700Y0242126D02*
X0267200Y0242126D01*
X0267200Y0244524D02*
X0264700Y0244524D01*
X0264700Y0246923D02*
X0267200Y0246923D01*
X0267200Y0249321D02*
X0265357Y0249321D01*
X0266137Y0251720D02*
X0267200Y0251720D01*
X0267200Y0254118D02*
X0266518Y0254118D01*
X0266518Y0256517D02*
X0267200Y0256517D01*
X0267200Y0258915D02*
X0265842Y0258915D01*
X0266518Y0261314D02*
X0267200Y0261314D01*
X0267152Y0263712D02*
X0266518Y0263712D01*
X0271915Y0280502D02*
X0247254Y0280502D01*
X0250142Y0278103D02*
X0253219Y0278103D01*
X0219700Y0290096D02*
X0219700Y0290096D01*
X0214900Y0268509D02*
X0212955Y0268509D01*
X0152400Y0226247D02*
X0152400Y0210653D01*
X0150247Y0208500D01*
X0148637Y0208500D01*
X0149278Y0209141D01*
X0150100Y0211126D01*
X0150100Y0213274D01*
X0149278Y0215259D01*
X0148500Y0216037D01*
X0148500Y0221355D01*
X0148984Y0221840D01*
X0149484Y0223047D01*
X0149484Y0224353D01*
X0148984Y0225560D01*
X0148060Y0226484D01*
X0146853Y0226984D01*
X0145547Y0226984D01*
X0145500Y0226965D01*
X0145500Y0233147D01*
X0152400Y0226247D01*
X0152400Y0225336D02*
X0149077Y0225336D01*
X0149439Y0222937D02*
X0152400Y0222937D01*
X0152400Y0220539D02*
X0148500Y0220539D01*
X0148500Y0218140D02*
X0152400Y0218140D01*
X0152400Y0215742D02*
X0148795Y0215742D01*
X0150071Y0213343D02*
X0152400Y0213343D01*
X0152400Y0210945D02*
X0150025Y0210945D01*
X0150294Y0208546D02*
X0148683Y0208546D01*
X0140471Y0203749D02*
X0139502Y0203749D01*
X0139200Y0201351D02*
X0140200Y0201351D01*
X0138200Y0198952D02*
X0137816Y0198952D01*
X0139908Y0194155D02*
X0140639Y0194155D01*
X0140200Y0191757D02*
X0139200Y0191757D01*
X0138222Y0189358D02*
X0141178Y0189358D01*
X0115528Y0225336D02*
X0113872Y0225336D01*
X0101354Y0232532D02*
X0101353Y0232532D01*
X0101353Y0234930D02*
X0101354Y0234930D01*
X0101353Y0237329D02*
X0101354Y0237329D01*
X0101353Y0242126D02*
X0101354Y0242126D01*
X0101353Y0244524D02*
X0101354Y0244524D01*
X0101353Y0246923D02*
X0101354Y0246923D01*
X0145500Y0232532D02*
X0146116Y0232532D01*
X0145500Y0230133D02*
X0148514Y0230133D01*
X0150913Y0227734D02*
X0145500Y0227734D01*
X0272200Y0115004D02*
X0272200Y0115004D01*
X0272200Y0112606D02*
X0272200Y0112606D01*
X0205478Y0055042D02*
X0361343Y0055042D01*
X0362265Y0057440D02*
X0125699Y0057440D01*
X0125505Y0055042D02*
X0198922Y0055042D01*
X0195623Y0052643D02*
X0124512Y0052643D01*
X0122264Y0050245D02*
X0194262Y0050245D01*
X0194720Y0043049D02*
X0143371Y0043049D01*
X0144970Y0040651D02*
X0196730Y0040651D01*
X0207670Y0040651D02*
X0354460Y0040651D01*
X0355647Y0043049D02*
X0209680Y0043049D01*
X0210674Y0045448D02*
X0356834Y0045448D01*
X0358021Y0047846D02*
X0210699Y0047846D01*
X0210138Y0050245D02*
X0359207Y0050245D01*
X0360394Y0052643D02*
X0208777Y0052643D01*
X0145699Y0038252D02*
X0353233Y0038252D01*
X0351757Y0035854D02*
X0145699Y0035854D01*
X0144848Y0033455D02*
X0350280Y0033455D01*
X0348804Y0031057D02*
X0143076Y0031057D01*
X0131324Y0031057D02*
X0055596Y0031057D01*
X0054120Y0033455D02*
X0129552Y0033455D01*
X0128701Y0035854D02*
X0052643Y0035854D01*
X0057072Y0028658D02*
X0347328Y0028658D01*
X0345852Y0026260D02*
X0058548Y0026260D01*
X0060139Y0023861D02*
X0344261Y0023861D01*
X0342545Y0021463D02*
X0061855Y0021463D01*
X0124182Y0062237D02*
X0364110Y0062237D01*
X0363188Y0059839D02*
X0125306Y0059839D01*
D30*
X0134700Y0192200D02*
X0139700Y0197200D01*
X0147200Y0197200D01*
X0159247Y0209247D01*
X0159247Y0231747D01*
X0159247Y0232200D01*
X0159247Y0234483D01*
X0159247Y0235153D01*
X0157200Y0237200D01*
X0155700Y0237200D01*
X0152700Y0240200D01*
X0155700Y0243200D02*
X0161216Y0237684D01*
X0161216Y0234483D01*
X0161216Y0208716D01*
X0144700Y0192200D01*
X0144700Y0202200D02*
X0149700Y0202200D01*
X0157200Y0209700D01*
X0157200Y0228700D01*
X0149700Y0236200D01*
X0149700Y0244700D01*
X0157200Y0252200D01*
X0159700Y0252200D01*
X0161200Y0255200D02*
X0156700Y0255200D01*
X0147200Y0245700D01*
X0147200Y0234700D01*
X0154700Y0227200D01*
X0154700Y0209700D01*
X0151200Y0206200D01*
X0138700Y0206200D01*
X0134700Y0202200D01*
X0134700Y0212200D02*
X0143200Y0220700D01*
X0143200Y0252200D01*
X0139700Y0258263D02*
X0139700Y0232200D01*
X0136550Y0237200D02*
X0136550Y0258263D01*
X0152700Y0256200D02*
X0153700Y0257200D01*
X0158700Y0257200D01*
X0161141Y0259641D01*
X0164228Y0259641D01*
X0164109Y0257200D02*
X0162200Y0257200D01*
X0161200Y0256200D01*
X0161200Y0255200D01*
X0163184Y0253216D01*
X0163184Y0244917D01*
X0161216Y0244917D02*
X0161216Y0240684D01*
X0163184Y0238716D01*
X0163184Y0234483D01*
X0163184Y0228116D01*
X0164700Y0226600D01*
X0167436Y0232200D02*
X0171354Y0232200D01*
X0171287Y0232202D01*
X0171220Y0232208D01*
X0171154Y0232218D01*
X0171088Y0232231D01*
X0171023Y0232248D01*
X0170959Y0232270D01*
X0170897Y0232294D01*
X0170836Y0232323D01*
X0170777Y0232355D01*
X0170720Y0232390D01*
X0170665Y0232428D01*
X0170612Y0232470D01*
X0170562Y0232515D01*
X0170515Y0232562D01*
X0170470Y0232612D01*
X0170428Y0232665D01*
X0170390Y0232720D01*
X0170355Y0232777D01*
X0170323Y0232836D01*
X0170294Y0232897D01*
X0170270Y0232959D01*
X0170248Y0233023D01*
X0170231Y0233088D01*
X0170218Y0233154D01*
X0170208Y0233220D01*
X0170202Y0233287D01*
X0170200Y0233354D01*
X0170200Y0239300D01*
X0170200Y0243100D02*
X0168383Y0244917D01*
X0167200Y0244917D01*
X0167200Y0249700D01*
X0167082Y0249818D01*
X0167082Y0254621D01*
X0164228Y0257082D02*
X0164109Y0257200D01*
X0164228Y0262200D02*
X0157700Y0262200D01*
X0155700Y0260200D01*
X0159700Y0264700D02*
X0154700Y0269700D01*
X0154700Y0275300D01*
X0159700Y0277800D02*
X0159700Y0269700D01*
X0162200Y0267200D01*
X0164109Y0267200D01*
X0164228Y0267318D01*
X0164228Y0264759D02*
X0164169Y0264700D01*
X0159700Y0264700D01*
X0167082Y0269779D02*
X0167200Y0269897D01*
X0167200Y0272200D01*
X0164700Y0275700D01*
X0164700Y0280300D01*
X0174700Y0278854D02*
X0174759Y0278794D01*
X0174759Y0269779D01*
X0177318Y0269779D02*
X0179700Y0272161D01*
X0179700Y0272200D01*
X0183200Y0272200D01*
X0187200Y0278854D02*
X0187200Y0264600D01*
X0187100Y0264700D01*
X0180231Y0264700D01*
X0180172Y0264759D01*
X0180172Y0262200D02*
X0183200Y0262200D01*
X0184600Y0260800D01*
X0187200Y0260800D01*
X0187200Y0259700D01*
X0191200Y0255700D01*
X0191200Y0223700D01*
X0187200Y0232200D02*
X0187200Y0254700D01*
X0182259Y0259641D01*
X0180172Y0259641D01*
X0180172Y0257200D02*
X0180172Y0257082D01*
X0182318Y0257082D01*
X0183700Y0255700D01*
X0183700Y0237200D01*
X0178046Y0238200D02*
X0178046Y0232200D01*
X0178046Y0238200D02*
X0174700Y0240700D01*
X0174700Y0244700D01*
X0172200Y0247200D01*
X0172200Y0254621D01*
X0174700Y0254562D02*
X0174759Y0254621D01*
X0174759Y0247141D01*
X0179700Y0242200D01*
X0179700Y0247200D02*
X0177200Y0249700D01*
X0177200Y0254503D01*
X0177318Y0254621D01*
X0180172Y0257082D02*
X0180291Y0257200D01*
X0190700Y0266200D02*
X0192200Y0264700D01*
X0194169Y0264700D01*
X0194228Y0264759D01*
X0190700Y0266200D02*
X0190700Y0275700D01*
X0187200Y0278854D02*
X0184700Y0281354D01*
X0204700Y0272200D02*
X0204700Y0269838D01*
X0204759Y0269779D01*
X0204700Y0272200D02*
X0207200Y0274700D01*
X0207200Y0283854D01*
X0217200Y0278854D02*
X0219700Y0281354D01*
X0217200Y0278854D02*
X0217200Y0267200D01*
X0214700Y0264700D01*
X0210231Y0264700D01*
X0210172Y0264759D01*
X0207318Y0269779D02*
X0209700Y0272161D01*
X0209700Y0272200D01*
X0213200Y0272200D01*
X0219700Y0264700D02*
X0224169Y0264700D01*
X0224228Y0264759D01*
X0234700Y0269779D02*
X0234700Y0278854D01*
X0239700Y0272200D02*
X0243200Y0272200D01*
X0239700Y0272161D02*
X0239700Y0272200D01*
X0239700Y0272161D02*
X0237318Y0269779D01*
X0234759Y0269779D02*
X0234700Y0269779D01*
X0234700Y0269838D02*
X0234759Y0269779D01*
X0240172Y0264759D02*
X0240231Y0264700D01*
X0237318Y0254621D02*
X0237318Y0247200D01*
X0242800Y0247200D01*
X0246600Y0247200D02*
X0249700Y0247200D01*
X0249700Y0242200D02*
X0246600Y0242200D01*
X0242800Y0242200D02*
X0232200Y0242200D01*
X0232200Y0247200D01*
X0234759Y0249759D01*
X0234759Y0254621D01*
X0209700Y0249700D02*
X0209700Y0247200D01*
X0209700Y0249700D02*
X0207318Y0252082D01*
X0207318Y0254621D01*
X0207200Y0254621D01*
X0204759Y0254621D02*
X0204700Y0254562D01*
X0204700Y0242200D01*
X0167200Y0244917D02*
X0165153Y0244917D01*
X0159247Y0244917D02*
X0159200Y0244964D01*
X0159200Y0248200D01*
X0163184Y0234483D02*
X0165153Y0234483D01*
X0167436Y0232200D01*
X0146200Y0223700D02*
X0146200Y0213700D01*
X0144700Y0212200D01*
X0244700Y0212200D02*
X0244700Y0208046D01*
X0244700Y0212200D02*
X0246500Y0214000D01*
X0246500Y0219700D01*
X0252900Y0219700D02*
X0252900Y0214000D01*
X0254700Y0212200D01*
X0254700Y0208046D01*
D31*
X0254700Y0201354D02*
X0261354Y0201354D01*
X0267200Y0207200D01*
X0267200Y0232200D01*
X0269700Y0234700D01*
X0269700Y0264700D01*
X0267200Y0267200D01*
X0264700Y0267200D01*
X0263637Y0266137D01*
X0263637Y0264031D01*
X0255763Y0264031D02*
X0255763Y0274109D01*
X0256354Y0274700D01*
X0249700Y0274700D01*
X0255763Y0274700D02*
X0256354Y0274700D01*
X0249700Y0264759D02*
X0249700Y0264700D01*
X0249700Y0264759D02*
X0240172Y0264759D01*
X0229700Y0278854D02*
X0222200Y0278854D01*
X0219700Y0281354D01*
X0209700Y0281354D01*
X0207200Y0283854D01*
X0197200Y0283854D01*
X0194700Y0281354D01*
X0184700Y0281354D01*
X0182200Y0278854D01*
X0174700Y0278854D01*
X0173046Y0278854D01*
X0167800Y0284100D01*
X0164700Y0284100D01*
X0162200Y0284100D01*
X0159700Y0281600D01*
X0157200Y0281600D01*
X0154700Y0279100D01*
X0149700Y0279100D01*
X0147200Y0276600D01*
X0139100Y0276600D01*
X0133401Y0270901D01*
X0128401Y0270901D01*
X0122200Y0264700D01*
X0122200Y0250546D01*
X0118046Y0250546D01*
X0114700Y0247200D01*
X0114700Y0244700D01*
X0108046Y0244700D01*
X0114700Y0244700D02*
X0114700Y0234700D01*
X0108046Y0234700D01*
X0114700Y0234700D02*
X0114700Y0229700D01*
X0107200Y0222200D01*
X0107200Y0219700D01*
X0107200Y0209700D02*
X0107200Y0199700D01*
X0117200Y0227200D02*
X0139700Y0227200D01*
X0117200Y0227200D02*
X0114700Y0229700D01*
X0122200Y0250546D02*
X0132200Y0250546D01*
X0132200Y0253200D01*
X0133401Y0254401D01*
X0133401Y0258263D01*
X0134700Y0262200D02*
X0131629Y0262200D01*
X0134700Y0262200D02*
X0136550Y0264050D01*
X0136550Y0266137D01*
X0133401Y0266137D02*
X0133401Y0270901D01*
X0142850Y0266137D02*
X0142850Y0264050D01*
X0144700Y0262200D01*
X0147771Y0262200D01*
X0145999Y0266137D02*
X0145999Y0268499D01*
X0147200Y0269700D01*
X0147200Y0272800D01*
X0171354Y0232200D02*
X0169700Y0230546D01*
X0169700Y0227200D01*
X0178046Y0232200D02*
X0178046Y0221446D01*
X0176300Y0219700D01*
X0232200Y0207200D02*
X0238046Y0201354D01*
X0244700Y0201354D01*
X0232200Y0207200D02*
X0232200Y0237200D01*
X0262200Y0237200D02*
X0262200Y0249700D01*
X0263637Y0251137D01*
X0263637Y0255369D01*
M02*
