G75*
%MOIN*%
%OFA0B0*%
%FSLAX25Y25*%
%IPPOS*%
%LPD*%
%AMOC8*
5,1,8,0,0,1.08239X$1,22.5*
%
%ADD10C,0.00000*%
%ADD11C,0.01200*%
%ADD12C,0.01600*%
%ADD13C,0.03200*%
%ADD14C,0.00600*%
%ADD15C,0.00500*%
%ADD16C,0.01000*%
%ADD17C,0.00100*%
%ADD18C,0.00200*%
%ADD19C,0.01114*%
%ADD20C,0.00700*%
%ADD21R,0.00166X0.03830*%
%ADD22R,0.00167X0.05670*%
%ADD23R,0.00167X0.08830*%
%ADD24R,0.00166X0.09830*%
%ADD25R,0.00167X0.02830*%
%ADD26R,0.00167X0.02500*%
%ADD27R,0.00167X0.02670*%
%ADD28R,0.00166X0.02170*%
%ADD29R,0.00166X0.02160*%
%ADD30R,0.00167X0.02000*%
%ADD31R,0.00167X0.01830*%
%ADD32R,0.00167X0.01670*%
%ADD33R,0.00166X0.01670*%
%ADD34R,0.00167X0.01500*%
%ADD35R,0.00167X0.01170*%
%ADD36R,0.00166X0.01500*%
%ADD37R,0.00166X0.01000*%
%ADD38R,0.00166X0.02000*%
%ADD39R,0.00166X0.01330*%
%ADD40R,0.00167X0.01330*%
%ADD41R,0.00167X0.02170*%
%ADD42R,0.00167X0.01340*%
%ADD43R,0.00167X0.01660*%
%ADD44R,0.00167X0.01000*%
%ADD45R,0.00166X0.01170*%
%ADD46R,0.00166X0.00830*%
%ADD47R,0.00167X0.00670*%
%ADD48R,0.00167X0.00660*%
%ADD49R,0.00167X0.00840*%
%ADD50R,0.00167X0.00830*%
%ADD51R,0.00166X0.00670*%
%ADD52R,0.00166X0.02330*%
%ADD53R,0.00166X0.01160*%
%ADD54R,0.00167X0.01160*%
%ADD55R,0.00166X0.00840*%
%ADD56R,0.00166X0.00660*%
%ADD57R,0.00166X0.00330*%
%ADD58R,0.00167X0.00500*%
%ADD59R,0.00167X0.00330*%
%ADD60R,0.00166X0.00500*%
%ADD61R,0.00166X0.01660*%
%ADD62R,0.00167X0.01840*%
%ADD63R,0.00167X0.05840*%
%ADD64R,0.00166X0.01340*%
%ADD65R,0.00166X0.06670*%
%ADD66R,0.00167X0.09000*%
%ADD67R,0.00167X0.09670*%
%ADD68R,0.00167X0.02330*%
%ADD69R,0.00167X0.00160*%
%ADD70R,0.00166X0.03000*%
%ADD71R,0.00167X0.02840*%
%ADD72R,0.00166X0.01840*%
%ADD73R,0.00166X0.01830*%
%ADD74R,0.00167X0.00340*%
%ADD75R,0.00166X0.03330*%
%ADD76R,0.00167X0.04000*%
%ADD77R,0.00166X0.00340*%
%ADD78R,0.00166X0.02500*%
%ADD79R,0.00167X0.02660*%
%ADD80R,0.00167X0.03000*%
%ADD81R,0.00166X0.03170*%
%ADD82R,0.00166X0.00170*%
%ADD83R,0.00166X0.02670*%
%ADD84R,0.00167X0.00170*%
%ADD85R,0.00166X0.03500*%
%ADD86R,0.00167X0.04670*%
%ADD87R,0.00167X0.04500*%
%ADD88R,0.00167X0.03340*%
%ADD89R,0.00166X0.03340*%
%ADD90R,0.00166X0.00160*%
%ADD91R,0.00166X0.03670*%
%ADD92R,0.00167X0.05340*%
%ADD93R,0.00166X0.04160*%
%ADD94R,0.00167X0.03830*%
%ADD95R,0.00167X0.02340*%
%ADD96R,0.00167X0.03330*%
%ADD97R,0.00167X0.03170*%
%ADD98R,0.00166X0.02340*%
%ADD99R,0.00167X0.02160*%
%ADD100R,0.00167X0.03500*%
%ADD101R,0.00166X0.03660*%
%ADD102R,0.00167X0.04340*%
%ADD103R,0.00167X0.03670*%
%ADD104R,0.00166X0.02840*%
%ADD105R,0.00166X0.02830*%
%ADD106R,0.00167X0.07000*%
%ADD107R,0.00166X0.05670*%
%ADD108R,0.00167X0.04660*%
%ADD109R,0.00166X0.09330*%
%ADD110R,0.00167X0.06670*%
D10*
X0101095Y0049933D02*
X0381095Y0049933D01*
X0319796Y0089933D02*
X0319798Y0090091D01*
X0319804Y0090249D01*
X0319814Y0090407D01*
X0319828Y0090565D01*
X0319846Y0090722D01*
X0319867Y0090879D01*
X0319893Y0091035D01*
X0319923Y0091191D01*
X0319956Y0091346D01*
X0319994Y0091499D01*
X0320035Y0091652D01*
X0320080Y0091804D01*
X0320129Y0091955D01*
X0320182Y0092104D01*
X0320238Y0092252D01*
X0320298Y0092398D01*
X0320362Y0092543D01*
X0320430Y0092686D01*
X0320501Y0092828D01*
X0320575Y0092968D01*
X0320653Y0093105D01*
X0320735Y0093241D01*
X0320819Y0093375D01*
X0320908Y0093506D01*
X0320999Y0093635D01*
X0321094Y0093762D01*
X0321191Y0093887D01*
X0321292Y0094009D01*
X0321396Y0094128D01*
X0321503Y0094245D01*
X0321613Y0094359D01*
X0321726Y0094470D01*
X0321841Y0094579D01*
X0321959Y0094684D01*
X0322080Y0094786D01*
X0322203Y0094886D01*
X0322329Y0094982D01*
X0322457Y0095075D01*
X0322587Y0095165D01*
X0322720Y0095251D01*
X0322855Y0095335D01*
X0322991Y0095414D01*
X0323130Y0095491D01*
X0323271Y0095563D01*
X0323413Y0095633D01*
X0323557Y0095698D01*
X0323703Y0095760D01*
X0323850Y0095818D01*
X0323999Y0095873D01*
X0324149Y0095924D01*
X0324300Y0095971D01*
X0324452Y0096014D01*
X0324605Y0096053D01*
X0324760Y0096089D01*
X0324915Y0096120D01*
X0325071Y0096148D01*
X0325227Y0096172D01*
X0325384Y0096192D01*
X0325542Y0096208D01*
X0325699Y0096220D01*
X0325858Y0096228D01*
X0326016Y0096232D01*
X0326174Y0096232D01*
X0326332Y0096228D01*
X0326491Y0096220D01*
X0326648Y0096208D01*
X0326806Y0096192D01*
X0326963Y0096172D01*
X0327119Y0096148D01*
X0327275Y0096120D01*
X0327430Y0096089D01*
X0327585Y0096053D01*
X0327738Y0096014D01*
X0327890Y0095971D01*
X0328041Y0095924D01*
X0328191Y0095873D01*
X0328340Y0095818D01*
X0328487Y0095760D01*
X0328633Y0095698D01*
X0328777Y0095633D01*
X0328919Y0095563D01*
X0329060Y0095491D01*
X0329199Y0095414D01*
X0329335Y0095335D01*
X0329470Y0095251D01*
X0329603Y0095165D01*
X0329733Y0095075D01*
X0329861Y0094982D01*
X0329987Y0094886D01*
X0330110Y0094786D01*
X0330231Y0094684D01*
X0330349Y0094579D01*
X0330464Y0094470D01*
X0330577Y0094359D01*
X0330687Y0094245D01*
X0330794Y0094128D01*
X0330898Y0094009D01*
X0330999Y0093887D01*
X0331096Y0093762D01*
X0331191Y0093635D01*
X0331282Y0093506D01*
X0331371Y0093375D01*
X0331455Y0093241D01*
X0331537Y0093105D01*
X0331615Y0092968D01*
X0331689Y0092828D01*
X0331760Y0092686D01*
X0331828Y0092543D01*
X0331892Y0092398D01*
X0331952Y0092252D01*
X0332008Y0092104D01*
X0332061Y0091955D01*
X0332110Y0091804D01*
X0332155Y0091652D01*
X0332196Y0091499D01*
X0332234Y0091346D01*
X0332267Y0091191D01*
X0332297Y0091035D01*
X0332323Y0090879D01*
X0332344Y0090722D01*
X0332362Y0090565D01*
X0332376Y0090407D01*
X0332386Y0090249D01*
X0332392Y0090091D01*
X0332394Y0089933D01*
X0332392Y0089775D01*
X0332386Y0089617D01*
X0332376Y0089459D01*
X0332362Y0089301D01*
X0332344Y0089144D01*
X0332323Y0088987D01*
X0332297Y0088831D01*
X0332267Y0088675D01*
X0332234Y0088520D01*
X0332196Y0088367D01*
X0332155Y0088214D01*
X0332110Y0088062D01*
X0332061Y0087911D01*
X0332008Y0087762D01*
X0331952Y0087614D01*
X0331892Y0087468D01*
X0331828Y0087323D01*
X0331760Y0087180D01*
X0331689Y0087038D01*
X0331615Y0086898D01*
X0331537Y0086761D01*
X0331455Y0086625D01*
X0331371Y0086491D01*
X0331282Y0086360D01*
X0331191Y0086231D01*
X0331096Y0086104D01*
X0330999Y0085979D01*
X0330898Y0085857D01*
X0330794Y0085738D01*
X0330687Y0085621D01*
X0330577Y0085507D01*
X0330464Y0085396D01*
X0330349Y0085287D01*
X0330231Y0085182D01*
X0330110Y0085080D01*
X0329987Y0084980D01*
X0329861Y0084884D01*
X0329733Y0084791D01*
X0329603Y0084701D01*
X0329470Y0084615D01*
X0329335Y0084531D01*
X0329199Y0084452D01*
X0329060Y0084375D01*
X0328919Y0084303D01*
X0328777Y0084233D01*
X0328633Y0084168D01*
X0328487Y0084106D01*
X0328340Y0084048D01*
X0328191Y0083993D01*
X0328041Y0083942D01*
X0327890Y0083895D01*
X0327738Y0083852D01*
X0327585Y0083813D01*
X0327430Y0083777D01*
X0327275Y0083746D01*
X0327119Y0083718D01*
X0326963Y0083694D01*
X0326806Y0083674D01*
X0326648Y0083658D01*
X0326491Y0083646D01*
X0326332Y0083638D01*
X0326174Y0083634D01*
X0326016Y0083634D01*
X0325858Y0083638D01*
X0325699Y0083646D01*
X0325542Y0083658D01*
X0325384Y0083674D01*
X0325227Y0083694D01*
X0325071Y0083718D01*
X0324915Y0083746D01*
X0324760Y0083777D01*
X0324605Y0083813D01*
X0324452Y0083852D01*
X0324300Y0083895D01*
X0324149Y0083942D01*
X0323999Y0083993D01*
X0323850Y0084048D01*
X0323703Y0084106D01*
X0323557Y0084168D01*
X0323413Y0084233D01*
X0323271Y0084303D01*
X0323130Y0084375D01*
X0322991Y0084452D01*
X0322855Y0084531D01*
X0322720Y0084615D01*
X0322587Y0084701D01*
X0322457Y0084791D01*
X0322329Y0084884D01*
X0322203Y0084980D01*
X0322080Y0085080D01*
X0321959Y0085182D01*
X0321841Y0085287D01*
X0321726Y0085396D01*
X0321613Y0085507D01*
X0321503Y0085621D01*
X0321396Y0085738D01*
X0321292Y0085857D01*
X0321191Y0085979D01*
X0321094Y0086104D01*
X0320999Y0086231D01*
X0320908Y0086360D01*
X0320819Y0086491D01*
X0320735Y0086625D01*
X0320653Y0086761D01*
X0320575Y0086898D01*
X0320501Y0087038D01*
X0320430Y0087180D01*
X0320362Y0087323D01*
X0320298Y0087468D01*
X0320238Y0087614D01*
X0320182Y0087762D01*
X0320129Y0087911D01*
X0320080Y0088062D01*
X0320035Y0088214D01*
X0319994Y0088367D01*
X0319956Y0088520D01*
X0319923Y0088675D01*
X0319893Y0088831D01*
X0319867Y0088987D01*
X0319846Y0089144D01*
X0319828Y0089301D01*
X0319814Y0089459D01*
X0319804Y0089617D01*
X0319798Y0089775D01*
X0319796Y0089933D01*
X0299796Y0069933D02*
X0299798Y0070091D01*
X0299804Y0070249D01*
X0299814Y0070407D01*
X0299828Y0070565D01*
X0299846Y0070722D01*
X0299867Y0070879D01*
X0299893Y0071035D01*
X0299923Y0071191D01*
X0299956Y0071346D01*
X0299994Y0071499D01*
X0300035Y0071652D01*
X0300080Y0071804D01*
X0300129Y0071955D01*
X0300182Y0072104D01*
X0300238Y0072252D01*
X0300298Y0072398D01*
X0300362Y0072543D01*
X0300430Y0072686D01*
X0300501Y0072828D01*
X0300575Y0072968D01*
X0300653Y0073105D01*
X0300735Y0073241D01*
X0300819Y0073375D01*
X0300908Y0073506D01*
X0300999Y0073635D01*
X0301094Y0073762D01*
X0301191Y0073887D01*
X0301292Y0074009D01*
X0301396Y0074128D01*
X0301503Y0074245D01*
X0301613Y0074359D01*
X0301726Y0074470D01*
X0301841Y0074579D01*
X0301959Y0074684D01*
X0302080Y0074786D01*
X0302203Y0074886D01*
X0302329Y0074982D01*
X0302457Y0075075D01*
X0302587Y0075165D01*
X0302720Y0075251D01*
X0302855Y0075335D01*
X0302991Y0075414D01*
X0303130Y0075491D01*
X0303271Y0075563D01*
X0303413Y0075633D01*
X0303557Y0075698D01*
X0303703Y0075760D01*
X0303850Y0075818D01*
X0303999Y0075873D01*
X0304149Y0075924D01*
X0304300Y0075971D01*
X0304452Y0076014D01*
X0304605Y0076053D01*
X0304760Y0076089D01*
X0304915Y0076120D01*
X0305071Y0076148D01*
X0305227Y0076172D01*
X0305384Y0076192D01*
X0305542Y0076208D01*
X0305699Y0076220D01*
X0305858Y0076228D01*
X0306016Y0076232D01*
X0306174Y0076232D01*
X0306332Y0076228D01*
X0306491Y0076220D01*
X0306648Y0076208D01*
X0306806Y0076192D01*
X0306963Y0076172D01*
X0307119Y0076148D01*
X0307275Y0076120D01*
X0307430Y0076089D01*
X0307585Y0076053D01*
X0307738Y0076014D01*
X0307890Y0075971D01*
X0308041Y0075924D01*
X0308191Y0075873D01*
X0308340Y0075818D01*
X0308487Y0075760D01*
X0308633Y0075698D01*
X0308777Y0075633D01*
X0308919Y0075563D01*
X0309060Y0075491D01*
X0309199Y0075414D01*
X0309335Y0075335D01*
X0309470Y0075251D01*
X0309603Y0075165D01*
X0309733Y0075075D01*
X0309861Y0074982D01*
X0309987Y0074886D01*
X0310110Y0074786D01*
X0310231Y0074684D01*
X0310349Y0074579D01*
X0310464Y0074470D01*
X0310577Y0074359D01*
X0310687Y0074245D01*
X0310794Y0074128D01*
X0310898Y0074009D01*
X0310999Y0073887D01*
X0311096Y0073762D01*
X0311191Y0073635D01*
X0311282Y0073506D01*
X0311371Y0073375D01*
X0311455Y0073241D01*
X0311537Y0073105D01*
X0311615Y0072968D01*
X0311689Y0072828D01*
X0311760Y0072686D01*
X0311828Y0072543D01*
X0311892Y0072398D01*
X0311952Y0072252D01*
X0312008Y0072104D01*
X0312061Y0071955D01*
X0312110Y0071804D01*
X0312155Y0071652D01*
X0312196Y0071499D01*
X0312234Y0071346D01*
X0312267Y0071191D01*
X0312297Y0071035D01*
X0312323Y0070879D01*
X0312344Y0070722D01*
X0312362Y0070565D01*
X0312376Y0070407D01*
X0312386Y0070249D01*
X0312392Y0070091D01*
X0312394Y0069933D01*
X0312392Y0069775D01*
X0312386Y0069617D01*
X0312376Y0069459D01*
X0312362Y0069301D01*
X0312344Y0069144D01*
X0312323Y0068987D01*
X0312297Y0068831D01*
X0312267Y0068675D01*
X0312234Y0068520D01*
X0312196Y0068367D01*
X0312155Y0068214D01*
X0312110Y0068062D01*
X0312061Y0067911D01*
X0312008Y0067762D01*
X0311952Y0067614D01*
X0311892Y0067468D01*
X0311828Y0067323D01*
X0311760Y0067180D01*
X0311689Y0067038D01*
X0311615Y0066898D01*
X0311537Y0066761D01*
X0311455Y0066625D01*
X0311371Y0066491D01*
X0311282Y0066360D01*
X0311191Y0066231D01*
X0311096Y0066104D01*
X0310999Y0065979D01*
X0310898Y0065857D01*
X0310794Y0065738D01*
X0310687Y0065621D01*
X0310577Y0065507D01*
X0310464Y0065396D01*
X0310349Y0065287D01*
X0310231Y0065182D01*
X0310110Y0065080D01*
X0309987Y0064980D01*
X0309861Y0064884D01*
X0309733Y0064791D01*
X0309603Y0064701D01*
X0309470Y0064615D01*
X0309335Y0064531D01*
X0309199Y0064452D01*
X0309060Y0064375D01*
X0308919Y0064303D01*
X0308777Y0064233D01*
X0308633Y0064168D01*
X0308487Y0064106D01*
X0308340Y0064048D01*
X0308191Y0063993D01*
X0308041Y0063942D01*
X0307890Y0063895D01*
X0307738Y0063852D01*
X0307585Y0063813D01*
X0307430Y0063777D01*
X0307275Y0063746D01*
X0307119Y0063718D01*
X0306963Y0063694D01*
X0306806Y0063674D01*
X0306648Y0063658D01*
X0306491Y0063646D01*
X0306332Y0063638D01*
X0306174Y0063634D01*
X0306016Y0063634D01*
X0305858Y0063638D01*
X0305699Y0063646D01*
X0305542Y0063658D01*
X0305384Y0063674D01*
X0305227Y0063694D01*
X0305071Y0063718D01*
X0304915Y0063746D01*
X0304760Y0063777D01*
X0304605Y0063813D01*
X0304452Y0063852D01*
X0304300Y0063895D01*
X0304149Y0063942D01*
X0303999Y0063993D01*
X0303850Y0064048D01*
X0303703Y0064106D01*
X0303557Y0064168D01*
X0303413Y0064233D01*
X0303271Y0064303D01*
X0303130Y0064375D01*
X0302991Y0064452D01*
X0302855Y0064531D01*
X0302720Y0064615D01*
X0302587Y0064701D01*
X0302457Y0064791D01*
X0302329Y0064884D01*
X0302203Y0064980D01*
X0302080Y0065080D01*
X0301959Y0065182D01*
X0301841Y0065287D01*
X0301726Y0065396D01*
X0301613Y0065507D01*
X0301503Y0065621D01*
X0301396Y0065738D01*
X0301292Y0065857D01*
X0301191Y0065979D01*
X0301094Y0066104D01*
X0300999Y0066231D01*
X0300908Y0066360D01*
X0300819Y0066491D01*
X0300735Y0066625D01*
X0300653Y0066761D01*
X0300575Y0066898D01*
X0300501Y0067038D01*
X0300430Y0067180D01*
X0300362Y0067323D01*
X0300298Y0067468D01*
X0300238Y0067614D01*
X0300182Y0067762D01*
X0300129Y0067911D01*
X0300080Y0068062D01*
X0300035Y0068214D01*
X0299994Y0068367D01*
X0299956Y0068520D01*
X0299923Y0068675D01*
X0299893Y0068831D01*
X0299867Y0068987D01*
X0299846Y0069144D01*
X0299828Y0069301D01*
X0299814Y0069459D01*
X0299804Y0069617D01*
X0299798Y0069775D01*
X0299796Y0069933D01*
X0234796Y0079933D02*
X0234798Y0080091D01*
X0234804Y0080249D01*
X0234814Y0080407D01*
X0234828Y0080565D01*
X0234846Y0080722D01*
X0234867Y0080879D01*
X0234893Y0081035D01*
X0234923Y0081191D01*
X0234956Y0081346D01*
X0234994Y0081499D01*
X0235035Y0081652D01*
X0235080Y0081804D01*
X0235129Y0081955D01*
X0235182Y0082104D01*
X0235238Y0082252D01*
X0235298Y0082398D01*
X0235362Y0082543D01*
X0235430Y0082686D01*
X0235501Y0082828D01*
X0235575Y0082968D01*
X0235653Y0083105D01*
X0235735Y0083241D01*
X0235819Y0083375D01*
X0235908Y0083506D01*
X0235999Y0083635D01*
X0236094Y0083762D01*
X0236191Y0083887D01*
X0236292Y0084009D01*
X0236396Y0084128D01*
X0236503Y0084245D01*
X0236613Y0084359D01*
X0236726Y0084470D01*
X0236841Y0084579D01*
X0236959Y0084684D01*
X0237080Y0084786D01*
X0237203Y0084886D01*
X0237329Y0084982D01*
X0237457Y0085075D01*
X0237587Y0085165D01*
X0237720Y0085251D01*
X0237855Y0085335D01*
X0237991Y0085414D01*
X0238130Y0085491D01*
X0238271Y0085563D01*
X0238413Y0085633D01*
X0238557Y0085698D01*
X0238703Y0085760D01*
X0238850Y0085818D01*
X0238999Y0085873D01*
X0239149Y0085924D01*
X0239300Y0085971D01*
X0239452Y0086014D01*
X0239605Y0086053D01*
X0239760Y0086089D01*
X0239915Y0086120D01*
X0240071Y0086148D01*
X0240227Y0086172D01*
X0240384Y0086192D01*
X0240542Y0086208D01*
X0240699Y0086220D01*
X0240858Y0086228D01*
X0241016Y0086232D01*
X0241174Y0086232D01*
X0241332Y0086228D01*
X0241491Y0086220D01*
X0241648Y0086208D01*
X0241806Y0086192D01*
X0241963Y0086172D01*
X0242119Y0086148D01*
X0242275Y0086120D01*
X0242430Y0086089D01*
X0242585Y0086053D01*
X0242738Y0086014D01*
X0242890Y0085971D01*
X0243041Y0085924D01*
X0243191Y0085873D01*
X0243340Y0085818D01*
X0243487Y0085760D01*
X0243633Y0085698D01*
X0243777Y0085633D01*
X0243919Y0085563D01*
X0244060Y0085491D01*
X0244199Y0085414D01*
X0244335Y0085335D01*
X0244470Y0085251D01*
X0244603Y0085165D01*
X0244733Y0085075D01*
X0244861Y0084982D01*
X0244987Y0084886D01*
X0245110Y0084786D01*
X0245231Y0084684D01*
X0245349Y0084579D01*
X0245464Y0084470D01*
X0245577Y0084359D01*
X0245687Y0084245D01*
X0245794Y0084128D01*
X0245898Y0084009D01*
X0245999Y0083887D01*
X0246096Y0083762D01*
X0246191Y0083635D01*
X0246282Y0083506D01*
X0246371Y0083375D01*
X0246455Y0083241D01*
X0246537Y0083105D01*
X0246615Y0082968D01*
X0246689Y0082828D01*
X0246760Y0082686D01*
X0246828Y0082543D01*
X0246892Y0082398D01*
X0246952Y0082252D01*
X0247008Y0082104D01*
X0247061Y0081955D01*
X0247110Y0081804D01*
X0247155Y0081652D01*
X0247196Y0081499D01*
X0247234Y0081346D01*
X0247267Y0081191D01*
X0247297Y0081035D01*
X0247323Y0080879D01*
X0247344Y0080722D01*
X0247362Y0080565D01*
X0247376Y0080407D01*
X0247386Y0080249D01*
X0247392Y0080091D01*
X0247394Y0079933D01*
X0247392Y0079775D01*
X0247386Y0079617D01*
X0247376Y0079459D01*
X0247362Y0079301D01*
X0247344Y0079144D01*
X0247323Y0078987D01*
X0247297Y0078831D01*
X0247267Y0078675D01*
X0247234Y0078520D01*
X0247196Y0078367D01*
X0247155Y0078214D01*
X0247110Y0078062D01*
X0247061Y0077911D01*
X0247008Y0077762D01*
X0246952Y0077614D01*
X0246892Y0077468D01*
X0246828Y0077323D01*
X0246760Y0077180D01*
X0246689Y0077038D01*
X0246615Y0076898D01*
X0246537Y0076761D01*
X0246455Y0076625D01*
X0246371Y0076491D01*
X0246282Y0076360D01*
X0246191Y0076231D01*
X0246096Y0076104D01*
X0245999Y0075979D01*
X0245898Y0075857D01*
X0245794Y0075738D01*
X0245687Y0075621D01*
X0245577Y0075507D01*
X0245464Y0075396D01*
X0245349Y0075287D01*
X0245231Y0075182D01*
X0245110Y0075080D01*
X0244987Y0074980D01*
X0244861Y0074884D01*
X0244733Y0074791D01*
X0244603Y0074701D01*
X0244470Y0074615D01*
X0244335Y0074531D01*
X0244199Y0074452D01*
X0244060Y0074375D01*
X0243919Y0074303D01*
X0243777Y0074233D01*
X0243633Y0074168D01*
X0243487Y0074106D01*
X0243340Y0074048D01*
X0243191Y0073993D01*
X0243041Y0073942D01*
X0242890Y0073895D01*
X0242738Y0073852D01*
X0242585Y0073813D01*
X0242430Y0073777D01*
X0242275Y0073746D01*
X0242119Y0073718D01*
X0241963Y0073694D01*
X0241806Y0073674D01*
X0241648Y0073658D01*
X0241491Y0073646D01*
X0241332Y0073638D01*
X0241174Y0073634D01*
X0241016Y0073634D01*
X0240858Y0073638D01*
X0240699Y0073646D01*
X0240542Y0073658D01*
X0240384Y0073674D01*
X0240227Y0073694D01*
X0240071Y0073718D01*
X0239915Y0073746D01*
X0239760Y0073777D01*
X0239605Y0073813D01*
X0239452Y0073852D01*
X0239300Y0073895D01*
X0239149Y0073942D01*
X0238999Y0073993D01*
X0238850Y0074048D01*
X0238703Y0074106D01*
X0238557Y0074168D01*
X0238413Y0074233D01*
X0238271Y0074303D01*
X0238130Y0074375D01*
X0237991Y0074452D01*
X0237855Y0074531D01*
X0237720Y0074615D01*
X0237587Y0074701D01*
X0237457Y0074791D01*
X0237329Y0074884D01*
X0237203Y0074980D01*
X0237080Y0075080D01*
X0236959Y0075182D01*
X0236841Y0075287D01*
X0236726Y0075396D01*
X0236613Y0075507D01*
X0236503Y0075621D01*
X0236396Y0075738D01*
X0236292Y0075857D01*
X0236191Y0075979D01*
X0236094Y0076104D01*
X0235999Y0076231D01*
X0235908Y0076360D01*
X0235819Y0076491D01*
X0235735Y0076625D01*
X0235653Y0076761D01*
X0235575Y0076898D01*
X0235501Y0077038D01*
X0235430Y0077180D01*
X0235362Y0077323D01*
X0235298Y0077468D01*
X0235238Y0077614D01*
X0235182Y0077762D01*
X0235129Y0077911D01*
X0235080Y0078062D01*
X0235035Y0078214D01*
X0234994Y0078367D01*
X0234956Y0078520D01*
X0234923Y0078675D01*
X0234893Y0078831D01*
X0234867Y0078987D01*
X0234846Y0079144D01*
X0234828Y0079301D01*
X0234814Y0079459D01*
X0234804Y0079617D01*
X0234798Y0079775D01*
X0234796Y0079933D01*
X0101095Y0049933D02*
X0098565Y0053390D01*
X0096120Y0056909D01*
X0093762Y0060486D01*
X0091492Y0064119D01*
X0089311Y0067808D01*
X0087222Y0071548D01*
X0085225Y0075338D01*
X0083321Y0079176D01*
X0081512Y0083060D01*
X0079798Y0086987D01*
X0078181Y0090954D01*
X0076661Y0094960D01*
X0075240Y0099002D01*
X0073918Y0103077D01*
X0072696Y0107184D01*
X0071575Y0111319D01*
X0070556Y0115480D01*
X0069639Y0119665D01*
X0068824Y0123872D01*
X0068113Y0128096D01*
X0067505Y0132338D01*
X0067002Y0136592D01*
X0066602Y0140858D01*
X0066307Y0145132D01*
X0066117Y0149412D01*
X0066031Y0153696D01*
X0066051Y0157980D01*
X0066175Y0162263D01*
X0066404Y0166541D01*
X0066737Y0170812D01*
X0067175Y0175074D01*
X0067717Y0179324D01*
X0068363Y0183560D01*
X0069113Y0187778D01*
X0069965Y0191977D01*
X0070920Y0196153D01*
X0071977Y0200305D01*
X0073135Y0204430D01*
X0074394Y0208526D01*
X0075752Y0212589D01*
X0077210Y0216618D01*
X0078766Y0220610D01*
X0080419Y0224562D01*
X0082168Y0228473D01*
X0084012Y0232340D01*
X0085951Y0236161D01*
X0087982Y0239933D01*
X0090105Y0243655D01*
X0092318Y0247323D01*
X0094621Y0250936D01*
X0097011Y0254492D01*
X0099488Y0257988D01*
X0102049Y0261422D01*
X0104694Y0264793D01*
X0107420Y0268098D01*
X0110227Y0271335D01*
X0113112Y0274503D01*
X0116073Y0277599D01*
X0119110Y0280622D01*
X0122219Y0283569D01*
X0125400Y0286440D01*
X0128649Y0289231D01*
X0131967Y0291943D01*
X0135349Y0294572D01*
X0138795Y0297118D01*
X0142302Y0299579D01*
X0145869Y0301953D01*
X0149492Y0304239D01*
X0153170Y0306436D01*
X0156901Y0308543D01*
X0160683Y0310557D01*
X0164512Y0312478D01*
X0168388Y0314305D01*
X0172306Y0316036D01*
X0176267Y0317672D01*
X0180266Y0319209D01*
X0184301Y0320649D01*
X0188370Y0321989D01*
X0192471Y0323229D01*
X0196601Y0324369D01*
X0200758Y0325407D01*
X0204939Y0326343D01*
X0209141Y0327176D01*
X0213363Y0327907D01*
X0217601Y0328533D01*
X0221854Y0329056D01*
X0226118Y0329475D01*
X0230390Y0329789D01*
X0234670Y0329999D01*
X0238953Y0330104D01*
X0243237Y0330104D01*
X0247520Y0329999D01*
X0251800Y0329789D01*
X0256072Y0329475D01*
X0260336Y0329056D01*
X0264589Y0328533D01*
X0268827Y0327907D01*
X0273049Y0327176D01*
X0277251Y0326343D01*
X0281432Y0325407D01*
X0285589Y0324369D01*
X0289719Y0323229D01*
X0293820Y0321989D01*
X0297889Y0320649D01*
X0301924Y0319209D01*
X0305923Y0317672D01*
X0309884Y0316036D01*
X0313802Y0314305D01*
X0317678Y0312478D01*
X0321507Y0310557D01*
X0325289Y0308543D01*
X0329020Y0306436D01*
X0332698Y0304239D01*
X0336321Y0301953D01*
X0339888Y0299579D01*
X0343395Y0297118D01*
X0346841Y0294572D01*
X0350223Y0291943D01*
X0353541Y0289231D01*
X0356790Y0286440D01*
X0359971Y0283569D01*
X0363080Y0280622D01*
X0366117Y0277599D01*
X0369078Y0274503D01*
X0371963Y0271335D01*
X0374770Y0268098D01*
X0377496Y0264793D01*
X0380141Y0261422D01*
X0382702Y0257988D01*
X0385179Y0254492D01*
X0387569Y0250936D01*
X0389872Y0247323D01*
X0392085Y0243655D01*
X0394208Y0239933D01*
X0396239Y0236161D01*
X0398178Y0232340D01*
X0400022Y0228473D01*
X0401771Y0224562D01*
X0403424Y0220610D01*
X0404980Y0216618D01*
X0406438Y0212589D01*
X0407796Y0208526D01*
X0409055Y0204430D01*
X0410213Y0200305D01*
X0411270Y0196153D01*
X0412225Y0191977D01*
X0413077Y0187778D01*
X0413827Y0183560D01*
X0414473Y0179324D01*
X0415015Y0175074D01*
X0415453Y0170812D01*
X0415786Y0166541D01*
X0416015Y0162263D01*
X0416139Y0157980D01*
X0416159Y0153696D01*
X0416073Y0149412D01*
X0415883Y0145132D01*
X0415588Y0140858D01*
X0415188Y0136592D01*
X0414685Y0132338D01*
X0414077Y0128096D01*
X0413366Y0123872D01*
X0412551Y0119665D01*
X0411634Y0115480D01*
X0410615Y0111319D01*
X0409494Y0107184D01*
X0408272Y0103077D01*
X0406950Y0099002D01*
X0405529Y0094960D01*
X0404009Y0090954D01*
X0402392Y0086987D01*
X0400678Y0083060D01*
X0398869Y0079176D01*
X0396965Y0075338D01*
X0394968Y0071548D01*
X0392879Y0067808D01*
X0390698Y0064119D01*
X0388428Y0060486D01*
X0386070Y0056909D01*
X0383625Y0053390D01*
X0381095Y0049933D01*
X0234796Y0229933D02*
X0234798Y0230091D01*
X0234804Y0230249D01*
X0234814Y0230407D01*
X0234828Y0230565D01*
X0234846Y0230722D01*
X0234867Y0230879D01*
X0234893Y0231035D01*
X0234923Y0231191D01*
X0234956Y0231346D01*
X0234994Y0231499D01*
X0235035Y0231652D01*
X0235080Y0231804D01*
X0235129Y0231955D01*
X0235182Y0232104D01*
X0235238Y0232252D01*
X0235298Y0232398D01*
X0235362Y0232543D01*
X0235430Y0232686D01*
X0235501Y0232828D01*
X0235575Y0232968D01*
X0235653Y0233105D01*
X0235735Y0233241D01*
X0235819Y0233375D01*
X0235908Y0233506D01*
X0235999Y0233635D01*
X0236094Y0233762D01*
X0236191Y0233887D01*
X0236292Y0234009D01*
X0236396Y0234128D01*
X0236503Y0234245D01*
X0236613Y0234359D01*
X0236726Y0234470D01*
X0236841Y0234579D01*
X0236959Y0234684D01*
X0237080Y0234786D01*
X0237203Y0234886D01*
X0237329Y0234982D01*
X0237457Y0235075D01*
X0237587Y0235165D01*
X0237720Y0235251D01*
X0237855Y0235335D01*
X0237991Y0235414D01*
X0238130Y0235491D01*
X0238271Y0235563D01*
X0238413Y0235633D01*
X0238557Y0235698D01*
X0238703Y0235760D01*
X0238850Y0235818D01*
X0238999Y0235873D01*
X0239149Y0235924D01*
X0239300Y0235971D01*
X0239452Y0236014D01*
X0239605Y0236053D01*
X0239760Y0236089D01*
X0239915Y0236120D01*
X0240071Y0236148D01*
X0240227Y0236172D01*
X0240384Y0236192D01*
X0240542Y0236208D01*
X0240699Y0236220D01*
X0240858Y0236228D01*
X0241016Y0236232D01*
X0241174Y0236232D01*
X0241332Y0236228D01*
X0241491Y0236220D01*
X0241648Y0236208D01*
X0241806Y0236192D01*
X0241963Y0236172D01*
X0242119Y0236148D01*
X0242275Y0236120D01*
X0242430Y0236089D01*
X0242585Y0236053D01*
X0242738Y0236014D01*
X0242890Y0235971D01*
X0243041Y0235924D01*
X0243191Y0235873D01*
X0243340Y0235818D01*
X0243487Y0235760D01*
X0243633Y0235698D01*
X0243777Y0235633D01*
X0243919Y0235563D01*
X0244060Y0235491D01*
X0244199Y0235414D01*
X0244335Y0235335D01*
X0244470Y0235251D01*
X0244603Y0235165D01*
X0244733Y0235075D01*
X0244861Y0234982D01*
X0244987Y0234886D01*
X0245110Y0234786D01*
X0245231Y0234684D01*
X0245349Y0234579D01*
X0245464Y0234470D01*
X0245577Y0234359D01*
X0245687Y0234245D01*
X0245794Y0234128D01*
X0245898Y0234009D01*
X0245999Y0233887D01*
X0246096Y0233762D01*
X0246191Y0233635D01*
X0246282Y0233506D01*
X0246371Y0233375D01*
X0246455Y0233241D01*
X0246537Y0233105D01*
X0246615Y0232968D01*
X0246689Y0232828D01*
X0246760Y0232686D01*
X0246828Y0232543D01*
X0246892Y0232398D01*
X0246952Y0232252D01*
X0247008Y0232104D01*
X0247061Y0231955D01*
X0247110Y0231804D01*
X0247155Y0231652D01*
X0247196Y0231499D01*
X0247234Y0231346D01*
X0247267Y0231191D01*
X0247297Y0231035D01*
X0247323Y0230879D01*
X0247344Y0230722D01*
X0247362Y0230565D01*
X0247376Y0230407D01*
X0247386Y0230249D01*
X0247392Y0230091D01*
X0247394Y0229933D01*
X0247392Y0229775D01*
X0247386Y0229617D01*
X0247376Y0229459D01*
X0247362Y0229301D01*
X0247344Y0229144D01*
X0247323Y0228987D01*
X0247297Y0228831D01*
X0247267Y0228675D01*
X0247234Y0228520D01*
X0247196Y0228367D01*
X0247155Y0228214D01*
X0247110Y0228062D01*
X0247061Y0227911D01*
X0247008Y0227762D01*
X0246952Y0227614D01*
X0246892Y0227468D01*
X0246828Y0227323D01*
X0246760Y0227180D01*
X0246689Y0227038D01*
X0246615Y0226898D01*
X0246537Y0226761D01*
X0246455Y0226625D01*
X0246371Y0226491D01*
X0246282Y0226360D01*
X0246191Y0226231D01*
X0246096Y0226104D01*
X0245999Y0225979D01*
X0245898Y0225857D01*
X0245794Y0225738D01*
X0245687Y0225621D01*
X0245577Y0225507D01*
X0245464Y0225396D01*
X0245349Y0225287D01*
X0245231Y0225182D01*
X0245110Y0225080D01*
X0244987Y0224980D01*
X0244861Y0224884D01*
X0244733Y0224791D01*
X0244603Y0224701D01*
X0244470Y0224615D01*
X0244335Y0224531D01*
X0244199Y0224452D01*
X0244060Y0224375D01*
X0243919Y0224303D01*
X0243777Y0224233D01*
X0243633Y0224168D01*
X0243487Y0224106D01*
X0243340Y0224048D01*
X0243191Y0223993D01*
X0243041Y0223942D01*
X0242890Y0223895D01*
X0242738Y0223852D01*
X0242585Y0223813D01*
X0242430Y0223777D01*
X0242275Y0223746D01*
X0242119Y0223718D01*
X0241963Y0223694D01*
X0241806Y0223674D01*
X0241648Y0223658D01*
X0241491Y0223646D01*
X0241332Y0223638D01*
X0241174Y0223634D01*
X0241016Y0223634D01*
X0240858Y0223638D01*
X0240699Y0223646D01*
X0240542Y0223658D01*
X0240384Y0223674D01*
X0240227Y0223694D01*
X0240071Y0223718D01*
X0239915Y0223746D01*
X0239760Y0223777D01*
X0239605Y0223813D01*
X0239452Y0223852D01*
X0239300Y0223895D01*
X0239149Y0223942D01*
X0238999Y0223993D01*
X0238850Y0224048D01*
X0238703Y0224106D01*
X0238557Y0224168D01*
X0238413Y0224233D01*
X0238271Y0224303D01*
X0238130Y0224375D01*
X0237991Y0224452D01*
X0237855Y0224531D01*
X0237720Y0224615D01*
X0237587Y0224701D01*
X0237457Y0224791D01*
X0237329Y0224884D01*
X0237203Y0224980D01*
X0237080Y0225080D01*
X0236959Y0225182D01*
X0236841Y0225287D01*
X0236726Y0225396D01*
X0236613Y0225507D01*
X0236503Y0225621D01*
X0236396Y0225738D01*
X0236292Y0225857D01*
X0236191Y0225979D01*
X0236094Y0226104D01*
X0235999Y0226231D01*
X0235908Y0226360D01*
X0235819Y0226491D01*
X0235735Y0226625D01*
X0235653Y0226761D01*
X0235575Y0226898D01*
X0235501Y0227038D01*
X0235430Y0227180D01*
X0235362Y0227323D01*
X0235298Y0227468D01*
X0235238Y0227614D01*
X0235182Y0227762D01*
X0235129Y0227911D01*
X0235080Y0228062D01*
X0235035Y0228214D01*
X0234994Y0228367D01*
X0234956Y0228520D01*
X0234923Y0228675D01*
X0234893Y0228831D01*
X0234867Y0228987D01*
X0234846Y0229144D01*
X0234828Y0229301D01*
X0234814Y0229459D01*
X0234804Y0229617D01*
X0234798Y0229775D01*
X0234796Y0229933D01*
D11*
X0223595Y0229933D02*
X0223600Y0230362D01*
X0223616Y0230792D01*
X0223642Y0231220D01*
X0223679Y0231648D01*
X0223727Y0232075D01*
X0223784Y0232501D01*
X0223853Y0232925D01*
X0223931Y0233347D01*
X0224020Y0233767D01*
X0224119Y0234185D01*
X0224229Y0234600D01*
X0224349Y0235013D01*
X0224478Y0235422D01*
X0224618Y0235829D01*
X0224768Y0236231D01*
X0224927Y0236630D01*
X0225096Y0237025D01*
X0225275Y0237415D01*
X0225464Y0237801D01*
X0225661Y0238182D01*
X0225868Y0238559D01*
X0226085Y0238930D01*
X0226310Y0239295D01*
X0226544Y0239655D01*
X0226787Y0240010D01*
X0227039Y0240358D01*
X0227299Y0240700D01*
X0227567Y0241035D01*
X0227844Y0241364D01*
X0228128Y0241685D01*
X0228421Y0242000D01*
X0228721Y0242307D01*
X0229028Y0242607D01*
X0229343Y0242900D01*
X0229664Y0243184D01*
X0229993Y0243461D01*
X0230328Y0243729D01*
X0230670Y0243989D01*
X0231018Y0244241D01*
X0231373Y0244484D01*
X0231733Y0244718D01*
X0232098Y0244943D01*
X0232469Y0245160D01*
X0232846Y0245367D01*
X0233227Y0245564D01*
X0233613Y0245753D01*
X0234003Y0245932D01*
X0234398Y0246101D01*
X0234797Y0246260D01*
X0235199Y0246410D01*
X0235606Y0246550D01*
X0236015Y0246679D01*
X0236428Y0246799D01*
X0236843Y0246909D01*
X0237261Y0247008D01*
X0237681Y0247097D01*
X0238103Y0247175D01*
X0238527Y0247244D01*
X0238953Y0247301D01*
X0239380Y0247349D01*
X0239808Y0247386D01*
X0240236Y0247412D01*
X0240666Y0247428D01*
X0241095Y0247433D01*
X0241524Y0247428D01*
X0241954Y0247412D01*
X0242382Y0247386D01*
X0242810Y0247349D01*
X0243237Y0247301D01*
X0243663Y0247244D01*
X0244087Y0247175D01*
X0244509Y0247097D01*
X0244929Y0247008D01*
X0245347Y0246909D01*
X0245762Y0246799D01*
X0246175Y0246679D01*
X0246584Y0246550D01*
X0246991Y0246410D01*
X0247393Y0246260D01*
X0247792Y0246101D01*
X0248187Y0245932D01*
X0248577Y0245753D01*
X0248963Y0245564D01*
X0249344Y0245367D01*
X0249721Y0245160D01*
X0250092Y0244943D01*
X0250457Y0244718D01*
X0250817Y0244484D01*
X0251172Y0244241D01*
X0251520Y0243989D01*
X0251862Y0243729D01*
X0252197Y0243461D01*
X0252526Y0243184D01*
X0252847Y0242900D01*
X0253162Y0242607D01*
X0253469Y0242307D01*
X0253769Y0242000D01*
X0254062Y0241685D01*
X0254346Y0241364D01*
X0254623Y0241035D01*
X0254891Y0240700D01*
X0255151Y0240358D01*
X0255403Y0240010D01*
X0255646Y0239655D01*
X0255880Y0239295D01*
X0256105Y0238930D01*
X0256322Y0238559D01*
X0256529Y0238182D01*
X0256726Y0237801D01*
X0256915Y0237415D01*
X0257094Y0237025D01*
X0257263Y0236630D01*
X0257422Y0236231D01*
X0257572Y0235829D01*
X0257712Y0235422D01*
X0257841Y0235013D01*
X0257961Y0234600D01*
X0258071Y0234185D01*
X0258170Y0233767D01*
X0258259Y0233347D01*
X0258337Y0232925D01*
X0258406Y0232501D01*
X0258463Y0232075D01*
X0258511Y0231648D01*
X0258548Y0231220D01*
X0258574Y0230792D01*
X0258590Y0230362D01*
X0258595Y0229933D01*
X0258590Y0229504D01*
X0258574Y0229074D01*
X0258548Y0228646D01*
X0258511Y0228218D01*
X0258463Y0227791D01*
X0258406Y0227365D01*
X0258337Y0226941D01*
X0258259Y0226519D01*
X0258170Y0226099D01*
X0258071Y0225681D01*
X0257961Y0225266D01*
X0257841Y0224853D01*
X0257712Y0224444D01*
X0257572Y0224037D01*
X0257422Y0223635D01*
X0257263Y0223236D01*
X0257094Y0222841D01*
X0256915Y0222451D01*
X0256726Y0222065D01*
X0256529Y0221684D01*
X0256322Y0221307D01*
X0256105Y0220936D01*
X0255880Y0220571D01*
X0255646Y0220211D01*
X0255403Y0219856D01*
X0255151Y0219508D01*
X0254891Y0219166D01*
X0254623Y0218831D01*
X0254346Y0218502D01*
X0254062Y0218181D01*
X0253769Y0217866D01*
X0253469Y0217559D01*
X0253162Y0217259D01*
X0252847Y0216966D01*
X0252526Y0216682D01*
X0252197Y0216405D01*
X0251862Y0216137D01*
X0251520Y0215877D01*
X0251172Y0215625D01*
X0250817Y0215382D01*
X0250457Y0215148D01*
X0250092Y0214923D01*
X0249721Y0214706D01*
X0249344Y0214499D01*
X0248963Y0214302D01*
X0248577Y0214113D01*
X0248187Y0213934D01*
X0247792Y0213765D01*
X0247393Y0213606D01*
X0246991Y0213456D01*
X0246584Y0213316D01*
X0246175Y0213187D01*
X0245762Y0213067D01*
X0245347Y0212957D01*
X0244929Y0212858D01*
X0244509Y0212769D01*
X0244087Y0212691D01*
X0243663Y0212622D01*
X0243237Y0212565D01*
X0242810Y0212517D01*
X0242382Y0212480D01*
X0241954Y0212454D01*
X0241524Y0212438D01*
X0241095Y0212433D01*
X0240666Y0212438D01*
X0240236Y0212454D01*
X0239808Y0212480D01*
X0239380Y0212517D01*
X0238953Y0212565D01*
X0238527Y0212622D01*
X0238103Y0212691D01*
X0237681Y0212769D01*
X0237261Y0212858D01*
X0236843Y0212957D01*
X0236428Y0213067D01*
X0236015Y0213187D01*
X0235606Y0213316D01*
X0235199Y0213456D01*
X0234797Y0213606D01*
X0234398Y0213765D01*
X0234003Y0213934D01*
X0233613Y0214113D01*
X0233227Y0214302D01*
X0232846Y0214499D01*
X0232469Y0214706D01*
X0232098Y0214923D01*
X0231733Y0215148D01*
X0231373Y0215382D01*
X0231018Y0215625D01*
X0230670Y0215877D01*
X0230328Y0216137D01*
X0229993Y0216405D01*
X0229664Y0216682D01*
X0229343Y0216966D01*
X0229028Y0217259D01*
X0228721Y0217559D01*
X0228421Y0217866D01*
X0228128Y0218181D01*
X0227844Y0218502D01*
X0227567Y0218831D01*
X0227299Y0219166D01*
X0227039Y0219508D01*
X0226787Y0219856D01*
X0226544Y0220211D01*
X0226310Y0220571D01*
X0226085Y0220936D01*
X0225868Y0221307D01*
X0225661Y0221684D01*
X0225464Y0222065D01*
X0225275Y0222451D01*
X0225096Y0222841D01*
X0224927Y0223236D01*
X0224768Y0223635D01*
X0224618Y0224037D01*
X0224478Y0224444D01*
X0224349Y0224853D01*
X0224229Y0225266D01*
X0224119Y0225681D01*
X0224020Y0226099D01*
X0223931Y0226519D01*
X0223853Y0226941D01*
X0223784Y0227365D01*
X0223727Y0227791D01*
X0223679Y0228218D01*
X0223642Y0228646D01*
X0223616Y0229074D01*
X0223600Y0229504D01*
X0223595Y0229933D01*
X0216095Y0154933D02*
X0216103Y0155547D01*
X0216125Y0156160D01*
X0216163Y0156772D01*
X0216215Y0157383D01*
X0216283Y0157993D01*
X0216366Y0158601D01*
X0216463Y0159207D01*
X0216575Y0159810D01*
X0216702Y0160411D01*
X0216844Y0161008D01*
X0217001Y0161601D01*
X0217171Y0162190D01*
X0217357Y0162775D01*
X0217556Y0163355D01*
X0217770Y0163930D01*
X0217998Y0164500D01*
X0218240Y0165064D01*
X0218495Y0165622D01*
X0218764Y0166173D01*
X0219047Y0166718D01*
X0219343Y0167255D01*
X0219652Y0167786D01*
X0219974Y0168308D01*
X0220308Y0168822D01*
X0220655Y0169328D01*
X0221015Y0169825D01*
X0221386Y0170314D01*
X0221770Y0170793D01*
X0222165Y0171262D01*
X0222571Y0171722D01*
X0222989Y0172172D01*
X0223417Y0172611D01*
X0223856Y0173039D01*
X0224306Y0173457D01*
X0224766Y0173863D01*
X0225235Y0174258D01*
X0225714Y0174642D01*
X0226203Y0175013D01*
X0226700Y0175373D01*
X0227206Y0175720D01*
X0227720Y0176054D01*
X0228242Y0176376D01*
X0228773Y0176685D01*
X0229310Y0176981D01*
X0229855Y0177264D01*
X0230406Y0177533D01*
X0230964Y0177788D01*
X0231528Y0178030D01*
X0232098Y0178258D01*
X0232673Y0178472D01*
X0233253Y0178671D01*
X0233838Y0178857D01*
X0234427Y0179027D01*
X0235020Y0179184D01*
X0235617Y0179326D01*
X0236218Y0179453D01*
X0236821Y0179565D01*
X0237427Y0179662D01*
X0238035Y0179745D01*
X0238645Y0179813D01*
X0239256Y0179865D01*
X0239868Y0179903D01*
X0240481Y0179925D01*
X0241095Y0179933D01*
X0241709Y0179925D01*
X0242322Y0179903D01*
X0242934Y0179865D01*
X0243545Y0179813D01*
X0244155Y0179745D01*
X0244763Y0179662D01*
X0245369Y0179565D01*
X0245972Y0179453D01*
X0246573Y0179326D01*
X0247170Y0179184D01*
X0247763Y0179027D01*
X0248352Y0178857D01*
X0248937Y0178671D01*
X0249517Y0178472D01*
X0250092Y0178258D01*
X0250662Y0178030D01*
X0251226Y0177788D01*
X0251784Y0177533D01*
X0252335Y0177264D01*
X0252880Y0176981D01*
X0253417Y0176685D01*
X0253948Y0176376D01*
X0254470Y0176054D01*
X0254984Y0175720D01*
X0255490Y0175373D01*
X0255987Y0175013D01*
X0256476Y0174642D01*
X0256955Y0174258D01*
X0257424Y0173863D01*
X0257884Y0173457D01*
X0258334Y0173039D01*
X0258773Y0172611D01*
X0259201Y0172172D01*
X0259619Y0171722D01*
X0260025Y0171262D01*
X0260420Y0170793D01*
X0260804Y0170314D01*
X0261175Y0169825D01*
X0261535Y0169328D01*
X0261882Y0168822D01*
X0262216Y0168308D01*
X0262538Y0167786D01*
X0262847Y0167255D01*
X0263143Y0166718D01*
X0263426Y0166173D01*
X0263695Y0165622D01*
X0263950Y0165064D01*
X0264192Y0164500D01*
X0264420Y0163930D01*
X0264634Y0163355D01*
X0264833Y0162775D01*
X0265019Y0162190D01*
X0265189Y0161601D01*
X0265346Y0161008D01*
X0265488Y0160411D01*
X0265615Y0159810D01*
X0265727Y0159207D01*
X0265824Y0158601D01*
X0265907Y0157993D01*
X0265975Y0157383D01*
X0266027Y0156772D01*
X0266065Y0156160D01*
X0266087Y0155547D01*
X0266095Y0154933D01*
X0266087Y0154319D01*
X0266065Y0153706D01*
X0266027Y0153094D01*
X0265975Y0152483D01*
X0265907Y0151873D01*
X0265824Y0151265D01*
X0265727Y0150659D01*
X0265615Y0150056D01*
X0265488Y0149455D01*
X0265346Y0148858D01*
X0265189Y0148265D01*
X0265019Y0147676D01*
X0264833Y0147091D01*
X0264634Y0146511D01*
X0264420Y0145936D01*
X0264192Y0145366D01*
X0263950Y0144802D01*
X0263695Y0144244D01*
X0263426Y0143693D01*
X0263143Y0143148D01*
X0262847Y0142611D01*
X0262538Y0142080D01*
X0262216Y0141558D01*
X0261882Y0141044D01*
X0261535Y0140538D01*
X0261175Y0140041D01*
X0260804Y0139552D01*
X0260420Y0139073D01*
X0260025Y0138604D01*
X0259619Y0138144D01*
X0259201Y0137694D01*
X0258773Y0137255D01*
X0258334Y0136827D01*
X0257884Y0136409D01*
X0257424Y0136003D01*
X0256955Y0135608D01*
X0256476Y0135224D01*
X0255987Y0134853D01*
X0255490Y0134493D01*
X0254984Y0134146D01*
X0254470Y0133812D01*
X0253948Y0133490D01*
X0253417Y0133181D01*
X0252880Y0132885D01*
X0252335Y0132602D01*
X0251784Y0132333D01*
X0251226Y0132078D01*
X0250662Y0131836D01*
X0250092Y0131608D01*
X0249517Y0131394D01*
X0248937Y0131195D01*
X0248352Y0131009D01*
X0247763Y0130839D01*
X0247170Y0130682D01*
X0246573Y0130540D01*
X0245972Y0130413D01*
X0245369Y0130301D01*
X0244763Y0130204D01*
X0244155Y0130121D01*
X0243545Y0130053D01*
X0242934Y0130001D01*
X0242322Y0129963D01*
X0241709Y0129941D01*
X0241095Y0129933D01*
X0240481Y0129941D01*
X0239868Y0129963D01*
X0239256Y0130001D01*
X0238645Y0130053D01*
X0238035Y0130121D01*
X0237427Y0130204D01*
X0236821Y0130301D01*
X0236218Y0130413D01*
X0235617Y0130540D01*
X0235020Y0130682D01*
X0234427Y0130839D01*
X0233838Y0131009D01*
X0233253Y0131195D01*
X0232673Y0131394D01*
X0232098Y0131608D01*
X0231528Y0131836D01*
X0230964Y0132078D01*
X0230406Y0132333D01*
X0229855Y0132602D01*
X0229310Y0132885D01*
X0228773Y0133181D01*
X0228242Y0133490D01*
X0227720Y0133812D01*
X0227206Y0134146D01*
X0226700Y0134493D01*
X0226203Y0134853D01*
X0225714Y0135224D01*
X0225235Y0135608D01*
X0224766Y0136003D01*
X0224306Y0136409D01*
X0223856Y0136827D01*
X0223417Y0137255D01*
X0222989Y0137694D01*
X0222571Y0138144D01*
X0222165Y0138604D01*
X0221770Y0139073D01*
X0221386Y0139552D01*
X0221015Y0140041D01*
X0220655Y0140538D01*
X0220308Y0141044D01*
X0219974Y0141558D01*
X0219652Y0142080D01*
X0219343Y0142611D01*
X0219047Y0143148D01*
X0218764Y0143693D01*
X0218495Y0144244D01*
X0218240Y0144802D01*
X0217998Y0145366D01*
X0217770Y0145936D01*
X0217556Y0146511D01*
X0217357Y0147091D01*
X0217171Y0147676D01*
X0217001Y0148265D01*
X0216844Y0148858D01*
X0216702Y0149455D01*
X0216575Y0150056D01*
X0216463Y0150659D01*
X0216366Y0151265D01*
X0216283Y0151873D01*
X0216215Y0152483D01*
X0216163Y0153094D01*
X0216125Y0153706D01*
X0216103Y0154319D01*
X0216095Y0154933D01*
X0246095Y0129933D02*
X0326095Y0049933D01*
X0366095Y0049933D02*
X0266095Y0149933D01*
X0223595Y0079933D02*
X0223600Y0080362D01*
X0223616Y0080792D01*
X0223642Y0081220D01*
X0223679Y0081648D01*
X0223727Y0082075D01*
X0223784Y0082501D01*
X0223853Y0082925D01*
X0223931Y0083347D01*
X0224020Y0083767D01*
X0224119Y0084185D01*
X0224229Y0084600D01*
X0224349Y0085013D01*
X0224478Y0085422D01*
X0224618Y0085829D01*
X0224768Y0086231D01*
X0224927Y0086630D01*
X0225096Y0087025D01*
X0225275Y0087415D01*
X0225464Y0087801D01*
X0225661Y0088182D01*
X0225868Y0088559D01*
X0226085Y0088930D01*
X0226310Y0089295D01*
X0226544Y0089655D01*
X0226787Y0090010D01*
X0227039Y0090358D01*
X0227299Y0090700D01*
X0227567Y0091035D01*
X0227844Y0091364D01*
X0228128Y0091685D01*
X0228421Y0092000D01*
X0228721Y0092307D01*
X0229028Y0092607D01*
X0229343Y0092900D01*
X0229664Y0093184D01*
X0229993Y0093461D01*
X0230328Y0093729D01*
X0230670Y0093989D01*
X0231018Y0094241D01*
X0231373Y0094484D01*
X0231733Y0094718D01*
X0232098Y0094943D01*
X0232469Y0095160D01*
X0232846Y0095367D01*
X0233227Y0095564D01*
X0233613Y0095753D01*
X0234003Y0095932D01*
X0234398Y0096101D01*
X0234797Y0096260D01*
X0235199Y0096410D01*
X0235606Y0096550D01*
X0236015Y0096679D01*
X0236428Y0096799D01*
X0236843Y0096909D01*
X0237261Y0097008D01*
X0237681Y0097097D01*
X0238103Y0097175D01*
X0238527Y0097244D01*
X0238953Y0097301D01*
X0239380Y0097349D01*
X0239808Y0097386D01*
X0240236Y0097412D01*
X0240666Y0097428D01*
X0241095Y0097433D01*
X0241524Y0097428D01*
X0241954Y0097412D01*
X0242382Y0097386D01*
X0242810Y0097349D01*
X0243237Y0097301D01*
X0243663Y0097244D01*
X0244087Y0097175D01*
X0244509Y0097097D01*
X0244929Y0097008D01*
X0245347Y0096909D01*
X0245762Y0096799D01*
X0246175Y0096679D01*
X0246584Y0096550D01*
X0246991Y0096410D01*
X0247393Y0096260D01*
X0247792Y0096101D01*
X0248187Y0095932D01*
X0248577Y0095753D01*
X0248963Y0095564D01*
X0249344Y0095367D01*
X0249721Y0095160D01*
X0250092Y0094943D01*
X0250457Y0094718D01*
X0250817Y0094484D01*
X0251172Y0094241D01*
X0251520Y0093989D01*
X0251862Y0093729D01*
X0252197Y0093461D01*
X0252526Y0093184D01*
X0252847Y0092900D01*
X0253162Y0092607D01*
X0253469Y0092307D01*
X0253769Y0092000D01*
X0254062Y0091685D01*
X0254346Y0091364D01*
X0254623Y0091035D01*
X0254891Y0090700D01*
X0255151Y0090358D01*
X0255403Y0090010D01*
X0255646Y0089655D01*
X0255880Y0089295D01*
X0256105Y0088930D01*
X0256322Y0088559D01*
X0256529Y0088182D01*
X0256726Y0087801D01*
X0256915Y0087415D01*
X0257094Y0087025D01*
X0257263Y0086630D01*
X0257422Y0086231D01*
X0257572Y0085829D01*
X0257712Y0085422D01*
X0257841Y0085013D01*
X0257961Y0084600D01*
X0258071Y0084185D01*
X0258170Y0083767D01*
X0258259Y0083347D01*
X0258337Y0082925D01*
X0258406Y0082501D01*
X0258463Y0082075D01*
X0258511Y0081648D01*
X0258548Y0081220D01*
X0258574Y0080792D01*
X0258590Y0080362D01*
X0258595Y0079933D01*
X0258590Y0079504D01*
X0258574Y0079074D01*
X0258548Y0078646D01*
X0258511Y0078218D01*
X0258463Y0077791D01*
X0258406Y0077365D01*
X0258337Y0076941D01*
X0258259Y0076519D01*
X0258170Y0076099D01*
X0258071Y0075681D01*
X0257961Y0075266D01*
X0257841Y0074853D01*
X0257712Y0074444D01*
X0257572Y0074037D01*
X0257422Y0073635D01*
X0257263Y0073236D01*
X0257094Y0072841D01*
X0256915Y0072451D01*
X0256726Y0072065D01*
X0256529Y0071684D01*
X0256322Y0071307D01*
X0256105Y0070936D01*
X0255880Y0070571D01*
X0255646Y0070211D01*
X0255403Y0069856D01*
X0255151Y0069508D01*
X0254891Y0069166D01*
X0254623Y0068831D01*
X0254346Y0068502D01*
X0254062Y0068181D01*
X0253769Y0067866D01*
X0253469Y0067559D01*
X0253162Y0067259D01*
X0252847Y0066966D01*
X0252526Y0066682D01*
X0252197Y0066405D01*
X0251862Y0066137D01*
X0251520Y0065877D01*
X0251172Y0065625D01*
X0250817Y0065382D01*
X0250457Y0065148D01*
X0250092Y0064923D01*
X0249721Y0064706D01*
X0249344Y0064499D01*
X0248963Y0064302D01*
X0248577Y0064113D01*
X0248187Y0063934D01*
X0247792Y0063765D01*
X0247393Y0063606D01*
X0246991Y0063456D01*
X0246584Y0063316D01*
X0246175Y0063187D01*
X0245762Y0063067D01*
X0245347Y0062957D01*
X0244929Y0062858D01*
X0244509Y0062769D01*
X0244087Y0062691D01*
X0243663Y0062622D01*
X0243237Y0062565D01*
X0242810Y0062517D01*
X0242382Y0062480D01*
X0241954Y0062454D01*
X0241524Y0062438D01*
X0241095Y0062433D01*
X0240666Y0062438D01*
X0240236Y0062454D01*
X0239808Y0062480D01*
X0239380Y0062517D01*
X0238953Y0062565D01*
X0238527Y0062622D01*
X0238103Y0062691D01*
X0237681Y0062769D01*
X0237261Y0062858D01*
X0236843Y0062957D01*
X0236428Y0063067D01*
X0236015Y0063187D01*
X0235606Y0063316D01*
X0235199Y0063456D01*
X0234797Y0063606D01*
X0234398Y0063765D01*
X0234003Y0063934D01*
X0233613Y0064113D01*
X0233227Y0064302D01*
X0232846Y0064499D01*
X0232469Y0064706D01*
X0232098Y0064923D01*
X0231733Y0065148D01*
X0231373Y0065382D01*
X0231018Y0065625D01*
X0230670Y0065877D01*
X0230328Y0066137D01*
X0229993Y0066405D01*
X0229664Y0066682D01*
X0229343Y0066966D01*
X0229028Y0067259D01*
X0228721Y0067559D01*
X0228421Y0067866D01*
X0228128Y0068181D01*
X0227844Y0068502D01*
X0227567Y0068831D01*
X0227299Y0069166D01*
X0227039Y0069508D01*
X0226787Y0069856D01*
X0226544Y0070211D01*
X0226310Y0070571D01*
X0226085Y0070936D01*
X0225868Y0071307D01*
X0225661Y0071684D01*
X0225464Y0072065D01*
X0225275Y0072451D01*
X0225096Y0072841D01*
X0224927Y0073236D01*
X0224768Y0073635D01*
X0224618Y0074037D01*
X0224478Y0074444D01*
X0224349Y0074853D01*
X0224229Y0075266D01*
X0224119Y0075681D01*
X0224020Y0076099D01*
X0223931Y0076519D01*
X0223853Y0076941D01*
X0223784Y0077365D01*
X0223727Y0077791D01*
X0223679Y0078218D01*
X0223642Y0078646D01*
X0223616Y0079074D01*
X0223600Y0079504D01*
X0223595Y0079933D01*
D12*
X0201725Y0288683D02*
X0201737Y0289649D01*
X0201772Y0290615D01*
X0201832Y0291579D01*
X0201915Y0292542D01*
X0202021Y0293502D01*
X0202151Y0294460D01*
X0202305Y0295414D01*
X0202481Y0296364D01*
X0202682Y0297309D01*
X0202905Y0298249D01*
X0203151Y0299183D01*
X0203420Y0300112D01*
X0203712Y0301033D01*
X0204026Y0301946D01*
X0204363Y0302852D01*
X0204722Y0303749D01*
X0205103Y0304637D01*
X0205505Y0305516D01*
X0205929Y0306384D01*
X0206374Y0307242D01*
X0206840Y0308088D01*
X0207326Y0308923D01*
X0207833Y0309746D01*
X0208360Y0310556D01*
X0208907Y0311353D01*
X0209473Y0312136D01*
X0210058Y0312905D01*
X0210662Y0313659D01*
X0211284Y0314398D01*
X0211924Y0315122D01*
X0212581Y0315830D01*
X0213256Y0316522D01*
X0213948Y0317197D01*
X0214656Y0317854D01*
X0215380Y0318494D01*
X0216119Y0319116D01*
X0216873Y0319720D01*
X0217642Y0320305D01*
X0218425Y0320871D01*
X0219222Y0321418D01*
X0220032Y0321945D01*
X0220855Y0322452D01*
X0221690Y0322938D01*
X0222536Y0323404D01*
X0223394Y0323849D01*
X0224262Y0324273D01*
X0225141Y0324675D01*
X0226029Y0325056D01*
X0226926Y0325415D01*
X0227832Y0325752D01*
X0228745Y0326066D01*
X0229666Y0326358D01*
X0230595Y0326627D01*
X0231529Y0326873D01*
X0232469Y0327096D01*
X0233414Y0327297D01*
X0234364Y0327473D01*
X0235318Y0327627D01*
X0236276Y0327757D01*
X0237236Y0327863D01*
X0238199Y0327946D01*
X0239163Y0328006D01*
X0240129Y0328041D01*
X0241095Y0328053D01*
X0242061Y0328041D01*
X0243027Y0328006D01*
X0243991Y0327946D01*
X0244954Y0327863D01*
X0245914Y0327757D01*
X0246872Y0327627D01*
X0247826Y0327473D01*
X0248776Y0327297D01*
X0249721Y0327096D01*
X0250661Y0326873D01*
X0251595Y0326627D01*
X0252524Y0326358D01*
X0253445Y0326066D01*
X0254358Y0325752D01*
X0255264Y0325415D01*
X0256161Y0325056D01*
X0257049Y0324675D01*
X0257928Y0324273D01*
X0258796Y0323849D01*
X0259654Y0323404D01*
X0260500Y0322938D01*
X0261335Y0322452D01*
X0262158Y0321945D01*
X0262968Y0321418D01*
X0263765Y0320871D01*
X0264548Y0320305D01*
X0265317Y0319720D01*
X0266071Y0319116D01*
X0266810Y0318494D01*
X0267534Y0317854D01*
X0268242Y0317197D01*
X0268934Y0316522D01*
X0269609Y0315830D01*
X0270266Y0315122D01*
X0270906Y0314398D01*
X0271528Y0313659D01*
X0272132Y0312905D01*
X0272717Y0312136D01*
X0273283Y0311353D01*
X0273830Y0310556D01*
X0274357Y0309746D01*
X0274864Y0308923D01*
X0275350Y0308088D01*
X0275816Y0307242D01*
X0276261Y0306384D01*
X0276685Y0305516D01*
X0277087Y0304637D01*
X0277468Y0303749D01*
X0277827Y0302852D01*
X0278164Y0301946D01*
X0278478Y0301033D01*
X0278770Y0300112D01*
X0279039Y0299183D01*
X0279285Y0298249D01*
X0279508Y0297309D01*
X0279709Y0296364D01*
X0279885Y0295414D01*
X0280039Y0294460D01*
X0280169Y0293502D01*
X0280275Y0292542D01*
X0280358Y0291579D01*
X0280418Y0290615D01*
X0280453Y0289649D01*
X0280465Y0288683D01*
X0280453Y0287717D01*
X0280418Y0286751D01*
X0280358Y0285787D01*
X0280275Y0284824D01*
X0280169Y0283864D01*
X0280039Y0282906D01*
X0279885Y0281952D01*
X0279709Y0281002D01*
X0279508Y0280057D01*
X0279285Y0279117D01*
X0279039Y0278183D01*
X0278770Y0277254D01*
X0278478Y0276333D01*
X0278164Y0275420D01*
X0277827Y0274514D01*
X0277468Y0273617D01*
X0277087Y0272729D01*
X0276685Y0271850D01*
X0276261Y0270982D01*
X0275816Y0270124D01*
X0275350Y0269278D01*
X0274864Y0268443D01*
X0274357Y0267620D01*
X0273830Y0266810D01*
X0273283Y0266013D01*
X0272717Y0265230D01*
X0272132Y0264461D01*
X0271528Y0263707D01*
X0270906Y0262968D01*
X0270266Y0262244D01*
X0269609Y0261536D01*
X0268934Y0260844D01*
X0268242Y0260169D01*
X0267534Y0259512D01*
X0266810Y0258872D01*
X0266071Y0258250D01*
X0265317Y0257646D01*
X0264548Y0257061D01*
X0263765Y0256495D01*
X0262968Y0255948D01*
X0262158Y0255421D01*
X0261335Y0254914D01*
X0260500Y0254428D01*
X0259654Y0253962D01*
X0258796Y0253517D01*
X0257928Y0253093D01*
X0257049Y0252691D01*
X0256161Y0252310D01*
X0255264Y0251951D01*
X0254358Y0251614D01*
X0253445Y0251300D01*
X0252524Y0251008D01*
X0251595Y0250739D01*
X0250661Y0250493D01*
X0249721Y0250270D01*
X0248776Y0250069D01*
X0247826Y0249893D01*
X0246872Y0249739D01*
X0245914Y0249609D01*
X0244954Y0249503D01*
X0243991Y0249420D01*
X0243027Y0249360D01*
X0242061Y0249325D01*
X0241095Y0249313D01*
X0240129Y0249325D01*
X0239163Y0249360D01*
X0238199Y0249420D01*
X0237236Y0249503D01*
X0236276Y0249609D01*
X0235318Y0249739D01*
X0234364Y0249893D01*
X0233414Y0250069D01*
X0232469Y0250270D01*
X0231529Y0250493D01*
X0230595Y0250739D01*
X0229666Y0251008D01*
X0228745Y0251300D01*
X0227832Y0251614D01*
X0226926Y0251951D01*
X0226029Y0252310D01*
X0225141Y0252691D01*
X0224262Y0253093D01*
X0223394Y0253517D01*
X0222536Y0253962D01*
X0221690Y0254428D01*
X0220855Y0254914D01*
X0220032Y0255421D01*
X0219222Y0255948D01*
X0218425Y0256495D01*
X0217642Y0257061D01*
X0216873Y0257646D01*
X0216119Y0258250D01*
X0215380Y0258872D01*
X0214656Y0259512D01*
X0213948Y0260169D01*
X0213256Y0260844D01*
X0212581Y0261536D01*
X0211924Y0262244D01*
X0211284Y0262968D01*
X0210662Y0263707D01*
X0210058Y0264461D01*
X0209473Y0265230D01*
X0208907Y0266013D01*
X0208360Y0266810D01*
X0207833Y0267620D01*
X0207326Y0268443D01*
X0206840Y0269278D01*
X0206374Y0270124D01*
X0205929Y0270982D01*
X0205505Y0271850D01*
X0205103Y0272729D01*
X0204722Y0273617D01*
X0204363Y0274514D01*
X0204026Y0275420D01*
X0203712Y0276333D01*
X0203420Y0277254D01*
X0203151Y0278183D01*
X0202905Y0279117D01*
X0202682Y0280057D01*
X0202481Y0281002D01*
X0202305Y0281952D01*
X0202151Y0282906D01*
X0202021Y0283864D01*
X0201915Y0284824D01*
X0201832Y0285787D01*
X0201772Y0286751D01*
X0201737Y0287717D01*
X0201725Y0288683D01*
D13*
X0269395Y0183233D02*
X0212795Y0126633D01*
D14*
X0182930Y0119668D02*
X0182930Y0118600D01*
X0182930Y0119668D02*
X0181863Y0120736D01*
X0176525Y0120736D01*
X0176525Y0117533D01*
X0177592Y0116465D01*
X0179728Y0116465D01*
X0180795Y0117533D01*
X0180795Y0120736D01*
X0179728Y0122911D02*
X0177592Y0122911D01*
X0176525Y0123978D01*
X0176525Y0126114D01*
X0177592Y0127181D01*
X0178660Y0127181D01*
X0178660Y0122911D01*
X0179728Y0122911D02*
X0180795Y0123978D01*
X0180795Y0126114D01*
X0179728Y0129356D02*
X0180795Y0130424D01*
X0180795Y0132559D01*
X0179728Y0133627D01*
X0177592Y0133627D01*
X0176525Y0132559D01*
X0176525Y0130424D01*
X0177592Y0129356D01*
X0179728Y0129356D01*
X0179728Y0135802D02*
X0179728Y0136869D01*
X0180795Y0136869D01*
X0180795Y0135802D01*
X0179728Y0135802D01*
X0179728Y0139025D02*
X0180795Y0140092D01*
X0180795Y0143295D01*
X0176525Y0143295D01*
X0176525Y0145470D02*
X0176525Y0146538D01*
X0180795Y0146538D01*
X0180795Y0147605D02*
X0180795Y0145470D01*
X0179728Y0149767D02*
X0180795Y0150835D01*
X0180795Y0152970D01*
X0179728Y0154037D01*
X0177592Y0154037D01*
X0176525Y0152970D01*
X0176525Y0150835D01*
X0177592Y0149767D01*
X0179728Y0149767D01*
X0174390Y0146538D02*
X0173322Y0146538D01*
X0176525Y0139025D02*
X0179728Y0139025D01*
X0179728Y0156213D02*
X0179728Y0157280D01*
X0180795Y0157280D01*
X0180795Y0156213D01*
X0179728Y0156213D01*
X0180795Y0159435D02*
X0176525Y0159435D01*
X0176525Y0162638D01*
X0177592Y0163706D01*
X0180795Y0163706D01*
X0179728Y0165881D02*
X0180795Y0166948D01*
X0180795Y0169084D01*
X0179728Y0170151D01*
X0177592Y0170151D01*
X0176525Y0169084D01*
X0176525Y0166948D01*
X0177592Y0165881D01*
X0179728Y0165881D01*
X0152795Y0139005D02*
X0151728Y0140072D01*
X0147457Y0140072D01*
X0151728Y0135802D01*
X0152795Y0136869D01*
X0152795Y0139005D01*
X0151728Y0135802D02*
X0147457Y0135802D01*
X0146390Y0136869D01*
X0146390Y0139005D01*
X0147457Y0140072D01*
X0151728Y0133647D02*
X0152795Y0133647D01*
X0152795Y0132579D01*
X0151728Y0132579D01*
X0151728Y0133647D01*
X0152795Y0130404D02*
X0152795Y0126134D01*
X0152795Y0128269D02*
X0146390Y0128269D01*
X0148525Y0126134D01*
X0150660Y0123958D02*
X0152795Y0121823D01*
X0150660Y0119688D01*
X0146390Y0119688D01*
X0146390Y0123958D02*
X0150660Y0123958D01*
X0149592Y0111067D02*
X0149592Y0106797D01*
X0148525Y0106797D02*
X0146390Y0108932D01*
X0148525Y0111067D01*
X0152795Y0111067D01*
X0152795Y0106797D02*
X0148525Y0106797D01*
X0148525Y0098176D02*
X0148525Y0094974D01*
X0149592Y0093906D01*
X0150660Y0094974D01*
X0150660Y0097109D01*
X0151728Y0098176D01*
X0152795Y0097109D01*
X0152795Y0093906D01*
X0152795Y0091731D02*
X0148525Y0091731D01*
X0152795Y0091731D02*
X0152795Y0088528D01*
X0151728Y0087461D01*
X0148525Y0087461D01*
X0149592Y0085285D02*
X0151728Y0085285D01*
X0152795Y0084218D01*
X0152795Y0081015D01*
X0154930Y0081015D02*
X0148525Y0081015D01*
X0148525Y0084218D01*
X0149592Y0085285D01*
X0149592Y0078840D02*
X0148525Y0077772D01*
X0148525Y0075637D01*
X0149592Y0074570D01*
X0151728Y0074570D01*
X0152795Y0075637D01*
X0152795Y0077772D01*
X0151728Y0078840D01*
X0149592Y0078840D01*
X0148525Y0072394D02*
X0148525Y0069192D01*
X0149592Y0068124D01*
X0151728Y0068124D01*
X0152795Y0069192D01*
X0152795Y0072394D01*
X0153863Y0072394D02*
X0148525Y0072394D01*
X0153863Y0072394D02*
X0154930Y0071327D01*
X0154930Y0070259D01*
X0152795Y0065949D02*
X0149592Y0065949D01*
X0148525Y0064881D01*
X0148525Y0062746D01*
X0150660Y0062746D02*
X0150660Y0065949D01*
X0152795Y0065949D02*
X0152795Y0062746D01*
X0151728Y0061679D01*
X0150660Y0062746D01*
X0152795Y0059503D02*
X0152795Y0055233D01*
X0146390Y0055233D01*
X0163890Y0057368D02*
X0166025Y0055233D01*
X0168160Y0055233D01*
X0170295Y0057368D01*
X0169228Y0059530D02*
X0170295Y0060598D01*
X0170295Y0063800D01*
X0170295Y0065976D02*
X0168160Y0068111D01*
X0166025Y0068111D01*
X0163890Y0065976D01*
X0166025Y0063800D02*
X0166025Y0060598D01*
X0167092Y0059530D01*
X0169228Y0059530D01*
X0173322Y0057368D02*
X0174390Y0057368D01*
X0176525Y0057368D02*
X0181863Y0057368D01*
X0182930Y0056301D01*
X0182930Y0055233D01*
X0179728Y0059530D02*
X0180795Y0060598D01*
X0180795Y0062733D01*
X0179728Y0063800D01*
X0177592Y0063800D01*
X0176525Y0062733D01*
X0176525Y0060598D01*
X0177592Y0059530D01*
X0179728Y0059530D01*
X0180795Y0065976D02*
X0174390Y0065976D01*
X0176525Y0067043D02*
X0176525Y0069178D01*
X0177592Y0070246D01*
X0180795Y0070246D01*
X0180795Y0072421D02*
X0176525Y0072421D01*
X0176525Y0075624D01*
X0177592Y0076691D01*
X0180795Y0076691D01*
X0180795Y0078867D02*
X0180795Y0079934D01*
X0179728Y0079934D01*
X0179728Y0078867D01*
X0180795Y0078867D01*
X0180795Y0082089D02*
X0174390Y0082089D01*
X0176525Y0083157D02*
X0176525Y0085292D01*
X0177592Y0086360D01*
X0180795Y0086360D01*
X0179728Y0088535D02*
X0180795Y0089602D01*
X0180795Y0092805D01*
X0176525Y0092805D01*
X0174390Y0094980D02*
X0174390Y0096048D01*
X0180795Y0096048D01*
X0180795Y0097115D02*
X0180795Y0094980D01*
X0176525Y0099277D02*
X0176525Y0101412D01*
X0175457Y0100345D02*
X0179728Y0100345D01*
X0180795Y0101412D01*
X0180795Y0103574D02*
X0174390Y0103574D01*
X0176525Y0104642D02*
X0176525Y0106777D01*
X0177592Y0107845D01*
X0180795Y0107845D01*
X0179728Y0110020D02*
X0175457Y0110020D01*
X0174390Y0111087D01*
X0174390Y0113223D01*
X0175457Y0114290D01*
X0177592Y0114290D01*
X0178660Y0113223D01*
X0176525Y0113223D01*
X0176525Y0111087D01*
X0178660Y0111087D01*
X0178660Y0113223D01*
X0179728Y0114290D02*
X0180795Y0113223D01*
X0180795Y0111087D01*
X0179728Y0110020D01*
X0176525Y0104642D02*
X0177592Y0103574D01*
X0170295Y0099257D02*
X0170295Y0097122D01*
X0169228Y0096055D01*
X0168160Y0096055D01*
X0167092Y0097122D01*
X0167092Y0099257D01*
X0168160Y0100325D01*
X0169228Y0100325D01*
X0170295Y0099257D01*
X0167092Y0099257D02*
X0166025Y0100325D01*
X0164957Y0100325D01*
X0163890Y0099257D01*
X0163890Y0097122D01*
X0164957Y0096055D01*
X0166025Y0096055D01*
X0167092Y0097122D01*
X0170295Y0093879D02*
X0170295Y0089609D01*
X0170295Y0091744D02*
X0163890Y0091744D01*
X0166025Y0089609D01*
X0164957Y0087434D02*
X0169228Y0083164D01*
X0170295Y0084231D01*
X0170295Y0086366D01*
X0169228Y0087434D01*
X0164957Y0087434D01*
X0163890Y0086366D01*
X0163890Y0084231D01*
X0164957Y0083164D01*
X0169228Y0083164D01*
X0170295Y0080988D02*
X0170295Y0076718D01*
X0166025Y0080988D01*
X0164957Y0080988D01*
X0163890Y0079921D01*
X0163890Y0077786D01*
X0164957Y0076718D01*
X0176525Y0083157D02*
X0177592Y0082089D01*
X0176525Y0088535D02*
X0179728Y0088535D01*
X0176525Y0067043D02*
X0177592Y0065976D01*
X0195095Y0230933D02*
X0205095Y0230933D01*
X0205155Y0230935D01*
X0205216Y0230940D01*
X0205275Y0230949D01*
X0205334Y0230962D01*
X0205393Y0230978D01*
X0205450Y0230998D01*
X0205505Y0231021D01*
X0205560Y0231048D01*
X0205612Y0231077D01*
X0205663Y0231110D01*
X0205712Y0231146D01*
X0205758Y0231184D01*
X0205802Y0231226D01*
X0205844Y0231270D01*
X0205882Y0231316D01*
X0205918Y0231365D01*
X0205951Y0231416D01*
X0205980Y0231468D01*
X0206007Y0231523D01*
X0206030Y0231578D01*
X0206050Y0231635D01*
X0206066Y0231694D01*
X0206079Y0231753D01*
X0206088Y0231812D01*
X0206093Y0231873D01*
X0206095Y0231933D01*
X0206095Y0237933D01*
X0206093Y0237993D01*
X0206088Y0238054D01*
X0206079Y0238113D01*
X0206066Y0238172D01*
X0206050Y0238231D01*
X0206030Y0238288D01*
X0206007Y0238343D01*
X0205980Y0238398D01*
X0205951Y0238450D01*
X0205918Y0238501D01*
X0205882Y0238550D01*
X0205844Y0238596D01*
X0205802Y0238640D01*
X0205758Y0238682D01*
X0205712Y0238720D01*
X0205663Y0238756D01*
X0205612Y0238789D01*
X0205560Y0238818D01*
X0205505Y0238845D01*
X0205450Y0238868D01*
X0205393Y0238888D01*
X0205334Y0238904D01*
X0205275Y0238917D01*
X0205216Y0238926D01*
X0205155Y0238931D01*
X0205095Y0238933D01*
X0195095Y0238933D01*
X0195035Y0238931D01*
X0194974Y0238926D01*
X0194915Y0238917D01*
X0194856Y0238904D01*
X0194797Y0238888D01*
X0194740Y0238868D01*
X0194685Y0238845D01*
X0194630Y0238818D01*
X0194578Y0238789D01*
X0194527Y0238756D01*
X0194478Y0238720D01*
X0194432Y0238682D01*
X0194388Y0238640D01*
X0194346Y0238596D01*
X0194308Y0238550D01*
X0194272Y0238501D01*
X0194239Y0238450D01*
X0194210Y0238398D01*
X0194183Y0238343D01*
X0194160Y0238288D01*
X0194140Y0238231D01*
X0194124Y0238172D01*
X0194111Y0238113D01*
X0194102Y0238054D01*
X0194097Y0237993D01*
X0194095Y0237933D01*
X0194095Y0231933D01*
X0194097Y0231873D01*
X0194102Y0231812D01*
X0194111Y0231753D01*
X0194124Y0231694D01*
X0194140Y0231635D01*
X0194160Y0231578D01*
X0194183Y0231523D01*
X0194210Y0231468D01*
X0194239Y0231416D01*
X0194272Y0231365D01*
X0194308Y0231316D01*
X0194346Y0231270D01*
X0194388Y0231226D01*
X0194432Y0231184D01*
X0194478Y0231146D01*
X0194527Y0231110D01*
X0194578Y0231077D01*
X0194630Y0231048D01*
X0194685Y0231021D01*
X0194740Y0230998D01*
X0194797Y0230978D01*
X0194856Y0230962D01*
X0194915Y0230949D01*
X0194974Y0230940D01*
X0195035Y0230935D01*
X0195095Y0230933D01*
X0283695Y0237433D02*
X0283695Y0243433D01*
X0283697Y0243493D01*
X0283702Y0243554D01*
X0283711Y0243613D01*
X0283724Y0243672D01*
X0283740Y0243731D01*
X0283760Y0243788D01*
X0283783Y0243843D01*
X0283810Y0243898D01*
X0283839Y0243950D01*
X0283872Y0244001D01*
X0283908Y0244050D01*
X0283946Y0244096D01*
X0283988Y0244140D01*
X0284032Y0244182D01*
X0284078Y0244220D01*
X0284127Y0244256D01*
X0284178Y0244289D01*
X0284230Y0244318D01*
X0284285Y0244345D01*
X0284340Y0244368D01*
X0284397Y0244388D01*
X0284456Y0244404D01*
X0284515Y0244417D01*
X0284574Y0244426D01*
X0284635Y0244431D01*
X0284695Y0244433D01*
X0291495Y0244433D01*
X0291555Y0244431D01*
X0291616Y0244426D01*
X0291675Y0244417D01*
X0291734Y0244404D01*
X0291793Y0244388D01*
X0291850Y0244368D01*
X0291905Y0244345D01*
X0291960Y0244318D01*
X0292012Y0244289D01*
X0292063Y0244256D01*
X0292112Y0244220D01*
X0292158Y0244182D01*
X0292202Y0244140D01*
X0292244Y0244096D01*
X0292282Y0244050D01*
X0292318Y0244001D01*
X0292351Y0243950D01*
X0292380Y0243898D01*
X0292407Y0243843D01*
X0292430Y0243788D01*
X0292450Y0243731D01*
X0292466Y0243672D01*
X0292479Y0243613D01*
X0292488Y0243554D01*
X0292493Y0243493D01*
X0292495Y0243433D01*
X0292495Y0237433D01*
X0292493Y0237373D01*
X0292488Y0237312D01*
X0292479Y0237253D01*
X0292466Y0237194D01*
X0292450Y0237135D01*
X0292430Y0237078D01*
X0292407Y0237023D01*
X0292380Y0236968D01*
X0292351Y0236916D01*
X0292318Y0236865D01*
X0292282Y0236816D01*
X0292244Y0236770D01*
X0292202Y0236726D01*
X0292158Y0236684D01*
X0292112Y0236646D01*
X0292063Y0236610D01*
X0292012Y0236577D01*
X0291960Y0236548D01*
X0291905Y0236521D01*
X0291850Y0236498D01*
X0291793Y0236478D01*
X0291734Y0236462D01*
X0291675Y0236449D01*
X0291616Y0236440D01*
X0291555Y0236435D01*
X0291495Y0236433D01*
X0284695Y0236433D01*
X0284635Y0236435D01*
X0284574Y0236440D01*
X0284515Y0236449D01*
X0284456Y0236462D01*
X0284397Y0236478D01*
X0284340Y0236498D01*
X0284285Y0236521D01*
X0284230Y0236548D01*
X0284178Y0236577D01*
X0284127Y0236610D01*
X0284078Y0236646D01*
X0284032Y0236684D01*
X0283988Y0236726D01*
X0283946Y0236770D01*
X0283908Y0236816D01*
X0283872Y0236865D01*
X0283839Y0236916D01*
X0283810Y0236968D01*
X0283783Y0237023D01*
X0283760Y0237078D01*
X0283740Y0237135D01*
X0283724Y0237194D01*
X0283711Y0237253D01*
X0283702Y0237312D01*
X0283697Y0237373D01*
X0283695Y0237433D01*
D15*
X0285664Y0235685D02*
X0286298Y0235685D01*
X0285981Y0235685D02*
X0285981Y0234100D01*
X0285664Y0233783D01*
X0285347Y0233783D01*
X0285030Y0234100D01*
X0287240Y0234417D02*
X0288191Y0234417D01*
X0288508Y0234734D01*
X0288508Y0235368D01*
X0288191Y0235685D01*
X0287240Y0235685D01*
X0287240Y0233783D01*
X0289450Y0233783D02*
X0290718Y0235051D01*
X0290718Y0235368D01*
X0290401Y0235685D01*
X0289767Y0235685D01*
X0289450Y0235368D01*
X0289450Y0233783D02*
X0290718Y0233783D01*
X0274773Y0240709D02*
X0274773Y0241343D01*
X0274456Y0241660D01*
X0273845Y0241473D02*
X0271944Y0241473D01*
X0271944Y0242424D01*
X0272260Y0242741D01*
X0272894Y0242741D01*
X0273211Y0242424D01*
X0273211Y0241473D01*
X0273188Y0241660D02*
X0272871Y0241343D01*
X0272871Y0240709D01*
X0273188Y0240392D01*
X0274456Y0240392D01*
X0274773Y0240709D01*
X0274773Y0242602D02*
X0274773Y0243869D01*
X0274773Y0243236D02*
X0272871Y0243236D01*
X0273505Y0242602D01*
X0273845Y0242741D02*
X0273211Y0242107D01*
X0273528Y0243683D02*
X0273845Y0244000D01*
X0273845Y0244634D01*
X0273528Y0244951D01*
X0273211Y0244951D01*
X0272894Y0244634D01*
X0272894Y0244317D01*
X0272894Y0244634D02*
X0272577Y0244951D01*
X0272260Y0244951D01*
X0271944Y0244634D01*
X0271944Y0244000D01*
X0272260Y0243683D01*
X0273188Y0244812D02*
X0272871Y0245129D01*
X0272871Y0245762D01*
X0273188Y0246079D01*
X0274456Y0244812D01*
X0274773Y0245129D01*
X0274773Y0245762D01*
X0274456Y0246079D01*
X0273188Y0246079D01*
X0273188Y0244812D02*
X0274456Y0244812D01*
X0267580Y0244753D02*
X0267580Y0246020D01*
X0267580Y0245386D02*
X0265678Y0245386D01*
X0266312Y0244753D01*
X0267580Y0243810D02*
X0267580Y0242543D01*
X0267580Y0243177D02*
X0265678Y0243177D01*
X0266312Y0242543D01*
X0265995Y0241601D02*
X0265678Y0241284D01*
X0265678Y0240650D01*
X0265995Y0240333D01*
X0267263Y0240333D01*
X0267580Y0240650D01*
X0267580Y0241284D01*
X0267263Y0241601D01*
X0250347Y0259313D02*
X0250347Y0277030D01*
X0231843Y0277030D01*
X0231843Y0259313D01*
X0250347Y0259313D01*
X0248575Y0260691D02*
X0248577Y0260730D01*
X0248583Y0260769D01*
X0248593Y0260807D01*
X0248606Y0260844D01*
X0248623Y0260879D01*
X0248643Y0260913D01*
X0248667Y0260944D01*
X0248694Y0260973D01*
X0248723Y0260999D01*
X0248755Y0261022D01*
X0248789Y0261042D01*
X0248825Y0261058D01*
X0248862Y0261070D01*
X0248901Y0261079D01*
X0248940Y0261084D01*
X0248979Y0261085D01*
X0249018Y0261082D01*
X0249057Y0261075D01*
X0249094Y0261064D01*
X0249131Y0261050D01*
X0249166Y0261032D01*
X0249199Y0261011D01*
X0249230Y0260986D01*
X0249258Y0260959D01*
X0249283Y0260929D01*
X0249305Y0260896D01*
X0249324Y0260862D01*
X0249339Y0260826D01*
X0249351Y0260788D01*
X0249359Y0260750D01*
X0249363Y0260711D01*
X0249363Y0260671D01*
X0249359Y0260632D01*
X0249351Y0260594D01*
X0249339Y0260556D01*
X0249324Y0260520D01*
X0249305Y0260486D01*
X0249283Y0260453D01*
X0249258Y0260423D01*
X0249230Y0260396D01*
X0249199Y0260371D01*
X0249166Y0260350D01*
X0249131Y0260332D01*
X0249094Y0260318D01*
X0249057Y0260307D01*
X0249018Y0260300D01*
X0248979Y0260297D01*
X0248940Y0260298D01*
X0248901Y0260303D01*
X0248862Y0260312D01*
X0248825Y0260324D01*
X0248789Y0260340D01*
X0248755Y0260360D01*
X0248723Y0260383D01*
X0248694Y0260409D01*
X0248667Y0260438D01*
X0248643Y0260469D01*
X0248623Y0260503D01*
X0248606Y0260538D01*
X0248593Y0260575D01*
X0248583Y0260613D01*
X0248577Y0260652D01*
X0248575Y0260691D01*
X0253349Y0278752D02*
X0253349Y0297256D01*
X0271066Y0297256D01*
X0271066Y0278752D01*
X0253349Y0278752D01*
X0269294Y0295878D02*
X0269296Y0295917D01*
X0269302Y0295956D01*
X0269312Y0295994D01*
X0269325Y0296031D01*
X0269342Y0296066D01*
X0269362Y0296100D01*
X0269386Y0296131D01*
X0269413Y0296160D01*
X0269442Y0296186D01*
X0269474Y0296209D01*
X0269508Y0296229D01*
X0269544Y0296245D01*
X0269581Y0296257D01*
X0269620Y0296266D01*
X0269659Y0296271D01*
X0269698Y0296272D01*
X0269737Y0296269D01*
X0269776Y0296262D01*
X0269813Y0296251D01*
X0269850Y0296237D01*
X0269885Y0296219D01*
X0269918Y0296198D01*
X0269949Y0296173D01*
X0269977Y0296146D01*
X0270002Y0296116D01*
X0270024Y0296083D01*
X0270043Y0296049D01*
X0270058Y0296013D01*
X0270070Y0295975D01*
X0270078Y0295937D01*
X0270082Y0295898D01*
X0270082Y0295858D01*
X0270078Y0295819D01*
X0270070Y0295781D01*
X0270058Y0295743D01*
X0270043Y0295707D01*
X0270024Y0295673D01*
X0270002Y0295640D01*
X0269977Y0295610D01*
X0269949Y0295583D01*
X0269918Y0295558D01*
X0269885Y0295537D01*
X0269850Y0295519D01*
X0269813Y0295505D01*
X0269776Y0295494D01*
X0269737Y0295487D01*
X0269698Y0295484D01*
X0269659Y0295485D01*
X0269620Y0295490D01*
X0269581Y0295499D01*
X0269544Y0295511D01*
X0269508Y0295527D01*
X0269474Y0295547D01*
X0269442Y0295570D01*
X0269413Y0295596D01*
X0269386Y0295625D01*
X0269362Y0295656D01*
X0269342Y0295690D01*
X0269325Y0295725D01*
X0269312Y0295762D01*
X0269302Y0295800D01*
X0269296Y0295839D01*
X0269294Y0295878D01*
X0290344Y0284556D02*
X0290344Y0283288D01*
X0291294Y0283288D01*
X0290977Y0283922D01*
X0290977Y0284239D01*
X0291294Y0284556D01*
X0291928Y0284556D01*
X0292245Y0284239D01*
X0292245Y0283605D01*
X0291928Y0283288D01*
X0292245Y0282346D02*
X0292245Y0281078D01*
X0292245Y0281712D02*
X0290344Y0281712D01*
X0290977Y0281078D01*
X0290660Y0280136D02*
X0290344Y0279819D01*
X0290344Y0279185D01*
X0290660Y0278868D01*
X0291928Y0278868D01*
X0292245Y0279185D01*
X0292245Y0279819D01*
X0291928Y0280136D01*
X0297344Y0279819D02*
X0297344Y0279185D01*
X0297660Y0278868D01*
X0298928Y0278868D01*
X0299245Y0279185D01*
X0299245Y0279819D01*
X0298928Y0280136D01*
X0299245Y0281078D02*
X0299245Y0282346D01*
X0299245Y0281712D02*
X0297344Y0281712D01*
X0297977Y0281078D01*
X0297660Y0280136D02*
X0297344Y0279819D01*
X0298294Y0283288D02*
X0298294Y0284556D01*
X0297344Y0284239D02*
X0298294Y0283288D01*
X0299245Y0284239D02*
X0297344Y0284239D01*
X0304844Y0284556D02*
X0305160Y0283922D01*
X0305794Y0283288D01*
X0305794Y0284239D01*
X0306111Y0284556D01*
X0306428Y0284556D01*
X0306745Y0284239D01*
X0306745Y0283605D01*
X0306428Y0283288D01*
X0305794Y0283288D01*
X0306745Y0282346D02*
X0306745Y0281078D01*
X0306745Y0281712D02*
X0304844Y0281712D01*
X0305477Y0281078D01*
X0305160Y0280136D02*
X0304844Y0279819D01*
X0304844Y0279185D01*
X0305160Y0278868D01*
X0306428Y0278868D01*
X0306745Y0279185D01*
X0306745Y0279819D01*
X0306428Y0280136D01*
X0302198Y0271067D02*
X0302198Y0262799D01*
X0289993Y0262799D01*
X0289993Y0269295D01*
X0292158Y0271067D01*
X0302198Y0271067D01*
X0242670Y0304447D02*
X0242668Y0304368D01*
X0242662Y0304290D01*
X0242652Y0304212D01*
X0242639Y0304135D01*
X0242621Y0304058D01*
X0242600Y0303983D01*
X0242575Y0303908D01*
X0242546Y0303835D01*
X0242514Y0303764D01*
X0242478Y0303694D01*
X0242439Y0303626D01*
X0242396Y0303560D01*
X0242350Y0303496D01*
X0242302Y0303435D01*
X0242250Y0303376D01*
X0242195Y0303320D01*
X0242137Y0303266D01*
X0242077Y0303216D01*
X0242014Y0303168D01*
X0241950Y0303124D01*
X0241883Y0303083D01*
X0241814Y0303045D01*
X0241743Y0303011D01*
X0241670Y0302981D01*
X0241597Y0302954D01*
X0241522Y0302931D01*
X0241445Y0302911D01*
X0241368Y0302896D01*
X0241291Y0302884D01*
X0241213Y0302876D01*
X0241134Y0302872D01*
X0241056Y0302872D01*
X0240977Y0302876D01*
X0240899Y0302884D01*
X0240822Y0302896D01*
X0240745Y0302911D01*
X0240668Y0302931D01*
X0240593Y0302954D01*
X0240520Y0302981D01*
X0240447Y0303011D01*
X0240376Y0303045D01*
X0240308Y0303083D01*
X0240240Y0303124D01*
X0240176Y0303168D01*
X0240113Y0303216D01*
X0240053Y0303266D01*
X0239995Y0303320D01*
X0239940Y0303376D01*
X0239888Y0303435D01*
X0239840Y0303496D01*
X0239794Y0303560D01*
X0239751Y0303626D01*
X0239712Y0303694D01*
X0239676Y0303764D01*
X0239644Y0303835D01*
X0239615Y0303908D01*
X0239590Y0303983D01*
X0239569Y0304058D01*
X0239551Y0304135D01*
X0239538Y0304212D01*
X0239528Y0304290D01*
X0239522Y0304368D01*
X0239520Y0304447D01*
X0228841Y0297896D02*
X0228841Y0279392D01*
X0211125Y0279392D01*
X0211125Y0297896D01*
X0228841Y0297896D01*
X0212109Y0280770D02*
X0212111Y0280809D01*
X0212117Y0280848D01*
X0212127Y0280886D01*
X0212140Y0280923D01*
X0212157Y0280958D01*
X0212177Y0280992D01*
X0212201Y0281023D01*
X0212228Y0281052D01*
X0212257Y0281078D01*
X0212289Y0281101D01*
X0212323Y0281121D01*
X0212359Y0281137D01*
X0212396Y0281149D01*
X0212435Y0281158D01*
X0212474Y0281163D01*
X0212513Y0281164D01*
X0212552Y0281161D01*
X0212591Y0281154D01*
X0212628Y0281143D01*
X0212665Y0281129D01*
X0212700Y0281111D01*
X0212733Y0281090D01*
X0212764Y0281065D01*
X0212792Y0281038D01*
X0212817Y0281008D01*
X0212839Y0280975D01*
X0212858Y0280941D01*
X0212873Y0280905D01*
X0212885Y0280867D01*
X0212893Y0280829D01*
X0212897Y0280790D01*
X0212897Y0280750D01*
X0212893Y0280711D01*
X0212885Y0280673D01*
X0212873Y0280635D01*
X0212858Y0280599D01*
X0212839Y0280565D01*
X0212817Y0280532D01*
X0212792Y0280502D01*
X0212764Y0280475D01*
X0212733Y0280450D01*
X0212700Y0280429D01*
X0212665Y0280411D01*
X0212628Y0280397D01*
X0212591Y0280386D01*
X0212552Y0280379D01*
X0212513Y0280376D01*
X0212474Y0280377D01*
X0212435Y0280382D01*
X0212396Y0280391D01*
X0212359Y0280403D01*
X0212323Y0280419D01*
X0212289Y0280439D01*
X0212257Y0280462D01*
X0212228Y0280488D01*
X0212201Y0280517D01*
X0212177Y0280548D01*
X0212157Y0280582D01*
X0212140Y0280617D01*
X0212127Y0280654D01*
X0212117Y0280692D01*
X0212111Y0280731D01*
X0212109Y0280770D01*
X0194718Y0280283D02*
X0193450Y0280283D01*
X0194718Y0281551D01*
X0194718Y0281868D01*
X0194401Y0282185D01*
X0193767Y0282185D01*
X0193450Y0281868D01*
X0191874Y0282185D02*
X0191874Y0280283D01*
X0191240Y0280283D02*
X0192508Y0280283D01*
X0191240Y0281551D02*
X0191874Y0282185D01*
X0190298Y0281868D02*
X0189981Y0282185D01*
X0189347Y0282185D01*
X0189030Y0281868D01*
X0189030Y0280600D01*
X0189347Y0280283D01*
X0189981Y0280283D01*
X0190298Y0280600D01*
X0189981Y0275185D02*
X0189347Y0275185D01*
X0189030Y0274868D01*
X0189030Y0273600D01*
X0189347Y0273283D01*
X0189981Y0273283D01*
X0190298Y0273600D01*
X0191240Y0273283D02*
X0192508Y0273283D01*
X0191874Y0273283D02*
X0191874Y0275185D01*
X0191240Y0274551D01*
X0190298Y0274868D02*
X0189981Y0275185D01*
X0193450Y0274868D02*
X0193767Y0275185D01*
X0194401Y0275185D01*
X0194718Y0274868D01*
X0194718Y0274551D01*
X0194401Y0274234D01*
X0194718Y0273917D01*
X0194718Y0273600D01*
X0194401Y0273283D01*
X0193767Y0273283D01*
X0193450Y0273600D01*
X0194084Y0274234D02*
X0194401Y0274234D01*
X0179113Y0282000D02*
X0178796Y0281683D01*
X0178162Y0281683D01*
X0177845Y0282000D01*
X0178479Y0282634D02*
X0178796Y0282634D01*
X0179113Y0282317D01*
X0179113Y0282000D01*
X0178796Y0282634D02*
X0179113Y0282951D01*
X0179113Y0283268D01*
X0178796Y0283585D01*
X0178162Y0283585D01*
X0177845Y0283268D01*
X0176903Y0283268D02*
X0176586Y0283585D01*
X0175952Y0283585D01*
X0175635Y0283268D01*
X0175635Y0282000D01*
X0175952Y0281683D01*
X0176586Y0281683D01*
X0176903Y0282000D01*
X0176586Y0288683D02*
X0176903Y0289000D01*
X0176586Y0288683D02*
X0175952Y0288683D01*
X0175635Y0289000D01*
X0175635Y0290268D01*
X0175952Y0290585D01*
X0176586Y0290585D01*
X0176903Y0290268D01*
X0177845Y0289634D02*
X0179113Y0289634D01*
X0178796Y0290585D02*
X0177845Y0289634D01*
X0178796Y0288683D02*
X0178796Y0290585D01*
X0190135Y0295600D02*
X0190452Y0295283D01*
X0191086Y0295283D01*
X0191403Y0295600D01*
X0192345Y0295283D02*
X0193613Y0295283D01*
X0192979Y0295283D02*
X0192979Y0297185D01*
X0192345Y0296551D01*
X0191403Y0296868D02*
X0191086Y0297185D01*
X0190452Y0297185D01*
X0190135Y0296868D01*
X0190135Y0295600D01*
X0190452Y0303783D02*
X0191086Y0303783D01*
X0191403Y0304100D01*
X0192345Y0303783D02*
X0193613Y0305051D01*
X0193613Y0305368D01*
X0193296Y0305685D01*
X0192662Y0305685D01*
X0192345Y0305368D01*
X0191403Y0305368D02*
X0191086Y0305685D01*
X0190452Y0305685D01*
X0190135Y0305368D01*
X0190135Y0304100D01*
X0190452Y0303783D01*
X0192345Y0303783D02*
X0193613Y0303783D01*
X0197664Y0241585D02*
X0198298Y0241585D01*
X0197981Y0241585D02*
X0197981Y0240000D01*
X0197664Y0239683D01*
X0197347Y0239683D01*
X0197030Y0240000D01*
X0199240Y0240317D02*
X0200191Y0240317D01*
X0200508Y0240634D01*
X0200508Y0241268D01*
X0200191Y0241585D01*
X0199240Y0241585D01*
X0199240Y0239683D01*
X0201450Y0239683D02*
X0202718Y0239683D01*
X0202084Y0239683D02*
X0202084Y0241585D01*
X0201450Y0240951D01*
X0201528Y0222556D02*
X0201845Y0222239D01*
X0201845Y0221605D01*
X0201528Y0221288D01*
X0200894Y0221922D02*
X0200894Y0222239D01*
X0201211Y0222556D01*
X0201528Y0222556D01*
X0200894Y0222239D02*
X0200577Y0222556D01*
X0200260Y0222556D01*
X0199944Y0222239D01*
X0199944Y0221605D01*
X0200260Y0221288D01*
X0199944Y0219712D02*
X0201845Y0219712D01*
X0201845Y0219078D02*
X0201845Y0220346D01*
X0200577Y0219078D02*
X0199944Y0219712D01*
X0200260Y0218136D02*
X0200894Y0218136D01*
X0201211Y0217819D01*
X0201211Y0216868D01*
X0201211Y0217502D02*
X0201845Y0218136D01*
X0201845Y0216868D02*
X0199944Y0216868D01*
X0199944Y0217819D01*
X0200260Y0218136D01*
X0191845Y0218136D02*
X0191211Y0217502D01*
X0191211Y0217819D02*
X0191211Y0216868D01*
X0191845Y0216868D02*
X0189944Y0216868D01*
X0189944Y0217819D01*
X0190260Y0218136D01*
X0190894Y0218136D01*
X0191211Y0217819D01*
X0190577Y0219078D02*
X0189944Y0219712D01*
X0191845Y0219712D01*
X0191845Y0219078D02*
X0191845Y0220346D01*
X0190894Y0221288D02*
X0190894Y0222556D01*
X0189944Y0222239D02*
X0190894Y0221288D01*
X0191845Y0222239D02*
X0189944Y0222239D01*
X0226559Y0191685D02*
X0227193Y0191685D01*
X0226876Y0191685D02*
X0226876Y0190100D01*
X0226559Y0189783D01*
X0226242Y0189783D01*
X0225925Y0190100D01*
X0228135Y0189783D02*
X0229403Y0191051D01*
X0229403Y0191368D01*
X0229086Y0191685D01*
X0228452Y0191685D01*
X0228135Y0191368D01*
X0228135Y0189783D02*
X0229403Y0189783D01*
X0248195Y0170904D02*
X0248643Y0171352D01*
X0248419Y0171128D02*
X0249540Y0170007D01*
X0249540Y0169559D01*
X0249316Y0169335D01*
X0248867Y0169335D01*
X0250654Y0170673D02*
X0251551Y0171570D01*
X0251102Y0171122D02*
X0249758Y0172466D01*
X0249758Y0171570D01*
D16*
X0162624Y0239572D02*
X0160954Y0237902D01*
X0160815Y0237763D02*
X0158170Y0240407D01*
X0158309Y0240546D02*
X0159980Y0242217D01*
X0156165Y0253433D02*
X0156170Y0253873D01*
X0156187Y0254313D01*
X0156214Y0254752D01*
X0156251Y0255190D01*
X0156300Y0255628D01*
X0156359Y0256064D01*
X0156429Y0256498D01*
X0156510Y0256931D01*
X0156601Y0257361D01*
X0156702Y0257790D01*
X0156814Y0258215D01*
X0156937Y0258638D01*
X0157070Y0259057D01*
X0157213Y0259473D01*
X0157366Y0259886D01*
X0157530Y0260295D01*
X0157703Y0260699D01*
X0157886Y0261099D01*
X0158079Y0261495D01*
X0158282Y0261885D01*
X0158494Y0262271D01*
X0158716Y0262651D01*
X0158947Y0263026D01*
X0159187Y0263394D01*
X0159436Y0263757D01*
X0159693Y0264114D01*
X0159960Y0264464D01*
X0160235Y0264808D01*
X0160518Y0265144D01*
X0160810Y0265474D01*
X0161109Y0265796D01*
X0161417Y0266111D01*
X0161732Y0266419D01*
X0162054Y0266718D01*
X0162384Y0267010D01*
X0162720Y0267293D01*
X0163064Y0267568D01*
X0163414Y0267835D01*
X0163771Y0268092D01*
X0164134Y0268341D01*
X0164502Y0268581D01*
X0164877Y0268812D01*
X0165257Y0269034D01*
X0165643Y0269246D01*
X0166033Y0269449D01*
X0166429Y0269642D01*
X0166829Y0269825D01*
X0167233Y0269998D01*
X0167642Y0270162D01*
X0168055Y0270315D01*
X0168471Y0270458D01*
X0168890Y0270591D01*
X0169313Y0270714D01*
X0169738Y0270826D01*
X0170167Y0270927D01*
X0170597Y0271018D01*
X0171030Y0271099D01*
X0171464Y0271169D01*
X0171900Y0271228D01*
X0172338Y0271277D01*
X0172776Y0271314D01*
X0173215Y0271341D01*
X0173655Y0271358D01*
X0174095Y0271363D01*
X0174535Y0271358D01*
X0174975Y0271341D01*
X0175414Y0271314D01*
X0175852Y0271277D01*
X0176290Y0271228D01*
X0176726Y0271169D01*
X0177160Y0271099D01*
X0177593Y0271018D01*
X0178023Y0270927D01*
X0178452Y0270826D01*
X0178877Y0270714D01*
X0179300Y0270591D01*
X0179719Y0270458D01*
X0180135Y0270315D01*
X0180548Y0270162D01*
X0180957Y0269998D01*
X0181361Y0269825D01*
X0181761Y0269642D01*
X0182157Y0269449D01*
X0182547Y0269246D01*
X0182933Y0269034D01*
X0183313Y0268812D01*
X0183688Y0268581D01*
X0184056Y0268341D01*
X0184419Y0268092D01*
X0184776Y0267835D01*
X0185126Y0267568D01*
X0185470Y0267293D01*
X0185806Y0267010D01*
X0186136Y0266718D01*
X0186458Y0266419D01*
X0186773Y0266111D01*
X0187081Y0265796D01*
X0187380Y0265474D01*
X0187672Y0265144D01*
X0187955Y0264808D01*
X0188230Y0264464D01*
X0188497Y0264114D01*
X0188754Y0263757D01*
X0189003Y0263394D01*
X0189243Y0263026D01*
X0189474Y0262651D01*
X0189696Y0262271D01*
X0189908Y0261885D01*
X0190111Y0261495D01*
X0190304Y0261099D01*
X0190487Y0260699D01*
X0190660Y0260295D01*
X0190824Y0259886D01*
X0190977Y0259473D01*
X0191120Y0259057D01*
X0191253Y0258638D01*
X0191376Y0258215D01*
X0191488Y0257790D01*
X0191589Y0257361D01*
X0191680Y0256931D01*
X0191761Y0256498D01*
X0191831Y0256064D01*
X0191890Y0255628D01*
X0191939Y0255190D01*
X0191976Y0254752D01*
X0192003Y0254313D01*
X0192020Y0253873D01*
X0192025Y0253433D01*
X0192020Y0252993D01*
X0192003Y0252553D01*
X0191976Y0252114D01*
X0191939Y0251676D01*
X0191890Y0251238D01*
X0191831Y0250802D01*
X0191761Y0250368D01*
X0191680Y0249935D01*
X0191589Y0249505D01*
X0191488Y0249076D01*
X0191376Y0248651D01*
X0191253Y0248228D01*
X0191120Y0247809D01*
X0190977Y0247393D01*
X0190824Y0246980D01*
X0190660Y0246571D01*
X0190487Y0246167D01*
X0190304Y0245767D01*
X0190111Y0245371D01*
X0189908Y0244981D01*
X0189696Y0244595D01*
X0189474Y0244215D01*
X0189243Y0243840D01*
X0189003Y0243472D01*
X0188754Y0243109D01*
X0188497Y0242752D01*
X0188230Y0242402D01*
X0187955Y0242058D01*
X0187672Y0241722D01*
X0187380Y0241392D01*
X0187081Y0241070D01*
X0186773Y0240755D01*
X0186458Y0240447D01*
X0186136Y0240148D01*
X0185806Y0239856D01*
X0185470Y0239573D01*
X0185126Y0239298D01*
X0184776Y0239031D01*
X0184419Y0238774D01*
X0184056Y0238525D01*
X0183688Y0238285D01*
X0183313Y0238054D01*
X0182933Y0237832D01*
X0182547Y0237620D01*
X0182157Y0237417D01*
X0181761Y0237224D01*
X0181361Y0237041D01*
X0180957Y0236868D01*
X0180548Y0236704D01*
X0180135Y0236551D01*
X0179719Y0236408D01*
X0179300Y0236275D01*
X0178877Y0236152D01*
X0178452Y0236040D01*
X0178023Y0235939D01*
X0177593Y0235848D01*
X0177160Y0235767D01*
X0176726Y0235697D01*
X0176290Y0235638D01*
X0175852Y0235589D01*
X0175414Y0235552D01*
X0174975Y0235525D01*
X0174535Y0235508D01*
X0174095Y0235503D01*
X0173655Y0235508D01*
X0173215Y0235525D01*
X0172776Y0235552D01*
X0172338Y0235589D01*
X0171900Y0235638D01*
X0171464Y0235697D01*
X0171030Y0235767D01*
X0170597Y0235848D01*
X0170167Y0235939D01*
X0169738Y0236040D01*
X0169313Y0236152D01*
X0168890Y0236275D01*
X0168471Y0236408D01*
X0168055Y0236551D01*
X0167642Y0236704D01*
X0167233Y0236868D01*
X0166829Y0237041D01*
X0166429Y0237224D01*
X0166033Y0237417D01*
X0165643Y0237620D01*
X0165257Y0237832D01*
X0164877Y0238054D01*
X0164502Y0238285D01*
X0164134Y0238525D01*
X0163771Y0238774D01*
X0163414Y0239031D01*
X0163064Y0239298D01*
X0162720Y0239573D01*
X0162384Y0239856D01*
X0162054Y0240148D01*
X0161732Y0240447D01*
X0161417Y0240755D01*
X0161109Y0241070D01*
X0160810Y0241392D01*
X0160518Y0241722D01*
X0160235Y0242058D01*
X0159960Y0242402D01*
X0159693Y0242752D01*
X0159436Y0243109D01*
X0159187Y0243472D01*
X0158947Y0243840D01*
X0158716Y0244215D01*
X0158494Y0244595D01*
X0158282Y0244981D01*
X0158079Y0245371D01*
X0157886Y0245767D01*
X0157703Y0246167D01*
X0157530Y0246571D01*
X0157366Y0246980D01*
X0157213Y0247393D01*
X0157070Y0247809D01*
X0156937Y0248228D01*
X0156814Y0248651D01*
X0156702Y0249076D01*
X0156601Y0249505D01*
X0156510Y0249935D01*
X0156429Y0250368D01*
X0156359Y0250802D01*
X0156300Y0251238D01*
X0156251Y0251676D01*
X0156214Y0252114D01*
X0156187Y0252553D01*
X0156170Y0252993D01*
X0156165Y0253433D01*
D17*
X0193829Y0266285D02*
X0195080Y0266285D01*
X0195330Y0266535D01*
X0195330Y0267035D01*
X0195080Y0267285D01*
X0193829Y0267285D01*
X0194329Y0267758D02*
X0193829Y0268258D01*
X0195330Y0268258D01*
X0195725Y0268133D02*
X0196476Y0268133D01*
X0196726Y0268384D01*
X0196726Y0268884D01*
X0196476Y0269134D01*
X0195725Y0269134D01*
X0195725Y0267633D01*
X0195330Y0267758D02*
X0195330Y0268759D01*
X0196226Y0268133D02*
X0196726Y0267633D01*
X0197199Y0267633D02*
X0198199Y0267633D01*
X0198672Y0267633D02*
X0198672Y0267883D01*
X0199673Y0268884D01*
X0199673Y0269134D01*
X0198672Y0269134D01*
X0197699Y0269134D02*
X0197699Y0267633D01*
X0197199Y0268634D02*
X0197699Y0269134D01*
X0197699Y0263634D02*
X0197699Y0262133D01*
X0197199Y0262133D02*
X0198199Y0262133D01*
X0198672Y0262383D02*
X0198922Y0262133D01*
X0199423Y0262133D01*
X0199673Y0262383D01*
X0199673Y0262633D01*
X0199423Y0262884D01*
X0198672Y0262884D01*
X0198672Y0262383D01*
X0198672Y0262884D02*
X0199172Y0263384D01*
X0199673Y0263634D01*
X0197699Y0263634D02*
X0197199Y0263134D01*
X0196726Y0263384D02*
X0196726Y0262884D01*
X0196476Y0262633D01*
X0195725Y0262633D01*
X0195725Y0262133D02*
X0195725Y0263634D01*
X0196476Y0263634D01*
X0196726Y0263384D01*
X0196226Y0262633D02*
X0196726Y0262133D01*
X0197199Y0258134D02*
X0197949Y0258134D01*
X0198199Y0257884D01*
X0198199Y0257384D01*
X0197949Y0257133D01*
X0197199Y0257133D01*
X0197199Y0256633D02*
X0197199Y0258134D01*
X0197699Y0257133D02*
X0198199Y0256633D01*
X0198672Y0256883D02*
X0198922Y0256633D01*
X0199423Y0256633D01*
X0199673Y0256883D01*
X0199673Y0257133D01*
X0199423Y0257384D01*
X0198672Y0257384D01*
X0198672Y0256883D01*
X0198672Y0257384D02*
X0199172Y0257884D01*
X0199673Y0258134D01*
X0215289Y0284757D02*
X0216206Y0284757D01*
X0216390Y0284940D01*
X0216390Y0285307D01*
X0216206Y0285491D01*
X0215289Y0285491D01*
X0215839Y0285862D02*
X0215839Y0286412D01*
X0216023Y0286596D01*
X0216206Y0286596D01*
X0216390Y0286412D01*
X0216390Y0286045D01*
X0216206Y0285862D01*
X0215839Y0285862D01*
X0215472Y0286229D01*
X0215289Y0286596D01*
X0242872Y0264579D02*
X0242872Y0263661D01*
X0243056Y0263478D01*
X0243423Y0263478D01*
X0243606Y0263661D01*
X0243606Y0264579D01*
X0243977Y0264579D02*
X0243977Y0264028D01*
X0244344Y0264212D01*
X0244528Y0264212D01*
X0244711Y0264028D01*
X0244711Y0263661D01*
X0244528Y0263478D01*
X0244161Y0263478D01*
X0243977Y0263661D01*
X0243977Y0264579D02*
X0244711Y0264579D01*
X0276894Y0258011D02*
X0276894Y0257010D01*
X0277645Y0257010D01*
X0277394Y0257510D01*
X0277394Y0257760D01*
X0277645Y0258011D01*
X0278145Y0258011D01*
X0278395Y0257760D01*
X0278395Y0257260D01*
X0278145Y0257010D01*
X0278395Y0256537D02*
X0278395Y0255537D01*
X0278395Y0255064D02*
X0277895Y0254564D01*
X0277895Y0254814D02*
X0277895Y0254063D01*
X0278395Y0254063D02*
X0276894Y0254063D01*
X0276894Y0254814D01*
X0277144Y0255064D01*
X0277645Y0255064D01*
X0277895Y0254814D01*
X0277394Y0255537D02*
X0276894Y0256037D01*
X0278395Y0256037D01*
X0282394Y0256037D02*
X0282894Y0255537D01*
X0282644Y0255064D02*
X0283145Y0255064D01*
X0283395Y0254814D01*
X0283395Y0254063D01*
X0283895Y0254063D02*
X0282394Y0254063D01*
X0282394Y0254814D01*
X0282644Y0255064D01*
X0283395Y0254564D02*
X0283895Y0255064D01*
X0283895Y0255537D02*
X0283895Y0256537D01*
X0283895Y0257010D02*
X0282894Y0258011D01*
X0282644Y0258011D01*
X0282394Y0257760D01*
X0282394Y0257260D01*
X0282644Y0257010D01*
X0282394Y0256037D02*
X0283895Y0256037D01*
X0283895Y0257010D02*
X0283895Y0258011D01*
X0287894Y0258011D02*
X0287894Y0257010D01*
X0288645Y0257010D01*
X0288394Y0257510D01*
X0288394Y0257760D01*
X0288645Y0258011D01*
X0289145Y0258011D01*
X0289395Y0257760D01*
X0289395Y0257260D01*
X0289145Y0257010D01*
X0289395Y0256537D02*
X0288895Y0256037D01*
X0288895Y0256287D02*
X0288895Y0255537D01*
X0289395Y0255537D02*
X0287894Y0255537D01*
X0287894Y0256287D01*
X0288144Y0256537D01*
X0288645Y0256537D01*
X0288895Y0256287D01*
X0303310Y0266939D02*
X0304227Y0266939D01*
X0304410Y0267122D01*
X0304410Y0267489D01*
X0304227Y0267673D01*
X0303310Y0267673D01*
X0303493Y0268043D02*
X0303677Y0268043D01*
X0303860Y0268227D01*
X0303860Y0268594D01*
X0304044Y0268777D01*
X0304227Y0268777D01*
X0304410Y0268594D01*
X0304410Y0268227D01*
X0304227Y0268043D01*
X0304044Y0268043D01*
X0303860Y0268227D01*
X0303860Y0268594D02*
X0303677Y0268777D01*
X0303493Y0268777D01*
X0303310Y0268594D01*
X0303310Y0268227D01*
X0303493Y0268043D01*
X0304294Y0276483D02*
X0304294Y0277234D01*
X0304544Y0277484D01*
X0305045Y0277484D01*
X0305295Y0277234D01*
X0305295Y0276483D01*
X0305795Y0276483D02*
X0304294Y0276483D01*
X0305295Y0276983D02*
X0305795Y0277484D01*
X0305795Y0277956D02*
X0305795Y0278957D01*
X0305795Y0278457D02*
X0304294Y0278457D01*
X0304794Y0277956D01*
X0304794Y0279430D02*
X0304544Y0279430D01*
X0304294Y0279680D01*
X0304294Y0280180D01*
X0304544Y0280430D01*
X0304794Y0280430D01*
X0305045Y0280180D01*
X0305045Y0279680D01*
X0304794Y0279430D01*
X0305045Y0279680D02*
X0305295Y0279430D01*
X0305545Y0279430D01*
X0305795Y0279680D01*
X0305795Y0280180D01*
X0305545Y0280430D01*
X0305295Y0280430D01*
X0305045Y0280180D01*
X0266901Y0289965D02*
X0266901Y0290332D01*
X0266717Y0290515D01*
X0265800Y0290515D01*
X0265800Y0290886D02*
X0265800Y0291620D01*
X0265983Y0291620D01*
X0266717Y0290886D01*
X0266901Y0290886D01*
X0266901Y0289965D02*
X0266717Y0289781D01*
X0265800Y0289781D01*
X0200582Y0312222D02*
X0199581Y0312222D01*
X0200582Y0313223D01*
X0200582Y0313473D01*
X0200332Y0313723D01*
X0199832Y0313723D01*
X0199581Y0313473D01*
X0199109Y0313473D02*
X0199109Y0312972D01*
X0198859Y0312722D01*
X0198108Y0312722D01*
X0198108Y0312222D02*
X0198108Y0313723D01*
X0198859Y0313723D01*
X0199109Y0313473D01*
X0198608Y0312722D02*
X0199109Y0312222D01*
D18*
X0247158Y0303364D02*
X0247158Y0301863D01*
X0247458Y0301563D01*
X0248058Y0301563D01*
X0248359Y0301863D01*
X0248359Y0303364D01*
X0248999Y0303064D02*
X0249299Y0303364D01*
X0249900Y0303364D01*
X0250200Y0303064D01*
X0250200Y0302764D01*
X0248999Y0301563D01*
X0250200Y0301563D01*
D19*
X0234796Y0317439D03*
D20*
X0232827Y0316258D02*
X0230465Y0316258D01*
X0230465Y0312321D01*
X0230465Y0308384D02*
X0230465Y0304447D01*
X0232827Y0304447D01*
X0249363Y0304447D02*
X0251725Y0304447D01*
X0251725Y0308384D01*
X0251725Y0312321D02*
X0251725Y0316258D01*
X0249363Y0316258D01*
D21*
X0140095Y0094768D03*
D22*
X0139929Y0094848D03*
D23*
X0139762Y0094768D03*
D24*
X0139595Y0094768D03*
D25*
X0139429Y0090268D03*
X0139429Y0099268D03*
X0130262Y0098268D03*
X0128762Y0085268D03*
X0116762Y0093268D03*
X0105929Y0091768D03*
X0110262Y0114768D03*
D26*
X0130429Y0098103D03*
X0139262Y0089763D03*
X0128262Y0087103D03*
X0112429Y0092433D03*
X0105929Y0095933D03*
X0113429Y0074103D03*
D27*
X0099429Y0082518D03*
X0092929Y0090018D03*
X0092929Y0099518D03*
X0139262Y0099848D03*
D28*
X0133595Y0104268D03*
X0139095Y0088768D03*
X0129095Y0083768D03*
X0120595Y0083268D03*
X0119595Y0074768D03*
X0107595Y0100768D03*
D29*
X0133095Y0099433D03*
X0139095Y0100933D03*
X0133095Y0090433D03*
D30*
X0136262Y0086683D03*
X0138929Y0088353D03*
X0129262Y0083853D03*
X0117762Y0074513D03*
X0104929Y0076683D03*
X0093429Y0088183D03*
X0093262Y0088513D03*
X0099262Y0090353D03*
X0099929Y0093683D03*
X0100429Y0094853D03*
X0099262Y0099513D03*
X0099429Y0099853D03*
X0095262Y0101183D03*
X0093429Y0101353D03*
X0093262Y0101013D03*
X0101429Y0110353D03*
X0103762Y0110183D03*
X0105429Y0111683D03*
X0108262Y0114513D03*
X0111429Y0100353D03*
X0116929Y0092183D03*
X0132262Y0097853D03*
X0133762Y0104353D03*
X0134429Y0105683D03*
X0138929Y0101183D03*
D31*
X0137262Y0100768D03*
X0134762Y0100598D03*
X0135429Y0096268D03*
X0138762Y0087598D03*
X0131429Y0081268D03*
X0120762Y0083268D03*
X0113762Y0098268D03*
X0107762Y0100098D03*
X0096929Y0094598D03*
X0094262Y0094768D03*
X0095929Y0091098D03*
X0101929Y0092098D03*
D32*
X0101262Y0093018D03*
X0105762Y0095518D03*
X0107262Y0097348D03*
X0108762Y0095348D03*
X0099762Y0100848D03*
X0099262Y0104348D03*
X0093762Y0102518D03*
X0101262Y0110348D03*
X0104762Y0113018D03*
X0113762Y0114518D03*
X0132762Y0100518D03*
X0133929Y0104848D03*
X0138429Y0103018D03*
X0138762Y0102018D03*
X0132929Y0096018D03*
X0132429Y0088348D03*
X0130429Y0085018D03*
X0130262Y0084848D03*
X0131262Y0081348D03*
X0127929Y0088348D03*
X0118429Y0082848D03*
X0108929Y0076348D03*
X0099762Y0088848D03*
X0095762Y0087018D03*
X0095429Y0087848D03*
X0138262Y0086348D03*
D33*
X0138595Y0087348D03*
X0138595Y0102348D03*
X0119095Y0115848D03*
X0110595Y0114018D03*
X0108595Y0113348D03*
X0103595Y0102018D03*
X0099595Y0100518D03*
X0105595Y0095348D03*
X0109095Y0090848D03*
X0107595Y0089518D03*
X0101095Y0079518D03*
X0093595Y0087518D03*
D34*
X0093929Y0086433D03*
X0095429Y0090933D03*
X0099929Y0088263D03*
X0102262Y0091933D03*
X0102429Y0091933D03*
X0101429Y0092933D03*
X0100929Y0093763D03*
X0100429Y0092603D03*
X0102429Y0095263D03*
X0107429Y0097263D03*
X0107429Y0101103D03*
X0107262Y0101103D03*
X0111929Y0102603D03*
X0110762Y0094603D03*
X0106262Y0090603D03*
X0107429Y0089603D03*
X0102429Y0080933D03*
X0100929Y0079603D03*
X0099262Y0082933D03*
X0105929Y0078103D03*
X0117262Y0091103D03*
X0130762Y0085433D03*
X0130929Y0085763D03*
X0131262Y0086263D03*
X0131429Y0086433D03*
X0131929Y0087433D03*
X0132262Y0088103D03*
X0133762Y0086763D03*
X0131929Y0083433D03*
X0138429Y0086603D03*
X0135262Y0096263D03*
X0130762Y0097433D03*
X0132429Y0101433D03*
X0137429Y0100763D03*
X0138262Y0103263D03*
X0119929Y0114433D03*
X0118929Y0115933D03*
X0108762Y0113263D03*
X0105262Y0111933D03*
X0099929Y0101433D03*
X0093929Y0103103D03*
D35*
X0095262Y0106098D03*
X0095429Y0106268D03*
X0100262Y0106598D03*
X0101262Y0107268D03*
X0100762Y0103098D03*
X0103262Y0097268D03*
X0105262Y0094768D03*
X0109429Y0091768D03*
X0110262Y0097268D03*
X0111429Y0098598D03*
X0100429Y0087268D03*
X0100762Y0086598D03*
X0100929Y0086268D03*
X0098262Y0082268D03*
X0095762Y0082768D03*
X0095262Y0083598D03*
X0094929Y0084268D03*
X0100762Y0079598D03*
X0101762Y0078598D03*
X0103262Y0080268D03*
X0110762Y0073768D03*
X0115929Y0075268D03*
X0125762Y0076768D03*
X0125929Y0076768D03*
X0130762Y0081598D03*
X0127762Y0084768D03*
X0127429Y0089768D03*
X0132762Y0096598D03*
X0129762Y0100098D03*
X0130929Y0104268D03*
X0130929Y0107768D03*
X0132429Y0109268D03*
X0136762Y0106598D03*
X0136929Y0106268D03*
X0137262Y0105598D03*
X0126429Y0112768D03*
X0138262Y0096098D03*
X0137429Y0084268D03*
X0137262Y0084098D03*
X0095762Y0095098D03*
D36*
X0097095Y0094603D03*
X0102595Y0095433D03*
X0102095Y0091933D03*
X0106595Y0098433D03*
X0111095Y0098433D03*
X0111095Y0100933D03*
X0116095Y0097263D03*
X0130095Y0099433D03*
X0132595Y0100763D03*
X0134095Y0105103D03*
X0134595Y0106263D03*
X0135095Y0091603D03*
X0132595Y0088933D03*
X0132095Y0087603D03*
X0131595Y0086763D03*
X0131095Y0085933D03*
X0130595Y0085263D03*
X0127595Y0084763D03*
X0131095Y0081433D03*
X0132595Y0081763D03*
X0138095Y0085763D03*
X0105095Y0112263D03*
X0104595Y0113103D03*
X0112595Y0115933D03*
X0094095Y0103433D03*
X0094095Y0086263D03*
D37*
X0097095Y0084353D03*
X0095595Y0083013D03*
X0096095Y0082183D03*
X0096595Y0081353D03*
X0101095Y0082853D03*
X0102095Y0084513D03*
X0101595Y0085183D03*
X0101095Y0086013D03*
X0099095Y0085683D03*
X0098095Y0088353D03*
X0097095Y0092183D03*
X0102595Y0091683D03*
X0108095Y0094013D03*
X0108095Y0096683D03*
X0107095Y0098013D03*
X0108595Y0090353D03*
X0112595Y0091853D03*
X0114095Y0102013D03*
X0126595Y0101353D03*
X0129595Y0100353D03*
X0131095Y0104013D03*
X0130095Y0105513D03*
X0132095Y0108853D03*
X0134595Y0109683D03*
X0135595Y0108353D03*
X0136095Y0107683D03*
X0126595Y0112683D03*
X0113595Y0115013D03*
X0110095Y0114013D03*
X0104095Y0110183D03*
X0103095Y0111353D03*
X0101095Y0110353D03*
X0100595Y0106353D03*
X0101095Y0103683D03*
X0097595Y0101853D03*
X0096595Y0104853D03*
X0095595Y0106683D03*
X0096095Y0107353D03*
X0126595Y0091013D03*
X0127095Y0090353D03*
X0129595Y0083683D03*
X0130595Y0081683D03*
X0132095Y0080013D03*
X0133095Y0081353D03*
X0134095Y0082353D03*
X0133595Y0082683D03*
X0133095Y0083013D03*
X0132595Y0083353D03*
X0135595Y0085353D03*
X0136095Y0085683D03*
X0136095Y0087353D03*
X0138095Y0091513D03*
X0136595Y0082853D03*
X0136095Y0082013D03*
X0103595Y0077013D03*
X0102595Y0079513D03*
D38*
X0105595Y0091853D03*
X0108595Y0095353D03*
X0101595Y0095013D03*
X0133095Y0095683D03*
X0138095Y0096183D03*
D39*
X0138095Y0103848D03*
X0137595Y0104848D03*
X0113595Y0097848D03*
X0110595Y0094348D03*
X0106095Y0096518D03*
X0104595Y0094848D03*
X0101595Y0092848D03*
X0100095Y0088018D03*
X0095095Y0090848D03*
X0095595Y0094848D03*
X0094095Y0094848D03*
X0094595Y0084848D03*
X0105595Y0077518D03*
X0114095Y0075018D03*
X0115095Y0073348D03*
X0108095Y0089848D03*
X0105595Y0111348D03*
X0108095Y0114848D03*
X0110095Y0115518D03*
X0114095Y0114518D03*
D40*
X0113929Y0114518D03*
X0112429Y0115848D03*
X0110762Y0113848D03*
X0104929Y0112518D03*
X0099429Y0104348D03*
X0096762Y0104848D03*
X0094262Y0104018D03*
X0103429Y0097348D03*
X0102262Y0095348D03*
X0101262Y0095518D03*
X0100762Y0093848D03*
X0104762Y0094848D03*
X0105429Y0095018D03*
X0105429Y0091848D03*
X0106929Y0089848D03*
X0108262Y0089848D03*
X0108762Y0090518D03*
X0109929Y0092848D03*
X0110262Y0093518D03*
X0110429Y0093848D03*
X0111262Y0098518D03*
X0111262Y0100848D03*
X0111762Y0102848D03*
X0108929Y0098518D03*
X0108762Y0098518D03*
X0100262Y0087518D03*
X0095262Y0088018D03*
X0094429Y0085348D03*
X0095262Y0090848D03*
X0095429Y0094518D03*
X0100929Y0082848D03*
X0102929Y0080018D03*
X0105262Y0077018D03*
X0108262Y0074848D03*
X0113262Y0073518D03*
X0114762Y0073848D03*
X0114929Y0073518D03*
X0114429Y0074518D03*
X0118262Y0082848D03*
X0127762Y0089018D03*
X0131762Y0087018D03*
X0137762Y0085018D03*
X0137929Y0085518D03*
X0130929Y0081518D03*
X0137929Y0091518D03*
X0132762Y0098518D03*
X0126429Y0101518D03*
X0133429Y0103848D03*
X0134762Y0106348D03*
X0137429Y0105348D03*
X0118762Y0115848D03*
D41*
X0105929Y0099768D03*
X0110929Y0095598D03*
X0095429Y0101268D03*
X0101929Y0080768D03*
X0111429Y0075268D03*
X0110929Y0074268D03*
X0120262Y0081768D03*
X0132262Y0083268D03*
X0135262Y0091598D03*
X0137929Y0096098D03*
D42*
X0132262Y0101683D03*
X0129929Y0099683D03*
X0137929Y0104183D03*
X0137762Y0104683D03*
X0132262Y0109183D03*
X0126262Y0112683D03*
X0111929Y0099683D03*
X0110429Y0097183D03*
X0106762Y0098183D03*
X0103429Y0102183D03*
X0103262Y0102183D03*
X0100262Y0102183D03*
X0094429Y0104183D03*
X0103929Y0110183D03*
X0102762Y0093183D03*
X0104429Y0092183D03*
X0107262Y0089683D03*
X0098429Y0082183D03*
X0094762Y0084683D03*
X0094262Y0085683D03*
X0101929Y0078683D03*
X0105429Y0077183D03*
X0113929Y0075183D03*
X0114262Y0074683D03*
X0128929Y0084183D03*
X0132762Y0081683D03*
D43*
X0136429Y0086683D03*
X0132762Y0089183D03*
X0137762Y0091183D03*
X0126262Y0101683D03*
X0108929Y0090683D03*
X0104262Y0092183D03*
X0101429Y0095183D03*
X0097929Y0101183D03*
X0093762Y0087183D03*
D44*
X0094762Y0090853D03*
X0096262Y0090683D03*
X0096929Y0092183D03*
X0095929Y0095353D03*
X0094429Y0095353D03*
X0097762Y0101683D03*
X0097429Y0102013D03*
X0100929Y0103513D03*
X0101262Y0104013D03*
X0101429Y0104353D03*
X0101929Y0105013D03*
X0102262Y0105513D03*
X0102429Y0105683D03*
X0101429Y0107353D03*
X0099429Y0107353D03*
X0098762Y0108013D03*
X0097429Y0109353D03*
X0097262Y0109183D03*
X0096929Y0108683D03*
X0096429Y0108013D03*
X0096262Y0107683D03*
X0095929Y0107183D03*
X0095762Y0106853D03*
X0097929Y0110013D03*
X0101762Y0109513D03*
X0101929Y0109353D03*
X0103429Y0111013D03*
X0103262Y0111183D03*
X0104429Y0113183D03*
X0105762Y0111353D03*
X0107929Y0115013D03*
X0109929Y0115683D03*
X0125762Y0112683D03*
X0125929Y0112683D03*
X0130762Y0107683D03*
X0131929Y0108683D03*
X0135262Y0108853D03*
X0135429Y0108683D03*
X0135762Y0108183D03*
X0135929Y0107853D03*
X0136262Y0107353D03*
X0136429Y0107183D03*
X0133262Y0103683D03*
X0131429Y0103513D03*
X0131262Y0103683D03*
X0130429Y0105013D03*
X0129929Y0105683D03*
X0134429Y0100853D03*
X0136929Y0100013D03*
X0137762Y0095353D03*
X0134929Y0091513D03*
X0135429Y0090853D03*
X0135762Y0087683D03*
X0135929Y0087513D03*
X0135929Y0085513D03*
X0135762Y0085353D03*
X0133929Y0086353D03*
X0133929Y0082353D03*
X0135429Y0081013D03*
X0134929Y0080353D03*
X0136262Y0082353D03*
X0136429Y0082513D03*
X0136762Y0083013D03*
X0131929Y0080013D03*
X0130429Y0081683D03*
X0129429Y0083513D03*
X0126929Y0090513D03*
X0117429Y0091013D03*
X0111262Y0095853D03*
X0108429Y0094513D03*
X0108262Y0094353D03*
X0107929Y0093853D03*
X0109262Y0091513D03*
X0106762Y0090013D03*
X0105262Y0092013D03*
X0102929Y0093013D03*
X0106262Y0096683D03*
X0106429Y0096683D03*
X0106929Y0098013D03*
X0107929Y0096853D03*
X0108429Y0098683D03*
X0097929Y0088353D03*
X0098929Y0085683D03*
X0101262Y0085683D03*
X0101429Y0085513D03*
X0101762Y0085013D03*
X0101929Y0084683D03*
X0103429Y0080353D03*
X0102762Y0079683D03*
X0103762Y0077013D03*
X0106929Y0075183D03*
X0115262Y0073183D03*
X0120262Y0073353D03*
X0126262Y0076683D03*
X0117929Y0082683D03*
X0097429Y0080353D03*
X0096429Y0081683D03*
X0096262Y0081853D03*
X0095929Y0082353D03*
X0095429Y0083353D03*
X0096929Y0084353D03*
D45*
X0100595Y0086768D03*
X0106595Y0090098D03*
X0107095Y0089768D03*
X0102595Y0093268D03*
X0100595Y0095598D03*
X0107595Y0097098D03*
X0108595Y0098598D03*
X0101595Y0109598D03*
X0099095Y0107768D03*
X0095095Y0105598D03*
X0094595Y0104768D03*
X0095095Y0101098D03*
X0118095Y0082768D03*
X0117595Y0074768D03*
X0114595Y0074098D03*
X0111595Y0075768D03*
X0107095Y0075268D03*
X0106095Y0078098D03*
X0125595Y0076768D03*
X0126095Y0076768D03*
X0137095Y0083598D03*
X0137595Y0084768D03*
X0137595Y0090768D03*
X0127595Y0089268D03*
X0126095Y0102268D03*
X0131595Y0103098D03*
X0136595Y0106768D03*
X0126095Y0112768D03*
D46*
X0129095Y0106768D03*
X0129595Y0106098D03*
X0130595Y0104768D03*
X0132595Y0105098D03*
X0130595Y0107598D03*
X0132595Y0109268D03*
X0134095Y0110268D03*
X0135095Y0109098D03*
X0136595Y0099768D03*
X0136095Y0099598D03*
X0137595Y0095268D03*
X0137095Y0095098D03*
X0135595Y0090598D03*
X0136595Y0090268D03*
X0135595Y0087768D03*
X0135095Y0085768D03*
X0134095Y0086268D03*
X0135595Y0081268D03*
X0135095Y0080598D03*
X0134095Y0079268D03*
X0133595Y0078768D03*
X0133095Y0078268D03*
X0132595Y0077768D03*
X0132095Y0077268D03*
X0131595Y0081598D03*
X0127595Y0081598D03*
X0126095Y0091598D03*
X0125595Y0092098D03*
X0116595Y0081268D03*
X0115595Y0081098D03*
X0115095Y0081598D03*
X0114595Y0082098D03*
X0114095Y0082598D03*
X0113595Y0083098D03*
X0113095Y0083598D03*
X0112595Y0084098D03*
X0112095Y0084598D03*
X0111595Y0085098D03*
X0104595Y0081768D03*
X0103095Y0083268D03*
X0102595Y0083768D03*
X0098095Y0085098D03*
X0097595Y0088098D03*
X0100595Y0092098D03*
X0104595Y0092268D03*
X0106595Y0092598D03*
X0106595Y0093598D03*
X0106095Y0095098D03*
X0105095Y0094598D03*
X0106595Y0096768D03*
X0110095Y0097268D03*
X0110595Y0096768D03*
X0101595Y0104598D03*
X0102095Y0105268D03*
X0103595Y0107098D03*
X0102095Y0109268D03*
X0099595Y0107268D03*
X0100095Y0106768D03*
X0097095Y0105598D03*
X0096595Y0108268D03*
X0097595Y0109598D03*
X0098095Y0110098D03*
X0098595Y0110768D03*
X0099095Y0111268D03*
X0100095Y0112268D03*
X0099095Y0103598D03*
X0097595Y0100268D03*
X0096095Y0100098D03*
X0095095Y0094098D03*
X0094595Y0094098D03*
X0097095Y0080768D03*
X0097595Y0080098D03*
X0100595Y0079598D03*
X0101595Y0078598D03*
X0104595Y0077768D03*
X0109595Y0114268D03*
X0109095Y0114598D03*
D47*
X0109262Y0114518D03*
X0109762Y0115848D03*
X0109429Y0117518D03*
X0109262Y0117518D03*
X0110262Y0117848D03*
X0110429Y0117848D03*
X0107429Y0116848D03*
X0107262Y0116848D03*
X0106429Y0116518D03*
X0105262Y0115848D03*
X0104262Y0115348D03*
X0103762Y0115018D03*
X0103429Y0114848D03*
X0102929Y0114518D03*
X0102762Y0114348D03*
X0102262Y0114018D03*
X0101929Y0113848D03*
X0101429Y0113348D03*
X0100929Y0113018D03*
X0100762Y0112848D03*
X0100429Y0112518D03*
X0099262Y0111518D03*
X0101929Y0111518D03*
X0102762Y0111518D03*
X0102429Y0109018D03*
X0104429Y0107848D03*
X0105262Y0108518D03*
X0105762Y0108848D03*
X0106262Y0109348D03*
X0107429Y0110018D03*
X0108262Y0110518D03*
X0108429Y0110518D03*
X0108929Y0110848D03*
X0109429Y0111018D03*
X0110262Y0111348D03*
X0110762Y0111518D03*
X0110929Y0111518D03*
X0111762Y0111848D03*
X0111929Y0111848D03*
X0110929Y0113518D03*
X0112762Y0113848D03*
X0112929Y0115348D03*
X0114262Y0114518D03*
X0114262Y0118518D03*
X0114429Y0118518D03*
X0114762Y0118518D03*
X0114929Y0118518D03*
X0115262Y0118518D03*
X0115429Y0118518D03*
X0115762Y0118518D03*
X0115929Y0118518D03*
X0116262Y0118518D03*
X0116429Y0118518D03*
X0116762Y0118518D03*
X0116929Y0118518D03*
X0117262Y0118518D03*
X0117429Y0118518D03*
X0117762Y0118518D03*
X0117929Y0118518D03*
X0119262Y0116518D03*
X0119929Y0116348D03*
X0121762Y0117848D03*
X0121929Y0117848D03*
X0122929Y0117518D03*
X0124929Y0116848D03*
X0125762Y0116518D03*
X0126762Y0116018D03*
X0127262Y0115848D03*
X0127762Y0115518D03*
X0128762Y0114848D03*
X0128929Y0114848D03*
X0129262Y0114518D03*
X0129429Y0114518D03*
X0130262Y0113848D03*
X0130429Y0113848D03*
X0130762Y0113518D03*
X0130929Y0113348D03*
X0131429Y0113018D03*
X0131929Y0112518D03*
X0132929Y0111518D03*
X0133929Y0110518D03*
X0130429Y0107848D03*
X0128929Y0106848D03*
X0128262Y0107518D03*
X0127929Y0107848D03*
X0127762Y0108018D03*
X0126762Y0108848D03*
X0126429Y0109018D03*
X0125762Y0109518D03*
X0125262Y0109848D03*
X0124929Y0110018D03*
X0123929Y0110518D03*
X0123429Y0110848D03*
X0123262Y0110848D03*
X0122929Y0111018D03*
X0121762Y0111518D03*
X0121429Y0111518D03*
X0120429Y0111848D03*
X0120262Y0111848D03*
X0118762Y0113848D03*
X0108929Y0112848D03*
X0105929Y0112848D03*
X0105762Y0112848D03*
X0105929Y0113848D03*
X0105762Y0114018D03*
X0103429Y0106848D03*
X0100929Y0106518D03*
X0098429Y0104848D03*
X0098262Y0104848D03*
X0097762Y0104518D03*
X0097429Y0104348D03*
X0097429Y0105848D03*
X0097262Y0105848D03*
X0098929Y0103518D03*
X0098762Y0103348D03*
X0096429Y0102348D03*
X0096262Y0102348D03*
X0095929Y0102348D03*
X0096429Y0100018D03*
X0096929Y0099848D03*
X0097262Y0100018D03*
X0103762Y0102518D03*
X0103929Y0102518D03*
X0104262Y0102518D03*
X0104429Y0102518D03*
X0104762Y0102518D03*
X0104929Y0102518D03*
X0105262Y0102518D03*
X0105429Y0102518D03*
X0105762Y0102518D03*
X0105929Y0102518D03*
X0106262Y0102518D03*
X0106429Y0102518D03*
X0106429Y0101518D03*
X0106762Y0101518D03*
X0106929Y0101518D03*
X0106929Y0100518D03*
X0106762Y0100518D03*
X0105762Y0100518D03*
X0105429Y0100518D03*
X0105262Y0100518D03*
X0105262Y0098848D03*
X0106762Y0096848D03*
X0106929Y0096848D03*
X0109262Y0097848D03*
X0109429Y0097848D03*
X0109762Y0097518D03*
X0110929Y0097848D03*
X0110929Y0098848D03*
X0110929Y0100518D03*
X0110762Y0100518D03*
X0110429Y0100518D03*
X0110262Y0100518D03*
X0109929Y0100518D03*
X0109762Y0100518D03*
X0109429Y0100518D03*
X0109262Y0100518D03*
X0108929Y0100518D03*
X0108762Y0100518D03*
X0108429Y0100518D03*
X0108262Y0100518D03*
X0108429Y0101848D03*
X0108762Y0101848D03*
X0108929Y0101848D03*
X0109929Y0101848D03*
X0110262Y0101848D03*
X0110762Y0101518D03*
X0110929Y0101518D03*
X0112929Y0101848D03*
X0113262Y0101848D03*
X0114262Y0100848D03*
X0115262Y0101848D03*
X0115429Y0101848D03*
X0115762Y0101848D03*
X0115929Y0101848D03*
X0116262Y0101848D03*
X0116762Y0097518D03*
X0116929Y0097518D03*
X0117262Y0097518D03*
X0117429Y0097518D03*
X0116762Y0096518D03*
X0116762Y0095348D03*
X0119762Y0094848D03*
X0119929Y0094848D03*
X0121262Y0094518D03*
X0122929Y0093848D03*
X0123762Y0093518D03*
X0123929Y0093348D03*
X0124762Y0092848D03*
X0124929Y0095518D03*
X0125262Y0095518D03*
X0125429Y0095518D03*
X0123262Y0095848D03*
X0122929Y0095848D03*
X0122762Y0095848D03*
X0128762Y0094848D03*
X0128929Y0094848D03*
X0129262Y0094848D03*
X0130762Y0094518D03*
X0130929Y0094518D03*
X0131262Y0097018D03*
X0131762Y0097348D03*
X0131929Y0097518D03*
X0134929Y0099848D03*
X0135429Y0099518D03*
X0135762Y0099518D03*
X0135929Y0099518D03*
X0136762Y0099848D03*
X0135762Y0096848D03*
X0135762Y0095348D03*
X0136429Y0095018D03*
X0136762Y0095018D03*
X0136929Y0095018D03*
X0137429Y0090518D03*
X0136262Y0090348D03*
X0135762Y0090518D03*
X0135429Y0087848D03*
X0135262Y0087848D03*
X0134929Y0087848D03*
X0134762Y0087848D03*
X0134429Y0087848D03*
X0134262Y0087848D03*
X0133929Y0087518D03*
X0133262Y0086348D03*
X0134929Y0085848D03*
X0135429Y0085518D03*
X0134262Y0082518D03*
X0132262Y0081518D03*
X0131929Y0081518D03*
X0128929Y0082848D03*
X0128429Y0082348D03*
X0127929Y0081848D03*
X0127429Y0081518D03*
X0127262Y0081348D03*
X0126929Y0081018D03*
X0126762Y0080848D03*
X0126262Y0080518D03*
X0125929Y0080348D03*
X0125429Y0080018D03*
X0125262Y0079848D03*
X0124262Y0079348D03*
X0123262Y0078848D03*
X0122429Y0078518D03*
X0122262Y0078518D03*
X0120429Y0077848D03*
X0120262Y0077848D03*
X0118762Y0077518D03*
X0118429Y0077518D03*
X0118262Y0077518D03*
X0119429Y0075518D03*
X0117762Y0072848D03*
X0120262Y0071518D03*
X0120429Y0071518D03*
X0120762Y0071518D03*
X0121762Y0071848D03*
X0121929Y0071848D03*
X0124262Y0072518D03*
X0124929Y0072848D03*
X0126429Y0073518D03*
X0127262Y0073848D03*
X0128262Y0074518D03*
X0128429Y0074518D03*
X0128929Y0074848D03*
X0129762Y0075348D03*
X0129929Y0075518D03*
X0130262Y0075848D03*
X0130429Y0075848D03*
X0131262Y0076518D03*
X0131762Y0077018D03*
X0132429Y0077518D03*
X0132762Y0077848D03*
X0125929Y0083018D03*
X0125762Y0082848D03*
X0125262Y0082518D03*
X0124929Y0082348D03*
X0124262Y0081848D03*
X0123762Y0081518D03*
X0122262Y0080848D03*
X0121929Y0080848D03*
X0118929Y0082018D03*
X0117762Y0082518D03*
X0118929Y0083848D03*
X0118929Y0084848D03*
X0119929Y0084518D03*
X0117429Y0085518D03*
X0116762Y0085848D03*
X0116262Y0086018D03*
X0115262Y0086518D03*
X0114429Y0086848D03*
X0114262Y0086848D03*
X0113929Y0087018D03*
X0112929Y0087518D03*
X0112762Y0087518D03*
X0111929Y0087848D03*
X0110762Y0088348D03*
X0110429Y0088518D03*
X0110262Y0088518D03*
X0109762Y0088848D03*
X0109262Y0089018D03*
X0108262Y0088348D03*
X0108762Y0087848D03*
X0109262Y0087348D03*
X0109762Y0086848D03*
X0110262Y0086348D03*
X0110762Y0085848D03*
X0111262Y0085348D03*
X0115929Y0080848D03*
X0114262Y0077518D03*
X0113929Y0077518D03*
X0113762Y0077518D03*
X0112262Y0077848D03*
X0111929Y0077848D03*
X0111762Y0075848D03*
X0109929Y0078518D03*
X0109762Y0078518D03*
X0109262Y0078848D03*
X0108762Y0079018D03*
X0107762Y0079518D03*
X0107262Y0079848D03*
X0106929Y0080018D03*
X0106429Y0080348D03*
X0106262Y0080518D03*
X0105762Y0080848D03*
X0105429Y0081018D03*
X0104929Y0081518D03*
X0104429Y0081848D03*
X0104262Y0082018D03*
X0103929Y0082348D03*
X0103762Y0082518D03*
X0103429Y0082848D03*
X0100762Y0083348D03*
X0099429Y0085518D03*
X0096762Y0084518D03*
X0096262Y0087518D03*
X0096929Y0087848D03*
X0095762Y0091518D03*
X0096429Y0091848D03*
X0096762Y0094018D03*
X0096429Y0095518D03*
X0096262Y0095518D03*
X0094762Y0094018D03*
X0094429Y0090848D03*
X0100762Y0092018D03*
X0100929Y0091848D03*
X0101429Y0091518D03*
X0103429Y0092848D03*
X0103929Y0092848D03*
X0103929Y0091518D03*
X0102262Y0093848D03*
X0102929Y0095848D03*
X0103762Y0095518D03*
X0103929Y0095518D03*
X0100929Y0095848D03*
X0100762Y0095848D03*
X0106929Y0092848D03*
X0110262Y0090518D03*
X0110429Y0090518D03*
X0111262Y0090848D03*
X0111429Y0091018D03*
X0113262Y0091518D03*
X0115262Y0090848D03*
X0115429Y0090848D03*
X0116429Y0090518D03*
X0116762Y0090518D03*
X0118262Y0090518D03*
X0118429Y0090518D03*
X0120762Y0089848D03*
X0120929Y0089848D03*
X0122262Y0089518D03*
X0123262Y0088848D03*
X0123762Y0088518D03*
X0124262Y0088018D03*
X0124429Y0087848D03*
X0125429Y0087018D03*
X0125929Y0086518D03*
X0126762Y0085848D03*
X0126929Y0083848D03*
X0126429Y0083348D03*
X0129762Y0084848D03*
X0129929Y0085018D03*
X0114262Y0097848D03*
X0112929Y0096848D03*
X0112429Y0096518D03*
X0112262Y0096348D03*
X0107929Y0102848D03*
X0107762Y0102848D03*
X0122762Y0102518D03*
X0122929Y0102518D03*
X0123262Y0102518D03*
X0123429Y0102518D03*
X0123762Y0102518D03*
X0134762Y0104848D03*
X0134929Y0104848D03*
X0135429Y0104848D03*
X0135762Y0104848D03*
X0105429Y0078848D03*
X0104762Y0079018D03*
X0107929Y0076348D03*
X0107429Y0075848D03*
X0105762Y0073518D03*
X0104762Y0074018D03*
X0103929Y0074518D03*
X0103429Y0074848D03*
X0103262Y0074848D03*
X0102429Y0075518D03*
X0101929Y0075848D03*
X0101762Y0076018D03*
X0101262Y0076348D03*
X0100762Y0076848D03*
X0099929Y0077518D03*
X0098929Y0078518D03*
X0098762Y0081518D03*
X0107262Y0072848D03*
X0107429Y0072848D03*
X0108262Y0072518D03*
X0110262Y0071848D03*
X0110429Y0071848D03*
X0111762Y0071518D03*
X0111929Y0071518D03*
D48*
X0113929Y0071183D03*
X0114262Y0071183D03*
X0114429Y0071183D03*
X0114762Y0071183D03*
X0114929Y0071183D03*
X0115262Y0071183D03*
X0115429Y0071183D03*
X0116762Y0071183D03*
X0116929Y0071183D03*
X0117262Y0071183D03*
X0117429Y0071183D03*
X0117762Y0071183D03*
X0117929Y0071183D03*
X0118262Y0071183D03*
X0118429Y0071183D03*
X0123262Y0072183D03*
X0125762Y0073183D03*
X0125929Y0073183D03*
X0127762Y0074183D03*
X0127929Y0074183D03*
X0129429Y0075183D03*
X0130762Y0076183D03*
X0131429Y0076683D03*
X0131929Y0077183D03*
X0133262Y0081183D03*
X0128762Y0082683D03*
X0128262Y0082183D03*
X0126762Y0083683D03*
X0127262Y0084183D03*
X0126262Y0083183D03*
X0125429Y0082683D03*
X0124762Y0082183D03*
X0123929Y0081683D03*
X0122929Y0081183D03*
X0123929Y0079183D03*
X0124929Y0079683D03*
X0125762Y0080183D03*
X0126429Y0080683D03*
X0129429Y0084683D03*
X0126929Y0085683D03*
X0126429Y0086183D03*
X0125762Y0086683D03*
X0125262Y0087183D03*
X0122929Y0089183D03*
X0119929Y0090183D03*
X0119762Y0090183D03*
X0122262Y0094183D03*
X0124262Y0093183D03*
X0124929Y0092683D03*
X0126929Y0095183D03*
X0127262Y0095183D03*
X0127429Y0095183D03*
X0126929Y0097183D03*
X0126762Y0097183D03*
X0126429Y0097183D03*
X0126262Y0097183D03*
X0125929Y0097183D03*
X0125762Y0097183D03*
X0125429Y0097183D03*
X0125262Y0097183D03*
X0124929Y0097183D03*
X0124762Y0097183D03*
X0124429Y0097183D03*
X0124262Y0097183D03*
X0120429Y0096183D03*
X0120262Y0096183D03*
X0119929Y0096183D03*
X0119762Y0096183D03*
X0118429Y0095183D03*
X0118262Y0095183D03*
X0115929Y0097683D03*
X0112762Y0096683D03*
X0108262Y0099683D03*
X0108762Y0103183D03*
X0108929Y0103183D03*
X0112262Y0102183D03*
X0112429Y0102183D03*
X0112429Y0103183D03*
X0113262Y0103183D03*
X0118929Y0102183D03*
X0119262Y0102183D03*
X0119429Y0102183D03*
X0119762Y0102183D03*
X0119929Y0102183D03*
X0125762Y0102683D03*
X0132429Y0105183D03*
X0132929Y0105183D03*
X0133262Y0105183D03*
X0132762Y0109183D03*
X0133262Y0111183D03*
X0132262Y0112183D03*
X0131762Y0112683D03*
X0129929Y0114183D03*
X0129762Y0114183D03*
X0128429Y0115183D03*
X0128262Y0115183D03*
X0127429Y0115683D03*
X0126429Y0116183D03*
X0123929Y0117183D03*
X0120429Y0116183D03*
X0120262Y0116183D03*
X0120262Y0118183D03*
X0120429Y0118183D03*
X0119929Y0118183D03*
X0118262Y0114183D03*
X0118429Y0112183D03*
X0118762Y0112183D03*
X0118929Y0112183D03*
X0122429Y0111183D03*
X0124762Y0110183D03*
X0126262Y0109183D03*
X0126929Y0108683D03*
X0126762Y0112683D03*
X0113929Y0112183D03*
X0113762Y0112183D03*
X0113429Y0112183D03*
X0113262Y0112183D03*
X0113262Y0115183D03*
X0113429Y0115183D03*
X0112262Y0118183D03*
X0111929Y0118183D03*
X0111762Y0118183D03*
X0108429Y0117183D03*
X0108262Y0117183D03*
X0106929Y0116683D03*
X0105929Y0116183D03*
X0105762Y0116183D03*
X0103929Y0115183D03*
X0102429Y0114183D03*
X0101762Y0113683D03*
X0104262Y0113183D03*
X0105929Y0111183D03*
X0106762Y0111683D03*
X0107762Y0110183D03*
X0109762Y0111183D03*
X0109929Y0111183D03*
X0109762Y0114183D03*
X0105429Y0108683D03*
X0104762Y0108183D03*
X0104262Y0107683D03*
X0103762Y0107183D03*
X0103429Y0109183D03*
X0095762Y0102183D03*
X0095929Y0100183D03*
X0097429Y0100183D03*
X0101929Y0095683D03*
X0102429Y0093683D03*
X0104762Y0092183D03*
X0106762Y0092683D03*
X0107262Y0093183D03*
X0107429Y0093183D03*
X0111762Y0091183D03*
X0112762Y0091683D03*
X0114262Y0091183D03*
X0114429Y0091183D03*
X0113429Y0087183D03*
X0114762Y0086683D03*
X0115762Y0086183D03*
X0115929Y0086183D03*
X0118262Y0085183D03*
X0120262Y0084183D03*
X0118762Y0082183D03*
X0119262Y0081683D03*
X0119429Y0081683D03*
X0117429Y0082183D03*
X0121429Y0078183D03*
X0110929Y0078183D03*
X0110762Y0078183D03*
X0108429Y0079183D03*
X0108262Y0079183D03*
X0107429Y0079683D03*
X0106762Y0080183D03*
X0105929Y0080683D03*
X0105262Y0081183D03*
X0106262Y0078183D03*
X0106429Y0078183D03*
X0104429Y0077683D03*
X0102929Y0075183D03*
X0102762Y0075183D03*
X0101429Y0076183D03*
X0100929Y0076683D03*
X0100262Y0077183D03*
X0099262Y0078183D03*
X0104429Y0074183D03*
X0105429Y0073683D03*
X0106429Y0073183D03*
X0107262Y0075683D03*
X0107762Y0076183D03*
X0108929Y0072183D03*
X0109262Y0072183D03*
X0110929Y0085683D03*
X0110429Y0086183D03*
X0109929Y0086683D03*
X0109429Y0087183D03*
X0108929Y0087683D03*
X0108429Y0088183D03*
X0108762Y0089183D03*
X0108929Y0089183D03*
X0111262Y0088183D03*
X0100262Y0083683D03*
X0098262Y0085183D03*
X0096929Y0090183D03*
X0132262Y0094183D03*
X0132429Y0094183D03*
X0135929Y0095183D03*
X0137429Y0095183D03*
X0135262Y0099683D03*
X0136929Y0101683D03*
X0134262Y0086183D03*
D49*
X0134762Y0085933D03*
X0133429Y0086433D03*
X0135929Y0090433D03*
X0137262Y0090433D03*
X0126262Y0091433D03*
X0125762Y0091933D03*
X0125262Y0092433D03*
X0124929Y0087433D03*
X0127262Y0085433D03*
X0133262Y0082933D03*
X0135762Y0081433D03*
X0133762Y0078933D03*
X0133262Y0078433D03*
X0132262Y0077433D03*
X0131762Y0080433D03*
X0119762Y0081433D03*
X0119762Y0084433D03*
X0116762Y0081433D03*
X0116262Y0080933D03*
X0115762Y0080933D03*
X0115262Y0081433D03*
X0114762Y0081933D03*
X0114262Y0082433D03*
X0113762Y0082933D03*
X0113262Y0083433D03*
X0112762Y0083933D03*
X0112262Y0084433D03*
X0111762Y0084933D03*
X0102929Y0083433D03*
X0098762Y0085433D03*
X0097762Y0084933D03*
X0095929Y0086433D03*
X0095929Y0087433D03*
X0097262Y0087933D03*
X0097429Y0087933D03*
X0096429Y0090433D03*
X0103762Y0092933D03*
X0108262Y0096433D03*
X0109929Y0097433D03*
X0111429Y0095933D03*
X0113429Y0097433D03*
X0112762Y0101933D03*
X0103929Y0107433D03*
X0100762Y0106433D03*
X0099929Y0106933D03*
X0099262Y0107433D03*
X0098929Y0104933D03*
X0098762Y0104933D03*
X0096762Y0108433D03*
X0098262Y0110433D03*
X0098762Y0110933D03*
X0099762Y0111933D03*
X0100262Y0112433D03*
X0102929Y0111433D03*
X0106929Y0111933D03*
X0108762Y0114933D03*
X0109429Y0114433D03*
X0112762Y0115433D03*
X0113762Y0116433D03*
X0127262Y0108433D03*
X0128429Y0107433D03*
X0129262Y0106433D03*
X0129762Y0105933D03*
X0125929Y0102433D03*
X0134429Y0109933D03*
X0097762Y0100433D03*
X0096762Y0099933D03*
X0096929Y0080933D03*
X0097262Y0080433D03*
X0097762Y0079933D03*
D50*
X0097929Y0079598D03*
X0098262Y0079268D03*
X0098429Y0079098D03*
X0098762Y0078768D03*
X0099429Y0078098D03*
X0099762Y0077768D03*
X0100429Y0077098D03*
X0101262Y0080098D03*
X0099262Y0081598D03*
X0099929Y0083598D03*
X0099262Y0085598D03*
X0098429Y0085268D03*
X0097929Y0085098D03*
X0097429Y0084768D03*
X0097262Y0084598D03*
X0096429Y0087598D03*
X0096762Y0087768D03*
X0097762Y0088098D03*
X0097429Y0090268D03*
X0097262Y0090268D03*
X0096262Y0091768D03*
X0096762Y0092098D03*
X0094929Y0094098D03*
X0094429Y0094268D03*
X0096762Y0095268D03*
X0101929Y0094098D03*
X0102762Y0095768D03*
X0103262Y0095768D03*
X0103429Y0095598D03*
X0104929Y0094598D03*
X0107762Y0093598D03*
X0108429Y0096268D03*
X0110762Y0096598D03*
X0111762Y0096098D03*
X0113262Y0097268D03*
X0113429Y0101768D03*
X0113429Y0103098D03*
X0112262Y0103098D03*
X0104929Y0108268D03*
X0103262Y0106768D03*
X0102929Y0106268D03*
X0102762Y0106098D03*
X0101762Y0104768D03*
X0099762Y0107098D03*
X0097929Y0104598D03*
X0097262Y0104268D03*
X0096929Y0102268D03*
X0096762Y0102268D03*
X0097262Y0102098D03*
X0096262Y0100098D03*
X0095762Y0100268D03*
X0102262Y0109098D03*
X0099429Y0111598D03*
X0099929Y0112098D03*
X0098929Y0111098D03*
X0098429Y0110598D03*
X0097762Y0109768D03*
X0101262Y0113268D03*
X0108929Y0114768D03*
X0109929Y0114098D03*
X0118429Y0114098D03*
X0119429Y0115098D03*
X0119262Y0115268D03*
X0127429Y0108268D03*
X0128762Y0107098D03*
X0129429Y0106268D03*
X0130262Y0105268D03*
X0130762Y0104598D03*
X0132762Y0105098D03*
X0134929Y0106268D03*
X0134929Y0109268D03*
X0134762Y0109598D03*
X0134262Y0110098D03*
X0133762Y0110768D03*
X0133429Y0111098D03*
X0132762Y0111768D03*
X0132429Y0112098D03*
X0131262Y0113098D03*
X0131762Y0108598D03*
X0131429Y0108268D03*
X0131262Y0108098D03*
X0129262Y0100768D03*
X0129429Y0100598D03*
X0126762Y0101268D03*
X0136262Y0099598D03*
X0136429Y0099768D03*
X0136262Y0095098D03*
X0137262Y0095098D03*
X0135429Y0092268D03*
X0136429Y0090268D03*
X0136762Y0090268D03*
X0136929Y0090268D03*
X0134429Y0086098D03*
X0135262Y0085598D03*
X0133429Y0082768D03*
X0132929Y0083098D03*
X0132762Y0083268D03*
X0131762Y0083598D03*
X0129929Y0084098D03*
X0129762Y0083768D03*
X0128262Y0084598D03*
X0127929Y0084768D03*
X0127429Y0084268D03*
X0127429Y0085268D03*
X0126262Y0086268D03*
X0124762Y0087598D03*
X0123929Y0088268D03*
X0123429Y0088768D03*
X0126762Y0090768D03*
X0126429Y0091268D03*
X0125929Y0091768D03*
X0125429Y0092268D03*
X0116929Y0090598D03*
X0118762Y0083598D03*
X0120429Y0084098D03*
X0119929Y0081268D03*
X0117262Y0082098D03*
X0116929Y0081598D03*
X0116429Y0081098D03*
X0115429Y0081268D03*
X0114929Y0081768D03*
X0114429Y0082268D03*
X0113929Y0082768D03*
X0113429Y0083268D03*
X0112929Y0083768D03*
X0112429Y0084268D03*
X0111929Y0084768D03*
X0111429Y0085268D03*
X0104762Y0081598D03*
X0103262Y0083098D03*
X0102762Y0083598D03*
X0102429Y0084098D03*
X0102262Y0084268D03*
X0096762Y0081268D03*
X0104762Y0077768D03*
X0104762Y0076268D03*
X0106762Y0075098D03*
X0108262Y0076598D03*
X0118262Y0073098D03*
X0125429Y0076768D03*
X0127762Y0081768D03*
X0130262Y0081768D03*
X0131762Y0081598D03*
X0132262Y0080098D03*
X0133429Y0078598D03*
X0133929Y0079098D03*
X0134262Y0079598D03*
X0134429Y0079768D03*
X0134762Y0080098D03*
X0135262Y0080768D03*
X0135929Y0081768D03*
X0132929Y0078098D03*
X0130929Y0076268D03*
X0108429Y0090268D03*
X0102762Y0091598D03*
X0108262Y0098768D03*
D51*
X0109095Y0098848D03*
X0109095Y0098018D03*
X0109595Y0097518D03*
X0111595Y0096018D03*
X0112595Y0096518D03*
X0113095Y0097018D03*
X0116595Y0097518D03*
X0117095Y0097518D03*
X0120095Y0094848D03*
X0121095Y0094518D03*
X0122595Y0094018D03*
X0123095Y0093848D03*
X0123595Y0093518D03*
X0124595Y0093018D03*
X0125095Y0092518D03*
X0125095Y0095518D03*
X0125595Y0095518D03*
X0123095Y0095848D03*
X0122595Y0095848D03*
X0121095Y0089848D03*
X0122095Y0089518D03*
X0123095Y0089018D03*
X0123595Y0088518D03*
X0125095Y0087348D03*
X0125595Y0086848D03*
X0126595Y0086018D03*
X0127095Y0085518D03*
X0126595Y0083518D03*
X0125595Y0082848D03*
X0124095Y0081848D03*
X0123595Y0081518D03*
X0122595Y0081018D03*
X0122095Y0080848D03*
X0120595Y0080848D03*
X0119595Y0081518D03*
X0119095Y0081848D03*
X0118595Y0083518D03*
X0119095Y0083848D03*
X0119095Y0084848D03*
X0118595Y0085018D03*
X0117595Y0085518D03*
X0116595Y0085848D03*
X0115095Y0086518D03*
X0112595Y0087518D03*
X0112095Y0087848D03*
X0111595Y0088018D03*
X0110595Y0088518D03*
X0109595Y0088848D03*
X0108595Y0088018D03*
X0108095Y0088518D03*
X0109095Y0087518D03*
X0109595Y0087018D03*
X0110095Y0086518D03*
X0110595Y0086018D03*
X0111095Y0085518D03*
X0116095Y0080848D03*
X0117095Y0081848D03*
X0120095Y0084348D03*
X0125095Y0079848D03*
X0124595Y0079518D03*
X0123595Y0079018D03*
X0123095Y0078848D03*
X0122595Y0078518D03*
X0120095Y0077848D03*
X0118595Y0077518D03*
X0118095Y0077518D03*
X0114095Y0077518D03*
X0113595Y0077518D03*
X0112095Y0077848D03*
X0109095Y0078848D03*
X0108095Y0079348D03*
X0107095Y0079848D03*
X0106095Y0080518D03*
X0105595Y0080848D03*
X0105095Y0081348D03*
X0100595Y0083518D03*
X0099095Y0081518D03*
X0098095Y0082348D03*
X0097595Y0084848D03*
X0096095Y0086348D03*
X0096095Y0087518D03*
X0097095Y0087848D03*
X0097595Y0090018D03*
X0095595Y0091518D03*
X0094595Y0090848D03*
X0101595Y0091518D03*
X0103595Y0092848D03*
X0104095Y0092848D03*
X0104095Y0091518D03*
X0102095Y0094018D03*
X0101095Y0095848D03*
X0103095Y0095848D03*
X0103595Y0095518D03*
X0105095Y0098018D03*
X0107095Y0096848D03*
X0106595Y0100518D03*
X0105595Y0100518D03*
X0105095Y0101348D03*
X0105095Y0102518D03*
X0104595Y0102518D03*
X0104095Y0102518D03*
X0105595Y0102518D03*
X0106095Y0102518D03*
X0106595Y0102518D03*
X0106595Y0101518D03*
X0107095Y0101518D03*
X0108595Y0101848D03*
X0108595Y0100518D03*
X0109095Y0100518D03*
X0109595Y0100518D03*
X0110095Y0100518D03*
X0110595Y0100518D03*
X0110095Y0101848D03*
X0112595Y0102018D03*
X0113095Y0103348D03*
X0115595Y0101848D03*
X0116095Y0101848D03*
X0122595Y0102518D03*
X0123095Y0102518D03*
X0123595Y0102518D03*
X0129095Y0100848D03*
X0132095Y0097518D03*
X0130595Y0094518D03*
X0129095Y0094848D03*
X0133095Y0094018D03*
X0136595Y0095018D03*
X0135595Y0096848D03*
X0135595Y0099518D03*
X0135595Y0104848D03*
X0135095Y0104848D03*
X0133595Y0110848D03*
X0132595Y0111848D03*
X0132095Y0112348D03*
X0131595Y0112848D03*
X0130095Y0114018D03*
X0129595Y0114348D03*
X0128595Y0115018D03*
X0128095Y0115348D03*
X0127595Y0115518D03*
X0127095Y0115848D03*
X0126095Y0116348D03*
X0125595Y0116518D03*
X0125095Y0116848D03*
X0123095Y0117518D03*
X0121595Y0117848D03*
X0117595Y0118518D03*
X0117095Y0118518D03*
X0116595Y0118518D03*
X0116095Y0118518D03*
X0115595Y0118518D03*
X0115095Y0118518D03*
X0114595Y0118518D03*
X0110595Y0117848D03*
X0109095Y0117518D03*
X0106595Y0116518D03*
X0105095Y0115848D03*
X0104595Y0115518D03*
X0105595Y0114018D03*
X0106095Y0112848D03*
X0106595Y0111518D03*
X0107095Y0109848D03*
X0106595Y0109518D03*
X0105595Y0108848D03*
X0104595Y0108018D03*
X0104095Y0107518D03*
X0102595Y0108848D03*
X0101595Y0107348D03*
X0102595Y0111518D03*
X0101595Y0113518D03*
X0102095Y0113848D03*
X0099595Y0111848D03*
X0098595Y0103348D03*
X0096595Y0102348D03*
X0096095Y0102348D03*
X0107095Y0093018D03*
X0110095Y0090518D03*
X0111095Y0090848D03*
X0112095Y0091348D03*
X0113095Y0091518D03*
X0115595Y0090848D03*
X0116595Y0090518D03*
X0117595Y0090848D03*
X0118595Y0090518D03*
X0129595Y0084848D03*
X0128595Y0082518D03*
X0128095Y0082018D03*
X0126595Y0080848D03*
X0126095Y0080518D03*
X0131595Y0080518D03*
X0132095Y0081518D03*
X0131595Y0076848D03*
X0130595Y0076018D03*
X0129595Y0075348D03*
X0128095Y0074348D03*
X0127095Y0073848D03*
X0126595Y0073518D03*
X0125095Y0072848D03*
X0124095Y0072518D03*
X0122095Y0071848D03*
X0120595Y0071518D03*
X0112095Y0071518D03*
X0111595Y0071518D03*
X0110095Y0071848D03*
X0108095Y0072518D03*
X0107095Y0072848D03*
X0106095Y0073348D03*
X0105095Y0073848D03*
X0103095Y0075018D03*
X0102595Y0075348D03*
X0102095Y0075848D03*
X0101095Y0076518D03*
X0100595Y0076848D03*
X0099595Y0077848D03*
X0098595Y0078848D03*
X0107595Y0076018D03*
X0108095Y0076518D03*
X0134095Y0087518D03*
X0134595Y0087848D03*
X0135095Y0087848D03*
X0137095Y0090348D03*
X0127095Y0108518D03*
X0126595Y0108848D03*
X0126095Y0109348D03*
X0124095Y0110518D03*
X0122095Y0111348D03*
X0121595Y0111518D03*
X0120595Y0111848D03*
X0118595Y0114018D03*
X0112095Y0111848D03*
X0110595Y0111518D03*
X0109095Y0110848D03*
D52*
X0137095Y0100848D03*
D53*
X0137095Y0105933D03*
X0131095Y0107933D03*
X0120095Y0114433D03*
X0118595Y0115933D03*
X0100595Y0102933D03*
X0095095Y0083933D03*
X0120095Y0081433D03*
D54*
X0119429Y0084433D03*
X0119262Y0084433D03*
X0127262Y0089933D03*
X0136929Y0083433D03*
X0133762Y0082433D03*
X0132929Y0081433D03*
X0109762Y0092433D03*
X0108929Y0095433D03*
X0107762Y0096933D03*
X0100429Y0102433D03*
X0100429Y0106433D03*
X0098929Y0107933D03*
X0094929Y0105433D03*
X0094762Y0104933D03*
X0095262Y0094433D03*
X0094929Y0090933D03*
X0106429Y0090433D03*
X0102429Y0079433D03*
X0131929Y0102433D03*
X0131762Y0102933D03*
X0112262Y0115933D03*
D55*
X0113595Y0116433D03*
X0112595Y0113933D03*
X0108595Y0114933D03*
X0107095Y0111933D03*
X0105095Y0108433D03*
X0103095Y0106433D03*
X0102595Y0105933D03*
X0099095Y0104933D03*
X0098595Y0104933D03*
X0097595Y0104433D03*
X0097095Y0104433D03*
X0098595Y0107933D03*
X0097095Y0108933D03*
X0095595Y0100433D03*
X0096595Y0099933D03*
X0103595Y0097933D03*
X0107595Y0093433D03*
X0109095Y0095433D03*
X0116595Y0096433D03*
X0126095Y0086433D03*
X0127095Y0083933D03*
X0119595Y0084433D03*
X0117595Y0082433D03*
X0131095Y0076433D03*
X0134595Y0079933D03*
X0134595Y0085933D03*
X0136095Y0090433D03*
X0135595Y0095433D03*
X0131595Y0108433D03*
X0133095Y0111433D03*
X0103095Y0092933D03*
X0096595Y0091933D03*
X0096595Y0095433D03*
X0096095Y0095433D03*
X0098595Y0085433D03*
X0098095Y0079433D03*
X0099095Y0078433D03*
X0100095Y0077433D03*
D56*
X0101595Y0076183D03*
X0103595Y0074683D03*
X0104595Y0074183D03*
X0104595Y0076183D03*
X0106595Y0073183D03*
X0109095Y0072183D03*
X0110595Y0073683D03*
X0114095Y0071183D03*
X0114595Y0071183D03*
X0115095Y0071183D03*
X0117095Y0071183D03*
X0117595Y0071183D03*
X0118095Y0071183D03*
X0123095Y0072183D03*
X0128595Y0074683D03*
X0130095Y0075683D03*
X0127095Y0081183D03*
X0125595Y0080183D03*
X0124095Y0079183D03*
X0123095Y0081183D03*
X0121595Y0078183D03*
X0118595Y0082183D03*
X0118095Y0085183D03*
X0117095Y0085683D03*
X0113595Y0087183D03*
X0111095Y0088183D03*
X0114095Y0091183D03*
X0119595Y0090183D03*
X0122095Y0094183D03*
X0120595Y0096183D03*
X0120095Y0096183D03*
X0119595Y0096183D03*
X0118595Y0095183D03*
X0118095Y0095183D03*
X0124095Y0097183D03*
X0124595Y0097183D03*
X0125095Y0097183D03*
X0125595Y0097183D03*
X0126095Y0097183D03*
X0126595Y0097183D03*
X0127095Y0097183D03*
X0127095Y0095183D03*
X0131595Y0097183D03*
X0132595Y0094183D03*
X0136095Y0095183D03*
X0133095Y0105183D03*
X0128595Y0107183D03*
X0128095Y0107683D03*
X0127595Y0108183D03*
X0124595Y0110183D03*
X0122595Y0111183D03*
X0125595Y0112683D03*
X0126595Y0116183D03*
X0124095Y0117183D03*
X0120095Y0116183D03*
X0120095Y0118183D03*
X0113095Y0115183D03*
X0113595Y0112183D03*
X0118595Y0112183D03*
X0119095Y0112183D03*
X0112095Y0118183D03*
X0108095Y0117183D03*
X0104095Y0115183D03*
X0104095Y0113183D03*
X0101095Y0113183D03*
X0100595Y0112683D03*
X0101095Y0106683D03*
X0098095Y0104683D03*
X0097095Y0102183D03*
X0095595Y0102183D03*
X0103095Y0097183D03*
X0102095Y0095683D03*
X0100595Y0094183D03*
X0105095Y0092183D03*
X0110595Y0097683D03*
X0107095Y0100683D03*
X0109095Y0103183D03*
X0111595Y0103183D03*
X0106095Y0109183D03*
X0107595Y0110183D03*
X0119095Y0102183D03*
X0119595Y0102183D03*
X0120095Y0102183D03*
X0124095Y0088183D03*
X0124595Y0087683D03*
X0128095Y0084683D03*
X0126095Y0083183D03*
X0106595Y0080183D03*
X0103595Y0080183D03*
X0104095Y0082183D03*
X0103595Y0082683D03*
X0100095Y0083683D03*
X0096595Y0087683D03*
X0097095Y0090183D03*
X0129095Y0114683D03*
X0130595Y0113683D03*
X0131095Y0113183D03*
D57*
X0133095Y0109018D03*
X0136095Y0104518D03*
X0125095Y0101018D03*
X0124595Y0101018D03*
X0124095Y0101018D03*
X0123595Y0101018D03*
X0123095Y0101018D03*
X0122595Y0101018D03*
X0121095Y0101018D03*
X0117595Y0102018D03*
X0120595Y0097348D03*
X0121595Y0096018D03*
X0119095Y0090348D03*
X0128095Y0095018D03*
X0117095Y0112348D03*
X0116595Y0112348D03*
X0115595Y0112348D03*
X0115095Y0112348D03*
X0116595Y0114018D03*
X0119095Y0118348D03*
X0121095Y0118018D03*
X0111095Y0113348D03*
X0109595Y0115848D03*
X0103095Y0102348D03*
X0100595Y0093348D03*
X0103095Y0091348D03*
X0106595Y0078018D03*
X0108095Y0074348D03*
X0112095Y0076018D03*
X0113095Y0073018D03*
X0119595Y0073018D03*
X0119595Y0071348D03*
X0116595Y0077348D03*
X0116095Y0077348D03*
X0115595Y0077348D03*
D58*
X0115429Y0077433D03*
X0115262Y0077433D03*
X0114929Y0077433D03*
X0114762Y0077433D03*
X0114429Y0077433D03*
X0113429Y0077603D03*
X0113262Y0077603D03*
X0112929Y0077603D03*
X0112429Y0077763D03*
X0111762Y0077933D03*
X0111429Y0077933D03*
X0111262Y0078103D03*
X0110429Y0078263D03*
X0110262Y0078433D03*
X0109429Y0078763D03*
X0108929Y0078933D03*
X0107929Y0079433D03*
X0105262Y0078933D03*
X0104929Y0079103D03*
X0104262Y0077603D03*
X0103929Y0076603D03*
X0103429Y0076933D03*
X0104429Y0076263D03*
X0103762Y0074603D03*
X0104262Y0074263D03*
X0104929Y0073933D03*
X0105262Y0073763D03*
X0105929Y0073433D03*
X0106262Y0073263D03*
X0106762Y0073103D03*
X0106929Y0072933D03*
X0107762Y0072603D03*
X0107929Y0072603D03*
X0108429Y0072433D03*
X0108762Y0072263D03*
X0109429Y0072103D03*
X0109762Y0071933D03*
X0109929Y0071933D03*
X0110762Y0071763D03*
X0111262Y0071603D03*
X0111429Y0071603D03*
X0112262Y0071433D03*
X0112429Y0071433D03*
X0112929Y0071263D03*
X0113262Y0071263D03*
X0113429Y0071263D03*
X0113762Y0071263D03*
X0115762Y0071103D03*
X0115929Y0071103D03*
X0116262Y0071103D03*
X0116429Y0071103D03*
X0118762Y0071263D03*
X0118929Y0071263D03*
X0119262Y0071263D03*
X0119429Y0071263D03*
X0119762Y0071433D03*
X0119929Y0071433D03*
X0120929Y0071603D03*
X0121262Y0071603D03*
X0121429Y0071763D03*
X0122262Y0071933D03*
X0122429Y0071933D03*
X0122762Y0072103D03*
X0122929Y0072103D03*
X0123429Y0072263D03*
X0123762Y0072433D03*
X0123929Y0072433D03*
X0124429Y0072603D03*
X0124762Y0072763D03*
X0125262Y0072933D03*
X0125429Y0072933D03*
X0126262Y0073433D03*
X0126762Y0073603D03*
X0126929Y0073763D03*
X0127429Y0073933D03*
X0128762Y0074763D03*
X0129262Y0075103D03*
X0126429Y0076763D03*
X0125262Y0076763D03*
X0123762Y0079103D03*
X0123429Y0078933D03*
X0122929Y0078763D03*
X0122762Y0078603D03*
X0121929Y0078263D03*
X0121762Y0078263D03*
X0121262Y0078103D03*
X0120929Y0077933D03*
X0120762Y0077933D03*
X0119929Y0077763D03*
X0119762Y0077763D03*
X0119429Y0077603D03*
X0119262Y0077603D03*
X0118929Y0077603D03*
X0117929Y0077433D03*
X0117762Y0077433D03*
X0117429Y0077433D03*
X0117262Y0077433D03*
X0116929Y0077433D03*
X0118262Y0075603D03*
X0118929Y0075763D03*
X0119262Y0075603D03*
X0120429Y0073263D03*
X0115429Y0075603D03*
X0111262Y0073433D03*
X0106429Y0075103D03*
X0102262Y0075603D03*
X0101429Y0078603D03*
X0101262Y0078763D03*
X0101429Y0080103D03*
X0101762Y0080103D03*
X0103762Y0080263D03*
X0100762Y0082603D03*
X0100429Y0083603D03*
X0098929Y0081433D03*
X0096262Y0086433D03*
X0098262Y0087933D03*
X0096762Y0090263D03*
X0095762Y0090433D03*
X0097262Y0091933D03*
X0101262Y0091603D03*
X0102929Y0091433D03*
X0103762Y0091433D03*
X0103262Y0092763D03*
X0104929Y0092263D03*
X0104429Y0095263D03*
X0104262Y0095433D03*
X0104262Y0096933D03*
X0104429Y0096933D03*
X0104762Y0096933D03*
X0104929Y0096933D03*
X0105262Y0096933D03*
X0105429Y0096933D03*
X0105762Y0096933D03*
X0105762Y0097933D03*
X0105929Y0097933D03*
X0106262Y0097933D03*
X0106429Y0097933D03*
X0105429Y0097933D03*
X0105262Y0097933D03*
X0105429Y0098933D03*
X0105762Y0098933D03*
X0105762Y0099763D03*
X0105262Y0099763D03*
X0105262Y0101433D03*
X0105429Y0101433D03*
X0105762Y0101433D03*
X0105929Y0101433D03*
X0106262Y0101433D03*
X0106762Y0102603D03*
X0106929Y0102603D03*
X0107262Y0102763D03*
X0107429Y0102763D03*
X0108262Y0102933D03*
X0108429Y0103103D03*
X0109262Y0103263D03*
X0109429Y0103263D03*
X0109762Y0103263D03*
X0110262Y0103433D03*
X0110429Y0103433D03*
X0110762Y0103433D03*
X0111262Y0103263D03*
X0111429Y0103263D03*
X0112762Y0103433D03*
X0112929Y0103433D03*
X0114262Y0101763D03*
X0114429Y0101763D03*
X0114762Y0101763D03*
X0114929Y0101763D03*
X0114929Y0100933D03*
X0114762Y0100933D03*
X0114429Y0100933D03*
X0115262Y0100933D03*
X0115429Y0100933D03*
X0115762Y0100933D03*
X0115929Y0100933D03*
X0116262Y0100933D03*
X0116429Y0100933D03*
X0116762Y0100933D03*
X0116929Y0100933D03*
X0117262Y0100933D03*
X0117429Y0100933D03*
X0117762Y0100933D03*
X0117929Y0100933D03*
X0118262Y0100933D03*
X0118429Y0100933D03*
X0118762Y0100933D03*
X0118929Y0100933D03*
X0119262Y0100933D03*
X0119429Y0100933D03*
X0119762Y0100933D03*
X0119929Y0100933D03*
X0120262Y0100933D03*
X0120429Y0100933D03*
X0120762Y0100933D03*
X0120929Y0100933D03*
X0121262Y0100933D03*
X0121429Y0100933D03*
X0121762Y0100933D03*
X0121929Y0100933D03*
X0122262Y0100933D03*
X0122429Y0100933D03*
X0122429Y0102433D03*
X0122262Y0102433D03*
X0121929Y0102433D03*
X0121762Y0102433D03*
X0120929Y0102263D03*
X0120762Y0102263D03*
X0120429Y0102263D03*
X0120262Y0102263D03*
X0118762Y0102103D03*
X0118429Y0102103D03*
X0118262Y0102103D03*
X0117929Y0102103D03*
X0117762Y0102103D03*
X0117429Y0101933D03*
X0117262Y0101933D03*
X0116929Y0101933D03*
X0116762Y0101933D03*
X0116429Y0101933D03*
X0115762Y0097763D03*
X0115429Y0097763D03*
X0115262Y0097763D03*
X0114929Y0097763D03*
X0114762Y0097763D03*
X0114429Y0097763D03*
X0116929Y0096433D03*
X0117262Y0096433D03*
X0117429Y0096433D03*
X0117762Y0096433D03*
X0117929Y0096433D03*
X0118762Y0096263D03*
X0118929Y0096263D03*
X0119262Y0096263D03*
X0119429Y0096263D03*
X0119429Y0097433D03*
X0119262Y0097433D03*
X0118929Y0097433D03*
X0118762Y0097433D03*
X0118429Y0097433D03*
X0118262Y0097433D03*
X0117929Y0097433D03*
X0117762Y0097433D03*
X0119762Y0097433D03*
X0119929Y0097433D03*
X0120262Y0097433D03*
X0120429Y0097433D03*
X0121262Y0097263D03*
X0121429Y0097263D03*
X0121762Y0097263D03*
X0121929Y0097263D03*
X0122262Y0097263D03*
X0122429Y0097263D03*
X0122762Y0097263D03*
X0122929Y0097263D03*
X0123262Y0097263D03*
X0123429Y0097263D03*
X0123762Y0097263D03*
X0123929Y0097263D03*
X0123929Y0095763D03*
X0123762Y0095763D03*
X0123429Y0095763D03*
X0124262Y0095603D03*
X0124429Y0095603D03*
X0124762Y0095603D03*
X0125762Y0095433D03*
X0125929Y0095433D03*
X0126429Y0095263D03*
X0126762Y0095263D03*
X0127762Y0095103D03*
X0127929Y0095103D03*
X0128262Y0094933D03*
X0128429Y0094933D03*
X0129429Y0094763D03*
X0129762Y0094763D03*
X0130262Y0094603D03*
X0130429Y0094603D03*
X0131262Y0094433D03*
X0131429Y0094433D03*
X0131762Y0094263D03*
X0131929Y0094263D03*
X0132762Y0094103D03*
X0132929Y0094103D03*
X0131429Y0097103D03*
X0130929Y0096933D03*
X0129762Y0097103D03*
X0129429Y0097103D03*
X0129262Y0097103D03*
X0128929Y0097103D03*
X0128762Y0097103D03*
X0128429Y0097103D03*
X0128262Y0097103D03*
X0127929Y0097103D03*
X0127762Y0097103D03*
X0127429Y0097103D03*
X0127262Y0097103D03*
X0127262Y0101103D03*
X0127429Y0101103D03*
X0127762Y0101103D03*
X0127929Y0101103D03*
X0128262Y0101103D03*
X0128429Y0101103D03*
X0128762Y0100933D03*
X0128929Y0100933D03*
X0126929Y0101103D03*
X0125429Y0101103D03*
X0125262Y0101103D03*
X0124762Y0102603D03*
X0124429Y0102603D03*
X0124262Y0102603D03*
X0123929Y0102603D03*
X0125262Y0102763D03*
X0125429Y0102763D03*
X0125929Y0109433D03*
X0125429Y0109763D03*
X0124429Y0110263D03*
X0124262Y0110433D03*
X0123762Y0110603D03*
X0122762Y0111103D03*
X0122262Y0111263D03*
X0121929Y0111433D03*
X0121262Y0111603D03*
X0120929Y0111763D03*
X0120762Y0111763D03*
X0119929Y0111933D03*
X0119762Y0111933D03*
X0119429Y0112103D03*
X0119262Y0112103D03*
X0118262Y0112263D03*
X0117929Y0112263D03*
X0117762Y0112263D03*
X0117429Y0112263D03*
X0116429Y0112433D03*
X0116262Y0112433D03*
X0115929Y0112433D03*
X0114929Y0112263D03*
X0114762Y0112263D03*
X0114429Y0112263D03*
X0114262Y0112263D03*
X0112929Y0112103D03*
X0112762Y0112103D03*
X0112429Y0111933D03*
X0112262Y0111933D03*
X0111429Y0111763D03*
X0111262Y0111603D03*
X0110429Y0111433D03*
X0109262Y0110933D03*
X0108762Y0110763D03*
X0107929Y0110263D03*
X0107262Y0109933D03*
X0106929Y0109763D03*
X0106762Y0109603D03*
X0106429Y0109433D03*
X0105929Y0109103D03*
X0106429Y0111433D03*
X0105262Y0113933D03*
X0104429Y0115433D03*
X0104762Y0115603D03*
X0104929Y0115763D03*
X0105429Y0115933D03*
X0106262Y0116433D03*
X0106762Y0116603D03*
X0107762Y0116933D03*
X0107929Y0117103D03*
X0108762Y0117433D03*
X0108929Y0117433D03*
X0109762Y0117603D03*
X0109929Y0117763D03*
X0110762Y0117933D03*
X0110929Y0117933D03*
X0111262Y0118103D03*
X0111429Y0118103D03*
X0112429Y0118263D03*
X0112762Y0118263D03*
X0112929Y0118263D03*
X0113429Y0118433D03*
X0113762Y0118433D03*
X0113929Y0118433D03*
X0113429Y0116603D03*
X0112929Y0116603D03*
X0112762Y0116433D03*
X0113929Y0116433D03*
X0113429Y0113763D03*
X0113262Y0113763D03*
X0112929Y0113763D03*
X0112429Y0113933D03*
X0107762Y0115103D03*
X0103262Y0114763D03*
X0102429Y0111603D03*
X0102262Y0111603D03*
X0101762Y0111433D03*
X0100929Y0110433D03*
X0102762Y0108933D03*
X0102929Y0108933D03*
X0103262Y0109103D03*
X0098429Y0107763D03*
X0094929Y0101103D03*
X0094762Y0095433D03*
X0103762Y0096933D03*
X0103929Y0096933D03*
X0107762Y0101603D03*
X0108262Y0101763D03*
X0109262Y0101933D03*
X0109429Y0101933D03*
X0109762Y0101933D03*
X0110429Y0101763D03*
X0110429Y0098933D03*
X0110262Y0098933D03*
X0109929Y0098933D03*
X0109762Y0098933D03*
X0109429Y0098933D03*
X0109262Y0098933D03*
X0110762Y0098933D03*
X0110762Y0097763D03*
X0116929Y0095433D03*
X0117429Y0095263D03*
X0117762Y0095263D03*
X0117929Y0095263D03*
X0118762Y0095103D03*
X0118929Y0095103D03*
X0119262Y0094933D03*
X0119429Y0094933D03*
X0120262Y0094763D03*
X0120429Y0094763D03*
X0120762Y0094603D03*
X0120929Y0094603D03*
X0121429Y0094433D03*
X0121762Y0094263D03*
X0121929Y0094263D03*
X0122429Y0094103D03*
X0122762Y0093933D03*
X0123262Y0093763D03*
X0123429Y0093603D03*
X0124429Y0093103D03*
X0122429Y0095933D03*
X0122262Y0095933D03*
X0121929Y0095933D03*
X0121762Y0095933D03*
X0121429Y0096103D03*
X0121262Y0096103D03*
X0120929Y0096103D03*
X0120762Y0096103D03*
X0118929Y0090433D03*
X0118762Y0090433D03*
X0119262Y0090263D03*
X0119429Y0090263D03*
X0120262Y0090103D03*
X0120429Y0089933D03*
X0121262Y0089763D03*
X0121429Y0089763D03*
X0121762Y0089603D03*
X0121929Y0089603D03*
X0122429Y0089433D03*
X0122762Y0089263D03*
X0117929Y0090603D03*
X0117762Y0090763D03*
X0116262Y0090603D03*
X0115929Y0090763D03*
X0115762Y0090763D03*
X0114929Y0090933D03*
X0114762Y0091103D03*
X0113929Y0091263D03*
X0113762Y0091263D03*
X0113429Y0091433D03*
X0112929Y0091603D03*
X0111929Y0091263D03*
X0110929Y0090763D03*
X0110762Y0090763D03*
X0109929Y0090433D03*
X0109762Y0090433D03*
X0109429Y0090263D03*
X0109262Y0090263D03*
X0108429Y0089433D03*
X0109429Y0088933D03*
X0109929Y0088763D03*
X0110929Y0088263D03*
X0111429Y0088103D03*
X0111762Y0087933D03*
X0112262Y0087763D03*
X0112429Y0087603D03*
X0113262Y0087263D03*
X0113762Y0087103D03*
X0114929Y0086603D03*
X0115429Y0086433D03*
X0116429Y0085933D03*
X0116929Y0085763D03*
X0117262Y0085603D03*
X0117762Y0085433D03*
X0117929Y0085263D03*
X0118429Y0085103D03*
X0118762Y0084933D03*
X0120762Y0080763D03*
X0120929Y0080763D03*
X0121762Y0080763D03*
X0122429Y0080933D03*
X0122762Y0081103D03*
X0123262Y0081263D03*
X0123429Y0081433D03*
X0124429Y0081933D03*
X0124762Y0079603D03*
X0124429Y0079433D03*
X0129929Y0081603D03*
X0132429Y0080103D03*
X0134429Y0082603D03*
X0134262Y0100933D03*
X0135262Y0104763D03*
X0135929Y0104603D03*
X0133429Y0105103D03*
X0132262Y0105263D03*
X0132929Y0109103D03*
X0127929Y0115433D03*
X0126929Y0115933D03*
X0126262Y0116263D03*
X0125929Y0116433D03*
X0125429Y0116603D03*
X0125262Y0116763D03*
X0124762Y0116933D03*
X0124429Y0117103D03*
X0124262Y0117103D03*
X0123762Y0117263D03*
X0123429Y0117433D03*
X0123262Y0117433D03*
X0122762Y0117603D03*
X0122429Y0117763D03*
X0122262Y0117763D03*
X0121429Y0117933D03*
X0121262Y0117933D03*
X0120929Y0118103D03*
X0120762Y0118103D03*
X0119762Y0118263D03*
X0119429Y0118263D03*
X0119262Y0118263D03*
X0118929Y0118433D03*
X0118762Y0118433D03*
X0118429Y0118433D03*
X0118262Y0118433D03*
X0119429Y0116603D03*
X0119762Y0116433D03*
X0120262Y0114433D03*
X0119429Y0113763D03*
X0119262Y0113763D03*
X0118929Y0113763D03*
D59*
X0116762Y0114018D03*
X0115762Y0114018D03*
X0115762Y0112348D03*
X0115429Y0112348D03*
X0115262Y0112348D03*
X0116762Y0112348D03*
X0116929Y0112348D03*
X0117262Y0112348D03*
X0112262Y0114018D03*
X0110429Y0116018D03*
X0113262Y0118348D03*
X0105429Y0114018D03*
X0106262Y0111348D03*
X0101762Y0107348D03*
X0098429Y0103348D03*
X0102762Y0095018D03*
X0103262Y0091348D03*
X0103429Y0091348D03*
X0098429Y0087848D03*
X0096429Y0086348D03*
X0097929Y0082348D03*
X0104262Y0076348D03*
X0106262Y0075018D03*
X0108929Y0074018D03*
X0111429Y0073348D03*
X0112762Y0071348D03*
X0113929Y0073018D03*
X0111929Y0076018D03*
X0115762Y0077348D03*
X0115929Y0077348D03*
X0116262Y0077348D03*
X0116429Y0077348D03*
X0116762Y0077348D03*
X0118429Y0073018D03*
X0135762Y0092348D03*
X0129929Y0097018D03*
X0126262Y0095348D03*
X0125929Y0101018D03*
X0125762Y0101018D03*
X0124929Y0101018D03*
X0124762Y0101018D03*
X0124429Y0101018D03*
X0124262Y0101018D03*
X0123929Y0101018D03*
X0123762Y0101018D03*
X0123429Y0101018D03*
X0123262Y0101018D03*
X0122929Y0101018D03*
X0122762Y0101018D03*
X0121429Y0102348D03*
X0121262Y0102348D03*
X0120929Y0097348D03*
X0120762Y0097348D03*
X0118429Y0096348D03*
X0118262Y0096348D03*
X0117262Y0095348D03*
X0110929Y0103348D03*
X0109929Y0103348D03*
X0096429Y0094018D03*
X0093929Y0094848D03*
X0130262Y0107848D03*
X0134929Y0101348D03*
D60*
X0135095Y0099763D03*
X0133095Y0103933D03*
X0134595Y0104933D03*
X0135095Y0106263D03*
X0128595Y0101103D03*
X0128095Y0101103D03*
X0127595Y0101103D03*
X0127095Y0101103D03*
X0126095Y0101103D03*
X0125595Y0101103D03*
X0125595Y0102763D03*
X0124595Y0102603D03*
X0124095Y0102603D03*
X0122095Y0102433D03*
X0121595Y0102433D03*
X0121095Y0102263D03*
X0120595Y0102263D03*
X0120595Y0100933D03*
X0120095Y0100933D03*
X0119595Y0100933D03*
X0119095Y0100933D03*
X0118595Y0100933D03*
X0118095Y0100933D03*
X0117595Y0100933D03*
X0117095Y0100933D03*
X0116595Y0100933D03*
X0116095Y0100933D03*
X0115595Y0100933D03*
X0115095Y0100933D03*
X0114595Y0100933D03*
X0114595Y0101763D03*
X0115095Y0101763D03*
X0116595Y0101933D03*
X0117095Y0101933D03*
X0118095Y0102103D03*
X0118595Y0102103D03*
X0121595Y0100933D03*
X0122095Y0100933D03*
X0122095Y0097263D03*
X0121595Y0097263D03*
X0121095Y0097263D03*
X0120095Y0097433D03*
X0119595Y0097433D03*
X0119095Y0097433D03*
X0118595Y0097433D03*
X0118095Y0097433D03*
X0117595Y0097433D03*
X0117595Y0096433D03*
X0117095Y0096433D03*
X0117095Y0095433D03*
X0117595Y0095263D03*
X0118095Y0096433D03*
X0118595Y0096263D03*
X0119095Y0096263D03*
X0119095Y0095103D03*
X0119595Y0094933D03*
X0121095Y0096103D03*
X0122095Y0095933D03*
X0122595Y0097263D03*
X0123095Y0097263D03*
X0123595Y0097263D03*
X0123595Y0095763D03*
X0124595Y0095603D03*
X0126095Y0095433D03*
X0126595Y0095263D03*
X0127595Y0095103D03*
X0128595Y0094933D03*
X0129595Y0094763D03*
X0130095Y0094603D03*
X0131095Y0094433D03*
X0131595Y0094263D03*
X0132095Y0094263D03*
X0131095Y0096933D03*
X0130095Y0097103D03*
X0129595Y0097103D03*
X0129095Y0097103D03*
X0128595Y0097103D03*
X0128095Y0097103D03*
X0127595Y0097103D03*
X0124095Y0093263D03*
X0121595Y0094433D03*
X0120095Y0090103D03*
X0120595Y0089933D03*
X0121595Y0089603D03*
X0122595Y0089433D03*
X0118095Y0090603D03*
X0116095Y0090603D03*
X0115095Y0090933D03*
X0114595Y0091103D03*
X0113595Y0091433D03*
X0111595Y0091103D03*
X0110595Y0090603D03*
X0109595Y0090263D03*
X0109095Y0089103D03*
X0108595Y0089263D03*
X0110095Y0088603D03*
X0113095Y0087433D03*
X0114095Y0086933D03*
X0114595Y0086763D03*
X0115595Y0086263D03*
X0116095Y0086103D03*
X0121595Y0080763D03*
X0122095Y0078433D03*
X0121095Y0078103D03*
X0120595Y0077933D03*
X0119095Y0077603D03*
X0117595Y0077433D03*
X0117095Y0077433D03*
X0115095Y0077433D03*
X0114595Y0077433D03*
X0113095Y0077603D03*
X0112595Y0077763D03*
X0111595Y0077933D03*
X0111095Y0078103D03*
X0110595Y0078263D03*
X0110095Y0078433D03*
X0109595Y0078603D03*
X0108595Y0079103D03*
X0107595Y0079603D03*
X0105095Y0079103D03*
X0104595Y0078933D03*
X0104095Y0076433D03*
X0104095Y0074433D03*
X0105595Y0073603D03*
X0106595Y0075103D03*
X0107595Y0072763D03*
X0108595Y0072263D03*
X0109595Y0072103D03*
X0110595Y0071763D03*
X0111095Y0071603D03*
X0112595Y0071433D03*
X0113095Y0071263D03*
X0113595Y0071263D03*
X0115595Y0071103D03*
X0116095Y0071103D03*
X0116595Y0071103D03*
X0118595Y0071263D03*
X0119095Y0071263D03*
X0120095Y0071433D03*
X0121095Y0071603D03*
X0121595Y0071763D03*
X0122595Y0071933D03*
X0123595Y0072263D03*
X0124595Y0072603D03*
X0125595Y0073103D03*
X0126095Y0073263D03*
X0127595Y0074103D03*
X0129095Y0074933D03*
X0130095Y0081603D03*
X0131595Y0083603D03*
X0125095Y0082433D03*
X0124595Y0082103D03*
X0119095Y0075763D03*
X0116095Y0075433D03*
X0111095Y0076263D03*
X0101595Y0080103D03*
X0098595Y0081603D03*
X0096595Y0084603D03*
X0095095Y0088263D03*
X0095595Y0088433D03*
X0095595Y0090433D03*
X0096595Y0090263D03*
X0096595Y0093933D03*
X0094595Y0095433D03*
X0097095Y0099933D03*
X0097595Y0105763D03*
X0103095Y0108933D03*
X0101595Y0111263D03*
X0102095Y0111603D03*
X0102595Y0114263D03*
X0103095Y0114603D03*
X0103595Y0114933D03*
X0105095Y0113763D03*
X0105595Y0112763D03*
X0106095Y0111263D03*
X0108095Y0110433D03*
X0108595Y0110603D03*
X0109595Y0111103D03*
X0110095Y0111263D03*
X0111095Y0111603D03*
X0111595Y0111763D03*
X0112595Y0111933D03*
X0113095Y0112103D03*
X0114095Y0112263D03*
X0114595Y0112263D03*
X0116095Y0112433D03*
X0117595Y0112263D03*
X0118095Y0112263D03*
X0119595Y0112103D03*
X0120095Y0111933D03*
X0121095Y0111603D03*
X0123095Y0110933D03*
X0123595Y0110763D03*
X0125095Y0109933D03*
X0125595Y0109603D03*
X0119095Y0113763D03*
X0119595Y0116603D03*
X0119595Y0118263D03*
X0120595Y0118103D03*
X0122095Y0117763D03*
X0122595Y0117603D03*
X0123595Y0117263D03*
X0124595Y0116933D03*
X0118595Y0118433D03*
X0118095Y0118433D03*
X0114095Y0118433D03*
X0113595Y0118433D03*
X0113095Y0118263D03*
X0112595Y0118263D03*
X0111595Y0118103D03*
X0111095Y0117933D03*
X0110095Y0117763D03*
X0109595Y0117603D03*
X0108595Y0117263D03*
X0107595Y0116933D03*
X0107095Y0116763D03*
X0106095Y0116263D03*
X0105595Y0116103D03*
X0109095Y0112763D03*
X0113095Y0113763D03*
X0113595Y0113933D03*
X0112095Y0115933D03*
X0113095Y0116603D03*
X0112595Y0103433D03*
X0111095Y0103263D03*
X0110595Y0103433D03*
X0110095Y0103433D03*
X0109595Y0103263D03*
X0108595Y0103103D03*
X0108095Y0102933D03*
X0107595Y0102763D03*
X0107095Y0102603D03*
X0108095Y0101763D03*
X0109095Y0101933D03*
X0109595Y0101933D03*
X0110595Y0101603D03*
X0113095Y0101763D03*
X0110595Y0098933D03*
X0110095Y0098933D03*
X0109595Y0098933D03*
X0106095Y0097933D03*
X0105595Y0097933D03*
X0105595Y0096933D03*
X0105095Y0096933D03*
X0104595Y0096933D03*
X0104095Y0096933D03*
X0103595Y0096933D03*
X0104095Y0095433D03*
X0105595Y0098933D03*
X0105595Y0101433D03*
X0106095Y0101433D03*
X0114595Y0097763D03*
X0115095Y0097763D03*
X0115595Y0097763D03*
X0103595Y0091433D03*
X0101095Y0091763D03*
X0135595Y0092433D03*
D61*
X0130095Y0084683D03*
X0134595Y0100683D03*
X0112095Y0102683D03*
X0101095Y0093683D03*
X0099595Y0089183D03*
X0093595Y0102183D03*
D62*
X0096929Y0104933D03*
X0099429Y0089933D03*
X0107762Y0089433D03*
X0105762Y0077933D03*
X0115429Y0073433D03*
X0132929Y0089933D03*
X0134262Y0105433D03*
X0119762Y0114433D03*
D63*
X0133762Y0094933D03*
D64*
X0132095Y0102183D03*
X0133595Y0086683D03*
X0110095Y0093183D03*
X0109595Y0092183D03*
X0100095Y0101683D03*
X0098095Y0101183D03*
X0095595Y0087183D03*
X0103095Y0080183D03*
D65*
X0133595Y0094848D03*
D66*
X0133429Y0094853D03*
D67*
X0133262Y0094848D03*
D68*
X0132429Y0097848D03*
X0132929Y0099518D03*
X0110429Y0114348D03*
X0108429Y0114348D03*
X0105762Y0091848D03*
X0101762Y0092348D03*
D69*
X0103262Y0076933D03*
X0132929Y0103933D03*
X0107262Y0111933D03*
D70*
X0116095Y0115353D03*
X0111595Y0099683D03*
X0132595Y0097683D03*
X0113595Y0074353D03*
D71*
X0120429Y0081933D03*
X0132429Y0082433D03*
D72*
X0132095Y0083433D03*
X0119595Y0114433D03*
D73*
X0130595Y0097768D03*
X0128095Y0088098D03*
X0111095Y0095598D03*
X0096095Y0091098D03*
X0105095Y0076598D03*
D74*
X0110429Y0073683D03*
X0110929Y0071683D03*
X0115929Y0072683D03*
X0118429Y0075683D03*
X0118762Y0075683D03*
X0121262Y0080683D03*
X0121429Y0080683D03*
X0112762Y0077683D03*
X0101262Y0082683D03*
X0105429Y0099683D03*
X0108429Y0099683D03*
X0108762Y0099683D03*
X0108929Y0099683D03*
X0109262Y0099683D03*
X0109429Y0099683D03*
X0109762Y0099683D03*
X0109929Y0099683D03*
X0110262Y0099683D03*
X0110429Y0099683D03*
X0110762Y0099683D03*
X0110929Y0099683D03*
X0111262Y0099683D03*
X0107929Y0101683D03*
X0097762Y0105683D03*
X0098262Y0107683D03*
X0103929Y0113183D03*
X0104929Y0113683D03*
X0106262Y0112683D03*
X0109262Y0112683D03*
X0113262Y0116683D03*
X0115762Y0116683D03*
X0124929Y0102683D03*
X0129929Y0094683D03*
D75*
X0128595Y0085518D03*
X0108595Y0075518D03*
X0106095Y0091848D03*
D76*
X0106262Y0093683D03*
X0112262Y0093183D03*
X0104929Y0099683D03*
X0103929Y0099683D03*
X0128429Y0086013D03*
D77*
X0121095Y0080683D03*
X0119595Y0077683D03*
X0118595Y0075683D03*
X0105595Y0078683D03*
X0120595Y0094683D03*
X0124095Y0095683D03*
X0125095Y0102683D03*
X0111095Y0099683D03*
X0110595Y0099683D03*
X0110095Y0099683D03*
X0109595Y0099683D03*
X0109095Y0099683D03*
X0108595Y0099683D03*
X0105595Y0099683D03*
X0116595Y0116683D03*
D78*
X0113595Y0101933D03*
X0100095Y0093763D03*
X0093095Y0089603D03*
X0093095Y0100103D03*
X0120095Y0074103D03*
D79*
X0119929Y0074183D03*
X0111262Y0075183D03*
X0099762Y0082683D03*
D80*
X0113762Y0074353D03*
X0117929Y0074183D03*
X0119762Y0074353D03*
X0113762Y0101513D03*
X0115929Y0115353D03*
X0116262Y0115353D03*
X0116429Y0115353D03*
D81*
X0118095Y0074268D03*
D82*
X0117595Y0072768D03*
X0118095Y0114098D03*
X0107595Y0115098D03*
X0106095Y0113768D03*
D83*
X0117095Y0091518D03*
X0099595Y0082518D03*
X0111095Y0074518D03*
D84*
X0102929Y0097098D03*
X0105262Y0110768D03*
X0114429Y0114598D03*
X0116762Y0116768D03*
D85*
X0116595Y0094103D03*
D86*
X0116429Y0095518D03*
X0092262Y0094848D03*
D87*
X0092762Y0091933D03*
X0116262Y0095763D03*
D88*
X0115762Y0074183D03*
D89*
X0115595Y0074183D03*
X0102095Y0080183D03*
D90*
X0099595Y0104433D03*
X0115595Y0113933D03*
D91*
X0114095Y0099348D03*
D92*
X0113929Y0100183D03*
D93*
X0112095Y0094433D03*
D94*
X0111929Y0094598D03*
X0104762Y0099768D03*
D95*
X0106262Y0099683D03*
X0106429Y0099683D03*
X0107929Y0099683D03*
X0111762Y0099683D03*
D96*
X0108762Y0075518D03*
D97*
X0108429Y0075598D03*
X0102262Y0080268D03*
D98*
X0105095Y0099683D03*
X0106095Y0099683D03*
X0108095Y0099683D03*
X0103595Y0110183D03*
D99*
X0101762Y0094933D03*
X0107929Y0089433D03*
D100*
X0106429Y0093763D03*
X0098929Y0092103D03*
X0098929Y0097603D03*
D101*
X0104095Y0099683D03*
X0104595Y0099683D03*
D102*
X0103762Y0099683D03*
D103*
X0100262Y0094018D03*
D104*
X0099095Y0091433D03*
D105*
X0099095Y0098268D03*
D106*
X0098762Y0094853D03*
D107*
X0098595Y0094848D03*
D108*
X0092762Y0097683D03*
D109*
X0092595Y0094848D03*
D110*
X0092429Y0094848D03*
M02*
