G75*
%MOIN*%
%OFA0B0*%
%FSLAX25Y25*%
%IPPOS*%
%LPD*%
%AMOC8*
5,1,8,0,0,1.08239X$1,22.5*
%
%ADD10C,0.00000*%
%ADD11C,0.01200*%
%ADD12C,0.00600*%
%ADD13C,0.00500*%
%ADD14C,0.02000*%
D10*
X0047595Y0040183D02*
X0047595Y0070183D01*
X0067595Y0070183D01*
X0067595Y0077683D01*
X0047595Y0040183D02*
X0127595Y0040183D01*
X0127595Y0070183D01*
X0107595Y0070183D01*
X0107595Y0077683D01*
X0106569Y0079712D01*
X0105592Y0081765D01*
X0104665Y0083842D01*
X0103788Y0085939D01*
X0102962Y0088058D01*
X0102187Y0090195D01*
X0101463Y0092351D01*
X0100791Y0094523D01*
X0100171Y0096711D01*
X0099604Y0098912D01*
X0099090Y0101127D01*
X0098630Y0103354D01*
X0098223Y0105591D01*
X0097870Y0107837D01*
X0097570Y0110091D01*
X0097325Y0112352D01*
X0097134Y0114617D01*
X0096998Y0116887D01*
X0096916Y0119159D01*
X0096889Y0121433D01*
X0096916Y0123707D01*
X0096998Y0125979D01*
X0097134Y0128249D01*
X0097325Y0130514D01*
X0097570Y0132775D01*
X0097870Y0135029D01*
X0098223Y0137275D01*
X0098630Y0139512D01*
X0099090Y0141739D01*
X0099604Y0143954D01*
X0100171Y0146155D01*
X0100791Y0148343D01*
X0101463Y0150515D01*
X0102187Y0152671D01*
X0102962Y0154808D01*
X0103788Y0156927D01*
X0104665Y0159024D01*
X0105592Y0161101D01*
X0106569Y0163154D01*
X0107595Y0165183D01*
X0107595Y0250183D01*
X0107589Y0250670D01*
X0107571Y0251157D01*
X0107542Y0251643D01*
X0107500Y0252128D01*
X0107447Y0252612D01*
X0107382Y0253095D01*
X0107305Y0253576D01*
X0107217Y0254055D01*
X0107117Y0254532D01*
X0107005Y0255006D01*
X0106882Y0255477D01*
X0106747Y0255945D01*
X0106601Y0256410D01*
X0106444Y0256871D01*
X0106275Y0257328D01*
X0106096Y0257780D01*
X0105905Y0258229D01*
X0105704Y0258672D01*
X0105492Y0259111D01*
X0105269Y0259544D01*
X0105036Y0259971D01*
X0104792Y0260393D01*
X0104539Y0260809D01*
X0104275Y0261218D01*
X0104001Y0261621D01*
X0103718Y0262017D01*
X0103425Y0262406D01*
X0103123Y0262788D01*
X0102811Y0263163D01*
X0102490Y0263529D01*
X0102161Y0263888D01*
X0101823Y0264239D01*
X0101476Y0264581D01*
X0101122Y0264915D01*
X0100759Y0265240D01*
X0100388Y0265556D01*
X0100010Y0265863D01*
X0099625Y0266161D01*
X0099232Y0266449D01*
X0098833Y0266727D01*
X0098426Y0266996D01*
X0098014Y0267255D01*
X0097595Y0267504D01*
X0097170Y0267742D01*
X0096740Y0267970D01*
X0096304Y0268187D01*
X0095863Y0268394D01*
X0095417Y0268590D01*
X0094967Y0268775D01*
X0094512Y0268949D01*
X0094053Y0269112D01*
X0093590Y0269263D01*
X0093123Y0269404D01*
X0092654Y0269533D01*
X0092181Y0269650D01*
X0091706Y0269756D01*
X0091228Y0269850D01*
X0090748Y0269933D01*
X0090266Y0270004D01*
X0089782Y0270063D01*
X0089298Y0270110D01*
X0088812Y0270146D01*
X0088325Y0270170D01*
X0087839Y0270182D01*
X0087351Y0270182D01*
X0086865Y0270170D01*
X0086378Y0270146D01*
X0085892Y0270110D01*
X0085408Y0270063D01*
X0084924Y0270004D01*
X0084442Y0269933D01*
X0083962Y0269850D01*
X0083484Y0269756D01*
X0083009Y0269650D01*
X0082536Y0269533D01*
X0082067Y0269404D01*
X0081600Y0269263D01*
X0081137Y0269112D01*
X0080678Y0268949D01*
X0080223Y0268775D01*
X0079773Y0268590D01*
X0079327Y0268394D01*
X0078886Y0268187D01*
X0078450Y0267970D01*
X0078020Y0267742D01*
X0077595Y0267504D01*
X0077176Y0267255D01*
X0076764Y0266996D01*
X0076357Y0266727D01*
X0075958Y0266449D01*
X0075565Y0266161D01*
X0075180Y0265863D01*
X0074802Y0265556D01*
X0074431Y0265240D01*
X0074068Y0264915D01*
X0073714Y0264581D01*
X0073367Y0264239D01*
X0073029Y0263888D01*
X0072700Y0263529D01*
X0072379Y0263163D01*
X0072067Y0262788D01*
X0071765Y0262406D01*
X0071472Y0262017D01*
X0071189Y0261621D01*
X0070915Y0261218D01*
X0070651Y0260809D01*
X0070398Y0260393D01*
X0070154Y0259971D01*
X0069921Y0259544D01*
X0069698Y0259111D01*
X0069486Y0258672D01*
X0069285Y0258229D01*
X0069094Y0257780D01*
X0068915Y0257328D01*
X0068746Y0256871D01*
X0068589Y0256410D01*
X0068443Y0255945D01*
X0068308Y0255477D01*
X0068185Y0255006D01*
X0068073Y0254532D01*
X0067973Y0254055D01*
X0067885Y0253576D01*
X0067808Y0253095D01*
X0067743Y0252612D01*
X0067690Y0252128D01*
X0067648Y0251643D01*
X0067619Y0251157D01*
X0067601Y0250670D01*
X0067595Y0250183D01*
X0067595Y0165183D01*
X0068621Y0163154D01*
X0069598Y0161101D01*
X0070525Y0159024D01*
X0071402Y0156927D01*
X0072228Y0154808D01*
X0073003Y0152671D01*
X0073727Y0150515D01*
X0074399Y0148343D01*
X0075019Y0146155D01*
X0075586Y0143954D01*
X0076100Y0141739D01*
X0076560Y0139512D01*
X0076967Y0137275D01*
X0077320Y0135029D01*
X0077620Y0132775D01*
X0077865Y0130514D01*
X0078056Y0128249D01*
X0078192Y0125979D01*
X0078274Y0123707D01*
X0078301Y0121433D01*
X0078274Y0119159D01*
X0078192Y0116887D01*
X0078056Y0114617D01*
X0077865Y0112352D01*
X0077620Y0110091D01*
X0077320Y0107837D01*
X0076967Y0105591D01*
X0076560Y0103354D01*
X0076100Y0101127D01*
X0075586Y0098912D01*
X0075019Y0096711D01*
X0074399Y0094523D01*
X0073727Y0092351D01*
X0073003Y0090195D01*
X0072228Y0088058D01*
X0071402Y0085939D01*
X0070525Y0083842D01*
X0069598Y0081765D01*
X0068621Y0079712D01*
X0067595Y0077683D01*
D11*
X0067595Y0070183D02*
X0107595Y0070183D01*
D12*
X0108509Y0067387D02*
X0107041Y0065919D01*
X0107041Y0062983D01*
X0105373Y0063717D02*
X0105373Y0066653D01*
X0104639Y0067387D01*
X0102437Y0067387D01*
X0102437Y0062983D01*
X0104639Y0062983D01*
X0105373Y0063717D01*
X0107041Y0065185D02*
X0109977Y0065185D01*
X0109977Y0065919D02*
X0109977Y0062983D01*
X0109977Y0065919D02*
X0108509Y0067387D01*
X0105668Y0058800D02*
X0104727Y0058361D01*
X0103723Y0055602D01*
X0104162Y0054661D01*
X0105541Y0054159D01*
X0106482Y0054598D01*
X0107798Y0053338D02*
X0110557Y0052334D01*
X0107798Y0053338D02*
X0109304Y0057476D01*
X0107486Y0057357D02*
X0107047Y0058297D01*
X0105668Y0058800D01*
X0103160Y0058931D02*
X0102721Y0059872D01*
X0101342Y0060374D01*
X0100401Y0059936D01*
X0100150Y0059246D01*
X0100589Y0058305D01*
X0101968Y0057803D01*
X0102407Y0056862D01*
X0102156Y0056173D01*
X0101215Y0055734D01*
X0099835Y0056236D01*
X0099397Y0057177D01*
X0100035Y0062983D02*
X0098567Y0062983D01*
X0097833Y0063717D01*
X0098567Y0065185D02*
X0097833Y0065919D01*
X0097833Y0066653D01*
X0098567Y0067387D01*
X0100035Y0067387D01*
X0100769Y0066653D01*
X0100035Y0065185D02*
X0098567Y0065185D01*
X0100035Y0065185D02*
X0100769Y0064451D01*
X0100769Y0063717D01*
X0100035Y0062983D01*
X0090795Y0075483D02*
X0090795Y0079753D01*
X0089728Y0081929D02*
X0088660Y0082996D01*
X0088660Y0086199D01*
X0087592Y0086199D02*
X0090795Y0086199D01*
X0090795Y0082996D01*
X0089728Y0081929D01*
X0086525Y0085131D02*
X0087592Y0086199D01*
X0086525Y0085131D02*
X0086525Y0082996D01*
X0087592Y0088374D02*
X0086525Y0089442D01*
X0086525Y0092644D01*
X0091863Y0092644D01*
X0092930Y0091577D01*
X0092930Y0090509D01*
X0090795Y0089442D02*
X0090795Y0092644D01*
X0089728Y0094820D02*
X0090795Y0095887D01*
X0090795Y0098022D01*
X0089728Y0099090D01*
X0087592Y0099090D01*
X0086525Y0098022D01*
X0086525Y0095887D01*
X0087592Y0094820D01*
X0089728Y0094820D01*
X0090795Y0089442D02*
X0089728Y0088374D01*
X0087592Y0088374D01*
X0086525Y0101265D02*
X0086525Y0104468D01*
X0087592Y0105535D01*
X0089728Y0105535D01*
X0090795Y0104468D01*
X0090795Y0101265D01*
X0092930Y0101265D02*
X0086525Y0101265D01*
X0086525Y0107711D02*
X0089728Y0107711D01*
X0090795Y0108778D01*
X0090795Y0111981D01*
X0086525Y0111981D01*
X0087592Y0114156D02*
X0086525Y0115224D01*
X0086525Y0118426D01*
X0088660Y0115224D02*
X0087592Y0114156D01*
X0088660Y0115224D02*
X0088660Y0117359D01*
X0089728Y0118426D01*
X0090795Y0117359D01*
X0090795Y0114156D01*
X0090795Y0127047D02*
X0090795Y0130250D01*
X0089728Y0131317D01*
X0088660Y0131317D01*
X0087592Y0130250D01*
X0087592Y0127047D01*
X0087592Y0130250D02*
X0086525Y0131317D01*
X0085457Y0131317D01*
X0084390Y0130250D01*
X0084390Y0127047D01*
X0090795Y0127047D01*
X0088660Y0139938D02*
X0084390Y0139938D01*
X0084390Y0144208D02*
X0088660Y0144208D01*
X0090795Y0142073D01*
X0088660Y0139938D01*
X0090795Y0146384D02*
X0090795Y0150654D01*
X0090795Y0148519D02*
X0084390Y0148519D01*
X0086525Y0146384D01*
X0089728Y0152829D02*
X0089728Y0153897D01*
X0090795Y0153897D01*
X0090795Y0152829D01*
X0089728Y0152829D01*
X0089728Y0156052D02*
X0085457Y0160322D01*
X0089728Y0160322D01*
X0090795Y0159255D01*
X0090795Y0157119D01*
X0089728Y0156052D01*
X0085457Y0156052D01*
X0084390Y0157119D01*
X0084390Y0159255D01*
X0085457Y0160322D01*
X0082595Y0168683D02*
X0092595Y0168683D01*
X0092655Y0168685D01*
X0092716Y0168690D01*
X0092775Y0168699D01*
X0092834Y0168712D01*
X0092893Y0168728D01*
X0092950Y0168748D01*
X0093005Y0168771D01*
X0093060Y0168798D01*
X0093112Y0168827D01*
X0093163Y0168860D01*
X0093212Y0168896D01*
X0093258Y0168934D01*
X0093302Y0168976D01*
X0093344Y0169020D01*
X0093382Y0169066D01*
X0093418Y0169115D01*
X0093451Y0169166D01*
X0093480Y0169218D01*
X0093507Y0169273D01*
X0093530Y0169328D01*
X0093550Y0169385D01*
X0093566Y0169444D01*
X0093579Y0169503D01*
X0093588Y0169562D01*
X0093593Y0169623D01*
X0093595Y0169683D01*
X0093595Y0175683D01*
X0093593Y0175743D01*
X0093588Y0175804D01*
X0093579Y0175863D01*
X0093566Y0175922D01*
X0093550Y0175981D01*
X0093530Y0176038D01*
X0093507Y0176093D01*
X0093480Y0176148D01*
X0093451Y0176200D01*
X0093418Y0176251D01*
X0093382Y0176300D01*
X0093344Y0176346D01*
X0093302Y0176390D01*
X0093258Y0176432D01*
X0093212Y0176470D01*
X0093163Y0176506D01*
X0093112Y0176539D01*
X0093060Y0176568D01*
X0093005Y0176595D01*
X0092950Y0176618D01*
X0092893Y0176638D01*
X0092834Y0176654D01*
X0092775Y0176667D01*
X0092716Y0176676D01*
X0092655Y0176681D01*
X0092595Y0176683D01*
X0082595Y0176683D01*
X0082535Y0176681D01*
X0082474Y0176676D01*
X0082415Y0176667D01*
X0082356Y0176654D01*
X0082297Y0176638D01*
X0082240Y0176618D01*
X0082185Y0176595D01*
X0082130Y0176568D01*
X0082078Y0176539D01*
X0082027Y0176506D01*
X0081978Y0176470D01*
X0081932Y0176432D01*
X0081888Y0176390D01*
X0081846Y0176346D01*
X0081808Y0176300D01*
X0081772Y0176251D01*
X0081739Y0176200D01*
X0081710Y0176148D01*
X0081683Y0176093D01*
X0081660Y0176038D01*
X0081640Y0175981D01*
X0081624Y0175922D01*
X0081611Y0175863D01*
X0081602Y0175804D01*
X0081597Y0175743D01*
X0081595Y0175683D01*
X0081595Y0169683D01*
X0081597Y0169623D01*
X0081602Y0169562D01*
X0081611Y0169503D01*
X0081624Y0169444D01*
X0081640Y0169385D01*
X0081660Y0169328D01*
X0081683Y0169273D01*
X0081710Y0169218D01*
X0081739Y0169166D01*
X0081772Y0169115D01*
X0081808Y0169066D01*
X0081846Y0169020D01*
X0081888Y0168976D01*
X0081932Y0168934D01*
X0081978Y0168896D01*
X0082027Y0168860D01*
X0082078Y0168827D01*
X0082130Y0168798D01*
X0082185Y0168771D01*
X0082240Y0168748D01*
X0082297Y0168728D01*
X0082356Y0168712D01*
X0082415Y0168699D01*
X0082474Y0168690D01*
X0082535Y0168685D01*
X0082595Y0168683D01*
X0082002Y0230383D02*
X0082002Y0232985D01*
X0082870Y0232118D01*
X0083737Y0232985D01*
X0083737Y0230383D01*
X0084949Y0230383D02*
X0084949Y0232985D01*
X0086683Y0232985D01*
X0087895Y0232552D02*
X0088329Y0232985D01*
X0089196Y0232985D01*
X0089630Y0232552D01*
X0089630Y0232118D01*
X0087895Y0230383D01*
X0089630Y0230383D01*
X0090842Y0230817D02*
X0090842Y0231250D01*
X0091275Y0231684D01*
X0092143Y0231684D01*
X0092576Y0231250D01*
X0092576Y0230817D01*
X0092143Y0230383D01*
X0091275Y0230383D01*
X0090842Y0230817D01*
X0091275Y0231684D02*
X0090842Y0232118D01*
X0090842Y0232552D01*
X0091275Y0232985D01*
X0092143Y0232985D01*
X0092576Y0232552D01*
X0092576Y0232118D01*
X0092143Y0231684D01*
X0093788Y0230817D02*
X0095523Y0232552D01*
X0095523Y0230817D01*
X0095089Y0230383D01*
X0094222Y0230383D01*
X0093788Y0230817D01*
X0093788Y0232552D01*
X0094222Y0232985D01*
X0095089Y0232985D01*
X0095523Y0232552D01*
X0095523Y0236383D02*
X0093788Y0236383D01*
X0095523Y0238118D01*
X0095523Y0238552D01*
X0095089Y0238985D01*
X0094222Y0238985D01*
X0093788Y0238552D01*
X0092576Y0238552D02*
X0090842Y0236817D01*
X0091275Y0236383D01*
X0092143Y0236383D01*
X0092576Y0236817D01*
X0092576Y0238552D01*
X0092143Y0238985D01*
X0091275Y0238985D01*
X0090842Y0238552D01*
X0090842Y0236817D01*
X0089630Y0236383D02*
X0087895Y0236383D01*
X0088763Y0236383D02*
X0088763Y0238985D01*
X0087895Y0238118D01*
X0086683Y0238552D02*
X0086683Y0237684D01*
X0086250Y0237250D01*
X0084949Y0237250D01*
X0084949Y0236383D02*
X0084949Y0238985D01*
X0086250Y0238985D01*
X0086683Y0238552D01*
X0085816Y0231684D02*
X0084949Y0231684D01*
X0084949Y0230383D02*
X0086683Y0230383D01*
X0083737Y0236383D02*
X0083737Y0238985D01*
X0082870Y0238118D01*
X0082002Y0238985D01*
X0082002Y0236383D01*
X0080790Y0238985D02*
X0079056Y0238985D01*
X0079923Y0238985D02*
X0079923Y0236383D01*
X0080357Y0232985D02*
X0079056Y0232985D01*
X0079056Y0230383D01*
X0080357Y0230383D01*
X0080790Y0230817D01*
X0080790Y0231250D01*
X0080357Y0231684D01*
X0079056Y0231684D01*
X0080357Y0231684D02*
X0080790Y0232118D01*
X0080790Y0232552D01*
X0080357Y0232985D01*
X0084390Y0075483D02*
X0090795Y0075483D01*
X0080893Y0066653D02*
X0080893Y0065919D01*
X0080159Y0065185D01*
X0080893Y0064451D01*
X0080893Y0063717D01*
X0080159Y0062983D01*
X0078691Y0062983D01*
X0077957Y0063717D01*
X0076289Y0064451D02*
X0076289Y0067387D01*
X0077957Y0066653D02*
X0078691Y0067387D01*
X0080159Y0067387D01*
X0080893Y0066653D01*
X0080159Y0065185D02*
X0079425Y0065185D01*
X0076289Y0064451D02*
X0074821Y0062983D01*
X0073353Y0064451D01*
X0073353Y0067387D01*
X0071685Y0066653D02*
X0071685Y0065919D01*
X0070951Y0065185D01*
X0071685Y0064451D01*
X0071685Y0063717D01*
X0070951Y0062983D01*
X0069483Y0062983D01*
X0068749Y0063717D01*
X0070217Y0065185D02*
X0070951Y0065185D01*
X0071685Y0066653D02*
X0070951Y0067387D01*
X0069483Y0067387D01*
X0068749Y0066653D01*
X0067081Y0065185D02*
X0064145Y0065185D01*
X0065613Y0066653D02*
X0065613Y0063717D01*
X0066450Y0057681D02*
X0070715Y0054547D01*
X0069208Y0058685D01*
X0070776Y0059256D02*
X0072845Y0060009D01*
X0073786Y0059570D01*
X0074790Y0056811D01*
X0074351Y0055871D01*
X0072282Y0055118D01*
X0070776Y0059256D01*
X0066450Y0057681D02*
X0067956Y0053543D01*
X0066137Y0053662D02*
X0065635Y0055042D01*
X0064256Y0054539D01*
X0066137Y0053662D02*
X0065699Y0052721D01*
X0064319Y0052219D01*
X0063378Y0052658D01*
X0062374Y0055417D01*
X0062813Y0056358D01*
X0064192Y0056860D01*
X0065133Y0056421D01*
D13*
X0084847Y0166033D02*
X0085164Y0166033D01*
X0085481Y0166350D01*
X0085481Y0167935D01*
X0085164Y0167935D02*
X0085798Y0167935D01*
X0086740Y0167935D02*
X0087691Y0167935D01*
X0088008Y0167618D01*
X0088008Y0166984D01*
X0087691Y0166667D01*
X0086740Y0166667D01*
X0086740Y0166033D02*
X0086740Y0167935D01*
X0088950Y0167618D02*
X0089267Y0167935D01*
X0089901Y0167935D01*
X0090218Y0167618D01*
X0090218Y0167301D01*
X0088950Y0166033D01*
X0090218Y0166033D01*
X0084847Y0166033D02*
X0084530Y0166350D01*
X0085344Y0183223D02*
X0085344Y0184174D01*
X0085660Y0184491D01*
X0086294Y0184491D01*
X0086611Y0184174D01*
X0086611Y0183223D01*
X0086611Y0183857D02*
X0087245Y0184491D01*
X0086928Y0185433D02*
X0087245Y0185750D01*
X0087245Y0186384D01*
X0086928Y0186701D01*
X0086611Y0186701D01*
X0086294Y0186384D01*
X0086294Y0186067D01*
X0086294Y0186384D02*
X0085977Y0186701D01*
X0085660Y0186701D01*
X0085344Y0186384D01*
X0085344Y0185750D01*
X0085660Y0185433D01*
X0085344Y0183223D02*
X0087245Y0183223D01*
X0078528Y0200723D02*
X0078845Y0201040D01*
X0078845Y0201674D01*
X0078528Y0201991D01*
X0078845Y0202933D02*
X0078845Y0204201D01*
X0078845Y0203567D02*
X0076944Y0203567D01*
X0077577Y0202933D01*
X0077260Y0201991D02*
X0076944Y0201674D01*
X0076944Y0201040D01*
X0077260Y0200723D01*
X0078528Y0200723D01*
X0082120Y0217008D02*
X0093070Y0217008D01*
X0093070Y0228358D01*
X0082120Y0228358D01*
X0082120Y0217008D01*
X0085952Y0221483D02*
X0086586Y0221483D01*
X0086903Y0221800D01*
X0086903Y0223385D01*
X0087845Y0223068D02*
X0088162Y0223385D01*
X0088796Y0223385D01*
X0089113Y0223068D01*
X0089113Y0222751D01*
X0088796Y0222434D01*
X0089113Y0222117D01*
X0089113Y0221800D01*
X0088796Y0221483D01*
X0088162Y0221483D01*
X0087845Y0221800D01*
X0088479Y0222434D02*
X0088796Y0222434D01*
X0085952Y0221483D02*
X0085635Y0221800D01*
X0085635Y0223385D01*
X0086808Y0239871D02*
X0088383Y0239871D01*
X0089957Y0240533D02*
X0085233Y0240533D01*
X0085233Y0246833D02*
X0089957Y0246833D01*
X0090260Y0256223D02*
X0091528Y0256223D01*
X0091845Y0256540D01*
X0091845Y0257174D01*
X0091528Y0257491D01*
X0091845Y0258433D02*
X0090577Y0259701D01*
X0090260Y0259701D01*
X0089944Y0259384D01*
X0089944Y0258750D01*
X0090260Y0258433D01*
X0090260Y0257491D02*
X0089944Y0257174D01*
X0089944Y0256540D01*
X0090260Y0256223D01*
X0091845Y0258433D02*
X0091845Y0259701D01*
X0085245Y0259201D02*
X0085245Y0257933D01*
X0083977Y0259201D01*
X0083660Y0259201D01*
X0083344Y0258884D01*
X0083344Y0258250D01*
X0083660Y0257933D01*
X0083660Y0256991D02*
X0084294Y0256991D01*
X0084611Y0256674D01*
X0084611Y0255723D01*
X0084611Y0256357D02*
X0085245Y0256991D01*
X0085245Y0255723D02*
X0083344Y0255723D01*
X0083344Y0256674D01*
X0083660Y0256991D01*
X0098245Y0204201D02*
X0098245Y0202933D01*
X0098245Y0203567D02*
X0096344Y0203567D01*
X0096977Y0202933D01*
X0096660Y0201991D02*
X0097294Y0201991D01*
X0097611Y0201674D01*
X0097611Y0200723D01*
X0097611Y0201357D02*
X0098245Y0201991D01*
X0098245Y0200723D02*
X0096344Y0200723D01*
X0096344Y0201674D01*
X0096660Y0201991D01*
X0097294Y0186701D02*
X0097294Y0185433D01*
X0096344Y0186384D01*
X0098245Y0186384D01*
X0098245Y0184491D02*
X0097611Y0183857D01*
X0097611Y0184174D02*
X0097611Y0183223D01*
X0098245Y0183223D02*
X0096344Y0183223D01*
X0096344Y0184174D01*
X0096660Y0184491D01*
X0097294Y0184491D01*
X0097611Y0184174D01*
D14*
X0081220Y0229058D03*
M02*
