G75*
%MOIN*%
%OFA0B0*%
%FSLAX25Y25*%
%IPPOS*%
%LPD*%
%AMOC8*
5,1,8,0,0,1.08239X$1,22.5*
%
%ADD10C,0.00000*%
%ADD11C,0.07400*%
%ADD12C,0.07600*%
%ADD13C,0.05600*%
%ADD14C,0.03169*%
%ADD15C,0.02400*%
%ADD16C,0.01600*%
%ADD17C,0.01200*%
%ADD18C,0.03200*%
%ADD19C,0.01000*%
D10*
X0101095Y0049933D02*
X0381095Y0049933D01*
X0319796Y0089933D02*
X0319798Y0090091D01*
X0319804Y0090249D01*
X0319814Y0090407D01*
X0319828Y0090565D01*
X0319846Y0090722D01*
X0319867Y0090879D01*
X0319893Y0091035D01*
X0319923Y0091191D01*
X0319956Y0091346D01*
X0319994Y0091499D01*
X0320035Y0091652D01*
X0320080Y0091804D01*
X0320129Y0091955D01*
X0320182Y0092104D01*
X0320238Y0092252D01*
X0320298Y0092398D01*
X0320362Y0092543D01*
X0320430Y0092686D01*
X0320501Y0092828D01*
X0320575Y0092968D01*
X0320653Y0093105D01*
X0320735Y0093241D01*
X0320819Y0093375D01*
X0320908Y0093506D01*
X0320999Y0093635D01*
X0321094Y0093762D01*
X0321191Y0093887D01*
X0321292Y0094009D01*
X0321396Y0094128D01*
X0321503Y0094245D01*
X0321613Y0094359D01*
X0321726Y0094470D01*
X0321841Y0094579D01*
X0321959Y0094684D01*
X0322080Y0094786D01*
X0322203Y0094886D01*
X0322329Y0094982D01*
X0322457Y0095075D01*
X0322587Y0095165D01*
X0322720Y0095251D01*
X0322855Y0095335D01*
X0322991Y0095414D01*
X0323130Y0095491D01*
X0323271Y0095563D01*
X0323413Y0095633D01*
X0323557Y0095698D01*
X0323703Y0095760D01*
X0323850Y0095818D01*
X0323999Y0095873D01*
X0324149Y0095924D01*
X0324300Y0095971D01*
X0324452Y0096014D01*
X0324605Y0096053D01*
X0324760Y0096089D01*
X0324915Y0096120D01*
X0325071Y0096148D01*
X0325227Y0096172D01*
X0325384Y0096192D01*
X0325542Y0096208D01*
X0325699Y0096220D01*
X0325858Y0096228D01*
X0326016Y0096232D01*
X0326174Y0096232D01*
X0326332Y0096228D01*
X0326491Y0096220D01*
X0326648Y0096208D01*
X0326806Y0096192D01*
X0326963Y0096172D01*
X0327119Y0096148D01*
X0327275Y0096120D01*
X0327430Y0096089D01*
X0327585Y0096053D01*
X0327738Y0096014D01*
X0327890Y0095971D01*
X0328041Y0095924D01*
X0328191Y0095873D01*
X0328340Y0095818D01*
X0328487Y0095760D01*
X0328633Y0095698D01*
X0328777Y0095633D01*
X0328919Y0095563D01*
X0329060Y0095491D01*
X0329199Y0095414D01*
X0329335Y0095335D01*
X0329470Y0095251D01*
X0329603Y0095165D01*
X0329733Y0095075D01*
X0329861Y0094982D01*
X0329987Y0094886D01*
X0330110Y0094786D01*
X0330231Y0094684D01*
X0330349Y0094579D01*
X0330464Y0094470D01*
X0330577Y0094359D01*
X0330687Y0094245D01*
X0330794Y0094128D01*
X0330898Y0094009D01*
X0330999Y0093887D01*
X0331096Y0093762D01*
X0331191Y0093635D01*
X0331282Y0093506D01*
X0331371Y0093375D01*
X0331455Y0093241D01*
X0331537Y0093105D01*
X0331615Y0092968D01*
X0331689Y0092828D01*
X0331760Y0092686D01*
X0331828Y0092543D01*
X0331892Y0092398D01*
X0331952Y0092252D01*
X0332008Y0092104D01*
X0332061Y0091955D01*
X0332110Y0091804D01*
X0332155Y0091652D01*
X0332196Y0091499D01*
X0332234Y0091346D01*
X0332267Y0091191D01*
X0332297Y0091035D01*
X0332323Y0090879D01*
X0332344Y0090722D01*
X0332362Y0090565D01*
X0332376Y0090407D01*
X0332386Y0090249D01*
X0332392Y0090091D01*
X0332394Y0089933D01*
X0332392Y0089775D01*
X0332386Y0089617D01*
X0332376Y0089459D01*
X0332362Y0089301D01*
X0332344Y0089144D01*
X0332323Y0088987D01*
X0332297Y0088831D01*
X0332267Y0088675D01*
X0332234Y0088520D01*
X0332196Y0088367D01*
X0332155Y0088214D01*
X0332110Y0088062D01*
X0332061Y0087911D01*
X0332008Y0087762D01*
X0331952Y0087614D01*
X0331892Y0087468D01*
X0331828Y0087323D01*
X0331760Y0087180D01*
X0331689Y0087038D01*
X0331615Y0086898D01*
X0331537Y0086761D01*
X0331455Y0086625D01*
X0331371Y0086491D01*
X0331282Y0086360D01*
X0331191Y0086231D01*
X0331096Y0086104D01*
X0330999Y0085979D01*
X0330898Y0085857D01*
X0330794Y0085738D01*
X0330687Y0085621D01*
X0330577Y0085507D01*
X0330464Y0085396D01*
X0330349Y0085287D01*
X0330231Y0085182D01*
X0330110Y0085080D01*
X0329987Y0084980D01*
X0329861Y0084884D01*
X0329733Y0084791D01*
X0329603Y0084701D01*
X0329470Y0084615D01*
X0329335Y0084531D01*
X0329199Y0084452D01*
X0329060Y0084375D01*
X0328919Y0084303D01*
X0328777Y0084233D01*
X0328633Y0084168D01*
X0328487Y0084106D01*
X0328340Y0084048D01*
X0328191Y0083993D01*
X0328041Y0083942D01*
X0327890Y0083895D01*
X0327738Y0083852D01*
X0327585Y0083813D01*
X0327430Y0083777D01*
X0327275Y0083746D01*
X0327119Y0083718D01*
X0326963Y0083694D01*
X0326806Y0083674D01*
X0326648Y0083658D01*
X0326491Y0083646D01*
X0326332Y0083638D01*
X0326174Y0083634D01*
X0326016Y0083634D01*
X0325858Y0083638D01*
X0325699Y0083646D01*
X0325542Y0083658D01*
X0325384Y0083674D01*
X0325227Y0083694D01*
X0325071Y0083718D01*
X0324915Y0083746D01*
X0324760Y0083777D01*
X0324605Y0083813D01*
X0324452Y0083852D01*
X0324300Y0083895D01*
X0324149Y0083942D01*
X0323999Y0083993D01*
X0323850Y0084048D01*
X0323703Y0084106D01*
X0323557Y0084168D01*
X0323413Y0084233D01*
X0323271Y0084303D01*
X0323130Y0084375D01*
X0322991Y0084452D01*
X0322855Y0084531D01*
X0322720Y0084615D01*
X0322587Y0084701D01*
X0322457Y0084791D01*
X0322329Y0084884D01*
X0322203Y0084980D01*
X0322080Y0085080D01*
X0321959Y0085182D01*
X0321841Y0085287D01*
X0321726Y0085396D01*
X0321613Y0085507D01*
X0321503Y0085621D01*
X0321396Y0085738D01*
X0321292Y0085857D01*
X0321191Y0085979D01*
X0321094Y0086104D01*
X0320999Y0086231D01*
X0320908Y0086360D01*
X0320819Y0086491D01*
X0320735Y0086625D01*
X0320653Y0086761D01*
X0320575Y0086898D01*
X0320501Y0087038D01*
X0320430Y0087180D01*
X0320362Y0087323D01*
X0320298Y0087468D01*
X0320238Y0087614D01*
X0320182Y0087762D01*
X0320129Y0087911D01*
X0320080Y0088062D01*
X0320035Y0088214D01*
X0319994Y0088367D01*
X0319956Y0088520D01*
X0319923Y0088675D01*
X0319893Y0088831D01*
X0319867Y0088987D01*
X0319846Y0089144D01*
X0319828Y0089301D01*
X0319814Y0089459D01*
X0319804Y0089617D01*
X0319798Y0089775D01*
X0319796Y0089933D01*
X0299796Y0069933D02*
X0299798Y0070091D01*
X0299804Y0070249D01*
X0299814Y0070407D01*
X0299828Y0070565D01*
X0299846Y0070722D01*
X0299867Y0070879D01*
X0299893Y0071035D01*
X0299923Y0071191D01*
X0299956Y0071346D01*
X0299994Y0071499D01*
X0300035Y0071652D01*
X0300080Y0071804D01*
X0300129Y0071955D01*
X0300182Y0072104D01*
X0300238Y0072252D01*
X0300298Y0072398D01*
X0300362Y0072543D01*
X0300430Y0072686D01*
X0300501Y0072828D01*
X0300575Y0072968D01*
X0300653Y0073105D01*
X0300735Y0073241D01*
X0300819Y0073375D01*
X0300908Y0073506D01*
X0300999Y0073635D01*
X0301094Y0073762D01*
X0301191Y0073887D01*
X0301292Y0074009D01*
X0301396Y0074128D01*
X0301503Y0074245D01*
X0301613Y0074359D01*
X0301726Y0074470D01*
X0301841Y0074579D01*
X0301959Y0074684D01*
X0302080Y0074786D01*
X0302203Y0074886D01*
X0302329Y0074982D01*
X0302457Y0075075D01*
X0302587Y0075165D01*
X0302720Y0075251D01*
X0302855Y0075335D01*
X0302991Y0075414D01*
X0303130Y0075491D01*
X0303271Y0075563D01*
X0303413Y0075633D01*
X0303557Y0075698D01*
X0303703Y0075760D01*
X0303850Y0075818D01*
X0303999Y0075873D01*
X0304149Y0075924D01*
X0304300Y0075971D01*
X0304452Y0076014D01*
X0304605Y0076053D01*
X0304760Y0076089D01*
X0304915Y0076120D01*
X0305071Y0076148D01*
X0305227Y0076172D01*
X0305384Y0076192D01*
X0305542Y0076208D01*
X0305699Y0076220D01*
X0305858Y0076228D01*
X0306016Y0076232D01*
X0306174Y0076232D01*
X0306332Y0076228D01*
X0306491Y0076220D01*
X0306648Y0076208D01*
X0306806Y0076192D01*
X0306963Y0076172D01*
X0307119Y0076148D01*
X0307275Y0076120D01*
X0307430Y0076089D01*
X0307585Y0076053D01*
X0307738Y0076014D01*
X0307890Y0075971D01*
X0308041Y0075924D01*
X0308191Y0075873D01*
X0308340Y0075818D01*
X0308487Y0075760D01*
X0308633Y0075698D01*
X0308777Y0075633D01*
X0308919Y0075563D01*
X0309060Y0075491D01*
X0309199Y0075414D01*
X0309335Y0075335D01*
X0309470Y0075251D01*
X0309603Y0075165D01*
X0309733Y0075075D01*
X0309861Y0074982D01*
X0309987Y0074886D01*
X0310110Y0074786D01*
X0310231Y0074684D01*
X0310349Y0074579D01*
X0310464Y0074470D01*
X0310577Y0074359D01*
X0310687Y0074245D01*
X0310794Y0074128D01*
X0310898Y0074009D01*
X0310999Y0073887D01*
X0311096Y0073762D01*
X0311191Y0073635D01*
X0311282Y0073506D01*
X0311371Y0073375D01*
X0311455Y0073241D01*
X0311537Y0073105D01*
X0311615Y0072968D01*
X0311689Y0072828D01*
X0311760Y0072686D01*
X0311828Y0072543D01*
X0311892Y0072398D01*
X0311952Y0072252D01*
X0312008Y0072104D01*
X0312061Y0071955D01*
X0312110Y0071804D01*
X0312155Y0071652D01*
X0312196Y0071499D01*
X0312234Y0071346D01*
X0312267Y0071191D01*
X0312297Y0071035D01*
X0312323Y0070879D01*
X0312344Y0070722D01*
X0312362Y0070565D01*
X0312376Y0070407D01*
X0312386Y0070249D01*
X0312392Y0070091D01*
X0312394Y0069933D01*
X0312392Y0069775D01*
X0312386Y0069617D01*
X0312376Y0069459D01*
X0312362Y0069301D01*
X0312344Y0069144D01*
X0312323Y0068987D01*
X0312297Y0068831D01*
X0312267Y0068675D01*
X0312234Y0068520D01*
X0312196Y0068367D01*
X0312155Y0068214D01*
X0312110Y0068062D01*
X0312061Y0067911D01*
X0312008Y0067762D01*
X0311952Y0067614D01*
X0311892Y0067468D01*
X0311828Y0067323D01*
X0311760Y0067180D01*
X0311689Y0067038D01*
X0311615Y0066898D01*
X0311537Y0066761D01*
X0311455Y0066625D01*
X0311371Y0066491D01*
X0311282Y0066360D01*
X0311191Y0066231D01*
X0311096Y0066104D01*
X0310999Y0065979D01*
X0310898Y0065857D01*
X0310794Y0065738D01*
X0310687Y0065621D01*
X0310577Y0065507D01*
X0310464Y0065396D01*
X0310349Y0065287D01*
X0310231Y0065182D01*
X0310110Y0065080D01*
X0309987Y0064980D01*
X0309861Y0064884D01*
X0309733Y0064791D01*
X0309603Y0064701D01*
X0309470Y0064615D01*
X0309335Y0064531D01*
X0309199Y0064452D01*
X0309060Y0064375D01*
X0308919Y0064303D01*
X0308777Y0064233D01*
X0308633Y0064168D01*
X0308487Y0064106D01*
X0308340Y0064048D01*
X0308191Y0063993D01*
X0308041Y0063942D01*
X0307890Y0063895D01*
X0307738Y0063852D01*
X0307585Y0063813D01*
X0307430Y0063777D01*
X0307275Y0063746D01*
X0307119Y0063718D01*
X0306963Y0063694D01*
X0306806Y0063674D01*
X0306648Y0063658D01*
X0306491Y0063646D01*
X0306332Y0063638D01*
X0306174Y0063634D01*
X0306016Y0063634D01*
X0305858Y0063638D01*
X0305699Y0063646D01*
X0305542Y0063658D01*
X0305384Y0063674D01*
X0305227Y0063694D01*
X0305071Y0063718D01*
X0304915Y0063746D01*
X0304760Y0063777D01*
X0304605Y0063813D01*
X0304452Y0063852D01*
X0304300Y0063895D01*
X0304149Y0063942D01*
X0303999Y0063993D01*
X0303850Y0064048D01*
X0303703Y0064106D01*
X0303557Y0064168D01*
X0303413Y0064233D01*
X0303271Y0064303D01*
X0303130Y0064375D01*
X0302991Y0064452D01*
X0302855Y0064531D01*
X0302720Y0064615D01*
X0302587Y0064701D01*
X0302457Y0064791D01*
X0302329Y0064884D01*
X0302203Y0064980D01*
X0302080Y0065080D01*
X0301959Y0065182D01*
X0301841Y0065287D01*
X0301726Y0065396D01*
X0301613Y0065507D01*
X0301503Y0065621D01*
X0301396Y0065738D01*
X0301292Y0065857D01*
X0301191Y0065979D01*
X0301094Y0066104D01*
X0300999Y0066231D01*
X0300908Y0066360D01*
X0300819Y0066491D01*
X0300735Y0066625D01*
X0300653Y0066761D01*
X0300575Y0066898D01*
X0300501Y0067038D01*
X0300430Y0067180D01*
X0300362Y0067323D01*
X0300298Y0067468D01*
X0300238Y0067614D01*
X0300182Y0067762D01*
X0300129Y0067911D01*
X0300080Y0068062D01*
X0300035Y0068214D01*
X0299994Y0068367D01*
X0299956Y0068520D01*
X0299923Y0068675D01*
X0299893Y0068831D01*
X0299867Y0068987D01*
X0299846Y0069144D01*
X0299828Y0069301D01*
X0299814Y0069459D01*
X0299804Y0069617D01*
X0299798Y0069775D01*
X0299796Y0069933D01*
X0234796Y0079933D02*
X0234798Y0080091D01*
X0234804Y0080249D01*
X0234814Y0080407D01*
X0234828Y0080565D01*
X0234846Y0080722D01*
X0234867Y0080879D01*
X0234893Y0081035D01*
X0234923Y0081191D01*
X0234956Y0081346D01*
X0234994Y0081499D01*
X0235035Y0081652D01*
X0235080Y0081804D01*
X0235129Y0081955D01*
X0235182Y0082104D01*
X0235238Y0082252D01*
X0235298Y0082398D01*
X0235362Y0082543D01*
X0235430Y0082686D01*
X0235501Y0082828D01*
X0235575Y0082968D01*
X0235653Y0083105D01*
X0235735Y0083241D01*
X0235819Y0083375D01*
X0235908Y0083506D01*
X0235999Y0083635D01*
X0236094Y0083762D01*
X0236191Y0083887D01*
X0236292Y0084009D01*
X0236396Y0084128D01*
X0236503Y0084245D01*
X0236613Y0084359D01*
X0236726Y0084470D01*
X0236841Y0084579D01*
X0236959Y0084684D01*
X0237080Y0084786D01*
X0237203Y0084886D01*
X0237329Y0084982D01*
X0237457Y0085075D01*
X0237587Y0085165D01*
X0237720Y0085251D01*
X0237855Y0085335D01*
X0237991Y0085414D01*
X0238130Y0085491D01*
X0238271Y0085563D01*
X0238413Y0085633D01*
X0238557Y0085698D01*
X0238703Y0085760D01*
X0238850Y0085818D01*
X0238999Y0085873D01*
X0239149Y0085924D01*
X0239300Y0085971D01*
X0239452Y0086014D01*
X0239605Y0086053D01*
X0239760Y0086089D01*
X0239915Y0086120D01*
X0240071Y0086148D01*
X0240227Y0086172D01*
X0240384Y0086192D01*
X0240542Y0086208D01*
X0240699Y0086220D01*
X0240858Y0086228D01*
X0241016Y0086232D01*
X0241174Y0086232D01*
X0241332Y0086228D01*
X0241491Y0086220D01*
X0241648Y0086208D01*
X0241806Y0086192D01*
X0241963Y0086172D01*
X0242119Y0086148D01*
X0242275Y0086120D01*
X0242430Y0086089D01*
X0242585Y0086053D01*
X0242738Y0086014D01*
X0242890Y0085971D01*
X0243041Y0085924D01*
X0243191Y0085873D01*
X0243340Y0085818D01*
X0243487Y0085760D01*
X0243633Y0085698D01*
X0243777Y0085633D01*
X0243919Y0085563D01*
X0244060Y0085491D01*
X0244199Y0085414D01*
X0244335Y0085335D01*
X0244470Y0085251D01*
X0244603Y0085165D01*
X0244733Y0085075D01*
X0244861Y0084982D01*
X0244987Y0084886D01*
X0245110Y0084786D01*
X0245231Y0084684D01*
X0245349Y0084579D01*
X0245464Y0084470D01*
X0245577Y0084359D01*
X0245687Y0084245D01*
X0245794Y0084128D01*
X0245898Y0084009D01*
X0245999Y0083887D01*
X0246096Y0083762D01*
X0246191Y0083635D01*
X0246282Y0083506D01*
X0246371Y0083375D01*
X0246455Y0083241D01*
X0246537Y0083105D01*
X0246615Y0082968D01*
X0246689Y0082828D01*
X0246760Y0082686D01*
X0246828Y0082543D01*
X0246892Y0082398D01*
X0246952Y0082252D01*
X0247008Y0082104D01*
X0247061Y0081955D01*
X0247110Y0081804D01*
X0247155Y0081652D01*
X0247196Y0081499D01*
X0247234Y0081346D01*
X0247267Y0081191D01*
X0247297Y0081035D01*
X0247323Y0080879D01*
X0247344Y0080722D01*
X0247362Y0080565D01*
X0247376Y0080407D01*
X0247386Y0080249D01*
X0247392Y0080091D01*
X0247394Y0079933D01*
X0247392Y0079775D01*
X0247386Y0079617D01*
X0247376Y0079459D01*
X0247362Y0079301D01*
X0247344Y0079144D01*
X0247323Y0078987D01*
X0247297Y0078831D01*
X0247267Y0078675D01*
X0247234Y0078520D01*
X0247196Y0078367D01*
X0247155Y0078214D01*
X0247110Y0078062D01*
X0247061Y0077911D01*
X0247008Y0077762D01*
X0246952Y0077614D01*
X0246892Y0077468D01*
X0246828Y0077323D01*
X0246760Y0077180D01*
X0246689Y0077038D01*
X0246615Y0076898D01*
X0246537Y0076761D01*
X0246455Y0076625D01*
X0246371Y0076491D01*
X0246282Y0076360D01*
X0246191Y0076231D01*
X0246096Y0076104D01*
X0245999Y0075979D01*
X0245898Y0075857D01*
X0245794Y0075738D01*
X0245687Y0075621D01*
X0245577Y0075507D01*
X0245464Y0075396D01*
X0245349Y0075287D01*
X0245231Y0075182D01*
X0245110Y0075080D01*
X0244987Y0074980D01*
X0244861Y0074884D01*
X0244733Y0074791D01*
X0244603Y0074701D01*
X0244470Y0074615D01*
X0244335Y0074531D01*
X0244199Y0074452D01*
X0244060Y0074375D01*
X0243919Y0074303D01*
X0243777Y0074233D01*
X0243633Y0074168D01*
X0243487Y0074106D01*
X0243340Y0074048D01*
X0243191Y0073993D01*
X0243041Y0073942D01*
X0242890Y0073895D01*
X0242738Y0073852D01*
X0242585Y0073813D01*
X0242430Y0073777D01*
X0242275Y0073746D01*
X0242119Y0073718D01*
X0241963Y0073694D01*
X0241806Y0073674D01*
X0241648Y0073658D01*
X0241491Y0073646D01*
X0241332Y0073638D01*
X0241174Y0073634D01*
X0241016Y0073634D01*
X0240858Y0073638D01*
X0240699Y0073646D01*
X0240542Y0073658D01*
X0240384Y0073674D01*
X0240227Y0073694D01*
X0240071Y0073718D01*
X0239915Y0073746D01*
X0239760Y0073777D01*
X0239605Y0073813D01*
X0239452Y0073852D01*
X0239300Y0073895D01*
X0239149Y0073942D01*
X0238999Y0073993D01*
X0238850Y0074048D01*
X0238703Y0074106D01*
X0238557Y0074168D01*
X0238413Y0074233D01*
X0238271Y0074303D01*
X0238130Y0074375D01*
X0237991Y0074452D01*
X0237855Y0074531D01*
X0237720Y0074615D01*
X0237587Y0074701D01*
X0237457Y0074791D01*
X0237329Y0074884D01*
X0237203Y0074980D01*
X0237080Y0075080D01*
X0236959Y0075182D01*
X0236841Y0075287D01*
X0236726Y0075396D01*
X0236613Y0075507D01*
X0236503Y0075621D01*
X0236396Y0075738D01*
X0236292Y0075857D01*
X0236191Y0075979D01*
X0236094Y0076104D01*
X0235999Y0076231D01*
X0235908Y0076360D01*
X0235819Y0076491D01*
X0235735Y0076625D01*
X0235653Y0076761D01*
X0235575Y0076898D01*
X0235501Y0077038D01*
X0235430Y0077180D01*
X0235362Y0077323D01*
X0235298Y0077468D01*
X0235238Y0077614D01*
X0235182Y0077762D01*
X0235129Y0077911D01*
X0235080Y0078062D01*
X0235035Y0078214D01*
X0234994Y0078367D01*
X0234956Y0078520D01*
X0234923Y0078675D01*
X0234893Y0078831D01*
X0234867Y0078987D01*
X0234846Y0079144D01*
X0234828Y0079301D01*
X0234814Y0079459D01*
X0234804Y0079617D01*
X0234798Y0079775D01*
X0234796Y0079933D01*
X0101095Y0049933D02*
X0098565Y0053390D01*
X0096120Y0056909D01*
X0093762Y0060486D01*
X0091492Y0064119D01*
X0089311Y0067808D01*
X0087222Y0071548D01*
X0085225Y0075338D01*
X0083321Y0079176D01*
X0081512Y0083060D01*
X0079798Y0086987D01*
X0078181Y0090954D01*
X0076661Y0094960D01*
X0075240Y0099002D01*
X0073918Y0103077D01*
X0072696Y0107184D01*
X0071575Y0111319D01*
X0070556Y0115480D01*
X0069639Y0119665D01*
X0068824Y0123872D01*
X0068113Y0128096D01*
X0067505Y0132338D01*
X0067002Y0136592D01*
X0066602Y0140858D01*
X0066307Y0145132D01*
X0066117Y0149412D01*
X0066031Y0153696D01*
X0066051Y0157980D01*
X0066175Y0162263D01*
X0066404Y0166541D01*
X0066737Y0170812D01*
X0067175Y0175074D01*
X0067717Y0179324D01*
X0068363Y0183560D01*
X0069113Y0187778D01*
X0069965Y0191977D01*
X0070920Y0196153D01*
X0071977Y0200305D01*
X0073135Y0204430D01*
X0074394Y0208526D01*
X0075752Y0212589D01*
X0077210Y0216618D01*
X0078766Y0220610D01*
X0080419Y0224562D01*
X0082168Y0228473D01*
X0084012Y0232340D01*
X0085951Y0236161D01*
X0087982Y0239933D01*
X0090105Y0243655D01*
X0092318Y0247323D01*
X0094621Y0250936D01*
X0097011Y0254492D01*
X0099488Y0257988D01*
X0102049Y0261422D01*
X0104694Y0264793D01*
X0107420Y0268098D01*
X0110227Y0271335D01*
X0113112Y0274503D01*
X0116073Y0277599D01*
X0119110Y0280622D01*
X0122219Y0283569D01*
X0125400Y0286440D01*
X0128649Y0289231D01*
X0131967Y0291943D01*
X0135349Y0294572D01*
X0138795Y0297118D01*
X0142302Y0299579D01*
X0145869Y0301953D01*
X0149492Y0304239D01*
X0153170Y0306436D01*
X0156901Y0308543D01*
X0160683Y0310557D01*
X0164512Y0312478D01*
X0168388Y0314305D01*
X0172306Y0316036D01*
X0176267Y0317672D01*
X0180266Y0319209D01*
X0184301Y0320649D01*
X0188370Y0321989D01*
X0192471Y0323229D01*
X0196601Y0324369D01*
X0200758Y0325407D01*
X0204939Y0326343D01*
X0209141Y0327176D01*
X0213363Y0327907D01*
X0217601Y0328533D01*
X0221854Y0329056D01*
X0226118Y0329475D01*
X0230390Y0329789D01*
X0234670Y0329999D01*
X0238953Y0330104D01*
X0243237Y0330104D01*
X0247520Y0329999D01*
X0251800Y0329789D01*
X0256072Y0329475D01*
X0260336Y0329056D01*
X0264589Y0328533D01*
X0268827Y0327907D01*
X0273049Y0327176D01*
X0277251Y0326343D01*
X0281432Y0325407D01*
X0285589Y0324369D01*
X0289719Y0323229D01*
X0293820Y0321989D01*
X0297889Y0320649D01*
X0301924Y0319209D01*
X0305923Y0317672D01*
X0309884Y0316036D01*
X0313802Y0314305D01*
X0317678Y0312478D01*
X0321507Y0310557D01*
X0325289Y0308543D01*
X0329020Y0306436D01*
X0332698Y0304239D01*
X0336321Y0301953D01*
X0339888Y0299579D01*
X0343395Y0297118D01*
X0346841Y0294572D01*
X0350223Y0291943D01*
X0353541Y0289231D01*
X0356790Y0286440D01*
X0359971Y0283569D01*
X0363080Y0280622D01*
X0366117Y0277599D01*
X0369078Y0274503D01*
X0371963Y0271335D01*
X0374770Y0268098D01*
X0377496Y0264793D01*
X0380141Y0261422D01*
X0382702Y0257988D01*
X0385179Y0254492D01*
X0387569Y0250936D01*
X0389872Y0247323D01*
X0392085Y0243655D01*
X0394208Y0239933D01*
X0396239Y0236161D01*
X0398178Y0232340D01*
X0400022Y0228473D01*
X0401771Y0224562D01*
X0403424Y0220610D01*
X0404980Y0216618D01*
X0406438Y0212589D01*
X0407796Y0208526D01*
X0409055Y0204430D01*
X0410213Y0200305D01*
X0411270Y0196153D01*
X0412225Y0191977D01*
X0413077Y0187778D01*
X0413827Y0183560D01*
X0414473Y0179324D01*
X0415015Y0175074D01*
X0415453Y0170812D01*
X0415786Y0166541D01*
X0416015Y0162263D01*
X0416139Y0157980D01*
X0416159Y0153696D01*
X0416073Y0149412D01*
X0415883Y0145132D01*
X0415588Y0140858D01*
X0415188Y0136592D01*
X0414685Y0132338D01*
X0414077Y0128096D01*
X0413366Y0123872D01*
X0412551Y0119665D01*
X0411634Y0115480D01*
X0410615Y0111319D01*
X0409494Y0107184D01*
X0408272Y0103077D01*
X0406950Y0099002D01*
X0405529Y0094960D01*
X0404009Y0090954D01*
X0402392Y0086987D01*
X0400678Y0083060D01*
X0398869Y0079176D01*
X0396965Y0075338D01*
X0394968Y0071548D01*
X0392879Y0067808D01*
X0390698Y0064119D01*
X0388428Y0060486D01*
X0386070Y0056909D01*
X0383625Y0053390D01*
X0381095Y0049933D01*
X0234796Y0229933D02*
X0234798Y0230091D01*
X0234804Y0230249D01*
X0234814Y0230407D01*
X0234828Y0230565D01*
X0234846Y0230722D01*
X0234867Y0230879D01*
X0234893Y0231035D01*
X0234923Y0231191D01*
X0234956Y0231346D01*
X0234994Y0231499D01*
X0235035Y0231652D01*
X0235080Y0231804D01*
X0235129Y0231955D01*
X0235182Y0232104D01*
X0235238Y0232252D01*
X0235298Y0232398D01*
X0235362Y0232543D01*
X0235430Y0232686D01*
X0235501Y0232828D01*
X0235575Y0232968D01*
X0235653Y0233105D01*
X0235735Y0233241D01*
X0235819Y0233375D01*
X0235908Y0233506D01*
X0235999Y0233635D01*
X0236094Y0233762D01*
X0236191Y0233887D01*
X0236292Y0234009D01*
X0236396Y0234128D01*
X0236503Y0234245D01*
X0236613Y0234359D01*
X0236726Y0234470D01*
X0236841Y0234579D01*
X0236959Y0234684D01*
X0237080Y0234786D01*
X0237203Y0234886D01*
X0237329Y0234982D01*
X0237457Y0235075D01*
X0237587Y0235165D01*
X0237720Y0235251D01*
X0237855Y0235335D01*
X0237991Y0235414D01*
X0238130Y0235491D01*
X0238271Y0235563D01*
X0238413Y0235633D01*
X0238557Y0235698D01*
X0238703Y0235760D01*
X0238850Y0235818D01*
X0238999Y0235873D01*
X0239149Y0235924D01*
X0239300Y0235971D01*
X0239452Y0236014D01*
X0239605Y0236053D01*
X0239760Y0236089D01*
X0239915Y0236120D01*
X0240071Y0236148D01*
X0240227Y0236172D01*
X0240384Y0236192D01*
X0240542Y0236208D01*
X0240699Y0236220D01*
X0240858Y0236228D01*
X0241016Y0236232D01*
X0241174Y0236232D01*
X0241332Y0236228D01*
X0241491Y0236220D01*
X0241648Y0236208D01*
X0241806Y0236192D01*
X0241963Y0236172D01*
X0242119Y0236148D01*
X0242275Y0236120D01*
X0242430Y0236089D01*
X0242585Y0236053D01*
X0242738Y0236014D01*
X0242890Y0235971D01*
X0243041Y0235924D01*
X0243191Y0235873D01*
X0243340Y0235818D01*
X0243487Y0235760D01*
X0243633Y0235698D01*
X0243777Y0235633D01*
X0243919Y0235563D01*
X0244060Y0235491D01*
X0244199Y0235414D01*
X0244335Y0235335D01*
X0244470Y0235251D01*
X0244603Y0235165D01*
X0244733Y0235075D01*
X0244861Y0234982D01*
X0244987Y0234886D01*
X0245110Y0234786D01*
X0245231Y0234684D01*
X0245349Y0234579D01*
X0245464Y0234470D01*
X0245577Y0234359D01*
X0245687Y0234245D01*
X0245794Y0234128D01*
X0245898Y0234009D01*
X0245999Y0233887D01*
X0246096Y0233762D01*
X0246191Y0233635D01*
X0246282Y0233506D01*
X0246371Y0233375D01*
X0246455Y0233241D01*
X0246537Y0233105D01*
X0246615Y0232968D01*
X0246689Y0232828D01*
X0246760Y0232686D01*
X0246828Y0232543D01*
X0246892Y0232398D01*
X0246952Y0232252D01*
X0247008Y0232104D01*
X0247061Y0231955D01*
X0247110Y0231804D01*
X0247155Y0231652D01*
X0247196Y0231499D01*
X0247234Y0231346D01*
X0247267Y0231191D01*
X0247297Y0231035D01*
X0247323Y0230879D01*
X0247344Y0230722D01*
X0247362Y0230565D01*
X0247376Y0230407D01*
X0247386Y0230249D01*
X0247392Y0230091D01*
X0247394Y0229933D01*
X0247392Y0229775D01*
X0247386Y0229617D01*
X0247376Y0229459D01*
X0247362Y0229301D01*
X0247344Y0229144D01*
X0247323Y0228987D01*
X0247297Y0228831D01*
X0247267Y0228675D01*
X0247234Y0228520D01*
X0247196Y0228367D01*
X0247155Y0228214D01*
X0247110Y0228062D01*
X0247061Y0227911D01*
X0247008Y0227762D01*
X0246952Y0227614D01*
X0246892Y0227468D01*
X0246828Y0227323D01*
X0246760Y0227180D01*
X0246689Y0227038D01*
X0246615Y0226898D01*
X0246537Y0226761D01*
X0246455Y0226625D01*
X0246371Y0226491D01*
X0246282Y0226360D01*
X0246191Y0226231D01*
X0246096Y0226104D01*
X0245999Y0225979D01*
X0245898Y0225857D01*
X0245794Y0225738D01*
X0245687Y0225621D01*
X0245577Y0225507D01*
X0245464Y0225396D01*
X0245349Y0225287D01*
X0245231Y0225182D01*
X0245110Y0225080D01*
X0244987Y0224980D01*
X0244861Y0224884D01*
X0244733Y0224791D01*
X0244603Y0224701D01*
X0244470Y0224615D01*
X0244335Y0224531D01*
X0244199Y0224452D01*
X0244060Y0224375D01*
X0243919Y0224303D01*
X0243777Y0224233D01*
X0243633Y0224168D01*
X0243487Y0224106D01*
X0243340Y0224048D01*
X0243191Y0223993D01*
X0243041Y0223942D01*
X0242890Y0223895D01*
X0242738Y0223852D01*
X0242585Y0223813D01*
X0242430Y0223777D01*
X0242275Y0223746D01*
X0242119Y0223718D01*
X0241963Y0223694D01*
X0241806Y0223674D01*
X0241648Y0223658D01*
X0241491Y0223646D01*
X0241332Y0223638D01*
X0241174Y0223634D01*
X0241016Y0223634D01*
X0240858Y0223638D01*
X0240699Y0223646D01*
X0240542Y0223658D01*
X0240384Y0223674D01*
X0240227Y0223694D01*
X0240071Y0223718D01*
X0239915Y0223746D01*
X0239760Y0223777D01*
X0239605Y0223813D01*
X0239452Y0223852D01*
X0239300Y0223895D01*
X0239149Y0223942D01*
X0238999Y0223993D01*
X0238850Y0224048D01*
X0238703Y0224106D01*
X0238557Y0224168D01*
X0238413Y0224233D01*
X0238271Y0224303D01*
X0238130Y0224375D01*
X0237991Y0224452D01*
X0237855Y0224531D01*
X0237720Y0224615D01*
X0237587Y0224701D01*
X0237457Y0224791D01*
X0237329Y0224884D01*
X0237203Y0224980D01*
X0237080Y0225080D01*
X0236959Y0225182D01*
X0236841Y0225287D01*
X0236726Y0225396D01*
X0236613Y0225507D01*
X0236503Y0225621D01*
X0236396Y0225738D01*
X0236292Y0225857D01*
X0236191Y0225979D01*
X0236094Y0226104D01*
X0235999Y0226231D01*
X0235908Y0226360D01*
X0235819Y0226491D01*
X0235735Y0226625D01*
X0235653Y0226761D01*
X0235575Y0226898D01*
X0235501Y0227038D01*
X0235430Y0227180D01*
X0235362Y0227323D01*
X0235298Y0227468D01*
X0235238Y0227614D01*
X0235182Y0227762D01*
X0235129Y0227911D01*
X0235080Y0228062D01*
X0235035Y0228214D01*
X0234994Y0228367D01*
X0234956Y0228520D01*
X0234923Y0228675D01*
X0234893Y0228831D01*
X0234867Y0228987D01*
X0234846Y0229144D01*
X0234828Y0229301D01*
X0234814Y0229459D01*
X0234804Y0229617D01*
X0234798Y0229775D01*
X0234796Y0229933D01*
D11*
X0225095Y0197433D03*
X0215095Y0197433D03*
X0205095Y0197433D03*
X0195095Y0197433D03*
X0236024Y0166862D03*
X0228953Y0159791D03*
X0221882Y0152720D03*
X0243095Y0173933D03*
X0326595Y0235933D03*
X0326595Y0245933D03*
D12*
X0184095Y0253433D03*
X0174095Y0243433D03*
X0164095Y0253433D03*
X0174095Y0263433D03*
D13*
X0326595Y0265933D03*
X0326595Y0255933D03*
X0326595Y0275933D03*
X0326595Y0285933D03*
X0326595Y0225933D03*
D14*
X0341095Y0204933D03*
X0301095Y0257933D03*
X0295083Y0262327D03*
X0306595Y0265933D03*
X0309095Y0261933D03*
X0315095Y0272933D03*
X0314095Y0277933D03*
X0287583Y0273327D03*
X0275095Y0266933D03*
X0282095Y0261433D03*
X0266788Y0253778D03*
X0262595Y0261553D03*
X0246595Y0255933D03*
X0238595Y0252433D03*
X0233595Y0256433D03*
X0229595Y0260933D03*
X0226595Y0265933D03*
X0223095Y0268933D03*
X0214083Y0264327D03*
X0214083Y0256827D03*
X0219095Y0248933D03*
X0220095Y0231933D03*
X0242595Y0245433D03*
X0246595Y0248933D03*
X0253788Y0246278D03*
X0219095Y0276933D03*
X0234058Y0280327D03*
X0238536Y0282246D03*
X0242375Y0279687D03*
X0250692Y0282246D03*
X0239595Y0293433D03*
X0241095Y0298433D03*
X0231499Y0293762D03*
X0223095Y0303433D03*
X0227768Y0310961D03*
X0216268Y0312961D03*
X0208768Y0296961D03*
X0205768Y0286461D03*
X0204583Y0270327D03*
X0262595Y0299933D03*
X0275583Y0291827D03*
X0275083Y0281327D03*
X0241095Y0318933D03*
X0210595Y0206933D03*
X0200095Y0207433D03*
X0217595Y0178433D03*
X0210595Y0170933D03*
X0241095Y0196933D03*
X0141095Y0204933D03*
D15*
X0089855Y0071322D02*
X0098214Y0057741D01*
X0102226Y0052133D01*
X0379965Y0052133D01*
X0383976Y0057741D01*
X0392335Y0071322D01*
X0399408Y0085616D01*
X0405132Y0100500D01*
X0409461Y0115849D01*
X0412357Y0131531D01*
X0413795Y0147413D01*
X0413764Y0163361D01*
X0412263Y0179237D01*
X0409306Y0194908D01*
X0404917Y0210240D01*
X0399134Y0225102D01*
X0392006Y0239367D01*
X0383593Y0252916D01*
X0373968Y0265631D01*
X0363212Y0277405D01*
X0351417Y0288138D01*
X0338683Y0297738D01*
X0325118Y0306124D01*
X0310838Y0313224D01*
X0295965Y0318978D01*
X0280625Y0323337D01*
X0264948Y0326263D01*
X0249069Y0327733D01*
X0233121Y0327733D01*
X0217242Y0326263D01*
X0201565Y0323337D01*
X0186225Y0318978D01*
X0171352Y0313224D01*
X0157072Y0306124D01*
X0143508Y0297738D01*
X0130774Y0288138D01*
X0118978Y0277405D01*
X0108222Y0265631D01*
X0098597Y0252916D01*
X0090185Y0239367D01*
X0083057Y0225102D01*
X0077273Y0210240D01*
X0072884Y0194908D01*
X0069927Y0179237D01*
X0068426Y0163361D01*
X0068395Y0147413D01*
X0069833Y0131531D01*
X0072729Y0115849D01*
X0077058Y0100500D01*
X0082783Y0085616D01*
X0089855Y0071322D01*
X0090062Y0070985D02*
X0297596Y0070985D01*
X0297596Y0071624D02*
X0297596Y0068242D01*
X0298890Y0065119D01*
X0301281Y0062728D01*
X0304405Y0061434D01*
X0307786Y0061434D01*
X0310910Y0062728D01*
X0313300Y0065119D01*
X0314594Y0068242D01*
X0314594Y0071624D01*
X0313300Y0074747D01*
X0310910Y0077138D01*
X0307786Y0078432D01*
X0304405Y0078432D01*
X0301281Y0077138D01*
X0298890Y0074747D01*
X0297596Y0071624D01*
X0298325Y0073384D02*
X0246565Y0073384D01*
X0245910Y0072728D02*
X0248300Y0075119D01*
X0249594Y0078242D01*
X0249594Y0081624D01*
X0248300Y0084747D01*
X0245910Y0087138D01*
X0242786Y0088432D01*
X0239405Y0088432D01*
X0236281Y0087138D01*
X0233890Y0084747D01*
X0232596Y0081624D01*
X0232596Y0078242D01*
X0233890Y0075119D01*
X0236281Y0072728D01*
X0239405Y0071434D01*
X0242786Y0071434D01*
X0245910Y0072728D01*
X0248575Y0075782D02*
X0299925Y0075782D01*
X0303797Y0078181D02*
X0249569Y0078181D01*
X0249594Y0080579D02*
X0396916Y0080579D01*
X0395729Y0078181D02*
X0308393Y0078181D01*
X0312266Y0075782D02*
X0394542Y0075782D01*
X0393356Y0073384D02*
X0313865Y0073384D01*
X0314594Y0070985D02*
X0392128Y0070985D01*
X0390652Y0068587D02*
X0314594Y0068587D01*
X0313743Y0066188D02*
X0389176Y0066188D01*
X0387699Y0063790D02*
X0311971Y0063790D01*
X0300219Y0063790D02*
X0094491Y0063790D01*
X0093015Y0066188D02*
X0298447Y0066188D01*
X0297596Y0068587D02*
X0091538Y0068587D01*
X0088835Y0073384D02*
X0235625Y0073384D01*
X0233615Y0075782D02*
X0087648Y0075782D01*
X0086461Y0078181D02*
X0232621Y0078181D01*
X0232596Y0080579D02*
X0085275Y0080579D01*
X0084088Y0082978D02*
X0233157Y0082978D01*
X0234519Y0085376D02*
X0082901Y0085376D01*
X0081952Y0087775D02*
X0237817Y0087775D01*
X0244373Y0087775D02*
X0317790Y0087775D01*
X0317596Y0088242D02*
X0318890Y0085119D01*
X0321281Y0082728D01*
X0324405Y0081434D01*
X0327786Y0081434D01*
X0330910Y0082728D01*
X0333300Y0085119D01*
X0334594Y0088242D01*
X0334594Y0091624D01*
X0333300Y0094747D01*
X0330910Y0097138D01*
X0327786Y0098432D01*
X0324405Y0098432D01*
X0321281Y0097138D01*
X0318890Y0094747D01*
X0317596Y0091624D01*
X0317596Y0088242D01*
X0317596Y0090173D02*
X0081030Y0090173D01*
X0080107Y0092572D02*
X0317989Y0092572D01*
X0319113Y0094970D02*
X0079185Y0094970D01*
X0078262Y0097369D02*
X0321837Y0097369D01*
X0330353Y0097369D02*
X0403928Y0097369D01*
X0404851Y0099767D02*
X0077340Y0099767D01*
X0076588Y0102166D02*
X0405602Y0102166D01*
X0406279Y0104564D02*
X0075912Y0104564D01*
X0075235Y0106963D02*
X0406955Y0106963D01*
X0407632Y0109361D02*
X0074559Y0109361D01*
X0073882Y0111760D02*
X0408308Y0111760D01*
X0408984Y0114158D02*
X0073206Y0114158D01*
X0072598Y0116557D02*
X0409592Y0116557D01*
X0410035Y0118955D02*
X0072155Y0118955D01*
X0071713Y0121354D02*
X0410478Y0121354D01*
X0410921Y0123752D02*
X0071270Y0123752D01*
X0070827Y0126151D02*
X0411364Y0126151D01*
X0411806Y0128549D02*
X0070384Y0128549D01*
X0069941Y0130948D02*
X0412249Y0130948D01*
X0412521Y0133346D02*
X0069669Y0133346D01*
X0069452Y0135745D02*
X0412739Y0135745D01*
X0412956Y0138143D02*
X0069234Y0138143D01*
X0069017Y0140542D02*
X0413173Y0140542D01*
X0413390Y0142941D02*
X0068800Y0142941D01*
X0068583Y0145339D02*
X0413608Y0145339D01*
X0413795Y0147738D02*
X0223964Y0147738D01*
X0224941Y0148142D02*
X0226460Y0149661D01*
X0227282Y0151646D01*
X0227282Y0153794D01*
X0226860Y0154813D01*
X0227879Y0154391D01*
X0230027Y0154391D01*
X0232012Y0155213D01*
X0233531Y0156732D01*
X0234353Y0158717D01*
X0234353Y0160865D01*
X0233931Y0161884D01*
X0234950Y0161462D01*
X0237098Y0161462D01*
X0239083Y0162284D01*
X0240602Y0163803D01*
X0241424Y0165788D01*
X0241424Y0167936D01*
X0241263Y0168325D01*
X0241714Y0168178D01*
X0242631Y0168033D01*
X0243559Y0168033D01*
X0244477Y0168178D01*
X0245360Y0168465D01*
X0246187Y0168887D01*
X0246939Y0169433D01*
X0247267Y0169761D01*
X0243095Y0173933D01*
X0238923Y0178105D01*
X0238595Y0177777D01*
X0238049Y0177025D01*
X0237627Y0176198D01*
X0237340Y0175315D01*
X0237195Y0174397D01*
X0237195Y0173469D01*
X0237340Y0172551D01*
X0237487Y0172101D01*
X0237098Y0172262D01*
X0234950Y0172262D01*
X0232965Y0171440D01*
X0231446Y0169921D01*
X0230624Y0167936D01*
X0230624Y0165788D01*
X0231046Y0164769D01*
X0230027Y0165191D01*
X0228220Y0165191D01*
X0208395Y0185016D01*
X0208395Y0193096D01*
X0209673Y0194374D01*
X0210095Y0195393D01*
X0210517Y0194374D01*
X0212036Y0192855D01*
X0214021Y0192033D01*
X0216169Y0192033D01*
X0218154Y0192855D01*
X0219673Y0194374D01*
X0219834Y0194763D01*
X0220049Y0194341D01*
X0220595Y0193589D01*
X0221252Y0192933D01*
X0222003Y0192387D01*
X0222830Y0191965D01*
X0223714Y0191678D01*
X0224631Y0191533D01*
X0225095Y0191533D01*
X0225095Y0197433D01*
X0225095Y0197433D01*
X0225095Y0191533D01*
X0225559Y0191533D01*
X0226477Y0191678D01*
X0227360Y0191965D01*
X0228187Y0192387D01*
X0228939Y0192933D01*
X0229595Y0193589D01*
X0230141Y0194341D01*
X0230563Y0195168D01*
X0230850Y0196051D01*
X0230995Y0196969D01*
X0230995Y0197433D01*
X0225095Y0197433D01*
X0225095Y0203333D01*
X0224631Y0203333D01*
X0223714Y0203188D01*
X0222830Y0202901D01*
X0222003Y0202479D01*
X0221252Y0201933D01*
X0220595Y0201277D01*
X0220049Y0200525D01*
X0219834Y0200103D01*
X0219673Y0200492D01*
X0218154Y0202011D01*
X0216169Y0202833D01*
X0214021Y0202833D01*
X0212036Y0202011D01*
X0210517Y0200492D01*
X0210095Y0199473D01*
X0209673Y0200492D01*
X0208154Y0202011D01*
X0207395Y0202325D01*
X0207395Y0208980D01*
X0227548Y0229133D01*
X0228895Y0230480D01*
X0228895Y0242880D01*
X0232642Y0239133D01*
X0234548Y0239133D01*
X0313642Y0239133D01*
X0317795Y0234980D01*
X0319142Y0233633D01*
X0321703Y0233633D01*
X0322017Y0232874D01*
X0323536Y0231355D01*
X0325521Y0230533D01*
X0327669Y0230533D01*
X0329654Y0231355D01*
X0331173Y0232874D01*
X0331995Y0234859D01*
X0331995Y0237007D01*
X0331173Y0238992D01*
X0329654Y0240511D01*
X0328635Y0240933D01*
X0329654Y0241355D01*
X0331173Y0242874D01*
X0331995Y0244859D01*
X0331995Y0247007D01*
X0331173Y0248992D01*
X0329654Y0250511D01*
X0327669Y0251333D01*
X0325521Y0251333D01*
X0323536Y0250511D01*
X0322017Y0248992D01*
X0321661Y0248133D01*
X0315006Y0248133D01*
X0307406Y0255733D01*
X0322095Y0255733D01*
X0322095Y0255038D01*
X0322780Y0253384D01*
X0324046Y0252118D01*
X0325700Y0251433D01*
X0327490Y0251433D01*
X0329144Y0252118D01*
X0330410Y0253384D01*
X0331095Y0255038D01*
X0331095Y0256828D01*
X0330410Y0258482D01*
X0329144Y0259748D01*
X0327490Y0260433D01*
X0325700Y0260433D01*
X0324976Y0260133D01*
X0303540Y0260133D01*
X0302956Y0260717D01*
X0301748Y0261217D01*
X0300442Y0261217D01*
X0299235Y0260717D01*
X0298311Y0259793D01*
X0297811Y0258586D01*
X0297811Y0257280D01*
X0298079Y0256633D01*
X0290006Y0256633D01*
X0285379Y0261260D01*
X0285379Y0262086D01*
X0284879Y0263293D01*
X0283956Y0264217D01*
X0282748Y0264717D01*
X0281442Y0264717D01*
X0280235Y0264217D01*
X0279311Y0263293D01*
X0278811Y0262086D01*
X0278811Y0260780D01*
X0279311Y0259573D01*
X0280235Y0258649D01*
X0281442Y0258149D01*
X0282268Y0258149D01*
X0286895Y0253522D01*
X0288184Y0252233D01*
X0304684Y0252233D01*
X0311895Y0245022D01*
X0313184Y0243733D01*
X0321661Y0243733D01*
X0322017Y0242874D01*
X0323536Y0241355D01*
X0324555Y0240933D01*
X0323536Y0240511D01*
X0322017Y0238992D01*
X0321703Y0238233D01*
X0321048Y0238233D01*
X0315548Y0243733D01*
X0245446Y0243733D01*
X0245879Y0244780D01*
X0245879Y0245675D01*
X0245942Y0245649D01*
X0247248Y0245649D01*
X0248456Y0246149D01*
X0249379Y0247073D01*
X0249879Y0248280D01*
X0249879Y0249586D01*
X0249379Y0250793D01*
X0248795Y0251378D01*
X0248795Y0253488D01*
X0249379Y0254073D01*
X0249879Y0255280D01*
X0249879Y0256586D01*
X0249379Y0257793D01*
X0248456Y0258717D01*
X0247248Y0259217D01*
X0245942Y0259217D01*
X0244795Y0258742D01*
X0244795Y0277463D01*
X0245159Y0277827D01*
X0245659Y0279034D01*
X0245659Y0280340D01*
X0245496Y0280733D01*
X0247184Y0280733D01*
X0247871Y0280046D01*
X0248247Y0280046D01*
X0248831Y0279462D01*
X0250038Y0278962D01*
X0251345Y0278962D01*
X0252552Y0279462D01*
X0253476Y0280386D01*
X0253976Y0281593D01*
X0253976Y0282899D01*
X0253476Y0284106D01*
X0252552Y0285030D01*
X0251345Y0285530D01*
X0250038Y0285530D01*
X0249028Y0285112D01*
X0249006Y0285133D01*
X0243506Y0285133D01*
X0242295Y0286344D01*
X0241006Y0287633D01*
X0234910Y0287633D01*
X0233699Y0288844D01*
X0233699Y0291317D01*
X0234283Y0291901D01*
X0234783Y0293109D01*
X0234783Y0294415D01*
X0234283Y0295622D01*
X0233772Y0296133D01*
X0238751Y0296133D01*
X0239235Y0295649D01*
X0240442Y0295149D01*
X0241748Y0295149D01*
X0242956Y0295649D01*
X0243879Y0296573D01*
X0244379Y0297780D01*
X0244379Y0299086D01*
X0243879Y0300293D01*
X0242956Y0301217D01*
X0241748Y0301717D01*
X0240442Y0301717D01*
X0239235Y0301217D01*
X0238751Y0300733D01*
X0229142Y0300733D01*
X0225395Y0296986D01*
X0225395Y0301088D01*
X0225879Y0301573D01*
X0226379Y0302780D01*
X0226379Y0304086D01*
X0225879Y0305293D01*
X0224956Y0306217D01*
X0223748Y0306717D01*
X0222442Y0306717D01*
X0221235Y0306217D01*
X0220311Y0305293D01*
X0219811Y0304086D01*
X0219811Y0302780D01*
X0220311Y0301573D01*
X0220795Y0301088D01*
X0220795Y0279784D01*
X0219748Y0280217D01*
X0218442Y0280217D01*
X0217235Y0279717D01*
X0216311Y0278793D01*
X0215811Y0277586D01*
X0215811Y0276280D01*
X0216311Y0275073D01*
X0216795Y0274588D01*
X0216795Y0251278D01*
X0216311Y0250793D01*
X0215811Y0249586D01*
X0215811Y0248280D01*
X0216311Y0247073D01*
X0217235Y0246149D01*
X0218442Y0245649D01*
X0219748Y0245649D01*
X0220795Y0246082D01*
X0220795Y0242886D01*
X0195095Y0217186D01*
X0176395Y0235886D01*
X0176395Y0238433D01*
X0177211Y0238770D01*
X0178758Y0240318D01*
X0179595Y0242339D01*
X0179595Y0244527D01*
X0178758Y0246549D01*
X0177211Y0248096D01*
X0175189Y0248933D01*
X0173001Y0248933D01*
X0170980Y0248096D01*
X0169432Y0246549D01*
X0168595Y0244527D01*
X0168595Y0242339D01*
X0169432Y0240318D01*
X0170980Y0238770D01*
X0171795Y0238433D01*
X0171795Y0233980D01*
X0173142Y0232633D01*
X0192795Y0212980D01*
X0192795Y0202325D01*
X0192036Y0202011D01*
X0190517Y0200492D01*
X0189695Y0198507D01*
X0189695Y0196359D01*
X0190517Y0194374D01*
X0191795Y0193096D01*
X0191795Y0178850D01*
X0192298Y0177637D01*
X0193226Y0176709D01*
X0216482Y0153453D01*
X0216482Y0151646D01*
X0217304Y0149661D01*
X0218823Y0148142D01*
X0220808Y0147320D01*
X0222956Y0147320D01*
X0224941Y0148142D01*
X0226657Y0150136D02*
X0413790Y0150136D01*
X0413785Y0152535D02*
X0227282Y0152535D01*
X0231336Y0154933D02*
X0413781Y0154933D01*
X0413776Y0157332D02*
X0233779Y0157332D01*
X0234353Y0159730D02*
X0413771Y0159730D01*
X0413767Y0162129D02*
X0238708Y0162129D01*
X0240902Y0164527D02*
X0413654Y0164527D01*
X0413427Y0166926D02*
X0241424Y0166926D01*
X0246789Y0169324D02*
X0413200Y0169324D01*
X0412974Y0171723D02*
X0248581Y0171723D01*
X0248563Y0171668D02*
X0248850Y0172551D01*
X0248995Y0173469D01*
X0248995Y0174397D01*
X0248850Y0175315D01*
X0248563Y0176198D01*
X0248141Y0177025D01*
X0247595Y0177777D01*
X0247267Y0178105D01*
X0246939Y0178433D01*
X0246187Y0178979D01*
X0245360Y0179401D01*
X0244477Y0179688D01*
X0243559Y0179833D01*
X0242631Y0179833D01*
X0241714Y0179688D01*
X0240830Y0179401D01*
X0240003Y0178979D01*
X0239252Y0178433D01*
X0238923Y0178105D01*
X0243095Y0173933D01*
X0243095Y0173933D01*
X0243095Y0173933D01*
X0247267Y0178105D01*
X0243095Y0173933D01*
X0243095Y0173933D01*
X0247267Y0169761D01*
X0247595Y0170089D01*
X0248141Y0170841D01*
X0248563Y0171668D01*
X0248995Y0174121D02*
X0412747Y0174121D01*
X0412520Y0176520D02*
X0248399Y0176520D01*
X0245682Y0176520D02*
X0245682Y0176520D01*
X0246271Y0178918D02*
X0412294Y0178918D01*
X0411871Y0181317D02*
X0212094Y0181317D01*
X0209696Y0183715D02*
X0411418Y0183715D01*
X0410966Y0186114D02*
X0208395Y0186114D01*
X0208395Y0188512D02*
X0410513Y0188512D01*
X0410060Y0190911D02*
X0208395Y0190911D01*
X0208608Y0193309D02*
X0211582Y0193309D01*
X0218608Y0193309D02*
X0220875Y0193309D01*
X0225095Y0193309D02*
X0225095Y0193309D01*
X0225095Y0195708D02*
X0225095Y0195708D01*
X0225095Y0197433D02*
X0225095Y0197433D01*
X0225095Y0197433D01*
X0225095Y0203333D01*
X0225559Y0203333D01*
X0226477Y0203188D01*
X0227360Y0202901D01*
X0228187Y0202479D01*
X0228939Y0201933D01*
X0229595Y0201277D01*
X0230141Y0200525D01*
X0230563Y0199698D01*
X0230850Y0198815D01*
X0230995Y0197897D01*
X0230995Y0197433D01*
X0225095Y0197433D01*
X0225095Y0198106D02*
X0225095Y0198106D01*
X0225095Y0200505D02*
X0225095Y0200505D01*
X0225095Y0202903D02*
X0225095Y0202903D01*
X0222838Y0202903D02*
X0207395Y0202903D01*
X0207395Y0205302D02*
X0406330Y0205302D01*
X0405644Y0207700D02*
X0207395Y0207700D01*
X0208514Y0210099D02*
X0404957Y0210099D01*
X0404038Y0212497D02*
X0210912Y0212497D01*
X0213311Y0214896D02*
X0403105Y0214896D01*
X0402172Y0217294D02*
X0215709Y0217294D01*
X0218108Y0219693D02*
X0401238Y0219693D01*
X0400305Y0222091D02*
X0329080Y0222091D01*
X0329144Y0222118D02*
X0330410Y0223384D01*
X0331095Y0225038D01*
X0331095Y0226828D01*
X0330410Y0228482D01*
X0329144Y0229748D01*
X0327490Y0230433D01*
X0325700Y0230433D01*
X0324046Y0229748D01*
X0322780Y0228482D01*
X0322095Y0226828D01*
X0322095Y0225038D01*
X0322780Y0223384D01*
X0324046Y0222118D01*
X0325700Y0221433D01*
X0327490Y0221433D01*
X0329144Y0222118D01*
X0330868Y0224490D02*
X0399372Y0224490D01*
X0398241Y0226888D02*
X0331070Y0226888D01*
X0329605Y0229287D02*
X0397042Y0229287D01*
X0395844Y0231685D02*
X0329984Y0231685D01*
X0331674Y0234084D02*
X0394645Y0234084D01*
X0393447Y0236482D02*
X0331995Y0236482D01*
X0331219Y0238881D02*
X0392249Y0238881D01*
X0390818Y0241279D02*
X0329471Y0241279D01*
X0331506Y0243678D02*
X0389329Y0243678D01*
X0387840Y0246077D02*
X0331995Y0246077D01*
X0331387Y0248475D02*
X0386350Y0248475D01*
X0384861Y0250874D02*
X0328779Y0250874D01*
X0330298Y0253272D02*
X0383323Y0253272D01*
X0381508Y0255671D02*
X0331095Y0255671D01*
X0330581Y0258069D02*
X0379692Y0258069D01*
X0377876Y0260468D02*
X0303205Y0260468D01*
X0304735Y0263149D02*
X0305942Y0262649D01*
X0307248Y0262649D01*
X0308456Y0263149D01*
X0309040Y0263733D01*
X0322636Y0263733D01*
X0322780Y0263384D01*
X0324046Y0262118D01*
X0325700Y0261433D01*
X0327490Y0261433D01*
X0329144Y0262118D01*
X0330410Y0263384D01*
X0331095Y0265038D01*
X0331095Y0266828D01*
X0330410Y0268482D01*
X0329144Y0269748D01*
X0327490Y0270433D01*
X0325700Y0270433D01*
X0324046Y0269748D01*
X0322780Y0268482D01*
X0322636Y0268133D01*
X0309040Y0268133D01*
X0308456Y0268717D01*
X0307248Y0269217D01*
X0306422Y0269217D01*
X0305506Y0270133D01*
X0275952Y0270133D01*
X0275748Y0270217D01*
X0274442Y0270217D01*
X0273235Y0269717D01*
X0272311Y0268793D01*
X0271811Y0267586D01*
X0271811Y0266280D01*
X0272311Y0265073D01*
X0273235Y0264149D01*
X0274442Y0263649D01*
X0275748Y0263649D01*
X0276956Y0264149D01*
X0277879Y0265073D01*
X0278153Y0265733D01*
X0303311Y0265733D01*
X0303311Y0265280D01*
X0303811Y0264073D01*
X0304735Y0263149D01*
X0305417Y0262866D02*
X0285056Y0262866D01*
X0286172Y0260468D02*
X0298985Y0260468D01*
X0297811Y0258069D02*
X0288570Y0258069D01*
X0284746Y0255671D02*
X0249879Y0255671D01*
X0249104Y0258069D02*
X0282348Y0258069D01*
X0278940Y0260468D02*
X0265700Y0260468D01*
X0265879Y0260900D02*
X0265879Y0262206D01*
X0265379Y0263414D01*
X0264895Y0263898D01*
X0264895Y0297588D01*
X0265379Y0298073D01*
X0265879Y0299280D01*
X0265879Y0300586D01*
X0265379Y0301793D01*
X0264456Y0302717D01*
X0263248Y0303217D01*
X0261942Y0303217D01*
X0260735Y0302717D01*
X0259811Y0301793D01*
X0259311Y0300586D01*
X0259311Y0299280D01*
X0259811Y0298073D01*
X0260295Y0297588D01*
X0260295Y0263898D01*
X0259811Y0263414D01*
X0259311Y0262206D01*
X0259311Y0260900D01*
X0259811Y0259693D01*
X0260735Y0258769D01*
X0261942Y0258269D01*
X0263248Y0258269D01*
X0264456Y0258769D01*
X0265379Y0259693D01*
X0265879Y0260900D01*
X0265606Y0262866D02*
X0279134Y0262866D01*
X0277959Y0265265D02*
X0303317Y0265265D01*
X0307773Y0262866D02*
X0323298Y0262866D01*
X0329892Y0262866D02*
X0376061Y0262866D01*
X0374245Y0265265D02*
X0331095Y0265265D01*
X0330749Y0267663D02*
X0372111Y0267663D01*
X0369920Y0270062D02*
X0328387Y0270062D01*
X0327490Y0271433D02*
X0329144Y0272118D01*
X0330410Y0273384D01*
X0331095Y0275038D01*
X0331095Y0276828D01*
X0330410Y0278482D01*
X0329144Y0279748D01*
X0327490Y0280433D01*
X0325700Y0280433D01*
X0324046Y0279748D01*
X0322780Y0278482D01*
X0322636Y0278133D01*
X0317518Y0278133D01*
X0322934Y0283231D01*
X0324046Y0282118D01*
X0325700Y0281433D01*
X0327490Y0281433D01*
X0329144Y0282118D01*
X0330410Y0283384D01*
X0331095Y0285038D01*
X0331095Y0286828D01*
X0330410Y0288482D01*
X0329144Y0289748D01*
X0327490Y0290433D01*
X0325700Y0290433D01*
X0324046Y0289748D01*
X0322780Y0288482D01*
X0322636Y0288133D01*
X0322628Y0288133D01*
X0321751Y0288160D01*
X0321723Y0288133D01*
X0321684Y0288133D01*
X0321063Y0287512D01*
X0314375Y0281217D01*
X0313442Y0281217D01*
X0312235Y0280717D01*
X0311311Y0279793D01*
X0310811Y0278586D01*
X0310811Y0277280D01*
X0311311Y0276073D01*
X0312235Y0275149D01*
X0312540Y0275022D01*
X0312311Y0274793D01*
X0311811Y0273586D01*
X0311811Y0272280D01*
X0312311Y0271073D01*
X0313235Y0270149D01*
X0314442Y0269649D01*
X0315748Y0269649D01*
X0316956Y0270149D01*
X0317879Y0271073D01*
X0318379Y0272280D01*
X0318379Y0273106D01*
X0319006Y0273733D01*
X0322636Y0273733D01*
X0322780Y0273384D01*
X0324046Y0272118D01*
X0325700Y0271433D01*
X0327490Y0271433D01*
X0329486Y0272460D02*
X0367729Y0272460D01*
X0365538Y0274859D02*
X0331021Y0274859D01*
X0330917Y0277257D02*
X0363347Y0277257D01*
X0360738Y0279656D02*
X0329237Y0279656D01*
X0328990Y0282054D02*
X0358102Y0282054D01*
X0355466Y0284453D02*
X0330853Y0284453D01*
X0331086Y0286851D02*
X0352831Y0286851D01*
X0349942Y0289250D02*
X0329642Y0289250D01*
X0323548Y0289250D02*
X0264895Y0289250D01*
X0264895Y0291648D02*
X0346760Y0291648D01*
X0343579Y0294047D02*
X0264895Y0294047D01*
X0264895Y0296445D02*
X0340397Y0296445D01*
X0336894Y0298844D02*
X0265699Y0298844D01*
X0265608Y0301242D02*
X0333014Y0301242D01*
X0329134Y0303641D02*
X0226379Y0303641D01*
X0225549Y0301242D02*
X0239295Y0301242D01*
X0242895Y0301242D02*
X0259583Y0301242D01*
X0259491Y0298844D02*
X0244379Y0298844D01*
X0243752Y0296445D02*
X0260295Y0296445D01*
X0260295Y0294047D02*
X0234783Y0294047D01*
X0234030Y0291648D02*
X0260295Y0291648D01*
X0260295Y0289250D02*
X0233699Y0289250D01*
X0229299Y0289250D02*
X0228895Y0289250D01*
X0229299Y0291317D02*
X0229299Y0287022D01*
X0231799Y0284522D01*
X0231799Y0283626D01*
X0231777Y0283603D01*
X0231799Y0282719D01*
X0231799Y0282712D01*
X0231273Y0282187D01*
X0230773Y0280980D01*
X0230773Y0279673D01*
X0231273Y0278466D01*
X0232197Y0277543D01*
X0233404Y0277043D01*
X0234711Y0277043D01*
X0235918Y0277543D01*
X0236842Y0278466D01*
X0237170Y0279257D01*
X0237883Y0278962D01*
X0239120Y0278962D01*
X0239590Y0277827D01*
X0240395Y0277022D01*
X0240395Y0255242D01*
X0239248Y0255717D01*
X0237942Y0255717D01*
X0236735Y0255217D01*
X0235811Y0254293D01*
X0235311Y0253086D01*
X0235311Y0251780D01*
X0235811Y0250573D01*
X0236735Y0249649D01*
X0237942Y0249149D01*
X0239248Y0249149D01*
X0240395Y0249624D01*
X0240395Y0247878D01*
X0239811Y0247293D01*
X0239311Y0246086D01*
X0239311Y0244780D01*
X0239744Y0243733D01*
X0234548Y0243733D01*
X0231895Y0246386D01*
X0231895Y0258588D01*
X0232379Y0259073D01*
X0232879Y0260280D01*
X0232879Y0261586D01*
X0232379Y0262793D01*
X0231456Y0263717D01*
X0230248Y0264217D01*
X0229439Y0264217D01*
X0229879Y0265280D01*
X0229879Y0266586D01*
X0229379Y0267793D01*
X0228895Y0268278D01*
X0228895Y0291721D01*
X0229299Y0291317D01*
X0228968Y0291648D02*
X0228895Y0291648D01*
X0228895Y0286851D02*
X0229469Y0286851D01*
X0228895Y0284453D02*
X0231799Y0284453D01*
X0231218Y0282054D02*
X0228895Y0282054D01*
X0228895Y0279656D02*
X0230781Y0279656D01*
X0228895Y0277257D02*
X0232886Y0277257D01*
X0235229Y0277257D02*
X0240160Y0277257D01*
X0240395Y0274859D02*
X0228895Y0274859D01*
X0228895Y0272460D02*
X0240395Y0272460D01*
X0240395Y0270062D02*
X0228895Y0270062D01*
X0229433Y0267663D02*
X0240395Y0267663D01*
X0240395Y0265265D02*
X0229873Y0265265D01*
X0232307Y0262866D02*
X0240395Y0262866D01*
X0240395Y0260468D02*
X0232879Y0260468D01*
X0231895Y0258069D02*
X0240395Y0258069D01*
X0240395Y0255671D02*
X0239361Y0255671D01*
X0237829Y0255671D02*
X0231895Y0255671D01*
X0231895Y0253272D02*
X0235388Y0253272D01*
X0235686Y0250874D02*
X0231895Y0250874D01*
X0231895Y0248475D02*
X0240395Y0248475D01*
X0239311Y0246077D02*
X0232204Y0246077D01*
X0230496Y0241279D02*
X0228895Y0241279D01*
X0228895Y0238881D02*
X0313895Y0238881D01*
X0316293Y0236482D02*
X0246565Y0236482D01*
X0245910Y0237138D02*
X0242786Y0238432D01*
X0239405Y0238432D01*
X0236281Y0237138D01*
X0233890Y0234747D01*
X0232596Y0231624D01*
X0232596Y0228242D01*
X0233890Y0225119D01*
X0236281Y0222728D01*
X0239405Y0221434D01*
X0242786Y0221434D01*
X0245910Y0222728D01*
X0248300Y0225119D01*
X0249594Y0228242D01*
X0249594Y0231624D01*
X0248300Y0234747D01*
X0245910Y0237138D01*
X0248575Y0234084D02*
X0318692Y0234084D01*
X0320400Y0238881D02*
X0321971Y0238881D01*
X0323719Y0241279D02*
X0318001Y0241279D01*
X0315603Y0243678D02*
X0321684Y0243678D01*
X0321803Y0248475D02*
X0314664Y0248475D01*
X0312266Y0250874D02*
X0324412Y0250874D01*
X0322892Y0253272D02*
X0309867Y0253272D01*
X0307469Y0255671D02*
X0322095Y0255671D01*
X0310840Y0246077D02*
X0248281Y0246077D01*
X0249879Y0248475D02*
X0308442Y0248475D01*
X0306043Y0250874D02*
X0249299Y0250874D01*
X0248795Y0253272D02*
X0287145Y0253272D01*
X0272231Y0265265D02*
X0264895Y0265265D01*
X0264895Y0267663D02*
X0271843Y0267663D01*
X0274066Y0270062D02*
X0264895Y0270062D01*
X0264895Y0272460D02*
X0311811Y0272460D01*
X0312376Y0274859D02*
X0264895Y0274859D01*
X0264895Y0277257D02*
X0310820Y0277257D01*
X0311254Y0279656D02*
X0264895Y0279656D01*
X0264895Y0282054D02*
X0315264Y0282054D01*
X0317812Y0284453D02*
X0264895Y0284453D01*
X0264895Y0286851D02*
X0320361Y0286851D01*
X0321684Y0282054D02*
X0324201Y0282054D01*
X0323954Y0279656D02*
X0319135Y0279656D01*
X0318379Y0272460D02*
X0323704Y0272460D01*
X0324803Y0270062D02*
X0316745Y0270062D01*
X0313445Y0270062D02*
X0305578Y0270062D01*
X0325255Y0306039D02*
X0225134Y0306039D01*
X0221057Y0306039D02*
X0156936Y0306039D01*
X0153056Y0303641D02*
X0219811Y0303641D01*
X0220641Y0301242D02*
X0149176Y0301242D01*
X0145297Y0298844D02*
X0220795Y0298844D01*
X0220795Y0296445D02*
X0141793Y0296445D01*
X0138612Y0294047D02*
X0220795Y0294047D01*
X0220795Y0291648D02*
X0135430Y0291648D01*
X0132249Y0289250D02*
X0220795Y0289250D01*
X0220795Y0286851D02*
X0129360Y0286851D01*
X0126724Y0284453D02*
X0220795Y0284453D01*
X0220795Y0282054D02*
X0124088Y0282054D01*
X0121452Y0279656D02*
X0217173Y0279656D01*
X0215811Y0277257D02*
X0118843Y0277257D01*
X0116652Y0274859D02*
X0216525Y0274859D01*
X0216795Y0272460D02*
X0114461Y0272460D01*
X0112270Y0270062D02*
X0216795Y0270062D01*
X0216795Y0267663D02*
X0177643Y0267663D01*
X0177211Y0268096D02*
X0175189Y0268933D01*
X0173001Y0268933D01*
X0170980Y0268096D01*
X0169432Y0266549D01*
X0168595Y0264527D01*
X0168595Y0262339D01*
X0169432Y0260318D01*
X0170980Y0258770D01*
X0173001Y0257933D01*
X0175189Y0257933D01*
X0177211Y0258770D01*
X0178758Y0260318D01*
X0179595Y0262339D01*
X0179595Y0264527D01*
X0178758Y0266549D01*
X0177211Y0268096D01*
X0179290Y0265265D02*
X0216795Y0265265D01*
X0216795Y0262866D02*
X0179595Y0262866D01*
X0178820Y0260468D02*
X0216795Y0260468D01*
X0216795Y0258069D02*
X0187237Y0258069D01*
X0187211Y0258096D02*
X0185189Y0258933D01*
X0183001Y0258933D01*
X0180980Y0258096D01*
X0179432Y0256549D01*
X0178595Y0254527D01*
X0178595Y0252339D01*
X0179432Y0250318D01*
X0180980Y0248770D01*
X0183001Y0247933D01*
X0185189Y0247933D01*
X0187211Y0248770D01*
X0188758Y0250318D01*
X0189595Y0252339D01*
X0189595Y0254527D01*
X0188758Y0256549D01*
X0187211Y0258096D01*
X0189121Y0255671D02*
X0216795Y0255671D01*
X0216795Y0253272D02*
X0189595Y0253272D01*
X0188988Y0250874D02*
X0216391Y0250874D01*
X0215811Y0248475D02*
X0186498Y0248475D01*
X0181693Y0248475D02*
X0176295Y0248475D01*
X0178953Y0246077D02*
X0217409Y0246077D01*
X0220781Y0246077D02*
X0220795Y0246077D01*
X0220795Y0243678D02*
X0179595Y0243678D01*
X0179156Y0241279D02*
X0219189Y0241279D01*
X0216790Y0238881D02*
X0177321Y0238881D01*
X0176395Y0236482D02*
X0214392Y0236482D01*
X0211993Y0234084D02*
X0178197Y0234084D01*
X0180595Y0231685D02*
X0209595Y0231685D01*
X0207196Y0229287D02*
X0182994Y0229287D01*
X0185392Y0226888D02*
X0204798Y0226888D01*
X0202399Y0224490D02*
X0187791Y0224490D01*
X0190189Y0222091D02*
X0200001Y0222091D01*
X0197602Y0219693D02*
X0192588Y0219693D01*
X0194987Y0217294D02*
X0195204Y0217294D01*
X0199311Y0214896D02*
X0206805Y0214896D01*
X0204407Y0212497D02*
X0197395Y0212497D01*
X0197395Y0212980D02*
X0224048Y0239633D01*
X0224295Y0239880D01*
X0224295Y0232386D01*
X0204142Y0212233D01*
X0202795Y0210886D01*
X0202795Y0202325D01*
X0202036Y0202011D01*
X0200517Y0200492D01*
X0200095Y0199473D01*
X0199673Y0200492D01*
X0198154Y0202011D01*
X0197395Y0202325D01*
X0197395Y0212980D01*
X0197395Y0210099D02*
X0202795Y0210099D01*
X0202795Y0207700D02*
X0197395Y0207700D01*
X0197395Y0205302D02*
X0202795Y0205302D01*
X0202795Y0202903D02*
X0197395Y0202903D01*
X0199660Y0200505D02*
X0200530Y0200505D01*
X0192795Y0202903D02*
X0075173Y0202903D01*
X0074487Y0200505D02*
X0190530Y0200505D01*
X0189695Y0198106D02*
X0073800Y0198106D01*
X0073113Y0195708D02*
X0189965Y0195708D01*
X0191582Y0193309D02*
X0072583Y0193309D01*
X0072130Y0190911D02*
X0191795Y0190911D01*
X0191795Y0188512D02*
X0071677Y0188512D01*
X0071225Y0186114D02*
X0191795Y0186114D01*
X0191795Y0183715D02*
X0070772Y0183715D01*
X0070319Y0181317D02*
X0191795Y0181317D01*
X0191795Y0178918D02*
X0069897Y0178918D01*
X0069670Y0176520D02*
X0193415Y0176520D01*
X0195814Y0174121D02*
X0069443Y0174121D01*
X0069217Y0171723D02*
X0198212Y0171723D01*
X0200611Y0169324D02*
X0068990Y0169324D01*
X0068763Y0166926D02*
X0203009Y0166926D01*
X0205408Y0164527D02*
X0068536Y0164527D01*
X0068424Y0162129D02*
X0207806Y0162129D01*
X0210205Y0159730D02*
X0068419Y0159730D01*
X0068414Y0157332D02*
X0212603Y0157332D01*
X0215002Y0154933D02*
X0068410Y0154933D01*
X0068405Y0152535D02*
X0216482Y0152535D01*
X0217107Y0150136D02*
X0068400Y0150136D01*
X0068395Y0147738D02*
X0219799Y0147738D01*
X0221149Y0158120D02*
X0198395Y0180874D01*
X0198395Y0193096D01*
X0199673Y0194374D01*
X0200095Y0195393D01*
X0200517Y0194374D01*
X0201795Y0193096D01*
X0201795Y0182992D01*
X0202298Y0181780D01*
X0203226Y0180851D01*
X0223553Y0160524D01*
X0223553Y0158717D01*
X0223975Y0157698D01*
X0222956Y0158120D01*
X0221149Y0158120D01*
X0219539Y0159730D02*
X0223553Y0159730D01*
X0221948Y0162129D02*
X0217140Y0162129D01*
X0214742Y0164527D02*
X0219550Y0164527D01*
X0217151Y0166926D02*
X0212343Y0166926D01*
X0209945Y0169324D02*
X0214753Y0169324D01*
X0212354Y0171723D02*
X0207546Y0171723D01*
X0205148Y0174121D02*
X0209956Y0174121D01*
X0207557Y0176520D02*
X0202749Y0176520D01*
X0200351Y0178918D02*
X0205159Y0178918D01*
X0202760Y0181317D02*
X0198395Y0181317D01*
X0198395Y0183715D02*
X0201795Y0183715D01*
X0201795Y0186114D02*
X0198395Y0186114D01*
X0198395Y0188512D02*
X0201795Y0188512D01*
X0201795Y0190911D02*
X0198395Y0190911D01*
X0198608Y0193309D02*
X0201582Y0193309D01*
X0209660Y0200505D02*
X0210530Y0200505D01*
X0219660Y0200505D02*
X0220039Y0200505D01*
X0227352Y0202903D02*
X0407017Y0202903D01*
X0407704Y0200505D02*
X0230152Y0200505D01*
X0230962Y0198106D02*
X0408390Y0198106D01*
X0409077Y0195708D02*
X0230738Y0195708D01*
X0229315Y0193309D02*
X0409608Y0193309D01*
X0324111Y0222091D02*
X0244373Y0222091D01*
X0247672Y0224490D02*
X0322322Y0224490D01*
X0322120Y0226888D02*
X0249033Y0226888D01*
X0249594Y0229287D02*
X0323585Y0229287D01*
X0323206Y0231685D02*
X0249569Y0231685D01*
X0235625Y0236482D02*
X0228895Y0236482D01*
X0228895Y0234084D02*
X0233615Y0234084D01*
X0232622Y0231685D02*
X0228895Y0231685D01*
X0227702Y0229287D02*
X0232596Y0229287D01*
X0233157Y0226888D02*
X0225303Y0226888D01*
X0222905Y0224490D02*
X0234519Y0224490D01*
X0237817Y0222091D02*
X0220506Y0222091D01*
X0216399Y0224490D02*
X0208905Y0224490D01*
X0211303Y0226888D02*
X0218798Y0226888D01*
X0221196Y0229287D02*
X0213702Y0229287D01*
X0216100Y0231685D02*
X0223595Y0231685D01*
X0224295Y0234084D02*
X0218499Y0234084D01*
X0220897Y0236482D02*
X0224295Y0236482D01*
X0224295Y0238881D02*
X0223296Y0238881D01*
X0214001Y0222091D02*
X0206506Y0222091D01*
X0204108Y0219693D02*
X0211602Y0219693D01*
X0209204Y0217294D02*
X0201709Y0217294D01*
X0192795Y0212497D02*
X0078152Y0212497D01*
X0077233Y0210099D02*
X0192795Y0210099D01*
X0192795Y0207700D02*
X0076546Y0207700D01*
X0075860Y0205302D02*
X0192795Y0205302D01*
X0190880Y0214896D02*
X0079085Y0214896D01*
X0080019Y0217294D02*
X0188481Y0217294D01*
X0186083Y0219693D02*
X0080952Y0219693D01*
X0081885Y0222091D02*
X0183684Y0222091D01*
X0181286Y0224490D02*
X0082819Y0224490D01*
X0083949Y0226888D02*
X0178887Y0226888D01*
X0176489Y0229287D02*
X0085148Y0229287D01*
X0086346Y0231685D02*
X0174090Y0231685D01*
X0171795Y0234084D02*
X0087545Y0234084D01*
X0088743Y0236482D02*
X0171795Y0236482D01*
X0170869Y0238881D02*
X0089942Y0238881D01*
X0091372Y0241279D02*
X0169034Y0241279D01*
X0168595Y0243678D02*
X0092861Y0243678D01*
X0094351Y0246077D02*
X0169237Y0246077D01*
X0167479Y0248475D02*
X0171895Y0248475D01*
X0169227Y0250288D02*
X0169656Y0251130D01*
X0169947Y0252028D01*
X0170095Y0252961D01*
X0170095Y0253433D01*
X0164095Y0253433D01*
X0158095Y0253433D01*
X0158095Y0252961D01*
X0158243Y0252028D01*
X0158535Y0251130D01*
X0158963Y0250288D01*
X0159519Y0249524D01*
X0160186Y0248857D01*
X0160950Y0248301D01*
X0161792Y0247873D01*
X0162690Y0247581D01*
X0163623Y0247433D01*
X0164095Y0247433D01*
X0164095Y0253433D01*
X0164095Y0253433D01*
X0164095Y0253433D01*
X0158095Y0253433D01*
X0158095Y0253905D01*
X0158243Y0254838D01*
X0158535Y0255736D01*
X0158963Y0256578D01*
X0159519Y0257342D01*
X0160186Y0258010D01*
X0160950Y0258565D01*
X0161792Y0258993D01*
X0162690Y0259285D01*
X0163623Y0259433D01*
X0164095Y0259433D01*
X0164095Y0253433D01*
X0164095Y0247433D01*
X0164567Y0247433D01*
X0165500Y0247581D01*
X0166398Y0247873D01*
X0167240Y0248301D01*
X0168004Y0248857D01*
X0168672Y0249524D01*
X0169227Y0250288D01*
X0169525Y0250874D02*
X0179202Y0250874D01*
X0178595Y0253272D02*
X0170095Y0253272D01*
X0170095Y0253433D02*
X0170095Y0253905D01*
X0169947Y0254838D01*
X0169656Y0255736D01*
X0169227Y0256578D01*
X0168672Y0257342D01*
X0168004Y0258010D01*
X0167240Y0258565D01*
X0166398Y0258993D01*
X0165500Y0259285D01*
X0164567Y0259433D01*
X0164095Y0259433D01*
X0164095Y0253433D01*
X0164095Y0253433D01*
X0164095Y0253433D01*
X0170095Y0253433D01*
X0169677Y0255671D02*
X0179069Y0255671D01*
X0180953Y0258069D02*
X0175517Y0258069D01*
X0172673Y0258069D02*
X0167922Y0258069D01*
X0169370Y0260468D02*
X0104314Y0260468D01*
X0106130Y0262866D02*
X0168595Y0262866D01*
X0168901Y0265265D02*
X0107945Y0265265D01*
X0110079Y0267663D02*
X0170547Y0267663D01*
X0164095Y0258069D02*
X0164095Y0258069D01*
X0164095Y0255671D02*
X0164095Y0255671D01*
X0164095Y0253272D02*
X0164095Y0253272D01*
X0164095Y0250874D02*
X0164095Y0250874D01*
X0164095Y0248475D02*
X0164095Y0248475D01*
X0160711Y0248475D02*
X0095840Y0248475D01*
X0097329Y0250874D02*
X0158665Y0250874D01*
X0158095Y0253272D02*
X0098867Y0253272D01*
X0100683Y0255671D02*
X0158513Y0255671D01*
X0160268Y0258069D02*
X0102498Y0258069D01*
X0161726Y0308438D02*
X0320464Y0308438D01*
X0315640Y0310836D02*
X0166550Y0310836D01*
X0171380Y0313235D02*
X0310810Y0313235D01*
X0304610Y0315633D02*
X0177580Y0315633D01*
X0183780Y0318032D02*
X0298410Y0318032D01*
X0290853Y0320430D02*
X0191337Y0320430D01*
X0199778Y0322829D02*
X0282412Y0322829D01*
X0270498Y0325227D02*
X0211692Y0325227D01*
X0231963Y0327626D02*
X0250227Y0327626D01*
X0227253Y0298844D02*
X0225395Y0298844D01*
X0241788Y0286851D02*
X0260295Y0286851D01*
X0260295Y0284453D02*
X0253130Y0284453D01*
X0253976Y0282054D02*
X0260295Y0282054D01*
X0260295Y0279656D02*
X0252746Y0279656D01*
X0248637Y0279656D02*
X0245659Y0279656D01*
X0244795Y0277257D02*
X0260295Y0277257D01*
X0260295Y0274859D02*
X0244795Y0274859D01*
X0244795Y0272460D02*
X0260295Y0272460D01*
X0260295Y0270062D02*
X0244795Y0270062D01*
X0244795Y0267663D02*
X0260295Y0267663D01*
X0260295Y0265265D02*
X0244795Y0265265D01*
X0244795Y0262866D02*
X0259584Y0262866D01*
X0259490Y0260468D02*
X0244795Y0260468D01*
X0239919Y0178918D02*
X0214493Y0178918D01*
X0216891Y0176520D02*
X0237791Y0176520D01*
X0237195Y0174121D02*
X0219290Y0174121D01*
X0221688Y0171723D02*
X0233648Y0171723D01*
X0231199Y0169324D02*
X0224087Y0169324D01*
X0226485Y0166926D02*
X0230624Y0166926D01*
X0240508Y0176520D02*
X0240509Y0176520D01*
X0242907Y0174121D02*
X0242907Y0174121D01*
X0243283Y0174121D02*
X0243283Y0174121D01*
X0245305Y0171723D02*
X0245306Y0171723D01*
X0333078Y0094970D02*
X0403006Y0094970D01*
X0402083Y0092572D02*
X0334202Y0092572D01*
X0334594Y0090173D02*
X0401161Y0090173D01*
X0400238Y0087775D02*
X0334401Y0087775D01*
X0333407Y0085376D02*
X0399289Y0085376D01*
X0398102Y0082978D02*
X0331159Y0082978D01*
X0321031Y0082978D02*
X0249033Y0082978D01*
X0247672Y0085376D02*
X0318783Y0085376D01*
X0381440Y0054196D02*
X0100750Y0054196D01*
X0099034Y0056594D02*
X0383156Y0056594D01*
X0384747Y0058993D02*
X0097444Y0058993D01*
X0095967Y0061391D02*
X0386223Y0061391D01*
D16*
X0233024Y0310352D02*
X0228877Y0310352D01*
D17*
X0223095Y0303433D02*
X0223095Y0268933D01*
X0223095Y0241933D01*
X0195095Y0213933D01*
X0174095Y0234933D01*
X0174095Y0243433D01*
X0195095Y0213933D02*
X0195095Y0197433D01*
X0205095Y0197433D02*
X0205095Y0209933D01*
X0226595Y0231433D01*
X0226595Y0265933D01*
X0226595Y0294933D01*
X0230095Y0298433D01*
X0241095Y0298433D01*
X0262595Y0299933D02*
X0262595Y0261553D01*
X0233595Y0241433D02*
X0229595Y0245433D01*
X0229595Y0260933D01*
X0219095Y0248933D02*
X0219095Y0276933D01*
X0233595Y0241433D02*
X0314595Y0241433D01*
X0320095Y0235933D01*
X0326595Y0235933D01*
D18*
X0228953Y0159791D02*
X0205095Y0183649D01*
X0205095Y0197433D01*
X0195095Y0197433D02*
X0195095Y0179507D01*
X0221882Y0152720D01*
D19*
X0242595Y0245433D02*
X0242595Y0279467D01*
X0242375Y0279687D01*
X0242595Y0282933D02*
X0240095Y0285433D01*
X0233999Y0285433D01*
X0231499Y0287933D01*
X0231499Y0293762D01*
X0233999Y0285433D02*
X0233999Y0282746D01*
X0234058Y0280327D01*
X0242595Y0282933D02*
X0248095Y0282933D01*
X0248782Y0282246D01*
X0250692Y0282246D01*
X0275095Y0266933D02*
X0276095Y0267933D01*
X0304595Y0267933D01*
X0306595Y0265933D01*
X0326095Y0265933D01*
X0318095Y0275933D02*
X0315095Y0272933D01*
X0318095Y0275933D02*
X0326595Y0275933D01*
X0326595Y0285933D02*
X0322595Y0285933D01*
X0314095Y0277933D01*
X0324595Y0257933D02*
X0301095Y0257933D01*
X0305595Y0254433D02*
X0289095Y0254433D01*
X0282095Y0261433D01*
X0305595Y0254433D02*
X0314095Y0245933D01*
X0326595Y0245933D01*
X0326595Y0255933D02*
X0324595Y0257933D01*
X0246595Y0255933D02*
X0246595Y0248933D01*
M02*
