G75*
%MOIN*%
%OFA0B0*%
%FSLAX25Y25*%
%IPPOS*%
%LPD*%
%AMOC8*
5,1,8,0,0,1.08239X$1,22.5*
%
%ADD10C,0.00000*%
%ADD11C,0.07400*%
%ADD12C,0.03169*%
%ADD13C,0.01200*%
%ADD14C,0.10000*%
%ADD15C,0.02400*%
%ADD16C,0.03200*%
%ADD17C,0.04724*%
%ADD18C,0.03562*%
D10*
X0047595Y0040183D02*
X0047595Y0070183D01*
X0067595Y0070183D01*
X0067595Y0077683D01*
X0047595Y0040183D02*
X0127595Y0040183D01*
X0127595Y0070183D01*
X0107595Y0070183D01*
X0107595Y0077683D01*
X0106569Y0079712D01*
X0105592Y0081765D01*
X0104665Y0083842D01*
X0103788Y0085939D01*
X0102962Y0088058D01*
X0102187Y0090195D01*
X0101463Y0092351D01*
X0100791Y0094523D01*
X0100171Y0096711D01*
X0099604Y0098912D01*
X0099090Y0101127D01*
X0098630Y0103354D01*
X0098223Y0105591D01*
X0097870Y0107837D01*
X0097570Y0110091D01*
X0097325Y0112352D01*
X0097134Y0114617D01*
X0096998Y0116887D01*
X0096916Y0119159D01*
X0096889Y0121433D01*
X0096916Y0123707D01*
X0096998Y0125979D01*
X0097134Y0128249D01*
X0097325Y0130514D01*
X0097570Y0132775D01*
X0097870Y0135029D01*
X0098223Y0137275D01*
X0098630Y0139512D01*
X0099090Y0141739D01*
X0099604Y0143954D01*
X0100171Y0146155D01*
X0100791Y0148343D01*
X0101463Y0150515D01*
X0102187Y0152671D01*
X0102962Y0154808D01*
X0103788Y0156927D01*
X0104665Y0159024D01*
X0105592Y0161101D01*
X0106569Y0163154D01*
X0107595Y0165183D01*
X0107595Y0250183D01*
X0107589Y0250670D01*
X0107571Y0251157D01*
X0107542Y0251643D01*
X0107500Y0252128D01*
X0107447Y0252612D01*
X0107382Y0253095D01*
X0107305Y0253576D01*
X0107217Y0254055D01*
X0107117Y0254532D01*
X0107005Y0255006D01*
X0106882Y0255477D01*
X0106747Y0255945D01*
X0106601Y0256410D01*
X0106444Y0256871D01*
X0106275Y0257328D01*
X0106096Y0257780D01*
X0105905Y0258229D01*
X0105704Y0258672D01*
X0105492Y0259111D01*
X0105269Y0259544D01*
X0105036Y0259971D01*
X0104792Y0260393D01*
X0104539Y0260809D01*
X0104275Y0261218D01*
X0104001Y0261621D01*
X0103718Y0262017D01*
X0103425Y0262406D01*
X0103123Y0262788D01*
X0102811Y0263163D01*
X0102490Y0263529D01*
X0102161Y0263888D01*
X0101823Y0264239D01*
X0101476Y0264581D01*
X0101122Y0264915D01*
X0100759Y0265240D01*
X0100388Y0265556D01*
X0100010Y0265863D01*
X0099625Y0266161D01*
X0099232Y0266449D01*
X0098833Y0266727D01*
X0098426Y0266996D01*
X0098014Y0267255D01*
X0097595Y0267504D01*
X0097170Y0267742D01*
X0096740Y0267970D01*
X0096304Y0268187D01*
X0095863Y0268394D01*
X0095417Y0268590D01*
X0094967Y0268775D01*
X0094512Y0268949D01*
X0094053Y0269112D01*
X0093590Y0269263D01*
X0093123Y0269404D01*
X0092654Y0269533D01*
X0092181Y0269650D01*
X0091706Y0269756D01*
X0091228Y0269850D01*
X0090748Y0269933D01*
X0090266Y0270004D01*
X0089782Y0270063D01*
X0089298Y0270110D01*
X0088812Y0270146D01*
X0088325Y0270170D01*
X0087839Y0270182D01*
X0087351Y0270182D01*
X0086865Y0270170D01*
X0086378Y0270146D01*
X0085892Y0270110D01*
X0085408Y0270063D01*
X0084924Y0270004D01*
X0084442Y0269933D01*
X0083962Y0269850D01*
X0083484Y0269756D01*
X0083009Y0269650D01*
X0082536Y0269533D01*
X0082067Y0269404D01*
X0081600Y0269263D01*
X0081137Y0269112D01*
X0080678Y0268949D01*
X0080223Y0268775D01*
X0079773Y0268590D01*
X0079327Y0268394D01*
X0078886Y0268187D01*
X0078450Y0267970D01*
X0078020Y0267742D01*
X0077595Y0267504D01*
X0077176Y0267255D01*
X0076764Y0266996D01*
X0076357Y0266727D01*
X0075958Y0266449D01*
X0075565Y0266161D01*
X0075180Y0265863D01*
X0074802Y0265556D01*
X0074431Y0265240D01*
X0074068Y0264915D01*
X0073714Y0264581D01*
X0073367Y0264239D01*
X0073029Y0263888D01*
X0072700Y0263529D01*
X0072379Y0263163D01*
X0072067Y0262788D01*
X0071765Y0262406D01*
X0071472Y0262017D01*
X0071189Y0261621D01*
X0070915Y0261218D01*
X0070651Y0260809D01*
X0070398Y0260393D01*
X0070154Y0259971D01*
X0069921Y0259544D01*
X0069698Y0259111D01*
X0069486Y0258672D01*
X0069285Y0258229D01*
X0069094Y0257780D01*
X0068915Y0257328D01*
X0068746Y0256871D01*
X0068589Y0256410D01*
X0068443Y0255945D01*
X0068308Y0255477D01*
X0068185Y0255006D01*
X0068073Y0254532D01*
X0067973Y0254055D01*
X0067885Y0253576D01*
X0067808Y0253095D01*
X0067743Y0252612D01*
X0067690Y0252128D01*
X0067648Y0251643D01*
X0067619Y0251157D01*
X0067601Y0250670D01*
X0067595Y0250183D01*
X0067595Y0165183D01*
X0068621Y0163154D01*
X0069598Y0161101D01*
X0070525Y0159024D01*
X0071402Y0156927D01*
X0072228Y0154808D01*
X0073003Y0152671D01*
X0073727Y0150515D01*
X0074399Y0148343D01*
X0075019Y0146155D01*
X0075586Y0143954D01*
X0076100Y0141739D01*
X0076560Y0139512D01*
X0076967Y0137275D01*
X0077320Y0135029D01*
X0077620Y0132775D01*
X0077865Y0130514D01*
X0078056Y0128249D01*
X0078192Y0125979D01*
X0078274Y0123707D01*
X0078301Y0121433D01*
X0078274Y0119159D01*
X0078192Y0116887D01*
X0078056Y0114617D01*
X0077865Y0112352D01*
X0077620Y0110091D01*
X0077320Y0107837D01*
X0076967Y0105591D01*
X0076560Y0103354D01*
X0076100Y0101127D01*
X0075586Y0098912D01*
X0075019Y0096711D01*
X0074399Y0094523D01*
X0073727Y0092351D01*
X0073003Y0090195D01*
X0072228Y0088058D01*
X0071402Y0085939D01*
X0070525Y0083842D01*
X0069598Y0081765D01*
X0068621Y0079712D01*
X0067595Y0077683D01*
D11*
X0072595Y0050183D03*
X0082595Y0050183D03*
X0092595Y0050183D03*
X0102595Y0050183D03*
D12*
X0097595Y0080183D03*
X0077595Y0080183D03*
X0077595Y0157683D03*
X0075595Y0167183D03*
X0082095Y0194183D03*
X0093095Y0194183D03*
X0095595Y0222683D03*
X0097595Y0243683D03*
X0079595Y0222683D03*
X0077595Y0243683D03*
X0097595Y0157683D03*
D13*
X0100527Y0152880D02*
X0092395Y0152880D01*
X0092395Y0153636D02*
X0091048Y0154983D01*
X0078255Y0167776D01*
X0077871Y0168704D01*
X0077116Y0169459D01*
X0076129Y0169867D01*
X0075061Y0169867D01*
X0074075Y0169459D01*
X0073320Y0168704D01*
X0072911Y0167717D01*
X0072911Y0166649D01*
X0073320Y0165663D01*
X0074075Y0164907D01*
X0075002Y0164523D01*
X0087795Y0151730D01*
X0087795Y0150183D01*
X0075678Y0150183D01*
X0071687Y0160788D01*
X0069195Y0165575D01*
X0069195Y0249520D01*
X0069195Y0250183D01*
X0069329Y0252401D01*
X0070391Y0256708D01*
X0072452Y0260635D01*
X0075394Y0263956D01*
X0079044Y0266475D01*
X0083192Y0268048D01*
X0087595Y0268583D01*
X0091999Y0268048D01*
X0096146Y0266475D01*
X0099797Y0263956D01*
X0102738Y0260635D01*
X0104799Y0256708D01*
X0105861Y0252401D01*
X0105995Y0250183D01*
X0105995Y0165575D01*
X0103504Y0160788D01*
X0099512Y0150183D01*
X0092395Y0150183D01*
X0092395Y0153636D01*
X0091952Y0154079D02*
X0100978Y0154079D01*
X0101429Y0155277D02*
X0090754Y0155277D01*
X0089555Y0156476D02*
X0101880Y0156476D01*
X0102332Y0157674D02*
X0088356Y0157674D01*
X0087158Y0158873D02*
X0102783Y0158873D01*
X0103234Y0160071D02*
X0085959Y0160071D01*
X0084761Y0161270D02*
X0103754Y0161270D01*
X0103504Y0160788D02*
X0103504Y0160788D01*
X0104378Y0162468D02*
X0083562Y0162468D01*
X0082364Y0163667D02*
X0105002Y0163667D01*
X0105626Y0164865D02*
X0081165Y0164865D01*
X0079967Y0166064D02*
X0105995Y0166064D01*
X0105995Y0167262D02*
X0078768Y0167262D01*
X0077971Y0168461D02*
X0105995Y0168461D01*
X0105995Y0169660D02*
X0076631Y0169660D01*
X0074560Y0169660D02*
X0069195Y0169660D01*
X0069195Y0170858D02*
X0105995Y0170858D01*
X0105995Y0172057D02*
X0069195Y0172057D01*
X0069195Y0173255D02*
X0105995Y0173255D01*
X0105995Y0174454D02*
X0069195Y0174454D01*
X0069195Y0175652D02*
X0105995Y0175652D01*
X0105995Y0176851D02*
X0069195Y0176851D01*
X0069195Y0178049D02*
X0105995Y0178049D01*
X0105995Y0179248D02*
X0069195Y0179248D01*
X0069195Y0180446D02*
X0105995Y0180446D01*
X0105995Y0181645D02*
X0069195Y0181645D01*
X0069195Y0182843D02*
X0105995Y0182843D01*
X0105995Y0184042D02*
X0069195Y0184042D01*
X0069195Y0185240D02*
X0105995Y0185240D01*
X0105995Y0186439D02*
X0069195Y0186439D01*
X0069195Y0187637D02*
X0105995Y0187637D01*
X0105995Y0188836D02*
X0069195Y0188836D01*
X0069195Y0190034D02*
X0105995Y0190034D01*
X0105995Y0191233D02*
X0069195Y0191233D01*
X0069195Y0192431D02*
X0105995Y0192431D01*
X0105995Y0193630D02*
X0069195Y0193630D01*
X0069195Y0194828D02*
X0105995Y0194828D01*
X0105995Y0196027D02*
X0069195Y0196027D01*
X0069195Y0197225D02*
X0086000Y0197225D01*
X0085963Y0197241D02*
X0087022Y0196802D01*
X0088168Y0196802D01*
X0089227Y0197241D01*
X0090038Y0198051D01*
X0090476Y0199110D01*
X0090476Y0200256D01*
X0090038Y0201315D01*
X0089895Y0201458D01*
X0089895Y0252409D01*
X0090038Y0252551D01*
X0090476Y0253610D01*
X0090476Y0254756D01*
X0090038Y0255815D01*
X0089227Y0256626D01*
X0088168Y0257064D01*
X0087022Y0257064D01*
X0085963Y0256626D01*
X0085153Y0255815D01*
X0084714Y0254756D01*
X0084714Y0253610D01*
X0085153Y0252551D01*
X0085295Y0252409D01*
X0085295Y0245383D01*
X0079691Y0245383D01*
X0079116Y0245959D01*
X0078129Y0246367D01*
X0077061Y0246367D01*
X0076075Y0245959D01*
X0075320Y0245204D01*
X0074911Y0244217D01*
X0074911Y0243149D01*
X0075320Y0242163D01*
X0076075Y0241407D01*
X0077061Y0240999D01*
X0078129Y0240999D01*
X0079116Y0241407D01*
X0079691Y0241983D01*
X0085295Y0241983D01*
X0085295Y0201458D01*
X0085153Y0201315D01*
X0084714Y0200256D01*
X0084714Y0199110D01*
X0085153Y0198051D01*
X0085963Y0197241D01*
X0084998Y0198424D02*
X0069195Y0198424D01*
X0069195Y0199622D02*
X0084714Y0199622D01*
X0084948Y0200821D02*
X0069195Y0200821D01*
X0069195Y0202019D02*
X0085295Y0202019D01*
X0085295Y0203218D02*
X0069195Y0203218D01*
X0069195Y0204416D02*
X0085295Y0204416D01*
X0085295Y0205615D02*
X0069195Y0205615D01*
X0069195Y0206813D02*
X0085295Y0206813D01*
X0085295Y0208012D02*
X0069195Y0208012D01*
X0069195Y0209210D02*
X0085295Y0209210D01*
X0085295Y0210409D02*
X0069195Y0210409D01*
X0069195Y0211607D02*
X0085295Y0211607D01*
X0085295Y0212806D02*
X0069195Y0212806D01*
X0069195Y0214004D02*
X0085295Y0214004D01*
X0085295Y0215203D02*
X0069195Y0215203D01*
X0069195Y0216401D02*
X0085295Y0216401D01*
X0085295Y0217600D02*
X0069195Y0217600D01*
X0069195Y0218798D02*
X0085295Y0218798D01*
X0085295Y0219997D02*
X0069195Y0219997D01*
X0069195Y0221195D02*
X0085295Y0221195D01*
X0085295Y0222394D02*
X0069195Y0222394D01*
X0069195Y0223593D02*
X0085295Y0223593D01*
X0085295Y0224791D02*
X0069195Y0224791D01*
X0069195Y0225990D02*
X0085295Y0225990D01*
X0085295Y0227188D02*
X0069195Y0227188D01*
X0069195Y0228387D02*
X0085295Y0228387D01*
X0085295Y0229585D02*
X0069195Y0229585D01*
X0069195Y0230784D02*
X0085295Y0230784D01*
X0085295Y0231982D02*
X0069195Y0231982D01*
X0069195Y0233181D02*
X0085295Y0233181D01*
X0085295Y0234379D02*
X0069195Y0234379D01*
X0069195Y0235578D02*
X0085295Y0235578D01*
X0085295Y0236776D02*
X0069195Y0236776D01*
X0069195Y0237975D02*
X0085295Y0237975D01*
X0085295Y0239173D02*
X0069195Y0239173D01*
X0069195Y0240372D02*
X0085295Y0240372D01*
X0085295Y0241570D02*
X0079278Y0241570D01*
X0077595Y0243683D02*
X0087595Y0243683D01*
X0085295Y0246364D02*
X0078137Y0246364D01*
X0077054Y0246364D02*
X0069195Y0246364D01*
X0069195Y0245166D02*
X0075304Y0245166D01*
X0074911Y0243967D02*
X0069195Y0243967D01*
X0069195Y0242769D02*
X0075068Y0242769D01*
X0075912Y0241570D02*
X0069195Y0241570D01*
X0069195Y0247563D02*
X0085295Y0247563D01*
X0085295Y0248761D02*
X0069195Y0248761D01*
X0069195Y0249960D02*
X0085295Y0249960D01*
X0085295Y0251158D02*
X0069254Y0251158D01*
X0069327Y0252357D02*
X0085295Y0252357D01*
X0084737Y0253555D02*
X0069614Y0253555D01*
X0069909Y0254754D02*
X0084714Y0254754D01*
X0085290Y0255952D02*
X0070205Y0255952D01*
X0070623Y0257151D02*
X0104567Y0257151D01*
X0104986Y0255952D02*
X0089900Y0255952D01*
X0090476Y0254754D02*
X0105281Y0254754D01*
X0105576Y0253555D02*
X0090454Y0253555D01*
X0089895Y0252357D02*
X0105864Y0252357D01*
X0105936Y0251158D02*
X0089895Y0251158D01*
X0089895Y0249960D02*
X0105995Y0249960D01*
X0105995Y0248761D02*
X0089895Y0248761D01*
X0089895Y0247563D02*
X0105995Y0247563D01*
X0105995Y0246364D02*
X0089895Y0246364D01*
X0089895Y0245166D02*
X0105995Y0245166D01*
X0105995Y0243967D02*
X0089895Y0243967D01*
X0089895Y0242769D02*
X0105995Y0242769D01*
X0105995Y0241570D02*
X0089895Y0241570D01*
X0089895Y0240372D02*
X0105995Y0240372D01*
X0105995Y0239173D02*
X0089895Y0239173D01*
X0089895Y0237975D02*
X0105995Y0237975D01*
X0105995Y0236776D02*
X0089895Y0236776D01*
X0089895Y0235578D02*
X0105995Y0235578D01*
X0105995Y0234379D02*
X0089895Y0234379D01*
X0089895Y0233181D02*
X0105995Y0233181D01*
X0105995Y0231982D02*
X0089895Y0231982D01*
X0089895Y0230784D02*
X0105995Y0230784D01*
X0105995Y0229585D02*
X0089895Y0229585D01*
X0089895Y0228387D02*
X0105995Y0228387D01*
X0105995Y0227188D02*
X0089895Y0227188D01*
X0089895Y0225990D02*
X0105995Y0225990D01*
X0105995Y0224791D02*
X0089895Y0224791D01*
X0089895Y0223593D02*
X0105995Y0223593D01*
X0105995Y0222394D02*
X0089895Y0222394D01*
X0089895Y0221195D02*
X0105995Y0221195D01*
X0105995Y0219997D02*
X0089895Y0219997D01*
X0089895Y0218798D02*
X0105995Y0218798D01*
X0105995Y0217600D02*
X0089895Y0217600D01*
X0089895Y0216401D02*
X0105995Y0216401D01*
X0105995Y0215203D02*
X0089895Y0215203D01*
X0089895Y0214004D02*
X0105995Y0214004D01*
X0105995Y0212806D02*
X0089895Y0212806D01*
X0089895Y0211607D02*
X0105995Y0211607D01*
X0105995Y0210409D02*
X0089895Y0210409D01*
X0089895Y0209210D02*
X0105995Y0209210D01*
X0105995Y0208012D02*
X0089895Y0208012D01*
X0089895Y0206813D02*
X0105995Y0206813D01*
X0105995Y0205615D02*
X0089895Y0205615D01*
X0089895Y0204416D02*
X0105995Y0204416D01*
X0105995Y0203218D02*
X0089895Y0203218D01*
X0089895Y0202019D02*
X0105995Y0202019D01*
X0105995Y0200821D02*
X0090242Y0200821D01*
X0090476Y0199622D02*
X0105995Y0199622D01*
X0105995Y0198424D02*
X0090192Y0198424D01*
X0089190Y0197225D02*
X0105995Y0197225D01*
X0085447Y0154079D02*
X0074212Y0154079D01*
X0073761Y0155277D02*
X0084248Y0155277D01*
X0083050Y0156476D02*
X0073310Y0156476D01*
X0072859Y0157674D02*
X0081851Y0157674D01*
X0080653Y0158873D02*
X0072408Y0158873D01*
X0071957Y0160071D02*
X0079454Y0160071D01*
X0078256Y0161270D02*
X0071436Y0161270D01*
X0071687Y0160788D02*
X0071687Y0160788D01*
X0070812Y0162468D02*
X0077057Y0162468D01*
X0075859Y0163667D02*
X0070188Y0163667D01*
X0069564Y0164865D02*
X0074176Y0164865D01*
X0073153Y0166064D02*
X0069195Y0166064D01*
X0069195Y0167262D02*
X0072911Y0167262D01*
X0073219Y0168461D02*
X0069195Y0168461D01*
X0074663Y0152880D02*
X0086645Y0152880D01*
X0087795Y0151682D02*
X0075114Y0151682D01*
X0075565Y0150483D02*
X0087795Y0150483D01*
X0092395Y0150483D02*
X0099625Y0150483D01*
X0100076Y0151682D02*
X0092395Y0151682D01*
X0092395Y0086183D02*
X0101958Y0086183D01*
X0103504Y0082078D01*
X0105995Y0077292D01*
X0105995Y0069520D01*
X0106932Y0068583D01*
X0125995Y0068583D01*
X0125995Y0041783D01*
X0049195Y0041783D01*
X0049195Y0068583D01*
X0068258Y0068583D01*
X0069195Y0069520D01*
X0069195Y0077292D01*
X0071687Y0082078D01*
X0073232Y0086183D01*
X0087795Y0086183D01*
X0087795Y0062980D01*
X0089133Y0061643D01*
X0089133Y0060744D01*
X0089660Y0059472D01*
X0090634Y0058498D01*
X0091906Y0057971D01*
X0093284Y0057971D01*
X0094556Y0058498D01*
X0095191Y0059133D01*
X0111945Y0059133D01*
X0112424Y0057978D01*
X0114140Y0056262D01*
X0116382Y0055333D01*
X0118809Y0055333D01*
X0121051Y0056262D01*
X0122766Y0057978D01*
X0123695Y0060220D01*
X0123695Y0062646D01*
X0122766Y0064888D01*
X0121051Y0066604D01*
X0118809Y0067533D01*
X0116382Y0067533D01*
X0114140Y0066604D01*
X0112424Y0064888D01*
X0111945Y0063733D01*
X0095191Y0063733D01*
X0094556Y0064368D01*
X0093284Y0064895D01*
X0092395Y0064895D01*
X0092395Y0086183D01*
X0092395Y0085764D02*
X0102116Y0085764D01*
X0102567Y0084565D02*
X0092395Y0084565D01*
X0092395Y0083367D02*
X0103018Y0083367D01*
X0103470Y0082168D02*
X0092395Y0082168D01*
X0092395Y0080970D02*
X0104080Y0080970D01*
X0104704Y0079771D02*
X0092395Y0079771D01*
X0092395Y0078573D02*
X0105328Y0078573D01*
X0105952Y0077374D02*
X0092395Y0077374D01*
X0092395Y0076176D02*
X0105995Y0076176D01*
X0105995Y0074977D02*
X0092395Y0074977D01*
X0092395Y0073779D02*
X0105995Y0073779D01*
X0105995Y0072580D02*
X0092395Y0072580D01*
X0092395Y0071382D02*
X0105995Y0071382D01*
X0105995Y0070183D02*
X0092395Y0070183D01*
X0092395Y0068985D02*
X0106531Y0068985D01*
X0112135Y0064191D02*
X0094734Y0064191D01*
X0092395Y0065389D02*
X0112924Y0065389D01*
X0114123Y0066588D02*
X0092395Y0066588D01*
X0092395Y0067786D02*
X0125995Y0067786D01*
X0125995Y0066588D02*
X0121067Y0066588D01*
X0122266Y0065389D02*
X0125995Y0065389D01*
X0125995Y0064191D02*
X0123056Y0064191D01*
X0123552Y0062992D02*
X0125995Y0062992D01*
X0125995Y0061793D02*
X0123695Y0061793D01*
X0123695Y0060595D02*
X0125995Y0060595D01*
X0125995Y0059396D02*
X0123354Y0059396D01*
X0122858Y0058198D02*
X0125995Y0058198D01*
X0125995Y0056999D02*
X0121788Y0056999D01*
X0121051Y0054104D02*
X0118809Y0055033D01*
X0116382Y0055033D01*
X0114140Y0054104D01*
X0112424Y0052388D01*
X0111495Y0050146D01*
X0111495Y0047720D01*
X0112424Y0045478D01*
X0114140Y0043762D01*
X0116382Y0042833D01*
X0118809Y0042833D01*
X0121051Y0043762D01*
X0122766Y0045478D01*
X0123695Y0047720D01*
X0123695Y0050146D01*
X0122766Y0052388D01*
X0121051Y0054104D01*
X0121751Y0053404D02*
X0125995Y0053404D01*
X0125995Y0054602D02*
X0119848Y0054602D01*
X0119938Y0055801D02*
X0125995Y0055801D01*
X0125995Y0052205D02*
X0122842Y0052205D01*
X0123339Y0051007D02*
X0125995Y0051007D01*
X0125995Y0049808D02*
X0123695Y0049808D01*
X0123695Y0048610D02*
X0125995Y0048610D01*
X0125995Y0047411D02*
X0123567Y0047411D01*
X0123071Y0046213D02*
X0125995Y0046213D01*
X0125995Y0045014D02*
X0122303Y0045014D01*
X0121105Y0043816D02*
X0125995Y0043816D01*
X0125995Y0042617D02*
X0049195Y0042617D01*
X0049195Y0043816D02*
X0114086Y0043816D01*
X0112887Y0045014D02*
X0073839Y0045014D01*
X0073836Y0045014D02*
X0074630Y0045271D01*
X0075373Y0045650D01*
X0076048Y0046140D01*
X0076638Y0046730D01*
X0077128Y0047405D01*
X0077507Y0048149D01*
X0077765Y0048942D01*
X0077806Y0049202D01*
X0078526Y0047464D01*
X0079876Y0046114D01*
X0081640Y0045383D01*
X0083550Y0045383D01*
X0085314Y0046114D01*
X0086664Y0047464D01*
X0087395Y0049228D01*
X0087395Y0051138D01*
X0086664Y0052902D01*
X0085314Y0054252D01*
X0083550Y0054983D01*
X0081640Y0054983D01*
X0079876Y0054252D01*
X0078526Y0052902D01*
X0077806Y0051164D01*
X0077765Y0051424D01*
X0077507Y0052218D01*
X0077128Y0052961D01*
X0076638Y0053636D01*
X0076048Y0054226D01*
X0075373Y0054716D01*
X0074630Y0055095D01*
X0073836Y0055353D01*
X0073012Y0055483D01*
X0072995Y0055483D01*
X0072995Y0050583D01*
X0072195Y0050583D01*
X0072195Y0049783D01*
X0067295Y0049783D01*
X0067295Y0049766D01*
X0067426Y0048942D01*
X0067683Y0048149D01*
X0068062Y0047405D01*
X0068553Y0046730D01*
X0069142Y0046140D01*
X0069817Y0045650D01*
X0070561Y0045271D01*
X0071354Y0045014D01*
X0072178Y0044883D01*
X0072195Y0044883D01*
X0072195Y0049783D01*
X0072995Y0049783D01*
X0072995Y0044883D01*
X0073012Y0044883D01*
X0073836Y0045014D01*
X0072995Y0045014D02*
X0072195Y0045014D01*
X0071352Y0045014D02*
X0049195Y0045014D01*
X0049195Y0046213D02*
X0069070Y0046213D01*
X0068059Y0047411D02*
X0049195Y0047411D01*
X0049195Y0048610D02*
X0067534Y0048610D01*
X0067295Y0050583D02*
X0072195Y0050583D01*
X0072195Y0055483D01*
X0072178Y0055483D01*
X0071354Y0055353D01*
X0070561Y0055095D01*
X0069817Y0054716D01*
X0069142Y0054226D01*
X0068553Y0053636D01*
X0068062Y0052961D01*
X0067683Y0052218D01*
X0067426Y0051424D01*
X0067295Y0050600D01*
X0067295Y0050583D01*
X0067360Y0051007D02*
X0049195Y0051007D01*
X0049195Y0052205D02*
X0067679Y0052205D01*
X0068384Y0053404D02*
X0049195Y0053404D01*
X0049195Y0054602D02*
X0069661Y0054602D01*
X0072195Y0054602D02*
X0072995Y0054602D01*
X0072995Y0053404D02*
X0072195Y0053404D01*
X0072195Y0052205D02*
X0072995Y0052205D01*
X0072995Y0051007D02*
X0072195Y0051007D01*
X0072195Y0049808D02*
X0049195Y0049808D01*
X0049195Y0055801D02*
X0055252Y0055801D01*
X0054140Y0056262D02*
X0056382Y0055333D01*
X0058809Y0055333D01*
X0061051Y0056262D01*
X0062766Y0057978D01*
X0063695Y0060220D01*
X0063695Y0062646D01*
X0062766Y0064888D01*
X0061051Y0066604D01*
X0058809Y0067533D01*
X0056382Y0067533D01*
X0054140Y0066604D01*
X0052424Y0064888D01*
X0051495Y0062646D01*
X0051495Y0060220D01*
X0052424Y0057978D01*
X0054140Y0056262D01*
X0053402Y0056999D02*
X0049195Y0056999D01*
X0049195Y0058198D02*
X0052333Y0058198D01*
X0051836Y0059396D02*
X0049195Y0059396D01*
X0049195Y0060595D02*
X0051495Y0060595D01*
X0051495Y0061793D02*
X0049195Y0061793D01*
X0049195Y0062992D02*
X0051638Y0062992D01*
X0052135Y0064191D02*
X0049195Y0064191D01*
X0049195Y0065389D02*
X0052924Y0065389D01*
X0054123Y0066588D02*
X0049195Y0066588D01*
X0049195Y0067786D02*
X0087795Y0067786D01*
X0087795Y0066588D02*
X0061067Y0066588D01*
X0062266Y0065389D02*
X0087795Y0065389D01*
X0087795Y0064191D02*
X0063056Y0064191D01*
X0063552Y0062992D02*
X0087795Y0062992D01*
X0088982Y0061793D02*
X0063695Y0061793D01*
X0063695Y0060595D02*
X0089195Y0060595D01*
X0089735Y0059396D02*
X0063354Y0059396D01*
X0062858Y0058198D02*
X0091358Y0058198D01*
X0091640Y0054983D02*
X0089876Y0054252D01*
X0088526Y0052902D01*
X0087795Y0051138D01*
X0087795Y0049228D01*
X0088526Y0047464D01*
X0089876Y0046114D01*
X0091640Y0045383D01*
X0093550Y0045383D01*
X0095314Y0046114D01*
X0096664Y0047464D01*
X0097395Y0049228D01*
X0097395Y0051138D01*
X0096664Y0052902D01*
X0095314Y0054252D01*
X0093550Y0054983D01*
X0091640Y0054983D01*
X0090721Y0054602D02*
X0084469Y0054602D01*
X0086163Y0053404D02*
X0089028Y0053404D01*
X0088237Y0052205D02*
X0086953Y0052205D01*
X0087395Y0051007D02*
X0087795Y0051007D01*
X0087795Y0049808D02*
X0087395Y0049808D01*
X0087139Y0048610D02*
X0088051Y0048610D01*
X0088579Y0047411D02*
X0086612Y0047411D01*
X0085413Y0046213D02*
X0089777Y0046213D01*
X0095413Y0046213D02*
X0099777Y0046213D01*
X0099876Y0046114D02*
X0101640Y0045383D01*
X0103550Y0045383D01*
X0105314Y0046114D01*
X0106664Y0047464D01*
X0107395Y0049228D01*
X0107395Y0051138D01*
X0106664Y0052902D01*
X0105314Y0054252D01*
X0103550Y0054983D01*
X0101640Y0054983D01*
X0099876Y0054252D01*
X0098526Y0052902D01*
X0097795Y0051138D01*
X0097795Y0049228D01*
X0098526Y0047464D01*
X0099876Y0046114D01*
X0098579Y0047411D02*
X0096612Y0047411D01*
X0097139Y0048610D02*
X0098051Y0048610D01*
X0097795Y0049808D02*
X0097395Y0049808D01*
X0097395Y0051007D02*
X0097795Y0051007D01*
X0098237Y0052205D02*
X0096953Y0052205D01*
X0096162Y0053404D02*
X0099028Y0053404D01*
X0100721Y0054602D02*
X0094469Y0054602D01*
X0093832Y0058198D02*
X0112333Y0058198D01*
X0113402Y0056999D02*
X0061788Y0056999D01*
X0059938Y0055801D02*
X0115252Y0055801D01*
X0115342Y0054602D02*
X0104469Y0054602D01*
X0106162Y0053404D02*
X0113439Y0053404D01*
X0112348Y0052205D02*
X0106953Y0052205D01*
X0107395Y0051007D02*
X0111852Y0051007D01*
X0111495Y0049808D02*
X0107395Y0049808D01*
X0107139Y0048610D02*
X0111495Y0048610D01*
X0111623Y0047411D02*
X0106612Y0047411D01*
X0105413Y0046213D02*
X0112119Y0046213D01*
X0087795Y0068985D02*
X0068659Y0068985D01*
X0069195Y0070183D02*
X0087795Y0070183D01*
X0087795Y0071382D02*
X0069195Y0071382D01*
X0069195Y0072580D02*
X0087795Y0072580D01*
X0087795Y0073779D02*
X0069195Y0073779D01*
X0069195Y0074977D02*
X0087795Y0074977D01*
X0087795Y0076176D02*
X0069195Y0076176D01*
X0069238Y0077374D02*
X0087795Y0077374D01*
X0087795Y0078573D02*
X0069862Y0078573D01*
X0070486Y0079771D02*
X0087795Y0079771D01*
X0087795Y0080970D02*
X0071110Y0080970D01*
X0071687Y0082078D02*
X0071687Y0082078D01*
X0071721Y0082168D02*
X0087795Y0082168D01*
X0087795Y0083367D02*
X0072172Y0083367D01*
X0072623Y0084565D02*
X0087795Y0084565D01*
X0087795Y0085764D02*
X0073074Y0085764D01*
X0075529Y0054602D02*
X0080721Y0054602D01*
X0079028Y0053404D02*
X0076806Y0053404D01*
X0077511Y0052205D02*
X0078237Y0052205D01*
X0078051Y0048610D02*
X0077657Y0048610D01*
X0077131Y0047411D02*
X0078579Y0047411D01*
X0079777Y0046213D02*
X0076120Y0046213D01*
X0072995Y0046213D02*
X0072195Y0046213D01*
X0072195Y0047411D02*
X0072995Y0047411D01*
X0072995Y0048610D02*
X0072195Y0048610D01*
X0071252Y0258349D02*
X0103938Y0258349D01*
X0103309Y0259548D02*
X0071881Y0259548D01*
X0072550Y0260746D02*
X0102640Y0260746D01*
X0101578Y0261945D02*
X0073612Y0261945D01*
X0074674Y0263143D02*
X0100516Y0263143D01*
X0099237Y0264342D02*
X0075953Y0264342D01*
X0077690Y0265540D02*
X0097501Y0265540D01*
X0095451Y0266739D02*
X0079739Y0266739D01*
X0082899Y0267937D02*
X0092291Y0267937D01*
D14*
X0117595Y0061433D03*
X0117595Y0048933D03*
X0057595Y0048933D03*
X0057595Y0061433D03*
D15*
X0077595Y0080183D02*
X0083845Y0086433D01*
X0090095Y0063933D02*
X0092595Y0061433D01*
X0117595Y0061433D01*
X0090095Y0063933D02*
X0090095Y0152683D01*
X0075595Y0167183D01*
X0077595Y0157683D02*
X0083845Y0151433D01*
X0087595Y0199683D02*
X0087595Y0243683D01*
X0087595Y0254183D01*
D16*
X0083845Y0151433D02*
X0083845Y0086433D01*
D17*
X0092595Y0061433D03*
D18*
X0087595Y0199683D03*
X0087595Y0254183D03*
M02*
