G75*
%MOIN*%
%OFA0B0*%
%FSLAX25Y25*%
%IPPOS*%
%LPD*%
%AMOC8*
5,1,8,0,0,1.08239X$1,22.5*
%
%ADD10C,0.00000*%
D10*
X0101095Y0049933D02*
X0381095Y0049933D01*
X0319796Y0089933D02*
X0319798Y0090091D01*
X0319804Y0090249D01*
X0319814Y0090407D01*
X0319828Y0090565D01*
X0319846Y0090722D01*
X0319867Y0090879D01*
X0319893Y0091035D01*
X0319923Y0091191D01*
X0319956Y0091346D01*
X0319994Y0091499D01*
X0320035Y0091652D01*
X0320080Y0091804D01*
X0320129Y0091955D01*
X0320182Y0092104D01*
X0320238Y0092252D01*
X0320298Y0092398D01*
X0320362Y0092543D01*
X0320430Y0092686D01*
X0320501Y0092828D01*
X0320575Y0092968D01*
X0320653Y0093105D01*
X0320735Y0093241D01*
X0320819Y0093375D01*
X0320908Y0093506D01*
X0320999Y0093635D01*
X0321094Y0093762D01*
X0321191Y0093887D01*
X0321292Y0094009D01*
X0321396Y0094128D01*
X0321503Y0094245D01*
X0321613Y0094359D01*
X0321726Y0094470D01*
X0321841Y0094579D01*
X0321959Y0094684D01*
X0322080Y0094786D01*
X0322203Y0094886D01*
X0322329Y0094982D01*
X0322457Y0095075D01*
X0322587Y0095165D01*
X0322720Y0095251D01*
X0322855Y0095335D01*
X0322991Y0095414D01*
X0323130Y0095491D01*
X0323271Y0095563D01*
X0323413Y0095633D01*
X0323557Y0095698D01*
X0323703Y0095760D01*
X0323850Y0095818D01*
X0323999Y0095873D01*
X0324149Y0095924D01*
X0324300Y0095971D01*
X0324452Y0096014D01*
X0324605Y0096053D01*
X0324760Y0096089D01*
X0324915Y0096120D01*
X0325071Y0096148D01*
X0325227Y0096172D01*
X0325384Y0096192D01*
X0325542Y0096208D01*
X0325699Y0096220D01*
X0325858Y0096228D01*
X0326016Y0096232D01*
X0326174Y0096232D01*
X0326332Y0096228D01*
X0326491Y0096220D01*
X0326648Y0096208D01*
X0326806Y0096192D01*
X0326963Y0096172D01*
X0327119Y0096148D01*
X0327275Y0096120D01*
X0327430Y0096089D01*
X0327585Y0096053D01*
X0327738Y0096014D01*
X0327890Y0095971D01*
X0328041Y0095924D01*
X0328191Y0095873D01*
X0328340Y0095818D01*
X0328487Y0095760D01*
X0328633Y0095698D01*
X0328777Y0095633D01*
X0328919Y0095563D01*
X0329060Y0095491D01*
X0329199Y0095414D01*
X0329335Y0095335D01*
X0329470Y0095251D01*
X0329603Y0095165D01*
X0329733Y0095075D01*
X0329861Y0094982D01*
X0329987Y0094886D01*
X0330110Y0094786D01*
X0330231Y0094684D01*
X0330349Y0094579D01*
X0330464Y0094470D01*
X0330577Y0094359D01*
X0330687Y0094245D01*
X0330794Y0094128D01*
X0330898Y0094009D01*
X0330999Y0093887D01*
X0331096Y0093762D01*
X0331191Y0093635D01*
X0331282Y0093506D01*
X0331371Y0093375D01*
X0331455Y0093241D01*
X0331537Y0093105D01*
X0331615Y0092968D01*
X0331689Y0092828D01*
X0331760Y0092686D01*
X0331828Y0092543D01*
X0331892Y0092398D01*
X0331952Y0092252D01*
X0332008Y0092104D01*
X0332061Y0091955D01*
X0332110Y0091804D01*
X0332155Y0091652D01*
X0332196Y0091499D01*
X0332234Y0091346D01*
X0332267Y0091191D01*
X0332297Y0091035D01*
X0332323Y0090879D01*
X0332344Y0090722D01*
X0332362Y0090565D01*
X0332376Y0090407D01*
X0332386Y0090249D01*
X0332392Y0090091D01*
X0332394Y0089933D01*
X0332392Y0089775D01*
X0332386Y0089617D01*
X0332376Y0089459D01*
X0332362Y0089301D01*
X0332344Y0089144D01*
X0332323Y0088987D01*
X0332297Y0088831D01*
X0332267Y0088675D01*
X0332234Y0088520D01*
X0332196Y0088367D01*
X0332155Y0088214D01*
X0332110Y0088062D01*
X0332061Y0087911D01*
X0332008Y0087762D01*
X0331952Y0087614D01*
X0331892Y0087468D01*
X0331828Y0087323D01*
X0331760Y0087180D01*
X0331689Y0087038D01*
X0331615Y0086898D01*
X0331537Y0086761D01*
X0331455Y0086625D01*
X0331371Y0086491D01*
X0331282Y0086360D01*
X0331191Y0086231D01*
X0331096Y0086104D01*
X0330999Y0085979D01*
X0330898Y0085857D01*
X0330794Y0085738D01*
X0330687Y0085621D01*
X0330577Y0085507D01*
X0330464Y0085396D01*
X0330349Y0085287D01*
X0330231Y0085182D01*
X0330110Y0085080D01*
X0329987Y0084980D01*
X0329861Y0084884D01*
X0329733Y0084791D01*
X0329603Y0084701D01*
X0329470Y0084615D01*
X0329335Y0084531D01*
X0329199Y0084452D01*
X0329060Y0084375D01*
X0328919Y0084303D01*
X0328777Y0084233D01*
X0328633Y0084168D01*
X0328487Y0084106D01*
X0328340Y0084048D01*
X0328191Y0083993D01*
X0328041Y0083942D01*
X0327890Y0083895D01*
X0327738Y0083852D01*
X0327585Y0083813D01*
X0327430Y0083777D01*
X0327275Y0083746D01*
X0327119Y0083718D01*
X0326963Y0083694D01*
X0326806Y0083674D01*
X0326648Y0083658D01*
X0326491Y0083646D01*
X0326332Y0083638D01*
X0326174Y0083634D01*
X0326016Y0083634D01*
X0325858Y0083638D01*
X0325699Y0083646D01*
X0325542Y0083658D01*
X0325384Y0083674D01*
X0325227Y0083694D01*
X0325071Y0083718D01*
X0324915Y0083746D01*
X0324760Y0083777D01*
X0324605Y0083813D01*
X0324452Y0083852D01*
X0324300Y0083895D01*
X0324149Y0083942D01*
X0323999Y0083993D01*
X0323850Y0084048D01*
X0323703Y0084106D01*
X0323557Y0084168D01*
X0323413Y0084233D01*
X0323271Y0084303D01*
X0323130Y0084375D01*
X0322991Y0084452D01*
X0322855Y0084531D01*
X0322720Y0084615D01*
X0322587Y0084701D01*
X0322457Y0084791D01*
X0322329Y0084884D01*
X0322203Y0084980D01*
X0322080Y0085080D01*
X0321959Y0085182D01*
X0321841Y0085287D01*
X0321726Y0085396D01*
X0321613Y0085507D01*
X0321503Y0085621D01*
X0321396Y0085738D01*
X0321292Y0085857D01*
X0321191Y0085979D01*
X0321094Y0086104D01*
X0320999Y0086231D01*
X0320908Y0086360D01*
X0320819Y0086491D01*
X0320735Y0086625D01*
X0320653Y0086761D01*
X0320575Y0086898D01*
X0320501Y0087038D01*
X0320430Y0087180D01*
X0320362Y0087323D01*
X0320298Y0087468D01*
X0320238Y0087614D01*
X0320182Y0087762D01*
X0320129Y0087911D01*
X0320080Y0088062D01*
X0320035Y0088214D01*
X0319994Y0088367D01*
X0319956Y0088520D01*
X0319923Y0088675D01*
X0319893Y0088831D01*
X0319867Y0088987D01*
X0319846Y0089144D01*
X0319828Y0089301D01*
X0319814Y0089459D01*
X0319804Y0089617D01*
X0319798Y0089775D01*
X0319796Y0089933D01*
X0299796Y0069933D02*
X0299798Y0070091D01*
X0299804Y0070249D01*
X0299814Y0070407D01*
X0299828Y0070565D01*
X0299846Y0070722D01*
X0299867Y0070879D01*
X0299893Y0071035D01*
X0299923Y0071191D01*
X0299956Y0071346D01*
X0299994Y0071499D01*
X0300035Y0071652D01*
X0300080Y0071804D01*
X0300129Y0071955D01*
X0300182Y0072104D01*
X0300238Y0072252D01*
X0300298Y0072398D01*
X0300362Y0072543D01*
X0300430Y0072686D01*
X0300501Y0072828D01*
X0300575Y0072968D01*
X0300653Y0073105D01*
X0300735Y0073241D01*
X0300819Y0073375D01*
X0300908Y0073506D01*
X0300999Y0073635D01*
X0301094Y0073762D01*
X0301191Y0073887D01*
X0301292Y0074009D01*
X0301396Y0074128D01*
X0301503Y0074245D01*
X0301613Y0074359D01*
X0301726Y0074470D01*
X0301841Y0074579D01*
X0301959Y0074684D01*
X0302080Y0074786D01*
X0302203Y0074886D01*
X0302329Y0074982D01*
X0302457Y0075075D01*
X0302587Y0075165D01*
X0302720Y0075251D01*
X0302855Y0075335D01*
X0302991Y0075414D01*
X0303130Y0075491D01*
X0303271Y0075563D01*
X0303413Y0075633D01*
X0303557Y0075698D01*
X0303703Y0075760D01*
X0303850Y0075818D01*
X0303999Y0075873D01*
X0304149Y0075924D01*
X0304300Y0075971D01*
X0304452Y0076014D01*
X0304605Y0076053D01*
X0304760Y0076089D01*
X0304915Y0076120D01*
X0305071Y0076148D01*
X0305227Y0076172D01*
X0305384Y0076192D01*
X0305542Y0076208D01*
X0305699Y0076220D01*
X0305858Y0076228D01*
X0306016Y0076232D01*
X0306174Y0076232D01*
X0306332Y0076228D01*
X0306491Y0076220D01*
X0306648Y0076208D01*
X0306806Y0076192D01*
X0306963Y0076172D01*
X0307119Y0076148D01*
X0307275Y0076120D01*
X0307430Y0076089D01*
X0307585Y0076053D01*
X0307738Y0076014D01*
X0307890Y0075971D01*
X0308041Y0075924D01*
X0308191Y0075873D01*
X0308340Y0075818D01*
X0308487Y0075760D01*
X0308633Y0075698D01*
X0308777Y0075633D01*
X0308919Y0075563D01*
X0309060Y0075491D01*
X0309199Y0075414D01*
X0309335Y0075335D01*
X0309470Y0075251D01*
X0309603Y0075165D01*
X0309733Y0075075D01*
X0309861Y0074982D01*
X0309987Y0074886D01*
X0310110Y0074786D01*
X0310231Y0074684D01*
X0310349Y0074579D01*
X0310464Y0074470D01*
X0310577Y0074359D01*
X0310687Y0074245D01*
X0310794Y0074128D01*
X0310898Y0074009D01*
X0310999Y0073887D01*
X0311096Y0073762D01*
X0311191Y0073635D01*
X0311282Y0073506D01*
X0311371Y0073375D01*
X0311455Y0073241D01*
X0311537Y0073105D01*
X0311615Y0072968D01*
X0311689Y0072828D01*
X0311760Y0072686D01*
X0311828Y0072543D01*
X0311892Y0072398D01*
X0311952Y0072252D01*
X0312008Y0072104D01*
X0312061Y0071955D01*
X0312110Y0071804D01*
X0312155Y0071652D01*
X0312196Y0071499D01*
X0312234Y0071346D01*
X0312267Y0071191D01*
X0312297Y0071035D01*
X0312323Y0070879D01*
X0312344Y0070722D01*
X0312362Y0070565D01*
X0312376Y0070407D01*
X0312386Y0070249D01*
X0312392Y0070091D01*
X0312394Y0069933D01*
X0312392Y0069775D01*
X0312386Y0069617D01*
X0312376Y0069459D01*
X0312362Y0069301D01*
X0312344Y0069144D01*
X0312323Y0068987D01*
X0312297Y0068831D01*
X0312267Y0068675D01*
X0312234Y0068520D01*
X0312196Y0068367D01*
X0312155Y0068214D01*
X0312110Y0068062D01*
X0312061Y0067911D01*
X0312008Y0067762D01*
X0311952Y0067614D01*
X0311892Y0067468D01*
X0311828Y0067323D01*
X0311760Y0067180D01*
X0311689Y0067038D01*
X0311615Y0066898D01*
X0311537Y0066761D01*
X0311455Y0066625D01*
X0311371Y0066491D01*
X0311282Y0066360D01*
X0311191Y0066231D01*
X0311096Y0066104D01*
X0310999Y0065979D01*
X0310898Y0065857D01*
X0310794Y0065738D01*
X0310687Y0065621D01*
X0310577Y0065507D01*
X0310464Y0065396D01*
X0310349Y0065287D01*
X0310231Y0065182D01*
X0310110Y0065080D01*
X0309987Y0064980D01*
X0309861Y0064884D01*
X0309733Y0064791D01*
X0309603Y0064701D01*
X0309470Y0064615D01*
X0309335Y0064531D01*
X0309199Y0064452D01*
X0309060Y0064375D01*
X0308919Y0064303D01*
X0308777Y0064233D01*
X0308633Y0064168D01*
X0308487Y0064106D01*
X0308340Y0064048D01*
X0308191Y0063993D01*
X0308041Y0063942D01*
X0307890Y0063895D01*
X0307738Y0063852D01*
X0307585Y0063813D01*
X0307430Y0063777D01*
X0307275Y0063746D01*
X0307119Y0063718D01*
X0306963Y0063694D01*
X0306806Y0063674D01*
X0306648Y0063658D01*
X0306491Y0063646D01*
X0306332Y0063638D01*
X0306174Y0063634D01*
X0306016Y0063634D01*
X0305858Y0063638D01*
X0305699Y0063646D01*
X0305542Y0063658D01*
X0305384Y0063674D01*
X0305227Y0063694D01*
X0305071Y0063718D01*
X0304915Y0063746D01*
X0304760Y0063777D01*
X0304605Y0063813D01*
X0304452Y0063852D01*
X0304300Y0063895D01*
X0304149Y0063942D01*
X0303999Y0063993D01*
X0303850Y0064048D01*
X0303703Y0064106D01*
X0303557Y0064168D01*
X0303413Y0064233D01*
X0303271Y0064303D01*
X0303130Y0064375D01*
X0302991Y0064452D01*
X0302855Y0064531D01*
X0302720Y0064615D01*
X0302587Y0064701D01*
X0302457Y0064791D01*
X0302329Y0064884D01*
X0302203Y0064980D01*
X0302080Y0065080D01*
X0301959Y0065182D01*
X0301841Y0065287D01*
X0301726Y0065396D01*
X0301613Y0065507D01*
X0301503Y0065621D01*
X0301396Y0065738D01*
X0301292Y0065857D01*
X0301191Y0065979D01*
X0301094Y0066104D01*
X0300999Y0066231D01*
X0300908Y0066360D01*
X0300819Y0066491D01*
X0300735Y0066625D01*
X0300653Y0066761D01*
X0300575Y0066898D01*
X0300501Y0067038D01*
X0300430Y0067180D01*
X0300362Y0067323D01*
X0300298Y0067468D01*
X0300238Y0067614D01*
X0300182Y0067762D01*
X0300129Y0067911D01*
X0300080Y0068062D01*
X0300035Y0068214D01*
X0299994Y0068367D01*
X0299956Y0068520D01*
X0299923Y0068675D01*
X0299893Y0068831D01*
X0299867Y0068987D01*
X0299846Y0069144D01*
X0299828Y0069301D01*
X0299814Y0069459D01*
X0299804Y0069617D01*
X0299798Y0069775D01*
X0299796Y0069933D01*
X0234796Y0079933D02*
X0234798Y0080091D01*
X0234804Y0080249D01*
X0234814Y0080407D01*
X0234828Y0080565D01*
X0234846Y0080722D01*
X0234867Y0080879D01*
X0234893Y0081035D01*
X0234923Y0081191D01*
X0234956Y0081346D01*
X0234994Y0081499D01*
X0235035Y0081652D01*
X0235080Y0081804D01*
X0235129Y0081955D01*
X0235182Y0082104D01*
X0235238Y0082252D01*
X0235298Y0082398D01*
X0235362Y0082543D01*
X0235430Y0082686D01*
X0235501Y0082828D01*
X0235575Y0082968D01*
X0235653Y0083105D01*
X0235735Y0083241D01*
X0235819Y0083375D01*
X0235908Y0083506D01*
X0235999Y0083635D01*
X0236094Y0083762D01*
X0236191Y0083887D01*
X0236292Y0084009D01*
X0236396Y0084128D01*
X0236503Y0084245D01*
X0236613Y0084359D01*
X0236726Y0084470D01*
X0236841Y0084579D01*
X0236959Y0084684D01*
X0237080Y0084786D01*
X0237203Y0084886D01*
X0237329Y0084982D01*
X0237457Y0085075D01*
X0237587Y0085165D01*
X0237720Y0085251D01*
X0237855Y0085335D01*
X0237991Y0085414D01*
X0238130Y0085491D01*
X0238271Y0085563D01*
X0238413Y0085633D01*
X0238557Y0085698D01*
X0238703Y0085760D01*
X0238850Y0085818D01*
X0238999Y0085873D01*
X0239149Y0085924D01*
X0239300Y0085971D01*
X0239452Y0086014D01*
X0239605Y0086053D01*
X0239760Y0086089D01*
X0239915Y0086120D01*
X0240071Y0086148D01*
X0240227Y0086172D01*
X0240384Y0086192D01*
X0240542Y0086208D01*
X0240699Y0086220D01*
X0240858Y0086228D01*
X0241016Y0086232D01*
X0241174Y0086232D01*
X0241332Y0086228D01*
X0241491Y0086220D01*
X0241648Y0086208D01*
X0241806Y0086192D01*
X0241963Y0086172D01*
X0242119Y0086148D01*
X0242275Y0086120D01*
X0242430Y0086089D01*
X0242585Y0086053D01*
X0242738Y0086014D01*
X0242890Y0085971D01*
X0243041Y0085924D01*
X0243191Y0085873D01*
X0243340Y0085818D01*
X0243487Y0085760D01*
X0243633Y0085698D01*
X0243777Y0085633D01*
X0243919Y0085563D01*
X0244060Y0085491D01*
X0244199Y0085414D01*
X0244335Y0085335D01*
X0244470Y0085251D01*
X0244603Y0085165D01*
X0244733Y0085075D01*
X0244861Y0084982D01*
X0244987Y0084886D01*
X0245110Y0084786D01*
X0245231Y0084684D01*
X0245349Y0084579D01*
X0245464Y0084470D01*
X0245577Y0084359D01*
X0245687Y0084245D01*
X0245794Y0084128D01*
X0245898Y0084009D01*
X0245999Y0083887D01*
X0246096Y0083762D01*
X0246191Y0083635D01*
X0246282Y0083506D01*
X0246371Y0083375D01*
X0246455Y0083241D01*
X0246537Y0083105D01*
X0246615Y0082968D01*
X0246689Y0082828D01*
X0246760Y0082686D01*
X0246828Y0082543D01*
X0246892Y0082398D01*
X0246952Y0082252D01*
X0247008Y0082104D01*
X0247061Y0081955D01*
X0247110Y0081804D01*
X0247155Y0081652D01*
X0247196Y0081499D01*
X0247234Y0081346D01*
X0247267Y0081191D01*
X0247297Y0081035D01*
X0247323Y0080879D01*
X0247344Y0080722D01*
X0247362Y0080565D01*
X0247376Y0080407D01*
X0247386Y0080249D01*
X0247392Y0080091D01*
X0247394Y0079933D01*
X0247392Y0079775D01*
X0247386Y0079617D01*
X0247376Y0079459D01*
X0247362Y0079301D01*
X0247344Y0079144D01*
X0247323Y0078987D01*
X0247297Y0078831D01*
X0247267Y0078675D01*
X0247234Y0078520D01*
X0247196Y0078367D01*
X0247155Y0078214D01*
X0247110Y0078062D01*
X0247061Y0077911D01*
X0247008Y0077762D01*
X0246952Y0077614D01*
X0246892Y0077468D01*
X0246828Y0077323D01*
X0246760Y0077180D01*
X0246689Y0077038D01*
X0246615Y0076898D01*
X0246537Y0076761D01*
X0246455Y0076625D01*
X0246371Y0076491D01*
X0246282Y0076360D01*
X0246191Y0076231D01*
X0246096Y0076104D01*
X0245999Y0075979D01*
X0245898Y0075857D01*
X0245794Y0075738D01*
X0245687Y0075621D01*
X0245577Y0075507D01*
X0245464Y0075396D01*
X0245349Y0075287D01*
X0245231Y0075182D01*
X0245110Y0075080D01*
X0244987Y0074980D01*
X0244861Y0074884D01*
X0244733Y0074791D01*
X0244603Y0074701D01*
X0244470Y0074615D01*
X0244335Y0074531D01*
X0244199Y0074452D01*
X0244060Y0074375D01*
X0243919Y0074303D01*
X0243777Y0074233D01*
X0243633Y0074168D01*
X0243487Y0074106D01*
X0243340Y0074048D01*
X0243191Y0073993D01*
X0243041Y0073942D01*
X0242890Y0073895D01*
X0242738Y0073852D01*
X0242585Y0073813D01*
X0242430Y0073777D01*
X0242275Y0073746D01*
X0242119Y0073718D01*
X0241963Y0073694D01*
X0241806Y0073674D01*
X0241648Y0073658D01*
X0241491Y0073646D01*
X0241332Y0073638D01*
X0241174Y0073634D01*
X0241016Y0073634D01*
X0240858Y0073638D01*
X0240699Y0073646D01*
X0240542Y0073658D01*
X0240384Y0073674D01*
X0240227Y0073694D01*
X0240071Y0073718D01*
X0239915Y0073746D01*
X0239760Y0073777D01*
X0239605Y0073813D01*
X0239452Y0073852D01*
X0239300Y0073895D01*
X0239149Y0073942D01*
X0238999Y0073993D01*
X0238850Y0074048D01*
X0238703Y0074106D01*
X0238557Y0074168D01*
X0238413Y0074233D01*
X0238271Y0074303D01*
X0238130Y0074375D01*
X0237991Y0074452D01*
X0237855Y0074531D01*
X0237720Y0074615D01*
X0237587Y0074701D01*
X0237457Y0074791D01*
X0237329Y0074884D01*
X0237203Y0074980D01*
X0237080Y0075080D01*
X0236959Y0075182D01*
X0236841Y0075287D01*
X0236726Y0075396D01*
X0236613Y0075507D01*
X0236503Y0075621D01*
X0236396Y0075738D01*
X0236292Y0075857D01*
X0236191Y0075979D01*
X0236094Y0076104D01*
X0235999Y0076231D01*
X0235908Y0076360D01*
X0235819Y0076491D01*
X0235735Y0076625D01*
X0235653Y0076761D01*
X0235575Y0076898D01*
X0235501Y0077038D01*
X0235430Y0077180D01*
X0235362Y0077323D01*
X0235298Y0077468D01*
X0235238Y0077614D01*
X0235182Y0077762D01*
X0235129Y0077911D01*
X0235080Y0078062D01*
X0235035Y0078214D01*
X0234994Y0078367D01*
X0234956Y0078520D01*
X0234923Y0078675D01*
X0234893Y0078831D01*
X0234867Y0078987D01*
X0234846Y0079144D01*
X0234828Y0079301D01*
X0234814Y0079459D01*
X0234804Y0079617D01*
X0234798Y0079775D01*
X0234796Y0079933D01*
X0101095Y0049933D02*
X0098565Y0053390D01*
X0096120Y0056909D01*
X0093762Y0060486D01*
X0091492Y0064119D01*
X0089311Y0067808D01*
X0087222Y0071548D01*
X0085225Y0075338D01*
X0083321Y0079176D01*
X0081512Y0083060D01*
X0079798Y0086987D01*
X0078181Y0090954D01*
X0076661Y0094960D01*
X0075240Y0099002D01*
X0073918Y0103077D01*
X0072696Y0107184D01*
X0071575Y0111319D01*
X0070556Y0115480D01*
X0069639Y0119665D01*
X0068824Y0123872D01*
X0068113Y0128096D01*
X0067505Y0132338D01*
X0067002Y0136592D01*
X0066602Y0140858D01*
X0066307Y0145132D01*
X0066117Y0149412D01*
X0066031Y0153696D01*
X0066051Y0157980D01*
X0066175Y0162263D01*
X0066404Y0166541D01*
X0066737Y0170812D01*
X0067175Y0175074D01*
X0067717Y0179324D01*
X0068363Y0183560D01*
X0069113Y0187778D01*
X0069965Y0191977D01*
X0070920Y0196153D01*
X0071977Y0200305D01*
X0073135Y0204430D01*
X0074394Y0208526D01*
X0075752Y0212589D01*
X0077210Y0216618D01*
X0078766Y0220610D01*
X0080419Y0224562D01*
X0082168Y0228473D01*
X0084012Y0232340D01*
X0085951Y0236161D01*
X0087982Y0239933D01*
X0090105Y0243655D01*
X0092318Y0247323D01*
X0094621Y0250936D01*
X0097011Y0254492D01*
X0099488Y0257988D01*
X0102049Y0261422D01*
X0104694Y0264793D01*
X0107420Y0268098D01*
X0110227Y0271335D01*
X0113112Y0274503D01*
X0116073Y0277599D01*
X0119110Y0280622D01*
X0122219Y0283569D01*
X0125400Y0286440D01*
X0128649Y0289231D01*
X0131967Y0291943D01*
X0135349Y0294572D01*
X0138795Y0297118D01*
X0142302Y0299579D01*
X0145869Y0301953D01*
X0149492Y0304239D01*
X0153170Y0306436D01*
X0156901Y0308543D01*
X0160683Y0310557D01*
X0164512Y0312478D01*
X0168388Y0314305D01*
X0172306Y0316036D01*
X0176267Y0317672D01*
X0180266Y0319209D01*
X0184301Y0320649D01*
X0188370Y0321989D01*
X0192471Y0323229D01*
X0196601Y0324369D01*
X0200758Y0325407D01*
X0204939Y0326343D01*
X0209141Y0327176D01*
X0213363Y0327907D01*
X0217601Y0328533D01*
X0221854Y0329056D01*
X0226118Y0329475D01*
X0230390Y0329789D01*
X0234670Y0329999D01*
X0238953Y0330104D01*
X0243237Y0330104D01*
X0247520Y0329999D01*
X0251800Y0329789D01*
X0256072Y0329475D01*
X0260336Y0329056D01*
X0264589Y0328533D01*
X0268827Y0327907D01*
X0273049Y0327176D01*
X0277251Y0326343D01*
X0281432Y0325407D01*
X0285589Y0324369D01*
X0289719Y0323229D01*
X0293820Y0321989D01*
X0297889Y0320649D01*
X0301924Y0319209D01*
X0305923Y0317672D01*
X0309884Y0316036D01*
X0313802Y0314305D01*
X0317678Y0312478D01*
X0321507Y0310557D01*
X0325289Y0308543D01*
X0329020Y0306436D01*
X0332698Y0304239D01*
X0336321Y0301953D01*
X0339888Y0299579D01*
X0343395Y0297118D01*
X0346841Y0294572D01*
X0350223Y0291943D01*
X0353541Y0289231D01*
X0356790Y0286440D01*
X0359971Y0283569D01*
X0363080Y0280622D01*
X0366117Y0277599D01*
X0369078Y0274503D01*
X0371963Y0271335D01*
X0374770Y0268098D01*
X0377496Y0264793D01*
X0380141Y0261422D01*
X0382702Y0257988D01*
X0385179Y0254492D01*
X0387569Y0250936D01*
X0389872Y0247323D01*
X0392085Y0243655D01*
X0394208Y0239933D01*
X0396239Y0236161D01*
X0398178Y0232340D01*
X0400022Y0228473D01*
X0401771Y0224562D01*
X0403424Y0220610D01*
X0404980Y0216618D01*
X0406438Y0212589D01*
X0407796Y0208526D01*
X0409055Y0204430D01*
X0410213Y0200305D01*
X0411270Y0196153D01*
X0412225Y0191977D01*
X0413077Y0187778D01*
X0413827Y0183560D01*
X0414473Y0179324D01*
X0415015Y0175074D01*
X0415453Y0170812D01*
X0415786Y0166541D01*
X0416015Y0162263D01*
X0416139Y0157980D01*
X0416159Y0153696D01*
X0416073Y0149412D01*
X0415883Y0145132D01*
X0415588Y0140858D01*
X0415188Y0136592D01*
X0414685Y0132338D01*
X0414077Y0128096D01*
X0413366Y0123872D01*
X0412551Y0119665D01*
X0411634Y0115480D01*
X0410615Y0111319D01*
X0409494Y0107184D01*
X0408272Y0103077D01*
X0406950Y0099002D01*
X0405529Y0094960D01*
X0404009Y0090954D01*
X0402392Y0086987D01*
X0400678Y0083060D01*
X0398869Y0079176D01*
X0396965Y0075338D01*
X0394968Y0071548D01*
X0392879Y0067808D01*
X0390698Y0064119D01*
X0388428Y0060486D01*
X0386070Y0056909D01*
X0383625Y0053390D01*
X0381095Y0049933D01*
X0234796Y0229933D02*
X0234798Y0230091D01*
X0234804Y0230249D01*
X0234814Y0230407D01*
X0234828Y0230565D01*
X0234846Y0230722D01*
X0234867Y0230879D01*
X0234893Y0231035D01*
X0234923Y0231191D01*
X0234956Y0231346D01*
X0234994Y0231499D01*
X0235035Y0231652D01*
X0235080Y0231804D01*
X0235129Y0231955D01*
X0235182Y0232104D01*
X0235238Y0232252D01*
X0235298Y0232398D01*
X0235362Y0232543D01*
X0235430Y0232686D01*
X0235501Y0232828D01*
X0235575Y0232968D01*
X0235653Y0233105D01*
X0235735Y0233241D01*
X0235819Y0233375D01*
X0235908Y0233506D01*
X0235999Y0233635D01*
X0236094Y0233762D01*
X0236191Y0233887D01*
X0236292Y0234009D01*
X0236396Y0234128D01*
X0236503Y0234245D01*
X0236613Y0234359D01*
X0236726Y0234470D01*
X0236841Y0234579D01*
X0236959Y0234684D01*
X0237080Y0234786D01*
X0237203Y0234886D01*
X0237329Y0234982D01*
X0237457Y0235075D01*
X0237587Y0235165D01*
X0237720Y0235251D01*
X0237855Y0235335D01*
X0237991Y0235414D01*
X0238130Y0235491D01*
X0238271Y0235563D01*
X0238413Y0235633D01*
X0238557Y0235698D01*
X0238703Y0235760D01*
X0238850Y0235818D01*
X0238999Y0235873D01*
X0239149Y0235924D01*
X0239300Y0235971D01*
X0239452Y0236014D01*
X0239605Y0236053D01*
X0239760Y0236089D01*
X0239915Y0236120D01*
X0240071Y0236148D01*
X0240227Y0236172D01*
X0240384Y0236192D01*
X0240542Y0236208D01*
X0240699Y0236220D01*
X0240858Y0236228D01*
X0241016Y0236232D01*
X0241174Y0236232D01*
X0241332Y0236228D01*
X0241491Y0236220D01*
X0241648Y0236208D01*
X0241806Y0236192D01*
X0241963Y0236172D01*
X0242119Y0236148D01*
X0242275Y0236120D01*
X0242430Y0236089D01*
X0242585Y0236053D01*
X0242738Y0236014D01*
X0242890Y0235971D01*
X0243041Y0235924D01*
X0243191Y0235873D01*
X0243340Y0235818D01*
X0243487Y0235760D01*
X0243633Y0235698D01*
X0243777Y0235633D01*
X0243919Y0235563D01*
X0244060Y0235491D01*
X0244199Y0235414D01*
X0244335Y0235335D01*
X0244470Y0235251D01*
X0244603Y0235165D01*
X0244733Y0235075D01*
X0244861Y0234982D01*
X0244987Y0234886D01*
X0245110Y0234786D01*
X0245231Y0234684D01*
X0245349Y0234579D01*
X0245464Y0234470D01*
X0245577Y0234359D01*
X0245687Y0234245D01*
X0245794Y0234128D01*
X0245898Y0234009D01*
X0245999Y0233887D01*
X0246096Y0233762D01*
X0246191Y0233635D01*
X0246282Y0233506D01*
X0246371Y0233375D01*
X0246455Y0233241D01*
X0246537Y0233105D01*
X0246615Y0232968D01*
X0246689Y0232828D01*
X0246760Y0232686D01*
X0246828Y0232543D01*
X0246892Y0232398D01*
X0246952Y0232252D01*
X0247008Y0232104D01*
X0247061Y0231955D01*
X0247110Y0231804D01*
X0247155Y0231652D01*
X0247196Y0231499D01*
X0247234Y0231346D01*
X0247267Y0231191D01*
X0247297Y0231035D01*
X0247323Y0230879D01*
X0247344Y0230722D01*
X0247362Y0230565D01*
X0247376Y0230407D01*
X0247386Y0230249D01*
X0247392Y0230091D01*
X0247394Y0229933D01*
X0247392Y0229775D01*
X0247386Y0229617D01*
X0247376Y0229459D01*
X0247362Y0229301D01*
X0247344Y0229144D01*
X0247323Y0228987D01*
X0247297Y0228831D01*
X0247267Y0228675D01*
X0247234Y0228520D01*
X0247196Y0228367D01*
X0247155Y0228214D01*
X0247110Y0228062D01*
X0247061Y0227911D01*
X0247008Y0227762D01*
X0246952Y0227614D01*
X0246892Y0227468D01*
X0246828Y0227323D01*
X0246760Y0227180D01*
X0246689Y0227038D01*
X0246615Y0226898D01*
X0246537Y0226761D01*
X0246455Y0226625D01*
X0246371Y0226491D01*
X0246282Y0226360D01*
X0246191Y0226231D01*
X0246096Y0226104D01*
X0245999Y0225979D01*
X0245898Y0225857D01*
X0245794Y0225738D01*
X0245687Y0225621D01*
X0245577Y0225507D01*
X0245464Y0225396D01*
X0245349Y0225287D01*
X0245231Y0225182D01*
X0245110Y0225080D01*
X0244987Y0224980D01*
X0244861Y0224884D01*
X0244733Y0224791D01*
X0244603Y0224701D01*
X0244470Y0224615D01*
X0244335Y0224531D01*
X0244199Y0224452D01*
X0244060Y0224375D01*
X0243919Y0224303D01*
X0243777Y0224233D01*
X0243633Y0224168D01*
X0243487Y0224106D01*
X0243340Y0224048D01*
X0243191Y0223993D01*
X0243041Y0223942D01*
X0242890Y0223895D01*
X0242738Y0223852D01*
X0242585Y0223813D01*
X0242430Y0223777D01*
X0242275Y0223746D01*
X0242119Y0223718D01*
X0241963Y0223694D01*
X0241806Y0223674D01*
X0241648Y0223658D01*
X0241491Y0223646D01*
X0241332Y0223638D01*
X0241174Y0223634D01*
X0241016Y0223634D01*
X0240858Y0223638D01*
X0240699Y0223646D01*
X0240542Y0223658D01*
X0240384Y0223674D01*
X0240227Y0223694D01*
X0240071Y0223718D01*
X0239915Y0223746D01*
X0239760Y0223777D01*
X0239605Y0223813D01*
X0239452Y0223852D01*
X0239300Y0223895D01*
X0239149Y0223942D01*
X0238999Y0223993D01*
X0238850Y0224048D01*
X0238703Y0224106D01*
X0238557Y0224168D01*
X0238413Y0224233D01*
X0238271Y0224303D01*
X0238130Y0224375D01*
X0237991Y0224452D01*
X0237855Y0224531D01*
X0237720Y0224615D01*
X0237587Y0224701D01*
X0237457Y0224791D01*
X0237329Y0224884D01*
X0237203Y0224980D01*
X0237080Y0225080D01*
X0236959Y0225182D01*
X0236841Y0225287D01*
X0236726Y0225396D01*
X0236613Y0225507D01*
X0236503Y0225621D01*
X0236396Y0225738D01*
X0236292Y0225857D01*
X0236191Y0225979D01*
X0236094Y0226104D01*
X0235999Y0226231D01*
X0235908Y0226360D01*
X0235819Y0226491D01*
X0235735Y0226625D01*
X0235653Y0226761D01*
X0235575Y0226898D01*
X0235501Y0227038D01*
X0235430Y0227180D01*
X0235362Y0227323D01*
X0235298Y0227468D01*
X0235238Y0227614D01*
X0235182Y0227762D01*
X0235129Y0227911D01*
X0235080Y0228062D01*
X0235035Y0228214D01*
X0234994Y0228367D01*
X0234956Y0228520D01*
X0234923Y0228675D01*
X0234893Y0228831D01*
X0234867Y0228987D01*
X0234846Y0229144D01*
X0234828Y0229301D01*
X0234814Y0229459D01*
X0234804Y0229617D01*
X0234798Y0229775D01*
X0234796Y0229933D01*
M02*
