G75*
%MOIN*%
%OFA0B0*%
%FSLAX25Y25*%
%IPPOS*%
%LPD*%
%AMOC8*
5,1,8,0,0,1.08239X$1,22.5*
%
%ADD10C,0.00000*%
%ADD11R,0.03937X0.04331*%
%ADD12R,0.02000X0.00980*%
%ADD13R,0.01378X0.01969*%
%ADD14R,0.13000X0.08800*%
D10*
X0047595Y0040183D02*
X0047595Y0070183D01*
X0067595Y0070183D01*
X0067595Y0077683D01*
X0047595Y0040183D02*
X0127595Y0040183D01*
X0127595Y0070183D01*
X0107595Y0070183D01*
X0107595Y0077683D01*
X0106569Y0079712D01*
X0105592Y0081765D01*
X0104665Y0083842D01*
X0103788Y0085939D01*
X0102962Y0088058D01*
X0102187Y0090195D01*
X0101463Y0092351D01*
X0100791Y0094523D01*
X0100171Y0096711D01*
X0099604Y0098912D01*
X0099090Y0101127D01*
X0098630Y0103354D01*
X0098223Y0105591D01*
X0097870Y0107837D01*
X0097570Y0110091D01*
X0097325Y0112352D01*
X0097134Y0114617D01*
X0096998Y0116887D01*
X0096916Y0119159D01*
X0096889Y0121433D01*
X0096916Y0123707D01*
X0096998Y0125979D01*
X0097134Y0128249D01*
X0097325Y0130514D01*
X0097570Y0132775D01*
X0097870Y0135029D01*
X0098223Y0137275D01*
X0098630Y0139512D01*
X0099090Y0141739D01*
X0099604Y0143954D01*
X0100171Y0146155D01*
X0100791Y0148343D01*
X0101463Y0150515D01*
X0102187Y0152671D01*
X0102962Y0154808D01*
X0103788Y0156927D01*
X0104665Y0159024D01*
X0105592Y0161101D01*
X0106569Y0163154D01*
X0107595Y0165183D01*
X0107595Y0250183D01*
X0107589Y0250670D01*
X0107571Y0251157D01*
X0107542Y0251643D01*
X0107500Y0252128D01*
X0107447Y0252612D01*
X0107382Y0253095D01*
X0107305Y0253576D01*
X0107217Y0254055D01*
X0107117Y0254532D01*
X0107005Y0255006D01*
X0106882Y0255477D01*
X0106747Y0255945D01*
X0106601Y0256410D01*
X0106444Y0256871D01*
X0106275Y0257328D01*
X0106096Y0257780D01*
X0105905Y0258229D01*
X0105704Y0258672D01*
X0105492Y0259111D01*
X0105269Y0259544D01*
X0105036Y0259971D01*
X0104792Y0260393D01*
X0104539Y0260809D01*
X0104275Y0261218D01*
X0104001Y0261621D01*
X0103718Y0262017D01*
X0103425Y0262406D01*
X0103123Y0262788D01*
X0102811Y0263163D01*
X0102490Y0263529D01*
X0102161Y0263888D01*
X0101823Y0264239D01*
X0101476Y0264581D01*
X0101122Y0264915D01*
X0100759Y0265240D01*
X0100388Y0265556D01*
X0100010Y0265863D01*
X0099625Y0266161D01*
X0099232Y0266449D01*
X0098833Y0266727D01*
X0098426Y0266996D01*
X0098014Y0267255D01*
X0097595Y0267504D01*
X0097170Y0267742D01*
X0096740Y0267970D01*
X0096304Y0268187D01*
X0095863Y0268394D01*
X0095417Y0268590D01*
X0094967Y0268775D01*
X0094512Y0268949D01*
X0094053Y0269112D01*
X0093590Y0269263D01*
X0093123Y0269404D01*
X0092654Y0269533D01*
X0092181Y0269650D01*
X0091706Y0269756D01*
X0091228Y0269850D01*
X0090748Y0269933D01*
X0090266Y0270004D01*
X0089782Y0270063D01*
X0089298Y0270110D01*
X0088812Y0270146D01*
X0088325Y0270170D01*
X0087839Y0270182D01*
X0087351Y0270182D01*
X0086865Y0270170D01*
X0086378Y0270146D01*
X0085892Y0270110D01*
X0085408Y0270063D01*
X0084924Y0270004D01*
X0084442Y0269933D01*
X0083962Y0269850D01*
X0083484Y0269756D01*
X0083009Y0269650D01*
X0082536Y0269533D01*
X0082067Y0269404D01*
X0081600Y0269263D01*
X0081137Y0269112D01*
X0080678Y0268949D01*
X0080223Y0268775D01*
X0079773Y0268590D01*
X0079327Y0268394D01*
X0078886Y0268187D01*
X0078450Y0267970D01*
X0078020Y0267742D01*
X0077595Y0267504D01*
X0077176Y0267255D01*
X0076764Y0266996D01*
X0076357Y0266727D01*
X0075958Y0266449D01*
X0075565Y0266161D01*
X0075180Y0265863D01*
X0074802Y0265556D01*
X0074431Y0265240D01*
X0074068Y0264915D01*
X0073714Y0264581D01*
X0073367Y0264239D01*
X0073029Y0263888D01*
X0072700Y0263529D01*
X0072379Y0263163D01*
X0072067Y0262788D01*
X0071765Y0262406D01*
X0071472Y0262017D01*
X0071189Y0261621D01*
X0070915Y0261218D01*
X0070651Y0260809D01*
X0070398Y0260393D01*
X0070154Y0259971D01*
X0069921Y0259544D01*
X0069698Y0259111D01*
X0069486Y0258672D01*
X0069285Y0258229D01*
X0069094Y0257780D01*
X0068915Y0257328D01*
X0068746Y0256871D01*
X0068589Y0256410D01*
X0068443Y0255945D01*
X0068308Y0255477D01*
X0068185Y0255006D01*
X0068073Y0254532D01*
X0067973Y0254055D01*
X0067885Y0253576D01*
X0067808Y0253095D01*
X0067743Y0252612D01*
X0067690Y0252128D01*
X0067648Y0251643D01*
X0067619Y0251157D01*
X0067601Y0250670D01*
X0067595Y0250183D01*
X0067595Y0165183D01*
X0068621Y0163154D01*
X0069598Y0161101D01*
X0070525Y0159024D01*
X0071402Y0156927D01*
X0072228Y0154808D01*
X0073003Y0152671D01*
X0073727Y0150515D01*
X0074399Y0148343D01*
X0075019Y0146155D01*
X0075586Y0143954D01*
X0076100Y0141739D01*
X0076560Y0139512D01*
X0076967Y0137275D01*
X0077320Y0135029D01*
X0077620Y0132775D01*
X0077865Y0130514D01*
X0078056Y0128249D01*
X0078192Y0125979D01*
X0078274Y0123707D01*
X0078301Y0121433D01*
X0078274Y0119159D01*
X0078192Y0116887D01*
X0078056Y0114617D01*
X0077865Y0112352D01*
X0077620Y0110091D01*
X0077320Y0107837D01*
X0076967Y0105591D01*
X0076560Y0103354D01*
X0076100Y0101127D01*
X0075586Y0098912D01*
X0075019Y0096711D01*
X0074399Y0094523D01*
X0073727Y0092351D01*
X0073003Y0090195D01*
X0072228Y0088058D01*
X0071402Y0085939D01*
X0070525Y0083842D01*
X0069598Y0081765D01*
X0068621Y0079712D01*
X0067595Y0077683D01*
D11*
X0082095Y0181837D03*
X0082095Y0188530D03*
X0082095Y0199337D03*
X0082095Y0206030D03*
X0093095Y0206030D03*
X0093095Y0199337D03*
X0093095Y0188530D03*
X0093095Y0181837D03*
X0095095Y0254837D03*
X0095095Y0261530D03*
X0080095Y0261030D03*
X0080095Y0254337D03*
D12*
X0084538Y0245675D03*
X0084538Y0243670D03*
X0084538Y0241723D03*
X0090745Y0241723D03*
X0090745Y0243670D03*
X0090745Y0245675D03*
D13*
X0091434Y0226719D03*
X0088875Y0226719D03*
X0086316Y0226719D03*
X0083757Y0226719D03*
X0083757Y0218648D03*
X0086316Y0218648D03*
X0088875Y0218648D03*
X0091434Y0218648D03*
D14*
X0087595Y0172683D03*
M02*
