G75*
%MOIN*%
%OFA0B0*%
%FSLAX25Y25*%
%IPPOS*%
%LPD*%
%AMOC8*
5,1,8,0,0,1.08239X$1,22.5*
%
%ADD10C,0.00000*%
%ADD11C,0.00600*%
D10*
X0047595Y0040183D02*
X0047595Y0070183D01*
X0067595Y0070183D01*
X0067595Y0077683D01*
X0047595Y0040183D02*
X0127595Y0040183D01*
X0127595Y0070183D01*
X0107595Y0070183D01*
X0107595Y0077683D01*
X0106569Y0079712D01*
X0105592Y0081765D01*
X0104665Y0083842D01*
X0103788Y0085939D01*
X0102962Y0088058D01*
X0102187Y0090195D01*
X0101463Y0092351D01*
X0100791Y0094523D01*
X0100171Y0096711D01*
X0099604Y0098912D01*
X0099090Y0101127D01*
X0098630Y0103354D01*
X0098223Y0105591D01*
X0097870Y0107837D01*
X0097570Y0110091D01*
X0097325Y0112352D01*
X0097134Y0114617D01*
X0096998Y0116887D01*
X0096916Y0119159D01*
X0096889Y0121433D01*
X0096916Y0123707D01*
X0096998Y0125979D01*
X0097134Y0128249D01*
X0097325Y0130514D01*
X0097570Y0132775D01*
X0097870Y0135029D01*
X0098223Y0137275D01*
X0098630Y0139512D01*
X0099090Y0141739D01*
X0099604Y0143954D01*
X0100171Y0146155D01*
X0100791Y0148343D01*
X0101463Y0150515D01*
X0102187Y0152671D01*
X0102962Y0154808D01*
X0103788Y0156927D01*
X0104665Y0159024D01*
X0105592Y0161101D01*
X0106569Y0163154D01*
X0107595Y0165183D01*
X0107595Y0250183D01*
X0107589Y0250670D01*
X0107571Y0251157D01*
X0107542Y0251643D01*
X0107500Y0252128D01*
X0107447Y0252612D01*
X0107382Y0253095D01*
X0107305Y0253576D01*
X0107217Y0254055D01*
X0107117Y0254532D01*
X0107005Y0255006D01*
X0106882Y0255477D01*
X0106747Y0255945D01*
X0106601Y0256410D01*
X0106444Y0256871D01*
X0106275Y0257328D01*
X0106096Y0257780D01*
X0105905Y0258229D01*
X0105704Y0258672D01*
X0105492Y0259111D01*
X0105269Y0259544D01*
X0105036Y0259971D01*
X0104792Y0260393D01*
X0104539Y0260809D01*
X0104275Y0261218D01*
X0104001Y0261621D01*
X0103718Y0262017D01*
X0103425Y0262406D01*
X0103123Y0262788D01*
X0102811Y0263163D01*
X0102490Y0263529D01*
X0102161Y0263888D01*
X0101823Y0264239D01*
X0101476Y0264581D01*
X0101122Y0264915D01*
X0100759Y0265240D01*
X0100388Y0265556D01*
X0100010Y0265863D01*
X0099625Y0266161D01*
X0099232Y0266449D01*
X0098833Y0266727D01*
X0098426Y0266996D01*
X0098014Y0267255D01*
X0097595Y0267504D01*
X0097170Y0267742D01*
X0096740Y0267970D01*
X0096304Y0268187D01*
X0095863Y0268394D01*
X0095417Y0268590D01*
X0094967Y0268775D01*
X0094512Y0268949D01*
X0094053Y0269112D01*
X0093590Y0269263D01*
X0093123Y0269404D01*
X0092654Y0269533D01*
X0092181Y0269650D01*
X0091706Y0269756D01*
X0091228Y0269850D01*
X0090748Y0269933D01*
X0090266Y0270004D01*
X0089782Y0270063D01*
X0089298Y0270110D01*
X0088812Y0270146D01*
X0088325Y0270170D01*
X0087839Y0270182D01*
X0087351Y0270182D01*
X0086865Y0270170D01*
X0086378Y0270146D01*
X0085892Y0270110D01*
X0085408Y0270063D01*
X0084924Y0270004D01*
X0084442Y0269933D01*
X0083962Y0269850D01*
X0083484Y0269756D01*
X0083009Y0269650D01*
X0082536Y0269533D01*
X0082067Y0269404D01*
X0081600Y0269263D01*
X0081137Y0269112D01*
X0080678Y0268949D01*
X0080223Y0268775D01*
X0079773Y0268590D01*
X0079327Y0268394D01*
X0078886Y0268187D01*
X0078450Y0267970D01*
X0078020Y0267742D01*
X0077595Y0267504D01*
X0077176Y0267255D01*
X0076764Y0266996D01*
X0076357Y0266727D01*
X0075958Y0266449D01*
X0075565Y0266161D01*
X0075180Y0265863D01*
X0074802Y0265556D01*
X0074431Y0265240D01*
X0074068Y0264915D01*
X0073714Y0264581D01*
X0073367Y0264239D01*
X0073029Y0263888D01*
X0072700Y0263529D01*
X0072379Y0263163D01*
X0072067Y0262788D01*
X0071765Y0262406D01*
X0071472Y0262017D01*
X0071189Y0261621D01*
X0070915Y0261218D01*
X0070651Y0260809D01*
X0070398Y0260393D01*
X0070154Y0259971D01*
X0069921Y0259544D01*
X0069698Y0259111D01*
X0069486Y0258672D01*
X0069285Y0258229D01*
X0069094Y0257780D01*
X0068915Y0257328D01*
X0068746Y0256871D01*
X0068589Y0256410D01*
X0068443Y0255945D01*
X0068308Y0255477D01*
X0068185Y0255006D01*
X0068073Y0254532D01*
X0067973Y0254055D01*
X0067885Y0253576D01*
X0067808Y0253095D01*
X0067743Y0252612D01*
X0067690Y0252128D01*
X0067648Y0251643D01*
X0067619Y0251157D01*
X0067601Y0250670D01*
X0067595Y0250183D01*
X0067595Y0165183D01*
X0068621Y0163154D01*
X0069598Y0161101D01*
X0070525Y0159024D01*
X0071402Y0156927D01*
X0072228Y0154808D01*
X0073003Y0152671D01*
X0073727Y0150515D01*
X0074399Y0148343D01*
X0075019Y0146155D01*
X0075586Y0143954D01*
X0076100Y0141739D01*
X0076560Y0139512D01*
X0076967Y0137275D01*
X0077320Y0135029D01*
X0077620Y0132775D01*
X0077865Y0130514D01*
X0078056Y0128249D01*
X0078192Y0125979D01*
X0078274Y0123707D01*
X0078301Y0121433D01*
X0078274Y0119159D01*
X0078192Y0116887D01*
X0078056Y0114617D01*
X0077865Y0112352D01*
X0077620Y0110091D01*
X0077320Y0107837D01*
X0076967Y0105591D01*
X0076560Y0103354D01*
X0076100Y0101127D01*
X0075586Y0098912D01*
X0075019Y0096711D01*
X0074399Y0094523D01*
X0073727Y0092351D01*
X0073003Y0090195D01*
X0072228Y0088058D01*
X0071402Y0085939D01*
X0070525Y0083842D01*
X0069598Y0081765D01*
X0068621Y0079712D01*
X0067595Y0077683D01*
D11*
X0078260Y0100686D02*
X0078260Y0101754D01*
X0079328Y0102822D01*
X0084665Y0102822D01*
X0083598Y0104983D02*
X0081463Y0104983D01*
X0080395Y0106051D01*
X0080395Y0108186D01*
X0081463Y0109254D01*
X0083598Y0109254D01*
X0084665Y0108186D01*
X0084665Y0106051D01*
X0083598Y0104983D01*
X0083598Y0111429D02*
X0084665Y0112496D01*
X0084665Y0114632D01*
X0083598Y0115699D01*
X0080395Y0115699D01*
X0080395Y0117874D02*
X0084665Y0117874D01*
X0084665Y0121077D01*
X0083598Y0122145D01*
X0080395Y0122145D01*
X0080395Y0124320D02*
X0080395Y0125387D01*
X0081463Y0125387D01*
X0081463Y0124320D01*
X0080395Y0124320D01*
X0080395Y0127543D02*
X0086801Y0127543D01*
X0084665Y0128610D02*
X0084665Y0130745D01*
X0083598Y0131813D01*
X0080395Y0131813D01*
X0081463Y0133988D02*
X0080395Y0135056D01*
X0080395Y0138258D01*
X0084665Y0138258D01*
X0084665Y0133988D02*
X0081463Y0133988D01*
X0084665Y0128610D02*
X0083598Y0127543D01*
X0086801Y0140434D02*
X0086801Y0141501D01*
X0080395Y0141501D01*
X0080395Y0140434D02*
X0080395Y0142569D01*
X0081463Y0145798D02*
X0080395Y0146866D01*
X0081463Y0145798D02*
X0085733Y0145798D01*
X0084665Y0144731D02*
X0084665Y0146866D01*
X0083598Y0149028D02*
X0084665Y0150095D01*
X0084665Y0152230D01*
X0083598Y0153298D01*
X0080395Y0153298D01*
X0081463Y0155473D02*
X0080395Y0156541D01*
X0080395Y0158676D01*
X0081463Y0159743D01*
X0082530Y0158676D02*
X0084665Y0158676D01*
X0084665Y0156541D01*
X0082530Y0156541D01*
X0082530Y0158676D01*
X0083598Y0159743D01*
X0085733Y0159743D01*
X0086801Y0158676D01*
X0086801Y0156541D01*
X0085733Y0155473D01*
X0081463Y0155473D01*
X0081463Y0161919D02*
X0080395Y0162986D01*
X0080395Y0166189D01*
X0079328Y0166189D02*
X0084665Y0166189D01*
X0084665Y0162986D01*
X0083598Y0161919D01*
X0081463Y0161919D01*
X0078260Y0165121D02*
X0079328Y0166189D01*
X0078260Y0165121D02*
X0078260Y0164054D01*
X0081463Y0168364D02*
X0080395Y0169432D01*
X0080395Y0171567D01*
X0082530Y0172634D02*
X0082530Y0168364D01*
X0081463Y0168364D02*
X0083598Y0168364D01*
X0084665Y0169432D01*
X0084665Y0171567D01*
X0083598Y0172634D01*
X0082530Y0172634D01*
X0081463Y0174810D02*
X0080395Y0175877D01*
X0080395Y0178012D01*
X0081463Y0179080D01*
X0083598Y0179080D01*
X0084665Y0178012D01*
X0084665Y0175877D01*
X0083598Y0174810D01*
X0081463Y0174810D01*
X0081463Y0181255D02*
X0080395Y0181255D01*
X0080395Y0182323D01*
X0081463Y0182323D01*
X0081463Y0181255D01*
X0081463Y0184478D02*
X0080395Y0185545D01*
X0080395Y0188748D01*
X0084665Y0188748D01*
X0084665Y0190923D02*
X0084665Y0191991D01*
X0080395Y0191991D01*
X0080395Y0193058D02*
X0080395Y0190923D01*
X0081463Y0195220D02*
X0080395Y0196288D01*
X0080395Y0198423D01*
X0081463Y0199491D01*
X0083598Y0199491D01*
X0084665Y0198423D01*
X0084665Y0196288D01*
X0083598Y0195220D01*
X0081463Y0195220D01*
X0081463Y0201666D02*
X0080395Y0201666D01*
X0080395Y0202733D01*
X0081463Y0202733D01*
X0081463Y0201666D01*
X0080395Y0204889D02*
X0084665Y0204889D01*
X0084665Y0208091D01*
X0083598Y0209159D01*
X0080395Y0209159D01*
X0081463Y0211334D02*
X0080395Y0212402D01*
X0080395Y0214537D01*
X0081463Y0215604D01*
X0083598Y0215604D01*
X0084665Y0214537D01*
X0084665Y0212402D01*
X0083598Y0211334D01*
X0081463Y0211334D01*
X0086801Y0191991D02*
X0087868Y0191991D01*
X0084665Y0184478D02*
X0081463Y0184478D01*
X0090895Y0179624D02*
X0090895Y0177489D01*
X0091963Y0176421D01*
X0093030Y0176421D01*
X0094098Y0177489D01*
X0094098Y0179624D01*
X0093030Y0180691D01*
X0091963Y0180691D01*
X0090895Y0179624D01*
X0094098Y0179624D02*
X0095165Y0180691D01*
X0096233Y0180691D01*
X0097301Y0179624D01*
X0097301Y0177489D01*
X0096233Y0176421D01*
X0095165Y0176421D01*
X0094098Y0177489D01*
X0090895Y0174246D02*
X0090895Y0169976D01*
X0090895Y0172111D02*
X0097301Y0172111D01*
X0095165Y0169976D01*
X0096233Y0167800D02*
X0091963Y0163530D01*
X0090895Y0164598D01*
X0090895Y0166733D01*
X0091963Y0167800D01*
X0096233Y0167800D01*
X0097301Y0166733D01*
X0097301Y0164598D01*
X0096233Y0163530D01*
X0091963Y0163530D01*
X0090895Y0161355D02*
X0090895Y0157085D01*
X0095165Y0161355D01*
X0096233Y0161355D01*
X0097301Y0160287D01*
X0097301Y0158152D01*
X0096233Y0157085D01*
X0095165Y0148477D02*
X0093030Y0148477D01*
X0090895Y0146342D01*
X0091963Y0144167D02*
X0090895Y0143099D01*
X0090895Y0140964D01*
X0091963Y0139897D01*
X0096233Y0139897D01*
X0097301Y0140964D01*
X0097301Y0143099D01*
X0096233Y0144167D01*
X0097301Y0146342D02*
X0095165Y0148477D01*
X0097301Y0137735D02*
X0095165Y0135600D01*
X0093030Y0135600D01*
X0090895Y0137735D01*
X0086801Y0149028D02*
X0080395Y0149028D01*
X0080395Y0111429D02*
X0086801Y0111429D01*
X0086801Y0102822D02*
X0087868Y0102822D01*
M02*
