G75*
%MOIN*%
%OFA0B0*%
%FSLAX25Y25*%
%IPPOS*%
%LPD*%
%AMOC8*
5,1,8,0,0,1.08239X$1,22.5*
%
%ADD10C,0.00000*%
%ADD11R,0.03937X0.04331*%
%ADD12C,0.07400*%
%ADD13R,0.02000X0.00980*%
%ADD14R,0.01378X0.01969*%
%ADD15R,0.02500X0.05000*%
%ADD16C,0.03169*%
%ADD17C,0.01200*%
%ADD18C,0.10000*%
%ADD19C,0.02400*%
%ADD20C,0.01600*%
%ADD21C,0.04724*%
%ADD22C,0.03562*%
D10*
X0047595Y0040183D02*
X0047595Y0070183D01*
X0067595Y0070183D01*
X0067595Y0077683D01*
X0047595Y0040183D02*
X0127595Y0040183D01*
X0127595Y0070183D01*
X0107595Y0070183D01*
X0107595Y0077683D01*
X0106569Y0079712D01*
X0105592Y0081765D01*
X0104665Y0083842D01*
X0103788Y0085939D01*
X0102962Y0088058D01*
X0102187Y0090195D01*
X0101463Y0092351D01*
X0100791Y0094523D01*
X0100171Y0096711D01*
X0099604Y0098912D01*
X0099090Y0101127D01*
X0098630Y0103354D01*
X0098223Y0105591D01*
X0097870Y0107837D01*
X0097570Y0110091D01*
X0097325Y0112352D01*
X0097134Y0114617D01*
X0096998Y0116887D01*
X0096916Y0119159D01*
X0096889Y0121433D01*
X0096916Y0123707D01*
X0096998Y0125979D01*
X0097134Y0128249D01*
X0097325Y0130514D01*
X0097570Y0132775D01*
X0097870Y0135029D01*
X0098223Y0137275D01*
X0098630Y0139512D01*
X0099090Y0141739D01*
X0099604Y0143954D01*
X0100171Y0146155D01*
X0100791Y0148343D01*
X0101463Y0150515D01*
X0102187Y0152671D01*
X0102962Y0154808D01*
X0103788Y0156927D01*
X0104665Y0159024D01*
X0105592Y0161101D01*
X0106569Y0163154D01*
X0107595Y0165183D01*
X0107595Y0250183D01*
X0107589Y0250670D01*
X0107571Y0251157D01*
X0107542Y0251643D01*
X0107500Y0252128D01*
X0107447Y0252612D01*
X0107382Y0253095D01*
X0107305Y0253576D01*
X0107217Y0254055D01*
X0107117Y0254532D01*
X0107005Y0255006D01*
X0106882Y0255477D01*
X0106747Y0255945D01*
X0106601Y0256410D01*
X0106444Y0256871D01*
X0106275Y0257328D01*
X0106096Y0257780D01*
X0105905Y0258229D01*
X0105704Y0258672D01*
X0105492Y0259111D01*
X0105269Y0259544D01*
X0105036Y0259971D01*
X0104792Y0260393D01*
X0104539Y0260809D01*
X0104275Y0261218D01*
X0104001Y0261621D01*
X0103718Y0262017D01*
X0103425Y0262406D01*
X0103123Y0262788D01*
X0102811Y0263163D01*
X0102490Y0263529D01*
X0102161Y0263888D01*
X0101823Y0264239D01*
X0101476Y0264581D01*
X0101122Y0264915D01*
X0100759Y0265240D01*
X0100388Y0265556D01*
X0100010Y0265863D01*
X0099625Y0266161D01*
X0099232Y0266449D01*
X0098833Y0266727D01*
X0098426Y0266996D01*
X0098014Y0267255D01*
X0097595Y0267504D01*
X0097170Y0267742D01*
X0096740Y0267970D01*
X0096304Y0268187D01*
X0095863Y0268394D01*
X0095417Y0268590D01*
X0094967Y0268775D01*
X0094512Y0268949D01*
X0094053Y0269112D01*
X0093590Y0269263D01*
X0093123Y0269404D01*
X0092654Y0269533D01*
X0092181Y0269650D01*
X0091706Y0269756D01*
X0091228Y0269850D01*
X0090748Y0269933D01*
X0090266Y0270004D01*
X0089782Y0270063D01*
X0089298Y0270110D01*
X0088812Y0270146D01*
X0088325Y0270170D01*
X0087839Y0270182D01*
X0087351Y0270182D01*
X0086865Y0270170D01*
X0086378Y0270146D01*
X0085892Y0270110D01*
X0085408Y0270063D01*
X0084924Y0270004D01*
X0084442Y0269933D01*
X0083962Y0269850D01*
X0083484Y0269756D01*
X0083009Y0269650D01*
X0082536Y0269533D01*
X0082067Y0269404D01*
X0081600Y0269263D01*
X0081137Y0269112D01*
X0080678Y0268949D01*
X0080223Y0268775D01*
X0079773Y0268590D01*
X0079327Y0268394D01*
X0078886Y0268187D01*
X0078450Y0267970D01*
X0078020Y0267742D01*
X0077595Y0267504D01*
X0077176Y0267255D01*
X0076764Y0266996D01*
X0076357Y0266727D01*
X0075958Y0266449D01*
X0075565Y0266161D01*
X0075180Y0265863D01*
X0074802Y0265556D01*
X0074431Y0265240D01*
X0074068Y0264915D01*
X0073714Y0264581D01*
X0073367Y0264239D01*
X0073029Y0263888D01*
X0072700Y0263529D01*
X0072379Y0263163D01*
X0072067Y0262788D01*
X0071765Y0262406D01*
X0071472Y0262017D01*
X0071189Y0261621D01*
X0070915Y0261218D01*
X0070651Y0260809D01*
X0070398Y0260393D01*
X0070154Y0259971D01*
X0069921Y0259544D01*
X0069698Y0259111D01*
X0069486Y0258672D01*
X0069285Y0258229D01*
X0069094Y0257780D01*
X0068915Y0257328D01*
X0068746Y0256871D01*
X0068589Y0256410D01*
X0068443Y0255945D01*
X0068308Y0255477D01*
X0068185Y0255006D01*
X0068073Y0254532D01*
X0067973Y0254055D01*
X0067885Y0253576D01*
X0067808Y0253095D01*
X0067743Y0252612D01*
X0067690Y0252128D01*
X0067648Y0251643D01*
X0067619Y0251157D01*
X0067601Y0250670D01*
X0067595Y0250183D01*
X0067595Y0165183D01*
X0068621Y0163154D01*
X0069598Y0161101D01*
X0070525Y0159024D01*
X0071402Y0156927D01*
X0072228Y0154808D01*
X0073003Y0152671D01*
X0073727Y0150515D01*
X0074399Y0148343D01*
X0075019Y0146155D01*
X0075586Y0143954D01*
X0076100Y0141739D01*
X0076560Y0139512D01*
X0076967Y0137275D01*
X0077320Y0135029D01*
X0077620Y0132775D01*
X0077865Y0130514D01*
X0078056Y0128249D01*
X0078192Y0125979D01*
X0078274Y0123707D01*
X0078301Y0121433D01*
X0078274Y0119159D01*
X0078192Y0116887D01*
X0078056Y0114617D01*
X0077865Y0112352D01*
X0077620Y0110091D01*
X0077320Y0107837D01*
X0076967Y0105591D01*
X0076560Y0103354D01*
X0076100Y0101127D01*
X0075586Y0098912D01*
X0075019Y0096711D01*
X0074399Y0094523D01*
X0073727Y0092351D01*
X0073003Y0090195D01*
X0072228Y0088058D01*
X0071402Y0085939D01*
X0070525Y0083842D01*
X0069598Y0081765D01*
X0068621Y0079712D01*
X0067595Y0077683D01*
D11*
X0082095Y0181837D03*
X0082095Y0188530D03*
X0082095Y0199337D03*
X0082095Y0206030D03*
X0093095Y0206030D03*
X0093095Y0199337D03*
X0093095Y0188530D03*
X0093095Y0181837D03*
X0095095Y0254837D03*
X0095095Y0261530D03*
X0080095Y0261030D03*
X0080095Y0254337D03*
D12*
X0082595Y0050183D03*
X0072595Y0050183D03*
X0092595Y0050183D03*
X0102595Y0050183D03*
D13*
X0090745Y0241723D03*
X0090745Y0243670D03*
X0090745Y0245675D03*
X0084538Y0245675D03*
X0084538Y0243670D03*
X0084538Y0241723D03*
D14*
X0083757Y0226719D03*
X0086316Y0226719D03*
X0088875Y0226719D03*
X0091434Y0226719D03*
X0091434Y0218648D03*
X0088875Y0218648D03*
X0086316Y0218648D03*
X0083757Y0218648D03*
D15*
X0084395Y0172683D03*
X0087595Y0172683D03*
X0090795Y0172683D03*
D16*
X0097595Y0157683D03*
X0093095Y0194183D03*
X0082095Y0194183D03*
X0075595Y0167183D03*
X0077595Y0157683D03*
X0079595Y0222683D03*
X0077595Y0243683D03*
X0095595Y0222683D03*
X0097595Y0243683D03*
X0097595Y0080183D03*
X0077595Y0080183D03*
D17*
X0082795Y0079771D02*
X0070486Y0079771D01*
X0069862Y0078573D02*
X0082795Y0078573D01*
X0082795Y0077374D02*
X0069238Y0077374D01*
X0069195Y0077292D02*
X0071687Y0082078D01*
X0073232Y0086183D01*
X0082795Y0086183D01*
X0082795Y0064886D01*
X0081642Y0063733D01*
X0063245Y0063733D01*
X0062766Y0064888D01*
X0061051Y0066604D01*
X0058809Y0067533D01*
X0056382Y0067533D01*
X0054140Y0066604D01*
X0052424Y0064888D01*
X0051495Y0062646D01*
X0051495Y0060220D01*
X0052424Y0057978D01*
X0054140Y0056262D01*
X0056382Y0055333D01*
X0058809Y0055333D01*
X0061051Y0056262D01*
X0062766Y0057978D01*
X0063245Y0059133D01*
X0080295Y0059133D01*
X0080295Y0054426D01*
X0079876Y0054252D01*
X0078526Y0052902D01*
X0077806Y0051164D01*
X0077765Y0051424D01*
X0077507Y0052218D01*
X0077128Y0052961D01*
X0076638Y0053636D01*
X0076048Y0054226D01*
X0075373Y0054716D01*
X0074630Y0055095D01*
X0073836Y0055353D01*
X0073012Y0055483D01*
X0072995Y0055483D01*
X0072995Y0050583D01*
X0072195Y0050583D01*
X0072195Y0049783D01*
X0067295Y0049783D01*
X0067295Y0049766D01*
X0067426Y0048942D01*
X0067683Y0048149D01*
X0068062Y0047405D01*
X0068553Y0046730D01*
X0069142Y0046140D01*
X0069817Y0045650D01*
X0070561Y0045271D01*
X0071354Y0045014D01*
X0072178Y0044883D01*
X0072195Y0044883D01*
X0072195Y0049783D01*
X0072995Y0049783D01*
X0072995Y0044883D01*
X0073012Y0044883D01*
X0073836Y0045014D01*
X0074630Y0045271D01*
X0075373Y0045650D01*
X0076048Y0046140D01*
X0076638Y0046730D01*
X0077128Y0047405D01*
X0077507Y0048149D01*
X0077765Y0048942D01*
X0077806Y0049202D01*
X0078526Y0047464D01*
X0079876Y0046114D01*
X0081640Y0045383D01*
X0083550Y0045383D01*
X0085314Y0046114D01*
X0086664Y0047464D01*
X0087395Y0049228D01*
X0087395Y0051138D01*
X0086664Y0052902D01*
X0085314Y0054252D01*
X0084895Y0054426D01*
X0084895Y0060480D01*
X0086048Y0061633D01*
X0087395Y0062980D01*
X0087395Y0086183D01*
X0087795Y0086183D01*
X0087795Y0076730D01*
X0089142Y0075383D01*
X0100295Y0064230D01*
X0100295Y0054426D01*
X0099876Y0054252D01*
X0098526Y0052902D01*
X0097795Y0051138D01*
X0097795Y0049228D01*
X0098526Y0047464D01*
X0099876Y0046114D01*
X0101640Y0045383D01*
X0103550Y0045383D01*
X0105314Y0046114D01*
X0105833Y0046633D01*
X0111945Y0046633D01*
X0112424Y0045478D01*
X0114140Y0043762D01*
X0116382Y0042833D01*
X0118809Y0042833D01*
X0121051Y0043762D01*
X0122766Y0045478D01*
X0123695Y0047720D01*
X0123695Y0050146D01*
X0122766Y0052388D01*
X0121051Y0054104D01*
X0118809Y0055033D01*
X0116382Y0055033D01*
X0114140Y0054104D01*
X0112424Y0052388D01*
X0111945Y0051233D01*
X0107356Y0051233D01*
X0106664Y0052902D01*
X0105314Y0054252D01*
X0104895Y0054426D01*
X0104895Y0066136D01*
X0092395Y0078636D01*
X0092395Y0086183D01*
X0101958Y0086183D01*
X0103504Y0082078D01*
X0105995Y0077292D01*
X0105995Y0069520D01*
X0106932Y0068583D01*
X0125995Y0068583D01*
X0125995Y0041783D01*
X0049195Y0041783D01*
X0049195Y0068583D01*
X0068258Y0068583D01*
X0069195Y0069520D01*
X0069195Y0077292D01*
X0069195Y0076176D02*
X0082795Y0076176D01*
X0082795Y0074977D02*
X0069195Y0074977D01*
X0069195Y0073779D02*
X0082795Y0073779D01*
X0082795Y0072580D02*
X0069195Y0072580D01*
X0069195Y0071382D02*
X0082795Y0071382D01*
X0082795Y0070183D02*
X0069195Y0070183D01*
X0068659Y0068985D02*
X0082795Y0068985D01*
X0082795Y0067786D02*
X0049195Y0067786D01*
X0049195Y0066588D02*
X0054123Y0066588D01*
X0052924Y0065389D02*
X0049195Y0065389D01*
X0049195Y0064191D02*
X0052135Y0064191D01*
X0051638Y0062992D02*
X0049195Y0062992D01*
X0049195Y0061793D02*
X0051495Y0061793D01*
X0051495Y0060595D02*
X0049195Y0060595D01*
X0049195Y0059396D02*
X0051836Y0059396D01*
X0052333Y0058198D02*
X0049195Y0058198D01*
X0049195Y0056999D02*
X0053402Y0056999D01*
X0055252Y0055801D02*
X0049195Y0055801D01*
X0049195Y0054602D02*
X0069661Y0054602D01*
X0069817Y0054716D02*
X0069142Y0054226D01*
X0068553Y0053636D01*
X0068062Y0052961D01*
X0067683Y0052218D01*
X0067426Y0051424D01*
X0067295Y0050600D01*
X0067295Y0050583D01*
X0072195Y0050583D01*
X0072195Y0055483D01*
X0072178Y0055483D01*
X0071354Y0055353D01*
X0070561Y0055095D01*
X0069817Y0054716D01*
X0072195Y0054602D02*
X0072995Y0054602D01*
X0072995Y0053404D02*
X0072195Y0053404D01*
X0072195Y0052205D02*
X0072995Y0052205D01*
X0072995Y0051007D02*
X0072195Y0051007D01*
X0072195Y0049808D02*
X0049195Y0049808D01*
X0049195Y0048610D02*
X0067534Y0048610D01*
X0068059Y0047411D02*
X0049195Y0047411D01*
X0049195Y0046213D02*
X0069070Y0046213D01*
X0067360Y0051007D02*
X0049195Y0051007D01*
X0049195Y0052205D02*
X0067679Y0052205D01*
X0068384Y0053404D02*
X0049195Y0053404D01*
X0049195Y0045014D02*
X0071352Y0045014D01*
X0072195Y0045014D02*
X0072995Y0045014D01*
X0073839Y0045014D02*
X0112887Y0045014D01*
X0112119Y0046213D02*
X0105413Y0046213D01*
X0106953Y0052205D02*
X0112348Y0052205D01*
X0113439Y0053404D02*
X0106162Y0053404D01*
X0104895Y0054602D02*
X0115342Y0054602D01*
X0115252Y0055801D02*
X0104895Y0055801D01*
X0104895Y0056999D02*
X0113402Y0056999D01*
X0114140Y0056262D02*
X0112424Y0057978D01*
X0111495Y0060220D01*
X0111495Y0062646D01*
X0112424Y0064888D01*
X0114140Y0066604D01*
X0116382Y0067533D01*
X0118809Y0067533D01*
X0121051Y0066604D01*
X0122766Y0064888D01*
X0123695Y0062646D01*
X0123695Y0060220D01*
X0122766Y0057978D01*
X0121051Y0056262D01*
X0118809Y0055333D01*
X0116382Y0055333D01*
X0114140Y0056262D01*
X0112333Y0058198D02*
X0104895Y0058198D01*
X0104895Y0059396D02*
X0111836Y0059396D01*
X0111495Y0060595D02*
X0104895Y0060595D01*
X0104895Y0061793D02*
X0111495Y0061793D01*
X0111638Y0062992D02*
X0104895Y0062992D01*
X0104895Y0064191D02*
X0112135Y0064191D01*
X0112924Y0065389D02*
X0104895Y0065389D01*
X0104443Y0066588D02*
X0114123Y0066588D01*
X0119938Y0055801D02*
X0125995Y0055801D01*
X0125995Y0056999D02*
X0121788Y0056999D01*
X0122858Y0058198D02*
X0125995Y0058198D01*
X0125995Y0059396D02*
X0123354Y0059396D01*
X0123695Y0060595D02*
X0125995Y0060595D01*
X0125995Y0061793D02*
X0123695Y0061793D01*
X0123552Y0062992D02*
X0125995Y0062992D01*
X0125995Y0064191D02*
X0123056Y0064191D01*
X0122266Y0065389D02*
X0125995Y0065389D01*
X0125995Y0066588D02*
X0121067Y0066588D01*
X0125995Y0067786D02*
X0103245Y0067786D01*
X0102046Y0068985D02*
X0106531Y0068985D01*
X0105995Y0070183D02*
X0100848Y0070183D01*
X0099649Y0071382D02*
X0105995Y0071382D01*
X0105995Y0072580D02*
X0098451Y0072580D01*
X0097252Y0073779D02*
X0105995Y0073779D01*
X0105995Y0074977D02*
X0096054Y0074977D01*
X0094855Y0076176D02*
X0105995Y0076176D01*
X0105952Y0077374D02*
X0093657Y0077374D01*
X0092458Y0078573D02*
X0105328Y0078573D01*
X0104704Y0079771D02*
X0092395Y0079771D01*
X0092395Y0080970D02*
X0104080Y0080970D01*
X0103470Y0082168D02*
X0092395Y0082168D01*
X0092395Y0083367D02*
X0103018Y0083367D01*
X0102567Y0084565D02*
X0092395Y0084565D01*
X0092395Y0085764D02*
X0102116Y0085764D01*
X0094342Y0070183D02*
X0087395Y0070183D01*
X0087395Y0068985D02*
X0095541Y0068985D01*
X0096739Y0067786D02*
X0087395Y0067786D01*
X0087395Y0066588D02*
X0097938Y0066588D01*
X0099136Y0065389D02*
X0087395Y0065389D01*
X0087395Y0064191D02*
X0090456Y0064191D01*
X0090634Y0064368D02*
X0089660Y0063394D01*
X0089133Y0062122D01*
X0089133Y0060744D01*
X0089660Y0059472D01*
X0090295Y0058837D01*
X0090295Y0054426D01*
X0089876Y0054252D01*
X0088526Y0052902D01*
X0087795Y0051138D01*
X0087795Y0049228D01*
X0088526Y0047464D01*
X0089876Y0046114D01*
X0091640Y0045383D01*
X0093550Y0045383D01*
X0095314Y0046114D01*
X0096664Y0047464D01*
X0097395Y0049228D01*
X0097395Y0051138D01*
X0096664Y0052902D01*
X0095314Y0054252D01*
X0094895Y0054426D01*
X0094895Y0058837D01*
X0095530Y0059472D01*
X0096057Y0060744D01*
X0096057Y0062122D01*
X0095530Y0063394D01*
X0094556Y0064368D01*
X0093284Y0064895D01*
X0091906Y0064895D01*
X0090634Y0064368D01*
X0089493Y0062992D02*
X0087395Y0062992D01*
X0086208Y0061793D02*
X0089133Y0061793D01*
X0089195Y0060595D02*
X0085010Y0060595D01*
X0084895Y0059396D02*
X0089735Y0059396D01*
X0090295Y0058198D02*
X0084895Y0058198D01*
X0084895Y0056999D02*
X0090295Y0056999D01*
X0090295Y0055801D02*
X0084895Y0055801D01*
X0084895Y0054602D02*
X0090295Y0054602D01*
X0089028Y0053404D02*
X0086163Y0053404D01*
X0086953Y0052205D02*
X0088237Y0052205D01*
X0087795Y0051007D02*
X0087395Y0051007D01*
X0087395Y0049808D02*
X0087795Y0049808D01*
X0088051Y0048610D02*
X0087139Y0048610D01*
X0086612Y0047411D02*
X0088579Y0047411D01*
X0089777Y0046213D02*
X0085413Y0046213D01*
X0080295Y0054602D02*
X0075529Y0054602D01*
X0076806Y0053404D02*
X0079028Y0053404D01*
X0078237Y0052205D02*
X0077511Y0052205D01*
X0077657Y0048610D02*
X0078051Y0048610D01*
X0078579Y0047411D02*
X0077131Y0047411D01*
X0076120Y0046213D02*
X0079777Y0046213D01*
X0080295Y0055801D02*
X0059938Y0055801D01*
X0061788Y0056999D02*
X0080295Y0056999D01*
X0080295Y0058198D02*
X0062858Y0058198D01*
X0063056Y0064191D02*
X0082100Y0064191D01*
X0082795Y0065389D02*
X0062266Y0065389D01*
X0061067Y0066588D02*
X0082795Y0066588D01*
X0087395Y0071382D02*
X0093144Y0071382D01*
X0091945Y0072580D02*
X0087395Y0072580D01*
X0087395Y0073779D02*
X0090747Y0073779D01*
X0089548Y0074977D02*
X0087395Y0074977D01*
X0087395Y0076176D02*
X0088350Y0076176D01*
X0087795Y0077374D02*
X0087395Y0077374D01*
X0087395Y0078573D02*
X0087795Y0078573D01*
X0087795Y0079771D02*
X0087395Y0079771D01*
X0087395Y0080970D02*
X0087795Y0080970D01*
X0087795Y0082168D02*
X0087395Y0082168D01*
X0087395Y0083367D02*
X0087795Y0083367D01*
X0087795Y0084565D02*
X0087395Y0084565D01*
X0087395Y0085764D02*
X0087795Y0085764D01*
X0082795Y0085764D02*
X0073074Y0085764D01*
X0072623Y0084565D02*
X0082795Y0084565D01*
X0082795Y0083367D02*
X0072172Y0083367D01*
X0071721Y0082168D02*
X0082795Y0082168D01*
X0082795Y0080970D02*
X0071110Y0080970D01*
X0071687Y0082078D02*
X0071687Y0082078D01*
X0072195Y0048610D02*
X0072995Y0048610D01*
X0072995Y0047411D02*
X0072195Y0047411D01*
X0072195Y0046213D02*
X0072995Y0046213D01*
X0095413Y0046213D02*
X0099777Y0046213D01*
X0098579Y0047411D02*
X0096612Y0047411D01*
X0097139Y0048610D02*
X0098051Y0048610D01*
X0097795Y0049808D02*
X0097395Y0049808D01*
X0097395Y0051007D02*
X0097795Y0051007D01*
X0098237Y0052205D02*
X0096953Y0052205D01*
X0096162Y0053404D02*
X0099028Y0053404D01*
X0100295Y0054602D02*
X0094895Y0054602D01*
X0094895Y0055801D02*
X0100295Y0055801D01*
X0100295Y0056999D02*
X0094895Y0056999D01*
X0094895Y0058198D02*
X0100295Y0058198D01*
X0100295Y0059396D02*
X0095455Y0059396D01*
X0095995Y0060595D02*
X0100295Y0060595D01*
X0100295Y0061793D02*
X0096057Y0061793D01*
X0095697Y0062992D02*
X0100295Y0062992D01*
X0100295Y0064191D02*
X0094734Y0064191D01*
X0114086Y0043816D02*
X0049195Y0043816D01*
X0049195Y0042617D02*
X0125995Y0042617D01*
X0125995Y0043816D02*
X0121105Y0043816D01*
X0122303Y0045014D02*
X0125995Y0045014D01*
X0125995Y0046213D02*
X0123071Y0046213D01*
X0123567Y0047411D02*
X0125995Y0047411D01*
X0125995Y0048610D02*
X0123695Y0048610D01*
X0123695Y0049808D02*
X0125995Y0049808D01*
X0125995Y0051007D02*
X0123339Y0051007D01*
X0122842Y0052205D02*
X0125995Y0052205D01*
X0125995Y0053404D02*
X0121751Y0053404D01*
X0119848Y0054602D02*
X0125995Y0054602D01*
X0099512Y0150183D02*
X0092395Y0150183D01*
X0092395Y0156730D01*
X0101895Y0166230D01*
X0101895Y0230636D01*
X0100548Y0231983D01*
X0099982Y0231983D01*
X0096795Y0235170D01*
X0096795Y0239887D01*
X0094256Y0242427D01*
X0093345Y0243338D01*
X0093345Y0243670D01*
X0090745Y0243670D01*
X0090745Y0243670D01*
X0093345Y0243670D01*
X0093345Y0244371D01*
X0093236Y0244778D01*
X0093025Y0245142D01*
X0092845Y0245323D01*
X0092845Y0246620D01*
X0092200Y0247265D01*
X0089289Y0247265D01*
X0088645Y0246620D01*
X0088645Y0245323D01*
X0088464Y0245142D01*
X0088254Y0244778D01*
X0088145Y0244371D01*
X0088145Y0243670D01*
X0088145Y0242969D01*
X0088254Y0242562D01*
X0088464Y0242198D01*
X0088645Y0242017D01*
X0088645Y0240777D01*
X0089289Y0240133D01*
X0089931Y0240133D01*
X0090041Y0240023D01*
X0091851Y0240023D01*
X0093395Y0238479D01*
X0093395Y0235170D01*
X0093195Y0234970D01*
X0093195Y0234687D01*
X0089845Y0231337D01*
X0089579Y0231604D01*
X0082495Y0238687D01*
X0082495Y0238970D01*
X0082295Y0239170D01*
X0082295Y0239479D01*
X0082839Y0240023D01*
X0085243Y0240023D01*
X0085353Y0240133D01*
X0085994Y0240133D01*
X0086638Y0240777D01*
X0086638Y0242668D01*
X0086610Y0242696D01*
X0086638Y0242724D01*
X0086638Y0244616D01*
X0086582Y0244672D01*
X0086638Y0244729D01*
X0086638Y0246620D01*
X0085994Y0247265D01*
X0085353Y0247265D01*
X0085234Y0247383D01*
X0082799Y0247383D01*
X0081795Y0248387D01*
X0081795Y0251071D01*
X0082519Y0251071D01*
X0083164Y0251716D01*
X0083164Y0256958D01*
X0082724Y0257398D01*
X0083046Y0257584D01*
X0083344Y0257882D01*
X0083555Y0258247D01*
X0083664Y0258654D01*
X0083664Y0260645D01*
X0080479Y0260645D01*
X0080479Y0261414D01*
X0079711Y0261414D01*
X0079711Y0264795D01*
X0077916Y0264795D01*
X0077509Y0264686D01*
X0077144Y0264475D01*
X0076846Y0264177D01*
X0076636Y0263812D01*
X0076527Y0263406D01*
X0076527Y0261414D01*
X0079711Y0261414D01*
X0079711Y0260645D01*
X0076527Y0260645D01*
X0076527Y0258654D01*
X0076636Y0258247D01*
X0076846Y0257882D01*
X0077144Y0257584D01*
X0077467Y0257398D01*
X0077027Y0256958D01*
X0077027Y0251716D01*
X0077671Y0251071D01*
X0078395Y0251071D01*
X0078395Y0246979D01*
X0079391Y0245983D01*
X0079991Y0245383D01*
X0079691Y0245383D01*
X0079116Y0245959D01*
X0078129Y0246367D01*
X0077061Y0246367D01*
X0076075Y0245959D01*
X0075320Y0245204D01*
X0074911Y0244217D01*
X0074911Y0243149D01*
X0075320Y0242163D01*
X0076075Y0241407D01*
X0077061Y0240999D01*
X0078129Y0240999D01*
X0079116Y0241407D01*
X0079691Y0241983D01*
X0079991Y0241983D01*
X0078895Y0240887D01*
X0078895Y0239170D01*
X0075208Y0235483D01*
X0074642Y0235483D01*
X0073295Y0234136D01*
X0073295Y0168645D01*
X0072911Y0167717D01*
X0072911Y0166649D01*
X0073320Y0165663D01*
X0074075Y0164907D01*
X0075061Y0164499D01*
X0076129Y0164499D01*
X0077116Y0164907D01*
X0077871Y0165663D01*
X0078279Y0166649D01*
X0078279Y0167717D01*
X0077895Y0168645D01*
X0077895Y0187883D01*
X0079027Y0187883D01*
X0079027Y0185909D01*
X0079671Y0185264D01*
X0084519Y0185264D01*
X0085164Y0185909D01*
X0085164Y0191151D01*
X0084519Y0191795D01*
X0083736Y0191795D01*
X0083048Y0192483D01*
X0077895Y0192483D01*
X0077895Y0232796D01*
X0080737Y0235637D01*
X0087175Y0229199D01*
X0087175Y0228803D01*
X0085608Y0228803D01*
X0085428Y0228983D01*
X0085063Y0229194D01*
X0084656Y0229303D01*
X0083757Y0229303D01*
X0083757Y0226719D01*
X0083756Y0226719D01*
X0083756Y0226718D01*
X0081468Y0226718D01*
X0081468Y0225524D01*
X0081577Y0225117D01*
X0081787Y0224752D01*
X0082085Y0224454D01*
X0082450Y0224243D01*
X0082857Y0224134D01*
X0083756Y0224134D01*
X0083756Y0226718D01*
X0083757Y0226718D01*
X0083757Y0224134D01*
X0084616Y0224134D01*
X0084616Y0223758D01*
X0087142Y0221232D01*
X0086316Y0221232D01*
X0086316Y0218648D01*
X0086316Y0218648D01*
X0086316Y0221232D01*
X0085416Y0221232D01*
X0085009Y0221123D01*
X0084644Y0220912D01*
X0084464Y0220732D01*
X0082612Y0220732D01*
X0081968Y0220088D01*
X0081968Y0219546D01*
X0081857Y0219435D01*
X0081857Y0213235D01*
X0085695Y0209396D01*
X0085695Y0201858D01*
X0085421Y0201583D01*
X0085164Y0201583D01*
X0085164Y0201958D01*
X0084724Y0202398D01*
X0085046Y0202584D01*
X0085344Y0202882D01*
X0085555Y0203247D01*
X0085664Y0203654D01*
X0085664Y0205645D01*
X0082479Y0205645D01*
X0082479Y0206414D01*
X0081711Y0206414D01*
X0081711Y0209795D01*
X0079916Y0209795D01*
X0079509Y0209686D01*
X0079144Y0209475D01*
X0078846Y0209177D01*
X0078636Y0208812D01*
X0078527Y0208406D01*
X0078527Y0206414D01*
X0081711Y0206414D01*
X0081711Y0205645D01*
X0078527Y0205645D01*
X0078527Y0203654D01*
X0078636Y0203247D01*
X0078846Y0202882D01*
X0079144Y0202584D01*
X0079467Y0202398D01*
X0079027Y0201958D01*
X0079027Y0196716D01*
X0079671Y0196071D01*
X0084519Y0196071D01*
X0085164Y0196716D01*
X0085164Y0197783D01*
X0085295Y0197783D01*
X0085295Y0178236D01*
X0084739Y0178791D01*
X0085164Y0179216D01*
X0085164Y0184458D01*
X0084519Y0185102D01*
X0079671Y0185102D01*
X0079027Y0184458D01*
X0079027Y0179216D01*
X0079671Y0178571D01*
X0079795Y0178571D01*
X0079795Y0177230D01*
X0082045Y0174980D01*
X0082045Y0169727D01*
X0082689Y0169083D01*
X0085295Y0169083D01*
X0085295Y0163636D01*
X0084142Y0162483D01*
X0082795Y0161136D01*
X0082795Y0150183D01*
X0075678Y0150183D01*
X0071687Y0160788D01*
X0069195Y0165575D01*
X0069195Y0250183D01*
X0069329Y0252401D01*
X0070391Y0256708D01*
X0072452Y0260635D01*
X0075394Y0263956D01*
X0079044Y0266475D01*
X0083192Y0268048D01*
X0087595Y0268583D01*
X0091999Y0268048D01*
X0096146Y0266475D01*
X0099797Y0263956D01*
X0102738Y0260635D01*
X0104799Y0256708D01*
X0105861Y0252401D01*
X0105995Y0250183D01*
X0105995Y0165575D01*
X0103504Y0160788D01*
X0099512Y0150183D01*
X0099625Y0150483D02*
X0092395Y0150483D01*
X0092395Y0151682D02*
X0100076Y0151682D01*
X0100527Y0152880D02*
X0092395Y0152880D01*
X0092395Y0154079D02*
X0100978Y0154079D01*
X0101429Y0155277D02*
X0092395Y0155277D01*
X0092395Y0156476D02*
X0101880Y0156476D01*
X0102332Y0157674D02*
X0093339Y0157674D01*
X0094538Y0158873D02*
X0102783Y0158873D01*
X0103234Y0160071D02*
X0095736Y0160071D01*
X0096935Y0161270D02*
X0103754Y0161270D01*
X0103504Y0160788D02*
X0103504Y0160788D01*
X0104378Y0162468D02*
X0098133Y0162468D01*
X0099332Y0163667D02*
X0105002Y0163667D01*
X0105626Y0164865D02*
X0100530Y0164865D01*
X0101729Y0166064D02*
X0105995Y0166064D01*
X0105995Y0167262D02*
X0101895Y0167262D01*
X0101895Y0168461D02*
X0105995Y0168461D01*
X0105995Y0169660D02*
X0101895Y0169660D01*
X0101895Y0170858D02*
X0105995Y0170858D01*
X0105995Y0172057D02*
X0101895Y0172057D01*
X0101895Y0173255D02*
X0105995Y0173255D01*
X0105995Y0174454D02*
X0101895Y0174454D01*
X0101895Y0175652D02*
X0105995Y0175652D01*
X0105995Y0176851D02*
X0101895Y0176851D01*
X0101895Y0178049D02*
X0105995Y0178049D01*
X0105995Y0179248D02*
X0101895Y0179248D01*
X0101895Y0180446D02*
X0105995Y0180446D01*
X0105995Y0181645D02*
X0101895Y0181645D01*
X0101895Y0182843D02*
X0105995Y0182843D01*
X0105995Y0184042D02*
X0101895Y0184042D01*
X0101895Y0185240D02*
X0105995Y0185240D01*
X0105995Y0186439D02*
X0101895Y0186439D01*
X0101895Y0187637D02*
X0105995Y0187637D01*
X0105995Y0188836D02*
X0101895Y0188836D01*
X0101895Y0190034D02*
X0105995Y0190034D01*
X0105995Y0191233D02*
X0101895Y0191233D01*
X0101895Y0192431D02*
X0105995Y0192431D01*
X0105995Y0193630D02*
X0101895Y0193630D01*
X0101895Y0194828D02*
X0105995Y0194828D01*
X0105995Y0196027D02*
X0101895Y0196027D01*
X0101895Y0197225D02*
X0105995Y0197225D01*
X0105995Y0198424D02*
X0101895Y0198424D01*
X0101895Y0199622D02*
X0105995Y0199622D01*
X0105995Y0200821D02*
X0101895Y0200821D01*
X0101895Y0202019D02*
X0105995Y0202019D01*
X0105995Y0203218D02*
X0101895Y0203218D01*
X0101895Y0204416D02*
X0105995Y0204416D01*
X0105995Y0205615D02*
X0101895Y0205615D01*
X0101895Y0206813D02*
X0105995Y0206813D01*
X0105995Y0208012D02*
X0101895Y0208012D01*
X0101895Y0209210D02*
X0105995Y0209210D01*
X0105995Y0210409D02*
X0101895Y0210409D01*
X0101895Y0211607D02*
X0105995Y0211607D01*
X0105995Y0212806D02*
X0101895Y0212806D01*
X0101895Y0214004D02*
X0105995Y0214004D01*
X0105995Y0215203D02*
X0101895Y0215203D01*
X0101895Y0216401D02*
X0105995Y0216401D01*
X0105995Y0217600D02*
X0101895Y0217600D01*
X0101895Y0218798D02*
X0105995Y0218798D01*
X0105995Y0219997D02*
X0101895Y0219997D01*
X0101895Y0221195D02*
X0105995Y0221195D01*
X0105995Y0222394D02*
X0101895Y0222394D01*
X0101895Y0223593D02*
X0105995Y0223593D01*
X0105995Y0224791D02*
X0101895Y0224791D01*
X0101895Y0225990D02*
X0105995Y0225990D01*
X0105995Y0227188D02*
X0101895Y0227188D01*
X0101895Y0228387D02*
X0105995Y0228387D01*
X0105995Y0229585D02*
X0101895Y0229585D01*
X0101747Y0230784D02*
X0105995Y0230784D01*
X0105995Y0231982D02*
X0100549Y0231982D01*
X0098785Y0233181D02*
X0105995Y0233181D01*
X0105995Y0234379D02*
X0097586Y0234379D01*
X0096795Y0235578D02*
X0105995Y0235578D01*
X0105995Y0236776D02*
X0096795Y0236776D01*
X0096795Y0237975D02*
X0105995Y0237975D01*
X0105995Y0239173D02*
X0096795Y0239173D01*
X0096311Y0240372D02*
X0105995Y0240372D01*
X0105995Y0241570D02*
X0095112Y0241570D01*
X0094256Y0242427D02*
X0094256Y0242427D01*
X0093914Y0242769D02*
X0105995Y0242769D01*
X0105995Y0243967D02*
X0093345Y0243967D01*
X0093002Y0245166D02*
X0105995Y0245166D01*
X0105995Y0246364D02*
X0092845Y0246364D01*
X0090745Y0243670D02*
X0090745Y0243670D01*
X0088145Y0243670D01*
X0090745Y0243670D01*
X0090745Y0241723D02*
X0092556Y0241723D01*
X0095095Y0239183D01*
X0095095Y0234183D01*
X0091434Y0230522D01*
X0091434Y0226719D01*
X0091595Y0226880D01*
X0093223Y0225279D02*
X0092578Y0224634D01*
X0090289Y0224634D01*
X0090154Y0224769D01*
X0090019Y0224634D01*
X0088548Y0224634D01*
X0090575Y0222608D01*
X0090575Y0220732D01*
X0092578Y0220732D01*
X0093223Y0220088D01*
X0093223Y0219546D01*
X0093334Y0219435D01*
X0093334Y0214631D01*
X0094995Y0212970D01*
X0094995Y0209295D01*
X0095519Y0209295D01*
X0096164Y0208651D01*
X0096164Y0203409D01*
X0095519Y0202764D01*
X0090671Y0202764D01*
X0090027Y0203409D01*
X0090027Y0208651D01*
X0090671Y0209295D01*
X0091195Y0209295D01*
X0091195Y0211396D01*
X0090775Y0211817D01*
X0090775Y0210676D01*
X0089495Y0209396D01*
X0089495Y0201858D01*
X0089770Y0201583D01*
X0090027Y0201583D01*
X0090027Y0201958D01*
X0090671Y0202602D01*
X0095519Y0202602D01*
X0096164Y0201958D01*
X0096164Y0196716D01*
X0095519Y0196071D01*
X0090671Y0196071D01*
X0090027Y0196716D01*
X0090027Y0197783D01*
X0089895Y0197783D01*
X0089895Y0178236D01*
X0090451Y0178791D01*
X0090027Y0179216D01*
X0090027Y0184458D01*
X0090671Y0185102D01*
X0095519Y0185102D01*
X0096164Y0184458D01*
X0096164Y0179216D01*
X0095519Y0178571D01*
X0095395Y0178571D01*
X0095395Y0177230D01*
X0093145Y0174980D01*
X0093145Y0169727D01*
X0092501Y0169083D01*
X0089895Y0169083D01*
X0089895Y0161730D01*
X0088548Y0160383D01*
X0088548Y0160383D01*
X0087395Y0159230D01*
X0087395Y0150183D01*
X0087795Y0150183D01*
X0087795Y0158636D01*
X0097295Y0168136D01*
X0097295Y0187883D01*
X0096164Y0187883D01*
X0096164Y0185909D01*
X0095519Y0185264D01*
X0090671Y0185264D01*
X0090027Y0185909D01*
X0090027Y0191151D01*
X0090671Y0191795D01*
X0091454Y0191795D01*
X0092142Y0192483D01*
X0097295Y0192483D01*
X0097295Y0229296D01*
X0094954Y0231637D01*
X0093134Y0229817D01*
X0093134Y0228247D01*
X0093223Y0228158D01*
X0093223Y0227657D01*
X0093295Y0227584D01*
X0093295Y0226176D01*
X0093223Y0226103D01*
X0093223Y0225279D01*
X0092735Y0224791D02*
X0097295Y0224791D01*
X0097295Y0223593D02*
X0089590Y0223593D01*
X0090575Y0222394D02*
X0097295Y0222394D01*
X0097295Y0221195D02*
X0090575Y0221195D01*
X0088875Y0221904D02*
X0088875Y0218648D01*
X0086975Y0216063D02*
X0086975Y0213491D01*
X0085657Y0214809D01*
X0085657Y0216063D01*
X0086316Y0216063D01*
X0086975Y0216063D01*
X0086316Y0216063D02*
X0086316Y0218648D01*
X0086316Y0218648D01*
X0086316Y0216063D01*
X0086316Y0216401D02*
X0086316Y0216401D01*
X0086316Y0217600D02*
X0086316Y0217600D01*
X0086316Y0218798D02*
X0086316Y0218798D01*
X0086316Y0219997D02*
X0086316Y0219997D01*
X0086316Y0221195D02*
X0086316Y0221195D01*
X0085280Y0221195D02*
X0077895Y0221195D01*
X0077895Y0219997D02*
X0081968Y0219997D01*
X0081857Y0218798D02*
X0077895Y0218798D01*
X0077895Y0217600D02*
X0081857Y0217600D01*
X0081857Y0216401D02*
X0077895Y0216401D01*
X0077895Y0215203D02*
X0081857Y0215203D01*
X0081857Y0214004D02*
X0077895Y0214004D01*
X0077895Y0212806D02*
X0082285Y0212806D01*
X0083484Y0211607D02*
X0077895Y0211607D01*
X0077895Y0210409D02*
X0084682Y0210409D01*
X0084681Y0209686D02*
X0084274Y0209795D01*
X0082479Y0209795D01*
X0082479Y0206414D01*
X0085664Y0206414D01*
X0085664Y0208406D01*
X0085555Y0208812D01*
X0085344Y0209177D01*
X0085046Y0209475D01*
X0084681Y0209686D01*
X0085311Y0209210D02*
X0085695Y0209210D01*
X0085664Y0208012D02*
X0085695Y0208012D01*
X0085664Y0206813D02*
X0085695Y0206813D01*
X0085664Y0205615D02*
X0085695Y0205615D01*
X0085664Y0204416D02*
X0085695Y0204416D01*
X0085695Y0203218D02*
X0085538Y0203218D01*
X0085695Y0202019D02*
X0085102Y0202019D01*
X0085164Y0197225D02*
X0085295Y0197225D01*
X0085295Y0196027D02*
X0077895Y0196027D01*
X0077895Y0197225D02*
X0079027Y0197225D01*
X0079027Y0198424D02*
X0077895Y0198424D01*
X0077895Y0199622D02*
X0079027Y0199622D01*
X0079027Y0200821D02*
X0077895Y0200821D01*
X0077895Y0202019D02*
X0079088Y0202019D01*
X0078652Y0203218D02*
X0077895Y0203218D01*
X0077895Y0204416D02*
X0078527Y0204416D01*
X0078527Y0205615D02*
X0077895Y0205615D01*
X0077895Y0206813D02*
X0078527Y0206813D01*
X0078527Y0208012D02*
X0077895Y0208012D01*
X0077895Y0209210D02*
X0078879Y0209210D01*
X0081711Y0209210D02*
X0082479Y0209210D01*
X0082479Y0208012D02*
X0081711Y0208012D01*
X0081711Y0206813D02*
X0082479Y0206813D01*
X0086461Y0214004D02*
X0086975Y0214004D01*
X0086975Y0215203D02*
X0085657Y0215203D01*
X0085980Y0222394D02*
X0077895Y0222394D01*
X0077895Y0223593D02*
X0084782Y0223593D01*
X0083757Y0224791D02*
X0083756Y0224791D01*
X0083756Y0225990D02*
X0083757Y0225990D01*
X0083756Y0226719D02*
X0081468Y0226719D01*
X0081468Y0227913D01*
X0081577Y0228320D01*
X0081787Y0228685D01*
X0082085Y0228983D01*
X0082450Y0229194D01*
X0082857Y0229303D01*
X0083756Y0229303D01*
X0083756Y0226719D01*
X0083756Y0227188D02*
X0083757Y0227188D01*
X0083756Y0228387D02*
X0083757Y0228387D01*
X0081615Y0228387D02*
X0077895Y0228387D01*
X0077895Y0229585D02*
X0086789Y0229585D01*
X0085590Y0230784D02*
X0077895Y0230784D01*
X0077895Y0231982D02*
X0084392Y0231982D01*
X0083193Y0233181D02*
X0078280Y0233181D01*
X0079478Y0234379D02*
X0081995Y0234379D01*
X0080796Y0235578D02*
X0080677Y0235578D01*
X0080595Y0238183D02*
X0088875Y0229904D01*
X0088875Y0226719D01*
X0088595Y0226998D01*
X0086316Y0226719D02*
X0086316Y0224463D01*
X0088875Y0221904D01*
X0093223Y0219997D02*
X0097295Y0219997D01*
X0097295Y0218798D02*
X0093334Y0218798D01*
X0093334Y0217600D02*
X0097295Y0217600D01*
X0097295Y0216401D02*
X0093334Y0216401D01*
X0093334Y0215203D02*
X0097295Y0215203D01*
X0097295Y0214004D02*
X0093961Y0214004D01*
X0094995Y0212806D02*
X0097295Y0212806D01*
X0097295Y0211607D02*
X0094995Y0211607D01*
X0094995Y0210409D02*
X0097295Y0210409D01*
X0097295Y0209210D02*
X0095604Y0209210D01*
X0096164Y0208012D02*
X0097295Y0208012D01*
X0097295Y0206813D02*
X0096164Y0206813D01*
X0096164Y0205615D02*
X0097295Y0205615D01*
X0097295Y0204416D02*
X0096164Y0204416D01*
X0095973Y0203218D02*
X0097295Y0203218D01*
X0097295Y0202019D02*
X0096102Y0202019D01*
X0096164Y0200821D02*
X0097295Y0200821D01*
X0097295Y0199622D02*
X0096164Y0199622D01*
X0096164Y0198424D02*
X0097295Y0198424D01*
X0097295Y0197225D02*
X0096164Y0197225D01*
X0097295Y0196027D02*
X0089895Y0196027D01*
X0089895Y0197225D02*
X0090027Y0197225D01*
X0089895Y0194828D02*
X0097295Y0194828D01*
X0097295Y0193630D02*
X0089895Y0193630D01*
X0089895Y0192431D02*
X0092091Y0192431D01*
X0090109Y0191233D02*
X0089895Y0191233D01*
X0089895Y0190034D02*
X0090027Y0190034D01*
X0090027Y0188836D02*
X0089895Y0188836D01*
X0089895Y0187637D02*
X0090027Y0187637D01*
X0090027Y0186439D02*
X0089895Y0186439D01*
X0089895Y0185240D02*
X0097295Y0185240D01*
X0097295Y0184042D02*
X0096164Y0184042D01*
X0096164Y0182843D02*
X0097295Y0182843D01*
X0097295Y0181645D02*
X0096164Y0181645D01*
X0096164Y0180446D02*
X0097295Y0180446D01*
X0097295Y0179248D02*
X0096164Y0179248D01*
X0095395Y0178049D02*
X0097295Y0178049D01*
X0097295Y0176851D02*
X0095015Y0176851D01*
X0093817Y0175652D02*
X0097295Y0175652D01*
X0097295Y0174454D02*
X0093145Y0174454D01*
X0093145Y0173255D02*
X0097295Y0173255D01*
X0097295Y0172057D02*
X0093145Y0172057D01*
X0093145Y0170858D02*
X0097295Y0170858D01*
X0097295Y0169660D02*
X0093077Y0169660D01*
X0095223Y0166064D02*
X0089895Y0166064D01*
X0089895Y0167262D02*
X0096422Y0167262D01*
X0097295Y0168461D02*
X0089895Y0168461D01*
X0089895Y0164865D02*
X0094025Y0164865D01*
X0092826Y0163667D02*
X0089895Y0163667D01*
X0089895Y0162468D02*
X0091628Y0162468D01*
X0090429Y0161270D02*
X0089435Y0161270D01*
X0089231Y0160071D02*
X0088236Y0160071D01*
X0088032Y0158873D02*
X0087395Y0158873D01*
X0087395Y0157674D02*
X0087795Y0157674D01*
X0087795Y0156476D02*
X0087395Y0156476D01*
X0087395Y0155277D02*
X0087795Y0155277D01*
X0087795Y0154079D02*
X0087395Y0154079D01*
X0087395Y0152880D02*
X0087795Y0152880D01*
X0087795Y0151682D02*
X0087395Y0151682D01*
X0087395Y0150483D02*
X0087795Y0150483D01*
X0082795Y0150483D02*
X0075565Y0150483D01*
X0075114Y0151682D02*
X0082795Y0151682D01*
X0082795Y0152880D02*
X0074663Y0152880D01*
X0074212Y0154079D02*
X0082795Y0154079D01*
X0082795Y0155277D02*
X0073761Y0155277D01*
X0073310Y0156476D02*
X0082795Y0156476D01*
X0082795Y0157674D02*
X0072859Y0157674D01*
X0072408Y0158873D02*
X0082795Y0158873D01*
X0082795Y0160071D02*
X0071957Y0160071D01*
X0071687Y0160788D02*
X0071687Y0160788D01*
X0071436Y0161270D02*
X0082929Y0161270D01*
X0084128Y0162468D02*
X0070812Y0162468D01*
X0070188Y0163667D02*
X0085295Y0163667D01*
X0085295Y0164865D02*
X0077014Y0164865D01*
X0078037Y0166064D02*
X0085295Y0166064D01*
X0085295Y0167262D02*
X0078279Y0167262D01*
X0077971Y0168461D02*
X0085295Y0168461D01*
X0084142Y0162483D02*
X0084142Y0162483D01*
X0082113Y0169660D02*
X0077895Y0169660D01*
X0077895Y0170858D02*
X0082045Y0170858D01*
X0082045Y0172057D02*
X0077895Y0172057D01*
X0077895Y0173255D02*
X0082045Y0173255D01*
X0082045Y0174454D02*
X0077895Y0174454D01*
X0077895Y0175652D02*
X0081373Y0175652D01*
X0080175Y0176851D02*
X0077895Y0176851D01*
X0077895Y0178049D02*
X0079795Y0178049D01*
X0079027Y0179248D02*
X0077895Y0179248D01*
X0077895Y0180446D02*
X0079027Y0180446D01*
X0079027Y0181645D02*
X0077895Y0181645D01*
X0077895Y0182843D02*
X0079027Y0182843D01*
X0079027Y0184042D02*
X0077895Y0184042D01*
X0077895Y0185240D02*
X0085295Y0185240D01*
X0085295Y0184042D02*
X0085164Y0184042D01*
X0085164Y0182843D02*
X0085295Y0182843D01*
X0085295Y0181645D02*
X0085164Y0181645D01*
X0085164Y0180446D02*
X0085295Y0180446D01*
X0085295Y0179248D02*
X0085164Y0179248D01*
X0085164Y0186439D02*
X0085295Y0186439D01*
X0085295Y0187637D02*
X0085164Y0187637D01*
X0085164Y0188836D02*
X0085295Y0188836D01*
X0085295Y0190034D02*
X0085164Y0190034D01*
X0085081Y0191233D02*
X0085295Y0191233D01*
X0085295Y0192431D02*
X0083100Y0192431D01*
X0085295Y0193630D02*
X0077895Y0193630D01*
X0077895Y0194828D02*
X0085295Y0194828D01*
X0089495Y0202019D02*
X0090088Y0202019D01*
X0090217Y0203218D02*
X0089495Y0203218D01*
X0089495Y0204416D02*
X0090027Y0204416D01*
X0090027Y0205615D02*
X0089495Y0205615D01*
X0089495Y0206813D02*
X0090027Y0206813D01*
X0090027Y0208012D02*
X0089495Y0208012D01*
X0089495Y0209210D02*
X0090587Y0209210D01*
X0090508Y0210409D02*
X0091195Y0210409D01*
X0090984Y0211607D02*
X0090775Y0211607D01*
X0093223Y0225990D02*
X0097295Y0225990D01*
X0097295Y0227188D02*
X0093295Y0227188D01*
X0093134Y0228387D02*
X0097295Y0228387D01*
X0097006Y0229585D02*
X0093134Y0229585D01*
X0094100Y0230784D02*
X0095808Y0230784D01*
X0093395Y0235578D02*
X0085605Y0235578D01*
X0084406Y0236776D02*
X0093395Y0236776D01*
X0093395Y0237975D02*
X0083208Y0237975D01*
X0082295Y0239173D02*
X0092701Y0239173D01*
X0092887Y0234379D02*
X0086803Y0234379D01*
X0088002Y0233181D02*
X0091689Y0233181D01*
X0090490Y0231982D02*
X0089200Y0231982D01*
X0089050Y0240372D02*
X0086233Y0240372D01*
X0086638Y0241570D02*
X0088645Y0241570D01*
X0088199Y0242769D02*
X0086638Y0242769D01*
X0086638Y0243967D02*
X0088145Y0243967D01*
X0088488Y0245166D02*
X0086638Y0245166D01*
X0086638Y0246364D02*
X0088645Y0246364D01*
X0088168Y0251302D02*
X0087022Y0251302D01*
X0085963Y0251741D01*
X0085153Y0252551D01*
X0084714Y0253610D01*
X0084714Y0254756D01*
X0085153Y0255815D01*
X0085963Y0256626D01*
X0087022Y0257064D01*
X0088168Y0257064D01*
X0089227Y0256626D01*
X0089370Y0256483D01*
X0092027Y0256483D01*
X0092027Y0257458D01*
X0092467Y0257898D01*
X0092144Y0258084D01*
X0091846Y0258382D01*
X0091636Y0258747D01*
X0091527Y0259154D01*
X0091527Y0261145D01*
X0094711Y0261145D01*
X0094711Y0261914D01*
X0094711Y0265295D01*
X0092916Y0265295D01*
X0092509Y0265186D01*
X0092144Y0264975D01*
X0091846Y0264677D01*
X0091636Y0264312D01*
X0091527Y0263906D01*
X0091527Y0261914D01*
X0094711Y0261914D01*
X0095479Y0261914D01*
X0095479Y0265295D01*
X0097274Y0265295D01*
X0097681Y0265186D01*
X0098046Y0264975D01*
X0098344Y0264677D01*
X0098555Y0264312D01*
X0098664Y0263906D01*
X0098664Y0261914D01*
X0095479Y0261914D01*
X0095479Y0261145D01*
X0098664Y0261145D01*
X0098664Y0259154D01*
X0098555Y0258747D01*
X0098344Y0258382D01*
X0098046Y0258084D01*
X0097724Y0257898D01*
X0098164Y0257458D01*
X0098164Y0252216D01*
X0097519Y0251571D01*
X0092671Y0251571D01*
X0092359Y0251883D01*
X0089370Y0251883D01*
X0089227Y0251741D01*
X0088168Y0251302D01*
X0085347Y0252357D02*
X0083164Y0252357D01*
X0083164Y0253555D02*
X0084737Y0253555D01*
X0084714Y0254754D02*
X0083164Y0254754D01*
X0083164Y0255952D02*
X0085290Y0255952D01*
X0082970Y0257151D02*
X0092027Y0257151D01*
X0091879Y0258349D02*
X0083582Y0258349D01*
X0083664Y0259548D02*
X0091527Y0259548D01*
X0091527Y0260746D02*
X0080479Y0260746D01*
X0080479Y0261414D02*
X0083664Y0261414D01*
X0083664Y0263406D01*
X0083555Y0263812D01*
X0083344Y0264177D01*
X0083046Y0264475D01*
X0082681Y0264686D01*
X0082274Y0264795D01*
X0080479Y0264795D01*
X0080479Y0261414D01*
X0080479Y0261945D02*
X0079711Y0261945D01*
X0079711Y0263143D02*
X0080479Y0263143D01*
X0080479Y0264342D02*
X0079711Y0264342D01*
X0077690Y0265540D02*
X0097501Y0265540D01*
X0098538Y0264342D02*
X0099237Y0264342D01*
X0098664Y0263143D02*
X0100516Y0263143D01*
X0101578Y0261945D02*
X0098664Y0261945D01*
X0098664Y0260746D02*
X0102640Y0260746D01*
X0103309Y0259548D02*
X0098664Y0259548D01*
X0098312Y0258349D02*
X0103938Y0258349D01*
X0104567Y0257151D02*
X0098164Y0257151D01*
X0098164Y0255952D02*
X0104986Y0255952D01*
X0105281Y0254754D02*
X0098164Y0254754D01*
X0098164Y0253555D02*
X0105576Y0253555D01*
X0105864Y0252357D02*
X0098164Y0252357D01*
X0095479Y0261945D02*
X0094711Y0261945D01*
X0094711Y0263143D02*
X0095479Y0263143D01*
X0095479Y0264342D02*
X0094711Y0264342D01*
X0095451Y0266739D02*
X0079739Y0266739D01*
X0077011Y0264342D02*
X0075953Y0264342D01*
X0076527Y0263143D02*
X0074674Y0263143D01*
X0073612Y0261945D02*
X0076527Y0261945D01*
X0076527Y0259548D02*
X0071881Y0259548D01*
X0071252Y0258349D02*
X0076608Y0258349D01*
X0077220Y0257151D02*
X0070623Y0257151D01*
X0070205Y0255952D02*
X0077027Y0255952D01*
X0077027Y0254754D02*
X0069909Y0254754D01*
X0069614Y0253555D02*
X0077027Y0253555D01*
X0077027Y0252357D02*
X0069327Y0252357D01*
X0069254Y0251158D02*
X0077584Y0251158D01*
X0078395Y0249960D02*
X0069195Y0249960D01*
X0069195Y0248761D02*
X0078395Y0248761D01*
X0078395Y0247563D02*
X0069195Y0247563D01*
X0069195Y0246364D02*
X0077054Y0246364D01*
X0078137Y0246364D02*
X0079010Y0246364D01*
X0080095Y0247683D02*
X0080095Y0254337D01*
X0082606Y0251158D02*
X0105936Y0251158D01*
X0105995Y0249960D02*
X0081795Y0249960D01*
X0081795Y0248761D02*
X0105995Y0248761D01*
X0105995Y0247563D02*
X0082620Y0247563D01*
X0082095Y0245683D02*
X0080095Y0247683D01*
X0082095Y0245683D02*
X0084530Y0245683D01*
X0084538Y0245675D01*
X0084525Y0243683D02*
X0077595Y0243683D01*
X0079278Y0241570D02*
X0079578Y0241570D01*
X0078895Y0240372D02*
X0069195Y0240372D01*
X0069195Y0241570D02*
X0075912Y0241570D01*
X0075068Y0242769D02*
X0069195Y0242769D01*
X0069195Y0243967D02*
X0074911Y0243967D01*
X0075304Y0245166D02*
X0069195Y0245166D01*
X0069195Y0239173D02*
X0078895Y0239173D01*
X0077700Y0237975D02*
X0069195Y0237975D01*
X0069195Y0236776D02*
X0076501Y0236776D01*
X0075303Y0235578D02*
X0069195Y0235578D01*
X0069195Y0234379D02*
X0073539Y0234379D01*
X0073295Y0233181D02*
X0069195Y0233181D01*
X0069195Y0231982D02*
X0073295Y0231982D01*
X0073295Y0230784D02*
X0069195Y0230784D01*
X0069195Y0229585D02*
X0073295Y0229585D01*
X0073295Y0228387D02*
X0069195Y0228387D01*
X0069195Y0227188D02*
X0073295Y0227188D01*
X0073295Y0225990D02*
X0069195Y0225990D01*
X0069195Y0224791D02*
X0073295Y0224791D01*
X0073295Y0223593D02*
X0069195Y0223593D01*
X0069195Y0222394D02*
X0073295Y0222394D01*
X0073295Y0221195D02*
X0069195Y0221195D01*
X0069195Y0219997D02*
X0073295Y0219997D01*
X0073295Y0218798D02*
X0069195Y0218798D01*
X0069195Y0217600D02*
X0073295Y0217600D01*
X0073295Y0216401D02*
X0069195Y0216401D01*
X0069195Y0215203D02*
X0073295Y0215203D01*
X0073295Y0214004D02*
X0069195Y0214004D01*
X0069195Y0212806D02*
X0073295Y0212806D01*
X0073295Y0211607D02*
X0069195Y0211607D01*
X0069195Y0210409D02*
X0073295Y0210409D01*
X0073295Y0209210D02*
X0069195Y0209210D01*
X0069195Y0208012D02*
X0073295Y0208012D01*
X0073295Y0206813D02*
X0069195Y0206813D01*
X0069195Y0205615D02*
X0073295Y0205615D01*
X0073295Y0204416D02*
X0069195Y0204416D01*
X0069195Y0203218D02*
X0073295Y0203218D01*
X0073295Y0202019D02*
X0069195Y0202019D01*
X0069195Y0200821D02*
X0073295Y0200821D01*
X0073295Y0199622D02*
X0069195Y0199622D01*
X0069195Y0198424D02*
X0073295Y0198424D01*
X0073295Y0197225D02*
X0069195Y0197225D01*
X0069195Y0196027D02*
X0073295Y0196027D01*
X0073295Y0194828D02*
X0069195Y0194828D01*
X0069195Y0193630D02*
X0073295Y0193630D01*
X0073295Y0192431D02*
X0069195Y0192431D01*
X0069195Y0191233D02*
X0073295Y0191233D01*
X0073295Y0190034D02*
X0069195Y0190034D01*
X0069195Y0188836D02*
X0073295Y0188836D01*
X0073295Y0187637D02*
X0069195Y0187637D01*
X0069195Y0186439D02*
X0073295Y0186439D01*
X0073295Y0185240D02*
X0069195Y0185240D01*
X0069195Y0184042D02*
X0073295Y0184042D01*
X0073295Y0182843D02*
X0069195Y0182843D01*
X0069195Y0181645D02*
X0073295Y0181645D01*
X0073295Y0180446D02*
X0069195Y0180446D01*
X0069195Y0179248D02*
X0073295Y0179248D01*
X0073295Y0178049D02*
X0069195Y0178049D01*
X0069195Y0176851D02*
X0073295Y0176851D01*
X0073295Y0175652D02*
X0069195Y0175652D01*
X0069195Y0174454D02*
X0073295Y0174454D01*
X0073295Y0173255D02*
X0069195Y0173255D01*
X0069195Y0172057D02*
X0073295Y0172057D01*
X0073295Y0170858D02*
X0069195Y0170858D01*
X0069195Y0169660D02*
X0073295Y0169660D01*
X0073219Y0168461D02*
X0069195Y0168461D01*
X0069195Y0167262D02*
X0072911Y0167262D01*
X0073153Y0166064D02*
X0069195Y0166064D01*
X0069564Y0164865D02*
X0074176Y0164865D01*
X0077895Y0186439D02*
X0079027Y0186439D01*
X0079027Y0187637D02*
X0077895Y0187637D01*
X0089895Y0184042D02*
X0090027Y0184042D01*
X0090027Y0182843D02*
X0089895Y0182843D01*
X0089895Y0181645D02*
X0090027Y0181645D01*
X0090027Y0180446D02*
X0089895Y0180446D01*
X0089895Y0179248D02*
X0090027Y0179248D01*
X0096164Y0186439D02*
X0097295Y0186439D01*
X0097295Y0187637D02*
X0096164Y0187637D01*
X0081765Y0224791D02*
X0077895Y0224791D01*
X0077895Y0225990D02*
X0081468Y0225990D01*
X0081468Y0227188D02*
X0077895Y0227188D01*
X0080595Y0238183D02*
X0080595Y0240183D01*
X0082135Y0241723D01*
X0084538Y0241723D01*
X0084538Y0243670D02*
X0084525Y0243683D01*
X0079711Y0260746D02*
X0072550Y0260746D01*
X0083664Y0261945D02*
X0091527Y0261945D01*
X0091527Y0263143D02*
X0083664Y0263143D01*
X0083179Y0264342D02*
X0091653Y0264342D01*
X0092291Y0267937D02*
X0082899Y0267937D01*
D18*
X0057595Y0061433D03*
X0057595Y0048933D03*
X0117595Y0048933D03*
X0117595Y0061433D03*
D19*
X0117595Y0048933D02*
X0103845Y0048933D01*
X0102595Y0050183D01*
X0102595Y0065183D01*
X0090095Y0077683D01*
X0090095Y0157683D01*
X0099595Y0167183D01*
X0099595Y0190183D01*
X0093095Y0190183D01*
X0093095Y0188530D01*
X0093095Y0181837D02*
X0093095Y0178183D01*
X0090795Y0175883D01*
X0090795Y0172683D01*
X0087595Y0172683D02*
X0087595Y0199683D01*
X0082095Y0190183D02*
X0075595Y0190183D01*
X0075595Y0233183D01*
X0087595Y0254183D02*
X0095095Y0254183D01*
X0095095Y0254837D01*
X0099595Y0229683D02*
X0099595Y0190183D01*
X0087595Y0172683D02*
X0087595Y0162683D01*
X0085095Y0160183D01*
X0085095Y0063933D01*
X0082595Y0061433D01*
X0082595Y0050183D01*
X0082595Y0061433D02*
X0057595Y0061433D01*
X0092595Y0061433D02*
X0092595Y0050183D01*
X0075595Y0167183D02*
X0075595Y0190183D01*
X0082095Y0190183D02*
X0082095Y0188530D01*
X0082095Y0181837D02*
X0082095Y0178183D01*
X0084395Y0175883D01*
X0084395Y0172683D01*
D20*
X0082095Y0199337D02*
X0082442Y0199683D01*
X0087595Y0199683D01*
X0092749Y0199683D01*
X0093095Y0199337D01*
X0093095Y0206030D02*
X0093095Y0212183D01*
X0091434Y0213844D01*
X0091434Y0218648D01*
X0088875Y0218648D02*
X0088875Y0211463D01*
X0087595Y0210183D01*
X0083757Y0214022D01*
X0083757Y0218648D01*
X0087595Y0210183D02*
X0087595Y0199683D01*
X0099595Y0229683D02*
X0095095Y0234183D01*
X0080595Y0238183D02*
X0075595Y0233183D01*
D21*
X0092595Y0061433D03*
D22*
X0087595Y0199683D03*
X0087595Y0254183D03*
M02*
