G75*
%MOIN*%
%OFA0B0*%
%FSLAX25Y25*%
%IPPOS*%
%LPD*%
%AMOC8*
5,1,8,0,0,1.08239X$1,22.5*
%
%ADD10C,0.00000*%
D10*
X0062200Y0017200D02*
X0342200Y0017200D01*
X0195901Y0047200D02*
X0195903Y0047358D01*
X0195909Y0047516D01*
X0195919Y0047674D01*
X0195933Y0047832D01*
X0195951Y0047989D01*
X0195972Y0048146D01*
X0195998Y0048302D01*
X0196028Y0048458D01*
X0196061Y0048613D01*
X0196099Y0048766D01*
X0196140Y0048919D01*
X0196185Y0049071D01*
X0196234Y0049222D01*
X0196287Y0049371D01*
X0196343Y0049519D01*
X0196403Y0049665D01*
X0196467Y0049810D01*
X0196535Y0049953D01*
X0196606Y0050095D01*
X0196680Y0050235D01*
X0196758Y0050372D01*
X0196840Y0050508D01*
X0196924Y0050642D01*
X0197013Y0050773D01*
X0197104Y0050902D01*
X0197199Y0051029D01*
X0197296Y0051154D01*
X0197397Y0051276D01*
X0197501Y0051395D01*
X0197608Y0051512D01*
X0197718Y0051626D01*
X0197831Y0051737D01*
X0197946Y0051846D01*
X0198064Y0051951D01*
X0198185Y0052053D01*
X0198308Y0052153D01*
X0198434Y0052249D01*
X0198562Y0052342D01*
X0198692Y0052432D01*
X0198825Y0052518D01*
X0198960Y0052602D01*
X0199096Y0052681D01*
X0199235Y0052758D01*
X0199376Y0052830D01*
X0199518Y0052900D01*
X0199662Y0052965D01*
X0199808Y0053027D01*
X0199955Y0053085D01*
X0200104Y0053140D01*
X0200254Y0053191D01*
X0200405Y0053238D01*
X0200557Y0053281D01*
X0200710Y0053320D01*
X0200865Y0053356D01*
X0201020Y0053387D01*
X0201176Y0053415D01*
X0201332Y0053439D01*
X0201489Y0053459D01*
X0201647Y0053475D01*
X0201804Y0053487D01*
X0201963Y0053495D01*
X0202121Y0053499D01*
X0202279Y0053499D01*
X0202437Y0053495D01*
X0202596Y0053487D01*
X0202753Y0053475D01*
X0202911Y0053459D01*
X0203068Y0053439D01*
X0203224Y0053415D01*
X0203380Y0053387D01*
X0203535Y0053356D01*
X0203690Y0053320D01*
X0203843Y0053281D01*
X0203995Y0053238D01*
X0204146Y0053191D01*
X0204296Y0053140D01*
X0204445Y0053085D01*
X0204592Y0053027D01*
X0204738Y0052965D01*
X0204882Y0052900D01*
X0205024Y0052830D01*
X0205165Y0052758D01*
X0205304Y0052681D01*
X0205440Y0052602D01*
X0205575Y0052518D01*
X0205708Y0052432D01*
X0205838Y0052342D01*
X0205966Y0052249D01*
X0206092Y0052153D01*
X0206215Y0052053D01*
X0206336Y0051951D01*
X0206454Y0051846D01*
X0206569Y0051737D01*
X0206682Y0051626D01*
X0206792Y0051512D01*
X0206899Y0051395D01*
X0207003Y0051276D01*
X0207104Y0051154D01*
X0207201Y0051029D01*
X0207296Y0050902D01*
X0207387Y0050773D01*
X0207476Y0050642D01*
X0207560Y0050508D01*
X0207642Y0050372D01*
X0207720Y0050235D01*
X0207794Y0050095D01*
X0207865Y0049953D01*
X0207933Y0049810D01*
X0207997Y0049665D01*
X0208057Y0049519D01*
X0208113Y0049371D01*
X0208166Y0049222D01*
X0208215Y0049071D01*
X0208260Y0048919D01*
X0208301Y0048766D01*
X0208339Y0048613D01*
X0208372Y0048458D01*
X0208402Y0048302D01*
X0208428Y0048146D01*
X0208449Y0047989D01*
X0208467Y0047832D01*
X0208481Y0047674D01*
X0208491Y0047516D01*
X0208497Y0047358D01*
X0208499Y0047200D01*
X0208497Y0047042D01*
X0208491Y0046884D01*
X0208481Y0046726D01*
X0208467Y0046568D01*
X0208449Y0046411D01*
X0208428Y0046254D01*
X0208402Y0046098D01*
X0208372Y0045942D01*
X0208339Y0045787D01*
X0208301Y0045634D01*
X0208260Y0045481D01*
X0208215Y0045329D01*
X0208166Y0045178D01*
X0208113Y0045029D01*
X0208057Y0044881D01*
X0207997Y0044735D01*
X0207933Y0044590D01*
X0207865Y0044447D01*
X0207794Y0044305D01*
X0207720Y0044165D01*
X0207642Y0044028D01*
X0207560Y0043892D01*
X0207476Y0043758D01*
X0207387Y0043627D01*
X0207296Y0043498D01*
X0207201Y0043371D01*
X0207104Y0043246D01*
X0207003Y0043124D01*
X0206899Y0043005D01*
X0206792Y0042888D01*
X0206682Y0042774D01*
X0206569Y0042663D01*
X0206454Y0042554D01*
X0206336Y0042449D01*
X0206215Y0042347D01*
X0206092Y0042247D01*
X0205966Y0042151D01*
X0205838Y0042058D01*
X0205708Y0041968D01*
X0205575Y0041882D01*
X0205440Y0041798D01*
X0205304Y0041719D01*
X0205165Y0041642D01*
X0205024Y0041570D01*
X0204882Y0041500D01*
X0204738Y0041435D01*
X0204592Y0041373D01*
X0204445Y0041315D01*
X0204296Y0041260D01*
X0204146Y0041209D01*
X0203995Y0041162D01*
X0203843Y0041119D01*
X0203690Y0041080D01*
X0203535Y0041044D01*
X0203380Y0041013D01*
X0203224Y0040985D01*
X0203068Y0040961D01*
X0202911Y0040941D01*
X0202753Y0040925D01*
X0202596Y0040913D01*
X0202437Y0040905D01*
X0202279Y0040901D01*
X0202121Y0040901D01*
X0201963Y0040905D01*
X0201804Y0040913D01*
X0201647Y0040925D01*
X0201489Y0040941D01*
X0201332Y0040961D01*
X0201176Y0040985D01*
X0201020Y0041013D01*
X0200865Y0041044D01*
X0200710Y0041080D01*
X0200557Y0041119D01*
X0200405Y0041162D01*
X0200254Y0041209D01*
X0200104Y0041260D01*
X0199955Y0041315D01*
X0199808Y0041373D01*
X0199662Y0041435D01*
X0199518Y0041500D01*
X0199376Y0041570D01*
X0199235Y0041642D01*
X0199096Y0041719D01*
X0198960Y0041798D01*
X0198825Y0041882D01*
X0198692Y0041968D01*
X0198562Y0042058D01*
X0198434Y0042151D01*
X0198308Y0042247D01*
X0198185Y0042347D01*
X0198064Y0042449D01*
X0197946Y0042554D01*
X0197831Y0042663D01*
X0197718Y0042774D01*
X0197608Y0042888D01*
X0197501Y0043005D01*
X0197397Y0043124D01*
X0197296Y0043246D01*
X0197199Y0043371D01*
X0197104Y0043498D01*
X0197013Y0043627D01*
X0196924Y0043758D01*
X0196840Y0043892D01*
X0196758Y0044028D01*
X0196680Y0044165D01*
X0196606Y0044305D01*
X0196535Y0044447D01*
X0196467Y0044590D01*
X0196403Y0044735D01*
X0196343Y0044881D01*
X0196287Y0045029D01*
X0196234Y0045178D01*
X0196185Y0045329D01*
X0196140Y0045481D01*
X0196099Y0045634D01*
X0196061Y0045787D01*
X0196028Y0045942D01*
X0195998Y0046098D01*
X0195972Y0046254D01*
X0195951Y0046411D01*
X0195933Y0046568D01*
X0195919Y0046726D01*
X0195909Y0046884D01*
X0195903Y0047042D01*
X0195901Y0047200D01*
X0130901Y0037200D02*
X0130903Y0037358D01*
X0130909Y0037516D01*
X0130919Y0037674D01*
X0130933Y0037832D01*
X0130951Y0037989D01*
X0130972Y0038146D01*
X0130998Y0038302D01*
X0131028Y0038458D01*
X0131061Y0038613D01*
X0131099Y0038766D01*
X0131140Y0038919D01*
X0131185Y0039071D01*
X0131234Y0039222D01*
X0131287Y0039371D01*
X0131343Y0039519D01*
X0131403Y0039665D01*
X0131467Y0039810D01*
X0131535Y0039953D01*
X0131606Y0040095D01*
X0131680Y0040235D01*
X0131758Y0040372D01*
X0131840Y0040508D01*
X0131924Y0040642D01*
X0132013Y0040773D01*
X0132104Y0040902D01*
X0132199Y0041029D01*
X0132296Y0041154D01*
X0132397Y0041276D01*
X0132501Y0041395D01*
X0132608Y0041512D01*
X0132718Y0041626D01*
X0132831Y0041737D01*
X0132946Y0041846D01*
X0133064Y0041951D01*
X0133185Y0042053D01*
X0133308Y0042153D01*
X0133434Y0042249D01*
X0133562Y0042342D01*
X0133692Y0042432D01*
X0133825Y0042518D01*
X0133960Y0042602D01*
X0134096Y0042681D01*
X0134235Y0042758D01*
X0134376Y0042830D01*
X0134518Y0042900D01*
X0134662Y0042965D01*
X0134808Y0043027D01*
X0134955Y0043085D01*
X0135104Y0043140D01*
X0135254Y0043191D01*
X0135405Y0043238D01*
X0135557Y0043281D01*
X0135710Y0043320D01*
X0135865Y0043356D01*
X0136020Y0043387D01*
X0136176Y0043415D01*
X0136332Y0043439D01*
X0136489Y0043459D01*
X0136647Y0043475D01*
X0136804Y0043487D01*
X0136963Y0043495D01*
X0137121Y0043499D01*
X0137279Y0043499D01*
X0137437Y0043495D01*
X0137596Y0043487D01*
X0137753Y0043475D01*
X0137911Y0043459D01*
X0138068Y0043439D01*
X0138224Y0043415D01*
X0138380Y0043387D01*
X0138535Y0043356D01*
X0138690Y0043320D01*
X0138843Y0043281D01*
X0138995Y0043238D01*
X0139146Y0043191D01*
X0139296Y0043140D01*
X0139445Y0043085D01*
X0139592Y0043027D01*
X0139738Y0042965D01*
X0139882Y0042900D01*
X0140024Y0042830D01*
X0140165Y0042758D01*
X0140304Y0042681D01*
X0140440Y0042602D01*
X0140575Y0042518D01*
X0140708Y0042432D01*
X0140838Y0042342D01*
X0140966Y0042249D01*
X0141092Y0042153D01*
X0141215Y0042053D01*
X0141336Y0041951D01*
X0141454Y0041846D01*
X0141569Y0041737D01*
X0141682Y0041626D01*
X0141792Y0041512D01*
X0141899Y0041395D01*
X0142003Y0041276D01*
X0142104Y0041154D01*
X0142201Y0041029D01*
X0142296Y0040902D01*
X0142387Y0040773D01*
X0142476Y0040642D01*
X0142560Y0040508D01*
X0142642Y0040372D01*
X0142720Y0040235D01*
X0142794Y0040095D01*
X0142865Y0039953D01*
X0142933Y0039810D01*
X0142997Y0039665D01*
X0143057Y0039519D01*
X0143113Y0039371D01*
X0143166Y0039222D01*
X0143215Y0039071D01*
X0143260Y0038919D01*
X0143301Y0038766D01*
X0143339Y0038613D01*
X0143372Y0038458D01*
X0143402Y0038302D01*
X0143428Y0038146D01*
X0143449Y0037989D01*
X0143467Y0037832D01*
X0143481Y0037674D01*
X0143491Y0037516D01*
X0143497Y0037358D01*
X0143499Y0037200D01*
X0143497Y0037042D01*
X0143491Y0036884D01*
X0143481Y0036726D01*
X0143467Y0036568D01*
X0143449Y0036411D01*
X0143428Y0036254D01*
X0143402Y0036098D01*
X0143372Y0035942D01*
X0143339Y0035787D01*
X0143301Y0035634D01*
X0143260Y0035481D01*
X0143215Y0035329D01*
X0143166Y0035178D01*
X0143113Y0035029D01*
X0143057Y0034881D01*
X0142997Y0034735D01*
X0142933Y0034590D01*
X0142865Y0034447D01*
X0142794Y0034305D01*
X0142720Y0034165D01*
X0142642Y0034028D01*
X0142560Y0033892D01*
X0142476Y0033758D01*
X0142387Y0033627D01*
X0142296Y0033498D01*
X0142201Y0033371D01*
X0142104Y0033246D01*
X0142003Y0033124D01*
X0141899Y0033005D01*
X0141792Y0032888D01*
X0141682Y0032774D01*
X0141569Y0032663D01*
X0141454Y0032554D01*
X0141336Y0032449D01*
X0141215Y0032347D01*
X0141092Y0032247D01*
X0140966Y0032151D01*
X0140838Y0032058D01*
X0140708Y0031968D01*
X0140575Y0031882D01*
X0140440Y0031798D01*
X0140304Y0031719D01*
X0140165Y0031642D01*
X0140024Y0031570D01*
X0139882Y0031500D01*
X0139738Y0031435D01*
X0139592Y0031373D01*
X0139445Y0031315D01*
X0139296Y0031260D01*
X0139146Y0031209D01*
X0138995Y0031162D01*
X0138843Y0031119D01*
X0138690Y0031080D01*
X0138535Y0031044D01*
X0138380Y0031013D01*
X0138224Y0030985D01*
X0138068Y0030961D01*
X0137911Y0030941D01*
X0137753Y0030925D01*
X0137596Y0030913D01*
X0137437Y0030905D01*
X0137279Y0030901D01*
X0137121Y0030901D01*
X0136963Y0030905D01*
X0136804Y0030913D01*
X0136647Y0030925D01*
X0136489Y0030941D01*
X0136332Y0030961D01*
X0136176Y0030985D01*
X0136020Y0031013D01*
X0135865Y0031044D01*
X0135710Y0031080D01*
X0135557Y0031119D01*
X0135405Y0031162D01*
X0135254Y0031209D01*
X0135104Y0031260D01*
X0134955Y0031315D01*
X0134808Y0031373D01*
X0134662Y0031435D01*
X0134518Y0031500D01*
X0134376Y0031570D01*
X0134235Y0031642D01*
X0134096Y0031719D01*
X0133960Y0031798D01*
X0133825Y0031882D01*
X0133692Y0031968D01*
X0133562Y0032058D01*
X0133434Y0032151D01*
X0133308Y0032247D01*
X0133185Y0032347D01*
X0133064Y0032449D01*
X0132946Y0032554D01*
X0132831Y0032663D01*
X0132718Y0032774D01*
X0132608Y0032888D01*
X0132501Y0033005D01*
X0132397Y0033124D01*
X0132296Y0033246D01*
X0132199Y0033371D01*
X0132104Y0033498D01*
X0132013Y0033627D01*
X0131924Y0033758D01*
X0131840Y0033892D01*
X0131758Y0034028D01*
X0131680Y0034165D01*
X0131606Y0034305D01*
X0131535Y0034447D01*
X0131467Y0034590D01*
X0131403Y0034735D01*
X0131343Y0034881D01*
X0131287Y0035029D01*
X0131234Y0035178D01*
X0131185Y0035329D01*
X0131140Y0035481D01*
X0131099Y0035634D01*
X0131061Y0035787D01*
X0131028Y0035942D01*
X0130998Y0036098D01*
X0130972Y0036254D01*
X0130951Y0036411D01*
X0130933Y0036568D01*
X0130919Y0036726D01*
X0130909Y0036884D01*
X0130903Y0037042D01*
X0130901Y0037200D01*
X0110901Y0057200D02*
X0110903Y0057358D01*
X0110909Y0057516D01*
X0110919Y0057674D01*
X0110933Y0057832D01*
X0110951Y0057989D01*
X0110972Y0058146D01*
X0110998Y0058302D01*
X0111028Y0058458D01*
X0111061Y0058613D01*
X0111099Y0058766D01*
X0111140Y0058919D01*
X0111185Y0059071D01*
X0111234Y0059222D01*
X0111287Y0059371D01*
X0111343Y0059519D01*
X0111403Y0059665D01*
X0111467Y0059810D01*
X0111535Y0059953D01*
X0111606Y0060095D01*
X0111680Y0060235D01*
X0111758Y0060372D01*
X0111840Y0060508D01*
X0111924Y0060642D01*
X0112013Y0060773D01*
X0112104Y0060902D01*
X0112199Y0061029D01*
X0112296Y0061154D01*
X0112397Y0061276D01*
X0112501Y0061395D01*
X0112608Y0061512D01*
X0112718Y0061626D01*
X0112831Y0061737D01*
X0112946Y0061846D01*
X0113064Y0061951D01*
X0113185Y0062053D01*
X0113308Y0062153D01*
X0113434Y0062249D01*
X0113562Y0062342D01*
X0113692Y0062432D01*
X0113825Y0062518D01*
X0113960Y0062602D01*
X0114096Y0062681D01*
X0114235Y0062758D01*
X0114376Y0062830D01*
X0114518Y0062900D01*
X0114662Y0062965D01*
X0114808Y0063027D01*
X0114955Y0063085D01*
X0115104Y0063140D01*
X0115254Y0063191D01*
X0115405Y0063238D01*
X0115557Y0063281D01*
X0115710Y0063320D01*
X0115865Y0063356D01*
X0116020Y0063387D01*
X0116176Y0063415D01*
X0116332Y0063439D01*
X0116489Y0063459D01*
X0116647Y0063475D01*
X0116804Y0063487D01*
X0116963Y0063495D01*
X0117121Y0063499D01*
X0117279Y0063499D01*
X0117437Y0063495D01*
X0117596Y0063487D01*
X0117753Y0063475D01*
X0117911Y0063459D01*
X0118068Y0063439D01*
X0118224Y0063415D01*
X0118380Y0063387D01*
X0118535Y0063356D01*
X0118690Y0063320D01*
X0118843Y0063281D01*
X0118995Y0063238D01*
X0119146Y0063191D01*
X0119296Y0063140D01*
X0119445Y0063085D01*
X0119592Y0063027D01*
X0119738Y0062965D01*
X0119882Y0062900D01*
X0120024Y0062830D01*
X0120165Y0062758D01*
X0120304Y0062681D01*
X0120440Y0062602D01*
X0120575Y0062518D01*
X0120708Y0062432D01*
X0120838Y0062342D01*
X0120966Y0062249D01*
X0121092Y0062153D01*
X0121215Y0062053D01*
X0121336Y0061951D01*
X0121454Y0061846D01*
X0121569Y0061737D01*
X0121682Y0061626D01*
X0121792Y0061512D01*
X0121899Y0061395D01*
X0122003Y0061276D01*
X0122104Y0061154D01*
X0122201Y0061029D01*
X0122296Y0060902D01*
X0122387Y0060773D01*
X0122476Y0060642D01*
X0122560Y0060508D01*
X0122642Y0060372D01*
X0122720Y0060235D01*
X0122794Y0060095D01*
X0122865Y0059953D01*
X0122933Y0059810D01*
X0122997Y0059665D01*
X0123057Y0059519D01*
X0123113Y0059371D01*
X0123166Y0059222D01*
X0123215Y0059071D01*
X0123260Y0058919D01*
X0123301Y0058766D01*
X0123339Y0058613D01*
X0123372Y0058458D01*
X0123402Y0058302D01*
X0123428Y0058146D01*
X0123449Y0057989D01*
X0123467Y0057832D01*
X0123481Y0057674D01*
X0123491Y0057516D01*
X0123497Y0057358D01*
X0123499Y0057200D01*
X0123497Y0057042D01*
X0123491Y0056884D01*
X0123481Y0056726D01*
X0123467Y0056568D01*
X0123449Y0056411D01*
X0123428Y0056254D01*
X0123402Y0056098D01*
X0123372Y0055942D01*
X0123339Y0055787D01*
X0123301Y0055634D01*
X0123260Y0055481D01*
X0123215Y0055329D01*
X0123166Y0055178D01*
X0123113Y0055029D01*
X0123057Y0054881D01*
X0122997Y0054735D01*
X0122933Y0054590D01*
X0122865Y0054447D01*
X0122794Y0054305D01*
X0122720Y0054165D01*
X0122642Y0054028D01*
X0122560Y0053892D01*
X0122476Y0053758D01*
X0122387Y0053627D01*
X0122296Y0053498D01*
X0122201Y0053371D01*
X0122104Y0053246D01*
X0122003Y0053124D01*
X0121899Y0053005D01*
X0121792Y0052888D01*
X0121682Y0052774D01*
X0121569Y0052663D01*
X0121454Y0052554D01*
X0121336Y0052449D01*
X0121215Y0052347D01*
X0121092Y0052247D01*
X0120966Y0052151D01*
X0120838Y0052058D01*
X0120708Y0051968D01*
X0120575Y0051882D01*
X0120440Y0051798D01*
X0120304Y0051719D01*
X0120165Y0051642D01*
X0120024Y0051570D01*
X0119882Y0051500D01*
X0119738Y0051435D01*
X0119592Y0051373D01*
X0119445Y0051315D01*
X0119296Y0051260D01*
X0119146Y0051209D01*
X0118995Y0051162D01*
X0118843Y0051119D01*
X0118690Y0051080D01*
X0118535Y0051044D01*
X0118380Y0051013D01*
X0118224Y0050985D01*
X0118068Y0050961D01*
X0117911Y0050941D01*
X0117753Y0050925D01*
X0117596Y0050913D01*
X0117437Y0050905D01*
X0117279Y0050901D01*
X0117121Y0050901D01*
X0116963Y0050905D01*
X0116804Y0050913D01*
X0116647Y0050925D01*
X0116489Y0050941D01*
X0116332Y0050961D01*
X0116176Y0050985D01*
X0116020Y0051013D01*
X0115865Y0051044D01*
X0115710Y0051080D01*
X0115557Y0051119D01*
X0115405Y0051162D01*
X0115254Y0051209D01*
X0115104Y0051260D01*
X0114955Y0051315D01*
X0114808Y0051373D01*
X0114662Y0051435D01*
X0114518Y0051500D01*
X0114376Y0051570D01*
X0114235Y0051642D01*
X0114096Y0051719D01*
X0113960Y0051798D01*
X0113825Y0051882D01*
X0113692Y0051968D01*
X0113562Y0052058D01*
X0113434Y0052151D01*
X0113308Y0052247D01*
X0113185Y0052347D01*
X0113064Y0052449D01*
X0112946Y0052554D01*
X0112831Y0052663D01*
X0112718Y0052774D01*
X0112608Y0052888D01*
X0112501Y0053005D01*
X0112397Y0053124D01*
X0112296Y0053246D01*
X0112199Y0053371D01*
X0112104Y0053498D01*
X0112013Y0053627D01*
X0111924Y0053758D01*
X0111840Y0053892D01*
X0111758Y0054028D01*
X0111680Y0054165D01*
X0111606Y0054305D01*
X0111535Y0054447D01*
X0111467Y0054590D01*
X0111403Y0054735D01*
X0111343Y0054881D01*
X0111287Y0055029D01*
X0111234Y0055178D01*
X0111185Y0055329D01*
X0111140Y0055481D01*
X0111099Y0055634D01*
X0111061Y0055787D01*
X0111028Y0055942D01*
X0110998Y0056098D01*
X0110972Y0056254D01*
X0110951Y0056411D01*
X0110933Y0056568D01*
X0110919Y0056726D01*
X0110909Y0056884D01*
X0110903Y0057042D01*
X0110901Y0057200D01*
X0062200Y0017200D02*
X0059670Y0020657D01*
X0057225Y0024176D01*
X0054867Y0027753D01*
X0052597Y0031386D01*
X0050416Y0035075D01*
X0048327Y0038815D01*
X0046330Y0042605D01*
X0044426Y0046443D01*
X0042617Y0050327D01*
X0040903Y0054254D01*
X0039286Y0058221D01*
X0037766Y0062227D01*
X0036345Y0066269D01*
X0035023Y0070344D01*
X0033801Y0074451D01*
X0032680Y0078586D01*
X0031661Y0082747D01*
X0030744Y0086932D01*
X0029929Y0091139D01*
X0029218Y0095363D01*
X0028610Y0099605D01*
X0028107Y0103859D01*
X0027707Y0108125D01*
X0027412Y0112399D01*
X0027222Y0116679D01*
X0027136Y0120963D01*
X0027156Y0125247D01*
X0027280Y0129530D01*
X0027509Y0133808D01*
X0027842Y0138079D01*
X0028280Y0142341D01*
X0028822Y0146591D01*
X0029468Y0150827D01*
X0030218Y0155045D01*
X0031070Y0159244D01*
X0032025Y0163420D01*
X0033082Y0167572D01*
X0034240Y0171697D01*
X0035499Y0175793D01*
X0036857Y0179856D01*
X0038315Y0183885D01*
X0039871Y0187877D01*
X0041524Y0191829D01*
X0043273Y0195740D01*
X0045117Y0199607D01*
X0047056Y0203428D01*
X0049087Y0207200D01*
X0051210Y0210922D01*
X0053423Y0214590D01*
X0055726Y0218203D01*
X0058116Y0221759D01*
X0060593Y0225255D01*
X0063154Y0228689D01*
X0065799Y0232060D01*
X0068525Y0235365D01*
X0071332Y0238602D01*
X0074217Y0241770D01*
X0077178Y0244866D01*
X0080215Y0247889D01*
X0083324Y0250836D01*
X0086505Y0253707D01*
X0089754Y0256498D01*
X0093072Y0259210D01*
X0096454Y0261839D01*
X0099900Y0264385D01*
X0103407Y0266846D01*
X0106974Y0269220D01*
X0110597Y0271506D01*
X0114275Y0273703D01*
X0118006Y0275810D01*
X0121788Y0277824D01*
X0125617Y0279745D01*
X0129493Y0281572D01*
X0133411Y0283303D01*
X0137372Y0284939D01*
X0141371Y0286476D01*
X0145406Y0287916D01*
X0149475Y0289256D01*
X0153576Y0290496D01*
X0157706Y0291636D01*
X0161863Y0292674D01*
X0166044Y0293610D01*
X0170246Y0294443D01*
X0174468Y0295174D01*
X0178706Y0295800D01*
X0182959Y0296323D01*
X0187223Y0296742D01*
X0191495Y0297056D01*
X0195775Y0297266D01*
X0200058Y0297371D01*
X0204342Y0297371D01*
X0208625Y0297266D01*
X0212905Y0297056D01*
X0217177Y0296742D01*
X0221441Y0296323D01*
X0225694Y0295800D01*
X0229932Y0295174D01*
X0234154Y0294443D01*
X0238356Y0293610D01*
X0242537Y0292674D01*
X0246694Y0291636D01*
X0250824Y0290496D01*
X0254925Y0289256D01*
X0258994Y0287916D01*
X0263029Y0286476D01*
X0267028Y0284939D01*
X0270989Y0283303D01*
X0274907Y0281572D01*
X0278783Y0279745D01*
X0282612Y0277824D01*
X0286394Y0275810D01*
X0290125Y0273703D01*
X0293803Y0271506D01*
X0297426Y0269220D01*
X0300993Y0266846D01*
X0304500Y0264385D01*
X0307946Y0261839D01*
X0311328Y0259210D01*
X0314646Y0256498D01*
X0317895Y0253707D01*
X0321076Y0250836D01*
X0324185Y0247889D01*
X0327222Y0244866D01*
X0330183Y0241770D01*
X0333068Y0238602D01*
X0335875Y0235365D01*
X0338601Y0232060D01*
X0341246Y0228689D01*
X0343807Y0225255D01*
X0346284Y0221759D01*
X0348674Y0218203D01*
X0350977Y0214590D01*
X0353190Y0210922D01*
X0355313Y0207200D01*
X0357344Y0203428D01*
X0359283Y0199607D01*
X0361127Y0195740D01*
X0362876Y0191829D01*
X0364529Y0187877D01*
X0366085Y0183885D01*
X0367543Y0179856D01*
X0368901Y0175793D01*
X0370160Y0171697D01*
X0371318Y0167572D01*
X0372375Y0163420D01*
X0373330Y0159244D01*
X0374182Y0155045D01*
X0374932Y0150827D01*
X0375578Y0146591D01*
X0376120Y0142341D01*
X0376558Y0138079D01*
X0376891Y0133808D01*
X0377120Y0129530D01*
X0377244Y0125247D01*
X0377264Y0120963D01*
X0377178Y0116679D01*
X0376988Y0112399D01*
X0376693Y0108125D01*
X0376293Y0103859D01*
X0375790Y0099605D01*
X0375182Y0095363D01*
X0374471Y0091139D01*
X0373656Y0086932D01*
X0372739Y0082747D01*
X0371720Y0078586D01*
X0370599Y0074451D01*
X0369377Y0070344D01*
X0368055Y0066269D01*
X0366634Y0062227D01*
X0365114Y0058221D01*
X0363497Y0054254D01*
X0361783Y0050327D01*
X0359974Y0046443D01*
X0358070Y0042605D01*
X0356073Y0038815D01*
X0353984Y0035075D01*
X0351803Y0031386D01*
X0349533Y0027753D01*
X0347175Y0024176D01*
X0344730Y0020657D01*
X0342200Y0017200D01*
X0195901Y0197200D02*
X0195903Y0197358D01*
X0195909Y0197516D01*
X0195919Y0197674D01*
X0195933Y0197832D01*
X0195951Y0197989D01*
X0195972Y0198146D01*
X0195998Y0198302D01*
X0196028Y0198458D01*
X0196061Y0198613D01*
X0196099Y0198766D01*
X0196140Y0198919D01*
X0196185Y0199071D01*
X0196234Y0199222D01*
X0196287Y0199371D01*
X0196343Y0199519D01*
X0196403Y0199665D01*
X0196467Y0199810D01*
X0196535Y0199953D01*
X0196606Y0200095D01*
X0196680Y0200235D01*
X0196758Y0200372D01*
X0196840Y0200508D01*
X0196924Y0200642D01*
X0197013Y0200773D01*
X0197104Y0200902D01*
X0197199Y0201029D01*
X0197296Y0201154D01*
X0197397Y0201276D01*
X0197501Y0201395D01*
X0197608Y0201512D01*
X0197718Y0201626D01*
X0197831Y0201737D01*
X0197946Y0201846D01*
X0198064Y0201951D01*
X0198185Y0202053D01*
X0198308Y0202153D01*
X0198434Y0202249D01*
X0198562Y0202342D01*
X0198692Y0202432D01*
X0198825Y0202518D01*
X0198960Y0202602D01*
X0199096Y0202681D01*
X0199235Y0202758D01*
X0199376Y0202830D01*
X0199518Y0202900D01*
X0199662Y0202965D01*
X0199808Y0203027D01*
X0199955Y0203085D01*
X0200104Y0203140D01*
X0200254Y0203191D01*
X0200405Y0203238D01*
X0200557Y0203281D01*
X0200710Y0203320D01*
X0200865Y0203356D01*
X0201020Y0203387D01*
X0201176Y0203415D01*
X0201332Y0203439D01*
X0201489Y0203459D01*
X0201647Y0203475D01*
X0201804Y0203487D01*
X0201963Y0203495D01*
X0202121Y0203499D01*
X0202279Y0203499D01*
X0202437Y0203495D01*
X0202596Y0203487D01*
X0202753Y0203475D01*
X0202911Y0203459D01*
X0203068Y0203439D01*
X0203224Y0203415D01*
X0203380Y0203387D01*
X0203535Y0203356D01*
X0203690Y0203320D01*
X0203843Y0203281D01*
X0203995Y0203238D01*
X0204146Y0203191D01*
X0204296Y0203140D01*
X0204445Y0203085D01*
X0204592Y0203027D01*
X0204738Y0202965D01*
X0204882Y0202900D01*
X0205024Y0202830D01*
X0205165Y0202758D01*
X0205304Y0202681D01*
X0205440Y0202602D01*
X0205575Y0202518D01*
X0205708Y0202432D01*
X0205838Y0202342D01*
X0205966Y0202249D01*
X0206092Y0202153D01*
X0206215Y0202053D01*
X0206336Y0201951D01*
X0206454Y0201846D01*
X0206569Y0201737D01*
X0206682Y0201626D01*
X0206792Y0201512D01*
X0206899Y0201395D01*
X0207003Y0201276D01*
X0207104Y0201154D01*
X0207201Y0201029D01*
X0207296Y0200902D01*
X0207387Y0200773D01*
X0207476Y0200642D01*
X0207560Y0200508D01*
X0207642Y0200372D01*
X0207720Y0200235D01*
X0207794Y0200095D01*
X0207865Y0199953D01*
X0207933Y0199810D01*
X0207997Y0199665D01*
X0208057Y0199519D01*
X0208113Y0199371D01*
X0208166Y0199222D01*
X0208215Y0199071D01*
X0208260Y0198919D01*
X0208301Y0198766D01*
X0208339Y0198613D01*
X0208372Y0198458D01*
X0208402Y0198302D01*
X0208428Y0198146D01*
X0208449Y0197989D01*
X0208467Y0197832D01*
X0208481Y0197674D01*
X0208491Y0197516D01*
X0208497Y0197358D01*
X0208499Y0197200D01*
X0208497Y0197042D01*
X0208491Y0196884D01*
X0208481Y0196726D01*
X0208467Y0196568D01*
X0208449Y0196411D01*
X0208428Y0196254D01*
X0208402Y0196098D01*
X0208372Y0195942D01*
X0208339Y0195787D01*
X0208301Y0195634D01*
X0208260Y0195481D01*
X0208215Y0195329D01*
X0208166Y0195178D01*
X0208113Y0195029D01*
X0208057Y0194881D01*
X0207997Y0194735D01*
X0207933Y0194590D01*
X0207865Y0194447D01*
X0207794Y0194305D01*
X0207720Y0194165D01*
X0207642Y0194028D01*
X0207560Y0193892D01*
X0207476Y0193758D01*
X0207387Y0193627D01*
X0207296Y0193498D01*
X0207201Y0193371D01*
X0207104Y0193246D01*
X0207003Y0193124D01*
X0206899Y0193005D01*
X0206792Y0192888D01*
X0206682Y0192774D01*
X0206569Y0192663D01*
X0206454Y0192554D01*
X0206336Y0192449D01*
X0206215Y0192347D01*
X0206092Y0192247D01*
X0205966Y0192151D01*
X0205838Y0192058D01*
X0205708Y0191968D01*
X0205575Y0191882D01*
X0205440Y0191798D01*
X0205304Y0191719D01*
X0205165Y0191642D01*
X0205024Y0191570D01*
X0204882Y0191500D01*
X0204738Y0191435D01*
X0204592Y0191373D01*
X0204445Y0191315D01*
X0204296Y0191260D01*
X0204146Y0191209D01*
X0203995Y0191162D01*
X0203843Y0191119D01*
X0203690Y0191080D01*
X0203535Y0191044D01*
X0203380Y0191013D01*
X0203224Y0190985D01*
X0203068Y0190961D01*
X0202911Y0190941D01*
X0202753Y0190925D01*
X0202596Y0190913D01*
X0202437Y0190905D01*
X0202279Y0190901D01*
X0202121Y0190901D01*
X0201963Y0190905D01*
X0201804Y0190913D01*
X0201647Y0190925D01*
X0201489Y0190941D01*
X0201332Y0190961D01*
X0201176Y0190985D01*
X0201020Y0191013D01*
X0200865Y0191044D01*
X0200710Y0191080D01*
X0200557Y0191119D01*
X0200405Y0191162D01*
X0200254Y0191209D01*
X0200104Y0191260D01*
X0199955Y0191315D01*
X0199808Y0191373D01*
X0199662Y0191435D01*
X0199518Y0191500D01*
X0199376Y0191570D01*
X0199235Y0191642D01*
X0199096Y0191719D01*
X0198960Y0191798D01*
X0198825Y0191882D01*
X0198692Y0191968D01*
X0198562Y0192058D01*
X0198434Y0192151D01*
X0198308Y0192247D01*
X0198185Y0192347D01*
X0198064Y0192449D01*
X0197946Y0192554D01*
X0197831Y0192663D01*
X0197718Y0192774D01*
X0197608Y0192888D01*
X0197501Y0193005D01*
X0197397Y0193124D01*
X0197296Y0193246D01*
X0197199Y0193371D01*
X0197104Y0193498D01*
X0197013Y0193627D01*
X0196924Y0193758D01*
X0196840Y0193892D01*
X0196758Y0194028D01*
X0196680Y0194165D01*
X0196606Y0194305D01*
X0196535Y0194447D01*
X0196467Y0194590D01*
X0196403Y0194735D01*
X0196343Y0194881D01*
X0196287Y0195029D01*
X0196234Y0195178D01*
X0196185Y0195329D01*
X0196140Y0195481D01*
X0196099Y0195634D01*
X0196061Y0195787D01*
X0196028Y0195942D01*
X0195998Y0196098D01*
X0195972Y0196254D01*
X0195951Y0196411D01*
X0195933Y0196568D01*
X0195919Y0196726D01*
X0195909Y0196884D01*
X0195903Y0197042D01*
X0195901Y0197200D01*
M02*
