%
M48
M72
T01C0.01969
T02C0.03200
T03C0.04000
T04C0.04331
T05C0.12598
%
T01
X210595Y170933
X217595Y178433
X241095Y196933
X210595Y206933
X200095Y207433
X220095Y231933
X219095Y248933
X214083Y256827
X214083Y264327
X223095Y268933
X226595Y265933
X229595Y260933
X233595Y256433
X238595Y252433
X246595Y255933
X246595Y248933
X242595Y245433
X253788Y246278
X266788Y253778
X262595Y261553
X275095Y266933
X282095Y261433
X295083Y262327
X301095Y257933
X309095Y261933
X306595Y265933
X315095Y272933
X314095Y277933
X287583Y273327
X275083Y281327
X275583Y291827
X262595Y299933
X241095Y298433
X239595Y293433
X231499Y293762
X223095Y303433
X227768Y310961
X216268Y312961
X208768Y296961
X205768Y286461
X219095Y276933
X234058Y280327
X238536Y282246
X242375Y279687
X250692Y282246
X204583Y270327
X141095Y204933
X241095Y318933
X341095Y204933
T02
X326595Y225933
X326595Y255933
X326595Y265933
X326595Y275933
X326595Y285933
T03
X221882Y152720
X228953Y159791
X236024Y166862
X243095Y173933
X225095Y197433
X215095Y197433
X205095Y197433
X195095Y197433
X326595Y235933
X326595Y245933
T04
X184095Y253433
X174095Y243433
X164095Y253433
X174095Y263433
T05
X326095Y89933
X306095Y69933
X241095Y79933
X241095Y229933
M30
