G75*
%MOIN*%
%OFA0B0*%
%FSLAX25Y25*%
%IPPOS*%
%LPD*%
%AMOC8*
5,1,8,0,0,1.08239X$1,22.5*
%
%ADD10C,0.00000*%
%ADD11R,0.03937X0.04331*%
%ADD12C,0.07400*%
%ADD13R,0.02500X0.05000*%
%ADD14C,0.01000*%
%ADD15R,0.02000X0.00980*%
%ADD16R,0.01378X0.01969*%
%ADD17C,0.03169*%
%ADD18C,0.01200*%
%ADD19C,0.02400*%
%ADD20C,0.01600*%
%ADD21C,0.03562*%
D10*
X0046600Y0039100D02*
X0046600Y0069100D01*
X0066600Y0069100D01*
X0066600Y0076600D01*
X0046600Y0039100D02*
X0126600Y0039100D01*
X0126600Y0069100D01*
X0106600Y0069100D01*
X0106600Y0076600D01*
X0106600Y0164100D02*
X0106600Y0249100D01*
X0106594Y0249587D01*
X0106576Y0250074D01*
X0106547Y0250560D01*
X0106505Y0251045D01*
X0106452Y0251529D01*
X0106387Y0252012D01*
X0106310Y0252493D01*
X0106222Y0252972D01*
X0106122Y0253449D01*
X0106010Y0253923D01*
X0105887Y0254394D01*
X0105752Y0254862D01*
X0105606Y0255327D01*
X0105449Y0255788D01*
X0105280Y0256245D01*
X0105101Y0256697D01*
X0104910Y0257146D01*
X0104709Y0257589D01*
X0104497Y0258028D01*
X0104274Y0258461D01*
X0104041Y0258888D01*
X0103797Y0259310D01*
X0103544Y0259726D01*
X0103280Y0260135D01*
X0103006Y0260538D01*
X0102723Y0260934D01*
X0102430Y0261323D01*
X0102128Y0261705D01*
X0101816Y0262080D01*
X0101495Y0262446D01*
X0101166Y0262805D01*
X0100828Y0263156D01*
X0100481Y0263498D01*
X0100127Y0263832D01*
X0099764Y0264157D01*
X0099393Y0264473D01*
X0099015Y0264780D01*
X0098630Y0265078D01*
X0098237Y0265366D01*
X0097838Y0265644D01*
X0097431Y0265913D01*
X0097019Y0266172D01*
X0096600Y0266421D01*
X0096175Y0266659D01*
X0095745Y0266887D01*
X0095309Y0267104D01*
X0094868Y0267311D01*
X0094422Y0267507D01*
X0093972Y0267692D01*
X0093517Y0267866D01*
X0093058Y0268029D01*
X0092595Y0268180D01*
X0092128Y0268321D01*
X0091659Y0268450D01*
X0091186Y0268567D01*
X0090711Y0268673D01*
X0090233Y0268767D01*
X0089753Y0268850D01*
X0089271Y0268921D01*
X0088787Y0268980D01*
X0088303Y0269027D01*
X0087817Y0269063D01*
X0087330Y0269087D01*
X0086844Y0269099D01*
X0086356Y0269099D01*
X0085870Y0269087D01*
X0085383Y0269063D01*
X0084897Y0269027D01*
X0084413Y0268980D01*
X0083929Y0268921D01*
X0083447Y0268850D01*
X0082967Y0268767D01*
X0082489Y0268673D01*
X0082014Y0268567D01*
X0081541Y0268450D01*
X0081072Y0268321D01*
X0080605Y0268180D01*
X0080142Y0268029D01*
X0079683Y0267866D01*
X0079228Y0267692D01*
X0078778Y0267507D01*
X0078332Y0267311D01*
X0077891Y0267104D01*
X0077455Y0266887D01*
X0077025Y0266659D01*
X0076600Y0266421D01*
X0076181Y0266172D01*
X0075769Y0265913D01*
X0075362Y0265644D01*
X0074963Y0265366D01*
X0074570Y0265078D01*
X0074185Y0264780D01*
X0073807Y0264473D01*
X0073436Y0264157D01*
X0073073Y0263832D01*
X0072719Y0263498D01*
X0072372Y0263156D01*
X0072034Y0262805D01*
X0071705Y0262446D01*
X0071384Y0262080D01*
X0071072Y0261705D01*
X0070770Y0261323D01*
X0070477Y0260934D01*
X0070194Y0260538D01*
X0069920Y0260135D01*
X0069656Y0259726D01*
X0069403Y0259310D01*
X0069159Y0258888D01*
X0068926Y0258461D01*
X0068703Y0258028D01*
X0068491Y0257589D01*
X0068290Y0257146D01*
X0068099Y0256697D01*
X0067920Y0256245D01*
X0067751Y0255788D01*
X0067594Y0255327D01*
X0067448Y0254862D01*
X0067313Y0254394D01*
X0067190Y0253923D01*
X0067078Y0253449D01*
X0066978Y0252972D01*
X0066890Y0252493D01*
X0066813Y0252012D01*
X0066748Y0251529D01*
X0066695Y0251045D01*
X0066653Y0250560D01*
X0066624Y0250074D01*
X0066606Y0249587D01*
X0066600Y0249100D01*
X0066600Y0164100D01*
X0067626Y0162071D01*
X0068603Y0160018D01*
X0069530Y0157941D01*
X0070407Y0155844D01*
X0071233Y0153725D01*
X0072008Y0151588D01*
X0072732Y0149432D01*
X0073404Y0147260D01*
X0074024Y0145072D01*
X0074591Y0142871D01*
X0075105Y0140656D01*
X0075565Y0138429D01*
X0075972Y0136192D01*
X0076325Y0133946D01*
X0076625Y0131692D01*
X0076870Y0129431D01*
X0077061Y0127166D01*
X0077197Y0124896D01*
X0077279Y0122624D01*
X0077306Y0120350D01*
X0077279Y0118076D01*
X0077197Y0115804D01*
X0077061Y0113534D01*
X0076870Y0111269D01*
X0076625Y0109008D01*
X0076325Y0106754D01*
X0075972Y0104508D01*
X0075565Y0102271D01*
X0075105Y0100044D01*
X0074591Y0097829D01*
X0074024Y0095628D01*
X0073404Y0093440D01*
X0072732Y0091268D01*
X0072008Y0089112D01*
X0071233Y0086975D01*
X0070407Y0084856D01*
X0069530Y0082759D01*
X0068603Y0080682D01*
X0067626Y0078629D01*
X0066600Y0076600D01*
X0106600Y0076600D02*
X0105574Y0078629D01*
X0104597Y0080682D01*
X0103670Y0082759D01*
X0102793Y0084856D01*
X0101967Y0086975D01*
X0101192Y0089112D01*
X0100468Y0091268D01*
X0099796Y0093440D01*
X0099176Y0095628D01*
X0098609Y0097829D01*
X0098095Y0100044D01*
X0097635Y0102271D01*
X0097228Y0104508D01*
X0096875Y0106754D01*
X0096575Y0109008D01*
X0096330Y0111269D01*
X0096139Y0113534D01*
X0096003Y0115804D01*
X0095921Y0118076D01*
X0095894Y0120350D01*
X0095921Y0122624D01*
X0096003Y0124896D01*
X0096139Y0127166D01*
X0096330Y0129431D01*
X0096575Y0131692D01*
X0096875Y0133946D01*
X0097228Y0136192D01*
X0097635Y0138429D01*
X0098095Y0140656D01*
X0098609Y0142871D01*
X0099176Y0145072D01*
X0099796Y0147260D01*
X0100468Y0149432D01*
X0101192Y0151588D01*
X0101967Y0153725D01*
X0102793Y0155844D01*
X0103670Y0157941D01*
X0104597Y0160018D01*
X0105574Y0162071D01*
X0106600Y0164100D01*
D11*
X0092100Y0180754D03*
X0092100Y0187446D03*
X0092100Y0198254D03*
X0092100Y0204946D03*
X0081100Y0204946D03*
X0081100Y0198254D03*
X0081100Y0187446D03*
X0081100Y0180754D03*
X0094100Y0253254D03*
X0094100Y0259946D03*
X0079100Y0260446D03*
X0079100Y0253754D03*
D12*
X0081600Y0049100D03*
X0071600Y0049100D03*
X0091600Y0049100D03*
X0101600Y0049100D03*
D13*
X0090600Y0169100D03*
X0086600Y0169100D03*
X0082600Y0169100D03*
D14*
X0086600Y0169100D01*
X0090600Y0169100D01*
D15*
X0089750Y0240639D03*
X0089750Y0242587D03*
X0089750Y0244591D03*
X0083543Y0244591D03*
X0083543Y0242587D03*
X0083543Y0240639D03*
D16*
X0082761Y0225635D03*
X0085320Y0225635D03*
X0087880Y0225635D03*
X0090439Y0225635D03*
X0090439Y0217565D03*
X0087880Y0217565D03*
X0085320Y0217565D03*
X0082761Y0217565D03*
D17*
X0078600Y0221600D03*
X0076600Y0242600D03*
X0094600Y0221600D03*
X0096600Y0242600D03*
X0092100Y0193100D03*
X0081100Y0193100D03*
X0074600Y0166100D03*
X0086600Y0154100D03*
D18*
X0085600Y0156591D02*
X0084844Y0156591D01*
X0085079Y0156376D02*
X0084324Y0155620D01*
X0083916Y0154634D01*
X0083916Y0153566D01*
X0084300Y0152638D01*
X0084300Y0063147D01*
X0089300Y0058147D01*
X0089300Y0053343D01*
X0088881Y0053169D01*
X0087531Y0051819D01*
X0086800Y0050055D01*
X0086800Y0048145D01*
X0087531Y0046381D01*
X0088881Y0045031D01*
X0090645Y0044300D01*
X0092555Y0044300D01*
X0094319Y0045031D01*
X0095669Y0046381D01*
X0096400Y0048145D01*
X0096400Y0050055D01*
X0095669Y0051819D01*
X0094319Y0053169D01*
X0093900Y0053343D01*
X0093900Y0060053D01*
X0092553Y0061400D01*
X0088900Y0065053D01*
X0088900Y0152638D01*
X0089284Y0153566D01*
X0089284Y0154634D01*
X0088876Y0155620D01*
X0088120Y0156376D01*
X0087134Y0156784D01*
X0086066Y0156784D01*
X0085079Y0156376D01*
X0084230Y0155393D02*
X0083900Y0155393D01*
X0083900Y0155647D02*
X0087553Y0159300D01*
X0088900Y0160647D01*
X0088900Y0165500D01*
X0092306Y0165500D01*
X0092950Y0166144D01*
X0092950Y0172056D01*
X0092306Y0172700D01*
X0092300Y0172700D01*
X0092300Y0177488D01*
X0094524Y0177488D01*
X0095168Y0178133D01*
X0095168Y0183375D01*
X0094524Y0184019D01*
X0089676Y0184019D01*
X0089031Y0183375D01*
X0089031Y0181089D01*
X0088900Y0180958D01*
X0088900Y0180655D01*
X0088900Y0180655D01*
X0088900Y0195057D01*
X0089149Y0194808D01*
X0089514Y0194597D01*
X0089921Y0194488D01*
X0091716Y0194488D01*
X0091716Y0197869D01*
X0092484Y0197869D01*
X0092484Y0194488D01*
X0094279Y0194488D01*
X0094686Y0194597D01*
X0095051Y0194808D01*
X0095349Y0195106D01*
X0095559Y0195471D01*
X0095668Y0195878D01*
X0095668Y0197869D01*
X0092484Y0197869D01*
X0092484Y0198638D01*
X0095668Y0198638D01*
X0095668Y0200630D01*
X0095559Y0201036D01*
X0095349Y0201401D01*
X0095051Y0201699D01*
X0094728Y0201885D01*
X0095168Y0202325D01*
X0095168Y0207567D01*
X0094524Y0208212D01*
X0094000Y0208212D01*
X0094000Y0211887D01*
X0092339Y0213548D01*
X0092339Y0218352D01*
X0092228Y0218463D01*
X0092228Y0219004D01*
X0091583Y0219649D01*
X0089580Y0219649D01*
X0089580Y0221525D01*
X0087553Y0223551D01*
X0089024Y0223551D01*
X0089159Y0223686D01*
X0089294Y0223551D01*
X0091583Y0223551D01*
X0092228Y0224196D01*
X0092228Y0225020D01*
X0092300Y0225093D01*
X0092300Y0226501D01*
X0092228Y0226573D01*
X0092228Y0227075D01*
X0092139Y0227164D01*
X0092139Y0228734D01*
X0093959Y0230554D01*
X0096300Y0228213D01*
X0096300Y0189746D01*
X0095168Y0189746D01*
X0095168Y0190067D01*
X0094524Y0190712D01*
X0089676Y0190712D01*
X0089031Y0190067D01*
X0089031Y0184825D01*
X0089676Y0184181D01*
X0094524Y0184181D01*
X0095168Y0184825D01*
X0095168Y0185146D01*
X0096300Y0185146D01*
X0096300Y0167053D01*
X0089300Y0160053D01*
X0089300Y0065647D01*
X0090647Y0064300D01*
X0099300Y0055647D01*
X0099300Y0053343D01*
X0098881Y0053169D01*
X0097531Y0051819D01*
X0096800Y0050055D01*
X0096800Y0048145D01*
X0097531Y0046381D01*
X0098881Y0045031D01*
X0100645Y0044300D01*
X0102555Y0044300D01*
X0104319Y0045031D01*
X0105669Y0046381D01*
X0106400Y0048145D01*
X0106400Y0050055D01*
X0105669Y0051819D01*
X0104319Y0053169D01*
X0103900Y0053343D01*
X0103900Y0057553D01*
X0093900Y0067553D01*
X0093900Y0158147D01*
X0099553Y0163800D01*
X0100900Y0165147D01*
X0100900Y0229553D01*
X0099553Y0230900D01*
X0098987Y0230900D01*
X0095800Y0234087D01*
X0095800Y0238804D01*
X0093260Y0241344D01*
X0092350Y0242255D01*
X0092350Y0242587D01*
X0092350Y0243288D01*
X0092241Y0243695D01*
X0092030Y0244059D01*
X0091850Y0244240D01*
X0091850Y0245537D01*
X0091205Y0246181D01*
X0088294Y0246181D01*
X0087650Y0245537D01*
X0087650Y0244240D01*
X0087469Y0244059D01*
X0087259Y0243695D01*
X0087150Y0243288D01*
X0087150Y0242587D01*
X0087150Y0241886D01*
X0087259Y0241479D01*
X0087469Y0241115D01*
X0087650Y0240934D01*
X0087650Y0239694D01*
X0088294Y0239049D01*
X0088935Y0239049D01*
X0089045Y0238939D01*
X0090856Y0238939D01*
X0092400Y0237396D01*
X0092400Y0234087D01*
X0092200Y0233887D01*
X0092200Y0233604D01*
X0088850Y0230254D01*
X0081500Y0237604D01*
X0081500Y0237887D01*
X0081300Y0238087D01*
X0081300Y0238396D01*
X0081844Y0238939D01*
X0084247Y0238939D01*
X0084357Y0239049D01*
X0084999Y0239049D01*
X0085643Y0239694D01*
X0085643Y0241585D01*
X0085615Y0241613D01*
X0085643Y0241641D01*
X0085643Y0243533D01*
X0085587Y0243589D01*
X0085643Y0243646D01*
X0085643Y0245537D01*
X0084999Y0246181D01*
X0084357Y0246181D01*
X0084239Y0246300D01*
X0081804Y0246300D01*
X0080800Y0247304D01*
X0080800Y0250488D01*
X0081524Y0250488D01*
X0082168Y0251133D01*
X0082168Y0256375D01*
X0081728Y0256815D01*
X0082051Y0257001D01*
X0082349Y0257299D01*
X0082559Y0257664D01*
X0082668Y0258070D01*
X0082668Y0260062D01*
X0079484Y0260062D01*
X0079484Y0260831D01*
X0078716Y0260831D01*
X0078716Y0264212D01*
X0076921Y0264212D01*
X0076514Y0264103D01*
X0076149Y0263892D01*
X0075851Y0263594D01*
X0075641Y0263229D01*
X0075531Y0262822D01*
X0075531Y0260831D01*
X0078716Y0260831D01*
X0078716Y0260062D01*
X0075531Y0260062D01*
X0075531Y0258070D01*
X0075641Y0257664D01*
X0075851Y0257299D01*
X0076149Y0257001D01*
X0076472Y0256815D01*
X0076031Y0256375D01*
X0076031Y0251133D01*
X0076676Y0250488D01*
X0077400Y0250488D01*
X0077400Y0245896D01*
X0078396Y0244900D01*
X0078996Y0244300D01*
X0078696Y0244300D01*
X0078120Y0244876D01*
X0077134Y0245284D01*
X0076066Y0245284D01*
X0075079Y0244876D01*
X0074324Y0244120D01*
X0073916Y0243134D01*
X0073916Y0242066D01*
X0074324Y0241079D01*
X0075079Y0240324D01*
X0076066Y0239916D01*
X0077134Y0239916D01*
X0078120Y0240324D01*
X0078696Y0240900D01*
X0078996Y0240900D01*
X0077900Y0239804D01*
X0077900Y0238087D01*
X0074213Y0234400D01*
X0073647Y0234400D01*
X0072300Y0233053D01*
X0072300Y0167562D01*
X0071916Y0166634D01*
X0071916Y0165566D01*
X0072324Y0164579D01*
X0073079Y0163824D01*
X0074066Y0163416D01*
X0075134Y0163416D01*
X0076120Y0163824D01*
X0076876Y0164579D01*
X0077284Y0165566D01*
X0077284Y0166634D01*
X0076900Y0167562D01*
X0076900Y0185146D01*
X0078031Y0185146D01*
X0078031Y0184825D01*
X0078676Y0184181D01*
X0083524Y0184181D01*
X0084168Y0184825D01*
X0084168Y0190067D01*
X0083524Y0190712D01*
X0078676Y0190712D01*
X0078031Y0190067D01*
X0078031Y0189746D01*
X0076900Y0189746D01*
X0076900Y0231713D01*
X0079741Y0234554D01*
X0086180Y0228116D01*
X0086180Y0227720D01*
X0084613Y0227720D01*
X0084433Y0227900D01*
X0084068Y0228111D01*
X0083661Y0228220D01*
X0082761Y0228220D01*
X0081862Y0228220D01*
X0081455Y0228111D01*
X0081090Y0227900D01*
X0080792Y0227602D01*
X0080581Y0227237D01*
X0080472Y0226830D01*
X0080472Y0225635D01*
X0080472Y0224441D01*
X0080581Y0224034D01*
X0080792Y0223669D01*
X0081090Y0223371D01*
X0081455Y0223160D01*
X0081862Y0223051D01*
X0082761Y0223051D01*
X0082761Y0225635D01*
X0082761Y0225635D01*
X0080472Y0225635D01*
X0082761Y0225635D01*
X0082761Y0225635D01*
X0082761Y0223051D01*
X0083620Y0223051D01*
X0083620Y0222675D01*
X0086147Y0220149D01*
X0085321Y0220149D01*
X0085321Y0217565D01*
X0085320Y0217565D01*
X0085320Y0220149D01*
X0084421Y0220149D01*
X0084014Y0220040D01*
X0083649Y0219829D01*
X0083469Y0219649D01*
X0081617Y0219649D01*
X0080972Y0219004D01*
X0080972Y0218463D01*
X0080861Y0218352D01*
X0080861Y0212152D01*
X0084700Y0208313D01*
X0084700Y0207274D01*
X0084426Y0207000D01*
X0084168Y0207000D01*
X0084168Y0207567D01*
X0083524Y0208212D01*
X0078676Y0208212D01*
X0078031Y0207567D01*
X0078031Y0202325D01*
X0078472Y0201885D01*
X0078149Y0201699D01*
X0077851Y0201401D01*
X0077641Y0201036D01*
X0077531Y0200630D01*
X0077531Y0198638D01*
X0080716Y0198638D01*
X0080716Y0197869D01*
X0081484Y0197869D01*
X0081484Y0194488D01*
X0083279Y0194488D01*
X0083686Y0194597D01*
X0084051Y0194808D01*
X0084300Y0195057D01*
X0084300Y0180655D01*
X0084300Y0180958D01*
X0084168Y0181089D01*
X0084168Y0183375D01*
X0083524Y0184019D01*
X0078676Y0184019D01*
X0078031Y0183375D01*
X0078031Y0178133D01*
X0078676Y0177488D01*
X0080900Y0177488D01*
X0080900Y0172700D01*
X0080894Y0172700D01*
X0080250Y0172056D01*
X0080250Y0166144D01*
X0080894Y0165500D01*
X0084300Y0165500D01*
X0084300Y0162553D01*
X0080647Y0158900D01*
X0079300Y0157553D01*
X0079300Y0053343D01*
X0078881Y0053169D01*
X0077531Y0051819D01*
X0076811Y0050081D01*
X0076769Y0050341D01*
X0076512Y0051134D01*
X0076133Y0051878D01*
X0075643Y0052553D01*
X0075053Y0053143D01*
X0074378Y0053633D01*
X0073634Y0054012D01*
X0072841Y0054269D01*
X0072017Y0054400D01*
X0072000Y0054400D01*
X0072000Y0049500D01*
X0071200Y0049500D01*
X0071200Y0054400D01*
X0071183Y0054400D01*
X0070359Y0054269D01*
X0069566Y0054012D01*
X0068822Y0053633D01*
X0068147Y0053143D01*
X0067557Y0052553D01*
X0067067Y0051878D01*
X0066688Y0051134D01*
X0066430Y0050341D01*
X0066300Y0049517D01*
X0066300Y0049500D01*
X0071200Y0049500D01*
X0071200Y0048700D01*
X0072000Y0048700D01*
X0072000Y0043800D01*
X0072017Y0043800D01*
X0072841Y0043930D01*
X0073634Y0044188D01*
X0074378Y0044567D01*
X0075053Y0045057D01*
X0075643Y0045647D01*
X0076133Y0046322D01*
X0076512Y0047066D01*
X0076769Y0047859D01*
X0076811Y0048119D01*
X0077531Y0046381D01*
X0078881Y0045031D01*
X0080645Y0044300D01*
X0082555Y0044300D01*
X0084319Y0045031D01*
X0085669Y0046381D01*
X0086400Y0048145D01*
X0086400Y0050055D01*
X0085669Y0051819D01*
X0084319Y0053169D01*
X0083900Y0053343D01*
X0083900Y0155647D01*
X0083900Y0154194D02*
X0083916Y0154194D01*
X0083900Y0152996D02*
X0084152Y0152996D01*
X0084300Y0151797D02*
X0083900Y0151797D01*
X0083900Y0150599D02*
X0084300Y0150599D01*
X0084300Y0149400D02*
X0083900Y0149400D01*
X0083900Y0148202D02*
X0084300Y0148202D01*
X0084300Y0147003D02*
X0083900Y0147003D01*
X0083900Y0145805D02*
X0084300Y0145805D01*
X0084300Y0144606D02*
X0083900Y0144606D01*
X0083900Y0143408D02*
X0084300Y0143408D01*
X0084300Y0142209D02*
X0083900Y0142209D01*
X0083900Y0141011D02*
X0084300Y0141011D01*
X0084300Y0139812D02*
X0083900Y0139812D01*
X0083900Y0138614D02*
X0084300Y0138614D01*
X0084300Y0137415D02*
X0083900Y0137415D01*
X0083900Y0136217D02*
X0084300Y0136217D01*
X0084300Y0135018D02*
X0083900Y0135018D01*
X0083900Y0133820D02*
X0084300Y0133820D01*
X0084300Y0132621D02*
X0083900Y0132621D01*
X0083900Y0131423D02*
X0084300Y0131423D01*
X0084300Y0130224D02*
X0083900Y0130224D01*
X0083900Y0129026D02*
X0084300Y0129026D01*
X0084300Y0127827D02*
X0083900Y0127827D01*
X0083900Y0126629D02*
X0084300Y0126629D01*
X0084300Y0125430D02*
X0083900Y0125430D01*
X0083900Y0124232D02*
X0084300Y0124232D01*
X0084300Y0123033D02*
X0083900Y0123033D01*
X0083900Y0121834D02*
X0084300Y0121834D01*
X0084300Y0120636D02*
X0083900Y0120636D01*
X0083900Y0119437D02*
X0084300Y0119437D01*
X0084300Y0118239D02*
X0083900Y0118239D01*
X0083900Y0117040D02*
X0084300Y0117040D01*
X0084300Y0115842D02*
X0083900Y0115842D01*
X0083900Y0114643D02*
X0084300Y0114643D01*
X0084300Y0113445D02*
X0083900Y0113445D01*
X0083900Y0112246D02*
X0084300Y0112246D01*
X0084300Y0111048D02*
X0083900Y0111048D01*
X0083900Y0109849D02*
X0084300Y0109849D01*
X0084300Y0108651D02*
X0083900Y0108651D01*
X0083900Y0107452D02*
X0084300Y0107452D01*
X0084300Y0106254D02*
X0083900Y0106254D01*
X0083900Y0105055D02*
X0084300Y0105055D01*
X0084300Y0103857D02*
X0083900Y0103857D01*
X0083900Y0102658D02*
X0084300Y0102658D01*
X0084300Y0101460D02*
X0083900Y0101460D01*
X0083900Y0100261D02*
X0084300Y0100261D01*
X0084300Y0099063D02*
X0083900Y0099063D01*
X0083900Y0097864D02*
X0084300Y0097864D01*
X0084300Y0096666D02*
X0083900Y0096666D01*
X0083900Y0095467D02*
X0084300Y0095467D01*
X0084300Y0094269D02*
X0083900Y0094269D01*
X0083900Y0093070D02*
X0084300Y0093070D01*
X0084300Y0091872D02*
X0083900Y0091872D01*
X0083900Y0090673D02*
X0084300Y0090673D01*
X0084300Y0089475D02*
X0083900Y0089475D01*
X0083900Y0088276D02*
X0084300Y0088276D01*
X0084300Y0087078D02*
X0083900Y0087078D01*
X0083900Y0085879D02*
X0084300Y0085879D01*
X0084300Y0084681D02*
X0083900Y0084681D01*
X0083900Y0083482D02*
X0084300Y0083482D01*
X0084300Y0082284D02*
X0083900Y0082284D01*
X0083900Y0081085D02*
X0084300Y0081085D01*
X0084300Y0079887D02*
X0083900Y0079887D01*
X0083900Y0078688D02*
X0084300Y0078688D01*
X0084300Y0077490D02*
X0083900Y0077490D01*
X0083900Y0076291D02*
X0084300Y0076291D01*
X0084300Y0075093D02*
X0083900Y0075093D01*
X0083900Y0073894D02*
X0084300Y0073894D01*
X0084300Y0072696D02*
X0083900Y0072696D01*
X0083900Y0071497D02*
X0084300Y0071497D01*
X0084300Y0070299D02*
X0083900Y0070299D01*
X0083900Y0069100D02*
X0084300Y0069100D01*
X0084300Y0067901D02*
X0083900Y0067901D01*
X0083900Y0066703D02*
X0084300Y0066703D01*
X0084300Y0065504D02*
X0083900Y0065504D01*
X0083900Y0064306D02*
X0084300Y0064306D01*
X0084340Y0063107D02*
X0083900Y0063107D01*
X0083900Y0061909D02*
X0085538Y0061909D01*
X0086737Y0060710D02*
X0083900Y0060710D01*
X0083900Y0059512D02*
X0087935Y0059512D01*
X0089134Y0058313D02*
X0083900Y0058313D01*
X0083900Y0057115D02*
X0089300Y0057115D01*
X0089300Y0055916D02*
X0083900Y0055916D01*
X0083900Y0054718D02*
X0089300Y0054718D01*
X0089300Y0053519D02*
X0083900Y0053519D01*
X0085167Y0052321D02*
X0088033Y0052321D01*
X0087242Y0051122D02*
X0085958Y0051122D01*
X0086400Y0049924D02*
X0086800Y0049924D01*
X0086800Y0048725D02*
X0086400Y0048725D01*
X0086144Y0047527D02*
X0087056Y0047527D01*
X0087583Y0046328D02*
X0085616Y0046328D01*
X0084418Y0045130D02*
X0088782Y0045130D01*
X0094418Y0045130D02*
X0098782Y0045130D01*
X0097583Y0046328D02*
X0095616Y0046328D01*
X0096144Y0047527D02*
X0097056Y0047527D01*
X0096800Y0048725D02*
X0096400Y0048725D01*
X0096400Y0049924D02*
X0096800Y0049924D01*
X0097242Y0051122D02*
X0095958Y0051122D01*
X0095167Y0052321D02*
X0098033Y0052321D01*
X0099300Y0053519D02*
X0093900Y0053519D01*
X0093900Y0054718D02*
X0099300Y0054718D01*
X0099031Y0055916D02*
X0093900Y0055916D01*
X0093900Y0057115D02*
X0097832Y0057115D01*
X0096634Y0058313D02*
X0093900Y0058313D01*
X0093900Y0059512D02*
X0095435Y0059512D01*
X0094237Y0060710D02*
X0093242Y0060710D01*
X0093038Y0061909D02*
X0092044Y0061909D01*
X0091840Y0063107D02*
X0090845Y0063107D01*
X0090641Y0064306D02*
X0089647Y0064306D01*
X0089443Y0065504D02*
X0088900Y0065504D01*
X0088900Y0066703D02*
X0089300Y0066703D01*
X0089300Y0067901D02*
X0088900Y0067901D01*
X0088900Y0069100D02*
X0089300Y0069100D01*
X0089300Y0070299D02*
X0088900Y0070299D01*
X0088900Y0071497D02*
X0089300Y0071497D01*
X0089300Y0072696D02*
X0088900Y0072696D01*
X0088900Y0073894D02*
X0089300Y0073894D01*
X0089300Y0075093D02*
X0088900Y0075093D01*
X0088900Y0076291D02*
X0089300Y0076291D01*
X0089300Y0077490D02*
X0088900Y0077490D01*
X0088900Y0078688D02*
X0089300Y0078688D01*
X0089300Y0079887D02*
X0088900Y0079887D01*
X0088900Y0081085D02*
X0089300Y0081085D01*
X0089300Y0082284D02*
X0088900Y0082284D01*
X0088900Y0083482D02*
X0089300Y0083482D01*
X0089300Y0084681D02*
X0088900Y0084681D01*
X0088900Y0085879D02*
X0089300Y0085879D01*
X0089300Y0087078D02*
X0088900Y0087078D01*
X0088900Y0088276D02*
X0089300Y0088276D01*
X0089300Y0089475D02*
X0088900Y0089475D01*
X0088900Y0090673D02*
X0089300Y0090673D01*
X0089300Y0091872D02*
X0088900Y0091872D01*
X0088900Y0093070D02*
X0089300Y0093070D01*
X0089300Y0094269D02*
X0088900Y0094269D01*
X0088900Y0095467D02*
X0089300Y0095467D01*
X0089300Y0096666D02*
X0088900Y0096666D01*
X0088900Y0097864D02*
X0089300Y0097864D01*
X0089300Y0099063D02*
X0088900Y0099063D01*
X0088900Y0100261D02*
X0089300Y0100261D01*
X0089300Y0101460D02*
X0088900Y0101460D01*
X0088900Y0102658D02*
X0089300Y0102658D01*
X0089300Y0103857D02*
X0088900Y0103857D01*
X0088900Y0105055D02*
X0089300Y0105055D01*
X0089300Y0106254D02*
X0088900Y0106254D01*
X0088900Y0107452D02*
X0089300Y0107452D01*
X0089300Y0108651D02*
X0088900Y0108651D01*
X0088900Y0109849D02*
X0089300Y0109849D01*
X0089300Y0111048D02*
X0088900Y0111048D01*
X0088900Y0112246D02*
X0089300Y0112246D01*
X0089300Y0113445D02*
X0088900Y0113445D01*
X0088900Y0114643D02*
X0089300Y0114643D01*
X0089300Y0115842D02*
X0088900Y0115842D01*
X0088900Y0117040D02*
X0089300Y0117040D01*
X0089300Y0118239D02*
X0088900Y0118239D01*
X0088900Y0119437D02*
X0089300Y0119437D01*
X0089300Y0120636D02*
X0088900Y0120636D01*
X0088900Y0121834D02*
X0089300Y0121834D01*
X0089300Y0123033D02*
X0088900Y0123033D01*
X0088900Y0124232D02*
X0089300Y0124232D01*
X0089300Y0125430D02*
X0088900Y0125430D01*
X0088900Y0126629D02*
X0089300Y0126629D01*
X0089300Y0127827D02*
X0088900Y0127827D01*
X0088900Y0129026D02*
X0089300Y0129026D01*
X0089300Y0130224D02*
X0088900Y0130224D01*
X0088900Y0131423D02*
X0089300Y0131423D01*
X0089300Y0132621D02*
X0088900Y0132621D01*
X0088900Y0133820D02*
X0089300Y0133820D01*
X0089300Y0135018D02*
X0088900Y0135018D01*
X0088900Y0136217D02*
X0089300Y0136217D01*
X0089300Y0137415D02*
X0088900Y0137415D01*
X0088900Y0138614D02*
X0089300Y0138614D01*
X0089300Y0139812D02*
X0088900Y0139812D01*
X0088900Y0141011D02*
X0089300Y0141011D01*
X0089300Y0142209D02*
X0088900Y0142209D01*
X0088900Y0143408D02*
X0089300Y0143408D01*
X0089300Y0144606D02*
X0088900Y0144606D01*
X0088900Y0145805D02*
X0089300Y0145805D01*
X0089300Y0147003D02*
X0088900Y0147003D01*
X0088900Y0148202D02*
X0089300Y0148202D01*
X0089300Y0149400D02*
X0088900Y0149400D01*
X0088900Y0150599D02*
X0089300Y0150599D01*
X0089300Y0151797D02*
X0088900Y0151797D01*
X0089048Y0152996D02*
X0089300Y0152996D01*
X0089284Y0154194D02*
X0089300Y0154194D01*
X0089300Y0155393D02*
X0088970Y0155393D01*
X0089300Y0156591D02*
X0087600Y0156591D01*
X0086043Y0157790D02*
X0089300Y0157790D01*
X0089300Y0158988D02*
X0087241Y0158988D01*
X0088440Y0160187D02*
X0089434Y0160187D01*
X0088900Y0161385D02*
X0090633Y0161385D01*
X0091831Y0162584D02*
X0088900Y0162584D01*
X0088900Y0163782D02*
X0093030Y0163782D01*
X0094228Y0164981D02*
X0088900Y0164981D01*
X0090600Y0169100D02*
X0090600Y0180254D01*
X0092100Y0180754D01*
X0095168Y0180562D02*
X0096300Y0180562D01*
X0096300Y0181760D02*
X0095168Y0181760D01*
X0095168Y0182959D02*
X0096300Y0182959D01*
X0096300Y0184157D02*
X0088900Y0184157D01*
X0088900Y0182959D02*
X0089031Y0182959D01*
X0089031Y0181760D02*
X0088900Y0181760D01*
X0088900Y0185356D02*
X0089031Y0185356D01*
X0089031Y0186554D02*
X0088900Y0186554D01*
X0088900Y0187753D02*
X0089031Y0187753D01*
X0089031Y0188951D02*
X0088900Y0188951D01*
X0088900Y0190150D02*
X0089114Y0190150D01*
X0088900Y0191348D02*
X0096300Y0191348D01*
X0096300Y0190150D02*
X0095086Y0190150D01*
X0096300Y0192547D02*
X0088900Y0192547D01*
X0088900Y0193745D02*
X0096300Y0193745D01*
X0096300Y0194944D02*
X0095187Y0194944D01*
X0095668Y0196142D02*
X0096300Y0196142D01*
X0096300Y0197341D02*
X0095668Y0197341D01*
X0096300Y0198539D02*
X0092484Y0198539D01*
X0092484Y0197341D02*
X0091716Y0197341D01*
X0091716Y0196142D02*
X0092484Y0196142D01*
X0092484Y0194944D02*
X0091716Y0194944D01*
X0089013Y0194944D02*
X0088900Y0194944D01*
X0084300Y0194944D02*
X0084187Y0194944D01*
X0084300Y0193745D02*
X0076900Y0193745D01*
X0076900Y0192547D02*
X0084300Y0192547D01*
X0084300Y0191348D02*
X0076900Y0191348D01*
X0076900Y0190150D02*
X0078114Y0190150D01*
X0078921Y0194488D02*
X0078514Y0194597D01*
X0078149Y0194808D01*
X0077851Y0195106D01*
X0077641Y0195471D01*
X0077531Y0195878D01*
X0077531Y0197869D01*
X0080716Y0197869D01*
X0080716Y0194488D01*
X0078921Y0194488D01*
X0078013Y0194944D02*
X0076900Y0194944D01*
X0076900Y0196142D02*
X0077531Y0196142D01*
X0077531Y0197341D02*
X0076900Y0197341D01*
X0076900Y0198539D02*
X0080716Y0198539D01*
X0080716Y0197341D02*
X0081484Y0197341D01*
X0081484Y0196142D02*
X0080716Y0196142D01*
X0080716Y0194944D02*
X0081484Y0194944D01*
X0084086Y0190150D02*
X0084300Y0190150D01*
X0084300Y0188951D02*
X0084168Y0188951D01*
X0084168Y0187753D02*
X0084300Y0187753D01*
X0084300Y0186554D02*
X0084168Y0186554D01*
X0084168Y0185356D02*
X0084300Y0185356D01*
X0084300Y0184157D02*
X0076900Y0184157D01*
X0076900Y0182959D02*
X0078031Y0182959D01*
X0078031Y0181760D02*
X0076900Y0181760D01*
X0076900Y0180562D02*
X0078031Y0180562D01*
X0078031Y0179363D02*
X0076900Y0179363D01*
X0076900Y0178165D02*
X0078031Y0178165D01*
X0076900Y0176966D02*
X0080900Y0176966D01*
X0080900Y0175768D02*
X0076900Y0175768D01*
X0076900Y0174569D02*
X0080900Y0174569D01*
X0080900Y0173370D02*
X0076900Y0173370D01*
X0076900Y0172172D02*
X0080366Y0172172D01*
X0080250Y0170973D02*
X0076900Y0170973D01*
X0076900Y0169775D02*
X0080250Y0169775D01*
X0080250Y0168576D02*
X0076900Y0168576D01*
X0076976Y0167378D02*
X0080250Y0167378D01*
X0080250Y0166179D02*
X0077284Y0166179D01*
X0077042Y0164981D02*
X0084300Y0164981D01*
X0084300Y0163782D02*
X0076019Y0163782D01*
X0073181Y0163782D02*
X0068569Y0163782D01*
X0068200Y0164492D02*
X0068200Y0249100D01*
X0068334Y0251318D01*
X0069396Y0255625D01*
X0071457Y0259552D01*
X0074399Y0262873D01*
X0078049Y0265392D01*
X0082197Y0266965D01*
X0086600Y0267500D01*
X0091003Y0266965D01*
X0095151Y0265392D01*
X0098801Y0262873D01*
X0101743Y0259552D01*
X0103804Y0255625D01*
X0104866Y0251318D01*
X0105000Y0249100D01*
X0105000Y0164492D01*
X0102508Y0159705D01*
X0098431Y0148872D01*
X0095680Y0137629D01*
X0094294Y0126137D01*
X0094294Y0114563D01*
X0095680Y0103071D01*
X0098431Y0091828D01*
X0102508Y0080995D01*
X0105000Y0076208D01*
X0105000Y0068437D01*
X0105937Y0067500D01*
X0125000Y0067500D01*
X0125000Y0040700D01*
X0048200Y0040700D01*
X0048200Y0067500D01*
X0067263Y0067500D01*
X0068200Y0068437D01*
X0068200Y0076208D01*
X0070692Y0080995D01*
X0074769Y0091828D01*
X0077520Y0103071D01*
X0078906Y0114563D01*
X0078906Y0126137D01*
X0077520Y0137629D01*
X0077520Y0137629D01*
X0074769Y0148872D01*
X0074769Y0148872D01*
X0070692Y0159705D01*
X0070692Y0159705D01*
X0068200Y0164492D01*
X0068200Y0164981D02*
X0072158Y0164981D01*
X0071916Y0166179D02*
X0068200Y0166179D01*
X0068200Y0167378D02*
X0072224Y0167378D01*
X0072300Y0168576D02*
X0068200Y0168576D01*
X0068200Y0169775D02*
X0072300Y0169775D01*
X0072300Y0170973D02*
X0068200Y0170973D01*
X0068200Y0172172D02*
X0072300Y0172172D01*
X0072300Y0173370D02*
X0068200Y0173370D01*
X0068200Y0174569D02*
X0072300Y0174569D01*
X0072300Y0175768D02*
X0068200Y0175768D01*
X0068200Y0176966D02*
X0072300Y0176966D01*
X0072300Y0178165D02*
X0068200Y0178165D01*
X0068200Y0179363D02*
X0072300Y0179363D01*
X0072300Y0180562D02*
X0068200Y0180562D01*
X0068200Y0181760D02*
X0072300Y0181760D01*
X0072300Y0182959D02*
X0068200Y0182959D01*
X0068200Y0184157D02*
X0072300Y0184157D01*
X0072300Y0185356D02*
X0068200Y0185356D01*
X0068200Y0186554D02*
X0072300Y0186554D01*
X0072300Y0187753D02*
X0068200Y0187753D01*
X0068200Y0188951D02*
X0072300Y0188951D01*
X0072300Y0190150D02*
X0068200Y0190150D01*
X0068200Y0191348D02*
X0072300Y0191348D01*
X0072300Y0192547D02*
X0068200Y0192547D01*
X0068200Y0193745D02*
X0072300Y0193745D01*
X0072300Y0194944D02*
X0068200Y0194944D01*
X0068200Y0196142D02*
X0072300Y0196142D01*
X0072300Y0197341D02*
X0068200Y0197341D01*
X0068200Y0198539D02*
X0072300Y0198539D01*
X0072300Y0199738D02*
X0068200Y0199738D01*
X0068200Y0200936D02*
X0072300Y0200936D01*
X0072300Y0202135D02*
X0068200Y0202135D01*
X0068200Y0203333D02*
X0072300Y0203333D01*
X0072300Y0204532D02*
X0068200Y0204532D01*
X0068200Y0205730D02*
X0072300Y0205730D01*
X0072300Y0206929D02*
X0068200Y0206929D01*
X0068200Y0208127D02*
X0072300Y0208127D01*
X0072300Y0209326D02*
X0068200Y0209326D01*
X0068200Y0210524D02*
X0072300Y0210524D01*
X0072300Y0211723D02*
X0068200Y0211723D01*
X0068200Y0212921D02*
X0072300Y0212921D01*
X0072300Y0214120D02*
X0068200Y0214120D01*
X0068200Y0215318D02*
X0072300Y0215318D01*
X0072300Y0216517D02*
X0068200Y0216517D01*
X0068200Y0217715D02*
X0072300Y0217715D01*
X0072300Y0218914D02*
X0068200Y0218914D01*
X0068200Y0220112D02*
X0072300Y0220112D01*
X0072300Y0221311D02*
X0068200Y0221311D01*
X0068200Y0222509D02*
X0072300Y0222509D01*
X0072300Y0223708D02*
X0068200Y0223708D01*
X0068200Y0224906D02*
X0072300Y0224906D01*
X0072300Y0226105D02*
X0068200Y0226105D01*
X0068200Y0227303D02*
X0072300Y0227303D01*
X0072300Y0228502D02*
X0068200Y0228502D01*
X0068200Y0229701D02*
X0072300Y0229701D01*
X0072300Y0230899D02*
X0068200Y0230899D01*
X0068200Y0232098D02*
X0072300Y0232098D01*
X0072543Y0233296D02*
X0068200Y0233296D01*
X0068200Y0234495D02*
X0074308Y0234495D01*
X0075506Y0235693D02*
X0068200Y0235693D01*
X0068200Y0236892D02*
X0076705Y0236892D01*
X0077900Y0238090D02*
X0068200Y0238090D01*
X0068200Y0239289D02*
X0077900Y0239289D01*
X0078283Y0240487D02*
X0078583Y0240487D01*
X0079600Y0239100D02*
X0079600Y0237100D01*
X0087880Y0228820D01*
X0087880Y0225635D01*
X0087600Y0225915D01*
X0090439Y0225635D02*
X0090439Y0229439D01*
X0094100Y0233100D01*
X0094100Y0238100D01*
X0091561Y0240639D01*
X0089750Y0240639D01*
X0089749Y0242587D02*
X0087150Y0242587D01*
X0089749Y0242587D01*
X0089749Y0242587D01*
X0089750Y0242587D02*
X0092350Y0242587D01*
X0089750Y0242587D01*
X0089750Y0242587D01*
X0092350Y0242884D02*
X0105000Y0242884D01*
X0105000Y0241686D02*
X0092919Y0241686D01*
X0094117Y0240487D02*
X0105000Y0240487D01*
X0105000Y0239289D02*
X0095316Y0239289D01*
X0095800Y0238090D02*
X0105000Y0238090D01*
X0105000Y0236892D02*
X0095800Y0236892D01*
X0095800Y0235693D02*
X0105000Y0235693D01*
X0105000Y0234495D02*
X0095800Y0234495D01*
X0096591Y0233296D02*
X0105000Y0233296D01*
X0105000Y0232098D02*
X0097789Y0232098D01*
X0099554Y0230899D02*
X0105000Y0230899D01*
X0105000Y0229701D02*
X0100752Y0229701D01*
X0100900Y0228502D02*
X0105000Y0228502D01*
X0105000Y0227303D02*
X0100900Y0227303D01*
X0100900Y0226105D02*
X0105000Y0226105D01*
X0105000Y0224906D02*
X0100900Y0224906D01*
X0100900Y0223708D02*
X0105000Y0223708D01*
X0105000Y0222509D02*
X0100900Y0222509D01*
X0100900Y0221311D02*
X0105000Y0221311D01*
X0105000Y0220112D02*
X0100900Y0220112D01*
X0100900Y0218914D02*
X0105000Y0218914D01*
X0105000Y0217715D02*
X0100900Y0217715D01*
X0100900Y0216517D02*
X0105000Y0216517D01*
X0105000Y0215318D02*
X0100900Y0215318D01*
X0100900Y0214120D02*
X0105000Y0214120D01*
X0105000Y0212921D02*
X0100900Y0212921D01*
X0100900Y0211723D02*
X0105000Y0211723D01*
X0105000Y0210524D02*
X0100900Y0210524D01*
X0100900Y0209326D02*
X0105000Y0209326D01*
X0105000Y0208127D02*
X0100900Y0208127D01*
X0100900Y0206929D02*
X0105000Y0206929D01*
X0105000Y0205730D02*
X0100900Y0205730D01*
X0100900Y0204532D02*
X0105000Y0204532D01*
X0105000Y0203333D02*
X0100900Y0203333D01*
X0100900Y0202135D02*
X0105000Y0202135D01*
X0105000Y0200936D02*
X0100900Y0200936D01*
X0100900Y0199738D02*
X0105000Y0199738D01*
X0105000Y0198539D02*
X0100900Y0198539D01*
X0100900Y0197341D02*
X0105000Y0197341D01*
X0105000Y0196142D02*
X0100900Y0196142D01*
X0100900Y0194944D02*
X0105000Y0194944D01*
X0105000Y0193745D02*
X0100900Y0193745D01*
X0100900Y0192547D02*
X0105000Y0192547D01*
X0105000Y0191348D02*
X0100900Y0191348D01*
X0100900Y0190150D02*
X0105000Y0190150D01*
X0105000Y0188951D02*
X0100900Y0188951D01*
X0100900Y0187753D02*
X0105000Y0187753D01*
X0105000Y0186554D02*
X0100900Y0186554D01*
X0100900Y0185356D02*
X0105000Y0185356D01*
X0105000Y0184157D02*
X0100900Y0184157D01*
X0100900Y0182959D02*
X0105000Y0182959D01*
X0105000Y0181760D02*
X0100900Y0181760D01*
X0100900Y0180562D02*
X0105000Y0180562D01*
X0105000Y0179363D02*
X0100900Y0179363D01*
X0100900Y0178165D02*
X0105000Y0178165D01*
X0105000Y0176966D02*
X0100900Y0176966D01*
X0100900Y0175768D02*
X0105000Y0175768D01*
X0105000Y0174569D02*
X0100900Y0174569D01*
X0100900Y0173370D02*
X0105000Y0173370D01*
X0105000Y0172172D02*
X0100900Y0172172D01*
X0100900Y0170973D02*
X0105000Y0170973D01*
X0105000Y0169775D02*
X0100900Y0169775D01*
X0100900Y0168576D02*
X0105000Y0168576D01*
X0105000Y0167378D02*
X0100900Y0167378D01*
X0100900Y0166179D02*
X0105000Y0166179D01*
X0105000Y0164981D02*
X0100734Y0164981D01*
X0099535Y0163782D02*
X0104631Y0163782D01*
X0104007Y0162584D02*
X0098337Y0162584D01*
X0097138Y0161385D02*
X0103383Y0161385D01*
X0102759Y0160187D02*
X0095940Y0160187D01*
X0094741Y0158988D02*
X0102239Y0158988D01*
X0102508Y0159705D02*
X0102508Y0159705D01*
X0101788Y0157790D02*
X0093900Y0157790D01*
X0093900Y0156591D02*
X0101336Y0156591D01*
X0100885Y0155393D02*
X0093900Y0155393D01*
X0093900Y0154194D02*
X0100434Y0154194D01*
X0099983Y0152996D02*
X0093900Y0152996D01*
X0093900Y0151797D02*
X0099532Y0151797D01*
X0099081Y0150599D02*
X0093900Y0150599D01*
X0093900Y0149400D02*
X0098630Y0149400D01*
X0098431Y0148872D02*
X0098431Y0148872D01*
X0098267Y0148202D02*
X0093900Y0148202D01*
X0093900Y0147003D02*
X0097974Y0147003D01*
X0097681Y0145805D02*
X0093900Y0145805D01*
X0093900Y0144606D02*
X0097387Y0144606D01*
X0097094Y0143408D02*
X0093900Y0143408D01*
X0093900Y0142209D02*
X0096801Y0142209D01*
X0096507Y0141011D02*
X0093900Y0141011D01*
X0093900Y0139812D02*
X0096214Y0139812D01*
X0095921Y0138614D02*
X0093900Y0138614D01*
X0093900Y0137415D02*
X0095654Y0137415D01*
X0095680Y0137629D02*
X0095680Y0137629D01*
X0095510Y0136217D02*
X0093900Y0136217D01*
X0093900Y0135018D02*
X0095365Y0135018D01*
X0095221Y0133820D02*
X0093900Y0133820D01*
X0093900Y0132621D02*
X0095076Y0132621D01*
X0094932Y0131423D02*
X0093900Y0131423D01*
X0093900Y0130224D02*
X0094787Y0130224D01*
X0094643Y0129026D02*
X0093900Y0129026D01*
X0093900Y0127827D02*
X0094498Y0127827D01*
X0094354Y0126629D02*
X0093900Y0126629D01*
X0093900Y0125430D02*
X0094294Y0125430D01*
X0094294Y0124232D02*
X0093900Y0124232D01*
X0093900Y0123033D02*
X0094294Y0123033D01*
X0094294Y0121834D02*
X0093900Y0121834D01*
X0093900Y0120636D02*
X0094294Y0120636D01*
X0094294Y0119437D02*
X0093900Y0119437D01*
X0093900Y0118239D02*
X0094294Y0118239D01*
X0094294Y0117040D02*
X0093900Y0117040D01*
X0093900Y0115842D02*
X0094294Y0115842D01*
X0094294Y0114643D02*
X0093900Y0114643D01*
X0093900Y0113445D02*
X0094429Y0113445D01*
X0094574Y0112246D02*
X0093900Y0112246D01*
X0093900Y0111048D02*
X0094718Y0111048D01*
X0094863Y0109849D02*
X0093900Y0109849D01*
X0093900Y0108651D02*
X0095007Y0108651D01*
X0095152Y0107452D02*
X0093900Y0107452D01*
X0093900Y0106254D02*
X0095296Y0106254D01*
X0095441Y0105055D02*
X0093900Y0105055D01*
X0093900Y0103857D02*
X0095585Y0103857D01*
X0095781Y0102658D02*
X0093900Y0102658D01*
X0093900Y0101460D02*
X0096074Y0101460D01*
X0096367Y0100261D02*
X0093900Y0100261D01*
X0093900Y0099063D02*
X0096661Y0099063D01*
X0096954Y0097864D02*
X0093900Y0097864D01*
X0093900Y0096666D02*
X0097247Y0096666D01*
X0097541Y0095467D02*
X0093900Y0095467D01*
X0093900Y0094269D02*
X0097834Y0094269D01*
X0098127Y0093070D02*
X0093900Y0093070D01*
X0093900Y0091872D02*
X0098420Y0091872D01*
X0098866Y0090673D02*
X0093900Y0090673D01*
X0093900Y0089475D02*
X0099317Y0089475D01*
X0099768Y0088276D02*
X0093900Y0088276D01*
X0093900Y0087078D02*
X0100219Y0087078D01*
X0100670Y0085879D02*
X0093900Y0085879D01*
X0093900Y0084681D02*
X0101121Y0084681D01*
X0101572Y0083482D02*
X0093900Y0083482D01*
X0093900Y0082284D02*
X0102023Y0082284D01*
X0102474Y0081085D02*
X0093900Y0081085D01*
X0093900Y0079887D02*
X0103085Y0079887D01*
X0103709Y0078688D02*
X0093900Y0078688D01*
X0093900Y0077490D02*
X0104333Y0077490D01*
X0104957Y0076291D02*
X0093900Y0076291D01*
X0093900Y0075093D02*
X0105000Y0075093D01*
X0105000Y0073894D02*
X0093900Y0073894D01*
X0093900Y0072696D02*
X0105000Y0072696D01*
X0105000Y0071497D02*
X0093900Y0071497D01*
X0093900Y0070299D02*
X0105000Y0070299D01*
X0105000Y0069100D02*
X0093900Y0069100D01*
X0093900Y0067901D02*
X0105536Y0067901D01*
X0100742Y0060710D02*
X0125000Y0060710D01*
X0125000Y0059512D02*
X0101941Y0059512D01*
X0103139Y0058313D02*
X0125000Y0058313D01*
X0125000Y0057115D02*
X0103900Y0057115D01*
X0103900Y0055916D02*
X0125000Y0055916D01*
X0125000Y0054718D02*
X0103900Y0054718D01*
X0103900Y0053519D02*
X0125000Y0053519D01*
X0125000Y0052321D02*
X0105167Y0052321D01*
X0105958Y0051122D02*
X0125000Y0051122D01*
X0125000Y0049924D02*
X0106400Y0049924D01*
X0106400Y0048725D02*
X0125000Y0048725D01*
X0125000Y0047527D02*
X0106144Y0047527D01*
X0105616Y0046328D02*
X0125000Y0046328D01*
X0125000Y0045130D02*
X0104418Y0045130D01*
X0099544Y0061909D02*
X0125000Y0061909D01*
X0125000Y0063107D02*
X0098345Y0063107D01*
X0097147Y0064306D02*
X0125000Y0064306D01*
X0125000Y0065504D02*
X0095948Y0065504D01*
X0094750Y0066703D02*
X0125000Y0066703D01*
X0125000Y0043931D02*
X0072843Y0043931D01*
X0072000Y0043931D02*
X0071200Y0043931D01*
X0071200Y0043800D02*
X0071200Y0048700D01*
X0066300Y0048700D01*
X0066300Y0048683D01*
X0066430Y0047859D01*
X0066688Y0047066D01*
X0067067Y0046322D01*
X0067557Y0045647D01*
X0068147Y0045057D01*
X0068822Y0044567D01*
X0069566Y0044188D01*
X0070359Y0043930D01*
X0071183Y0043800D01*
X0071200Y0043800D01*
X0070357Y0043931D02*
X0048200Y0043931D01*
X0048200Y0042733D02*
X0125000Y0042733D01*
X0125000Y0041534D02*
X0048200Y0041534D01*
X0048200Y0045130D02*
X0068075Y0045130D01*
X0067064Y0046328D02*
X0048200Y0046328D01*
X0048200Y0047527D02*
X0066538Y0047527D01*
X0066364Y0049924D02*
X0048200Y0049924D01*
X0048200Y0051122D02*
X0066684Y0051122D01*
X0067389Y0052321D02*
X0048200Y0052321D01*
X0048200Y0053519D02*
X0068666Y0053519D01*
X0071200Y0053519D02*
X0072000Y0053519D01*
X0072000Y0052321D02*
X0071200Y0052321D01*
X0071200Y0051122D02*
X0072000Y0051122D01*
X0072000Y0049924D02*
X0071200Y0049924D01*
X0071200Y0048725D02*
X0048200Y0048725D01*
X0048200Y0054718D02*
X0079300Y0054718D01*
X0079300Y0055916D02*
X0048200Y0055916D01*
X0048200Y0057115D02*
X0079300Y0057115D01*
X0079300Y0058313D02*
X0048200Y0058313D01*
X0048200Y0059512D02*
X0079300Y0059512D01*
X0079300Y0060710D02*
X0048200Y0060710D01*
X0048200Y0061909D02*
X0079300Y0061909D01*
X0079300Y0063107D02*
X0048200Y0063107D01*
X0048200Y0064306D02*
X0079300Y0064306D01*
X0079300Y0065504D02*
X0048200Y0065504D01*
X0048200Y0066703D02*
X0079300Y0066703D01*
X0079300Y0067901D02*
X0067664Y0067901D01*
X0068200Y0069100D02*
X0079300Y0069100D01*
X0079300Y0070299D02*
X0068200Y0070299D01*
X0068200Y0071497D02*
X0079300Y0071497D01*
X0079300Y0072696D02*
X0068200Y0072696D01*
X0068200Y0073894D02*
X0079300Y0073894D01*
X0079300Y0075093D02*
X0068200Y0075093D01*
X0068243Y0076291D02*
X0079300Y0076291D01*
X0079300Y0077490D02*
X0068867Y0077490D01*
X0069491Y0078688D02*
X0079300Y0078688D01*
X0079300Y0079887D02*
X0070115Y0079887D01*
X0070692Y0080995D02*
X0070692Y0080995D01*
X0070726Y0081085D02*
X0079300Y0081085D01*
X0079300Y0082284D02*
X0071177Y0082284D01*
X0071628Y0083482D02*
X0079300Y0083482D01*
X0079300Y0084681D02*
X0072079Y0084681D01*
X0072530Y0085879D02*
X0079300Y0085879D01*
X0079300Y0087078D02*
X0072981Y0087078D01*
X0073432Y0088276D02*
X0079300Y0088276D01*
X0079300Y0089475D02*
X0073883Y0089475D01*
X0074334Y0090673D02*
X0079300Y0090673D01*
X0079300Y0091872D02*
X0074780Y0091872D01*
X0074769Y0091828D02*
X0074769Y0091828D01*
X0075073Y0093070D02*
X0079300Y0093070D01*
X0079300Y0094269D02*
X0075366Y0094269D01*
X0075659Y0095467D02*
X0079300Y0095467D01*
X0079300Y0096666D02*
X0075953Y0096666D01*
X0076246Y0097864D02*
X0079300Y0097864D01*
X0079300Y0099063D02*
X0076539Y0099063D01*
X0076832Y0100261D02*
X0079300Y0100261D01*
X0079300Y0101460D02*
X0077126Y0101460D01*
X0077419Y0102658D02*
X0079300Y0102658D01*
X0079300Y0103857D02*
X0077615Y0103857D01*
X0077520Y0103071D02*
X0077520Y0103071D01*
X0077759Y0105055D02*
X0079300Y0105055D01*
X0079300Y0106254D02*
X0077904Y0106254D01*
X0078048Y0107452D02*
X0079300Y0107452D01*
X0079300Y0108651D02*
X0078193Y0108651D01*
X0078337Y0109849D02*
X0079300Y0109849D01*
X0079300Y0111048D02*
X0078482Y0111048D01*
X0078626Y0112246D02*
X0079300Y0112246D01*
X0079300Y0113445D02*
X0078771Y0113445D01*
X0078906Y0114643D02*
X0079300Y0114643D01*
X0079300Y0115842D02*
X0078906Y0115842D01*
X0078906Y0117040D02*
X0079300Y0117040D01*
X0079300Y0118239D02*
X0078906Y0118239D01*
X0078906Y0119437D02*
X0079300Y0119437D01*
X0079300Y0120636D02*
X0078906Y0120636D01*
X0078906Y0121834D02*
X0079300Y0121834D01*
X0079300Y0123033D02*
X0078906Y0123033D01*
X0078906Y0124232D02*
X0079300Y0124232D01*
X0079300Y0125430D02*
X0078906Y0125430D01*
X0078846Y0126629D02*
X0079300Y0126629D01*
X0079300Y0127827D02*
X0078702Y0127827D01*
X0078557Y0129026D02*
X0079300Y0129026D01*
X0079300Y0130224D02*
X0078413Y0130224D01*
X0078268Y0131423D02*
X0079300Y0131423D01*
X0079300Y0132621D02*
X0078124Y0132621D01*
X0077979Y0133820D02*
X0079300Y0133820D01*
X0079300Y0135018D02*
X0077835Y0135018D01*
X0077690Y0136217D02*
X0079300Y0136217D01*
X0079300Y0137415D02*
X0077546Y0137415D01*
X0077279Y0138614D02*
X0079300Y0138614D01*
X0079300Y0139812D02*
X0076986Y0139812D01*
X0076693Y0141011D02*
X0079300Y0141011D01*
X0079300Y0142209D02*
X0076399Y0142209D01*
X0076106Y0143408D02*
X0079300Y0143408D01*
X0079300Y0144606D02*
X0075813Y0144606D01*
X0075519Y0145805D02*
X0079300Y0145805D01*
X0079300Y0147003D02*
X0075226Y0147003D01*
X0074933Y0148202D02*
X0079300Y0148202D01*
X0079300Y0149400D02*
X0074570Y0149400D01*
X0074119Y0150599D02*
X0079300Y0150599D01*
X0079300Y0151797D02*
X0073668Y0151797D01*
X0073217Y0152996D02*
X0079300Y0152996D01*
X0079300Y0154194D02*
X0072766Y0154194D01*
X0072315Y0155393D02*
X0079300Y0155393D01*
X0079300Y0156591D02*
X0071864Y0156591D01*
X0071412Y0157790D02*
X0079537Y0157790D01*
X0080736Y0158988D02*
X0070961Y0158988D01*
X0070441Y0160187D02*
X0081934Y0160187D01*
X0083133Y0161385D02*
X0069817Y0161385D01*
X0069193Y0162584D02*
X0084300Y0162584D01*
X0082600Y0169100D02*
X0082600Y0180254D01*
X0081100Y0180754D01*
X0084300Y0180655D02*
X0084300Y0180655D01*
X0084300Y0181760D02*
X0084168Y0181760D01*
X0084168Y0182959D02*
X0084300Y0182959D01*
X0092300Y0176966D02*
X0096300Y0176966D01*
X0096300Y0175768D02*
X0092300Y0175768D01*
X0092300Y0174569D02*
X0096300Y0174569D01*
X0096300Y0173370D02*
X0092300Y0173370D01*
X0092834Y0172172D02*
X0096300Y0172172D01*
X0096300Y0170973D02*
X0092950Y0170973D01*
X0092950Y0169775D02*
X0096300Y0169775D01*
X0096300Y0168576D02*
X0092950Y0168576D01*
X0092950Y0167378D02*
X0096300Y0167378D01*
X0095427Y0166179D02*
X0092950Y0166179D01*
X0095168Y0178165D02*
X0096300Y0178165D01*
X0096300Y0179363D02*
X0095168Y0179363D01*
X0095668Y0199738D02*
X0096300Y0199738D01*
X0096300Y0200936D02*
X0095586Y0200936D01*
X0094978Y0202135D02*
X0096300Y0202135D01*
X0096300Y0203333D02*
X0095168Y0203333D01*
X0095168Y0204532D02*
X0096300Y0204532D01*
X0096300Y0205730D02*
X0095168Y0205730D01*
X0095168Y0206929D02*
X0096300Y0206929D01*
X0096300Y0208127D02*
X0094609Y0208127D01*
X0094000Y0209326D02*
X0096300Y0209326D01*
X0096300Y0210524D02*
X0094000Y0210524D01*
X0094000Y0211723D02*
X0096300Y0211723D01*
X0096300Y0212921D02*
X0092966Y0212921D01*
X0092339Y0214120D02*
X0096300Y0214120D01*
X0096300Y0215318D02*
X0092339Y0215318D01*
X0092339Y0216517D02*
X0096300Y0216517D01*
X0096300Y0217715D02*
X0092339Y0217715D01*
X0092228Y0218914D02*
X0096300Y0218914D01*
X0096300Y0220112D02*
X0089580Y0220112D01*
X0089580Y0221311D02*
X0096300Y0221311D01*
X0096300Y0222509D02*
X0088595Y0222509D01*
X0087880Y0220820D02*
X0085320Y0223380D01*
X0085320Y0225635D01*
X0082761Y0225636D02*
X0082761Y0228220D01*
X0082761Y0225636D01*
X0082761Y0225636D01*
X0082761Y0226105D02*
X0082761Y0226105D01*
X0082761Y0227303D02*
X0082761Y0227303D01*
X0080620Y0227303D02*
X0076900Y0227303D01*
X0076900Y0226105D02*
X0080472Y0226105D01*
X0080472Y0224906D02*
X0076900Y0224906D01*
X0076900Y0223708D02*
X0080769Y0223708D01*
X0082761Y0223708D02*
X0082761Y0223708D01*
X0082761Y0224906D02*
X0082761Y0224906D01*
X0083786Y0222509D02*
X0076900Y0222509D01*
X0076900Y0221311D02*
X0084985Y0221311D01*
X0085320Y0220112D02*
X0085321Y0220112D01*
X0084285Y0220112D02*
X0076900Y0220112D01*
X0076900Y0218914D02*
X0080972Y0218914D01*
X0080861Y0217715D02*
X0076900Y0217715D01*
X0076900Y0216517D02*
X0080861Y0216517D01*
X0080861Y0215318D02*
X0076900Y0215318D01*
X0076900Y0214120D02*
X0080861Y0214120D01*
X0080861Y0212921D02*
X0076900Y0212921D01*
X0076900Y0211723D02*
X0081290Y0211723D01*
X0082489Y0210524D02*
X0076900Y0210524D01*
X0076900Y0209326D02*
X0083687Y0209326D01*
X0083609Y0208127D02*
X0084700Y0208127D01*
X0085980Y0212407D02*
X0084661Y0213726D01*
X0084661Y0214980D01*
X0085320Y0214980D01*
X0085320Y0217564D01*
X0085321Y0217564D01*
X0085321Y0214980D01*
X0085980Y0214980D01*
X0085980Y0212407D01*
X0085980Y0212921D02*
X0085466Y0212921D01*
X0085980Y0214120D02*
X0084661Y0214120D01*
X0085320Y0215318D02*
X0085321Y0215318D01*
X0085320Y0216517D02*
X0085321Y0216517D01*
X0085320Y0217715D02*
X0085321Y0217715D01*
X0085320Y0218914D02*
X0085321Y0218914D01*
X0087880Y0217565D02*
X0087880Y0220820D01*
X0090439Y0225635D02*
X0090600Y0225797D01*
X0092300Y0226105D02*
X0096300Y0226105D01*
X0096300Y0227303D02*
X0092139Y0227303D01*
X0092139Y0228502D02*
X0096011Y0228502D01*
X0094812Y0229701D02*
X0093105Y0229701D01*
X0091892Y0233296D02*
X0085808Y0233296D01*
X0084610Y0234495D02*
X0092400Y0234495D01*
X0092400Y0235693D02*
X0083411Y0235693D01*
X0082213Y0236892D02*
X0092400Y0236892D01*
X0091706Y0238090D02*
X0081300Y0238090D01*
X0079600Y0239100D02*
X0081139Y0240639D01*
X0083543Y0240639D01*
X0083543Y0242587D02*
X0083530Y0242600D01*
X0076600Y0242600D01*
X0074073Y0241686D02*
X0068200Y0241686D01*
X0068200Y0242884D02*
X0073916Y0242884D01*
X0074309Y0244083D02*
X0068200Y0244083D01*
X0068200Y0245281D02*
X0076059Y0245281D01*
X0077141Y0245281D02*
X0078015Y0245281D01*
X0077400Y0246480D02*
X0068200Y0246480D01*
X0068200Y0247678D02*
X0077400Y0247678D01*
X0077400Y0248877D02*
X0068200Y0248877D01*
X0068259Y0250075D02*
X0077400Y0250075D01*
X0076031Y0251274D02*
X0068331Y0251274D01*
X0068619Y0252472D02*
X0076031Y0252472D01*
X0076031Y0253671D02*
X0068914Y0253671D01*
X0069209Y0254869D02*
X0076031Y0254869D01*
X0076031Y0256068D02*
X0069628Y0256068D01*
X0070257Y0257266D02*
X0075884Y0257266D01*
X0075531Y0258465D02*
X0070886Y0258465D01*
X0071555Y0259663D02*
X0075531Y0259663D01*
X0075531Y0260862D02*
X0072617Y0260862D01*
X0073679Y0262060D02*
X0075531Y0262060D01*
X0075658Y0263259D02*
X0074958Y0263259D01*
X0076694Y0264457D02*
X0096506Y0264457D01*
X0096279Y0263712D02*
X0096686Y0263603D01*
X0097051Y0263392D01*
X0097349Y0263094D01*
X0097559Y0262729D01*
X0097668Y0262322D01*
X0097668Y0260331D01*
X0094484Y0260331D01*
X0093716Y0260331D01*
X0093716Y0263712D01*
X0091921Y0263712D01*
X0091514Y0263603D01*
X0091149Y0263392D01*
X0090851Y0263094D01*
X0090641Y0262729D01*
X0090531Y0262322D01*
X0090531Y0260331D01*
X0093716Y0260331D01*
X0093716Y0259562D01*
X0090531Y0259562D01*
X0090531Y0257570D01*
X0090641Y0257164D01*
X0090851Y0256799D01*
X0091149Y0256501D01*
X0091472Y0256315D01*
X0091031Y0255875D01*
X0091031Y0255491D01*
X0088338Y0255436D01*
X0088232Y0255542D01*
X0087173Y0255981D01*
X0086027Y0255981D01*
X0084968Y0255542D01*
X0084158Y0254732D01*
X0083719Y0253673D01*
X0083719Y0252527D01*
X0084158Y0251468D01*
X0084968Y0250658D01*
X0086027Y0250219D01*
X0087173Y0250219D01*
X0088232Y0250658D01*
X0088411Y0250837D01*
X0091031Y0250890D01*
X0091031Y0250633D01*
X0091676Y0249988D01*
X0096524Y0249988D01*
X0097168Y0250633D01*
X0097168Y0255875D01*
X0096728Y0256315D01*
X0097051Y0256501D01*
X0097349Y0256799D01*
X0097559Y0257164D01*
X0097668Y0257570D01*
X0097668Y0259562D01*
X0094484Y0259562D01*
X0094484Y0260331D01*
X0094484Y0263712D01*
X0096279Y0263712D01*
X0097184Y0263259D02*
X0098242Y0263259D01*
X0097668Y0262060D02*
X0099521Y0262060D01*
X0100583Y0260862D02*
X0097668Y0260862D01*
X0097668Y0258465D02*
X0102314Y0258465D01*
X0102943Y0257266D02*
X0097587Y0257266D01*
X0096975Y0256068D02*
X0103572Y0256068D01*
X0103990Y0254869D02*
X0097168Y0254869D01*
X0097168Y0253671D02*
X0104286Y0253671D01*
X0104581Y0252472D02*
X0097168Y0252472D01*
X0097168Y0251274D02*
X0104869Y0251274D01*
X0104941Y0250075D02*
X0096611Y0250075D01*
X0091589Y0250075D02*
X0080800Y0250075D01*
X0080800Y0248877D02*
X0105000Y0248877D01*
X0105000Y0247678D02*
X0080800Y0247678D01*
X0081624Y0246480D02*
X0105000Y0246480D01*
X0105000Y0245281D02*
X0091850Y0245281D01*
X0092007Y0244083D02*
X0105000Y0244083D01*
X0101645Y0259663D02*
X0094484Y0259663D01*
X0093716Y0259663D02*
X0082668Y0259663D01*
X0082668Y0260831D02*
X0082668Y0262822D01*
X0082559Y0263229D01*
X0082349Y0263594D01*
X0082051Y0263892D01*
X0081686Y0264103D01*
X0081279Y0264212D01*
X0079484Y0264212D01*
X0079484Y0260831D01*
X0082668Y0260831D01*
X0082668Y0260862D02*
X0090531Y0260862D01*
X0090531Y0262060D02*
X0082668Y0262060D01*
X0082542Y0263259D02*
X0091016Y0263259D01*
X0091296Y0266854D02*
X0081904Y0266854D01*
X0078744Y0265656D02*
X0094456Y0265656D01*
X0094484Y0263259D02*
X0093716Y0263259D01*
X0093716Y0262060D02*
X0094484Y0262060D01*
X0094484Y0260862D02*
X0093716Y0260862D01*
X0090531Y0258465D02*
X0082668Y0258465D01*
X0082316Y0257266D02*
X0090613Y0257266D01*
X0091225Y0256068D02*
X0082168Y0256068D01*
X0082168Y0254869D02*
X0084295Y0254869D01*
X0083719Y0253671D02*
X0082168Y0253671D01*
X0082168Y0252472D02*
X0083742Y0252472D01*
X0084352Y0251274D02*
X0082168Y0251274D01*
X0079100Y0253754D02*
X0079100Y0246600D01*
X0081100Y0244600D01*
X0083535Y0244600D01*
X0083543Y0244591D01*
X0085643Y0244083D02*
X0087493Y0244083D01*
X0087650Y0245281D02*
X0085643Y0245281D01*
X0085643Y0242884D02*
X0087150Y0242884D01*
X0087203Y0241686D02*
X0085643Y0241686D01*
X0085643Y0240487D02*
X0087650Y0240487D01*
X0088055Y0239289D02*
X0085238Y0239289D01*
X0081000Y0233296D02*
X0078483Y0233296D01*
X0077285Y0232098D02*
X0082198Y0232098D01*
X0083397Y0230899D02*
X0076900Y0230899D01*
X0076900Y0229701D02*
X0084595Y0229701D01*
X0085794Y0228502D02*
X0076900Y0228502D01*
X0079682Y0234495D02*
X0079801Y0234495D01*
X0074917Y0240487D02*
X0068200Y0240487D01*
X0078716Y0260862D02*
X0079484Y0260862D01*
X0079484Y0262060D02*
X0078716Y0262060D01*
X0078716Y0263259D02*
X0079484Y0263259D01*
X0087007Y0232098D02*
X0090693Y0232098D01*
X0089495Y0230899D02*
X0088205Y0230899D01*
X0092228Y0224906D02*
X0096300Y0224906D01*
X0096300Y0223708D02*
X0091740Y0223708D01*
X0078591Y0208127D02*
X0076900Y0208127D01*
X0076900Y0206929D02*
X0078031Y0206929D01*
X0078031Y0205730D02*
X0076900Y0205730D01*
X0076900Y0204532D02*
X0078031Y0204532D01*
X0078031Y0203333D02*
X0076900Y0203333D01*
X0076900Y0202135D02*
X0078222Y0202135D01*
X0077614Y0200936D02*
X0076900Y0200936D01*
X0076900Y0199738D02*
X0077531Y0199738D01*
X0079300Y0053519D02*
X0074534Y0053519D01*
X0075811Y0052321D02*
X0078033Y0052321D01*
X0077242Y0051122D02*
X0076516Y0051122D01*
X0076662Y0047527D02*
X0077056Y0047527D01*
X0077583Y0046328D02*
X0076136Y0046328D01*
X0075125Y0045130D02*
X0078782Y0045130D01*
X0072000Y0045130D02*
X0071200Y0045130D01*
X0071200Y0046328D02*
X0072000Y0046328D01*
X0072000Y0047527D02*
X0071200Y0047527D01*
D19*
X0081600Y0049100D02*
X0081600Y0156600D01*
X0086600Y0161600D01*
X0086600Y0169100D01*
X0086600Y0205100D01*
X0081100Y0187446D02*
X0074600Y0187446D01*
X0074600Y0232100D01*
X0086600Y0253100D02*
X0094100Y0253254D01*
X0098600Y0228600D02*
X0098600Y0187446D01*
X0098600Y0166100D01*
X0091600Y0159100D01*
X0091600Y0066600D01*
X0101600Y0056600D01*
X0101600Y0049100D01*
X0091600Y0049100D02*
X0091600Y0059100D01*
X0086600Y0064100D01*
X0086600Y0154100D01*
X0074600Y0166100D02*
X0074600Y0187446D01*
X0092100Y0187446D02*
X0098600Y0187446D01*
D20*
X0092100Y0204946D02*
X0092100Y0211100D01*
X0090439Y0212761D01*
X0090439Y0217565D01*
X0087880Y0217565D02*
X0087880Y0210380D01*
X0086600Y0209100D01*
X0082761Y0212939D01*
X0082761Y0217565D01*
X0086600Y0209100D02*
X0086600Y0205100D01*
X0081254Y0205100D01*
X0081100Y0204946D01*
X0074600Y0232100D02*
X0079600Y0237100D01*
X0094100Y0233100D02*
X0098600Y0228600D01*
D21*
X0086600Y0205100D03*
X0086600Y0253100D03*
M02*
