G75*
%MOIN*%
%OFA0B0*%
%FSLAX25Y25*%
%IPPOS*%
%LPD*%
%AMOC8*
5,1,8,0,0,1.08239X$1,22.5*
%
%ADD10C,0.00000*%
D10*
X0046600Y0039100D02*
X0046600Y0069100D01*
X0066600Y0069100D01*
X0066600Y0076600D01*
X0046600Y0039100D02*
X0126600Y0039100D01*
X0126600Y0069100D01*
X0106600Y0069100D01*
X0106600Y0076600D01*
X0106600Y0164100D02*
X0106600Y0249100D01*
X0106594Y0249587D01*
X0106576Y0250074D01*
X0106547Y0250560D01*
X0106505Y0251045D01*
X0106452Y0251529D01*
X0106387Y0252012D01*
X0106310Y0252493D01*
X0106222Y0252972D01*
X0106122Y0253449D01*
X0106010Y0253923D01*
X0105887Y0254394D01*
X0105752Y0254862D01*
X0105606Y0255327D01*
X0105449Y0255788D01*
X0105280Y0256245D01*
X0105101Y0256697D01*
X0104910Y0257146D01*
X0104709Y0257589D01*
X0104497Y0258028D01*
X0104274Y0258461D01*
X0104041Y0258888D01*
X0103797Y0259310D01*
X0103544Y0259726D01*
X0103280Y0260135D01*
X0103006Y0260538D01*
X0102723Y0260934D01*
X0102430Y0261323D01*
X0102128Y0261705D01*
X0101816Y0262080D01*
X0101495Y0262446D01*
X0101166Y0262805D01*
X0100828Y0263156D01*
X0100481Y0263498D01*
X0100127Y0263832D01*
X0099764Y0264157D01*
X0099393Y0264473D01*
X0099015Y0264780D01*
X0098630Y0265078D01*
X0098237Y0265366D01*
X0097838Y0265644D01*
X0097431Y0265913D01*
X0097019Y0266172D01*
X0096600Y0266421D01*
X0096175Y0266659D01*
X0095745Y0266887D01*
X0095309Y0267104D01*
X0094868Y0267311D01*
X0094422Y0267507D01*
X0093972Y0267692D01*
X0093517Y0267866D01*
X0093058Y0268029D01*
X0092595Y0268180D01*
X0092128Y0268321D01*
X0091659Y0268450D01*
X0091186Y0268567D01*
X0090711Y0268673D01*
X0090233Y0268767D01*
X0089753Y0268850D01*
X0089271Y0268921D01*
X0088787Y0268980D01*
X0088303Y0269027D01*
X0087817Y0269063D01*
X0087330Y0269087D01*
X0086844Y0269099D01*
X0086356Y0269099D01*
X0085870Y0269087D01*
X0085383Y0269063D01*
X0084897Y0269027D01*
X0084413Y0268980D01*
X0083929Y0268921D01*
X0083447Y0268850D01*
X0082967Y0268767D01*
X0082489Y0268673D01*
X0082014Y0268567D01*
X0081541Y0268450D01*
X0081072Y0268321D01*
X0080605Y0268180D01*
X0080142Y0268029D01*
X0079683Y0267866D01*
X0079228Y0267692D01*
X0078778Y0267507D01*
X0078332Y0267311D01*
X0077891Y0267104D01*
X0077455Y0266887D01*
X0077025Y0266659D01*
X0076600Y0266421D01*
X0076181Y0266172D01*
X0075769Y0265913D01*
X0075362Y0265644D01*
X0074963Y0265366D01*
X0074570Y0265078D01*
X0074185Y0264780D01*
X0073807Y0264473D01*
X0073436Y0264157D01*
X0073073Y0263832D01*
X0072719Y0263498D01*
X0072372Y0263156D01*
X0072034Y0262805D01*
X0071705Y0262446D01*
X0071384Y0262080D01*
X0071072Y0261705D01*
X0070770Y0261323D01*
X0070477Y0260934D01*
X0070194Y0260538D01*
X0069920Y0260135D01*
X0069656Y0259726D01*
X0069403Y0259310D01*
X0069159Y0258888D01*
X0068926Y0258461D01*
X0068703Y0258028D01*
X0068491Y0257589D01*
X0068290Y0257146D01*
X0068099Y0256697D01*
X0067920Y0256245D01*
X0067751Y0255788D01*
X0067594Y0255327D01*
X0067448Y0254862D01*
X0067313Y0254394D01*
X0067190Y0253923D01*
X0067078Y0253449D01*
X0066978Y0252972D01*
X0066890Y0252493D01*
X0066813Y0252012D01*
X0066748Y0251529D01*
X0066695Y0251045D01*
X0066653Y0250560D01*
X0066624Y0250074D01*
X0066606Y0249587D01*
X0066600Y0249100D01*
X0066600Y0164100D01*
X0067626Y0162071D01*
X0068603Y0160018D01*
X0069530Y0157941D01*
X0070407Y0155844D01*
X0071233Y0153725D01*
X0072008Y0151588D01*
X0072732Y0149432D01*
X0073404Y0147260D01*
X0074024Y0145072D01*
X0074591Y0142871D01*
X0075105Y0140656D01*
X0075565Y0138429D01*
X0075972Y0136192D01*
X0076325Y0133946D01*
X0076625Y0131692D01*
X0076870Y0129431D01*
X0077061Y0127166D01*
X0077197Y0124896D01*
X0077279Y0122624D01*
X0077306Y0120350D01*
X0077279Y0118076D01*
X0077197Y0115804D01*
X0077061Y0113534D01*
X0076870Y0111269D01*
X0076625Y0109008D01*
X0076325Y0106754D01*
X0075972Y0104508D01*
X0075565Y0102271D01*
X0075105Y0100044D01*
X0074591Y0097829D01*
X0074024Y0095628D01*
X0073404Y0093440D01*
X0072732Y0091268D01*
X0072008Y0089112D01*
X0071233Y0086975D01*
X0070407Y0084856D01*
X0069530Y0082759D01*
X0068603Y0080682D01*
X0067626Y0078629D01*
X0066600Y0076600D01*
X0106600Y0076600D02*
X0105574Y0078629D01*
X0104597Y0080682D01*
X0103670Y0082759D01*
X0102793Y0084856D01*
X0101967Y0086975D01*
X0101192Y0089112D01*
X0100468Y0091268D01*
X0099796Y0093440D01*
X0099176Y0095628D01*
X0098609Y0097829D01*
X0098095Y0100044D01*
X0097635Y0102271D01*
X0097228Y0104508D01*
X0096875Y0106754D01*
X0096575Y0109008D01*
X0096330Y0111269D01*
X0096139Y0113534D01*
X0096003Y0115804D01*
X0095921Y0118076D01*
X0095894Y0120350D01*
X0095921Y0122624D01*
X0096003Y0124896D01*
X0096139Y0127166D01*
X0096330Y0129431D01*
X0096575Y0131692D01*
X0096875Y0133946D01*
X0097228Y0136192D01*
X0097635Y0138429D01*
X0098095Y0140656D01*
X0098609Y0142871D01*
X0099176Y0145072D01*
X0099796Y0147260D01*
X0100468Y0149432D01*
X0101192Y0151588D01*
X0101967Y0153725D01*
X0102793Y0155844D01*
X0103670Y0157941D01*
X0104597Y0160018D01*
X0105574Y0162071D01*
X0106600Y0164100D01*
M02*
