G75*
%MOIN*%
%OFA0B0*%
%FSLAX25Y25*%
%IPPOS*%
%LPD*%
%AMOC8*
5,1,8,0,0,1.08239X$1,22.5*
%
%ADD10C,0.00000*%
%ADD11C,0.05543*%
%ADD12C,0.06496*%
%ADD13C,0.01600*%
%ADD14C,0.03562*%
%ADD15C,0.02400*%
%ADD16C,0.03200*%
D10*
X0062595Y0031433D02*
X0062595Y0076433D01*
X0037595Y0076433D01*
X0037595Y0231433D01*
X0217595Y0231433D01*
X0217595Y0031433D01*
X0062595Y0031433D01*
X0070430Y0046433D02*
X0070432Y0046526D01*
X0070438Y0046618D01*
X0070448Y0046710D01*
X0070462Y0046801D01*
X0070479Y0046892D01*
X0070501Y0046982D01*
X0070526Y0047071D01*
X0070555Y0047159D01*
X0070588Y0047245D01*
X0070625Y0047330D01*
X0070665Y0047414D01*
X0070709Y0047495D01*
X0070756Y0047575D01*
X0070806Y0047653D01*
X0070860Y0047728D01*
X0070917Y0047801D01*
X0070977Y0047871D01*
X0071040Y0047939D01*
X0071106Y0048004D01*
X0071174Y0048066D01*
X0071245Y0048126D01*
X0071319Y0048182D01*
X0071395Y0048235D01*
X0071473Y0048284D01*
X0071553Y0048331D01*
X0071635Y0048373D01*
X0071719Y0048413D01*
X0071804Y0048448D01*
X0071891Y0048480D01*
X0071979Y0048509D01*
X0072068Y0048533D01*
X0072158Y0048554D01*
X0072249Y0048570D01*
X0072341Y0048583D01*
X0072433Y0048592D01*
X0072526Y0048597D01*
X0072618Y0048598D01*
X0072711Y0048595D01*
X0072803Y0048588D01*
X0072895Y0048577D01*
X0072986Y0048562D01*
X0073077Y0048544D01*
X0073167Y0048521D01*
X0073255Y0048495D01*
X0073343Y0048465D01*
X0073429Y0048431D01*
X0073513Y0048394D01*
X0073596Y0048352D01*
X0073677Y0048308D01*
X0073757Y0048260D01*
X0073834Y0048209D01*
X0073908Y0048154D01*
X0073981Y0048096D01*
X0074051Y0048036D01*
X0074118Y0047972D01*
X0074182Y0047906D01*
X0074244Y0047836D01*
X0074302Y0047765D01*
X0074357Y0047691D01*
X0074409Y0047614D01*
X0074458Y0047535D01*
X0074504Y0047455D01*
X0074546Y0047372D01*
X0074584Y0047288D01*
X0074619Y0047202D01*
X0074650Y0047115D01*
X0074677Y0047027D01*
X0074700Y0046937D01*
X0074720Y0046847D01*
X0074736Y0046756D01*
X0074748Y0046664D01*
X0074756Y0046572D01*
X0074760Y0046479D01*
X0074760Y0046387D01*
X0074756Y0046294D01*
X0074748Y0046202D01*
X0074736Y0046110D01*
X0074720Y0046019D01*
X0074700Y0045929D01*
X0074677Y0045839D01*
X0074650Y0045751D01*
X0074619Y0045664D01*
X0074584Y0045578D01*
X0074546Y0045494D01*
X0074504Y0045411D01*
X0074458Y0045331D01*
X0074409Y0045252D01*
X0074357Y0045175D01*
X0074302Y0045101D01*
X0074244Y0045030D01*
X0074182Y0044960D01*
X0074118Y0044894D01*
X0074051Y0044830D01*
X0073981Y0044770D01*
X0073908Y0044712D01*
X0073834Y0044657D01*
X0073757Y0044606D01*
X0073678Y0044558D01*
X0073596Y0044514D01*
X0073513Y0044472D01*
X0073429Y0044435D01*
X0073343Y0044401D01*
X0073255Y0044371D01*
X0073167Y0044345D01*
X0073077Y0044322D01*
X0072986Y0044304D01*
X0072895Y0044289D01*
X0072803Y0044278D01*
X0072711Y0044271D01*
X0072618Y0044268D01*
X0072526Y0044269D01*
X0072433Y0044274D01*
X0072341Y0044283D01*
X0072249Y0044296D01*
X0072158Y0044312D01*
X0072068Y0044333D01*
X0071979Y0044357D01*
X0071891Y0044386D01*
X0071804Y0044418D01*
X0071719Y0044453D01*
X0071635Y0044493D01*
X0071553Y0044535D01*
X0071473Y0044582D01*
X0071395Y0044631D01*
X0071319Y0044684D01*
X0071245Y0044740D01*
X0071174Y0044800D01*
X0071106Y0044862D01*
X0071040Y0044927D01*
X0070977Y0044995D01*
X0070917Y0045065D01*
X0070860Y0045138D01*
X0070806Y0045213D01*
X0070756Y0045291D01*
X0070709Y0045371D01*
X0070665Y0045452D01*
X0070625Y0045536D01*
X0070588Y0045621D01*
X0070555Y0045707D01*
X0070526Y0045795D01*
X0070501Y0045884D01*
X0070479Y0045974D01*
X0070462Y0046065D01*
X0070448Y0046156D01*
X0070438Y0046248D01*
X0070432Y0046340D01*
X0070430Y0046433D01*
X0080430Y0046433D02*
X0080432Y0046526D01*
X0080438Y0046618D01*
X0080448Y0046710D01*
X0080462Y0046801D01*
X0080479Y0046892D01*
X0080501Y0046982D01*
X0080526Y0047071D01*
X0080555Y0047159D01*
X0080588Y0047245D01*
X0080625Y0047330D01*
X0080665Y0047414D01*
X0080709Y0047495D01*
X0080756Y0047575D01*
X0080806Y0047653D01*
X0080860Y0047728D01*
X0080917Y0047801D01*
X0080977Y0047871D01*
X0081040Y0047939D01*
X0081106Y0048004D01*
X0081174Y0048066D01*
X0081245Y0048126D01*
X0081319Y0048182D01*
X0081395Y0048235D01*
X0081473Y0048284D01*
X0081553Y0048331D01*
X0081635Y0048373D01*
X0081719Y0048413D01*
X0081804Y0048448D01*
X0081891Y0048480D01*
X0081979Y0048509D01*
X0082068Y0048533D01*
X0082158Y0048554D01*
X0082249Y0048570D01*
X0082341Y0048583D01*
X0082433Y0048592D01*
X0082526Y0048597D01*
X0082618Y0048598D01*
X0082711Y0048595D01*
X0082803Y0048588D01*
X0082895Y0048577D01*
X0082986Y0048562D01*
X0083077Y0048544D01*
X0083167Y0048521D01*
X0083255Y0048495D01*
X0083343Y0048465D01*
X0083429Y0048431D01*
X0083513Y0048394D01*
X0083596Y0048352D01*
X0083677Y0048308D01*
X0083757Y0048260D01*
X0083834Y0048209D01*
X0083908Y0048154D01*
X0083981Y0048096D01*
X0084051Y0048036D01*
X0084118Y0047972D01*
X0084182Y0047906D01*
X0084244Y0047836D01*
X0084302Y0047765D01*
X0084357Y0047691D01*
X0084409Y0047614D01*
X0084458Y0047535D01*
X0084504Y0047455D01*
X0084546Y0047372D01*
X0084584Y0047288D01*
X0084619Y0047202D01*
X0084650Y0047115D01*
X0084677Y0047027D01*
X0084700Y0046937D01*
X0084720Y0046847D01*
X0084736Y0046756D01*
X0084748Y0046664D01*
X0084756Y0046572D01*
X0084760Y0046479D01*
X0084760Y0046387D01*
X0084756Y0046294D01*
X0084748Y0046202D01*
X0084736Y0046110D01*
X0084720Y0046019D01*
X0084700Y0045929D01*
X0084677Y0045839D01*
X0084650Y0045751D01*
X0084619Y0045664D01*
X0084584Y0045578D01*
X0084546Y0045494D01*
X0084504Y0045411D01*
X0084458Y0045331D01*
X0084409Y0045252D01*
X0084357Y0045175D01*
X0084302Y0045101D01*
X0084244Y0045030D01*
X0084182Y0044960D01*
X0084118Y0044894D01*
X0084051Y0044830D01*
X0083981Y0044770D01*
X0083908Y0044712D01*
X0083834Y0044657D01*
X0083757Y0044606D01*
X0083678Y0044558D01*
X0083596Y0044514D01*
X0083513Y0044472D01*
X0083429Y0044435D01*
X0083343Y0044401D01*
X0083255Y0044371D01*
X0083167Y0044345D01*
X0083077Y0044322D01*
X0082986Y0044304D01*
X0082895Y0044289D01*
X0082803Y0044278D01*
X0082711Y0044271D01*
X0082618Y0044268D01*
X0082526Y0044269D01*
X0082433Y0044274D01*
X0082341Y0044283D01*
X0082249Y0044296D01*
X0082158Y0044312D01*
X0082068Y0044333D01*
X0081979Y0044357D01*
X0081891Y0044386D01*
X0081804Y0044418D01*
X0081719Y0044453D01*
X0081635Y0044493D01*
X0081553Y0044535D01*
X0081473Y0044582D01*
X0081395Y0044631D01*
X0081319Y0044684D01*
X0081245Y0044740D01*
X0081174Y0044800D01*
X0081106Y0044862D01*
X0081040Y0044927D01*
X0080977Y0044995D01*
X0080917Y0045065D01*
X0080860Y0045138D01*
X0080806Y0045213D01*
X0080756Y0045291D01*
X0080709Y0045371D01*
X0080665Y0045452D01*
X0080625Y0045536D01*
X0080588Y0045621D01*
X0080555Y0045707D01*
X0080526Y0045795D01*
X0080501Y0045884D01*
X0080479Y0045974D01*
X0080462Y0046065D01*
X0080448Y0046156D01*
X0080438Y0046248D01*
X0080432Y0046340D01*
X0080430Y0046433D01*
X0090430Y0046433D02*
X0090432Y0046526D01*
X0090438Y0046618D01*
X0090448Y0046710D01*
X0090462Y0046801D01*
X0090479Y0046892D01*
X0090501Y0046982D01*
X0090526Y0047071D01*
X0090555Y0047159D01*
X0090588Y0047245D01*
X0090625Y0047330D01*
X0090665Y0047414D01*
X0090709Y0047495D01*
X0090756Y0047575D01*
X0090806Y0047653D01*
X0090860Y0047728D01*
X0090917Y0047801D01*
X0090977Y0047871D01*
X0091040Y0047939D01*
X0091106Y0048004D01*
X0091174Y0048066D01*
X0091245Y0048126D01*
X0091319Y0048182D01*
X0091395Y0048235D01*
X0091473Y0048284D01*
X0091553Y0048331D01*
X0091635Y0048373D01*
X0091719Y0048413D01*
X0091804Y0048448D01*
X0091891Y0048480D01*
X0091979Y0048509D01*
X0092068Y0048533D01*
X0092158Y0048554D01*
X0092249Y0048570D01*
X0092341Y0048583D01*
X0092433Y0048592D01*
X0092526Y0048597D01*
X0092618Y0048598D01*
X0092711Y0048595D01*
X0092803Y0048588D01*
X0092895Y0048577D01*
X0092986Y0048562D01*
X0093077Y0048544D01*
X0093167Y0048521D01*
X0093255Y0048495D01*
X0093343Y0048465D01*
X0093429Y0048431D01*
X0093513Y0048394D01*
X0093596Y0048352D01*
X0093677Y0048308D01*
X0093757Y0048260D01*
X0093834Y0048209D01*
X0093908Y0048154D01*
X0093981Y0048096D01*
X0094051Y0048036D01*
X0094118Y0047972D01*
X0094182Y0047906D01*
X0094244Y0047836D01*
X0094302Y0047765D01*
X0094357Y0047691D01*
X0094409Y0047614D01*
X0094458Y0047535D01*
X0094504Y0047455D01*
X0094546Y0047372D01*
X0094584Y0047288D01*
X0094619Y0047202D01*
X0094650Y0047115D01*
X0094677Y0047027D01*
X0094700Y0046937D01*
X0094720Y0046847D01*
X0094736Y0046756D01*
X0094748Y0046664D01*
X0094756Y0046572D01*
X0094760Y0046479D01*
X0094760Y0046387D01*
X0094756Y0046294D01*
X0094748Y0046202D01*
X0094736Y0046110D01*
X0094720Y0046019D01*
X0094700Y0045929D01*
X0094677Y0045839D01*
X0094650Y0045751D01*
X0094619Y0045664D01*
X0094584Y0045578D01*
X0094546Y0045494D01*
X0094504Y0045411D01*
X0094458Y0045331D01*
X0094409Y0045252D01*
X0094357Y0045175D01*
X0094302Y0045101D01*
X0094244Y0045030D01*
X0094182Y0044960D01*
X0094118Y0044894D01*
X0094051Y0044830D01*
X0093981Y0044770D01*
X0093908Y0044712D01*
X0093834Y0044657D01*
X0093757Y0044606D01*
X0093678Y0044558D01*
X0093596Y0044514D01*
X0093513Y0044472D01*
X0093429Y0044435D01*
X0093343Y0044401D01*
X0093255Y0044371D01*
X0093167Y0044345D01*
X0093077Y0044322D01*
X0092986Y0044304D01*
X0092895Y0044289D01*
X0092803Y0044278D01*
X0092711Y0044271D01*
X0092618Y0044268D01*
X0092526Y0044269D01*
X0092433Y0044274D01*
X0092341Y0044283D01*
X0092249Y0044296D01*
X0092158Y0044312D01*
X0092068Y0044333D01*
X0091979Y0044357D01*
X0091891Y0044386D01*
X0091804Y0044418D01*
X0091719Y0044453D01*
X0091635Y0044493D01*
X0091553Y0044535D01*
X0091473Y0044582D01*
X0091395Y0044631D01*
X0091319Y0044684D01*
X0091245Y0044740D01*
X0091174Y0044800D01*
X0091106Y0044862D01*
X0091040Y0044927D01*
X0090977Y0044995D01*
X0090917Y0045065D01*
X0090860Y0045138D01*
X0090806Y0045213D01*
X0090756Y0045291D01*
X0090709Y0045371D01*
X0090665Y0045452D01*
X0090625Y0045536D01*
X0090588Y0045621D01*
X0090555Y0045707D01*
X0090526Y0045795D01*
X0090501Y0045884D01*
X0090479Y0045974D01*
X0090462Y0046065D01*
X0090448Y0046156D01*
X0090438Y0046248D01*
X0090432Y0046340D01*
X0090430Y0046433D01*
X0100430Y0046433D02*
X0100432Y0046526D01*
X0100438Y0046618D01*
X0100448Y0046710D01*
X0100462Y0046801D01*
X0100479Y0046892D01*
X0100501Y0046982D01*
X0100526Y0047071D01*
X0100555Y0047159D01*
X0100588Y0047245D01*
X0100625Y0047330D01*
X0100665Y0047414D01*
X0100709Y0047495D01*
X0100756Y0047575D01*
X0100806Y0047653D01*
X0100860Y0047728D01*
X0100917Y0047801D01*
X0100977Y0047871D01*
X0101040Y0047939D01*
X0101106Y0048004D01*
X0101174Y0048066D01*
X0101245Y0048126D01*
X0101319Y0048182D01*
X0101395Y0048235D01*
X0101473Y0048284D01*
X0101553Y0048331D01*
X0101635Y0048373D01*
X0101719Y0048413D01*
X0101804Y0048448D01*
X0101891Y0048480D01*
X0101979Y0048509D01*
X0102068Y0048533D01*
X0102158Y0048554D01*
X0102249Y0048570D01*
X0102341Y0048583D01*
X0102433Y0048592D01*
X0102526Y0048597D01*
X0102618Y0048598D01*
X0102711Y0048595D01*
X0102803Y0048588D01*
X0102895Y0048577D01*
X0102986Y0048562D01*
X0103077Y0048544D01*
X0103167Y0048521D01*
X0103255Y0048495D01*
X0103343Y0048465D01*
X0103429Y0048431D01*
X0103513Y0048394D01*
X0103596Y0048352D01*
X0103677Y0048308D01*
X0103757Y0048260D01*
X0103834Y0048209D01*
X0103908Y0048154D01*
X0103981Y0048096D01*
X0104051Y0048036D01*
X0104118Y0047972D01*
X0104182Y0047906D01*
X0104244Y0047836D01*
X0104302Y0047765D01*
X0104357Y0047691D01*
X0104409Y0047614D01*
X0104458Y0047535D01*
X0104504Y0047455D01*
X0104546Y0047372D01*
X0104584Y0047288D01*
X0104619Y0047202D01*
X0104650Y0047115D01*
X0104677Y0047027D01*
X0104700Y0046937D01*
X0104720Y0046847D01*
X0104736Y0046756D01*
X0104748Y0046664D01*
X0104756Y0046572D01*
X0104760Y0046479D01*
X0104760Y0046387D01*
X0104756Y0046294D01*
X0104748Y0046202D01*
X0104736Y0046110D01*
X0104720Y0046019D01*
X0104700Y0045929D01*
X0104677Y0045839D01*
X0104650Y0045751D01*
X0104619Y0045664D01*
X0104584Y0045578D01*
X0104546Y0045494D01*
X0104504Y0045411D01*
X0104458Y0045331D01*
X0104409Y0045252D01*
X0104357Y0045175D01*
X0104302Y0045101D01*
X0104244Y0045030D01*
X0104182Y0044960D01*
X0104118Y0044894D01*
X0104051Y0044830D01*
X0103981Y0044770D01*
X0103908Y0044712D01*
X0103834Y0044657D01*
X0103757Y0044606D01*
X0103678Y0044558D01*
X0103596Y0044514D01*
X0103513Y0044472D01*
X0103429Y0044435D01*
X0103343Y0044401D01*
X0103255Y0044371D01*
X0103167Y0044345D01*
X0103077Y0044322D01*
X0102986Y0044304D01*
X0102895Y0044289D01*
X0102803Y0044278D01*
X0102711Y0044271D01*
X0102618Y0044268D01*
X0102526Y0044269D01*
X0102433Y0044274D01*
X0102341Y0044283D01*
X0102249Y0044296D01*
X0102158Y0044312D01*
X0102068Y0044333D01*
X0101979Y0044357D01*
X0101891Y0044386D01*
X0101804Y0044418D01*
X0101719Y0044453D01*
X0101635Y0044493D01*
X0101553Y0044535D01*
X0101473Y0044582D01*
X0101395Y0044631D01*
X0101319Y0044684D01*
X0101245Y0044740D01*
X0101174Y0044800D01*
X0101106Y0044862D01*
X0101040Y0044927D01*
X0100977Y0044995D01*
X0100917Y0045065D01*
X0100860Y0045138D01*
X0100806Y0045213D01*
X0100756Y0045291D01*
X0100709Y0045371D01*
X0100665Y0045452D01*
X0100625Y0045536D01*
X0100588Y0045621D01*
X0100555Y0045707D01*
X0100526Y0045795D01*
X0100501Y0045884D01*
X0100479Y0045974D01*
X0100462Y0046065D01*
X0100448Y0046156D01*
X0100438Y0046248D01*
X0100432Y0046340D01*
X0100430Y0046433D01*
X0115430Y0046433D02*
X0115432Y0046526D01*
X0115438Y0046618D01*
X0115448Y0046710D01*
X0115462Y0046801D01*
X0115479Y0046892D01*
X0115501Y0046982D01*
X0115526Y0047071D01*
X0115555Y0047159D01*
X0115588Y0047245D01*
X0115625Y0047330D01*
X0115665Y0047414D01*
X0115709Y0047495D01*
X0115756Y0047575D01*
X0115806Y0047653D01*
X0115860Y0047728D01*
X0115917Y0047801D01*
X0115977Y0047871D01*
X0116040Y0047939D01*
X0116106Y0048004D01*
X0116174Y0048066D01*
X0116245Y0048126D01*
X0116319Y0048182D01*
X0116395Y0048235D01*
X0116473Y0048284D01*
X0116553Y0048331D01*
X0116635Y0048373D01*
X0116719Y0048413D01*
X0116804Y0048448D01*
X0116891Y0048480D01*
X0116979Y0048509D01*
X0117068Y0048533D01*
X0117158Y0048554D01*
X0117249Y0048570D01*
X0117341Y0048583D01*
X0117433Y0048592D01*
X0117526Y0048597D01*
X0117618Y0048598D01*
X0117711Y0048595D01*
X0117803Y0048588D01*
X0117895Y0048577D01*
X0117986Y0048562D01*
X0118077Y0048544D01*
X0118167Y0048521D01*
X0118255Y0048495D01*
X0118343Y0048465D01*
X0118429Y0048431D01*
X0118513Y0048394D01*
X0118596Y0048352D01*
X0118677Y0048308D01*
X0118757Y0048260D01*
X0118834Y0048209D01*
X0118908Y0048154D01*
X0118981Y0048096D01*
X0119051Y0048036D01*
X0119118Y0047972D01*
X0119182Y0047906D01*
X0119244Y0047836D01*
X0119302Y0047765D01*
X0119357Y0047691D01*
X0119409Y0047614D01*
X0119458Y0047535D01*
X0119504Y0047455D01*
X0119546Y0047372D01*
X0119584Y0047288D01*
X0119619Y0047202D01*
X0119650Y0047115D01*
X0119677Y0047027D01*
X0119700Y0046937D01*
X0119720Y0046847D01*
X0119736Y0046756D01*
X0119748Y0046664D01*
X0119756Y0046572D01*
X0119760Y0046479D01*
X0119760Y0046387D01*
X0119756Y0046294D01*
X0119748Y0046202D01*
X0119736Y0046110D01*
X0119720Y0046019D01*
X0119700Y0045929D01*
X0119677Y0045839D01*
X0119650Y0045751D01*
X0119619Y0045664D01*
X0119584Y0045578D01*
X0119546Y0045494D01*
X0119504Y0045411D01*
X0119458Y0045331D01*
X0119409Y0045252D01*
X0119357Y0045175D01*
X0119302Y0045101D01*
X0119244Y0045030D01*
X0119182Y0044960D01*
X0119118Y0044894D01*
X0119051Y0044830D01*
X0118981Y0044770D01*
X0118908Y0044712D01*
X0118834Y0044657D01*
X0118757Y0044606D01*
X0118678Y0044558D01*
X0118596Y0044514D01*
X0118513Y0044472D01*
X0118429Y0044435D01*
X0118343Y0044401D01*
X0118255Y0044371D01*
X0118167Y0044345D01*
X0118077Y0044322D01*
X0117986Y0044304D01*
X0117895Y0044289D01*
X0117803Y0044278D01*
X0117711Y0044271D01*
X0117618Y0044268D01*
X0117526Y0044269D01*
X0117433Y0044274D01*
X0117341Y0044283D01*
X0117249Y0044296D01*
X0117158Y0044312D01*
X0117068Y0044333D01*
X0116979Y0044357D01*
X0116891Y0044386D01*
X0116804Y0044418D01*
X0116719Y0044453D01*
X0116635Y0044493D01*
X0116553Y0044535D01*
X0116473Y0044582D01*
X0116395Y0044631D01*
X0116319Y0044684D01*
X0116245Y0044740D01*
X0116174Y0044800D01*
X0116106Y0044862D01*
X0116040Y0044927D01*
X0115977Y0044995D01*
X0115917Y0045065D01*
X0115860Y0045138D01*
X0115806Y0045213D01*
X0115756Y0045291D01*
X0115709Y0045371D01*
X0115665Y0045452D01*
X0115625Y0045536D01*
X0115588Y0045621D01*
X0115555Y0045707D01*
X0115526Y0045795D01*
X0115501Y0045884D01*
X0115479Y0045974D01*
X0115462Y0046065D01*
X0115448Y0046156D01*
X0115438Y0046248D01*
X0115432Y0046340D01*
X0115430Y0046433D01*
X0125430Y0046433D02*
X0125432Y0046526D01*
X0125438Y0046618D01*
X0125448Y0046710D01*
X0125462Y0046801D01*
X0125479Y0046892D01*
X0125501Y0046982D01*
X0125526Y0047071D01*
X0125555Y0047159D01*
X0125588Y0047245D01*
X0125625Y0047330D01*
X0125665Y0047414D01*
X0125709Y0047495D01*
X0125756Y0047575D01*
X0125806Y0047653D01*
X0125860Y0047728D01*
X0125917Y0047801D01*
X0125977Y0047871D01*
X0126040Y0047939D01*
X0126106Y0048004D01*
X0126174Y0048066D01*
X0126245Y0048126D01*
X0126319Y0048182D01*
X0126395Y0048235D01*
X0126473Y0048284D01*
X0126553Y0048331D01*
X0126635Y0048373D01*
X0126719Y0048413D01*
X0126804Y0048448D01*
X0126891Y0048480D01*
X0126979Y0048509D01*
X0127068Y0048533D01*
X0127158Y0048554D01*
X0127249Y0048570D01*
X0127341Y0048583D01*
X0127433Y0048592D01*
X0127526Y0048597D01*
X0127618Y0048598D01*
X0127711Y0048595D01*
X0127803Y0048588D01*
X0127895Y0048577D01*
X0127986Y0048562D01*
X0128077Y0048544D01*
X0128167Y0048521D01*
X0128255Y0048495D01*
X0128343Y0048465D01*
X0128429Y0048431D01*
X0128513Y0048394D01*
X0128596Y0048352D01*
X0128677Y0048308D01*
X0128757Y0048260D01*
X0128834Y0048209D01*
X0128908Y0048154D01*
X0128981Y0048096D01*
X0129051Y0048036D01*
X0129118Y0047972D01*
X0129182Y0047906D01*
X0129244Y0047836D01*
X0129302Y0047765D01*
X0129357Y0047691D01*
X0129409Y0047614D01*
X0129458Y0047535D01*
X0129504Y0047455D01*
X0129546Y0047372D01*
X0129584Y0047288D01*
X0129619Y0047202D01*
X0129650Y0047115D01*
X0129677Y0047027D01*
X0129700Y0046937D01*
X0129720Y0046847D01*
X0129736Y0046756D01*
X0129748Y0046664D01*
X0129756Y0046572D01*
X0129760Y0046479D01*
X0129760Y0046387D01*
X0129756Y0046294D01*
X0129748Y0046202D01*
X0129736Y0046110D01*
X0129720Y0046019D01*
X0129700Y0045929D01*
X0129677Y0045839D01*
X0129650Y0045751D01*
X0129619Y0045664D01*
X0129584Y0045578D01*
X0129546Y0045494D01*
X0129504Y0045411D01*
X0129458Y0045331D01*
X0129409Y0045252D01*
X0129357Y0045175D01*
X0129302Y0045101D01*
X0129244Y0045030D01*
X0129182Y0044960D01*
X0129118Y0044894D01*
X0129051Y0044830D01*
X0128981Y0044770D01*
X0128908Y0044712D01*
X0128834Y0044657D01*
X0128757Y0044606D01*
X0128678Y0044558D01*
X0128596Y0044514D01*
X0128513Y0044472D01*
X0128429Y0044435D01*
X0128343Y0044401D01*
X0128255Y0044371D01*
X0128167Y0044345D01*
X0128077Y0044322D01*
X0127986Y0044304D01*
X0127895Y0044289D01*
X0127803Y0044278D01*
X0127711Y0044271D01*
X0127618Y0044268D01*
X0127526Y0044269D01*
X0127433Y0044274D01*
X0127341Y0044283D01*
X0127249Y0044296D01*
X0127158Y0044312D01*
X0127068Y0044333D01*
X0126979Y0044357D01*
X0126891Y0044386D01*
X0126804Y0044418D01*
X0126719Y0044453D01*
X0126635Y0044493D01*
X0126553Y0044535D01*
X0126473Y0044582D01*
X0126395Y0044631D01*
X0126319Y0044684D01*
X0126245Y0044740D01*
X0126174Y0044800D01*
X0126106Y0044862D01*
X0126040Y0044927D01*
X0125977Y0044995D01*
X0125917Y0045065D01*
X0125860Y0045138D01*
X0125806Y0045213D01*
X0125756Y0045291D01*
X0125709Y0045371D01*
X0125665Y0045452D01*
X0125625Y0045536D01*
X0125588Y0045621D01*
X0125555Y0045707D01*
X0125526Y0045795D01*
X0125501Y0045884D01*
X0125479Y0045974D01*
X0125462Y0046065D01*
X0125448Y0046156D01*
X0125438Y0046248D01*
X0125432Y0046340D01*
X0125430Y0046433D01*
X0135430Y0046433D02*
X0135432Y0046526D01*
X0135438Y0046618D01*
X0135448Y0046710D01*
X0135462Y0046801D01*
X0135479Y0046892D01*
X0135501Y0046982D01*
X0135526Y0047071D01*
X0135555Y0047159D01*
X0135588Y0047245D01*
X0135625Y0047330D01*
X0135665Y0047414D01*
X0135709Y0047495D01*
X0135756Y0047575D01*
X0135806Y0047653D01*
X0135860Y0047728D01*
X0135917Y0047801D01*
X0135977Y0047871D01*
X0136040Y0047939D01*
X0136106Y0048004D01*
X0136174Y0048066D01*
X0136245Y0048126D01*
X0136319Y0048182D01*
X0136395Y0048235D01*
X0136473Y0048284D01*
X0136553Y0048331D01*
X0136635Y0048373D01*
X0136719Y0048413D01*
X0136804Y0048448D01*
X0136891Y0048480D01*
X0136979Y0048509D01*
X0137068Y0048533D01*
X0137158Y0048554D01*
X0137249Y0048570D01*
X0137341Y0048583D01*
X0137433Y0048592D01*
X0137526Y0048597D01*
X0137618Y0048598D01*
X0137711Y0048595D01*
X0137803Y0048588D01*
X0137895Y0048577D01*
X0137986Y0048562D01*
X0138077Y0048544D01*
X0138167Y0048521D01*
X0138255Y0048495D01*
X0138343Y0048465D01*
X0138429Y0048431D01*
X0138513Y0048394D01*
X0138596Y0048352D01*
X0138677Y0048308D01*
X0138757Y0048260D01*
X0138834Y0048209D01*
X0138908Y0048154D01*
X0138981Y0048096D01*
X0139051Y0048036D01*
X0139118Y0047972D01*
X0139182Y0047906D01*
X0139244Y0047836D01*
X0139302Y0047765D01*
X0139357Y0047691D01*
X0139409Y0047614D01*
X0139458Y0047535D01*
X0139504Y0047455D01*
X0139546Y0047372D01*
X0139584Y0047288D01*
X0139619Y0047202D01*
X0139650Y0047115D01*
X0139677Y0047027D01*
X0139700Y0046937D01*
X0139720Y0046847D01*
X0139736Y0046756D01*
X0139748Y0046664D01*
X0139756Y0046572D01*
X0139760Y0046479D01*
X0139760Y0046387D01*
X0139756Y0046294D01*
X0139748Y0046202D01*
X0139736Y0046110D01*
X0139720Y0046019D01*
X0139700Y0045929D01*
X0139677Y0045839D01*
X0139650Y0045751D01*
X0139619Y0045664D01*
X0139584Y0045578D01*
X0139546Y0045494D01*
X0139504Y0045411D01*
X0139458Y0045331D01*
X0139409Y0045252D01*
X0139357Y0045175D01*
X0139302Y0045101D01*
X0139244Y0045030D01*
X0139182Y0044960D01*
X0139118Y0044894D01*
X0139051Y0044830D01*
X0138981Y0044770D01*
X0138908Y0044712D01*
X0138834Y0044657D01*
X0138757Y0044606D01*
X0138678Y0044558D01*
X0138596Y0044514D01*
X0138513Y0044472D01*
X0138429Y0044435D01*
X0138343Y0044401D01*
X0138255Y0044371D01*
X0138167Y0044345D01*
X0138077Y0044322D01*
X0137986Y0044304D01*
X0137895Y0044289D01*
X0137803Y0044278D01*
X0137711Y0044271D01*
X0137618Y0044268D01*
X0137526Y0044269D01*
X0137433Y0044274D01*
X0137341Y0044283D01*
X0137249Y0044296D01*
X0137158Y0044312D01*
X0137068Y0044333D01*
X0136979Y0044357D01*
X0136891Y0044386D01*
X0136804Y0044418D01*
X0136719Y0044453D01*
X0136635Y0044493D01*
X0136553Y0044535D01*
X0136473Y0044582D01*
X0136395Y0044631D01*
X0136319Y0044684D01*
X0136245Y0044740D01*
X0136174Y0044800D01*
X0136106Y0044862D01*
X0136040Y0044927D01*
X0135977Y0044995D01*
X0135917Y0045065D01*
X0135860Y0045138D01*
X0135806Y0045213D01*
X0135756Y0045291D01*
X0135709Y0045371D01*
X0135665Y0045452D01*
X0135625Y0045536D01*
X0135588Y0045621D01*
X0135555Y0045707D01*
X0135526Y0045795D01*
X0135501Y0045884D01*
X0135479Y0045974D01*
X0135462Y0046065D01*
X0135448Y0046156D01*
X0135438Y0046248D01*
X0135432Y0046340D01*
X0135430Y0046433D01*
X0150430Y0046433D02*
X0150432Y0046526D01*
X0150438Y0046618D01*
X0150448Y0046710D01*
X0150462Y0046801D01*
X0150479Y0046892D01*
X0150501Y0046982D01*
X0150526Y0047071D01*
X0150555Y0047159D01*
X0150588Y0047245D01*
X0150625Y0047330D01*
X0150665Y0047414D01*
X0150709Y0047495D01*
X0150756Y0047575D01*
X0150806Y0047653D01*
X0150860Y0047728D01*
X0150917Y0047801D01*
X0150977Y0047871D01*
X0151040Y0047939D01*
X0151106Y0048004D01*
X0151174Y0048066D01*
X0151245Y0048126D01*
X0151319Y0048182D01*
X0151395Y0048235D01*
X0151473Y0048284D01*
X0151553Y0048331D01*
X0151635Y0048373D01*
X0151719Y0048413D01*
X0151804Y0048448D01*
X0151891Y0048480D01*
X0151979Y0048509D01*
X0152068Y0048533D01*
X0152158Y0048554D01*
X0152249Y0048570D01*
X0152341Y0048583D01*
X0152433Y0048592D01*
X0152526Y0048597D01*
X0152618Y0048598D01*
X0152711Y0048595D01*
X0152803Y0048588D01*
X0152895Y0048577D01*
X0152986Y0048562D01*
X0153077Y0048544D01*
X0153167Y0048521D01*
X0153255Y0048495D01*
X0153343Y0048465D01*
X0153429Y0048431D01*
X0153513Y0048394D01*
X0153596Y0048352D01*
X0153677Y0048308D01*
X0153757Y0048260D01*
X0153834Y0048209D01*
X0153908Y0048154D01*
X0153981Y0048096D01*
X0154051Y0048036D01*
X0154118Y0047972D01*
X0154182Y0047906D01*
X0154244Y0047836D01*
X0154302Y0047765D01*
X0154357Y0047691D01*
X0154409Y0047614D01*
X0154458Y0047535D01*
X0154504Y0047455D01*
X0154546Y0047372D01*
X0154584Y0047288D01*
X0154619Y0047202D01*
X0154650Y0047115D01*
X0154677Y0047027D01*
X0154700Y0046937D01*
X0154720Y0046847D01*
X0154736Y0046756D01*
X0154748Y0046664D01*
X0154756Y0046572D01*
X0154760Y0046479D01*
X0154760Y0046387D01*
X0154756Y0046294D01*
X0154748Y0046202D01*
X0154736Y0046110D01*
X0154720Y0046019D01*
X0154700Y0045929D01*
X0154677Y0045839D01*
X0154650Y0045751D01*
X0154619Y0045664D01*
X0154584Y0045578D01*
X0154546Y0045494D01*
X0154504Y0045411D01*
X0154458Y0045331D01*
X0154409Y0045252D01*
X0154357Y0045175D01*
X0154302Y0045101D01*
X0154244Y0045030D01*
X0154182Y0044960D01*
X0154118Y0044894D01*
X0154051Y0044830D01*
X0153981Y0044770D01*
X0153908Y0044712D01*
X0153834Y0044657D01*
X0153757Y0044606D01*
X0153678Y0044558D01*
X0153596Y0044514D01*
X0153513Y0044472D01*
X0153429Y0044435D01*
X0153343Y0044401D01*
X0153255Y0044371D01*
X0153167Y0044345D01*
X0153077Y0044322D01*
X0152986Y0044304D01*
X0152895Y0044289D01*
X0152803Y0044278D01*
X0152711Y0044271D01*
X0152618Y0044268D01*
X0152526Y0044269D01*
X0152433Y0044274D01*
X0152341Y0044283D01*
X0152249Y0044296D01*
X0152158Y0044312D01*
X0152068Y0044333D01*
X0151979Y0044357D01*
X0151891Y0044386D01*
X0151804Y0044418D01*
X0151719Y0044453D01*
X0151635Y0044493D01*
X0151553Y0044535D01*
X0151473Y0044582D01*
X0151395Y0044631D01*
X0151319Y0044684D01*
X0151245Y0044740D01*
X0151174Y0044800D01*
X0151106Y0044862D01*
X0151040Y0044927D01*
X0150977Y0044995D01*
X0150917Y0045065D01*
X0150860Y0045138D01*
X0150806Y0045213D01*
X0150756Y0045291D01*
X0150709Y0045371D01*
X0150665Y0045452D01*
X0150625Y0045536D01*
X0150588Y0045621D01*
X0150555Y0045707D01*
X0150526Y0045795D01*
X0150501Y0045884D01*
X0150479Y0045974D01*
X0150462Y0046065D01*
X0150448Y0046156D01*
X0150438Y0046248D01*
X0150432Y0046340D01*
X0150430Y0046433D01*
X0160430Y0046433D02*
X0160432Y0046526D01*
X0160438Y0046618D01*
X0160448Y0046710D01*
X0160462Y0046801D01*
X0160479Y0046892D01*
X0160501Y0046982D01*
X0160526Y0047071D01*
X0160555Y0047159D01*
X0160588Y0047245D01*
X0160625Y0047330D01*
X0160665Y0047414D01*
X0160709Y0047495D01*
X0160756Y0047575D01*
X0160806Y0047653D01*
X0160860Y0047728D01*
X0160917Y0047801D01*
X0160977Y0047871D01*
X0161040Y0047939D01*
X0161106Y0048004D01*
X0161174Y0048066D01*
X0161245Y0048126D01*
X0161319Y0048182D01*
X0161395Y0048235D01*
X0161473Y0048284D01*
X0161553Y0048331D01*
X0161635Y0048373D01*
X0161719Y0048413D01*
X0161804Y0048448D01*
X0161891Y0048480D01*
X0161979Y0048509D01*
X0162068Y0048533D01*
X0162158Y0048554D01*
X0162249Y0048570D01*
X0162341Y0048583D01*
X0162433Y0048592D01*
X0162526Y0048597D01*
X0162618Y0048598D01*
X0162711Y0048595D01*
X0162803Y0048588D01*
X0162895Y0048577D01*
X0162986Y0048562D01*
X0163077Y0048544D01*
X0163167Y0048521D01*
X0163255Y0048495D01*
X0163343Y0048465D01*
X0163429Y0048431D01*
X0163513Y0048394D01*
X0163596Y0048352D01*
X0163677Y0048308D01*
X0163757Y0048260D01*
X0163834Y0048209D01*
X0163908Y0048154D01*
X0163981Y0048096D01*
X0164051Y0048036D01*
X0164118Y0047972D01*
X0164182Y0047906D01*
X0164244Y0047836D01*
X0164302Y0047765D01*
X0164357Y0047691D01*
X0164409Y0047614D01*
X0164458Y0047535D01*
X0164504Y0047455D01*
X0164546Y0047372D01*
X0164584Y0047288D01*
X0164619Y0047202D01*
X0164650Y0047115D01*
X0164677Y0047027D01*
X0164700Y0046937D01*
X0164720Y0046847D01*
X0164736Y0046756D01*
X0164748Y0046664D01*
X0164756Y0046572D01*
X0164760Y0046479D01*
X0164760Y0046387D01*
X0164756Y0046294D01*
X0164748Y0046202D01*
X0164736Y0046110D01*
X0164720Y0046019D01*
X0164700Y0045929D01*
X0164677Y0045839D01*
X0164650Y0045751D01*
X0164619Y0045664D01*
X0164584Y0045578D01*
X0164546Y0045494D01*
X0164504Y0045411D01*
X0164458Y0045331D01*
X0164409Y0045252D01*
X0164357Y0045175D01*
X0164302Y0045101D01*
X0164244Y0045030D01*
X0164182Y0044960D01*
X0164118Y0044894D01*
X0164051Y0044830D01*
X0163981Y0044770D01*
X0163908Y0044712D01*
X0163834Y0044657D01*
X0163757Y0044606D01*
X0163678Y0044558D01*
X0163596Y0044514D01*
X0163513Y0044472D01*
X0163429Y0044435D01*
X0163343Y0044401D01*
X0163255Y0044371D01*
X0163167Y0044345D01*
X0163077Y0044322D01*
X0162986Y0044304D01*
X0162895Y0044289D01*
X0162803Y0044278D01*
X0162711Y0044271D01*
X0162618Y0044268D01*
X0162526Y0044269D01*
X0162433Y0044274D01*
X0162341Y0044283D01*
X0162249Y0044296D01*
X0162158Y0044312D01*
X0162068Y0044333D01*
X0161979Y0044357D01*
X0161891Y0044386D01*
X0161804Y0044418D01*
X0161719Y0044453D01*
X0161635Y0044493D01*
X0161553Y0044535D01*
X0161473Y0044582D01*
X0161395Y0044631D01*
X0161319Y0044684D01*
X0161245Y0044740D01*
X0161174Y0044800D01*
X0161106Y0044862D01*
X0161040Y0044927D01*
X0160977Y0044995D01*
X0160917Y0045065D01*
X0160860Y0045138D01*
X0160806Y0045213D01*
X0160756Y0045291D01*
X0160709Y0045371D01*
X0160665Y0045452D01*
X0160625Y0045536D01*
X0160588Y0045621D01*
X0160555Y0045707D01*
X0160526Y0045795D01*
X0160501Y0045884D01*
X0160479Y0045974D01*
X0160462Y0046065D01*
X0160448Y0046156D01*
X0160438Y0046248D01*
X0160432Y0046340D01*
X0160430Y0046433D01*
X0170430Y0046433D02*
X0170432Y0046526D01*
X0170438Y0046618D01*
X0170448Y0046710D01*
X0170462Y0046801D01*
X0170479Y0046892D01*
X0170501Y0046982D01*
X0170526Y0047071D01*
X0170555Y0047159D01*
X0170588Y0047245D01*
X0170625Y0047330D01*
X0170665Y0047414D01*
X0170709Y0047495D01*
X0170756Y0047575D01*
X0170806Y0047653D01*
X0170860Y0047728D01*
X0170917Y0047801D01*
X0170977Y0047871D01*
X0171040Y0047939D01*
X0171106Y0048004D01*
X0171174Y0048066D01*
X0171245Y0048126D01*
X0171319Y0048182D01*
X0171395Y0048235D01*
X0171473Y0048284D01*
X0171553Y0048331D01*
X0171635Y0048373D01*
X0171719Y0048413D01*
X0171804Y0048448D01*
X0171891Y0048480D01*
X0171979Y0048509D01*
X0172068Y0048533D01*
X0172158Y0048554D01*
X0172249Y0048570D01*
X0172341Y0048583D01*
X0172433Y0048592D01*
X0172526Y0048597D01*
X0172618Y0048598D01*
X0172711Y0048595D01*
X0172803Y0048588D01*
X0172895Y0048577D01*
X0172986Y0048562D01*
X0173077Y0048544D01*
X0173167Y0048521D01*
X0173255Y0048495D01*
X0173343Y0048465D01*
X0173429Y0048431D01*
X0173513Y0048394D01*
X0173596Y0048352D01*
X0173677Y0048308D01*
X0173757Y0048260D01*
X0173834Y0048209D01*
X0173908Y0048154D01*
X0173981Y0048096D01*
X0174051Y0048036D01*
X0174118Y0047972D01*
X0174182Y0047906D01*
X0174244Y0047836D01*
X0174302Y0047765D01*
X0174357Y0047691D01*
X0174409Y0047614D01*
X0174458Y0047535D01*
X0174504Y0047455D01*
X0174546Y0047372D01*
X0174584Y0047288D01*
X0174619Y0047202D01*
X0174650Y0047115D01*
X0174677Y0047027D01*
X0174700Y0046937D01*
X0174720Y0046847D01*
X0174736Y0046756D01*
X0174748Y0046664D01*
X0174756Y0046572D01*
X0174760Y0046479D01*
X0174760Y0046387D01*
X0174756Y0046294D01*
X0174748Y0046202D01*
X0174736Y0046110D01*
X0174720Y0046019D01*
X0174700Y0045929D01*
X0174677Y0045839D01*
X0174650Y0045751D01*
X0174619Y0045664D01*
X0174584Y0045578D01*
X0174546Y0045494D01*
X0174504Y0045411D01*
X0174458Y0045331D01*
X0174409Y0045252D01*
X0174357Y0045175D01*
X0174302Y0045101D01*
X0174244Y0045030D01*
X0174182Y0044960D01*
X0174118Y0044894D01*
X0174051Y0044830D01*
X0173981Y0044770D01*
X0173908Y0044712D01*
X0173834Y0044657D01*
X0173757Y0044606D01*
X0173678Y0044558D01*
X0173596Y0044514D01*
X0173513Y0044472D01*
X0173429Y0044435D01*
X0173343Y0044401D01*
X0173255Y0044371D01*
X0173167Y0044345D01*
X0173077Y0044322D01*
X0172986Y0044304D01*
X0172895Y0044289D01*
X0172803Y0044278D01*
X0172711Y0044271D01*
X0172618Y0044268D01*
X0172526Y0044269D01*
X0172433Y0044274D01*
X0172341Y0044283D01*
X0172249Y0044296D01*
X0172158Y0044312D01*
X0172068Y0044333D01*
X0171979Y0044357D01*
X0171891Y0044386D01*
X0171804Y0044418D01*
X0171719Y0044453D01*
X0171635Y0044493D01*
X0171553Y0044535D01*
X0171473Y0044582D01*
X0171395Y0044631D01*
X0171319Y0044684D01*
X0171245Y0044740D01*
X0171174Y0044800D01*
X0171106Y0044862D01*
X0171040Y0044927D01*
X0170977Y0044995D01*
X0170917Y0045065D01*
X0170860Y0045138D01*
X0170806Y0045213D01*
X0170756Y0045291D01*
X0170709Y0045371D01*
X0170665Y0045452D01*
X0170625Y0045536D01*
X0170588Y0045621D01*
X0170555Y0045707D01*
X0170526Y0045795D01*
X0170501Y0045884D01*
X0170479Y0045974D01*
X0170462Y0046065D01*
X0170448Y0046156D01*
X0170438Y0046248D01*
X0170432Y0046340D01*
X0170430Y0046433D01*
X0185430Y0046433D02*
X0185432Y0046526D01*
X0185438Y0046618D01*
X0185448Y0046710D01*
X0185462Y0046801D01*
X0185479Y0046892D01*
X0185501Y0046982D01*
X0185526Y0047071D01*
X0185555Y0047159D01*
X0185588Y0047245D01*
X0185625Y0047330D01*
X0185665Y0047414D01*
X0185709Y0047495D01*
X0185756Y0047575D01*
X0185806Y0047653D01*
X0185860Y0047728D01*
X0185917Y0047801D01*
X0185977Y0047871D01*
X0186040Y0047939D01*
X0186106Y0048004D01*
X0186174Y0048066D01*
X0186245Y0048126D01*
X0186319Y0048182D01*
X0186395Y0048235D01*
X0186473Y0048284D01*
X0186553Y0048331D01*
X0186635Y0048373D01*
X0186719Y0048413D01*
X0186804Y0048448D01*
X0186891Y0048480D01*
X0186979Y0048509D01*
X0187068Y0048533D01*
X0187158Y0048554D01*
X0187249Y0048570D01*
X0187341Y0048583D01*
X0187433Y0048592D01*
X0187526Y0048597D01*
X0187618Y0048598D01*
X0187711Y0048595D01*
X0187803Y0048588D01*
X0187895Y0048577D01*
X0187986Y0048562D01*
X0188077Y0048544D01*
X0188167Y0048521D01*
X0188255Y0048495D01*
X0188343Y0048465D01*
X0188429Y0048431D01*
X0188513Y0048394D01*
X0188596Y0048352D01*
X0188677Y0048308D01*
X0188757Y0048260D01*
X0188834Y0048209D01*
X0188908Y0048154D01*
X0188981Y0048096D01*
X0189051Y0048036D01*
X0189118Y0047972D01*
X0189182Y0047906D01*
X0189244Y0047836D01*
X0189302Y0047765D01*
X0189357Y0047691D01*
X0189409Y0047614D01*
X0189458Y0047535D01*
X0189504Y0047455D01*
X0189546Y0047372D01*
X0189584Y0047288D01*
X0189619Y0047202D01*
X0189650Y0047115D01*
X0189677Y0047027D01*
X0189700Y0046937D01*
X0189720Y0046847D01*
X0189736Y0046756D01*
X0189748Y0046664D01*
X0189756Y0046572D01*
X0189760Y0046479D01*
X0189760Y0046387D01*
X0189756Y0046294D01*
X0189748Y0046202D01*
X0189736Y0046110D01*
X0189720Y0046019D01*
X0189700Y0045929D01*
X0189677Y0045839D01*
X0189650Y0045751D01*
X0189619Y0045664D01*
X0189584Y0045578D01*
X0189546Y0045494D01*
X0189504Y0045411D01*
X0189458Y0045331D01*
X0189409Y0045252D01*
X0189357Y0045175D01*
X0189302Y0045101D01*
X0189244Y0045030D01*
X0189182Y0044960D01*
X0189118Y0044894D01*
X0189051Y0044830D01*
X0188981Y0044770D01*
X0188908Y0044712D01*
X0188834Y0044657D01*
X0188757Y0044606D01*
X0188678Y0044558D01*
X0188596Y0044514D01*
X0188513Y0044472D01*
X0188429Y0044435D01*
X0188343Y0044401D01*
X0188255Y0044371D01*
X0188167Y0044345D01*
X0188077Y0044322D01*
X0187986Y0044304D01*
X0187895Y0044289D01*
X0187803Y0044278D01*
X0187711Y0044271D01*
X0187618Y0044268D01*
X0187526Y0044269D01*
X0187433Y0044274D01*
X0187341Y0044283D01*
X0187249Y0044296D01*
X0187158Y0044312D01*
X0187068Y0044333D01*
X0186979Y0044357D01*
X0186891Y0044386D01*
X0186804Y0044418D01*
X0186719Y0044453D01*
X0186635Y0044493D01*
X0186553Y0044535D01*
X0186473Y0044582D01*
X0186395Y0044631D01*
X0186319Y0044684D01*
X0186245Y0044740D01*
X0186174Y0044800D01*
X0186106Y0044862D01*
X0186040Y0044927D01*
X0185977Y0044995D01*
X0185917Y0045065D01*
X0185860Y0045138D01*
X0185806Y0045213D01*
X0185756Y0045291D01*
X0185709Y0045371D01*
X0185665Y0045452D01*
X0185625Y0045536D01*
X0185588Y0045621D01*
X0185555Y0045707D01*
X0185526Y0045795D01*
X0185501Y0045884D01*
X0185479Y0045974D01*
X0185462Y0046065D01*
X0185448Y0046156D01*
X0185438Y0046248D01*
X0185432Y0046340D01*
X0185430Y0046433D01*
X0195430Y0046433D02*
X0195432Y0046526D01*
X0195438Y0046618D01*
X0195448Y0046710D01*
X0195462Y0046801D01*
X0195479Y0046892D01*
X0195501Y0046982D01*
X0195526Y0047071D01*
X0195555Y0047159D01*
X0195588Y0047245D01*
X0195625Y0047330D01*
X0195665Y0047414D01*
X0195709Y0047495D01*
X0195756Y0047575D01*
X0195806Y0047653D01*
X0195860Y0047728D01*
X0195917Y0047801D01*
X0195977Y0047871D01*
X0196040Y0047939D01*
X0196106Y0048004D01*
X0196174Y0048066D01*
X0196245Y0048126D01*
X0196319Y0048182D01*
X0196395Y0048235D01*
X0196473Y0048284D01*
X0196553Y0048331D01*
X0196635Y0048373D01*
X0196719Y0048413D01*
X0196804Y0048448D01*
X0196891Y0048480D01*
X0196979Y0048509D01*
X0197068Y0048533D01*
X0197158Y0048554D01*
X0197249Y0048570D01*
X0197341Y0048583D01*
X0197433Y0048592D01*
X0197526Y0048597D01*
X0197618Y0048598D01*
X0197711Y0048595D01*
X0197803Y0048588D01*
X0197895Y0048577D01*
X0197986Y0048562D01*
X0198077Y0048544D01*
X0198167Y0048521D01*
X0198255Y0048495D01*
X0198343Y0048465D01*
X0198429Y0048431D01*
X0198513Y0048394D01*
X0198596Y0048352D01*
X0198677Y0048308D01*
X0198757Y0048260D01*
X0198834Y0048209D01*
X0198908Y0048154D01*
X0198981Y0048096D01*
X0199051Y0048036D01*
X0199118Y0047972D01*
X0199182Y0047906D01*
X0199244Y0047836D01*
X0199302Y0047765D01*
X0199357Y0047691D01*
X0199409Y0047614D01*
X0199458Y0047535D01*
X0199504Y0047455D01*
X0199546Y0047372D01*
X0199584Y0047288D01*
X0199619Y0047202D01*
X0199650Y0047115D01*
X0199677Y0047027D01*
X0199700Y0046937D01*
X0199720Y0046847D01*
X0199736Y0046756D01*
X0199748Y0046664D01*
X0199756Y0046572D01*
X0199760Y0046479D01*
X0199760Y0046387D01*
X0199756Y0046294D01*
X0199748Y0046202D01*
X0199736Y0046110D01*
X0199720Y0046019D01*
X0199700Y0045929D01*
X0199677Y0045839D01*
X0199650Y0045751D01*
X0199619Y0045664D01*
X0199584Y0045578D01*
X0199546Y0045494D01*
X0199504Y0045411D01*
X0199458Y0045331D01*
X0199409Y0045252D01*
X0199357Y0045175D01*
X0199302Y0045101D01*
X0199244Y0045030D01*
X0199182Y0044960D01*
X0199118Y0044894D01*
X0199051Y0044830D01*
X0198981Y0044770D01*
X0198908Y0044712D01*
X0198834Y0044657D01*
X0198757Y0044606D01*
X0198678Y0044558D01*
X0198596Y0044514D01*
X0198513Y0044472D01*
X0198429Y0044435D01*
X0198343Y0044401D01*
X0198255Y0044371D01*
X0198167Y0044345D01*
X0198077Y0044322D01*
X0197986Y0044304D01*
X0197895Y0044289D01*
X0197803Y0044278D01*
X0197711Y0044271D01*
X0197618Y0044268D01*
X0197526Y0044269D01*
X0197433Y0044274D01*
X0197341Y0044283D01*
X0197249Y0044296D01*
X0197158Y0044312D01*
X0197068Y0044333D01*
X0196979Y0044357D01*
X0196891Y0044386D01*
X0196804Y0044418D01*
X0196719Y0044453D01*
X0196635Y0044493D01*
X0196553Y0044535D01*
X0196473Y0044582D01*
X0196395Y0044631D01*
X0196319Y0044684D01*
X0196245Y0044740D01*
X0196174Y0044800D01*
X0196106Y0044862D01*
X0196040Y0044927D01*
X0195977Y0044995D01*
X0195917Y0045065D01*
X0195860Y0045138D01*
X0195806Y0045213D01*
X0195756Y0045291D01*
X0195709Y0045371D01*
X0195665Y0045452D01*
X0195625Y0045536D01*
X0195588Y0045621D01*
X0195555Y0045707D01*
X0195526Y0045795D01*
X0195501Y0045884D01*
X0195479Y0045974D01*
X0195462Y0046065D01*
X0195448Y0046156D01*
X0195438Y0046248D01*
X0195432Y0046340D01*
X0195430Y0046433D01*
X0205430Y0046433D02*
X0205432Y0046526D01*
X0205438Y0046618D01*
X0205448Y0046710D01*
X0205462Y0046801D01*
X0205479Y0046892D01*
X0205501Y0046982D01*
X0205526Y0047071D01*
X0205555Y0047159D01*
X0205588Y0047245D01*
X0205625Y0047330D01*
X0205665Y0047414D01*
X0205709Y0047495D01*
X0205756Y0047575D01*
X0205806Y0047653D01*
X0205860Y0047728D01*
X0205917Y0047801D01*
X0205977Y0047871D01*
X0206040Y0047939D01*
X0206106Y0048004D01*
X0206174Y0048066D01*
X0206245Y0048126D01*
X0206319Y0048182D01*
X0206395Y0048235D01*
X0206473Y0048284D01*
X0206553Y0048331D01*
X0206635Y0048373D01*
X0206719Y0048413D01*
X0206804Y0048448D01*
X0206891Y0048480D01*
X0206979Y0048509D01*
X0207068Y0048533D01*
X0207158Y0048554D01*
X0207249Y0048570D01*
X0207341Y0048583D01*
X0207433Y0048592D01*
X0207526Y0048597D01*
X0207618Y0048598D01*
X0207711Y0048595D01*
X0207803Y0048588D01*
X0207895Y0048577D01*
X0207986Y0048562D01*
X0208077Y0048544D01*
X0208167Y0048521D01*
X0208255Y0048495D01*
X0208343Y0048465D01*
X0208429Y0048431D01*
X0208513Y0048394D01*
X0208596Y0048352D01*
X0208677Y0048308D01*
X0208757Y0048260D01*
X0208834Y0048209D01*
X0208908Y0048154D01*
X0208981Y0048096D01*
X0209051Y0048036D01*
X0209118Y0047972D01*
X0209182Y0047906D01*
X0209244Y0047836D01*
X0209302Y0047765D01*
X0209357Y0047691D01*
X0209409Y0047614D01*
X0209458Y0047535D01*
X0209504Y0047455D01*
X0209546Y0047372D01*
X0209584Y0047288D01*
X0209619Y0047202D01*
X0209650Y0047115D01*
X0209677Y0047027D01*
X0209700Y0046937D01*
X0209720Y0046847D01*
X0209736Y0046756D01*
X0209748Y0046664D01*
X0209756Y0046572D01*
X0209760Y0046479D01*
X0209760Y0046387D01*
X0209756Y0046294D01*
X0209748Y0046202D01*
X0209736Y0046110D01*
X0209720Y0046019D01*
X0209700Y0045929D01*
X0209677Y0045839D01*
X0209650Y0045751D01*
X0209619Y0045664D01*
X0209584Y0045578D01*
X0209546Y0045494D01*
X0209504Y0045411D01*
X0209458Y0045331D01*
X0209409Y0045252D01*
X0209357Y0045175D01*
X0209302Y0045101D01*
X0209244Y0045030D01*
X0209182Y0044960D01*
X0209118Y0044894D01*
X0209051Y0044830D01*
X0208981Y0044770D01*
X0208908Y0044712D01*
X0208834Y0044657D01*
X0208757Y0044606D01*
X0208678Y0044558D01*
X0208596Y0044514D01*
X0208513Y0044472D01*
X0208429Y0044435D01*
X0208343Y0044401D01*
X0208255Y0044371D01*
X0208167Y0044345D01*
X0208077Y0044322D01*
X0207986Y0044304D01*
X0207895Y0044289D01*
X0207803Y0044278D01*
X0207711Y0044271D01*
X0207618Y0044268D01*
X0207526Y0044269D01*
X0207433Y0044274D01*
X0207341Y0044283D01*
X0207249Y0044296D01*
X0207158Y0044312D01*
X0207068Y0044333D01*
X0206979Y0044357D01*
X0206891Y0044386D01*
X0206804Y0044418D01*
X0206719Y0044453D01*
X0206635Y0044493D01*
X0206553Y0044535D01*
X0206473Y0044582D01*
X0206395Y0044631D01*
X0206319Y0044684D01*
X0206245Y0044740D01*
X0206174Y0044800D01*
X0206106Y0044862D01*
X0206040Y0044927D01*
X0205977Y0044995D01*
X0205917Y0045065D01*
X0205860Y0045138D01*
X0205806Y0045213D01*
X0205756Y0045291D01*
X0205709Y0045371D01*
X0205665Y0045452D01*
X0205625Y0045536D01*
X0205588Y0045621D01*
X0205555Y0045707D01*
X0205526Y0045795D01*
X0205501Y0045884D01*
X0205479Y0045974D01*
X0205462Y0046065D01*
X0205448Y0046156D01*
X0205438Y0046248D01*
X0205432Y0046340D01*
X0205430Y0046433D01*
X0185430Y0216433D02*
X0185432Y0216526D01*
X0185438Y0216618D01*
X0185448Y0216710D01*
X0185462Y0216801D01*
X0185479Y0216892D01*
X0185501Y0216982D01*
X0185526Y0217071D01*
X0185555Y0217159D01*
X0185588Y0217245D01*
X0185625Y0217330D01*
X0185665Y0217414D01*
X0185709Y0217495D01*
X0185756Y0217575D01*
X0185806Y0217653D01*
X0185860Y0217728D01*
X0185917Y0217801D01*
X0185977Y0217871D01*
X0186040Y0217939D01*
X0186106Y0218004D01*
X0186174Y0218066D01*
X0186245Y0218126D01*
X0186319Y0218182D01*
X0186395Y0218235D01*
X0186473Y0218284D01*
X0186553Y0218331D01*
X0186635Y0218373D01*
X0186719Y0218413D01*
X0186804Y0218448D01*
X0186891Y0218480D01*
X0186979Y0218509D01*
X0187068Y0218533D01*
X0187158Y0218554D01*
X0187249Y0218570D01*
X0187341Y0218583D01*
X0187433Y0218592D01*
X0187526Y0218597D01*
X0187618Y0218598D01*
X0187711Y0218595D01*
X0187803Y0218588D01*
X0187895Y0218577D01*
X0187986Y0218562D01*
X0188077Y0218544D01*
X0188167Y0218521D01*
X0188255Y0218495D01*
X0188343Y0218465D01*
X0188429Y0218431D01*
X0188513Y0218394D01*
X0188596Y0218352D01*
X0188677Y0218308D01*
X0188757Y0218260D01*
X0188834Y0218209D01*
X0188908Y0218154D01*
X0188981Y0218096D01*
X0189051Y0218036D01*
X0189118Y0217972D01*
X0189182Y0217906D01*
X0189244Y0217836D01*
X0189302Y0217765D01*
X0189357Y0217691D01*
X0189409Y0217614D01*
X0189458Y0217535D01*
X0189504Y0217455D01*
X0189546Y0217372D01*
X0189584Y0217288D01*
X0189619Y0217202D01*
X0189650Y0217115D01*
X0189677Y0217027D01*
X0189700Y0216937D01*
X0189720Y0216847D01*
X0189736Y0216756D01*
X0189748Y0216664D01*
X0189756Y0216572D01*
X0189760Y0216479D01*
X0189760Y0216387D01*
X0189756Y0216294D01*
X0189748Y0216202D01*
X0189736Y0216110D01*
X0189720Y0216019D01*
X0189700Y0215929D01*
X0189677Y0215839D01*
X0189650Y0215751D01*
X0189619Y0215664D01*
X0189584Y0215578D01*
X0189546Y0215494D01*
X0189504Y0215411D01*
X0189458Y0215331D01*
X0189409Y0215252D01*
X0189357Y0215175D01*
X0189302Y0215101D01*
X0189244Y0215030D01*
X0189182Y0214960D01*
X0189118Y0214894D01*
X0189051Y0214830D01*
X0188981Y0214770D01*
X0188908Y0214712D01*
X0188834Y0214657D01*
X0188757Y0214606D01*
X0188678Y0214558D01*
X0188596Y0214514D01*
X0188513Y0214472D01*
X0188429Y0214435D01*
X0188343Y0214401D01*
X0188255Y0214371D01*
X0188167Y0214345D01*
X0188077Y0214322D01*
X0187986Y0214304D01*
X0187895Y0214289D01*
X0187803Y0214278D01*
X0187711Y0214271D01*
X0187618Y0214268D01*
X0187526Y0214269D01*
X0187433Y0214274D01*
X0187341Y0214283D01*
X0187249Y0214296D01*
X0187158Y0214312D01*
X0187068Y0214333D01*
X0186979Y0214357D01*
X0186891Y0214386D01*
X0186804Y0214418D01*
X0186719Y0214453D01*
X0186635Y0214493D01*
X0186553Y0214535D01*
X0186473Y0214582D01*
X0186395Y0214631D01*
X0186319Y0214684D01*
X0186245Y0214740D01*
X0186174Y0214800D01*
X0186106Y0214862D01*
X0186040Y0214927D01*
X0185977Y0214995D01*
X0185917Y0215065D01*
X0185860Y0215138D01*
X0185806Y0215213D01*
X0185756Y0215291D01*
X0185709Y0215371D01*
X0185665Y0215452D01*
X0185625Y0215536D01*
X0185588Y0215621D01*
X0185555Y0215707D01*
X0185526Y0215795D01*
X0185501Y0215884D01*
X0185479Y0215974D01*
X0185462Y0216065D01*
X0185448Y0216156D01*
X0185438Y0216248D01*
X0185432Y0216340D01*
X0185430Y0216433D01*
X0175430Y0216433D02*
X0175432Y0216526D01*
X0175438Y0216618D01*
X0175448Y0216710D01*
X0175462Y0216801D01*
X0175479Y0216892D01*
X0175501Y0216982D01*
X0175526Y0217071D01*
X0175555Y0217159D01*
X0175588Y0217245D01*
X0175625Y0217330D01*
X0175665Y0217414D01*
X0175709Y0217495D01*
X0175756Y0217575D01*
X0175806Y0217653D01*
X0175860Y0217728D01*
X0175917Y0217801D01*
X0175977Y0217871D01*
X0176040Y0217939D01*
X0176106Y0218004D01*
X0176174Y0218066D01*
X0176245Y0218126D01*
X0176319Y0218182D01*
X0176395Y0218235D01*
X0176473Y0218284D01*
X0176553Y0218331D01*
X0176635Y0218373D01*
X0176719Y0218413D01*
X0176804Y0218448D01*
X0176891Y0218480D01*
X0176979Y0218509D01*
X0177068Y0218533D01*
X0177158Y0218554D01*
X0177249Y0218570D01*
X0177341Y0218583D01*
X0177433Y0218592D01*
X0177526Y0218597D01*
X0177618Y0218598D01*
X0177711Y0218595D01*
X0177803Y0218588D01*
X0177895Y0218577D01*
X0177986Y0218562D01*
X0178077Y0218544D01*
X0178167Y0218521D01*
X0178255Y0218495D01*
X0178343Y0218465D01*
X0178429Y0218431D01*
X0178513Y0218394D01*
X0178596Y0218352D01*
X0178677Y0218308D01*
X0178757Y0218260D01*
X0178834Y0218209D01*
X0178908Y0218154D01*
X0178981Y0218096D01*
X0179051Y0218036D01*
X0179118Y0217972D01*
X0179182Y0217906D01*
X0179244Y0217836D01*
X0179302Y0217765D01*
X0179357Y0217691D01*
X0179409Y0217614D01*
X0179458Y0217535D01*
X0179504Y0217455D01*
X0179546Y0217372D01*
X0179584Y0217288D01*
X0179619Y0217202D01*
X0179650Y0217115D01*
X0179677Y0217027D01*
X0179700Y0216937D01*
X0179720Y0216847D01*
X0179736Y0216756D01*
X0179748Y0216664D01*
X0179756Y0216572D01*
X0179760Y0216479D01*
X0179760Y0216387D01*
X0179756Y0216294D01*
X0179748Y0216202D01*
X0179736Y0216110D01*
X0179720Y0216019D01*
X0179700Y0215929D01*
X0179677Y0215839D01*
X0179650Y0215751D01*
X0179619Y0215664D01*
X0179584Y0215578D01*
X0179546Y0215494D01*
X0179504Y0215411D01*
X0179458Y0215331D01*
X0179409Y0215252D01*
X0179357Y0215175D01*
X0179302Y0215101D01*
X0179244Y0215030D01*
X0179182Y0214960D01*
X0179118Y0214894D01*
X0179051Y0214830D01*
X0178981Y0214770D01*
X0178908Y0214712D01*
X0178834Y0214657D01*
X0178757Y0214606D01*
X0178678Y0214558D01*
X0178596Y0214514D01*
X0178513Y0214472D01*
X0178429Y0214435D01*
X0178343Y0214401D01*
X0178255Y0214371D01*
X0178167Y0214345D01*
X0178077Y0214322D01*
X0177986Y0214304D01*
X0177895Y0214289D01*
X0177803Y0214278D01*
X0177711Y0214271D01*
X0177618Y0214268D01*
X0177526Y0214269D01*
X0177433Y0214274D01*
X0177341Y0214283D01*
X0177249Y0214296D01*
X0177158Y0214312D01*
X0177068Y0214333D01*
X0176979Y0214357D01*
X0176891Y0214386D01*
X0176804Y0214418D01*
X0176719Y0214453D01*
X0176635Y0214493D01*
X0176553Y0214535D01*
X0176473Y0214582D01*
X0176395Y0214631D01*
X0176319Y0214684D01*
X0176245Y0214740D01*
X0176174Y0214800D01*
X0176106Y0214862D01*
X0176040Y0214927D01*
X0175977Y0214995D01*
X0175917Y0215065D01*
X0175860Y0215138D01*
X0175806Y0215213D01*
X0175756Y0215291D01*
X0175709Y0215371D01*
X0175665Y0215452D01*
X0175625Y0215536D01*
X0175588Y0215621D01*
X0175555Y0215707D01*
X0175526Y0215795D01*
X0175501Y0215884D01*
X0175479Y0215974D01*
X0175462Y0216065D01*
X0175448Y0216156D01*
X0175438Y0216248D01*
X0175432Y0216340D01*
X0175430Y0216433D01*
X0165430Y0216433D02*
X0165432Y0216526D01*
X0165438Y0216618D01*
X0165448Y0216710D01*
X0165462Y0216801D01*
X0165479Y0216892D01*
X0165501Y0216982D01*
X0165526Y0217071D01*
X0165555Y0217159D01*
X0165588Y0217245D01*
X0165625Y0217330D01*
X0165665Y0217414D01*
X0165709Y0217495D01*
X0165756Y0217575D01*
X0165806Y0217653D01*
X0165860Y0217728D01*
X0165917Y0217801D01*
X0165977Y0217871D01*
X0166040Y0217939D01*
X0166106Y0218004D01*
X0166174Y0218066D01*
X0166245Y0218126D01*
X0166319Y0218182D01*
X0166395Y0218235D01*
X0166473Y0218284D01*
X0166553Y0218331D01*
X0166635Y0218373D01*
X0166719Y0218413D01*
X0166804Y0218448D01*
X0166891Y0218480D01*
X0166979Y0218509D01*
X0167068Y0218533D01*
X0167158Y0218554D01*
X0167249Y0218570D01*
X0167341Y0218583D01*
X0167433Y0218592D01*
X0167526Y0218597D01*
X0167618Y0218598D01*
X0167711Y0218595D01*
X0167803Y0218588D01*
X0167895Y0218577D01*
X0167986Y0218562D01*
X0168077Y0218544D01*
X0168167Y0218521D01*
X0168255Y0218495D01*
X0168343Y0218465D01*
X0168429Y0218431D01*
X0168513Y0218394D01*
X0168596Y0218352D01*
X0168677Y0218308D01*
X0168757Y0218260D01*
X0168834Y0218209D01*
X0168908Y0218154D01*
X0168981Y0218096D01*
X0169051Y0218036D01*
X0169118Y0217972D01*
X0169182Y0217906D01*
X0169244Y0217836D01*
X0169302Y0217765D01*
X0169357Y0217691D01*
X0169409Y0217614D01*
X0169458Y0217535D01*
X0169504Y0217455D01*
X0169546Y0217372D01*
X0169584Y0217288D01*
X0169619Y0217202D01*
X0169650Y0217115D01*
X0169677Y0217027D01*
X0169700Y0216937D01*
X0169720Y0216847D01*
X0169736Y0216756D01*
X0169748Y0216664D01*
X0169756Y0216572D01*
X0169760Y0216479D01*
X0169760Y0216387D01*
X0169756Y0216294D01*
X0169748Y0216202D01*
X0169736Y0216110D01*
X0169720Y0216019D01*
X0169700Y0215929D01*
X0169677Y0215839D01*
X0169650Y0215751D01*
X0169619Y0215664D01*
X0169584Y0215578D01*
X0169546Y0215494D01*
X0169504Y0215411D01*
X0169458Y0215331D01*
X0169409Y0215252D01*
X0169357Y0215175D01*
X0169302Y0215101D01*
X0169244Y0215030D01*
X0169182Y0214960D01*
X0169118Y0214894D01*
X0169051Y0214830D01*
X0168981Y0214770D01*
X0168908Y0214712D01*
X0168834Y0214657D01*
X0168757Y0214606D01*
X0168678Y0214558D01*
X0168596Y0214514D01*
X0168513Y0214472D01*
X0168429Y0214435D01*
X0168343Y0214401D01*
X0168255Y0214371D01*
X0168167Y0214345D01*
X0168077Y0214322D01*
X0167986Y0214304D01*
X0167895Y0214289D01*
X0167803Y0214278D01*
X0167711Y0214271D01*
X0167618Y0214268D01*
X0167526Y0214269D01*
X0167433Y0214274D01*
X0167341Y0214283D01*
X0167249Y0214296D01*
X0167158Y0214312D01*
X0167068Y0214333D01*
X0166979Y0214357D01*
X0166891Y0214386D01*
X0166804Y0214418D01*
X0166719Y0214453D01*
X0166635Y0214493D01*
X0166553Y0214535D01*
X0166473Y0214582D01*
X0166395Y0214631D01*
X0166319Y0214684D01*
X0166245Y0214740D01*
X0166174Y0214800D01*
X0166106Y0214862D01*
X0166040Y0214927D01*
X0165977Y0214995D01*
X0165917Y0215065D01*
X0165860Y0215138D01*
X0165806Y0215213D01*
X0165756Y0215291D01*
X0165709Y0215371D01*
X0165665Y0215452D01*
X0165625Y0215536D01*
X0165588Y0215621D01*
X0165555Y0215707D01*
X0165526Y0215795D01*
X0165501Y0215884D01*
X0165479Y0215974D01*
X0165462Y0216065D01*
X0165448Y0216156D01*
X0165438Y0216248D01*
X0165432Y0216340D01*
X0165430Y0216433D01*
X0150430Y0216433D02*
X0150432Y0216526D01*
X0150438Y0216618D01*
X0150448Y0216710D01*
X0150462Y0216801D01*
X0150479Y0216892D01*
X0150501Y0216982D01*
X0150526Y0217071D01*
X0150555Y0217159D01*
X0150588Y0217245D01*
X0150625Y0217330D01*
X0150665Y0217414D01*
X0150709Y0217495D01*
X0150756Y0217575D01*
X0150806Y0217653D01*
X0150860Y0217728D01*
X0150917Y0217801D01*
X0150977Y0217871D01*
X0151040Y0217939D01*
X0151106Y0218004D01*
X0151174Y0218066D01*
X0151245Y0218126D01*
X0151319Y0218182D01*
X0151395Y0218235D01*
X0151473Y0218284D01*
X0151553Y0218331D01*
X0151635Y0218373D01*
X0151719Y0218413D01*
X0151804Y0218448D01*
X0151891Y0218480D01*
X0151979Y0218509D01*
X0152068Y0218533D01*
X0152158Y0218554D01*
X0152249Y0218570D01*
X0152341Y0218583D01*
X0152433Y0218592D01*
X0152526Y0218597D01*
X0152618Y0218598D01*
X0152711Y0218595D01*
X0152803Y0218588D01*
X0152895Y0218577D01*
X0152986Y0218562D01*
X0153077Y0218544D01*
X0153167Y0218521D01*
X0153255Y0218495D01*
X0153343Y0218465D01*
X0153429Y0218431D01*
X0153513Y0218394D01*
X0153596Y0218352D01*
X0153677Y0218308D01*
X0153757Y0218260D01*
X0153834Y0218209D01*
X0153908Y0218154D01*
X0153981Y0218096D01*
X0154051Y0218036D01*
X0154118Y0217972D01*
X0154182Y0217906D01*
X0154244Y0217836D01*
X0154302Y0217765D01*
X0154357Y0217691D01*
X0154409Y0217614D01*
X0154458Y0217535D01*
X0154504Y0217455D01*
X0154546Y0217372D01*
X0154584Y0217288D01*
X0154619Y0217202D01*
X0154650Y0217115D01*
X0154677Y0217027D01*
X0154700Y0216937D01*
X0154720Y0216847D01*
X0154736Y0216756D01*
X0154748Y0216664D01*
X0154756Y0216572D01*
X0154760Y0216479D01*
X0154760Y0216387D01*
X0154756Y0216294D01*
X0154748Y0216202D01*
X0154736Y0216110D01*
X0154720Y0216019D01*
X0154700Y0215929D01*
X0154677Y0215839D01*
X0154650Y0215751D01*
X0154619Y0215664D01*
X0154584Y0215578D01*
X0154546Y0215494D01*
X0154504Y0215411D01*
X0154458Y0215331D01*
X0154409Y0215252D01*
X0154357Y0215175D01*
X0154302Y0215101D01*
X0154244Y0215030D01*
X0154182Y0214960D01*
X0154118Y0214894D01*
X0154051Y0214830D01*
X0153981Y0214770D01*
X0153908Y0214712D01*
X0153834Y0214657D01*
X0153757Y0214606D01*
X0153678Y0214558D01*
X0153596Y0214514D01*
X0153513Y0214472D01*
X0153429Y0214435D01*
X0153343Y0214401D01*
X0153255Y0214371D01*
X0153167Y0214345D01*
X0153077Y0214322D01*
X0152986Y0214304D01*
X0152895Y0214289D01*
X0152803Y0214278D01*
X0152711Y0214271D01*
X0152618Y0214268D01*
X0152526Y0214269D01*
X0152433Y0214274D01*
X0152341Y0214283D01*
X0152249Y0214296D01*
X0152158Y0214312D01*
X0152068Y0214333D01*
X0151979Y0214357D01*
X0151891Y0214386D01*
X0151804Y0214418D01*
X0151719Y0214453D01*
X0151635Y0214493D01*
X0151553Y0214535D01*
X0151473Y0214582D01*
X0151395Y0214631D01*
X0151319Y0214684D01*
X0151245Y0214740D01*
X0151174Y0214800D01*
X0151106Y0214862D01*
X0151040Y0214927D01*
X0150977Y0214995D01*
X0150917Y0215065D01*
X0150860Y0215138D01*
X0150806Y0215213D01*
X0150756Y0215291D01*
X0150709Y0215371D01*
X0150665Y0215452D01*
X0150625Y0215536D01*
X0150588Y0215621D01*
X0150555Y0215707D01*
X0150526Y0215795D01*
X0150501Y0215884D01*
X0150479Y0215974D01*
X0150462Y0216065D01*
X0150448Y0216156D01*
X0150438Y0216248D01*
X0150432Y0216340D01*
X0150430Y0216433D01*
X0140430Y0216433D02*
X0140432Y0216526D01*
X0140438Y0216618D01*
X0140448Y0216710D01*
X0140462Y0216801D01*
X0140479Y0216892D01*
X0140501Y0216982D01*
X0140526Y0217071D01*
X0140555Y0217159D01*
X0140588Y0217245D01*
X0140625Y0217330D01*
X0140665Y0217414D01*
X0140709Y0217495D01*
X0140756Y0217575D01*
X0140806Y0217653D01*
X0140860Y0217728D01*
X0140917Y0217801D01*
X0140977Y0217871D01*
X0141040Y0217939D01*
X0141106Y0218004D01*
X0141174Y0218066D01*
X0141245Y0218126D01*
X0141319Y0218182D01*
X0141395Y0218235D01*
X0141473Y0218284D01*
X0141553Y0218331D01*
X0141635Y0218373D01*
X0141719Y0218413D01*
X0141804Y0218448D01*
X0141891Y0218480D01*
X0141979Y0218509D01*
X0142068Y0218533D01*
X0142158Y0218554D01*
X0142249Y0218570D01*
X0142341Y0218583D01*
X0142433Y0218592D01*
X0142526Y0218597D01*
X0142618Y0218598D01*
X0142711Y0218595D01*
X0142803Y0218588D01*
X0142895Y0218577D01*
X0142986Y0218562D01*
X0143077Y0218544D01*
X0143167Y0218521D01*
X0143255Y0218495D01*
X0143343Y0218465D01*
X0143429Y0218431D01*
X0143513Y0218394D01*
X0143596Y0218352D01*
X0143677Y0218308D01*
X0143757Y0218260D01*
X0143834Y0218209D01*
X0143908Y0218154D01*
X0143981Y0218096D01*
X0144051Y0218036D01*
X0144118Y0217972D01*
X0144182Y0217906D01*
X0144244Y0217836D01*
X0144302Y0217765D01*
X0144357Y0217691D01*
X0144409Y0217614D01*
X0144458Y0217535D01*
X0144504Y0217455D01*
X0144546Y0217372D01*
X0144584Y0217288D01*
X0144619Y0217202D01*
X0144650Y0217115D01*
X0144677Y0217027D01*
X0144700Y0216937D01*
X0144720Y0216847D01*
X0144736Y0216756D01*
X0144748Y0216664D01*
X0144756Y0216572D01*
X0144760Y0216479D01*
X0144760Y0216387D01*
X0144756Y0216294D01*
X0144748Y0216202D01*
X0144736Y0216110D01*
X0144720Y0216019D01*
X0144700Y0215929D01*
X0144677Y0215839D01*
X0144650Y0215751D01*
X0144619Y0215664D01*
X0144584Y0215578D01*
X0144546Y0215494D01*
X0144504Y0215411D01*
X0144458Y0215331D01*
X0144409Y0215252D01*
X0144357Y0215175D01*
X0144302Y0215101D01*
X0144244Y0215030D01*
X0144182Y0214960D01*
X0144118Y0214894D01*
X0144051Y0214830D01*
X0143981Y0214770D01*
X0143908Y0214712D01*
X0143834Y0214657D01*
X0143757Y0214606D01*
X0143678Y0214558D01*
X0143596Y0214514D01*
X0143513Y0214472D01*
X0143429Y0214435D01*
X0143343Y0214401D01*
X0143255Y0214371D01*
X0143167Y0214345D01*
X0143077Y0214322D01*
X0142986Y0214304D01*
X0142895Y0214289D01*
X0142803Y0214278D01*
X0142711Y0214271D01*
X0142618Y0214268D01*
X0142526Y0214269D01*
X0142433Y0214274D01*
X0142341Y0214283D01*
X0142249Y0214296D01*
X0142158Y0214312D01*
X0142068Y0214333D01*
X0141979Y0214357D01*
X0141891Y0214386D01*
X0141804Y0214418D01*
X0141719Y0214453D01*
X0141635Y0214493D01*
X0141553Y0214535D01*
X0141473Y0214582D01*
X0141395Y0214631D01*
X0141319Y0214684D01*
X0141245Y0214740D01*
X0141174Y0214800D01*
X0141106Y0214862D01*
X0141040Y0214927D01*
X0140977Y0214995D01*
X0140917Y0215065D01*
X0140860Y0215138D01*
X0140806Y0215213D01*
X0140756Y0215291D01*
X0140709Y0215371D01*
X0140665Y0215452D01*
X0140625Y0215536D01*
X0140588Y0215621D01*
X0140555Y0215707D01*
X0140526Y0215795D01*
X0140501Y0215884D01*
X0140479Y0215974D01*
X0140462Y0216065D01*
X0140448Y0216156D01*
X0140438Y0216248D01*
X0140432Y0216340D01*
X0140430Y0216433D01*
X0130430Y0216433D02*
X0130432Y0216526D01*
X0130438Y0216618D01*
X0130448Y0216710D01*
X0130462Y0216801D01*
X0130479Y0216892D01*
X0130501Y0216982D01*
X0130526Y0217071D01*
X0130555Y0217159D01*
X0130588Y0217245D01*
X0130625Y0217330D01*
X0130665Y0217414D01*
X0130709Y0217495D01*
X0130756Y0217575D01*
X0130806Y0217653D01*
X0130860Y0217728D01*
X0130917Y0217801D01*
X0130977Y0217871D01*
X0131040Y0217939D01*
X0131106Y0218004D01*
X0131174Y0218066D01*
X0131245Y0218126D01*
X0131319Y0218182D01*
X0131395Y0218235D01*
X0131473Y0218284D01*
X0131553Y0218331D01*
X0131635Y0218373D01*
X0131719Y0218413D01*
X0131804Y0218448D01*
X0131891Y0218480D01*
X0131979Y0218509D01*
X0132068Y0218533D01*
X0132158Y0218554D01*
X0132249Y0218570D01*
X0132341Y0218583D01*
X0132433Y0218592D01*
X0132526Y0218597D01*
X0132618Y0218598D01*
X0132711Y0218595D01*
X0132803Y0218588D01*
X0132895Y0218577D01*
X0132986Y0218562D01*
X0133077Y0218544D01*
X0133167Y0218521D01*
X0133255Y0218495D01*
X0133343Y0218465D01*
X0133429Y0218431D01*
X0133513Y0218394D01*
X0133596Y0218352D01*
X0133677Y0218308D01*
X0133757Y0218260D01*
X0133834Y0218209D01*
X0133908Y0218154D01*
X0133981Y0218096D01*
X0134051Y0218036D01*
X0134118Y0217972D01*
X0134182Y0217906D01*
X0134244Y0217836D01*
X0134302Y0217765D01*
X0134357Y0217691D01*
X0134409Y0217614D01*
X0134458Y0217535D01*
X0134504Y0217455D01*
X0134546Y0217372D01*
X0134584Y0217288D01*
X0134619Y0217202D01*
X0134650Y0217115D01*
X0134677Y0217027D01*
X0134700Y0216937D01*
X0134720Y0216847D01*
X0134736Y0216756D01*
X0134748Y0216664D01*
X0134756Y0216572D01*
X0134760Y0216479D01*
X0134760Y0216387D01*
X0134756Y0216294D01*
X0134748Y0216202D01*
X0134736Y0216110D01*
X0134720Y0216019D01*
X0134700Y0215929D01*
X0134677Y0215839D01*
X0134650Y0215751D01*
X0134619Y0215664D01*
X0134584Y0215578D01*
X0134546Y0215494D01*
X0134504Y0215411D01*
X0134458Y0215331D01*
X0134409Y0215252D01*
X0134357Y0215175D01*
X0134302Y0215101D01*
X0134244Y0215030D01*
X0134182Y0214960D01*
X0134118Y0214894D01*
X0134051Y0214830D01*
X0133981Y0214770D01*
X0133908Y0214712D01*
X0133834Y0214657D01*
X0133757Y0214606D01*
X0133678Y0214558D01*
X0133596Y0214514D01*
X0133513Y0214472D01*
X0133429Y0214435D01*
X0133343Y0214401D01*
X0133255Y0214371D01*
X0133167Y0214345D01*
X0133077Y0214322D01*
X0132986Y0214304D01*
X0132895Y0214289D01*
X0132803Y0214278D01*
X0132711Y0214271D01*
X0132618Y0214268D01*
X0132526Y0214269D01*
X0132433Y0214274D01*
X0132341Y0214283D01*
X0132249Y0214296D01*
X0132158Y0214312D01*
X0132068Y0214333D01*
X0131979Y0214357D01*
X0131891Y0214386D01*
X0131804Y0214418D01*
X0131719Y0214453D01*
X0131635Y0214493D01*
X0131553Y0214535D01*
X0131473Y0214582D01*
X0131395Y0214631D01*
X0131319Y0214684D01*
X0131245Y0214740D01*
X0131174Y0214800D01*
X0131106Y0214862D01*
X0131040Y0214927D01*
X0130977Y0214995D01*
X0130917Y0215065D01*
X0130860Y0215138D01*
X0130806Y0215213D01*
X0130756Y0215291D01*
X0130709Y0215371D01*
X0130665Y0215452D01*
X0130625Y0215536D01*
X0130588Y0215621D01*
X0130555Y0215707D01*
X0130526Y0215795D01*
X0130501Y0215884D01*
X0130479Y0215974D01*
X0130462Y0216065D01*
X0130448Y0216156D01*
X0130438Y0216248D01*
X0130432Y0216340D01*
X0130430Y0216433D01*
X0115430Y0216433D02*
X0115432Y0216526D01*
X0115438Y0216618D01*
X0115448Y0216710D01*
X0115462Y0216801D01*
X0115479Y0216892D01*
X0115501Y0216982D01*
X0115526Y0217071D01*
X0115555Y0217159D01*
X0115588Y0217245D01*
X0115625Y0217330D01*
X0115665Y0217414D01*
X0115709Y0217495D01*
X0115756Y0217575D01*
X0115806Y0217653D01*
X0115860Y0217728D01*
X0115917Y0217801D01*
X0115977Y0217871D01*
X0116040Y0217939D01*
X0116106Y0218004D01*
X0116174Y0218066D01*
X0116245Y0218126D01*
X0116319Y0218182D01*
X0116395Y0218235D01*
X0116473Y0218284D01*
X0116553Y0218331D01*
X0116635Y0218373D01*
X0116719Y0218413D01*
X0116804Y0218448D01*
X0116891Y0218480D01*
X0116979Y0218509D01*
X0117068Y0218533D01*
X0117158Y0218554D01*
X0117249Y0218570D01*
X0117341Y0218583D01*
X0117433Y0218592D01*
X0117526Y0218597D01*
X0117618Y0218598D01*
X0117711Y0218595D01*
X0117803Y0218588D01*
X0117895Y0218577D01*
X0117986Y0218562D01*
X0118077Y0218544D01*
X0118167Y0218521D01*
X0118255Y0218495D01*
X0118343Y0218465D01*
X0118429Y0218431D01*
X0118513Y0218394D01*
X0118596Y0218352D01*
X0118677Y0218308D01*
X0118757Y0218260D01*
X0118834Y0218209D01*
X0118908Y0218154D01*
X0118981Y0218096D01*
X0119051Y0218036D01*
X0119118Y0217972D01*
X0119182Y0217906D01*
X0119244Y0217836D01*
X0119302Y0217765D01*
X0119357Y0217691D01*
X0119409Y0217614D01*
X0119458Y0217535D01*
X0119504Y0217455D01*
X0119546Y0217372D01*
X0119584Y0217288D01*
X0119619Y0217202D01*
X0119650Y0217115D01*
X0119677Y0217027D01*
X0119700Y0216937D01*
X0119720Y0216847D01*
X0119736Y0216756D01*
X0119748Y0216664D01*
X0119756Y0216572D01*
X0119760Y0216479D01*
X0119760Y0216387D01*
X0119756Y0216294D01*
X0119748Y0216202D01*
X0119736Y0216110D01*
X0119720Y0216019D01*
X0119700Y0215929D01*
X0119677Y0215839D01*
X0119650Y0215751D01*
X0119619Y0215664D01*
X0119584Y0215578D01*
X0119546Y0215494D01*
X0119504Y0215411D01*
X0119458Y0215331D01*
X0119409Y0215252D01*
X0119357Y0215175D01*
X0119302Y0215101D01*
X0119244Y0215030D01*
X0119182Y0214960D01*
X0119118Y0214894D01*
X0119051Y0214830D01*
X0118981Y0214770D01*
X0118908Y0214712D01*
X0118834Y0214657D01*
X0118757Y0214606D01*
X0118678Y0214558D01*
X0118596Y0214514D01*
X0118513Y0214472D01*
X0118429Y0214435D01*
X0118343Y0214401D01*
X0118255Y0214371D01*
X0118167Y0214345D01*
X0118077Y0214322D01*
X0117986Y0214304D01*
X0117895Y0214289D01*
X0117803Y0214278D01*
X0117711Y0214271D01*
X0117618Y0214268D01*
X0117526Y0214269D01*
X0117433Y0214274D01*
X0117341Y0214283D01*
X0117249Y0214296D01*
X0117158Y0214312D01*
X0117068Y0214333D01*
X0116979Y0214357D01*
X0116891Y0214386D01*
X0116804Y0214418D01*
X0116719Y0214453D01*
X0116635Y0214493D01*
X0116553Y0214535D01*
X0116473Y0214582D01*
X0116395Y0214631D01*
X0116319Y0214684D01*
X0116245Y0214740D01*
X0116174Y0214800D01*
X0116106Y0214862D01*
X0116040Y0214927D01*
X0115977Y0214995D01*
X0115917Y0215065D01*
X0115860Y0215138D01*
X0115806Y0215213D01*
X0115756Y0215291D01*
X0115709Y0215371D01*
X0115665Y0215452D01*
X0115625Y0215536D01*
X0115588Y0215621D01*
X0115555Y0215707D01*
X0115526Y0215795D01*
X0115501Y0215884D01*
X0115479Y0215974D01*
X0115462Y0216065D01*
X0115448Y0216156D01*
X0115438Y0216248D01*
X0115432Y0216340D01*
X0115430Y0216433D01*
X0105430Y0216433D02*
X0105432Y0216526D01*
X0105438Y0216618D01*
X0105448Y0216710D01*
X0105462Y0216801D01*
X0105479Y0216892D01*
X0105501Y0216982D01*
X0105526Y0217071D01*
X0105555Y0217159D01*
X0105588Y0217245D01*
X0105625Y0217330D01*
X0105665Y0217414D01*
X0105709Y0217495D01*
X0105756Y0217575D01*
X0105806Y0217653D01*
X0105860Y0217728D01*
X0105917Y0217801D01*
X0105977Y0217871D01*
X0106040Y0217939D01*
X0106106Y0218004D01*
X0106174Y0218066D01*
X0106245Y0218126D01*
X0106319Y0218182D01*
X0106395Y0218235D01*
X0106473Y0218284D01*
X0106553Y0218331D01*
X0106635Y0218373D01*
X0106719Y0218413D01*
X0106804Y0218448D01*
X0106891Y0218480D01*
X0106979Y0218509D01*
X0107068Y0218533D01*
X0107158Y0218554D01*
X0107249Y0218570D01*
X0107341Y0218583D01*
X0107433Y0218592D01*
X0107526Y0218597D01*
X0107618Y0218598D01*
X0107711Y0218595D01*
X0107803Y0218588D01*
X0107895Y0218577D01*
X0107986Y0218562D01*
X0108077Y0218544D01*
X0108167Y0218521D01*
X0108255Y0218495D01*
X0108343Y0218465D01*
X0108429Y0218431D01*
X0108513Y0218394D01*
X0108596Y0218352D01*
X0108677Y0218308D01*
X0108757Y0218260D01*
X0108834Y0218209D01*
X0108908Y0218154D01*
X0108981Y0218096D01*
X0109051Y0218036D01*
X0109118Y0217972D01*
X0109182Y0217906D01*
X0109244Y0217836D01*
X0109302Y0217765D01*
X0109357Y0217691D01*
X0109409Y0217614D01*
X0109458Y0217535D01*
X0109504Y0217455D01*
X0109546Y0217372D01*
X0109584Y0217288D01*
X0109619Y0217202D01*
X0109650Y0217115D01*
X0109677Y0217027D01*
X0109700Y0216937D01*
X0109720Y0216847D01*
X0109736Y0216756D01*
X0109748Y0216664D01*
X0109756Y0216572D01*
X0109760Y0216479D01*
X0109760Y0216387D01*
X0109756Y0216294D01*
X0109748Y0216202D01*
X0109736Y0216110D01*
X0109720Y0216019D01*
X0109700Y0215929D01*
X0109677Y0215839D01*
X0109650Y0215751D01*
X0109619Y0215664D01*
X0109584Y0215578D01*
X0109546Y0215494D01*
X0109504Y0215411D01*
X0109458Y0215331D01*
X0109409Y0215252D01*
X0109357Y0215175D01*
X0109302Y0215101D01*
X0109244Y0215030D01*
X0109182Y0214960D01*
X0109118Y0214894D01*
X0109051Y0214830D01*
X0108981Y0214770D01*
X0108908Y0214712D01*
X0108834Y0214657D01*
X0108757Y0214606D01*
X0108678Y0214558D01*
X0108596Y0214514D01*
X0108513Y0214472D01*
X0108429Y0214435D01*
X0108343Y0214401D01*
X0108255Y0214371D01*
X0108167Y0214345D01*
X0108077Y0214322D01*
X0107986Y0214304D01*
X0107895Y0214289D01*
X0107803Y0214278D01*
X0107711Y0214271D01*
X0107618Y0214268D01*
X0107526Y0214269D01*
X0107433Y0214274D01*
X0107341Y0214283D01*
X0107249Y0214296D01*
X0107158Y0214312D01*
X0107068Y0214333D01*
X0106979Y0214357D01*
X0106891Y0214386D01*
X0106804Y0214418D01*
X0106719Y0214453D01*
X0106635Y0214493D01*
X0106553Y0214535D01*
X0106473Y0214582D01*
X0106395Y0214631D01*
X0106319Y0214684D01*
X0106245Y0214740D01*
X0106174Y0214800D01*
X0106106Y0214862D01*
X0106040Y0214927D01*
X0105977Y0214995D01*
X0105917Y0215065D01*
X0105860Y0215138D01*
X0105806Y0215213D01*
X0105756Y0215291D01*
X0105709Y0215371D01*
X0105665Y0215452D01*
X0105625Y0215536D01*
X0105588Y0215621D01*
X0105555Y0215707D01*
X0105526Y0215795D01*
X0105501Y0215884D01*
X0105479Y0215974D01*
X0105462Y0216065D01*
X0105448Y0216156D01*
X0105438Y0216248D01*
X0105432Y0216340D01*
X0105430Y0216433D01*
X0095430Y0216433D02*
X0095432Y0216526D01*
X0095438Y0216618D01*
X0095448Y0216710D01*
X0095462Y0216801D01*
X0095479Y0216892D01*
X0095501Y0216982D01*
X0095526Y0217071D01*
X0095555Y0217159D01*
X0095588Y0217245D01*
X0095625Y0217330D01*
X0095665Y0217414D01*
X0095709Y0217495D01*
X0095756Y0217575D01*
X0095806Y0217653D01*
X0095860Y0217728D01*
X0095917Y0217801D01*
X0095977Y0217871D01*
X0096040Y0217939D01*
X0096106Y0218004D01*
X0096174Y0218066D01*
X0096245Y0218126D01*
X0096319Y0218182D01*
X0096395Y0218235D01*
X0096473Y0218284D01*
X0096553Y0218331D01*
X0096635Y0218373D01*
X0096719Y0218413D01*
X0096804Y0218448D01*
X0096891Y0218480D01*
X0096979Y0218509D01*
X0097068Y0218533D01*
X0097158Y0218554D01*
X0097249Y0218570D01*
X0097341Y0218583D01*
X0097433Y0218592D01*
X0097526Y0218597D01*
X0097618Y0218598D01*
X0097711Y0218595D01*
X0097803Y0218588D01*
X0097895Y0218577D01*
X0097986Y0218562D01*
X0098077Y0218544D01*
X0098167Y0218521D01*
X0098255Y0218495D01*
X0098343Y0218465D01*
X0098429Y0218431D01*
X0098513Y0218394D01*
X0098596Y0218352D01*
X0098677Y0218308D01*
X0098757Y0218260D01*
X0098834Y0218209D01*
X0098908Y0218154D01*
X0098981Y0218096D01*
X0099051Y0218036D01*
X0099118Y0217972D01*
X0099182Y0217906D01*
X0099244Y0217836D01*
X0099302Y0217765D01*
X0099357Y0217691D01*
X0099409Y0217614D01*
X0099458Y0217535D01*
X0099504Y0217455D01*
X0099546Y0217372D01*
X0099584Y0217288D01*
X0099619Y0217202D01*
X0099650Y0217115D01*
X0099677Y0217027D01*
X0099700Y0216937D01*
X0099720Y0216847D01*
X0099736Y0216756D01*
X0099748Y0216664D01*
X0099756Y0216572D01*
X0099760Y0216479D01*
X0099760Y0216387D01*
X0099756Y0216294D01*
X0099748Y0216202D01*
X0099736Y0216110D01*
X0099720Y0216019D01*
X0099700Y0215929D01*
X0099677Y0215839D01*
X0099650Y0215751D01*
X0099619Y0215664D01*
X0099584Y0215578D01*
X0099546Y0215494D01*
X0099504Y0215411D01*
X0099458Y0215331D01*
X0099409Y0215252D01*
X0099357Y0215175D01*
X0099302Y0215101D01*
X0099244Y0215030D01*
X0099182Y0214960D01*
X0099118Y0214894D01*
X0099051Y0214830D01*
X0098981Y0214770D01*
X0098908Y0214712D01*
X0098834Y0214657D01*
X0098757Y0214606D01*
X0098678Y0214558D01*
X0098596Y0214514D01*
X0098513Y0214472D01*
X0098429Y0214435D01*
X0098343Y0214401D01*
X0098255Y0214371D01*
X0098167Y0214345D01*
X0098077Y0214322D01*
X0097986Y0214304D01*
X0097895Y0214289D01*
X0097803Y0214278D01*
X0097711Y0214271D01*
X0097618Y0214268D01*
X0097526Y0214269D01*
X0097433Y0214274D01*
X0097341Y0214283D01*
X0097249Y0214296D01*
X0097158Y0214312D01*
X0097068Y0214333D01*
X0096979Y0214357D01*
X0096891Y0214386D01*
X0096804Y0214418D01*
X0096719Y0214453D01*
X0096635Y0214493D01*
X0096553Y0214535D01*
X0096473Y0214582D01*
X0096395Y0214631D01*
X0096319Y0214684D01*
X0096245Y0214740D01*
X0096174Y0214800D01*
X0096106Y0214862D01*
X0096040Y0214927D01*
X0095977Y0214995D01*
X0095917Y0215065D01*
X0095860Y0215138D01*
X0095806Y0215213D01*
X0095756Y0215291D01*
X0095709Y0215371D01*
X0095665Y0215452D01*
X0095625Y0215536D01*
X0095588Y0215621D01*
X0095555Y0215707D01*
X0095526Y0215795D01*
X0095501Y0215884D01*
X0095479Y0215974D01*
X0095462Y0216065D01*
X0095448Y0216156D01*
X0095438Y0216248D01*
X0095432Y0216340D01*
X0095430Y0216433D01*
D11*
X0057595Y0211433D03*
X0047595Y0211433D03*
X0047595Y0201433D03*
X0057595Y0201433D03*
X0057595Y0191433D03*
X0047595Y0191433D03*
X0047595Y0181433D03*
X0057595Y0181433D03*
X0057595Y0171433D03*
X0047595Y0171433D03*
X0047595Y0161433D03*
X0057595Y0161433D03*
X0057595Y0151433D03*
X0047595Y0151433D03*
X0047595Y0141433D03*
X0057595Y0141433D03*
X0057595Y0131433D03*
X0047595Y0131433D03*
X0047595Y0121433D03*
X0057595Y0121433D03*
X0057595Y0111433D03*
X0047595Y0111433D03*
X0047595Y0101433D03*
X0057595Y0101433D03*
X0207595Y0116433D03*
X0207595Y0126433D03*
X0207595Y0136433D03*
X0207595Y0146433D03*
X0207595Y0156433D03*
X0207595Y0166433D03*
X0207595Y0176433D03*
X0207595Y0186433D03*
X0207595Y0196433D03*
X0207595Y0206433D03*
X0207595Y0216433D03*
X0207595Y0226433D03*
D12*
X0187595Y0209681D02*
X0187595Y0203185D01*
X0177595Y0203185D02*
X0177595Y0209681D01*
X0167595Y0209681D02*
X0167595Y0203185D01*
X0152595Y0203185D02*
X0152595Y0209681D01*
X0142595Y0209681D02*
X0142595Y0203185D01*
X0132595Y0203185D02*
X0132595Y0209681D01*
X0117595Y0209681D02*
X0117595Y0203185D01*
X0107595Y0203185D02*
X0107595Y0209681D01*
X0097595Y0209681D02*
X0097595Y0203185D01*
X0092595Y0059681D02*
X0092595Y0053185D01*
X0082595Y0053185D02*
X0082595Y0059681D01*
X0072595Y0059681D02*
X0072595Y0053185D01*
X0102595Y0053185D02*
X0102595Y0059681D01*
X0117595Y0059681D02*
X0117595Y0053185D01*
X0127595Y0053185D02*
X0127595Y0059681D01*
X0137595Y0059681D02*
X0137595Y0053185D01*
X0152595Y0053185D02*
X0152595Y0059681D01*
X0162595Y0059681D02*
X0162595Y0053185D01*
X0172595Y0053185D02*
X0172595Y0059681D01*
X0187595Y0059681D02*
X0187595Y0053185D01*
X0197595Y0053185D02*
X0197595Y0059681D01*
X0207595Y0059681D02*
X0207595Y0053185D01*
D13*
X0204644Y0049090D02*
X0204233Y0048679D01*
X0203630Y0047222D01*
X0203630Y0045644D01*
X0204233Y0044187D01*
X0205349Y0043071D01*
X0206806Y0042468D01*
X0208384Y0042468D01*
X0209841Y0043071D01*
X0210957Y0044187D01*
X0211560Y0045644D01*
X0211560Y0047222D01*
X0210957Y0048679D01*
X0210546Y0049090D01*
X0210884Y0049335D01*
X0211446Y0049896D01*
X0211913Y0050539D01*
X0212273Y0051247D01*
X0212519Y0052003D01*
X0212643Y0052788D01*
X0212643Y0056150D01*
X0207878Y0056150D01*
X0207878Y0056716D01*
X0207312Y0056716D01*
X0207312Y0056150D01*
X0202547Y0056150D01*
X0202547Y0052788D01*
X0202671Y0052003D01*
X0202917Y0051247D01*
X0203278Y0050539D01*
X0203745Y0049896D01*
X0204307Y0049335D01*
X0204644Y0049090D01*
X0204571Y0049017D02*
X0200619Y0049017D01*
X0200957Y0048679D02*
X0200239Y0049397D01*
X0201451Y0050609D01*
X0202143Y0052280D01*
X0202143Y0060586D01*
X0201451Y0062257D01*
X0200171Y0063537D01*
X0198500Y0064229D01*
X0196690Y0064229D01*
X0195019Y0063537D01*
X0193740Y0062257D01*
X0193047Y0060586D01*
X0193047Y0052280D01*
X0193740Y0050609D01*
X0194951Y0049397D01*
X0194233Y0048679D01*
X0193630Y0047222D01*
X0193630Y0045644D01*
X0194233Y0044187D01*
X0195349Y0043071D01*
X0196806Y0042468D01*
X0198384Y0042468D01*
X0199841Y0043071D01*
X0200957Y0044187D01*
X0201560Y0045644D01*
X0201560Y0047222D01*
X0200957Y0048679D01*
X0201479Y0047418D02*
X0203711Y0047418D01*
X0203630Y0045820D02*
X0201560Y0045820D01*
X0200971Y0044221D02*
X0204219Y0044221D01*
X0206432Y0042623D02*
X0198758Y0042623D01*
X0196432Y0042623D02*
X0188758Y0042623D01*
X0188384Y0042468D02*
X0189841Y0043071D01*
X0190957Y0044187D01*
X0191560Y0045644D01*
X0191560Y0047222D01*
X0190957Y0048679D01*
X0190239Y0049397D01*
X0191451Y0050609D01*
X0192143Y0052280D01*
X0192143Y0060586D01*
X0191451Y0062257D01*
X0190171Y0063537D01*
X0188500Y0064229D01*
X0186690Y0064229D01*
X0185019Y0063537D01*
X0183740Y0062257D01*
X0183047Y0060586D01*
X0183047Y0052280D01*
X0183740Y0050609D01*
X0184951Y0049397D01*
X0184233Y0048679D01*
X0183630Y0047222D01*
X0183630Y0045644D01*
X0184233Y0044187D01*
X0185349Y0043071D01*
X0186806Y0042468D01*
X0188384Y0042468D01*
X0186432Y0042623D02*
X0173758Y0042623D01*
X0173384Y0042468D02*
X0174841Y0043071D01*
X0175957Y0044187D01*
X0176560Y0045644D01*
X0176560Y0047222D01*
X0175957Y0048679D01*
X0175546Y0049090D01*
X0175884Y0049335D01*
X0176446Y0049896D01*
X0176913Y0050539D01*
X0177273Y0051247D01*
X0177519Y0052003D01*
X0177643Y0052788D01*
X0177643Y0056150D01*
X0172878Y0056150D01*
X0172878Y0056716D01*
X0172312Y0056716D01*
X0172312Y0056150D01*
X0167547Y0056150D01*
X0167547Y0052788D01*
X0167671Y0052003D01*
X0167917Y0051247D01*
X0168278Y0050539D01*
X0168745Y0049896D01*
X0169307Y0049335D01*
X0169644Y0049090D01*
X0169233Y0048679D01*
X0168630Y0047222D01*
X0168630Y0045644D01*
X0169233Y0044187D01*
X0170349Y0043071D01*
X0171806Y0042468D01*
X0173384Y0042468D01*
X0171432Y0042623D02*
X0163758Y0042623D01*
X0163384Y0042468D02*
X0164841Y0043071D01*
X0165957Y0044187D01*
X0166560Y0045644D01*
X0166560Y0047222D01*
X0165957Y0048679D01*
X0165239Y0049397D01*
X0166451Y0050609D01*
X0167143Y0052280D01*
X0167143Y0060586D01*
X0166451Y0062257D01*
X0165171Y0063537D01*
X0163500Y0064229D01*
X0161690Y0064229D01*
X0160019Y0063537D01*
X0158740Y0062257D01*
X0158047Y0060586D01*
X0158047Y0052280D01*
X0158740Y0050609D01*
X0159951Y0049397D01*
X0159233Y0048679D01*
X0158630Y0047222D01*
X0158630Y0045644D01*
X0159233Y0044187D01*
X0160349Y0043071D01*
X0161806Y0042468D01*
X0163384Y0042468D01*
X0161432Y0042623D02*
X0153758Y0042623D01*
X0153384Y0042468D02*
X0154841Y0043071D01*
X0155957Y0044187D01*
X0156560Y0045644D01*
X0156560Y0047222D01*
X0155957Y0048679D01*
X0155239Y0049397D01*
X0156451Y0050609D01*
X0157143Y0052280D01*
X0157143Y0060586D01*
X0156451Y0062257D01*
X0155171Y0063537D01*
X0153500Y0064229D01*
X0151690Y0064229D01*
X0150019Y0063537D01*
X0148740Y0062257D01*
X0148047Y0060586D01*
X0148047Y0052280D01*
X0148740Y0050609D01*
X0149951Y0049397D01*
X0149233Y0048679D01*
X0148630Y0047222D01*
X0148630Y0045644D01*
X0149233Y0044187D01*
X0150349Y0043071D01*
X0151806Y0042468D01*
X0153384Y0042468D01*
X0151432Y0042623D02*
X0138758Y0042623D01*
X0138384Y0042468D02*
X0139841Y0043071D01*
X0140957Y0044187D01*
X0141560Y0045644D01*
X0141560Y0047222D01*
X0140957Y0048679D01*
X0140546Y0049090D01*
X0140884Y0049335D01*
X0141446Y0049896D01*
X0141913Y0050539D01*
X0142273Y0051247D01*
X0142519Y0052003D01*
X0142643Y0052788D01*
X0142643Y0056150D01*
X0137878Y0056150D01*
X0137878Y0056716D01*
X0137312Y0056716D01*
X0137312Y0056150D01*
X0132547Y0056150D01*
X0132547Y0052788D01*
X0132671Y0052003D01*
X0132917Y0051247D01*
X0133278Y0050539D01*
X0133745Y0049896D01*
X0134307Y0049335D01*
X0134644Y0049090D01*
X0134233Y0048679D01*
X0133630Y0047222D01*
X0133630Y0045644D01*
X0134233Y0044187D01*
X0135349Y0043071D01*
X0136806Y0042468D01*
X0138384Y0042468D01*
X0136432Y0042623D02*
X0128758Y0042623D01*
X0128384Y0042468D02*
X0129841Y0043071D01*
X0130957Y0044187D01*
X0131560Y0045644D01*
X0131560Y0047222D01*
X0130957Y0048679D01*
X0130239Y0049397D01*
X0131451Y0050609D01*
X0132143Y0052280D01*
X0132143Y0060586D01*
X0131451Y0062257D01*
X0130171Y0063537D01*
X0130095Y0063568D01*
X0130095Y0066930D01*
X0129715Y0067849D01*
X0110095Y0087469D01*
X0110095Y0184576D01*
X0110095Y0184576D01*
X0110095Y0090936D01*
X0110476Y0090017D01*
X0130476Y0070017D01*
X0131179Y0069314D01*
X0132098Y0068933D01*
X0160738Y0068933D01*
X0160850Y0068821D01*
X0161982Y0068352D01*
X0163208Y0068352D01*
X0164340Y0068821D01*
X0165207Y0069688D01*
X0165676Y0070820D01*
X0165676Y0072046D01*
X0165207Y0073178D01*
X0164340Y0074045D01*
X0163208Y0074514D01*
X0161982Y0074514D01*
X0160850Y0074045D01*
X0160738Y0073933D01*
X0133631Y0073933D01*
X0115095Y0092469D01*
X0115095Y0114576D01*
X0115850Y0113821D01*
X0116982Y0113352D01*
X0118208Y0113352D01*
X0118645Y0113533D01*
X0140643Y0113533D01*
X0141081Y0113352D01*
X0142306Y0113352D01*
X0142744Y0113533D01*
X0160643Y0113533D01*
X0161081Y0113352D01*
X0162306Y0113352D01*
X0162744Y0113533D01*
X0180643Y0113533D01*
X0181081Y0113352D01*
X0182306Y0113352D01*
X0183439Y0113821D01*
X0184306Y0114688D01*
X0184775Y0115820D01*
X0184775Y0117046D01*
X0184306Y0118178D01*
X0183439Y0119045D01*
X0182306Y0119514D01*
X0181081Y0119514D01*
X0180643Y0119333D01*
X0162744Y0119333D01*
X0162306Y0119514D01*
X0161081Y0119514D01*
X0160643Y0119333D01*
X0142744Y0119333D01*
X0142306Y0119514D01*
X0141081Y0119514D01*
X0140643Y0119333D01*
X0118645Y0119333D01*
X0118208Y0119514D01*
X0116982Y0119514D01*
X0115850Y0119045D01*
X0115095Y0118290D01*
X0115095Y0124576D01*
X0115850Y0123821D01*
X0116982Y0123352D01*
X0118208Y0123352D01*
X0118645Y0123533D01*
X0193172Y0123533D01*
X0194238Y0123975D01*
X0195054Y0124790D01*
X0203796Y0133533D01*
X0204737Y0133533D01*
X0205289Y0132981D01*
X0206785Y0132361D01*
X0208405Y0132361D01*
X0209902Y0132981D01*
X0211047Y0134127D01*
X0211667Y0135623D01*
X0211667Y0137243D01*
X0211047Y0138739D01*
X0209902Y0139885D01*
X0208405Y0140505D01*
X0206785Y0140505D01*
X0205289Y0139885D01*
X0204737Y0139333D01*
X0202018Y0139333D01*
X0200952Y0138892D01*
X0191394Y0129333D01*
X0118645Y0129333D01*
X0118208Y0129514D01*
X0116982Y0129514D01*
X0115850Y0129045D01*
X0115095Y0128290D01*
X0115095Y0167076D01*
X0115850Y0166321D01*
X0116982Y0165852D01*
X0118208Y0165852D01*
X0119340Y0166321D01*
X0119452Y0166433D01*
X0181988Y0166433D01*
X0182100Y0166321D01*
X0183232Y0165852D01*
X0184458Y0165852D01*
X0185590Y0166321D01*
X0186457Y0167188D01*
X0186926Y0168320D01*
X0186926Y0169546D01*
X0186457Y0170678D01*
X0185590Y0171545D01*
X0184458Y0172014D01*
X0183232Y0172014D01*
X0182100Y0171545D01*
X0181988Y0171433D01*
X0119452Y0171433D01*
X0119340Y0171545D01*
X0118208Y0172014D01*
X0116982Y0172014D01*
X0115850Y0171545D01*
X0115095Y0170790D01*
X0115095Y0184576D01*
X0115207Y0184688D01*
X0115676Y0185820D01*
X0115676Y0187046D01*
X0115207Y0188178D01*
X0114340Y0189045D01*
X0113208Y0189514D01*
X0111982Y0189514D01*
X0110850Y0189045D01*
X0110095Y0188290D01*
X0110095Y0194576D01*
X0110207Y0194688D01*
X0110676Y0195820D01*
X0110676Y0197046D01*
X0110207Y0198178D01*
X0109383Y0199003D01*
X0110171Y0199329D01*
X0111451Y0200609D01*
X0112143Y0202280D01*
X0112143Y0210586D01*
X0111451Y0212257D01*
X0110239Y0213469D01*
X0110957Y0214187D01*
X0111560Y0215644D01*
X0111560Y0217222D01*
X0110957Y0218679D01*
X0109841Y0219795D01*
X0108384Y0220398D01*
X0106806Y0220398D01*
X0105349Y0219795D01*
X0104233Y0218679D01*
X0103630Y0217222D01*
X0103630Y0215644D01*
X0104233Y0214187D01*
X0104951Y0213469D01*
X0103740Y0212257D01*
X0103047Y0210586D01*
X0103047Y0202280D01*
X0103740Y0200609D01*
X0105019Y0199329D01*
X0105807Y0199003D01*
X0104983Y0198178D01*
X0104514Y0197046D01*
X0104514Y0195820D01*
X0104983Y0194688D01*
X0105095Y0194576D01*
X0105095Y0085936D01*
X0105476Y0085017D01*
X0125095Y0065398D01*
X0125095Y0063568D01*
X0125019Y0063537D01*
X0123740Y0062257D01*
X0123047Y0060586D01*
X0123047Y0052280D01*
X0123740Y0050609D01*
X0124951Y0049397D01*
X0124233Y0048679D01*
X0123630Y0047222D01*
X0123630Y0045644D01*
X0124233Y0044187D01*
X0125349Y0043071D01*
X0126806Y0042468D01*
X0128384Y0042468D01*
X0126432Y0042623D02*
X0118758Y0042623D01*
X0118384Y0042468D02*
X0119841Y0043071D01*
X0120957Y0044187D01*
X0121560Y0045644D01*
X0121560Y0047222D01*
X0120957Y0048679D01*
X0120239Y0049397D01*
X0121451Y0050609D01*
X0122143Y0052280D01*
X0122143Y0060586D01*
X0121451Y0062257D01*
X0120171Y0063537D01*
X0118500Y0064229D01*
X0116690Y0064229D01*
X0115019Y0063537D01*
X0113740Y0062257D01*
X0113047Y0060586D01*
X0113047Y0052280D01*
X0113740Y0050609D01*
X0114951Y0049397D01*
X0114233Y0048679D01*
X0113630Y0047222D01*
X0113630Y0045644D01*
X0114233Y0044187D01*
X0115349Y0043071D01*
X0116806Y0042468D01*
X0118384Y0042468D01*
X0116432Y0042623D02*
X0103758Y0042623D01*
X0103384Y0042468D02*
X0104841Y0043071D01*
X0105957Y0044187D01*
X0106560Y0045644D01*
X0106560Y0047222D01*
X0105957Y0048679D01*
X0105546Y0049090D01*
X0105884Y0049335D01*
X0106446Y0049896D01*
X0106913Y0050539D01*
X0107273Y0051247D01*
X0107519Y0052003D01*
X0107643Y0052788D01*
X0107643Y0056150D01*
X0102878Y0056150D01*
X0102878Y0056716D01*
X0102312Y0056716D01*
X0102312Y0056150D01*
X0097547Y0056150D01*
X0097547Y0052788D01*
X0097671Y0052003D01*
X0097917Y0051247D01*
X0098278Y0050539D01*
X0098745Y0049896D01*
X0099307Y0049335D01*
X0099644Y0049090D01*
X0099233Y0048679D01*
X0098630Y0047222D01*
X0098630Y0045644D01*
X0099233Y0044187D01*
X0100349Y0043071D01*
X0101806Y0042468D01*
X0103384Y0042468D01*
X0101432Y0042623D02*
X0093758Y0042623D01*
X0093384Y0042468D02*
X0094841Y0043071D01*
X0095957Y0044187D01*
X0096560Y0045644D01*
X0096560Y0047222D01*
X0095957Y0048679D01*
X0095239Y0049397D01*
X0096451Y0050609D01*
X0097143Y0052280D01*
X0097143Y0060586D01*
X0096451Y0062257D01*
X0095171Y0063537D01*
X0095095Y0063568D01*
X0095095Y0098180D01*
X0094715Y0099099D01*
X0084426Y0109387D01*
X0084426Y0109546D01*
X0083957Y0110678D01*
X0083090Y0111545D01*
X0081958Y0112014D01*
X0080732Y0112014D01*
X0079600Y0111545D01*
X0078733Y0110678D01*
X0078264Y0109546D01*
X0078264Y0108320D01*
X0078733Y0107188D01*
X0079600Y0106321D01*
X0080732Y0105852D01*
X0080891Y0105852D01*
X0090095Y0096648D01*
X0090095Y0063568D01*
X0090019Y0063537D01*
X0088740Y0062257D01*
X0088047Y0060586D01*
X0088047Y0052280D01*
X0088740Y0050609D01*
X0089951Y0049397D01*
X0089233Y0048679D01*
X0088630Y0047222D01*
X0088630Y0045644D01*
X0089233Y0044187D01*
X0090349Y0043071D01*
X0091806Y0042468D01*
X0093384Y0042468D01*
X0091432Y0042623D02*
X0083758Y0042623D01*
X0083384Y0042468D02*
X0084841Y0043071D01*
X0085957Y0044187D01*
X0086560Y0045644D01*
X0086560Y0047222D01*
X0085957Y0048679D01*
X0085239Y0049397D01*
X0086451Y0050609D01*
X0087143Y0052280D01*
X0087143Y0060586D01*
X0086451Y0062257D01*
X0085171Y0063537D01*
X0085095Y0063568D01*
X0085095Y0082076D01*
X0085207Y0082188D01*
X0085676Y0083320D01*
X0085676Y0084546D01*
X0085207Y0085678D01*
X0084340Y0086545D01*
X0083208Y0087014D01*
X0081982Y0087014D01*
X0080850Y0086545D01*
X0079983Y0085678D01*
X0079514Y0084546D01*
X0079514Y0083320D01*
X0079983Y0082188D01*
X0080095Y0082076D01*
X0080095Y0063568D01*
X0080019Y0063537D01*
X0078740Y0062257D01*
X0078047Y0060586D01*
X0078047Y0052280D01*
X0078740Y0050609D01*
X0079951Y0049397D01*
X0079233Y0048679D01*
X0078630Y0047222D01*
X0078630Y0045644D01*
X0079233Y0044187D01*
X0080349Y0043071D01*
X0081806Y0042468D01*
X0083384Y0042468D01*
X0081432Y0042623D02*
X0073758Y0042623D01*
X0073384Y0042468D02*
X0074841Y0043071D01*
X0075957Y0044187D01*
X0076560Y0045644D01*
X0076560Y0047222D01*
X0075957Y0048679D01*
X0075239Y0049397D01*
X0076451Y0050609D01*
X0077143Y0052280D01*
X0077143Y0060586D01*
X0076451Y0062257D01*
X0075171Y0063537D01*
X0073500Y0064229D01*
X0071690Y0064229D01*
X0070019Y0063537D01*
X0068740Y0062257D01*
X0068047Y0060586D01*
X0068047Y0052280D01*
X0068740Y0050609D01*
X0069951Y0049397D01*
X0069233Y0048679D01*
X0068630Y0047222D01*
X0068630Y0045644D01*
X0069233Y0044187D01*
X0070349Y0043071D01*
X0071806Y0042468D01*
X0073384Y0042468D01*
X0071432Y0042623D02*
X0064395Y0042623D01*
X0064395Y0044221D02*
X0069219Y0044221D01*
X0068630Y0045820D02*
X0064395Y0045820D01*
X0064395Y0047418D02*
X0068711Y0047418D01*
X0069571Y0049017D02*
X0064395Y0049017D01*
X0064395Y0050615D02*
X0068737Y0050615D01*
X0068075Y0052214D02*
X0064395Y0052214D01*
X0064395Y0053812D02*
X0068047Y0053812D01*
X0068047Y0055411D02*
X0064395Y0055411D01*
X0064395Y0057009D02*
X0068047Y0057009D01*
X0068047Y0058608D02*
X0064395Y0058608D01*
X0064395Y0060206D02*
X0068047Y0060206D01*
X0068552Y0061805D02*
X0064395Y0061805D01*
X0064395Y0063403D02*
X0069885Y0063403D01*
X0075305Y0063403D02*
X0079885Y0063403D01*
X0080095Y0065002D02*
X0064395Y0065002D01*
X0064395Y0066600D02*
X0080095Y0066600D01*
X0080095Y0068199D02*
X0064395Y0068199D01*
X0064395Y0069797D02*
X0080095Y0069797D01*
X0080095Y0071396D02*
X0064395Y0071396D01*
X0064395Y0072994D02*
X0080095Y0072994D01*
X0080095Y0074593D02*
X0064395Y0074593D01*
X0064395Y0076191D02*
X0080095Y0076191D01*
X0080095Y0077790D02*
X0063784Y0077790D01*
X0063341Y0078233D02*
X0039395Y0078233D01*
X0039395Y0229633D01*
X0205037Y0229633D01*
X0204143Y0228739D01*
X0203523Y0227243D01*
X0203523Y0225623D01*
X0204143Y0224127D01*
X0205289Y0222981D01*
X0206785Y0222361D01*
X0208405Y0222361D01*
X0209902Y0222981D01*
X0211047Y0224127D01*
X0211667Y0225623D01*
X0211667Y0227243D01*
X0211047Y0228739D01*
X0210153Y0229633D01*
X0215795Y0229633D01*
X0215795Y0033233D01*
X0064395Y0033233D01*
X0064395Y0077179D01*
X0063341Y0078233D01*
X0080095Y0079388D02*
X0039395Y0079388D01*
X0039395Y0080987D02*
X0080095Y0080987D01*
X0079818Y0082585D02*
X0039395Y0082585D01*
X0039395Y0084184D02*
X0079514Y0084184D01*
X0080087Y0085782D02*
X0039395Y0085782D01*
X0039395Y0087381D02*
X0090095Y0087381D01*
X0090095Y0088979D02*
X0039395Y0088979D01*
X0039395Y0090578D02*
X0090095Y0090578D01*
X0090095Y0092177D02*
X0039395Y0092177D01*
X0039395Y0093775D02*
X0090095Y0093775D01*
X0090095Y0095374D02*
X0039395Y0095374D01*
X0039395Y0096972D02*
X0089771Y0096972D01*
X0088172Y0098571D02*
X0060491Y0098571D01*
X0061047Y0099127D02*
X0061667Y0100623D01*
X0061667Y0102243D01*
X0061047Y0103739D01*
X0059902Y0104885D01*
X0058405Y0105505D01*
X0056785Y0105505D01*
X0055289Y0104885D01*
X0054143Y0103739D01*
X0053523Y0102243D01*
X0053523Y0100623D01*
X0054143Y0099127D01*
X0055289Y0097981D01*
X0056785Y0097361D01*
X0058405Y0097361D01*
X0059902Y0097981D01*
X0061047Y0099127D01*
X0061479Y0100169D02*
X0086574Y0100169D01*
X0084975Y0101768D02*
X0061667Y0101768D01*
X0061202Y0103366D02*
X0083377Y0103366D01*
X0081778Y0104965D02*
X0059709Y0104965D01*
X0058405Y0107361D02*
X0059902Y0107981D01*
X0061047Y0109127D01*
X0061667Y0110623D01*
X0061667Y0112243D01*
X0061047Y0113739D01*
X0059902Y0114885D01*
X0058405Y0115505D01*
X0056785Y0115505D01*
X0055289Y0114885D01*
X0054143Y0113739D01*
X0053523Y0112243D01*
X0053523Y0110623D01*
X0054143Y0109127D01*
X0055289Y0107981D01*
X0056785Y0107361D01*
X0058405Y0107361D01*
X0060082Y0108162D02*
X0078330Y0108162D01*
X0078353Y0109760D02*
X0061309Y0109760D01*
X0061667Y0111359D02*
X0079413Y0111359D01*
X0083277Y0111359D02*
X0105095Y0111359D01*
X0105095Y0112957D02*
X0061371Y0112957D01*
X0060231Y0114556D02*
X0105095Y0114556D01*
X0105095Y0116154D02*
X0039395Y0116154D01*
X0039395Y0114556D02*
X0044960Y0114556D01*
X0045289Y0114885D02*
X0044143Y0113739D01*
X0043523Y0112243D01*
X0043523Y0110623D01*
X0044143Y0109127D01*
X0045289Y0107981D01*
X0046785Y0107361D01*
X0048405Y0107361D01*
X0049902Y0107981D01*
X0051047Y0109127D01*
X0051667Y0110623D01*
X0051667Y0112243D01*
X0051047Y0113739D01*
X0049902Y0114885D01*
X0048405Y0115505D01*
X0046785Y0115505D01*
X0045289Y0114885D01*
X0043819Y0112957D02*
X0039395Y0112957D01*
X0039395Y0111359D02*
X0043523Y0111359D01*
X0043881Y0109760D02*
X0039395Y0109760D01*
X0039395Y0108162D02*
X0045108Y0108162D01*
X0046785Y0105505D02*
X0045289Y0104885D01*
X0044143Y0103739D01*
X0043523Y0102243D01*
X0043523Y0100623D01*
X0044143Y0099127D01*
X0045289Y0097981D01*
X0046785Y0097361D01*
X0048405Y0097361D01*
X0049902Y0097981D01*
X0051047Y0099127D01*
X0051667Y0100623D01*
X0051667Y0102243D01*
X0051047Y0103739D01*
X0049902Y0104885D01*
X0048405Y0105505D01*
X0046785Y0105505D01*
X0045481Y0104965D02*
X0039395Y0104965D01*
X0039395Y0106563D02*
X0079358Y0106563D01*
X0085652Y0108162D02*
X0105095Y0108162D01*
X0105095Y0109760D02*
X0084338Y0109760D01*
X0087251Y0106563D02*
X0105095Y0106563D01*
X0105095Y0104965D02*
X0088849Y0104965D01*
X0090448Y0103366D02*
X0105095Y0103366D01*
X0105095Y0101768D02*
X0092046Y0101768D01*
X0093645Y0100169D02*
X0105095Y0100169D01*
X0105095Y0098571D02*
X0094934Y0098571D01*
X0095095Y0096972D02*
X0105095Y0096972D01*
X0105095Y0095374D02*
X0095095Y0095374D01*
X0095095Y0093775D02*
X0105095Y0093775D01*
X0105095Y0092177D02*
X0095095Y0092177D01*
X0095095Y0090578D02*
X0105095Y0090578D01*
X0105095Y0088979D02*
X0095095Y0088979D01*
X0095095Y0087381D02*
X0105095Y0087381D01*
X0105159Y0085782D02*
X0095095Y0085782D01*
X0095095Y0084184D02*
X0106309Y0084184D01*
X0107907Y0082585D02*
X0095095Y0082585D01*
X0095095Y0080987D02*
X0109506Y0080987D01*
X0111104Y0079388D02*
X0095095Y0079388D01*
X0095095Y0077790D02*
X0112703Y0077790D01*
X0114301Y0076191D02*
X0095095Y0076191D01*
X0095095Y0074593D02*
X0115900Y0074593D01*
X0117498Y0072994D02*
X0095095Y0072994D01*
X0095095Y0071396D02*
X0119097Y0071396D01*
X0120695Y0069797D02*
X0095095Y0069797D01*
X0095095Y0068199D02*
X0122294Y0068199D01*
X0123892Y0066600D02*
X0095095Y0066600D01*
X0095095Y0065002D02*
X0125095Y0065002D01*
X0124885Y0063403D02*
X0120305Y0063403D01*
X0121638Y0061805D02*
X0123552Y0061805D01*
X0123047Y0060206D02*
X0122143Y0060206D01*
X0122143Y0058608D02*
X0123047Y0058608D01*
X0123047Y0057009D02*
X0122143Y0057009D01*
X0122143Y0055411D02*
X0123047Y0055411D01*
X0123047Y0053812D02*
X0122143Y0053812D01*
X0122116Y0052214D02*
X0123075Y0052214D01*
X0123737Y0050615D02*
X0121453Y0050615D01*
X0120619Y0049017D02*
X0124571Y0049017D01*
X0123711Y0047418D02*
X0121479Y0047418D01*
X0121560Y0045820D02*
X0123630Y0045820D01*
X0124219Y0044221D02*
X0120971Y0044221D01*
X0114219Y0044221D02*
X0105971Y0044221D01*
X0106560Y0045820D02*
X0113630Y0045820D01*
X0113711Y0047418D02*
X0106479Y0047418D01*
X0105619Y0049017D02*
X0114571Y0049017D01*
X0113737Y0050615D02*
X0106951Y0050615D01*
X0107552Y0052214D02*
X0113075Y0052214D01*
X0113047Y0053812D02*
X0107643Y0053812D01*
X0107643Y0055411D02*
X0113047Y0055411D01*
X0113047Y0057009D02*
X0107643Y0057009D01*
X0107643Y0056716D02*
X0107643Y0060078D01*
X0107519Y0060863D01*
X0107273Y0061619D01*
X0106913Y0062327D01*
X0106446Y0062970D01*
X0105884Y0063532D01*
X0105241Y0063999D01*
X0104533Y0064359D01*
X0103777Y0064605D01*
X0102992Y0064729D01*
X0102878Y0064729D01*
X0102878Y0056716D01*
X0107643Y0056716D01*
X0107643Y0058608D02*
X0113047Y0058608D01*
X0113047Y0060206D02*
X0107623Y0060206D01*
X0107179Y0061805D02*
X0113552Y0061805D01*
X0114885Y0063403D02*
X0106012Y0063403D01*
X0102878Y0063403D02*
X0102312Y0063403D01*
X0102312Y0064729D02*
X0102198Y0064729D01*
X0101413Y0064605D01*
X0100657Y0064359D01*
X0099949Y0063999D01*
X0099307Y0063532D01*
X0098745Y0062970D01*
X0098278Y0062327D01*
X0097917Y0061619D01*
X0097671Y0060863D01*
X0097547Y0060078D01*
X0097547Y0056716D01*
X0102312Y0056716D01*
X0102312Y0064729D01*
X0102312Y0061805D02*
X0102878Y0061805D01*
X0102878Y0060206D02*
X0102312Y0060206D01*
X0102312Y0058608D02*
X0102878Y0058608D01*
X0102878Y0057009D02*
X0102312Y0057009D01*
X0097547Y0057009D02*
X0097143Y0057009D01*
X0097143Y0055411D02*
X0097547Y0055411D01*
X0097547Y0053812D02*
X0097143Y0053812D01*
X0097116Y0052214D02*
X0097638Y0052214D01*
X0098239Y0050615D02*
X0096453Y0050615D01*
X0095619Y0049017D02*
X0099571Y0049017D01*
X0098711Y0047418D02*
X0096479Y0047418D01*
X0096560Y0045820D02*
X0098630Y0045820D01*
X0099219Y0044221D02*
X0095971Y0044221D01*
X0089219Y0044221D02*
X0085971Y0044221D01*
X0086560Y0045820D02*
X0088630Y0045820D01*
X0088711Y0047418D02*
X0086479Y0047418D01*
X0085619Y0049017D02*
X0089571Y0049017D01*
X0088737Y0050615D02*
X0086453Y0050615D01*
X0087116Y0052214D02*
X0088075Y0052214D01*
X0088047Y0053812D02*
X0087143Y0053812D01*
X0087143Y0055411D02*
X0088047Y0055411D01*
X0088047Y0057009D02*
X0087143Y0057009D01*
X0087143Y0058608D02*
X0088047Y0058608D01*
X0088047Y0060206D02*
X0087143Y0060206D01*
X0086638Y0061805D02*
X0088552Y0061805D01*
X0089885Y0063403D02*
X0085305Y0063403D01*
X0085095Y0065002D02*
X0090095Y0065002D01*
X0090095Y0066600D02*
X0085095Y0066600D01*
X0085095Y0068199D02*
X0090095Y0068199D01*
X0090095Y0069797D02*
X0085095Y0069797D01*
X0085095Y0071396D02*
X0090095Y0071396D01*
X0090095Y0072994D02*
X0085095Y0072994D01*
X0085095Y0074593D02*
X0090095Y0074593D01*
X0090095Y0076191D02*
X0085095Y0076191D01*
X0085095Y0077790D02*
X0090095Y0077790D01*
X0090095Y0079388D02*
X0085095Y0079388D01*
X0085095Y0080987D02*
X0090095Y0080987D01*
X0090095Y0082585D02*
X0085372Y0082585D01*
X0085676Y0084184D02*
X0090095Y0084184D01*
X0090095Y0085782D02*
X0085103Y0085782D01*
X0110183Y0087381D02*
X0113112Y0087381D01*
X0111781Y0085782D02*
X0114710Y0085782D01*
X0113380Y0084184D02*
X0116309Y0084184D01*
X0114978Y0082585D02*
X0117907Y0082585D01*
X0116577Y0080987D02*
X0119506Y0080987D01*
X0118175Y0079388D02*
X0121104Y0079388D01*
X0119774Y0077790D02*
X0122703Y0077790D01*
X0121372Y0076191D02*
X0124301Y0076191D01*
X0122971Y0074593D02*
X0125900Y0074593D01*
X0124569Y0072994D02*
X0127498Y0072994D01*
X0126168Y0071396D02*
X0129097Y0071396D01*
X0127766Y0069797D02*
X0130695Y0069797D01*
X0129365Y0068199D02*
X0215795Y0068199D01*
X0215795Y0069797D02*
X0165253Y0069797D01*
X0165676Y0071396D02*
X0215795Y0071396D01*
X0215795Y0072994D02*
X0165283Y0072994D01*
X0165305Y0063403D02*
X0169178Y0063403D01*
X0169307Y0063532D02*
X0168745Y0062970D01*
X0168278Y0062327D01*
X0167917Y0061619D01*
X0167671Y0060863D01*
X0167547Y0060078D01*
X0167547Y0056716D01*
X0172312Y0056716D01*
X0172312Y0064729D01*
X0172198Y0064729D01*
X0171413Y0064605D01*
X0170657Y0064359D01*
X0169949Y0063999D01*
X0169307Y0063532D01*
X0168012Y0061805D02*
X0166638Y0061805D01*
X0167143Y0060206D02*
X0167567Y0060206D01*
X0167547Y0058608D02*
X0167143Y0058608D01*
X0167143Y0057009D02*
X0167547Y0057009D01*
X0167547Y0055411D02*
X0167143Y0055411D01*
X0167143Y0053812D02*
X0167547Y0053812D01*
X0167638Y0052214D02*
X0167116Y0052214D01*
X0166453Y0050615D02*
X0168239Y0050615D01*
X0169571Y0049017D02*
X0165619Y0049017D01*
X0166479Y0047418D02*
X0168711Y0047418D01*
X0168630Y0045820D02*
X0166560Y0045820D01*
X0165971Y0044221D02*
X0169219Y0044221D01*
X0175971Y0044221D02*
X0184219Y0044221D01*
X0183630Y0045820D02*
X0176560Y0045820D01*
X0176479Y0047418D02*
X0183711Y0047418D01*
X0184571Y0049017D02*
X0175619Y0049017D01*
X0176951Y0050615D02*
X0183737Y0050615D01*
X0183075Y0052214D02*
X0177552Y0052214D01*
X0177643Y0053812D02*
X0183047Y0053812D01*
X0183047Y0055411D02*
X0177643Y0055411D01*
X0177643Y0056716D02*
X0172878Y0056716D01*
X0172878Y0064729D01*
X0172992Y0064729D01*
X0173777Y0064605D01*
X0174533Y0064359D01*
X0175241Y0063999D01*
X0175884Y0063532D01*
X0176446Y0062970D01*
X0176913Y0062327D01*
X0177273Y0061619D01*
X0177519Y0060863D01*
X0177643Y0060078D01*
X0177643Y0056716D01*
X0177643Y0057009D02*
X0183047Y0057009D01*
X0183047Y0058608D02*
X0177643Y0058608D01*
X0177623Y0060206D02*
X0183047Y0060206D01*
X0183552Y0061805D02*
X0177179Y0061805D01*
X0176012Y0063403D02*
X0184885Y0063403D01*
X0190305Y0063403D02*
X0194885Y0063403D01*
X0193552Y0061805D02*
X0191638Y0061805D01*
X0192143Y0060206D02*
X0193047Y0060206D01*
X0193047Y0058608D02*
X0192143Y0058608D01*
X0192143Y0057009D02*
X0193047Y0057009D01*
X0193047Y0055411D02*
X0192143Y0055411D01*
X0192143Y0053812D02*
X0193047Y0053812D01*
X0193075Y0052214D02*
X0192116Y0052214D01*
X0191453Y0050615D02*
X0193737Y0050615D01*
X0194571Y0049017D02*
X0190619Y0049017D01*
X0191479Y0047418D02*
X0193711Y0047418D01*
X0193630Y0045820D02*
X0191560Y0045820D01*
X0190971Y0044221D02*
X0194219Y0044221D01*
X0201453Y0050615D02*
X0203239Y0050615D01*
X0202638Y0052214D02*
X0202116Y0052214D01*
X0202143Y0053812D02*
X0202547Y0053812D01*
X0202547Y0055411D02*
X0202143Y0055411D01*
X0202547Y0056716D02*
X0207312Y0056716D01*
X0207312Y0064729D01*
X0207198Y0064729D01*
X0206413Y0064605D01*
X0205657Y0064359D01*
X0204949Y0063999D01*
X0204307Y0063532D01*
X0203745Y0062970D01*
X0203278Y0062327D01*
X0202917Y0061619D01*
X0202671Y0060863D01*
X0202547Y0060078D01*
X0202547Y0056716D01*
X0202547Y0057009D02*
X0202143Y0057009D01*
X0202143Y0058608D02*
X0202547Y0058608D01*
X0202567Y0060206D02*
X0202143Y0060206D01*
X0201638Y0061805D02*
X0203012Y0061805D01*
X0204178Y0063403D02*
X0200305Y0063403D01*
X0207312Y0063403D02*
X0207878Y0063403D01*
X0207878Y0064729D02*
X0207878Y0056716D01*
X0212643Y0056716D01*
X0212643Y0060078D01*
X0212519Y0060863D01*
X0212273Y0061619D01*
X0211913Y0062327D01*
X0211446Y0062970D01*
X0210884Y0063532D01*
X0210241Y0063999D01*
X0209533Y0064359D01*
X0208777Y0064605D01*
X0207992Y0064729D01*
X0207878Y0064729D01*
X0207878Y0061805D02*
X0207312Y0061805D01*
X0207312Y0060206D02*
X0207878Y0060206D01*
X0207878Y0058608D02*
X0207312Y0058608D01*
X0207312Y0057009D02*
X0207878Y0057009D01*
X0212643Y0057009D02*
X0215795Y0057009D01*
X0215795Y0055411D02*
X0212643Y0055411D01*
X0212643Y0053812D02*
X0215795Y0053812D01*
X0215795Y0052214D02*
X0212552Y0052214D01*
X0211951Y0050615D02*
X0215795Y0050615D01*
X0215795Y0049017D02*
X0210619Y0049017D01*
X0211479Y0047418D02*
X0215795Y0047418D01*
X0215795Y0045820D02*
X0211560Y0045820D01*
X0210971Y0044221D02*
X0215795Y0044221D01*
X0215795Y0042623D02*
X0208758Y0042623D01*
X0215795Y0041024D02*
X0064395Y0041024D01*
X0064395Y0039426D02*
X0215795Y0039426D01*
X0215795Y0037827D02*
X0064395Y0037827D01*
X0064395Y0036229D02*
X0215795Y0036229D01*
X0215795Y0034630D02*
X0064395Y0034630D01*
X0075971Y0044221D02*
X0079219Y0044221D01*
X0078630Y0045820D02*
X0076560Y0045820D01*
X0076479Y0047418D02*
X0078711Y0047418D01*
X0079571Y0049017D02*
X0075619Y0049017D01*
X0076453Y0050615D02*
X0078737Y0050615D01*
X0078075Y0052214D02*
X0077116Y0052214D01*
X0077143Y0053812D02*
X0078047Y0053812D01*
X0078047Y0055411D02*
X0077143Y0055411D01*
X0077143Y0057009D02*
X0078047Y0057009D01*
X0078047Y0058608D02*
X0077143Y0058608D01*
X0077143Y0060206D02*
X0078047Y0060206D01*
X0078552Y0061805D02*
X0076638Y0061805D01*
X0095305Y0063403D02*
X0099178Y0063403D01*
X0098012Y0061805D02*
X0096638Y0061805D01*
X0097143Y0060206D02*
X0097567Y0060206D01*
X0097547Y0058608D02*
X0097143Y0058608D01*
X0130305Y0063403D02*
X0134178Y0063403D01*
X0134307Y0063532D02*
X0133745Y0062970D01*
X0133278Y0062327D01*
X0132917Y0061619D01*
X0132671Y0060863D01*
X0132547Y0060078D01*
X0132547Y0056716D01*
X0137312Y0056716D01*
X0137312Y0064729D01*
X0137198Y0064729D01*
X0136413Y0064605D01*
X0135657Y0064359D01*
X0134949Y0063999D01*
X0134307Y0063532D01*
X0133012Y0061805D02*
X0131638Y0061805D01*
X0132143Y0060206D02*
X0132567Y0060206D01*
X0132547Y0058608D02*
X0132143Y0058608D01*
X0132143Y0057009D02*
X0132547Y0057009D01*
X0132547Y0055411D02*
X0132143Y0055411D01*
X0132143Y0053812D02*
X0132547Y0053812D01*
X0132638Y0052214D02*
X0132116Y0052214D01*
X0131453Y0050615D02*
X0133239Y0050615D01*
X0134571Y0049017D02*
X0130619Y0049017D01*
X0131479Y0047418D02*
X0133711Y0047418D01*
X0133630Y0045820D02*
X0131560Y0045820D01*
X0130971Y0044221D02*
X0134219Y0044221D01*
X0140971Y0044221D02*
X0149219Y0044221D01*
X0148630Y0045820D02*
X0141560Y0045820D01*
X0141479Y0047418D02*
X0148711Y0047418D01*
X0149571Y0049017D02*
X0140619Y0049017D01*
X0141951Y0050615D02*
X0148737Y0050615D01*
X0148075Y0052214D02*
X0142552Y0052214D01*
X0142643Y0053812D02*
X0148047Y0053812D01*
X0148047Y0055411D02*
X0142643Y0055411D01*
X0142643Y0056716D02*
X0137878Y0056716D01*
X0137878Y0064729D01*
X0137992Y0064729D01*
X0138777Y0064605D01*
X0139533Y0064359D01*
X0140241Y0063999D01*
X0140884Y0063532D01*
X0141446Y0062970D01*
X0141913Y0062327D01*
X0142273Y0061619D01*
X0142519Y0060863D01*
X0142643Y0060078D01*
X0142643Y0056716D01*
X0142643Y0057009D02*
X0148047Y0057009D01*
X0148047Y0058608D02*
X0142643Y0058608D01*
X0142623Y0060206D02*
X0148047Y0060206D01*
X0148552Y0061805D02*
X0142179Y0061805D01*
X0141012Y0063403D02*
X0149885Y0063403D01*
X0155305Y0063403D02*
X0159885Y0063403D01*
X0158552Y0061805D02*
X0156638Y0061805D01*
X0157143Y0060206D02*
X0158047Y0060206D01*
X0158047Y0058608D02*
X0157143Y0058608D01*
X0157143Y0057009D02*
X0158047Y0057009D01*
X0158047Y0055411D02*
X0157143Y0055411D01*
X0157143Y0053812D02*
X0158047Y0053812D01*
X0158075Y0052214D02*
X0157116Y0052214D01*
X0156453Y0050615D02*
X0158737Y0050615D01*
X0159571Y0049017D02*
X0155619Y0049017D01*
X0156479Y0047418D02*
X0158711Y0047418D01*
X0158630Y0045820D02*
X0156560Y0045820D01*
X0155971Y0044221D02*
X0159219Y0044221D01*
X0172312Y0057009D02*
X0172878Y0057009D01*
X0172878Y0058608D02*
X0172312Y0058608D01*
X0172312Y0060206D02*
X0172878Y0060206D01*
X0172878Y0061805D02*
X0172312Y0061805D01*
X0172312Y0063403D02*
X0172878Y0063403D01*
X0137878Y0063403D02*
X0137312Y0063403D01*
X0137312Y0061805D02*
X0137878Y0061805D01*
X0137878Y0060206D02*
X0137312Y0060206D01*
X0137312Y0058608D02*
X0137878Y0058608D01*
X0137878Y0057009D02*
X0137312Y0057009D01*
X0130095Y0065002D02*
X0215795Y0065002D01*
X0215795Y0066600D02*
X0130095Y0066600D01*
X0132971Y0074593D02*
X0215795Y0074593D01*
X0215795Y0076191D02*
X0131372Y0076191D01*
X0129774Y0077790D02*
X0215795Y0077790D01*
X0215795Y0079388D02*
X0128175Y0079388D01*
X0126577Y0080987D02*
X0215795Y0080987D01*
X0215795Y0082585D02*
X0124978Y0082585D01*
X0123380Y0084184D02*
X0215795Y0084184D01*
X0215795Y0085782D02*
X0121781Y0085782D01*
X0120183Y0087381D02*
X0215795Y0087381D01*
X0215795Y0088979D02*
X0118584Y0088979D01*
X0116986Y0090578D02*
X0215795Y0090578D01*
X0215795Y0092177D02*
X0115387Y0092177D01*
X0115095Y0093775D02*
X0215795Y0093775D01*
X0215795Y0095374D02*
X0115095Y0095374D01*
X0115095Y0096972D02*
X0215795Y0096972D01*
X0215795Y0098571D02*
X0115095Y0098571D01*
X0115095Y0100169D02*
X0215795Y0100169D01*
X0215795Y0101768D02*
X0115095Y0101768D01*
X0115095Y0103366D02*
X0215795Y0103366D01*
X0215795Y0104965D02*
X0115095Y0104965D01*
X0115095Y0106563D02*
X0215795Y0106563D01*
X0215795Y0108162D02*
X0115095Y0108162D01*
X0115095Y0109760D02*
X0215795Y0109760D01*
X0215795Y0111359D02*
X0115095Y0111359D01*
X0115095Y0112957D02*
X0205347Y0112957D01*
X0205289Y0112981D02*
X0206785Y0112361D01*
X0208405Y0112361D01*
X0209902Y0112981D01*
X0211047Y0114127D01*
X0211667Y0115623D01*
X0211667Y0117243D01*
X0211047Y0118739D01*
X0209902Y0119885D01*
X0208405Y0120505D01*
X0206785Y0120505D01*
X0205289Y0119885D01*
X0204143Y0118739D01*
X0203523Y0117243D01*
X0203523Y0115623D01*
X0204143Y0114127D01*
X0205289Y0112981D01*
X0203966Y0114556D02*
X0184173Y0114556D01*
X0184775Y0116154D02*
X0203523Y0116154D01*
X0203735Y0117753D02*
X0184482Y0117753D01*
X0182700Y0119351D02*
X0204755Y0119351D01*
X0206334Y0122548D02*
X0115095Y0122548D01*
X0115095Y0120950D02*
X0215795Y0120950D01*
X0215795Y0122548D02*
X0208856Y0122548D01*
X0208405Y0122361D02*
X0209902Y0122981D01*
X0211047Y0124127D01*
X0211667Y0125623D01*
X0211667Y0127243D01*
X0211047Y0128739D01*
X0209902Y0129885D01*
X0208405Y0130505D01*
X0206785Y0130505D01*
X0205289Y0129885D01*
X0204143Y0128739D01*
X0203523Y0127243D01*
X0203523Y0125623D01*
X0204143Y0124127D01*
X0205289Y0122981D01*
X0206785Y0122361D01*
X0208405Y0122361D01*
X0211055Y0124147D02*
X0215795Y0124147D01*
X0215795Y0125745D02*
X0211667Y0125745D01*
X0211625Y0127344D02*
X0215795Y0127344D01*
X0215795Y0128942D02*
X0210844Y0128942D01*
X0215795Y0130541D02*
X0200804Y0130541D01*
X0202403Y0132139D02*
X0215795Y0132139D01*
X0215795Y0133738D02*
X0210658Y0133738D01*
X0211548Y0135336D02*
X0215795Y0135336D01*
X0215795Y0136935D02*
X0211667Y0136935D01*
X0211132Y0138533D02*
X0215795Y0138533D01*
X0215795Y0140132D02*
X0209305Y0140132D01*
X0208405Y0142361D02*
X0209902Y0142981D01*
X0211047Y0144127D01*
X0211667Y0145623D01*
X0211667Y0147243D01*
X0211047Y0148739D01*
X0209902Y0149885D01*
X0208405Y0150505D01*
X0206785Y0150505D01*
X0205289Y0149885D01*
X0204143Y0148739D01*
X0203523Y0147243D01*
X0203523Y0145623D01*
X0204143Y0144127D01*
X0205289Y0142981D01*
X0206785Y0142361D01*
X0208405Y0142361D01*
X0210249Y0143329D02*
X0215795Y0143329D01*
X0215795Y0144927D02*
X0211379Y0144927D01*
X0211667Y0146526D02*
X0215795Y0146526D01*
X0215795Y0148124D02*
X0211302Y0148124D01*
X0210063Y0149723D02*
X0215795Y0149723D01*
X0215795Y0151321D02*
X0115095Y0151321D01*
X0115095Y0149723D02*
X0205127Y0149723D01*
X0203889Y0148124D02*
X0115095Y0148124D01*
X0115095Y0146526D02*
X0203523Y0146526D01*
X0203812Y0144927D02*
X0115095Y0144927D01*
X0115095Y0143329D02*
X0204941Y0143329D01*
X0205885Y0140132D02*
X0115095Y0140132D01*
X0115095Y0141730D02*
X0215795Y0141730D01*
X0200594Y0138533D02*
X0115095Y0138533D01*
X0115095Y0136935D02*
X0198996Y0136935D01*
X0197397Y0135336D02*
X0115095Y0135336D01*
X0115095Y0133738D02*
X0195799Y0133738D01*
X0194200Y0132139D02*
X0115095Y0132139D01*
X0115095Y0130541D02*
X0192602Y0130541D01*
X0196009Y0125745D02*
X0203523Y0125745D01*
X0203565Y0127344D02*
X0197607Y0127344D01*
X0199206Y0128942D02*
X0204346Y0128942D01*
X0204135Y0124147D02*
X0194410Y0124147D01*
X0180687Y0119351D02*
X0162700Y0119351D01*
X0160687Y0119351D02*
X0142700Y0119351D01*
X0140687Y0119351D02*
X0118601Y0119351D01*
X0116589Y0119351D02*
X0115095Y0119351D01*
X0115095Y0114556D02*
X0115115Y0114556D01*
X0110095Y0114556D02*
X0110095Y0114556D01*
X0110095Y0116154D02*
X0110095Y0116154D01*
X0110095Y0117753D02*
X0110095Y0117753D01*
X0110095Y0119351D02*
X0110095Y0119351D01*
X0110095Y0120950D02*
X0110095Y0120950D01*
X0110095Y0122548D02*
X0110095Y0122548D01*
X0110095Y0124147D02*
X0110095Y0124147D01*
X0110095Y0125745D02*
X0110095Y0125745D01*
X0110095Y0127344D02*
X0110095Y0127344D01*
X0110095Y0128942D02*
X0110095Y0128942D01*
X0110095Y0130541D02*
X0110095Y0130541D01*
X0110095Y0132139D02*
X0110095Y0132139D01*
X0110095Y0133738D02*
X0110095Y0133738D01*
X0110095Y0135336D02*
X0110095Y0135336D01*
X0110095Y0136935D02*
X0110095Y0136935D01*
X0110095Y0138533D02*
X0110095Y0138533D01*
X0110095Y0140132D02*
X0110095Y0140132D01*
X0110095Y0141730D02*
X0110095Y0141730D01*
X0110095Y0143329D02*
X0110095Y0143329D01*
X0110095Y0144927D02*
X0110095Y0144927D01*
X0110095Y0146526D02*
X0110095Y0146526D01*
X0110095Y0148124D02*
X0110095Y0148124D01*
X0110095Y0149723D02*
X0110095Y0149723D01*
X0110095Y0151321D02*
X0110095Y0151321D01*
X0110095Y0152920D02*
X0110095Y0152920D01*
X0110095Y0154518D02*
X0110095Y0154518D01*
X0110095Y0156117D02*
X0110095Y0156117D01*
X0110095Y0157715D02*
X0110095Y0157715D01*
X0110095Y0159314D02*
X0110095Y0159314D01*
X0110095Y0160912D02*
X0110095Y0160912D01*
X0110095Y0162511D02*
X0110095Y0162511D01*
X0110095Y0164110D02*
X0110095Y0164110D01*
X0110095Y0165708D02*
X0110095Y0165708D01*
X0110095Y0167307D02*
X0110095Y0167307D01*
X0110095Y0168905D02*
X0110095Y0168905D01*
X0110095Y0170504D02*
X0110095Y0170504D01*
X0110095Y0172102D02*
X0110095Y0172102D01*
X0110095Y0173701D02*
X0110095Y0173701D01*
X0110095Y0175299D02*
X0110095Y0175299D01*
X0110095Y0176898D02*
X0110095Y0176898D01*
X0110095Y0178496D02*
X0110095Y0178496D01*
X0110095Y0180095D02*
X0110095Y0180095D01*
X0110095Y0181693D02*
X0110095Y0181693D01*
X0110095Y0183292D02*
X0110095Y0183292D01*
X0105095Y0183292D02*
X0061232Y0183292D01*
X0061047Y0183739D02*
X0059902Y0184885D01*
X0058405Y0185505D01*
X0056785Y0185505D01*
X0055289Y0184885D01*
X0054143Y0183739D01*
X0053523Y0182243D01*
X0053523Y0180623D01*
X0054143Y0179127D01*
X0055289Y0177981D01*
X0056785Y0177361D01*
X0058405Y0177361D01*
X0059902Y0177981D01*
X0061047Y0179127D01*
X0061667Y0180623D01*
X0061667Y0182243D01*
X0061047Y0183739D01*
X0059889Y0184890D02*
X0105095Y0184890D01*
X0105095Y0186489D02*
X0039395Y0186489D01*
X0039395Y0188087D02*
X0045183Y0188087D01*
X0045289Y0187981D02*
X0046785Y0187361D01*
X0048405Y0187361D01*
X0049902Y0187981D01*
X0051047Y0189127D01*
X0051667Y0190623D01*
X0051667Y0192243D01*
X0051047Y0193739D01*
X0049902Y0194885D01*
X0048405Y0195505D01*
X0046785Y0195505D01*
X0045289Y0194885D01*
X0044143Y0193739D01*
X0043523Y0192243D01*
X0043523Y0190623D01*
X0044143Y0189127D01*
X0045289Y0187981D01*
X0043912Y0189686D02*
X0039395Y0189686D01*
X0039395Y0191284D02*
X0043523Y0191284D01*
X0043788Y0192883D02*
X0039395Y0192883D01*
X0039395Y0194481D02*
X0044885Y0194481D01*
X0046020Y0197678D02*
X0039395Y0197678D01*
X0039395Y0196080D02*
X0104514Y0196080D01*
X0104776Y0197678D02*
X0060205Y0197678D01*
X0059991Y0197523D02*
X0060573Y0197946D01*
X0061082Y0198455D01*
X0061505Y0199037D01*
X0061832Y0199678D01*
X0062054Y0200363D01*
X0062167Y0201073D01*
X0062167Y0201347D01*
X0057681Y0201347D01*
X0057681Y0196861D01*
X0057955Y0196861D01*
X0058666Y0196974D01*
X0059350Y0197196D01*
X0059991Y0197523D01*
X0057681Y0197678D02*
X0057509Y0197678D01*
X0057509Y0196861D02*
X0057509Y0201347D01*
X0053023Y0201347D01*
X0053023Y0201073D01*
X0053136Y0200363D01*
X0053358Y0199678D01*
X0053685Y0199037D01*
X0054108Y0198455D01*
X0054617Y0197946D01*
X0055199Y0197523D01*
X0055840Y0197196D01*
X0056525Y0196974D01*
X0057235Y0196861D01*
X0057509Y0196861D01*
X0056785Y0195505D02*
X0055289Y0194885D01*
X0054143Y0193739D01*
X0053523Y0192243D01*
X0053523Y0190623D01*
X0054143Y0189127D01*
X0055289Y0187981D01*
X0056785Y0187361D01*
X0058405Y0187361D01*
X0059902Y0187981D01*
X0061047Y0189127D01*
X0061667Y0190623D01*
X0061667Y0192243D01*
X0061047Y0193739D01*
X0059902Y0194885D01*
X0058405Y0195505D01*
X0056785Y0195505D01*
X0054885Y0194481D02*
X0050305Y0194481D01*
X0051402Y0192883D02*
X0053788Y0192883D01*
X0053523Y0191284D02*
X0051667Y0191284D01*
X0051278Y0189686D02*
X0053912Y0189686D01*
X0055183Y0188087D02*
X0050007Y0188087D01*
X0048405Y0185505D02*
X0046785Y0185505D01*
X0045289Y0184885D01*
X0044143Y0183739D01*
X0043523Y0182243D01*
X0043523Y0180623D01*
X0044143Y0179127D01*
X0045289Y0177981D01*
X0046785Y0177361D01*
X0048405Y0177361D01*
X0049902Y0177981D01*
X0051047Y0179127D01*
X0051667Y0180623D01*
X0051667Y0182243D01*
X0051047Y0183739D01*
X0049902Y0184885D01*
X0048405Y0185505D01*
X0049889Y0184890D02*
X0055302Y0184890D01*
X0053958Y0183292D02*
X0051232Y0183292D01*
X0051667Y0181693D02*
X0053523Y0181693D01*
X0053742Y0180095D02*
X0051448Y0180095D01*
X0050416Y0178496D02*
X0054774Y0178496D01*
X0056289Y0175299D02*
X0048901Y0175299D01*
X0048405Y0175505D02*
X0046785Y0175505D01*
X0045289Y0174885D01*
X0044143Y0173739D01*
X0043523Y0172243D01*
X0043523Y0170623D01*
X0044143Y0169127D01*
X0045289Y0167981D01*
X0046785Y0167361D01*
X0048405Y0167361D01*
X0049902Y0167981D01*
X0051047Y0169127D01*
X0051667Y0170623D01*
X0051667Y0172243D01*
X0051047Y0173739D01*
X0049902Y0174885D01*
X0048405Y0175505D01*
X0046289Y0175299D02*
X0039395Y0175299D01*
X0039395Y0173701D02*
X0044127Y0173701D01*
X0043523Y0172102D02*
X0039395Y0172102D01*
X0039395Y0170504D02*
X0043573Y0170504D01*
X0044365Y0168905D02*
X0039395Y0168905D01*
X0039395Y0167307D02*
X0105095Y0167307D01*
X0105095Y0168905D02*
X0060825Y0168905D01*
X0061047Y0169127D02*
X0061667Y0170623D01*
X0061667Y0172243D01*
X0061047Y0173739D01*
X0059902Y0174885D01*
X0058405Y0175505D01*
X0056785Y0175505D01*
X0055289Y0174885D01*
X0054143Y0173739D01*
X0053523Y0172243D01*
X0053523Y0170623D01*
X0054143Y0169127D01*
X0055289Y0167981D01*
X0056785Y0167361D01*
X0058405Y0167361D01*
X0059902Y0167981D01*
X0061047Y0169127D01*
X0061617Y0170504D02*
X0105095Y0170504D01*
X0105095Y0172102D02*
X0061667Y0172102D01*
X0061063Y0173701D02*
X0105095Y0173701D01*
X0105095Y0175299D02*
X0058901Y0175299D01*
X0060416Y0178496D02*
X0105095Y0178496D01*
X0105095Y0176898D02*
X0039395Y0176898D01*
X0039395Y0178496D02*
X0044774Y0178496D01*
X0043742Y0180095D02*
X0039395Y0180095D01*
X0039395Y0181693D02*
X0043523Y0181693D01*
X0043958Y0183292D02*
X0039395Y0183292D01*
X0039395Y0184890D02*
X0045302Y0184890D01*
X0060007Y0188087D02*
X0105095Y0188087D01*
X0105095Y0189686D02*
X0061278Y0189686D01*
X0061667Y0191284D02*
X0105095Y0191284D01*
X0105095Y0192883D02*
X0061402Y0192883D01*
X0060305Y0194481D02*
X0105095Y0194481D01*
X0110095Y0194481D02*
X0175095Y0194481D01*
X0175095Y0192883D02*
X0110095Y0192883D01*
X0110095Y0191284D02*
X0173911Y0191284D01*
X0175095Y0192469D02*
X0171560Y0188933D01*
X0134452Y0188933D01*
X0134340Y0189045D01*
X0133208Y0189514D01*
X0131982Y0189514D01*
X0130850Y0189045D01*
X0129983Y0188178D01*
X0129514Y0187046D01*
X0129514Y0185820D01*
X0129983Y0184688D01*
X0130850Y0183821D01*
X0131982Y0183352D01*
X0133208Y0183352D01*
X0134340Y0183821D01*
X0134452Y0183933D01*
X0135738Y0183933D01*
X0134983Y0183178D01*
X0134514Y0182046D01*
X0134514Y0180820D01*
X0134983Y0179688D01*
X0135850Y0178821D01*
X0136982Y0178352D01*
X0138208Y0178352D01*
X0139340Y0178821D01*
X0139452Y0178933D01*
X0161988Y0178933D01*
X0162100Y0178821D01*
X0163232Y0178352D01*
X0164458Y0178352D01*
X0165590Y0178821D01*
X0166457Y0179688D01*
X0166926Y0180820D01*
X0166926Y0182046D01*
X0166457Y0183178D01*
X0165702Y0183933D01*
X0173092Y0183933D01*
X0174011Y0184314D01*
X0179011Y0189314D01*
X0179715Y0190017D01*
X0180095Y0190936D01*
X0180095Y0199298D01*
X0180171Y0199329D01*
X0181451Y0200609D01*
X0182143Y0202280D01*
X0182143Y0210586D01*
X0181451Y0212257D01*
X0180239Y0213469D01*
X0180957Y0214187D01*
X0181560Y0215644D01*
X0181560Y0217222D01*
X0180957Y0218679D01*
X0179841Y0219795D01*
X0178384Y0220398D01*
X0176806Y0220398D01*
X0175349Y0219795D01*
X0174233Y0218679D01*
X0173630Y0217222D01*
X0173630Y0215644D01*
X0174233Y0214187D01*
X0174951Y0213469D01*
X0173740Y0212257D01*
X0173047Y0210586D01*
X0173047Y0202280D01*
X0173740Y0200609D01*
X0175019Y0199329D01*
X0175095Y0199298D01*
X0175095Y0192469D01*
X0172312Y0189686D02*
X0110095Y0189686D01*
X0115245Y0188087D02*
X0129945Y0188087D01*
X0129514Y0186489D02*
X0115676Y0186489D01*
X0115291Y0184890D02*
X0129899Y0184890D01*
X0135096Y0183292D02*
X0115095Y0183292D01*
X0115095Y0181693D02*
X0134514Y0181693D01*
X0134815Y0180095D02*
X0115095Y0180095D01*
X0115095Y0178496D02*
X0136634Y0178496D01*
X0138556Y0178496D02*
X0162884Y0178496D01*
X0164806Y0178496D02*
X0203515Y0178496D01*
X0203358Y0178188D02*
X0203136Y0177504D01*
X0203023Y0176793D01*
X0203023Y0176519D01*
X0207509Y0176519D01*
X0207509Y0176347D01*
X0203023Y0176347D01*
X0203023Y0176073D01*
X0203136Y0175363D01*
X0203358Y0174678D01*
X0203685Y0174037D01*
X0204108Y0173455D01*
X0204617Y0172946D01*
X0205199Y0172523D01*
X0205840Y0172196D01*
X0206525Y0171974D01*
X0207235Y0171861D01*
X0207509Y0171861D01*
X0207509Y0176347D01*
X0207681Y0176347D01*
X0207681Y0171861D01*
X0207955Y0171861D01*
X0208666Y0171974D01*
X0209350Y0172196D01*
X0209991Y0172523D01*
X0210573Y0172946D01*
X0211082Y0173455D01*
X0211505Y0174037D01*
X0211832Y0174678D01*
X0212054Y0175363D01*
X0212167Y0176073D01*
X0212167Y0176347D01*
X0207681Y0176347D01*
X0207681Y0176519D01*
X0207509Y0176519D01*
X0207509Y0181005D01*
X0207235Y0181005D01*
X0206525Y0180892D01*
X0205840Y0180670D01*
X0205199Y0180343D01*
X0204617Y0179920D01*
X0204108Y0179411D01*
X0203685Y0178829D01*
X0203358Y0178188D01*
X0203040Y0176898D02*
X0115095Y0176898D01*
X0115095Y0175299D02*
X0203157Y0175299D01*
X0203930Y0173701D02*
X0115095Y0173701D01*
X0115095Y0172102D02*
X0206130Y0172102D01*
X0207509Y0172102D02*
X0207681Y0172102D01*
X0209060Y0172102D02*
X0215795Y0172102D01*
X0215795Y0170504D02*
X0208408Y0170504D01*
X0208405Y0170505D02*
X0206785Y0170505D01*
X0205289Y0169885D01*
X0204143Y0168739D01*
X0203523Y0167243D01*
X0203523Y0165623D01*
X0204143Y0164127D01*
X0205289Y0162981D01*
X0206785Y0162361D01*
X0208405Y0162361D01*
X0209902Y0162981D01*
X0211047Y0164127D01*
X0211667Y0165623D01*
X0211667Y0167243D01*
X0211047Y0168739D01*
X0209902Y0169885D01*
X0208405Y0170505D01*
X0206782Y0170504D02*
X0186530Y0170504D01*
X0186926Y0168905D02*
X0204309Y0168905D01*
X0203550Y0167307D02*
X0186506Y0167307D01*
X0203523Y0165708D02*
X0115095Y0165708D01*
X0115095Y0164110D02*
X0204161Y0164110D01*
X0206424Y0162511D02*
X0115095Y0162511D01*
X0115095Y0160912D02*
X0215795Y0160912D01*
X0215795Y0159314D02*
X0210472Y0159314D01*
X0209902Y0159885D02*
X0211047Y0158739D01*
X0211667Y0157243D01*
X0211667Y0155623D01*
X0211047Y0154127D01*
X0209902Y0152981D01*
X0208405Y0152361D01*
X0206785Y0152361D01*
X0205289Y0152981D01*
X0204143Y0154127D01*
X0203523Y0155623D01*
X0203523Y0157243D01*
X0204143Y0158739D01*
X0205289Y0159885D01*
X0206785Y0160505D01*
X0208405Y0160505D01*
X0209902Y0159885D01*
X0211471Y0157715D02*
X0215795Y0157715D01*
X0215795Y0156117D02*
X0211667Y0156117D01*
X0211209Y0154518D02*
X0215795Y0154518D01*
X0215795Y0152920D02*
X0209753Y0152920D01*
X0205437Y0152920D02*
X0115095Y0152920D01*
X0115095Y0154518D02*
X0203981Y0154518D01*
X0203523Y0156117D02*
X0115095Y0156117D01*
X0115095Y0157715D02*
X0203719Y0157715D01*
X0204718Y0159314D02*
X0115095Y0159314D01*
X0105095Y0159314D02*
X0061124Y0159314D01*
X0061047Y0159127D02*
X0061667Y0160623D01*
X0061667Y0162243D01*
X0061047Y0163739D01*
X0059902Y0164885D01*
X0058405Y0165505D01*
X0056785Y0165505D01*
X0055289Y0164885D01*
X0054143Y0163739D01*
X0053523Y0162243D01*
X0053523Y0160623D01*
X0054143Y0159127D01*
X0055289Y0157981D01*
X0056785Y0157361D01*
X0058405Y0157361D01*
X0059902Y0157981D01*
X0061047Y0159127D01*
X0061667Y0160912D02*
X0105095Y0160912D01*
X0105095Y0162511D02*
X0061556Y0162511D01*
X0060677Y0164110D02*
X0105095Y0164110D01*
X0105095Y0165708D02*
X0039395Y0165708D01*
X0039395Y0164110D02*
X0044513Y0164110D01*
X0044143Y0163739D02*
X0043523Y0162243D01*
X0043523Y0160623D01*
X0044143Y0159127D01*
X0045289Y0157981D01*
X0046785Y0157361D01*
X0048405Y0157361D01*
X0049902Y0157981D01*
X0051047Y0159127D01*
X0051667Y0160623D01*
X0051667Y0162243D01*
X0051047Y0163739D01*
X0049902Y0164885D01*
X0048405Y0165505D01*
X0046785Y0165505D01*
X0045289Y0164885D01*
X0044143Y0163739D01*
X0043635Y0162511D02*
X0039395Y0162511D01*
X0039395Y0160912D02*
X0043523Y0160912D01*
X0044066Y0159314D02*
X0039395Y0159314D01*
X0039395Y0157715D02*
X0045930Y0157715D01*
X0046785Y0155505D02*
X0045289Y0154885D01*
X0044143Y0153739D01*
X0043523Y0152243D01*
X0043523Y0150623D01*
X0044143Y0149127D01*
X0045289Y0147981D01*
X0046785Y0147361D01*
X0048405Y0147361D01*
X0049902Y0147981D01*
X0051047Y0149127D01*
X0051667Y0150623D01*
X0051667Y0152243D01*
X0051047Y0153739D01*
X0049902Y0154885D01*
X0048405Y0155505D01*
X0046785Y0155505D01*
X0044922Y0154518D02*
X0039395Y0154518D01*
X0039395Y0152920D02*
X0043804Y0152920D01*
X0043523Y0151321D02*
X0039395Y0151321D01*
X0039395Y0149723D02*
X0043896Y0149723D01*
X0045146Y0148124D02*
X0039395Y0148124D01*
X0039395Y0146526D02*
X0105095Y0146526D01*
X0105095Y0148124D02*
X0060045Y0148124D01*
X0059902Y0147981D02*
X0061047Y0149127D01*
X0061667Y0150623D01*
X0061667Y0152243D01*
X0061047Y0153739D01*
X0059902Y0154885D01*
X0058405Y0155505D01*
X0056785Y0155505D01*
X0055289Y0154885D01*
X0054143Y0153739D01*
X0053523Y0152243D01*
X0053523Y0150623D01*
X0054143Y0149127D01*
X0055289Y0147981D01*
X0056785Y0147361D01*
X0058405Y0147361D01*
X0059902Y0147981D01*
X0061294Y0149723D02*
X0105095Y0149723D01*
X0105095Y0151321D02*
X0061667Y0151321D01*
X0061386Y0152920D02*
X0105095Y0152920D01*
X0105095Y0154518D02*
X0060268Y0154518D01*
X0059260Y0157715D02*
X0105095Y0157715D01*
X0105095Y0156117D02*
X0039395Y0156117D01*
X0049260Y0157715D02*
X0055930Y0157715D01*
X0054066Y0159314D02*
X0051124Y0159314D01*
X0051667Y0160912D02*
X0053523Y0160912D01*
X0053635Y0162511D02*
X0051556Y0162511D01*
X0050677Y0164110D02*
X0054513Y0164110D01*
X0054365Y0168905D02*
X0050825Y0168905D01*
X0051617Y0170504D02*
X0053573Y0170504D01*
X0053523Y0172102D02*
X0051667Y0172102D01*
X0051063Y0173701D02*
X0054127Y0173701D01*
X0061448Y0180095D02*
X0105095Y0180095D01*
X0105095Y0181693D02*
X0061667Y0181693D01*
X0054985Y0197678D02*
X0049170Y0197678D01*
X0049902Y0197981D02*
X0051047Y0199127D01*
X0051667Y0200623D01*
X0051667Y0202243D01*
X0051047Y0203739D01*
X0049902Y0204885D01*
X0048405Y0205505D01*
X0046785Y0205505D01*
X0045289Y0204885D01*
X0044143Y0203739D01*
X0043523Y0202243D01*
X0043523Y0200623D01*
X0044143Y0199127D01*
X0045289Y0197981D01*
X0046785Y0197361D01*
X0048405Y0197361D01*
X0049902Y0197981D01*
X0051109Y0199277D02*
X0053563Y0199277D01*
X0053055Y0200875D02*
X0051667Y0200875D01*
X0053023Y0201519D02*
X0057509Y0201519D01*
X0057509Y0201347D01*
X0057681Y0201347D01*
X0057681Y0201519D01*
X0057509Y0201519D01*
X0057509Y0206005D01*
X0057235Y0206005D01*
X0056525Y0205892D01*
X0055840Y0205670D01*
X0055199Y0205343D01*
X0054617Y0204920D01*
X0054108Y0204411D01*
X0053685Y0203829D01*
X0053358Y0203188D01*
X0053136Y0202504D01*
X0053023Y0201793D01*
X0053023Y0201519D01*
X0053131Y0202474D02*
X0051571Y0202474D01*
X0050714Y0204072D02*
X0053862Y0204072D01*
X0055843Y0205671D02*
X0039395Y0205671D01*
X0039395Y0207269D02*
X0092547Y0207269D01*
X0092547Y0206716D02*
X0097312Y0206716D01*
X0097312Y0206150D01*
X0097878Y0206150D01*
X0097878Y0198137D01*
X0097992Y0198137D01*
X0098777Y0198261D01*
X0099533Y0198507D01*
X0100241Y0198868D01*
X0100884Y0199335D01*
X0101446Y0199896D01*
X0101913Y0200539D01*
X0102273Y0201247D01*
X0102519Y0202003D01*
X0102643Y0202788D01*
X0102643Y0206150D01*
X0097878Y0206150D01*
X0097878Y0206716D01*
X0102643Y0206716D01*
X0102643Y0210078D01*
X0102519Y0210863D01*
X0102273Y0211619D01*
X0101913Y0212327D01*
X0101446Y0212970D01*
X0100884Y0213532D01*
X0100546Y0213777D01*
X0100957Y0214187D01*
X0101560Y0215644D01*
X0101560Y0217222D01*
X0100957Y0218679D01*
X0099841Y0219795D01*
X0098384Y0220398D01*
X0096806Y0220398D01*
X0095349Y0219795D01*
X0094233Y0218679D01*
X0093630Y0217222D01*
X0093630Y0215644D01*
X0094233Y0214187D01*
X0094644Y0213777D01*
X0094307Y0213532D01*
X0093745Y0212970D01*
X0093278Y0212327D01*
X0092917Y0211619D01*
X0092671Y0210863D01*
X0092547Y0210078D01*
X0092547Y0206716D01*
X0092547Y0206150D02*
X0092547Y0202788D01*
X0092671Y0202003D01*
X0092917Y0201247D01*
X0093278Y0200539D01*
X0093745Y0199896D01*
X0094307Y0199335D01*
X0094949Y0198868D01*
X0095657Y0198507D01*
X0096413Y0198261D01*
X0097198Y0198137D01*
X0097312Y0198137D01*
X0097312Y0206150D01*
X0092547Y0206150D01*
X0092547Y0205671D02*
X0059347Y0205671D01*
X0059350Y0205670D02*
X0058666Y0205892D01*
X0057955Y0206005D01*
X0057681Y0206005D01*
X0057681Y0201519D01*
X0062167Y0201519D01*
X0062167Y0201793D01*
X0062054Y0202504D01*
X0061832Y0203188D01*
X0061505Y0203829D01*
X0061082Y0204411D01*
X0060573Y0204920D01*
X0059991Y0205343D01*
X0059350Y0205670D01*
X0057681Y0205671D02*
X0057509Y0205671D01*
X0057509Y0204072D02*
X0057681Y0204072D01*
X0057681Y0202474D02*
X0057509Y0202474D01*
X0057509Y0200875D02*
X0057681Y0200875D01*
X0057681Y0199277D02*
X0057509Y0199277D01*
X0061627Y0199277D02*
X0094386Y0199277D01*
X0093106Y0200875D02*
X0062135Y0200875D01*
X0062059Y0202474D02*
X0092597Y0202474D01*
X0092547Y0204072D02*
X0061328Y0204072D01*
X0059902Y0207981D02*
X0058405Y0207361D01*
X0056785Y0207361D01*
X0055289Y0207981D01*
X0054143Y0209127D01*
X0053523Y0210623D01*
X0053523Y0212243D01*
X0054143Y0213739D01*
X0055289Y0214885D01*
X0056785Y0215505D01*
X0058405Y0215505D01*
X0059902Y0214885D01*
X0061047Y0213739D01*
X0061667Y0212243D01*
X0061667Y0210623D01*
X0061047Y0209127D01*
X0059902Y0207981D01*
X0060788Y0208868D02*
X0092547Y0208868D01*
X0092609Y0210466D02*
X0061602Y0210466D01*
X0061667Y0212065D02*
X0093144Y0212065D01*
X0094488Y0213663D02*
X0061078Y0213663D01*
X0058991Y0215262D02*
X0093788Y0215262D01*
X0093630Y0216860D02*
X0039395Y0216860D01*
X0039395Y0215262D02*
X0046199Y0215262D01*
X0046785Y0215505D02*
X0045289Y0214885D01*
X0044143Y0213739D01*
X0043523Y0212243D01*
X0043523Y0210623D01*
X0044143Y0209127D01*
X0045289Y0207981D01*
X0046785Y0207361D01*
X0048405Y0207361D01*
X0049902Y0207981D01*
X0051047Y0209127D01*
X0051667Y0210623D01*
X0051667Y0212243D01*
X0051047Y0213739D01*
X0049902Y0214885D01*
X0048405Y0215505D01*
X0046785Y0215505D01*
X0048991Y0215262D02*
X0056199Y0215262D01*
X0054112Y0213663D02*
X0051078Y0213663D01*
X0051667Y0212065D02*
X0053523Y0212065D01*
X0053588Y0210466D02*
X0051602Y0210466D01*
X0050788Y0208868D02*
X0054402Y0208868D01*
X0044402Y0208868D02*
X0039395Y0208868D01*
X0039395Y0210466D02*
X0043588Y0210466D01*
X0043523Y0212065D02*
X0039395Y0212065D01*
X0039395Y0213663D02*
X0044112Y0213663D01*
X0039395Y0218459D02*
X0094142Y0218459D01*
X0095983Y0220057D02*
X0039395Y0220057D01*
X0039395Y0221656D02*
X0215795Y0221656D01*
X0215795Y0223254D02*
X0210175Y0223254D01*
X0211348Y0224853D02*
X0215795Y0224853D01*
X0215795Y0226451D02*
X0211667Y0226451D01*
X0211333Y0228050D02*
X0215795Y0228050D01*
X0215795Y0220057D02*
X0209485Y0220057D01*
X0209902Y0219885D02*
X0208405Y0220505D01*
X0206785Y0220505D01*
X0205289Y0219885D01*
X0204143Y0218739D01*
X0203523Y0217243D01*
X0203523Y0215623D01*
X0204143Y0214127D01*
X0205289Y0212981D01*
X0206785Y0212361D01*
X0208405Y0212361D01*
X0209902Y0212981D01*
X0211047Y0214127D01*
X0211667Y0215623D01*
X0211667Y0217243D01*
X0211047Y0218739D01*
X0209902Y0219885D01*
X0211163Y0218459D02*
X0215795Y0218459D01*
X0215795Y0216860D02*
X0211667Y0216860D01*
X0211517Y0215262D02*
X0215795Y0215262D01*
X0215795Y0213663D02*
X0210584Y0213663D01*
X0208498Y0210466D02*
X0215795Y0210466D01*
X0215795Y0208868D02*
X0210919Y0208868D01*
X0211047Y0208739D02*
X0209902Y0209885D01*
X0208405Y0210505D01*
X0206785Y0210505D01*
X0205289Y0209885D01*
X0204143Y0208739D01*
X0203523Y0207243D01*
X0203523Y0205623D01*
X0204143Y0204127D01*
X0205289Y0202981D01*
X0206785Y0202361D01*
X0208405Y0202361D01*
X0209902Y0202981D01*
X0211047Y0204127D01*
X0211667Y0205623D01*
X0211667Y0207243D01*
X0211047Y0208739D01*
X0211656Y0207269D02*
X0215795Y0207269D01*
X0215795Y0205671D02*
X0211667Y0205671D01*
X0210993Y0204072D02*
X0215795Y0204072D01*
X0215795Y0202474D02*
X0208676Y0202474D01*
X0208405Y0200505D02*
X0206785Y0200505D01*
X0205289Y0199885D01*
X0204143Y0198739D01*
X0203523Y0197243D01*
X0203523Y0195623D01*
X0204143Y0194127D01*
X0205289Y0192981D01*
X0206785Y0192361D01*
X0208405Y0192361D01*
X0209902Y0192981D01*
X0211047Y0194127D01*
X0211667Y0195623D01*
X0211667Y0197243D01*
X0211047Y0198739D01*
X0209902Y0199885D01*
X0208405Y0200505D01*
X0210510Y0199277D02*
X0215795Y0199277D01*
X0215795Y0200875D02*
X0191561Y0200875D01*
X0191451Y0200609D02*
X0192143Y0202280D01*
X0192143Y0210586D01*
X0191451Y0212257D01*
X0190239Y0213469D01*
X0190957Y0214187D01*
X0191560Y0215644D01*
X0191560Y0217222D01*
X0190957Y0218679D01*
X0189841Y0219795D01*
X0188384Y0220398D01*
X0186806Y0220398D01*
X0185349Y0219795D01*
X0184233Y0218679D01*
X0183630Y0217222D01*
X0183630Y0215644D01*
X0184233Y0214187D01*
X0184951Y0213469D01*
X0183740Y0212257D01*
X0183047Y0210586D01*
X0183047Y0202280D01*
X0183740Y0200609D01*
X0185019Y0199329D01*
X0186690Y0198637D01*
X0188500Y0198637D01*
X0190171Y0199329D01*
X0191451Y0200609D01*
X0190044Y0199277D02*
X0204681Y0199277D01*
X0203704Y0197678D02*
X0180095Y0197678D01*
X0180095Y0196080D02*
X0203523Y0196080D01*
X0203996Y0194481D02*
X0180095Y0194481D01*
X0180095Y0192883D02*
X0205527Y0192883D01*
X0206785Y0190505D02*
X0205289Y0189885D01*
X0204143Y0188739D01*
X0203523Y0187243D01*
X0203523Y0185623D01*
X0204143Y0184127D01*
X0205289Y0182981D01*
X0206785Y0182361D01*
X0208405Y0182361D01*
X0209902Y0182981D01*
X0211047Y0184127D01*
X0211667Y0185623D01*
X0211667Y0187243D01*
X0211047Y0188739D01*
X0209902Y0189885D01*
X0208405Y0190505D01*
X0206785Y0190505D01*
X0205090Y0189686D02*
X0179383Y0189686D01*
X0180095Y0191284D02*
X0215795Y0191284D01*
X0215795Y0189686D02*
X0210101Y0189686D01*
X0211317Y0188087D02*
X0215795Y0188087D01*
X0215795Y0186489D02*
X0211667Y0186489D01*
X0211363Y0184890D02*
X0215795Y0184890D01*
X0215795Y0183292D02*
X0210212Y0183292D01*
X0209350Y0180670D02*
X0208666Y0180892D01*
X0207955Y0181005D01*
X0207681Y0181005D01*
X0207681Y0176519D01*
X0212167Y0176519D01*
X0212167Y0176793D01*
X0212054Y0177504D01*
X0211832Y0178188D01*
X0211505Y0178829D01*
X0211082Y0179411D01*
X0210573Y0179920D01*
X0209991Y0180343D01*
X0209350Y0180670D01*
X0210333Y0180095D02*
X0215795Y0180095D01*
X0215795Y0181693D02*
X0166926Y0181693D01*
X0166626Y0180095D02*
X0204857Y0180095D01*
X0207509Y0180095D02*
X0207681Y0180095D01*
X0207681Y0178496D02*
X0207509Y0178496D01*
X0207509Y0176898D02*
X0207681Y0176898D01*
X0207681Y0175299D02*
X0207509Y0175299D01*
X0207509Y0173701D02*
X0207681Y0173701D01*
X0211261Y0173701D02*
X0215795Y0173701D01*
X0215795Y0175299D02*
X0212034Y0175299D01*
X0212150Y0176898D02*
X0215795Y0176898D01*
X0215795Y0178496D02*
X0211675Y0178496D01*
X0204978Y0183292D02*
X0166344Y0183292D01*
X0174588Y0184890D02*
X0203827Y0184890D01*
X0203523Y0186489D02*
X0176186Y0186489D01*
X0177785Y0188087D02*
X0203873Y0188087D01*
X0209664Y0192883D02*
X0215795Y0192883D01*
X0215795Y0194481D02*
X0211194Y0194481D01*
X0211667Y0196080D02*
X0215795Y0196080D01*
X0215795Y0197678D02*
X0211486Y0197678D01*
X0206514Y0202474D02*
X0192143Y0202474D01*
X0192143Y0204072D02*
X0204198Y0204072D01*
X0203523Y0205671D02*
X0192143Y0205671D01*
X0192143Y0207269D02*
X0203534Y0207269D01*
X0204272Y0208868D02*
X0192143Y0208868D01*
X0192143Y0210466D02*
X0206693Y0210466D01*
X0204607Y0213663D02*
X0190433Y0213663D01*
X0191402Y0215262D02*
X0203673Y0215262D01*
X0203523Y0216860D02*
X0191560Y0216860D01*
X0191048Y0218459D02*
X0204027Y0218459D01*
X0205705Y0220057D02*
X0189207Y0220057D01*
X0185983Y0220057D02*
X0179207Y0220057D01*
X0181048Y0218459D02*
X0184142Y0218459D01*
X0183630Y0216860D02*
X0181560Y0216860D01*
X0181402Y0215262D02*
X0183788Y0215262D01*
X0184757Y0213663D02*
X0180433Y0213663D01*
X0181530Y0212065D02*
X0183660Y0212065D01*
X0183047Y0210466D02*
X0182143Y0210466D01*
X0182143Y0208868D02*
X0183047Y0208868D01*
X0183047Y0207269D02*
X0182143Y0207269D01*
X0182143Y0205671D02*
X0183047Y0205671D01*
X0183047Y0204072D02*
X0182143Y0204072D01*
X0182143Y0202474D02*
X0183047Y0202474D01*
X0183629Y0200875D02*
X0181561Y0200875D01*
X0180095Y0199277D02*
X0185146Y0199277D01*
X0175095Y0199277D02*
X0170804Y0199277D01*
X0170884Y0199335D02*
X0171446Y0199896D01*
X0171913Y0200539D01*
X0172273Y0201247D01*
X0172519Y0202003D01*
X0172643Y0202788D01*
X0172643Y0206150D01*
X0167878Y0206150D01*
X0167878Y0198137D01*
X0167992Y0198137D01*
X0168777Y0198261D01*
X0169533Y0198507D01*
X0170241Y0198868D01*
X0170884Y0199335D01*
X0172084Y0200875D02*
X0173629Y0200875D01*
X0173047Y0202474D02*
X0172593Y0202474D01*
X0172643Y0204072D02*
X0173047Y0204072D01*
X0173047Y0205671D02*
X0172643Y0205671D01*
X0172643Y0206716D02*
X0172643Y0210078D01*
X0172519Y0210863D01*
X0172273Y0211619D01*
X0171913Y0212327D01*
X0171446Y0212970D01*
X0170884Y0213532D01*
X0170546Y0213777D01*
X0170957Y0214187D01*
X0171560Y0215644D01*
X0171560Y0217222D01*
X0170957Y0218679D01*
X0169841Y0219795D01*
X0168384Y0220398D01*
X0166806Y0220398D01*
X0165349Y0219795D01*
X0164233Y0218679D01*
X0163630Y0217222D01*
X0163630Y0215644D01*
X0164233Y0214187D01*
X0164644Y0213777D01*
X0164307Y0213532D01*
X0163745Y0212970D01*
X0163278Y0212327D01*
X0162917Y0211619D01*
X0162671Y0210863D01*
X0162547Y0210078D01*
X0162547Y0206716D01*
X0167312Y0206716D01*
X0167312Y0206150D01*
X0167878Y0206150D01*
X0167878Y0206716D01*
X0172643Y0206716D01*
X0172643Y0207269D02*
X0173047Y0207269D01*
X0173047Y0208868D02*
X0172643Y0208868D01*
X0172582Y0210466D02*
X0173047Y0210466D01*
X0173660Y0212065D02*
X0172046Y0212065D01*
X0170702Y0213663D02*
X0174757Y0213663D01*
X0173788Y0215262D02*
X0171402Y0215262D01*
X0171560Y0216860D02*
X0173630Y0216860D01*
X0174142Y0218459D02*
X0171048Y0218459D01*
X0169207Y0220057D02*
X0175983Y0220057D01*
X0165983Y0220057D02*
X0154207Y0220057D01*
X0154841Y0219795D02*
X0153384Y0220398D01*
X0151806Y0220398D01*
X0150349Y0219795D01*
X0149233Y0218679D01*
X0148630Y0217222D01*
X0148630Y0215644D01*
X0149233Y0214187D01*
X0149951Y0213469D01*
X0148740Y0212257D01*
X0148047Y0210586D01*
X0148047Y0202280D01*
X0148740Y0200609D01*
X0150019Y0199329D01*
X0151690Y0198637D01*
X0153500Y0198637D01*
X0155171Y0199329D01*
X0156451Y0200609D01*
X0157143Y0202280D01*
X0157143Y0210586D01*
X0156451Y0212257D01*
X0155239Y0213469D01*
X0155957Y0214187D01*
X0156560Y0215644D01*
X0156560Y0217222D01*
X0155957Y0218679D01*
X0154841Y0219795D01*
X0156048Y0218459D02*
X0164142Y0218459D01*
X0163630Y0216860D02*
X0156560Y0216860D01*
X0156402Y0215262D02*
X0163788Y0215262D01*
X0164488Y0213663D02*
X0155433Y0213663D01*
X0156530Y0212065D02*
X0163144Y0212065D01*
X0162609Y0210466D02*
X0157143Y0210466D01*
X0157143Y0208868D02*
X0162547Y0208868D01*
X0162547Y0207269D02*
X0157143Y0207269D01*
X0157143Y0205671D02*
X0162547Y0205671D01*
X0162547Y0206150D02*
X0162547Y0202788D01*
X0162671Y0202003D01*
X0162917Y0201247D01*
X0163278Y0200539D01*
X0163745Y0199896D01*
X0164307Y0199335D01*
X0164949Y0198868D01*
X0165657Y0198507D01*
X0166413Y0198261D01*
X0167198Y0198137D01*
X0167312Y0198137D01*
X0167312Y0206150D01*
X0162547Y0206150D01*
X0162547Y0204072D02*
X0157143Y0204072D01*
X0157143Y0202474D02*
X0162597Y0202474D01*
X0163106Y0200875D02*
X0156561Y0200875D01*
X0155044Y0199277D02*
X0164386Y0199277D01*
X0167312Y0199277D02*
X0167878Y0199277D01*
X0167878Y0200875D02*
X0167312Y0200875D01*
X0167312Y0202474D02*
X0167878Y0202474D01*
X0167878Y0204072D02*
X0167312Y0204072D01*
X0167312Y0205671D02*
X0167878Y0205671D01*
X0175095Y0197678D02*
X0110414Y0197678D01*
X0110676Y0196080D02*
X0175095Y0196080D01*
X0191530Y0212065D02*
X0215795Y0212065D01*
X0205016Y0223254D02*
X0039395Y0223254D01*
X0039395Y0224853D02*
X0203843Y0224853D01*
X0203523Y0226451D02*
X0039395Y0226451D01*
X0039395Y0228050D02*
X0203858Y0228050D01*
X0150983Y0220057D02*
X0144207Y0220057D01*
X0144841Y0219795D02*
X0143384Y0220398D01*
X0141806Y0220398D01*
X0140349Y0219795D01*
X0139233Y0218679D01*
X0138630Y0217222D01*
X0138630Y0215644D01*
X0139233Y0214187D01*
X0139951Y0213469D01*
X0138740Y0212257D01*
X0138047Y0210586D01*
X0138047Y0202280D01*
X0138740Y0200609D01*
X0140019Y0199329D01*
X0141690Y0198637D01*
X0143500Y0198637D01*
X0145171Y0199329D01*
X0146451Y0200609D01*
X0147143Y0202280D01*
X0147143Y0210586D01*
X0146451Y0212257D01*
X0145239Y0213469D01*
X0145957Y0214187D01*
X0146560Y0215644D01*
X0146560Y0217222D01*
X0145957Y0218679D01*
X0144841Y0219795D01*
X0146048Y0218459D02*
X0149142Y0218459D01*
X0148630Y0216860D02*
X0146560Y0216860D01*
X0146402Y0215262D02*
X0148788Y0215262D01*
X0149757Y0213663D02*
X0145433Y0213663D01*
X0146530Y0212065D02*
X0148660Y0212065D01*
X0148047Y0210466D02*
X0147143Y0210466D01*
X0147143Y0208868D02*
X0148047Y0208868D01*
X0148047Y0207269D02*
X0147143Y0207269D01*
X0147143Y0205671D02*
X0148047Y0205671D01*
X0148047Y0204072D02*
X0147143Y0204072D01*
X0147143Y0202474D02*
X0148047Y0202474D01*
X0148629Y0200875D02*
X0146561Y0200875D01*
X0145044Y0199277D02*
X0150146Y0199277D01*
X0140146Y0199277D02*
X0135804Y0199277D01*
X0135884Y0199335D02*
X0136446Y0199896D01*
X0136913Y0200539D01*
X0137273Y0201247D01*
X0137519Y0202003D01*
X0137643Y0202788D01*
X0137643Y0206150D01*
X0132878Y0206150D01*
X0132878Y0198137D01*
X0132992Y0198137D01*
X0133777Y0198261D01*
X0134533Y0198507D01*
X0135241Y0198868D01*
X0135884Y0199335D01*
X0137084Y0200875D02*
X0138629Y0200875D01*
X0138047Y0202474D02*
X0137593Y0202474D01*
X0137643Y0204072D02*
X0138047Y0204072D01*
X0138047Y0205671D02*
X0137643Y0205671D01*
X0137643Y0206716D02*
X0137643Y0210078D01*
X0137519Y0210863D01*
X0137273Y0211619D01*
X0136913Y0212327D01*
X0136446Y0212970D01*
X0135884Y0213532D01*
X0135546Y0213777D01*
X0135957Y0214187D01*
X0136560Y0215644D01*
X0136560Y0217222D01*
X0135957Y0218679D01*
X0134841Y0219795D01*
X0133384Y0220398D01*
X0131806Y0220398D01*
X0130349Y0219795D01*
X0129233Y0218679D01*
X0128630Y0217222D01*
X0128630Y0215644D01*
X0129233Y0214187D01*
X0129644Y0213777D01*
X0129307Y0213532D01*
X0128745Y0212970D01*
X0128278Y0212327D01*
X0127917Y0211619D01*
X0127671Y0210863D01*
X0127547Y0210078D01*
X0127547Y0206716D01*
X0132312Y0206716D01*
X0132312Y0206150D01*
X0132878Y0206150D01*
X0132878Y0206716D01*
X0137643Y0206716D01*
X0137643Y0207269D02*
X0138047Y0207269D01*
X0138047Y0208868D02*
X0137643Y0208868D01*
X0137582Y0210466D02*
X0138047Y0210466D01*
X0138660Y0212065D02*
X0137046Y0212065D01*
X0135702Y0213663D02*
X0139757Y0213663D01*
X0138788Y0215262D02*
X0136402Y0215262D01*
X0136560Y0216860D02*
X0138630Y0216860D01*
X0139142Y0218459D02*
X0136048Y0218459D01*
X0134207Y0220057D02*
X0140983Y0220057D01*
X0130983Y0220057D02*
X0119207Y0220057D01*
X0119841Y0219795D02*
X0118384Y0220398D01*
X0116806Y0220398D01*
X0115349Y0219795D01*
X0114233Y0218679D01*
X0113630Y0217222D01*
X0113630Y0215644D01*
X0114233Y0214187D01*
X0114951Y0213469D01*
X0113740Y0212257D01*
X0113047Y0210586D01*
X0113047Y0202280D01*
X0113740Y0200609D01*
X0115019Y0199329D01*
X0116690Y0198637D01*
X0118500Y0198637D01*
X0120171Y0199329D01*
X0121451Y0200609D01*
X0122143Y0202280D01*
X0122143Y0210586D01*
X0121451Y0212257D01*
X0120239Y0213469D01*
X0120957Y0214187D01*
X0121560Y0215644D01*
X0121560Y0217222D01*
X0120957Y0218679D01*
X0119841Y0219795D01*
X0121048Y0218459D02*
X0129142Y0218459D01*
X0128630Y0216860D02*
X0121560Y0216860D01*
X0121402Y0215262D02*
X0128788Y0215262D01*
X0129488Y0213663D02*
X0120433Y0213663D01*
X0121530Y0212065D02*
X0128144Y0212065D01*
X0127609Y0210466D02*
X0122143Y0210466D01*
X0122143Y0208868D02*
X0127547Y0208868D01*
X0127547Y0207269D02*
X0122143Y0207269D01*
X0122143Y0205671D02*
X0127547Y0205671D01*
X0127547Y0206150D02*
X0127547Y0202788D01*
X0127671Y0202003D01*
X0127917Y0201247D01*
X0128278Y0200539D01*
X0128745Y0199896D01*
X0129307Y0199335D01*
X0129949Y0198868D01*
X0130657Y0198507D01*
X0131413Y0198261D01*
X0132198Y0198137D01*
X0132312Y0198137D01*
X0132312Y0206150D01*
X0127547Y0206150D01*
X0127547Y0204072D02*
X0122143Y0204072D01*
X0122143Y0202474D02*
X0127597Y0202474D01*
X0128106Y0200875D02*
X0121561Y0200875D01*
X0120044Y0199277D02*
X0129386Y0199277D01*
X0132312Y0199277D02*
X0132878Y0199277D01*
X0132878Y0200875D02*
X0132312Y0200875D01*
X0132312Y0202474D02*
X0132878Y0202474D01*
X0132878Y0204072D02*
X0132312Y0204072D01*
X0132312Y0205671D02*
X0132878Y0205671D01*
X0115146Y0199277D02*
X0110044Y0199277D01*
X0111561Y0200875D02*
X0113629Y0200875D01*
X0113047Y0202474D02*
X0112143Y0202474D01*
X0112143Y0204072D02*
X0113047Y0204072D01*
X0113047Y0205671D02*
X0112143Y0205671D01*
X0112143Y0207269D02*
X0113047Y0207269D01*
X0113047Y0208868D02*
X0112143Y0208868D01*
X0112143Y0210466D02*
X0113047Y0210466D01*
X0113660Y0212065D02*
X0111530Y0212065D01*
X0110433Y0213663D02*
X0114757Y0213663D01*
X0113788Y0215262D02*
X0111402Y0215262D01*
X0111560Y0216860D02*
X0113630Y0216860D01*
X0114142Y0218459D02*
X0111048Y0218459D01*
X0109207Y0220057D02*
X0115983Y0220057D01*
X0105983Y0220057D02*
X0099207Y0220057D01*
X0101048Y0218459D02*
X0104142Y0218459D01*
X0103630Y0216860D02*
X0101560Y0216860D01*
X0101402Y0215262D02*
X0103788Y0215262D01*
X0104757Y0213663D02*
X0100702Y0213663D01*
X0102046Y0212065D02*
X0103660Y0212065D01*
X0103047Y0210466D02*
X0102582Y0210466D01*
X0102643Y0208868D02*
X0103047Y0208868D01*
X0103047Y0207269D02*
X0102643Y0207269D01*
X0102643Y0205671D02*
X0103047Y0205671D01*
X0103047Y0204072D02*
X0102643Y0204072D01*
X0102593Y0202474D02*
X0103047Y0202474D01*
X0103629Y0200875D02*
X0102084Y0200875D01*
X0100804Y0199277D02*
X0105146Y0199277D01*
X0097878Y0199277D02*
X0097312Y0199277D01*
X0097312Y0200875D02*
X0097878Y0200875D01*
X0097878Y0202474D02*
X0097312Y0202474D01*
X0097312Y0204072D02*
X0097878Y0204072D01*
X0097878Y0205671D02*
X0097312Y0205671D01*
X0044476Y0204072D02*
X0039395Y0204072D01*
X0039395Y0202474D02*
X0043619Y0202474D01*
X0043523Y0200875D02*
X0039395Y0200875D01*
X0039395Y0199277D02*
X0044081Y0199277D01*
X0050268Y0154518D02*
X0054922Y0154518D01*
X0053804Y0152920D02*
X0051386Y0152920D01*
X0051667Y0151321D02*
X0053523Y0151321D01*
X0053896Y0149723D02*
X0051294Y0149723D01*
X0050045Y0148124D02*
X0055146Y0148124D01*
X0056785Y0145505D02*
X0055289Y0144885D01*
X0054143Y0143739D01*
X0053523Y0142243D01*
X0053523Y0140623D01*
X0054143Y0139127D01*
X0055289Y0137981D01*
X0056785Y0137361D01*
X0058405Y0137361D01*
X0059902Y0137981D01*
X0061047Y0139127D01*
X0061667Y0140623D01*
X0061667Y0142243D01*
X0061047Y0143739D01*
X0059902Y0144885D01*
X0058405Y0145505D01*
X0056785Y0145505D01*
X0055391Y0144927D02*
X0049799Y0144927D01*
X0049902Y0144885D02*
X0048405Y0145505D01*
X0046785Y0145505D01*
X0045289Y0144885D01*
X0044143Y0143739D01*
X0043523Y0142243D01*
X0043523Y0140623D01*
X0044143Y0139127D01*
X0045289Y0137981D01*
X0046785Y0137361D01*
X0048405Y0137361D01*
X0049902Y0137981D01*
X0051047Y0139127D01*
X0051667Y0140623D01*
X0051667Y0142243D01*
X0051047Y0143739D01*
X0049902Y0144885D01*
X0051217Y0143329D02*
X0053973Y0143329D01*
X0053523Y0141730D02*
X0051667Y0141730D01*
X0051463Y0140132D02*
X0053727Y0140132D01*
X0054737Y0138533D02*
X0050454Y0138533D01*
X0048812Y0135336D02*
X0056379Y0135336D01*
X0056785Y0135505D02*
X0055289Y0134885D01*
X0054143Y0133739D01*
X0053523Y0132243D01*
X0053523Y0130623D01*
X0054143Y0129127D01*
X0055289Y0127981D01*
X0056785Y0127361D01*
X0058405Y0127361D01*
X0059902Y0127981D01*
X0061047Y0129127D01*
X0061667Y0130623D01*
X0061667Y0132243D01*
X0061047Y0133739D01*
X0059902Y0134885D01*
X0058405Y0135505D01*
X0056785Y0135505D01*
X0058812Y0135336D02*
X0105095Y0135336D01*
X0105095Y0133738D02*
X0061048Y0133738D01*
X0061667Y0132139D02*
X0105095Y0132139D01*
X0105095Y0130541D02*
X0061633Y0130541D01*
X0060863Y0128942D02*
X0105095Y0128942D01*
X0105095Y0127344D02*
X0039395Y0127344D01*
X0039395Y0128942D02*
X0044328Y0128942D01*
X0044143Y0129127D02*
X0045289Y0127981D01*
X0046785Y0127361D01*
X0048405Y0127361D01*
X0049902Y0127981D01*
X0051047Y0129127D01*
X0051667Y0130623D01*
X0051667Y0132243D01*
X0051047Y0133739D01*
X0049902Y0134885D01*
X0048405Y0135505D01*
X0046785Y0135505D01*
X0045289Y0134885D01*
X0044143Y0133739D01*
X0043523Y0132243D01*
X0043523Y0130623D01*
X0044143Y0129127D01*
X0043558Y0130541D02*
X0039395Y0130541D01*
X0039395Y0132139D02*
X0043523Y0132139D01*
X0044143Y0133738D02*
X0039395Y0133738D01*
X0039395Y0135336D02*
X0046379Y0135336D01*
X0044737Y0138533D02*
X0039395Y0138533D01*
X0039395Y0136935D02*
X0105095Y0136935D01*
X0105095Y0138533D02*
X0060454Y0138533D01*
X0061463Y0140132D02*
X0105095Y0140132D01*
X0105095Y0141730D02*
X0061667Y0141730D01*
X0061217Y0143329D02*
X0105095Y0143329D01*
X0105095Y0144927D02*
X0059799Y0144927D01*
X0045391Y0144927D02*
X0039395Y0144927D01*
X0039395Y0143329D02*
X0043973Y0143329D01*
X0043523Y0141730D02*
X0039395Y0141730D01*
X0039395Y0140132D02*
X0043727Y0140132D01*
X0051048Y0133738D02*
X0054143Y0133738D01*
X0053523Y0132139D02*
X0051667Y0132139D01*
X0051633Y0130541D02*
X0053558Y0130541D01*
X0054328Y0128942D02*
X0050863Y0128942D01*
X0049902Y0124885D02*
X0048405Y0125505D01*
X0046785Y0125505D01*
X0045289Y0124885D01*
X0044143Y0123739D01*
X0043523Y0122243D01*
X0043523Y0120623D01*
X0044143Y0119127D01*
X0045289Y0117981D01*
X0046785Y0117361D01*
X0048405Y0117361D01*
X0049902Y0117981D01*
X0051047Y0119127D01*
X0051667Y0120623D01*
X0051667Y0122243D01*
X0051047Y0123739D01*
X0049902Y0124885D01*
X0050640Y0124147D02*
X0054551Y0124147D01*
X0054143Y0123739D02*
X0053523Y0122243D01*
X0053523Y0120623D01*
X0054143Y0119127D01*
X0055289Y0117981D01*
X0056785Y0117361D01*
X0058405Y0117361D01*
X0059902Y0117981D01*
X0061047Y0119127D01*
X0061667Y0120623D01*
X0061667Y0122243D01*
X0061047Y0123739D01*
X0059902Y0124885D01*
X0058405Y0125505D01*
X0056785Y0125505D01*
X0055289Y0124885D01*
X0054143Y0123739D01*
X0053650Y0122548D02*
X0051540Y0122548D01*
X0051667Y0120950D02*
X0053523Y0120950D01*
X0054050Y0119351D02*
X0051140Y0119351D01*
X0049350Y0117753D02*
X0055841Y0117753D01*
X0054960Y0114556D02*
X0050231Y0114556D01*
X0051371Y0112957D02*
X0053819Y0112957D01*
X0053523Y0111359D02*
X0051667Y0111359D01*
X0051309Y0109760D02*
X0053881Y0109760D01*
X0055108Y0108162D02*
X0050082Y0108162D01*
X0049709Y0104965D02*
X0055481Y0104965D01*
X0053989Y0103366D02*
X0051202Y0103366D01*
X0051667Y0101768D02*
X0053523Y0101768D01*
X0053712Y0100169D02*
X0051479Y0100169D01*
X0050491Y0098571D02*
X0054699Y0098571D01*
X0044699Y0098571D02*
X0039395Y0098571D01*
X0039395Y0100169D02*
X0043712Y0100169D01*
X0043523Y0101768D02*
X0039395Y0101768D01*
X0039395Y0103366D02*
X0043989Y0103366D01*
X0045841Y0117753D02*
X0039395Y0117753D01*
X0039395Y0119351D02*
X0044050Y0119351D01*
X0043523Y0120950D02*
X0039395Y0120950D01*
X0039395Y0122548D02*
X0043650Y0122548D01*
X0044551Y0124147D02*
X0039395Y0124147D01*
X0039395Y0125745D02*
X0105095Y0125745D01*
X0105095Y0124147D02*
X0060640Y0124147D01*
X0061540Y0122548D02*
X0105095Y0122548D01*
X0105095Y0120950D02*
X0061667Y0120950D01*
X0061140Y0119351D02*
X0105095Y0119351D01*
X0105095Y0117753D02*
X0059350Y0117753D01*
X0110095Y0112957D02*
X0110095Y0112957D01*
X0110095Y0111359D02*
X0110095Y0111359D01*
X0110095Y0109760D02*
X0110095Y0109760D01*
X0110095Y0108162D02*
X0110095Y0108162D01*
X0110095Y0106563D02*
X0110095Y0106563D01*
X0110095Y0104965D02*
X0110095Y0104965D01*
X0110095Y0103366D02*
X0110095Y0103366D01*
X0110095Y0101768D02*
X0110095Y0101768D01*
X0110095Y0100169D02*
X0110095Y0100169D01*
X0110095Y0098571D02*
X0110095Y0098571D01*
X0110095Y0096972D02*
X0110095Y0096972D01*
X0110095Y0095374D02*
X0110095Y0095374D01*
X0110095Y0093775D02*
X0110095Y0093775D01*
X0110095Y0092177D02*
X0110095Y0092177D01*
X0110095Y0090578D02*
X0110243Y0090578D01*
X0110095Y0088979D02*
X0111513Y0088979D01*
X0115095Y0124147D02*
X0115524Y0124147D01*
X0115747Y0128942D02*
X0115095Y0128942D01*
X0209843Y0112957D02*
X0215795Y0112957D01*
X0215795Y0114556D02*
X0211225Y0114556D01*
X0211667Y0116154D02*
X0215795Y0116154D01*
X0215795Y0117753D02*
X0211456Y0117753D01*
X0210435Y0119351D02*
X0215795Y0119351D01*
X0215795Y0162511D02*
X0208766Y0162511D01*
X0211030Y0164110D02*
X0215795Y0164110D01*
X0215795Y0165708D02*
X0211667Y0165708D01*
X0211640Y0167307D02*
X0215795Y0167307D01*
X0215795Y0168905D02*
X0210881Y0168905D01*
X0211012Y0063403D02*
X0215795Y0063403D01*
X0215795Y0061805D02*
X0212179Y0061805D01*
X0212623Y0060206D02*
X0215795Y0060206D01*
X0215795Y0058608D02*
X0212643Y0058608D01*
D14*
X0162595Y0071433D03*
X0161694Y0116433D03*
X0141694Y0116433D03*
X0117595Y0116433D03*
X0117595Y0126433D03*
X0120095Y0142683D03*
X0100095Y0142683D03*
X0117595Y0168933D03*
X0130095Y0177683D03*
X0137595Y0181433D03*
X0132595Y0186433D03*
X0150095Y0177683D03*
X0163845Y0181433D03*
X0170095Y0177683D03*
X0183845Y0168933D03*
X0190095Y0177683D03*
X0160095Y0202683D03*
X0125095Y0202683D03*
X0107595Y0196433D03*
X0112595Y0186433D03*
X0140095Y0142683D03*
X0181694Y0116433D03*
X0081345Y0108933D03*
X0077595Y0105183D03*
X0078845Y0087683D03*
X0082595Y0083933D03*
D15*
X0082595Y0056433D01*
X0092595Y0056433D02*
X0092595Y0097683D01*
X0081345Y0108933D01*
X0107595Y0086433D02*
X0127595Y0066433D01*
X0127595Y0056433D01*
X0132595Y0071433D02*
X0162595Y0071433D01*
X0132595Y0071433D02*
X0112595Y0091433D01*
X0112595Y0186433D01*
X0107595Y0196433D02*
X0107595Y0086433D01*
X0117595Y0168933D02*
X0183845Y0168933D01*
X0163845Y0181433D02*
X0137595Y0181433D01*
X0132595Y0186433D02*
X0172595Y0186433D01*
X0177595Y0191433D01*
X0177595Y0206433D01*
D16*
X0202595Y0136433D02*
X0192595Y0126433D01*
X0117595Y0126433D01*
X0117595Y0116433D02*
X0141694Y0116433D01*
X0161694Y0116433D01*
X0181694Y0116433D01*
X0202595Y0136433D02*
X0207595Y0136433D01*
M02*
