%
M48
M72
T01C0.02362
T02C0.03543
T03C0.04331
%
T01
X78845Y87683
X82595Y83933
X77595Y105183
X81345Y108933
X117595Y116433
X117595Y126433
X120095Y142683
X100095Y142683
X117595Y168933
X130095Y177683
X137595Y181433
X132595Y186433
X150095Y177683
X163845Y181433
X170095Y177683
X183845Y168933
X190095Y177683
X160095Y202683
X107595Y196433
X112595Y186433
X125095Y202683
X140095Y142683
X141694Y116433
X161694Y116433
X181694Y116433
X162595Y71433
T02
X207595Y116433
X207595Y126433
X207595Y136433
X207595Y146433
X207595Y156433
X207595Y166433
X207595Y176433
X207595Y186433
X207595Y196433
X207595Y206433
X207595Y216433
X207595Y226433
X57595Y211433
X47595Y211433
X47595Y201433
X57595Y201433
X57595Y191433
X47595Y191433
X47595Y181433
X57595Y181433
X57595Y171433
X47595Y171433
X47595Y161433
X57595Y161433
X57595Y151433
X47595Y151433
X47595Y141433
X57595Y141433
X57595Y131433
X47595Y131433
X47595Y121433
X57595Y121433
X57595Y111433
X47595Y111433
X47595Y101433
X57595Y101433
T03
X72595Y56433
X82595Y56433
X92595Y56433
X102595Y56433
X102595Y46433
X92595Y46433
X82595Y46433
X72595Y46433
X117595Y46433
X127595Y46433
X137595Y46433
X137595Y56433
X127595Y56433
X117595Y56433
X152595Y56433
X162595Y56433
X172595Y56433
X187595Y56433
X197595Y56433
X207595Y56433
X207595Y46433
X197595Y46433
X187595Y46433
X172595Y46433
X162595Y46433
X152595Y46433
X152595Y206433
X142595Y206433
X132595Y206433
X132595Y216433
X117595Y216433
X107595Y216433
X97595Y216433
X97595Y206433
X107595Y206433
X117595Y206433
X142595Y216433
X152595Y216433
X167595Y216433
X177595Y216433
X177595Y206433
X167595Y206433
X187595Y206433
X187595Y216433
M30
