G75*
%MOIN*%
%OFA0B0*%
%FSLAX25Y25*%
%IPPOS*%
%LPD*%
%AMOC8*
5,1,8,0,0,1.08239X$1,22.5*
%
%ADD10C,0.00000*%
%ADD11C,0.00300*%
%ADD12C,0.00500*%
%ADD13C,0.00400*%
%ADD14C,0.00600*%
%ADD15C,0.01000*%
%ADD16C,0.02000*%
%ADD17R,0.03830X0.00166*%
%ADD18R,0.05670X0.00167*%
%ADD19R,0.08830X0.00167*%
%ADD20R,0.09830X0.00166*%
%ADD21R,0.02830X0.00167*%
%ADD22R,0.02500X0.00167*%
%ADD23R,0.02670X0.00167*%
%ADD24R,0.02170X0.00166*%
%ADD25R,0.02160X0.00166*%
%ADD26R,0.02000X0.00167*%
%ADD27R,0.01830X0.00167*%
%ADD28R,0.01670X0.00167*%
%ADD29R,0.01670X0.00166*%
%ADD30R,0.01500X0.00167*%
%ADD31R,0.01170X0.00167*%
%ADD32R,0.01500X0.00166*%
%ADD33R,0.01000X0.00166*%
%ADD34R,0.02000X0.00166*%
%ADD35R,0.01330X0.00166*%
%ADD36R,0.01330X0.00167*%
%ADD37R,0.02170X0.00167*%
%ADD38R,0.01340X0.00167*%
%ADD39R,0.01660X0.00167*%
%ADD40R,0.01000X0.00167*%
%ADD41R,0.01170X0.00166*%
%ADD42R,0.00830X0.00166*%
%ADD43R,0.00670X0.00167*%
%ADD44R,0.00660X0.00167*%
%ADD45R,0.00840X0.00167*%
%ADD46R,0.00830X0.00167*%
%ADD47R,0.00670X0.00166*%
%ADD48R,0.02330X0.00166*%
%ADD49R,0.01160X0.00166*%
%ADD50R,0.01160X0.00167*%
%ADD51R,0.00840X0.00166*%
%ADD52R,0.00660X0.00166*%
%ADD53R,0.00330X0.00166*%
%ADD54R,0.00500X0.00167*%
%ADD55R,0.00330X0.00167*%
%ADD56R,0.00500X0.00166*%
%ADD57R,0.01660X0.00166*%
%ADD58R,0.01840X0.00167*%
%ADD59R,0.05840X0.00167*%
%ADD60R,0.01340X0.00166*%
%ADD61R,0.06670X0.00166*%
%ADD62R,0.09000X0.00167*%
%ADD63R,0.09670X0.00167*%
%ADD64R,0.02330X0.00167*%
%ADD65R,0.00160X0.00167*%
%ADD66R,0.03000X0.00166*%
%ADD67R,0.02840X0.00167*%
%ADD68R,0.01840X0.00166*%
%ADD69R,0.01830X0.00166*%
%ADD70R,0.00340X0.00167*%
%ADD71R,0.03330X0.00166*%
%ADD72R,0.04000X0.00167*%
%ADD73R,0.00340X0.00166*%
%ADD74R,0.02500X0.00166*%
%ADD75R,0.02660X0.00167*%
%ADD76R,0.03000X0.00167*%
%ADD77R,0.03170X0.00166*%
%ADD78R,0.00170X0.00166*%
%ADD79R,0.02670X0.00166*%
%ADD80R,0.00170X0.00167*%
%ADD81R,0.03500X0.00166*%
%ADD82R,0.04670X0.00167*%
%ADD83R,0.04500X0.00167*%
%ADD84R,0.03340X0.00167*%
%ADD85R,0.03340X0.00166*%
%ADD86R,0.00160X0.00166*%
%ADD87R,0.03670X0.00166*%
%ADD88R,0.05340X0.00167*%
%ADD89R,0.04160X0.00166*%
%ADD90R,0.03830X0.00167*%
%ADD91R,0.02340X0.00167*%
%ADD92R,0.03330X0.00167*%
%ADD93R,0.03170X0.00167*%
%ADD94R,0.02340X0.00166*%
%ADD95R,0.02160X0.00167*%
%ADD96R,0.03500X0.00167*%
%ADD97R,0.03660X0.00166*%
%ADD98R,0.04340X0.00167*%
%ADD99R,0.03670X0.00167*%
%ADD100R,0.02840X0.00166*%
%ADD101R,0.02830X0.00166*%
%ADD102R,0.07000X0.00167*%
%ADD103R,0.05670X0.00166*%
%ADD104R,0.04660X0.00167*%
%ADD105R,0.09330X0.00166*%
%ADD106R,0.06670X0.00167*%
D10*
X0062595Y0031433D02*
X0062595Y0076433D01*
X0037595Y0076433D01*
X0037595Y0231433D01*
X0217595Y0231433D01*
X0217595Y0031433D01*
X0062595Y0031433D01*
X0070430Y0046433D02*
X0070432Y0046526D01*
X0070438Y0046618D01*
X0070448Y0046710D01*
X0070462Y0046801D01*
X0070479Y0046892D01*
X0070501Y0046982D01*
X0070526Y0047071D01*
X0070555Y0047159D01*
X0070588Y0047245D01*
X0070625Y0047330D01*
X0070665Y0047414D01*
X0070709Y0047495D01*
X0070756Y0047575D01*
X0070806Y0047653D01*
X0070860Y0047728D01*
X0070917Y0047801D01*
X0070977Y0047871D01*
X0071040Y0047939D01*
X0071106Y0048004D01*
X0071174Y0048066D01*
X0071245Y0048126D01*
X0071319Y0048182D01*
X0071395Y0048235D01*
X0071473Y0048284D01*
X0071553Y0048331D01*
X0071635Y0048373D01*
X0071719Y0048413D01*
X0071804Y0048448D01*
X0071891Y0048480D01*
X0071979Y0048509D01*
X0072068Y0048533D01*
X0072158Y0048554D01*
X0072249Y0048570D01*
X0072341Y0048583D01*
X0072433Y0048592D01*
X0072526Y0048597D01*
X0072618Y0048598D01*
X0072711Y0048595D01*
X0072803Y0048588D01*
X0072895Y0048577D01*
X0072986Y0048562D01*
X0073077Y0048544D01*
X0073167Y0048521D01*
X0073255Y0048495D01*
X0073343Y0048465D01*
X0073429Y0048431D01*
X0073513Y0048394D01*
X0073596Y0048352D01*
X0073677Y0048308D01*
X0073757Y0048260D01*
X0073834Y0048209D01*
X0073908Y0048154D01*
X0073981Y0048096D01*
X0074051Y0048036D01*
X0074118Y0047972D01*
X0074182Y0047906D01*
X0074244Y0047836D01*
X0074302Y0047765D01*
X0074357Y0047691D01*
X0074409Y0047614D01*
X0074458Y0047535D01*
X0074504Y0047455D01*
X0074546Y0047372D01*
X0074584Y0047288D01*
X0074619Y0047202D01*
X0074650Y0047115D01*
X0074677Y0047027D01*
X0074700Y0046937D01*
X0074720Y0046847D01*
X0074736Y0046756D01*
X0074748Y0046664D01*
X0074756Y0046572D01*
X0074760Y0046479D01*
X0074760Y0046387D01*
X0074756Y0046294D01*
X0074748Y0046202D01*
X0074736Y0046110D01*
X0074720Y0046019D01*
X0074700Y0045929D01*
X0074677Y0045839D01*
X0074650Y0045751D01*
X0074619Y0045664D01*
X0074584Y0045578D01*
X0074546Y0045494D01*
X0074504Y0045411D01*
X0074458Y0045331D01*
X0074409Y0045252D01*
X0074357Y0045175D01*
X0074302Y0045101D01*
X0074244Y0045030D01*
X0074182Y0044960D01*
X0074118Y0044894D01*
X0074051Y0044830D01*
X0073981Y0044770D01*
X0073908Y0044712D01*
X0073834Y0044657D01*
X0073757Y0044606D01*
X0073678Y0044558D01*
X0073596Y0044514D01*
X0073513Y0044472D01*
X0073429Y0044435D01*
X0073343Y0044401D01*
X0073255Y0044371D01*
X0073167Y0044345D01*
X0073077Y0044322D01*
X0072986Y0044304D01*
X0072895Y0044289D01*
X0072803Y0044278D01*
X0072711Y0044271D01*
X0072618Y0044268D01*
X0072526Y0044269D01*
X0072433Y0044274D01*
X0072341Y0044283D01*
X0072249Y0044296D01*
X0072158Y0044312D01*
X0072068Y0044333D01*
X0071979Y0044357D01*
X0071891Y0044386D01*
X0071804Y0044418D01*
X0071719Y0044453D01*
X0071635Y0044493D01*
X0071553Y0044535D01*
X0071473Y0044582D01*
X0071395Y0044631D01*
X0071319Y0044684D01*
X0071245Y0044740D01*
X0071174Y0044800D01*
X0071106Y0044862D01*
X0071040Y0044927D01*
X0070977Y0044995D01*
X0070917Y0045065D01*
X0070860Y0045138D01*
X0070806Y0045213D01*
X0070756Y0045291D01*
X0070709Y0045371D01*
X0070665Y0045452D01*
X0070625Y0045536D01*
X0070588Y0045621D01*
X0070555Y0045707D01*
X0070526Y0045795D01*
X0070501Y0045884D01*
X0070479Y0045974D01*
X0070462Y0046065D01*
X0070448Y0046156D01*
X0070438Y0046248D01*
X0070432Y0046340D01*
X0070430Y0046433D01*
X0080430Y0046433D02*
X0080432Y0046526D01*
X0080438Y0046618D01*
X0080448Y0046710D01*
X0080462Y0046801D01*
X0080479Y0046892D01*
X0080501Y0046982D01*
X0080526Y0047071D01*
X0080555Y0047159D01*
X0080588Y0047245D01*
X0080625Y0047330D01*
X0080665Y0047414D01*
X0080709Y0047495D01*
X0080756Y0047575D01*
X0080806Y0047653D01*
X0080860Y0047728D01*
X0080917Y0047801D01*
X0080977Y0047871D01*
X0081040Y0047939D01*
X0081106Y0048004D01*
X0081174Y0048066D01*
X0081245Y0048126D01*
X0081319Y0048182D01*
X0081395Y0048235D01*
X0081473Y0048284D01*
X0081553Y0048331D01*
X0081635Y0048373D01*
X0081719Y0048413D01*
X0081804Y0048448D01*
X0081891Y0048480D01*
X0081979Y0048509D01*
X0082068Y0048533D01*
X0082158Y0048554D01*
X0082249Y0048570D01*
X0082341Y0048583D01*
X0082433Y0048592D01*
X0082526Y0048597D01*
X0082618Y0048598D01*
X0082711Y0048595D01*
X0082803Y0048588D01*
X0082895Y0048577D01*
X0082986Y0048562D01*
X0083077Y0048544D01*
X0083167Y0048521D01*
X0083255Y0048495D01*
X0083343Y0048465D01*
X0083429Y0048431D01*
X0083513Y0048394D01*
X0083596Y0048352D01*
X0083677Y0048308D01*
X0083757Y0048260D01*
X0083834Y0048209D01*
X0083908Y0048154D01*
X0083981Y0048096D01*
X0084051Y0048036D01*
X0084118Y0047972D01*
X0084182Y0047906D01*
X0084244Y0047836D01*
X0084302Y0047765D01*
X0084357Y0047691D01*
X0084409Y0047614D01*
X0084458Y0047535D01*
X0084504Y0047455D01*
X0084546Y0047372D01*
X0084584Y0047288D01*
X0084619Y0047202D01*
X0084650Y0047115D01*
X0084677Y0047027D01*
X0084700Y0046937D01*
X0084720Y0046847D01*
X0084736Y0046756D01*
X0084748Y0046664D01*
X0084756Y0046572D01*
X0084760Y0046479D01*
X0084760Y0046387D01*
X0084756Y0046294D01*
X0084748Y0046202D01*
X0084736Y0046110D01*
X0084720Y0046019D01*
X0084700Y0045929D01*
X0084677Y0045839D01*
X0084650Y0045751D01*
X0084619Y0045664D01*
X0084584Y0045578D01*
X0084546Y0045494D01*
X0084504Y0045411D01*
X0084458Y0045331D01*
X0084409Y0045252D01*
X0084357Y0045175D01*
X0084302Y0045101D01*
X0084244Y0045030D01*
X0084182Y0044960D01*
X0084118Y0044894D01*
X0084051Y0044830D01*
X0083981Y0044770D01*
X0083908Y0044712D01*
X0083834Y0044657D01*
X0083757Y0044606D01*
X0083678Y0044558D01*
X0083596Y0044514D01*
X0083513Y0044472D01*
X0083429Y0044435D01*
X0083343Y0044401D01*
X0083255Y0044371D01*
X0083167Y0044345D01*
X0083077Y0044322D01*
X0082986Y0044304D01*
X0082895Y0044289D01*
X0082803Y0044278D01*
X0082711Y0044271D01*
X0082618Y0044268D01*
X0082526Y0044269D01*
X0082433Y0044274D01*
X0082341Y0044283D01*
X0082249Y0044296D01*
X0082158Y0044312D01*
X0082068Y0044333D01*
X0081979Y0044357D01*
X0081891Y0044386D01*
X0081804Y0044418D01*
X0081719Y0044453D01*
X0081635Y0044493D01*
X0081553Y0044535D01*
X0081473Y0044582D01*
X0081395Y0044631D01*
X0081319Y0044684D01*
X0081245Y0044740D01*
X0081174Y0044800D01*
X0081106Y0044862D01*
X0081040Y0044927D01*
X0080977Y0044995D01*
X0080917Y0045065D01*
X0080860Y0045138D01*
X0080806Y0045213D01*
X0080756Y0045291D01*
X0080709Y0045371D01*
X0080665Y0045452D01*
X0080625Y0045536D01*
X0080588Y0045621D01*
X0080555Y0045707D01*
X0080526Y0045795D01*
X0080501Y0045884D01*
X0080479Y0045974D01*
X0080462Y0046065D01*
X0080448Y0046156D01*
X0080438Y0046248D01*
X0080432Y0046340D01*
X0080430Y0046433D01*
X0090430Y0046433D02*
X0090432Y0046526D01*
X0090438Y0046618D01*
X0090448Y0046710D01*
X0090462Y0046801D01*
X0090479Y0046892D01*
X0090501Y0046982D01*
X0090526Y0047071D01*
X0090555Y0047159D01*
X0090588Y0047245D01*
X0090625Y0047330D01*
X0090665Y0047414D01*
X0090709Y0047495D01*
X0090756Y0047575D01*
X0090806Y0047653D01*
X0090860Y0047728D01*
X0090917Y0047801D01*
X0090977Y0047871D01*
X0091040Y0047939D01*
X0091106Y0048004D01*
X0091174Y0048066D01*
X0091245Y0048126D01*
X0091319Y0048182D01*
X0091395Y0048235D01*
X0091473Y0048284D01*
X0091553Y0048331D01*
X0091635Y0048373D01*
X0091719Y0048413D01*
X0091804Y0048448D01*
X0091891Y0048480D01*
X0091979Y0048509D01*
X0092068Y0048533D01*
X0092158Y0048554D01*
X0092249Y0048570D01*
X0092341Y0048583D01*
X0092433Y0048592D01*
X0092526Y0048597D01*
X0092618Y0048598D01*
X0092711Y0048595D01*
X0092803Y0048588D01*
X0092895Y0048577D01*
X0092986Y0048562D01*
X0093077Y0048544D01*
X0093167Y0048521D01*
X0093255Y0048495D01*
X0093343Y0048465D01*
X0093429Y0048431D01*
X0093513Y0048394D01*
X0093596Y0048352D01*
X0093677Y0048308D01*
X0093757Y0048260D01*
X0093834Y0048209D01*
X0093908Y0048154D01*
X0093981Y0048096D01*
X0094051Y0048036D01*
X0094118Y0047972D01*
X0094182Y0047906D01*
X0094244Y0047836D01*
X0094302Y0047765D01*
X0094357Y0047691D01*
X0094409Y0047614D01*
X0094458Y0047535D01*
X0094504Y0047455D01*
X0094546Y0047372D01*
X0094584Y0047288D01*
X0094619Y0047202D01*
X0094650Y0047115D01*
X0094677Y0047027D01*
X0094700Y0046937D01*
X0094720Y0046847D01*
X0094736Y0046756D01*
X0094748Y0046664D01*
X0094756Y0046572D01*
X0094760Y0046479D01*
X0094760Y0046387D01*
X0094756Y0046294D01*
X0094748Y0046202D01*
X0094736Y0046110D01*
X0094720Y0046019D01*
X0094700Y0045929D01*
X0094677Y0045839D01*
X0094650Y0045751D01*
X0094619Y0045664D01*
X0094584Y0045578D01*
X0094546Y0045494D01*
X0094504Y0045411D01*
X0094458Y0045331D01*
X0094409Y0045252D01*
X0094357Y0045175D01*
X0094302Y0045101D01*
X0094244Y0045030D01*
X0094182Y0044960D01*
X0094118Y0044894D01*
X0094051Y0044830D01*
X0093981Y0044770D01*
X0093908Y0044712D01*
X0093834Y0044657D01*
X0093757Y0044606D01*
X0093678Y0044558D01*
X0093596Y0044514D01*
X0093513Y0044472D01*
X0093429Y0044435D01*
X0093343Y0044401D01*
X0093255Y0044371D01*
X0093167Y0044345D01*
X0093077Y0044322D01*
X0092986Y0044304D01*
X0092895Y0044289D01*
X0092803Y0044278D01*
X0092711Y0044271D01*
X0092618Y0044268D01*
X0092526Y0044269D01*
X0092433Y0044274D01*
X0092341Y0044283D01*
X0092249Y0044296D01*
X0092158Y0044312D01*
X0092068Y0044333D01*
X0091979Y0044357D01*
X0091891Y0044386D01*
X0091804Y0044418D01*
X0091719Y0044453D01*
X0091635Y0044493D01*
X0091553Y0044535D01*
X0091473Y0044582D01*
X0091395Y0044631D01*
X0091319Y0044684D01*
X0091245Y0044740D01*
X0091174Y0044800D01*
X0091106Y0044862D01*
X0091040Y0044927D01*
X0090977Y0044995D01*
X0090917Y0045065D01*
X0090860Y0045138D01*
X0090806Y0045213D01*
X0090756Y0045291D01*
X0090709Y0045371D01*
X0090665Y0045452D01*
X0090625Y0045536D01*
X0090588Y0045621D01*
X0090555Y0045707D01*
X0090526Y0045795D01*
X0090501Y0045884D01*
X0090479Y0045974D01*
X0090462Y0046065D01*
X0090448Y0046156D01*
X0090438Y0046248D01*
X0090432Y0046340D01*
X0090430Y0046433D01*
X0100430Y0046433D02*
X0100432Y0046526D01*
X0100438Y0046618D01*
X0100448Y0046710D01*
X0100462Y0046801D01*
X0100479Y0046892D01*
X0100501Y0046982D01*
X0100526Y0047071D01*
X0100555Y0047159D01*
X0100588Y0047245D01*
X0100625Y0047330D01*
X0100665Y0047414D01*
X0100709Y0047495D01*
X0100756Y0047575D01*
X0100806Y0047653D01*
X0100860Y0047728D01*
X0100917Y0047801D01*
X0100977Y0047871D01*
X0101040Y0047939D01*
X0101106Y0048004D01*
X0101174Y0048066D01*
X0101245Y0048126D01*
X0101319Y0048182D01*
X0101395Y0048235D01*
X0101473Y0048284D01*
X0101553Y0048331D01*
X0101635Y0048373D01*
X0101719Y0048413D01*
X0101804Y0048448D01*
X0101891Y0048480D01*
X0101979Y0048509D01*
X0102068Y0048533D01*
X0102158Y0048554D01*
X0102249Y0048570D01*
X0102341Y0048583D01*
X0102433Y0048592D01*
X0102526Y0048597D01*
X0102618Y0048598D01*
X0102711Y0048595D01*
X0102803Y0048588D01*
X0102895Y0048577D01*
X0102986Y0048562D01*
X0103077Y0048544D01*
X0103167Y0048521D01*
X0103255Y0048495D01*
X0103343Y0048465D01*
X0103429Y0048431D01*
X0103513Y0048394D01*
X0103596Y0048352D01*
X0103677Y0048308D01*
X0103757Y0048260D01*
X0103834Y0048209D01*
X0103908Y0048154D01*
X0103981Y0048096D01*
X0104051Y0048036D01*
X0104118Y0047972D01*
X0104182Y0047906D01*
X0104244Y0047836D01*
X0104302Y0047765D01*
X0104357Y0047691D01*
X0104409Y0047614D01*
X0104458Y0047535D01*
X0104504Y0047455D01*
X0104546Y0047372D01*
X0104584Y0047288D01*
X0104619Y0047202D01*
X0104650Y0047115D01*
X0104677Y0047027D01*
X0104700Y0046937D01*
X0104720Y0046847D01*
X0104736Y0046756D01*
X0104748Y0046664D01*
X0104756Y0046572D01*
X0104760Y0046479D01*
X0104760Y0046387D01*
X0104756Y0046294D01*
X0104748Y0046202D01*
X0104736Y0046110D01*
X0104720Y0046019D01*
X0104700Y0045929D01*
X0104677Y0045839D01*
X0104650Y0045751D01*
X0104619Y0045664D01*
X0104584Y0045578D01*
X0104546Y0045494D01*
X0104504Y0045411D01*
X0104458Y0045331D01*
X0104409Y0045252D01*
X0104357Y0045175D01*
X0104302Y0045101D01*
X0104244Y0045030D01*
X0104182Y0044960D01*
X0104118Y0044894D01*
X0104051Y0044830D01*
X0103981Y0044770D01*
X0103908Y0044712D01*
X0103834Y0044657D01*
X0103757Y0044606D01*
X0103678Y0044558D01*
X0103596Y0044514D01*
X0103513Y0044472D01*
X0103429Y0044435D01*
X0103343Y0044401D01*
X0103255Y0044371D01*
X0103167Y0044345D01*
X0103077Y0044322D01*
X0102986Y0044304D01*
X0102895Y0044289D01*
X0102803Y0044278D01*
X0102711Y0044271D01*
X0102618Y0044268D01*
X0102526Y0044269D01*
X0102433Y0044274D01*
X0102341Y0044283D01*
X0102249Y0044296D01*
X0102158Y0044312D01*
X0102068Y0044333D01*
X0101979Y0044357D01*
X0101891Y0044386D01*
X0101804Y0044418D01*
X0101719Y0044453D01*
X0101635Y0044493D01*
X0101553Y0044535D01*
X0101473Y0044582D01*
X0101395Y0044631D01*
X0101319Y0044684D01*
X0101245Y0044740D01*
X0101174Y0044800D01*
X0101106Y0044862D01*
X0101040Y0044927D01*
X0100977Y0044995D01*
X0100917Y0045065D01*
X0100860Y0045138D01*
X0100806Y0045213D01*
X0100756Y0045291D01*
X0100709Y0045371D01*
X0100665Y0045452D01*
X0100625Y0045536D01*
X0100588Y0045621D01*
X0100555Y0045707D01*
X0100526Y0045795D01*
X0100501Y0045884D01*
X0100479Y0045974D01*
X0100462Y0046065D01*
X0100448Y0046156D01*
X0100438Y0046248D01*
X0100432Y0046340D01*
X0100430Y0046433D01*
X0115430Y0046433D02*
X0115432Y0046526D01*
X0115438Y0046618D01*
X0115448Y0046710D01*
X0115462Y0046801D01*
X0115479Y0046892D01*
X0115501Y0046982D01*
X0115526Y0047071D01*
X0115555Y0047159D01*
X0115588Y0047245D01*
X0115625Y0047330D01*
X0115665Y0047414D01*
X0115709Y0047495D01*
X0115756Y0047575D01*
X0115806Y0047653D01*
X0115860Y0047728D01*
X0115917Y0047801D01*
X0115977Y0047871D01*
X0116040Y0047939D01*
X0116106Y0048004D01*
X0116174Y0048066D01*
X0116245Y0048126D01*
X0116319Y0048182D01*
X0116395Y0048235D01*
X0116473Y0048284D01*
X0116553Y0048331D01*
X0116635Y0048373D01*
X0116719Y0048413D01*
X0116804Y0048448D01*
X0116891Y0048480D01*
X0116979Y0048509D01*
X0117068Y0048533D01*
X0117158Y0048554D01*
X0117249Y0048570D01*
X0117341Y0048583D01*
X0117433Y0048592D01*
X0117526Y0048597D01*
X0117618Y0048598D01*
X0117711Y0048595D01*
X0117803Y0048588D01*
X0117895Y0048577D01*
X0117986Y0048562D01*
X0118077Y0048544D01*
X0118167Y0048521D01*
X0118255Y0048495D01*
X0118343Y0048465D01*
X0118429Y0048431D01*
X0118513Y0048394D01*
X0118596Y0048352D01*
X0118677Y0048308D01*
X0118757Y0048260D01*
X0118834Y0048209D01*
X0118908Y0048154D01*
X0118981Y0048096D01*
X0119051Y0048036D01*
X0119118Y0047972D01*
X0119182Y0047906D01*
X0119244Y0047836D01*
X0119302Y0047765D01*
X0119357Y0047691D01*
X0119409Y0047614D01*
X0119458Y0047535D01*
X0119504Y0047455D01*
X0119546Y0047372D01*
X0119584Y0047288D01*
X0119619Y0047202D01*
X0119650Y0047115D01*
X0119677Y0047027D01*
X0119700Y0046937D01*
X0119720Y0046847D01*
X0119736Y0046756D01*
X0119748Y0046664D01*
X0119756Y0046572D01*
X0119760Y0046479D01*
X0119760Y0046387D01*
X0119756Y0046294D01*
X0119748Y0046202D01*
X0119736Y0046110D01*
X0119720Y0046019D01*
X0119700Y0045929D01*
X0119677Y0045839D01*
X0119650Y0045751D01*
X0119619Y0045664D01*
X0119584Y0045578D01*
X0119546Y0045494D01*
X0119504Y0045411D01*
X0119458Y0045331D01*
X0119409Y0045252D01*
X0119357Y0045175D01*
X0119302Y0045101D01*
X0119244Y0045030D01*
X0119182Y0044960D01*
X0119118Y0044894D01*
X0119051Y0044830D01*
X0118981Y0044770D01*
X0118908Y0044712D01*
X0118834Y0044657D01*
X0118757Y0044606D01*
X0118678Y0044558D01*
X0118596Y0044514D01*
X0118513Y0044472D01*
X0118429Y0044435D01*
X0118343Y0044401D01*
X0118255Y0044371D01*
X0118167Y0044345D01*
X0118077Y0044322D01*
X0117986Y0044304D01*
X0117895Y0044289D01*
X0117803Y0044278D01*
X0117711Y0044271D01*
X0117618Y0044268D01*
X0117526Y0044269D01*
X0117433Y0044274D01*
X0117341Y0044283D01*
X0117249Y0044296D01*
X0117158Y0044312D01*
X0117068Y0044333D01*
X0116979Y0044357D01*
X0116891Y0044386D01*
X0116804Y0044418D01*
X0116719Y0044453D01*
X0116635Y0044493D01*
X0116553Y0044535D01*
X0116473Y0044582D01*
X0116395Y0044631D01*
X0116319Y0044684D01*
X0116245Y0044740D01*
X0116174Y0044800D01*
X0116106Y0044862D01*
X0116040Y0044927D01*
X0115977Y0044995D01*
X0115917Y0045065D01*
X0115860Y0045138D01*
X0115806Y0045213D01*
X0115756Y0045291D01*
X0115709Y0045371D01*
X0115665Y0045452D01*
X0115625Y0045536D01*
X0115588Y0045621D01*
X0115555Y0045707D01*
X0115526Y0045795D01*
X0115501Y0045884D01*
X0115479Y0045974D01*
X0115462Y0046065D01*
X0115448Y0046156D01*
X0115438Y0046248D01*
X0115432Y0046340D01*
X0115430Y0046433D01*
X0125430Y0046433D02*
X0125432Y0046526D01*
X0125438Y0046618D01*
X0125448Y0046710D01*
X0125462Y0046801D01*
X0125479Y0046892D01*
X0125501Y0046982D01*
X0125526Y0047071D01*
X0125555Y0047159D01*
X0125588Y0047245D01*
X0125625Y0047330D01*
X0125665Y0047414D01*
X0125709Y0047495D01*
X0125756Y0047575D01*
X0125806Y0047653D01*
X0125860Y0047728D01*
X0125917Y0047801D01*
X0125977Y0047871D01*
X0126040Y0047939D01*
X0126106Y0048004D01*
X0126174Y0048066D01*
X0126245Y0048126D01*
X0126319Y0048182D01*
X0126395Y0048235D01*
X0126473Y0048284D01*
X0126553Y0048331D01*
X0126635Y0048373D01*
X0126719Y0048413D01*
X0126804Y0048448D01*
X0126891Y0048480D01*
X0126979Y0048509D01*
X0127068Y0048533D01*
X0127158Y0048554D01*
X0127249Y0048570D01*
X0127341Y0048583D01*
X0127433Y0048592D01*
X0127526Y0048597D01*
X0127618Y0048598D01*
X0127711Y0048595D01*
X0127803Y0048588D01*
X0127895Y0048577D01*
X0127986Y0048562D01*
X0128077Y0048544D01*
X0128167Y0048521D01*
X0128255Y0048495D01*
X0128343Y0048465D01*
X0128429Y0048431D01*
X0128513Y0048394D01*
X0128596Y0048352D01*
X0128677Y0048308D01*
X0128757Y0048260D01*
X0128834Y0048209D01*
X0128908Y0048154D01*
X0128981Y0048096D01*
X0129051Y0048036D01*
X0129118Y0047972D01*
X0129182Y0047906D01*
X0129244Y0047836D01*
X0129302Y0047765D01*
X0129357Y0047691D01*
X0129409Y0047614D01*
X0129458Y0047535D01*
X0129504Y0047455D01*
X0129546Y0047372D01*
X0129584Y0047288D01*
X0129619Y0047202D01*
X0129650Y0047115D01*
X0129677Y0047027D01*
X0129700Y0046937D01*
X0129720Y0046847D01*
X0129736Y0046756D01*
X0129748Y0046664D01*
X0129756Y0046572D01*
X0129760Y0046479D01*
X0129760Y0046387D01*
X0129756Y0046294D01*
X0129748Y0046202D01*
X0129736Y0046110D01*
X0129720Y0046019D01*
X0129700Y0045929D01*
X0129677Y0045839D01*
X0129650Y0045751D01*
X0129619Y0045664D01*
X0129584Y0045578D01*
X0129546Y0045494D01*
X0129504Y0045411D01*
X0129458Y0045331D01*
X0129409Y0045252D01*
X0129357Y0045175D01*
X0129302Y0045101D01*
X0129244Y0045030D01*
X0129182Y0044960D01*
X0129118Y0044894D01*
X0129051Y0044830D01*
X0128981Y0044770D01*
X0128908Y0044712D01*
X0128834Y0044657D01*
X0128757Y0044606D01*
X0128678Y0044558D01*
X0128596Y0044514D01*
X0128513Y0044472D01*
X0128429Y0044435D01*
X0128343Y0044401D01*
X0128255Y0044371D01*
X0128167Y0044345D01*
X0128077Y0044322D01*
X0127986Y0044304D01*
X0127895Y0044289D01*
X0127803Y0044278D01*
X0127711Y0044271D01*
X0127618Y0044268D01*
X0127526Y0044269D01*
X0127433Y0044274D01*
X0127341Y0044283D01*
X0127249Y0044296D01*
X0127158Y0044312D01*
X0127068Y0044333D01*
X0126979Y0044357D01*
X0126891Y0044386D01*
X0126804Y0044418D01*
X0126719Y0044453D01*
X0126635Y0044493D01*
X0126553Y0044535D01*
X0126473Y0044582D01*
X0126395Y0044631D01*
X0126319Y0044684D01*
X0126245Y0044740D01*
X0126174Y0044800D01*
X0126106Y0044862D01*
X0126040Y0044927D01*
X0125977Y0044995D01*
X0125917Y0045065D01*
X0125860Y0045138D01*
X0125806Y0045213D01*
X0125756Y0045291D01*
X0125709Y0045371D01*
X0125665Y0045452D01*
X0125625Y0045536D01*
X0125588Y0045621D01*
X0125555Y0045707D01*
X0125526Y0045795D01*
X0125501Y0045884D01*
X0125479Y0045974D01*
X0125462Y0046065D01*
X0125448Y0046156D01*
X0125438Y0046248D01*
X0125432Y0046340D01*
X0125430Y0046433D01*
X0135430Y0046433D02*
X0135432Y0046526D01*
X0135438Y0046618D01*
X0135448Y0046710D01*
X0135462Y0046801D01*
X0135479Y0046892D01*
X0135501Y0046982D01*
X0135526Y0047071D01*
X0135555Y0047159D01*
X0135588Y0047245D01*
X0135625Y0047330D01*
X0135665Y0047414D01*
X0135709Y0047495D01*
X0135756Y0047575D01*
X0135806Y0047653D01*
X0135860Y0047728D01*
X0135917Y0047801D01*
X0135977Y0047871D01*
X0136040Y0047939D01*
X0136106Y0048004D01*
X0136174Y0048066D01*
X0136245Y0048126D01*
X0136319Y0048182D01*
X0136395Y0048235D01*
X0136473Y0048284D01*
X0136553Y0048331D01*
X0136635Y0048373D01*
X0136719Y0048413D01*
X0136804Y0048448D01*
X0136891Y0048480D01*
X0136979Y0048509D01*
X0137068Y0048533D01*
X0137158Y0048554D01*
X0137249Y0048570D01*
X0137341Y0048583D01*
X0137433Y0048592D01*
X0137526Y0048597D01*
X0137618Y0048598D01*
X0137711Y0048595D01*
X0137803Y0048588D01*
X0137895Y0048577D01*
X0137986Y0048562D01*
X0138077Y0048544D01*
X0138167Y0048521D01*
X0138255Y0048495D01*
X0138343Y0048465D01*
X0138429Y0048431D01*
X0138513Y0048394D01*
X0138596Y0048352D01*
X0138677Y0048308D01*
X0138757Y0048260D01*
X0138834Y0048209D01*
X0138908Y0048154D01*
X0138981Y0048096D01*
X0139051Y0048036D01*
X0139118Y0047972D01*
X0139182Y0047906D01*
X0139244Y0047836D01*
X0139302Y0047765D01*
X0139357Y0047691D01*
X0139409Y0047614D01*
X0139458Y0047535D01*
X0139504Y0047455D01*
X0139546Y0047372D01*
X0139584Y0047288D01*
X0139619Y0047202D01*
X0139650Y0047115D01*
X0139677Y0047027D01*
X0139700Y0046937D01*
X0139720Y0046847D01*
X0139736Y0046756D01*
X0139748Y0046664D01*
X0139756Y0046572D01*
X0139760Y0046479D01*
X0139760Y0046387D01*
X0139756Y0046294D01*
X0139748Y0046202D01*
X0139736Y0046110D01*
X0139720Y0046019D01*
X0139700Y0045929D01*
X0139677Y0045839D01*
X0139650Y0045751D01*
X0139619Y0045664D01*
X0139584Y0045578D01*
X0139546Y0045494D01*
X0139504Y0045411D01*
X0139458Y0045331D01*
X0139409Y0045252D01*
X0139357Y0045175D01*
X0139302Y0045101D01*
X0139244Y0045030D01*
X0139182Y0044960D01*
X0139118Y0044894D01*
X0139051Y0044830D01*
X0138981Y0044770D01*
X0138908Y0044712D01*
X0138834Y0044657D01*
X0138757Y0044606D01*
X0138678Y0044558D01*
X0138596Y0044514D01*
X0138513Y0044472D01*
X0138429Y0044435D01*
X0138343Y0044401D01*
X0138255Y0044371D01*
X0138167Y0044345D01*
X0138077Y0044322D01*
X0137986Y0044304D01*
X0137895Y0044289D01*
X0137803Y0044278D01*
X0137711Y0044271D01*
X0137618Y0044268D01*
X0137526Y0044269D01*
X0137433Y0044274D01*
X0137341Y0044283D01*
X0137249Y0044296D01*
X0137158Y0044312D01*
X0137068Y0044333D01*
X0136979Y0044357D01*
X0136891Y0044386D01*
X0136804Y0044418D01*
X0136719Y0044453D01*
X0136635Y0044493D01*
X0136553Y0044535D01*
X0136473Y0044582D01*
X0136395Y0044631D01*
X0136319Y0044684D01*
X0136245Y0044740D01*
X0136174Y0044800D01*
X0136106Y0044862D01*
X0136040Y0044927D01*
X0135977Y0044995D01*
X0135917Y0045065D01*
X0135860Y0045138D01*
X0135806Y0045213D01*
X0135756Y0045291D01*
X0135709Y0045371D01*
X0135665Y0045452D01*
X0135625Y0045536D01*
X0135588Y0045621D01*
X0135555Y0045707D01*
X0135526Y0045795D01*
X0135501Y0045884D01*
X0135479Y0045974D01*
X0135462Y0046065D01*
X0135448Y0046156D01*
X0135438Y0046248D01*
X0135432Y0046340D01*
X0135430Y0046433D01*
X0150430Y0046433D02*
X0150432Y0046526D01*
X0150438Y0046618D01*
X0150448Y0046710D01*
X0150462Y0046801D01*
X0150479Y0046892D01*
X0150501Y0046982D01*
X0150526Y0047071D01*
X0150555Y0047159D01*
X0150588Y0047245D01*
X0150625Y0047330D01*
X0150665Y0047414D01*
X0150709Y0047495D01*
X0150756Y0047575D01*
X0150806Y0047653D01*
X0150860Y0047728D01*
X0150917Y0047801D01*
X0150977Y0047871D01*
X0151040Y0047939D01*
X0151106Y0048004D01*
X0151174Y0048066D01*
X0151245Y0048126D01*
X0151319Y0048182D01*
X0151395Y0048235D01*
X0151473Y0048284D01*
X0151553Y0048331D01*
X0151635Y0048373D01*
X0151719Y0048413D01*
X0151804Y0048448D01*
X0151891Y0048480D01*
X0151979Y0048509D01*
X0152068Y0048533D01*
X0152158Y0048554D01*
X0152249Y0048570D01*
X0152341Y0048583D01*
X0152433Y0048592D01*
X0152526Y0048597D01*
X0152618Y0048598D01*
X0152711Y0048595D01*
X0152803Y0048588D01*
X0152895Y0048577D01*
X0152986Y0048562D01*
X0153077Y0048544D01*
X0153167Y0048521D01*
X0153255Y0048495D01*
X0153343Y0048465D01*
X0153429Y0048431D01*
X0153513Y0048394D01*
X0153596Y0048352D01*
X0153677Y0048308D01*
X0153757Y0048260D01*
X0153834Y0048209D01*
X0153908Y0048154D01*
X0153981Y0048096D01*
X0154051Y0048036D01*
X0154118Y0047972D01*
X0154182Y0047906D01*
X0154244Y0047836D01*
X0154302Y0047765D01*
X0154357Y0047691D01*
X0154409Y0047614D01*
X0154458Y0047535D01*
X0154504Y0047455D01*
X0154546Y0047372D01*
X0154584Y0047288D01*
X0154619Y0047202D01*
X0154650Y0047115D01*
X0154677Y0047027D01*
X0154700Y0046937D01*
X0154720Y0046847D01*
X0154736Y0046756D01*
X0154748Y0046664D01*
X0154756Y0046572D01*
X0154760Y0046479D01*
X0154760Y0046387D01*
X0154756Y0046294D01*
X0154748Y0046202D01*
X0154736Y0046110D01*
X0154720Y0046019D01*
X0154700Y0045929D01*
X0154677Y0045839D01*
X0154650Y0045751D01*
X0154619Y0045664D01*
X0154584Y0045578D01*
X0154546Y0045494D01*
X0154504Y0045411D01*
X0154458Y0045331D01*
X0154409Y0045252D01*
X0154357Y0045175D01*
X0154302Y0045101D01*
X0154244Y0045030D01*
X0154182Y0044960D01*
X0154118Y0044894D01*
X0154051Y0044830D01*
X0153981Y0044770D01*
X0153908Y0044712D01*
X0153834Y0044657D01*
X0153757Y0044606D01*
X0153678Y0044558D01*
X0153596Y0044514D01*
X0153513Y0044472D01*
X0153429Y0044435D01*
X0153343Y0044401D01*
X0153255Y0044371D01*
X0153167Y0044345D01*
X0153077Y0044322D01*
X0152986Y0044304D01*
X0152895Y0044289D01*
X0152803Y0044278D01*
X0152711Y0044271D01*
X0152618Y0044268D01*
X0152526Y0044269D01*
X0152433Y0044274D01*
X0152341Y0044283D01*
X0152249Y0044296D01*
X0152158Y0044312D01*
X0152068Y0044333D01*
X0151979Y0044357D01*
X0151891Y0044386D01*
X0151804Y0044418D01*
X0151719Y0044453D01*
X0151635Y0044493D01*
X0151553Y0044535D01*
X0151473Y0044582D01*
X0151395Y0044631D01*
X0151319Y0044684D01*
X0151245Y0044740D01*
X0151174Y0044800D01*
X0151106Y0044862D01*
X0151040Y0044927D01*
X0150977Y0044995D01*
X0150917Y0045065D01*
X0150860Y0045138D01*
X0150806Y0045213D01*
X0150756Y0045291D01*
X0150709Y0045371D01*
X0150665Y0045452D01*
X0150625Y0045536D01*
X0150588Y0045621D01*
X0150555Y0045707D01*
X0150526Y0045795D01*
X0150501Y0045884D01*
X0150479Y0045974D01*
X0150462Y0046065D01*
X0150448Y0046156D01*
X0150438Y0046248D01*
X0150432Y0046340D01*
X0150430Y0046433D01*
X0160430Y0046433D02*
X0160432Y0046526D01*
X0160438Y0046618D01*
X0160448Y0046710D01*
X0160462Y0046801D01*
X0160479Y0046892D01*
X0160501Y0046982D01*
X0160526Y0047071D01*
X0160555Y0047159D01*
X0160588Y0047245D01*
X0160625Y0047330D01*
X0160665Y0047414D01*
X0160709Y0047495D01*
X0160756Y0047575D01*
X0160806Y0047653D01*
X0160860Y0047728D01*
X0160917Y0047801D01*
X0160977Y0047871D01*
X0161040Y0047939D01*
X0161106Y0048004D01*
X0161174Y0048066D01*
X0161245Y0048126D01*
X0161319Y0048182D01*
X0161395Y0048235D01*
X0161473Y0048284D01*
X0161553Y0048331D01*
X0161635Y0048373D01*
X0161719Y0048413D01*
X0161804Y0048448D01*
X0161891Y0048480D01*
X0161979Y0048509D01*
X0162068Y0048533D01*
X0162158Y0048554D01*
X0162249Y0048570D01*
X0162341Y0048583D01*
X0162433Y0048592D01*
X0162526Y0048597D01*
X0162618Y0048598D01*
X0162711Y0048595D01*
X0162803Y0048588D01*
X0162895Y0048577D01*
X0162986Y0048562D01*
X0163077Y0048544D01*
X0163167Y0048521D01*
X0163255Y0048495D01*
X0163343Y0048465D01*
X0163429Y0048431D01*
X0163513Y0048394D01*
X0163596Y0048352D01*
X0163677Y0048308D01*
X0163757Y0048260D01*
X0163834Y0048209D01*
X0163908Y0048154D01*
X0163981Y0048096D01*
X0164051Y0048036D01*
X0164118Y0047972D01*
X0164182Y0047906D01*
X0164244Y0047836D01*
X0164302Y0047765D01*
X0164357Y0047691D01*
X0164409Y0047614D01*
X0164458Y0047535D01*
X0164504Y0047455D01*
X0164546Y0047372D01*
X0164584Y0047288D01*
X0164619Y0047202D01*
X0164650Y0047115D01*
X0164677Y0047027D01*
X0164700Y0046937D01*
X0164720Y0046847D01*
X0164736Y0046756D01*
X0164748Y0046664D01*
X0164756Y0046572D01*
X0164760Y0046479D01*
X0164760Y0046387D01*
X0164756Y0046294D01*
X0164748Y0046202D01*
X0164736Y0046110D01*
X0164720Y0046019D01*
X0164700Y0045929D01*
X0164677Y0045839D01*
X0164650Y0045751D01*
X0164619Y0045664D01*
X0164584Y0045578D01*
X0164546Y0045494D01*
X0164504Y0045411D01*
X0164458Y0045331D01*
X0164409Y0045252D01*
X0164357Y0045175D01*
X0164302Y0045101D01*
X0164244Y0045030D01*
X0164182Y0044960D01*
X0164118Y0044894D01*
X0164051Y0044830D01*
X0163981Y0044770D01*
X0163908Y0044712D01*
X0163834Y0044657D01*
X0163757Y0044606D01*
X0163678Y0044558D01*
X0163596Y0044514D01*
X0163513Y0044472D01*
X0163429Y0044435D01*
X0163343Y0044401D01*
X0163255Y0044371D01*
X0163167Y0044345D01*
X0163077Y0044322D01*
X0162986Y0044304D01*
X0162895Y0044289D01*
X0162803Y0044278D01*
X0162711Y0044271D01*
X0162618Y0044268D01*
X0162526Y0044269D01*
X0162433Y0044274D01*
X0162341Y0044283D01*
X0162249Y0044296D01*
X0162158Y0044312D01*
X0162068Y0044333D01*
X0161979Y0044357D01*
X0161891Y0044386D01*
X0161804Y0044418D01*
X0161719Y0044453D01*
X0161635Y0044493D01*
X0161553Y0044535D01*
X0161473Y0044582D01*
X0161395Y0044631D01*
X0161319Y0044684D01*
X0161245Y0044740D01*
X0161174Y0044800D01*
X0161106Y0044862D01*
X0161040Y0044927D01*
X0160977Y0044995D01*
X0160917Y0045065D01*
X0160860Y0045138D01*
X0160806Y0045213D01*
X0160756Y0045291D01*
X0160709Y0045371D01*
X0160665Y0045452D01*
X0160625Y0045536D01*
X0160588Y0045621D01*
X0160555Y0045707D01*
X0160526Y0045795D01*
X0160501Y0045884D01*
X0160479Y0045974D01*
X0160462Y0046065D01*
X0160448Y0046156D01*
X0160438Y0046248D01*
X0160432Y0046340D01*
X0160430Y0046433D01*
X0170430Y0046433D02*
X0170432Y0046526D01*
X0170438Y0046618D01*
X0170448Y0046710D01*
X0170462Y0046801D01*
X0170479Y0046892D01*
X0170501Y0046982D01*
X0170526Y0047071D01*
X0170555Y0047159D01*
X0170588Y0047245D01*
X0170625Y0047330D01*
X0170665Y0047414D01*
X0170709Y0047495D01*
X0170756Y0047575D01*
X0170806Y0047653D01*
X0170860Y0047728D01*
X0170917Y0047801D01*
X0170977Y0047871D01*
X0171040Y0047939D01*
X0171106Y0048004D01*
X0171174Y0048066D01*
X0171245Y0048126D01*
X0171319Y0048182D01*
X0171395Y0048235D01*
X0171473Y0048284D01*
X0171553Y0048331D01*
X0171635Y0048373D01*
X0171719Y0048413D01*
X0171804Y0048448D01*
X0171891Y0048480D01*
X0171979Y0048509D01*
X0172068Y0048533D01*
X0172158Y0048554D01*
X0172249Y0048570D01*
X0172341Y0048583D01*
X0172433Y0048592D01*
X0172526Y0048597D01*
X0172618Y0048598D01*
X0172711Y0048595D01*
X0172803Y0048588D01*
X0172895Y0048577D01*
X0172986Y0048562D01*
X0173077Y0048544D01*
X0173167Y0048521D01*
X0173255Y0048495D01*
X0173343Y0048465D01*
X0173429Y0048431D01*
X0173513Y0048394D01*
X0173596Y0048352D01*
X0173677Y0048308D01*
X0173757Y0048260D01*
X0173834Y0048209D01*
X0173908Y0048154D01*
X0173981Y0048096D01*
X0174051Y0048036D01*
X0174118Y0047972D01*
X0174182Y0047906D01*
X0174244Y0047836D01*
X0174302Y0047765D01*
X0174357Y0047691D01*
X0174409Y0047614D01*
X0174458Y0047535D01*
X0174504Y0047455D01*
X0174546Y0047372D01*
X0174584Y0047288D01*
X0174619Y0047202D01*
X0174650Y0047115D01*
X0174677Y0047027D01*
X0174700Y0046937D01*
X0174720Y0046847D01*
X0174736Y0046756D01*
X0174748Y0046664D01*
X0174756Y0046572D01*
X0174760Y0046479D01*
X0174760Y0046387D01*
X0174756Y0046294D01*
X0174748Y0046202D01*
X0174736Y0046110D01*
X0174720Y0046019D01*
X0174700Y0045929D01*
X0174677Y0045839D01*
X0174650Y0045751D01*
X0174619Y0045664D01*
X0174584Y0045578D01*
X0174546Y0045494D01*
X0174504Y0045411D01*
X0174458Y0045331D01*
X0174409Y0045252D01*
X0174357Y0045175D01*
X0174302Y0045101D01*
X0174244Y0045030D01*
X0174182Y0044960D01*
X0174118Y0044894D01*
X0174051Y0044830D01*
X0173981Y0044770D01*
X0173908Y0044712D01*
X0173834Y0044657D01*
X0173757Y0044606D01*
X0173678Y0044558D01*
X0173596Y0044514D01*
X0173513Y0044472D01*
X0173429Y0044435D01*
X0173343Y0044401D01*
X0173255Y0044371D01*
X0173167Y0044345D01*
X0173077Y0044322D01*
X0172986Y0044304D01*
X0172895Y0044289D01*
X0172803Y0044278D01*
X0172711Y0044271D01*
X0172618Y0044268D01*
X0172526Y0044269D01*
X0172433Y0044274D01*
X0172341Y0044283D01*
X0172249Y0044296D01*
X0172158Y0044312D01*
X0172068Y0044333D01*
X0171979Y0044357D01*
X0171891Y0044386D01*
X0171804Y0044418D01*
X0171719Y0044453D01*
X0171635Y0044493D01*
X0171553Y0044535D01*
X0171473Y0044582D01*
X0171395Y0044631D01*
X0171319Y0044684D01*
X0171245Y0044740D01*
X0171174Y0044800D01*
X0171106Y0044862D01*
X0171040Y0044927D01*
X0170977Y0044995D01*
X0170917Y0045065D01*
X0170860Y0045138D01*
X0170806Y0045213D01*
X0170756Y0045291D01*
X0170709Y0045371D01*
X0170665Y0045452D01*
X0170625Y0045536D01*
X0170588Y0045621D01*
X0170555Y0045707D01*
X0170526Y0045795D01*
X0170501Y0045884D01*
X0170479Y0045974D01*
X0170462Y0046065D01*
X0170448Y0046156D01*
X0170438Y0046248D01*
X0170432Y0046340D01*
X0170430Y0046433D01*
X0185430Y0046433D02*
X0185432Y0046526D01*
X0185438Y0046618D01*
X0185448Y0046710D01*
X0185462Y0046801D01*
X0185479Y0046892D01*
X0185501Y0046982D01*
X0185526Y0047071D01*
X0185555Y0047159D01*
X0185588Y0047245D01*
X0185625Y0047330D01*
X0185665Y0047414D01*
X0185709Y0047495D01*
X0185756Y0047575D01*
X0185806Y0047653D01*
X0185860Y0047728D01*
X0185917Y0047801D01*
X0185977Y0047871D01*
X0186040Y0047939D01*
X0186106Y0048004D01*
X0186174Y0048066D01*
X0186245Y0048126D01*
X0186319Y0048182D01*
X0186395Y0048235D01*
X0186473Y0048284D01*
X0186553Y0048331D01*
X0186635Y0048373D01*
X0186719Y0048413D01*
X0186804Y0048448D01*
X0186891Y0048480D01*
X0186979Y0048509D01*
X0187068Y0048533D01*
X0187158Y0048554D01*
X0187249Y0048570D01*
X0187341Y0048583D01*
X0187433Y0048592D01*
X0187526Y0048597D01*
X0187618Y0048598D01*
X0187711Y0048595D01*
X0187803Y0048588D01*
X0187895Y0048577D01*
X0187986Y0048562D01*
X0188077Y0048544D01*
X0188167Y0048521D01*
X0188255Y0048495D01*
X0188343Y0048465D01*
X0188429Y0048431D01*
X0188513Y0048394D01*
X0188596Y0048352D01*
X0188677Y0048308D01*
X0188757Y0048260D01*
X0188834Y0048209D01*
X0188908Y0048154D01*
X0188981Y0048096D01*
X0189051Y0048036D01*
X0189118Y0047972D01*
X0189182Y0047906D01*
X0189244Y0047836D01*
X0189302Y0047765D01*
X0189357Y0047691D01*
X0189409Y0047614D01*
X0189458Y0047535D01*
X0189504Y0047455D01*
X0189546Y0047372D01*
X0189584Y0047288D01*
X0189619Y0047202D01*
X0189650Y0047115D01*
X0189677Y0047027D01*
X0189700Y0046937D01*
X0189720Y0046847D01*
X0189736Y0046756D01*
X0189748Y0046664D01*
X0189756Y0046572D01*
X0189760Y0046479D01*
X0189760Y0046387D01*
X0189756Y0046294D01*
X0189748Y0046202D01*
X0189736Y0046110D01*
X0189720Y0046019D01*
X0189700Y0045929D01*
X0189677Y0045839D01*
X0189650Y0045751D01*
X0189619Y0045664D01*
X0189584Y0045578D01*
X0189546Y0045494D01*
X0189504Y0045411D01*
X0189458Y0045331D01*
X0189409Y0045252D01*
X0189357Y0045175D01*
X0189302Y0045101D01*
X0189244Y0045030D01*
X0189182Y0044960D01*
X0189118Y0044894D01*
X0189051Y0044830D01*
X0188981Y0044770D01*
X0188908Y0044712D01*
X0188834Y0044657D01*
X0188757Y0044606D01*
X0188678Y0044558D01*
X0188596Y0044514D01*
X0188513Y0044472D01*
X0188429Y0044435D01*
X0188343Y0044401D01*
X0188255Y0044371D01*
X0188167Y0044345D01*
X0188077Y0044322D01*
X0187986Y0044304D01*
X0187895Y0044289D01*
X0187803Y0044278D01*
X0187711Y0044271D01*
X0187618Y0044268D01*
X0187526Y0044269D01*
X0187433Y0044274D01*
X0187341Y0044283D01*
X0187249Y0044296D01*
X0187158Y0044312D01*
X0187068Y0044333D01*
X0186979Y0044357D01*
X0186891Y0044386D01*
X0186804Y0044418D01*
X0186719Y0044453D01*
X0186635Y0044493D01*
X0186553Y0044535D01*
X0186473Y0044582D01*
X0186395Y0044631D01*
X0186319Y0044684D01*
X0186245Y0044740D01*
X0186174Y0044800D01*
X0186106Y0044862D01*
X0186040Y0044927D01*
X0185977Y0044995D01*
X0185917Y0045065D01*
X0185860Y0045138D01*
X0185806Y0045213D01*
X0185756Y0045291D01*
X0185709Y0045371D01*
X0185665Y0045452D01*
X0185625Y0045536D01*
X0185588Y0045621D01*
X0185555Y0045707D01*
X0185526Y0045795D01*
X0185501Y0045884D01*
X0185479Y0045974D01*
X0185462Y0046065D01*
X0185448Y0046156D01*
X0185438Y0046248D01*
X0185432Y0046340D01*
X0185430Y0046433D01*
X0195430Y0046433D02*
X0195432Y0046526D01*
X0195438Y0046618D01*
X0195448Y0046710D01*
X0195462Y0046801D01*
X0195479Y0046892D01*
X0195501Y0046982D01*
X0195526Y0047071D01*
X0195555Y0047159D01*
X0195588Y0047245D01*
X0195625Y0047330D01*
X0195665Y0047414D01*
X0195709Y0047495D01*
X0195756Y0047575D01*
X0195806Y0047653D01*
X0195860Y0047728D01*
X0195917Y0047801D01*
X0195977Y0047871D01*
X0196040Y0047939D01*
X0196106Y0048004D01*
X0196174Y0048066D01*
X0196245Y0048126D01*
X0196319Y0048182D01*
X0196395Y0048235D01*
X0196473Y0048284D01*
X0196553Y0048331D01*
X0196635Y0048373D01*
X0196719Y0048413D01*
X0196804Y0048448D01*
X0196891Y0048480D01*
X0196979Y0048509D01*
X0197068Y0048533D01*
X0197158Y0048554D01*
X0197249Y0048570D01*
X0197341Y0048583D01*
X0197433Y0048592D01*
X0197526Y0048597D01*
X0197618Y0048598D01*
X0197711Y0048595D01*
X0197803Y0048588D01*
X0197895Y0048577D01*
X0197986Y0048562D01*
X0198077Y0048544D01*
X0198167Y0048521D01*
X0198255Y0048495D01*
X0198343Y0048465D01*
X0198429Y0048431D01*
X0198513Y0048394D01*
X0198596Y0048352D01*
X0198677Y0048308D01*
X0198757Y0048260D01*
X0198834Y0048209D01*
X0198908Y0048154D01*
X0198981Y0048096D01*
X0199051Y0048036D01*
X0199118Y0047972D01*
X0199182Y0047906D01*
X0199244Y0047836D01*
X0199302Y0047765D01*
X0199357Y0047691D01*
X0199409Y0047614D01*
X0199458Y0047535D01*
X0199504Y0047455D01*
X0199546Y0047372D01*
X0199584Y0047288D01*
X0199619Y0047202D01*
X0199650Y0047115D01*
X0199677Y0047027D01*
X0199700Y0046937D01*
X0199720Y0046847D01*
X0199736Y0046756D01*
X0199748Y0046664D01*
X0199756Y0046572D01*
X0199760Y0046479D01*
X0199760Y0046387D01*
X0199756Y0046294D01*
X0199748Y0046202D01*
X0199736Y0046110D01*
X0199720Y0046019D01*
X0199700Y0045929D01*
X0199677Y0045839D01*
X0199650Y0045751D01*
X0199619Y0045664D01*
X0199584Y0045578D01*
X0199546Y0045494D01*
X0199504Y0045411D01*
X0199458Y0045331D01*
X0199409Y0045252D01*
X0199357Y0045175D01*
X0199302Y0045101D01*
X0199244Y0045030D01*
X0199182Y0044960D01*
X0199118Y0044894D01*
X0199051Y0044830D01*
X0198981Y0044770D01*
X0198908Y0044712D01*
X0198834Y0044657D01*
X0198757Y0044606D01*
X0198678Y0044558D01*
X0198596Y0044514D01*
X0198513Y0044472D01*
X0198429Y0044435D01*
X0198343Y0044401D01*
X0198255Y0044371D01*
X0198167Y0044345D01*
X0198077Y0044322D01*
X0197986Y0044304D01*
X0197895Y0044289D01*
X0197803Y0044278D01*
X0197711Y0044271D01*
X0197618Y0044268D01*
X0197526Y0044269D01*
X0197433Y0044274D01*
X0197341Y0044283D01*
X0197249Y0044296D01*
X0197158Y0044312D01*
X0197068Y0044333D01*
X0196979Y0044357D01*
X0196891Y0044386D01*
X0196804Y0044418D01*
X0196719Y0044453D01*
X0196635Y0044493D01*
X0196553Y0044535D01*
X0196473Y0044582D01*
X0196395Y0044631D01*
X0196319Y0044684D01*
X0196245Y0044740D01*
X0196174Y0044800D01*
X0196106Y0044862D01*
X0196040Y0044927D01*
X0195977Y0044995D01*
X0195917Y0045065D01*
X0195860Y0045138D01*
X0195806Y0045213D01*
X0195756Y0045291D01*
X0195709Y0045371D01*
X0195665Y0045452D01*
X0195625Y0045536D01*
X0195588Y0045621D01*
X0195555Y0045707D01*
X0195526Y0045795D01*
X0195501Y0045884D01*
X0195479Y0045974D01*
X0195462Y0046065D01*
X0195448Y0046156D01*
X0195438Y0046248D01*
X0195432Y0046340D01*
X0195430Y0046433D01*
X0205430Y0046433D02*
X0205432Y0046526D01*
X0205438Y0046618D01*
X0205448Y0046710D01*
X0205462Y0046801D01*
X0205479Y0046892D01*
X0205501Y0046982D01*
X0205526Y0047071D01*
X0205555Y0047159D01*
X0205588Y0047245D01*
X0205625Y0047330D01*
X0205665Y0047414D01*
X0205709Y0047495D01*
X0205756Y0047575D01*
X0205806Y0047653D01*
X0205860Y0047728D01*
X0205917Y0047801D01*
X0205977Y0047871D01*
X0206040Y0047939D01*
X0206106Y0048004D01*
X0206174Y0048066D01*
X0206245Y0048126D01*
X0206319Y0048182D01*
X0206395Y0048235D01*
X0206473Y0048284D01*
X0206553Y0048331D01*
X0206635Y0048373D01*
X0206719Y0048413D01*
X0206804Y0048448D01*
X0206891Y0048480D01*
X0206979Y0048509D01*
X0207068Y0048533D01*
X0207158Y0048554D01*
X0207249Y0048570D01*
X0207341Y0048583D01*
X0207433Y0048592D01*
X0207526Y0048597D01*
X0207618Y0048598D01*
X0207711Y0048595D01*
X0207803Y0048588D01*
X0207895Y0048577D01*
X0207986Y0048562D01*
X0208077Y0048544D01*
X0208167Y0048521D01*
X0208255Y0048495D01*
X0208343Y0048465D01*
X0208429Y0048431D01*
X0208513Y0048394D01*
X0208596Y0048352D01*
X0208677Y0048308D01*
X0208757Y0048260D01*
X0208834Y0048209D01*
X0208908Y0048154D01*
X0208981Y0048096D01*
X0209051Y0048036D01*
X0209118Y0047972D01*
X0209182Y0047906D01*
X0209244Y0047836D01*
X0209302Y0047765D01*
X0209357Y0047691D01*
X0209409Y0047614D01*
X0209458Y0047535D01*
X0209504Y0047455D01*
X0209546Y0047372D01*
X0209584Y0047288D01*
X0209619Y0047202D01*
X0209650Y0047115D01*
X0209677Y0047027D01*
X0209700Y0046937D01*
X0209720Y0046847D01*
X0209736Y0046756D01*
X0209748Y0046664D01*
X0209756Y0046572D01*
X0209760Y0046479D01*
X0209760Y0046387D01*
X0209756Y0046294D01*
X0209748Y0046202D01*
X0209736Y0046110D01*
X0209720Y0046019D01*
X0209700Y0045929D01*
X0209677Y0045839D01*
X0209650Y0045751D01*
X0209619Y0045664D01*
X0209584Y0045578D01*
X0209546Y0045494D01*
X0209504Y0045411D01*
X0209458Y0045331D01*
X0209409Y0045252D01*
X0209357Y0045175D01*
X0209302Y0045101D01*
X0209244Y0045030D01*
X0209182Y0044960D01*
X0209118Y0044894D01*
X0209051Y0044830D01*
X0208981Y0044770D01*
X0208908Y0044712D01*
X0208834Y0044657D01*
X0208757Y0044606D01*
X0208678Y0044558D01*
X0208596Y0044514D01*
X0208513Y0044472D01*
X0208429Y0044435D01*
X0208343Y0044401D01*
X0208255Y0044371D01*
X0208167Y0044345D01*
X0208077Y0044322D01*
X0207986Y0044304D01*
X0207895Y0044289D01*
X0207803Y0044278D01*
X0207711Y0044271D01*
X0207618Y0044268D01*
X0207526Y0044269D01*
X0207433Y0044274D01*
X0207341Y0044283D01*
X0207249Y0044296D01*
X0207158Y0044312D01*
X0207068Y0044333D01*
X0206979Y0044357D01*
X0206891Y0044386D01*
X0206804Y0044418D01*
X0206719Y0044453D01*
X0206635Y0044493D01*
X0206553Y0044535D01*
X0206473Y0044582D01*
X0206395Y0044631D01*
X0206319Y0044684D01*
X0206245Y0044740D01*
X0206174Y0044800D01*
X0206106Y0044862D01*
X0206040Y0044927D01*
X0205977Y0044995D01*
X0205917Y0045065D01*
X0205860Y0045138D01*
X0205806Y0045213D01*
X0205756Y0045291D01*
X0205709Y0045371D01*
X0205665Y0045452D01*
X0205625Y0045536D01*
X0205588Y0045621D01*
X0205555Y0045707D01*
X0205526Y0045795D01*
X0205501Y0045884D01*
X0205479Y0045974D01*
X0205462Y0046065D01*
X0205448Y0046156D01*
X0205438Y0046248D01*
X0205432Y0046340D01*
X0205430Y0046433D01*
X0185430Y0216433D02*
X0185432Y0216526D01*
X0185438Y0216618D01*
X0185448Y0216710D01*
X0185462Y0216801D01*
X0185479Y0216892D01*
X0185501Y0216982D01*
X0185526Y0217071D01*
X0185555Y0217159D01*
X0185588Y0217245D01*
X0185625Y0217330D01*
X0185665Y0217414D01*
X0185709Y0217495D01*
X0185756Y0217575D01*
X0185806Y0217653D01*
X0185860Y0217728D01*
X0185917Y0217801D01*
X0185977Y0217871D01*
X0186040Y0217939D01*
X0186106Y0218004D01*
X0186174Y0218066D01*
X0186245Y0218126D01*
X0186319Y0218182D01*
X0186395Y0218235D01*
X0186473Y0218284D01*
X0186553Y0218331D01*
X0186635Y0218373D01*
X0186719Y0218413D01*
X0186804Y0218448D01*
X0186891Y0218480D01*
X0186979Y0218509D01*
X0187068Y0218533D01*
X0187158Y0218554D01*
X0187249Y0218570D01*
X0187341Y0218583D01*
X0187433Y0218592D01*
X0187526Y0218597D01*
X0187618Y0218598D01*
X0187711Y0218595D01*
X0187803Y0218588D01*
X0187895Y0218577D01*
X0187986Y0218562D01*
X0188077Y0218544D01*
X0188167Y0218521D01*
X0188255Y0218495D01*
X0188343Y0218465D01*
X0188429Y0218431D01*
X0188513Y0218394D01*
X0188596Y0218352D01*
X0188677Y0218308D01*
X0188757Y0218260D01*
X0188834Y0218209D01*
X0188908Y0218154D01*
X0188981Y0218096D01*
X0189051Y0218036D01*
X0189118Y0217972D01*
X0189182Y0217906D01*
X0189244Y0217836D01*
X0189302Y0217765D01*
X0189357Y0217691D01*
X0189409Y0217614D01*
X0189458Y0217535D01*
X0189504Y0217455D01*
X0189546Y0217372D01*
X0189584Y0217288D01*
X0189619Y0217202D01*
X0189650Y0217115D01*
X0189677Y0217027D01*
X0189700Y0216937D01*
X0189720Y0216847D01*
X0189736Y0216756D01*
X0189748Y0216664D01*
X0189756Y0216572D01*
X0189760Y0216479D01*
X0189760Y0216387D01*
X0189756Y0216294D01*
X0189748Y0216202D01*
X0189736Y0216110D01*
X0189720Y0216019D01*
X0189700Y0215929D01*
X0189677Y0215839D01*
X0189650Y0215751D01*
X0189619Y0215664D01*
X0189584Y0215578D01*
X0189546Y0215494D01*
X0189504Y0215411D01*
X0189458Y0215331D01*
X0189409Y0215252D01*
X0189357Y0215175D01*
X0189302Y0215101D01*
X0189244Y0215030D01*
X0189182Y0214960D01*
X0189118Y0214894D01*
X0189051Y0214830D01*
X0188981Y0214770D01*
X0188908Y0214712D01*
X0188834Y0214657D01*
X0188757Y0214606D01*
X0188678Y0214558D01*
X0188596Y0214514D01*
X0188513Y0214472D01*
X0188429Y0214435D01*
X0188343Y0214401D01*
X0188255Y0214371D01*
X0188167Y0214345D01*
X0188077Y0214322D01*
X0187986Y0214304D01*
X0187895Y0214289D01*
X0187803Y0214278D01*
X0187711Y0214271D01*
X0187618Y0214268D01*
X0187526Y0214269D01*
X0187433Y0214274D01*
X0187341Y0214283D01*
X0187249Y0214296D01*
X0187158Y0214312D01*
X0187068Y0214333D01*
X0186979Y0214357D01*
X0186891Y0214386D01*
X0186804Y0214418D01*
X0186719Y0214453D01*
X0186635Y0214493D01*
X0186553Y0214535D01*
X0186473Y0214582D01*
X0186395Y0214631D01*
X0186319Y0214684D01*
X0186245Y0214740D01*
X0186174Y0214800D01*
X0186106Y0214862D01*
X0186040Y0214927D01*
X0185977Y0214995D01*
X0185917Y0215065D01*
X0185860Y0215138D01*
X0185806Y0215213D01*
X0185756Y0215291D01*
X0185709Y0215371D01*
X0185665Y0215452D01*
X0185625Y0215536D01*
X0185588Y0215621D01*
X0185555Y0215707D01*
X0185526Y0215795D01*
X0185501Y0215884D01*
X0185479Y0215974D01*
X0185462Y0216065D01*
X0185448Y0216156D01*
X0185438Y0216248D01*
X0185432Y0216340D01*
X0185430Y0216433D01*
X0175430Y0216433D02*
X0175432Y0216526D01*
X0175438Y0216618D01*
X0175448Y0216710D01*
X0175462Y0216801D01*
X0175479Y0216892D01*
X0175501Y0216982D01*
X0175526Y0217071D01*
X0175555Y0217159D01*
X0175588Y0217245D01*
X0175625Y0217330D01*
X0175665Y0217414D01*
X0175709Y0217495D01*
X0175756Y0217575D01*
X0175806Y0217653D01*
X0175860Y0217728D01*
X0175917Y0217801D01*
X0175977Y0217871D01*
X0176040Y0217939D01*
X0176106Y0218004D01*
X0176174Y0218066D01*
X0176245Y0218126D01*
X0176319Y0218182D01*
X0176395Y0218235D01*
X0176473Y0218284D01*
X0176553Y0218331D01*
X0176635Y0218373D01*
X0176719Y0218413D01*
X0176804Y0218448D01*
X0176891Y0218480D01*
X0176979Y0218509D01*
X0177068Y0218533D01*
X0177158Y0218554D01*
X0177249Y0218570D01*
X0177341Y0218583D01*
X0177433Y0218592D01*
X0177526Y0218597D01*
X0177618Y0218598D01*
X0177711Y0218595D01*
X0177803Y0218588D01*
X0177895Y0218577D01*
X0177986Y0218562D01*
X0178077Y0218544D01*
X0178167Y0218521D01*
X0178255Y0218495D01*
X0178343Y0218465D01*
X0178429Y0218431D01*
X0178513Y0218394D01*
X0178596Y0218352D01*
X0178677Y0218308D01*
X0178757Y0218260D01*
X0178834Y0218209D01*
X0178908Y0218154D01*
X0178981Y0218096D01*
X0179051Y0218036D01*
X0179118Y0217972D01*
X0179182Y0217906D01*
X0179244Y0217836D01*
X0179302Y0217765D01*
X0179357Y0217691D01*
X0179409Y0217614D01*
X0179458Y0217535D01*
X0179504Y0217455D01*
X0179546Y0217372D01*
X0179584Y0217288D01*
X0179619Y0217202D01*
X0179650Y0217115D01*
X0179677Y0217027D01*
X0179700Y0216937D01*
X0179720Y0216847D01*
X0179736Y0216756D01*
X0179748Y0216664D01*
X0179756Y0216572D01*
X0179760Y0216479D01*
X0179760Y0216387D01*
X0179756Y0216294D01*
X0179748Y0216202D01*
X0179736Y0216110D01*
X0179720Y0216019D01*
X0179700Y0215929D01*
X0179677Y0215839D01*
X0179650Y0215751D01*
X0179619Y0215664D01*
X0179584Y0215578D01*
X0179546Y0215494D01*
X0179504Y0215411D01*
X0179458Y0215331D01*
X0179409Y0215252D01*
X0179357Y0215175D01*
X0179302Y0215101D01*
X0179244Y0215030D01*
X0179182Y0214960D01*
X0179118Y0214894D01*
X0179051Y0214830D01*
X0178981Y0214770D01*
X0178908Y0214712D01*
X0178834Y0214657D01*
X0178757Y0214606D01*
X0178678Y0214558D01*
X0178596Y0214514D01*
X0178513Y0214472D01*
X0178429Y0214435D01*
X0178343Y0214401D01*
X0178255Y0214371D01*
X0178167Y0214345D01*
X0178077Y0214322D01*
X0177986Y0214304D01*
X0177895Y0214289D01*
X0177803Y0214278D01*
X0177711Y0214271D01*
X0177618Y0214268D01*
X0177526Y0214269D01*
X0177433Y0214274D01*
X0177341Y0214283D01*
X0177249Y0214296D01*
X0177158Y0214312D01*
X0177068Y0214333D01*
X0176979Y0214357D01*
X0176891Y0214386D01*
X0176804Y0214418D01*
X0176719Y0214453D01*
X0176635Y0214493D01*
X0176553Y0214535D01*
X0176473Y0214582D01*
X0176395Y0214631D01*
X0176319Y0214684D01*
X0176245Y0214740D01*
X0176174Y0214800D01*
X0176106Y0214862D01*
X0176040Y0214927D01*
X0175977Y0214995D01*
X0175917Y0215065D01*
X0175860Y0215138D01*
X0175806Y0215213D01*
X0175756Y0215291D01*
X0175709Y0215371D01*
X0175665Y0215452D01*
X0175625Y0215536D01*
X0175588Y0215621D01*
X0175555Y0215707D01*
X0175526Y0215795D01*
X0175501Y0215884D01*
X0175479Y0215974D01*
X0175462Y0216065D01*
X0175448Y0216156D01*
X0175438Y0216248D01*
X0175432Y0216340D01*
X0175430Y0216433D01*
X0165430Y0216433D02*
X0165432Y0216526D01*
X0165438Y0216618D01*
X0165448Y0216710D01*
X0165462Y0216801D01*
X0165479Y0216892D01*
X0165501Y0216982D01*
X0165526Y0217071D01*
X0165555Y0217159D01*
X0165588Y0217245D01*
X0165625Y0217330D01*
X0165665Y0217414D01*
X0165709Y0217495D01*
X0165756Y0217575D01*
X0165806Y0217653D01*
X0165860Y0217728D01*
X0165917Y0217801D01*
X0165977Y0217871D01*
X0166040Y0217939D01*
X0166106Y0218004D01*
X0166174Y0218066D01*
X0166245Y0218126D01*
X0166319Y0218182D01*
X0166395Y0218235D01*
X0166473Y0218284D01*
X0166553Y0218331D01*
X0166635Y0218373D01*
X0166719Y0218413D01*
X0166804Y0218448D01*
X0166891Y0218480D01*
X0166979Y0218509D01*
X0167068Y0218533D01*
X0167158Y0218554D01*
X0167249Y0218570D01*
X0167341Y0218583D01*
X0167433Y0218592D01*
X0167526Y0218597D01*
X0167618Y0218598D01*
X0167711Y0218595D01*
X0167803Y0218588D01*
X0167895Y0218577D01*
X0167986Y0218562D01*
X0168077Y0218544D01*
X0168167Y0218521D01*
X0168255Y0218495D01*
X0168343Y0218465D01*
X0168429Y0218431D01*
X0168513Y0218394D01*
X0168596Y0218352D01*
X0168677Y0218308D01*
X0168757Y0218260D01*
X0168834Y0218209D01*
X0168908Y0218154D01*
X0168981Y0218096D01*
X0169051Y0218036D01*
X0169118Y0217972D01*
X0169182Y0217906D01*
X0169244Y0217836D01*
X0169302Y0217765D01*
X0169357Y0217691D01*
X0169409Y0217614D01*
X0169458Y0217535D01*
X0169504Y0217455D01*
X0169546Y0217372D01*
X0169584Y0217288D01*
X0169619Y0217202D01*
X0169650Y0217115D01*
X0169677Y0217027D01*
X0169700Y0216937D01*
X0169720Y0216847D01*
X0169736Y0216756D01*
X0169748Y0216664D01*
X0169756Y0216572D01*
X0169760Y0216479D01*
X0169760Y0216387D01*
X0169756Y0216294D01*
X0169748Y0216202D01*
X0169736Y0216110D01*
X0169720Y0216019D01*
X0169700Y0215929D01*
X0169677Y0215839D01*
X0169650Y0215751D01*
X0169619Y0215664D01*
X0169584Y0215578D01*
X0169546Y0215494D01*
X0169504Y0215411D01*
X0169458Y0215331D01*
X0169409Y0215252D01*
X0169357Y0215175D01*
X0169302Y0215101D01*
X0169244Y0215030D01*
X0169182Y0214960D01*
X0169118Y0214894D01*
X0169051Y0214830D01*
X0168981Y0214770D01*
X0168908Y0214712D01*
X0168834Y0214657D01*
X0168757Y0214606D01*
X0168678Y0214558D01*
X0168596Y0214514D01*
X0168513Y0214472D01*
X0168429Y0214435D01*
X0168343Y0214401D01*
X0168255Y0214371D01*
X0168167Y0214345D01*
X0168077Y0214322D01*
X0167986Y0214304D01*
X0167895Y0214289D01*
X0167803Y0214278D01*
X0167711Y0214271D01*
X0167618Y0214268D01*
X0167526Y0214269D01*
X0167433Y0214274D01*
X0167341Y0214283D01*
X0167249Y0214296D01*
X0167158Y0214312D01*
X0167068Y0214333D01*
X0166979Y0214357D01*
X0166891Y0214386D01*
X0166804Y0214418D01*
X0166719Y0214453D01*
X0166635Y0214493D01*
X0166553Y0214535D01*
X0166473Y0214582D01*
X0166395Y0214631D01*
X0166319Y0214684D01*
X0166245Y0214740D01*
X0166174Y0214800D01*
X0166106Y0214862D01*
X0166040Y0214927D01*
X0165977Y0214995D01*
X0165917Y0215065D01*
X0165860Y0215138D01*
X0165806Y0215213D01*
X0165756Y0215291D01*
X0165709Y0215371D01*
X0165665Y0215452D01*
X0165625Y0215536D01*
X0165588Y0215621D01*
X0165555Y0215707D01*
X0165526Y0215795D01*
X0165501Y0215884D01*
X0165479Y0215974D01*
X0165462Y0216065D01*
X0165448Y0216156D01*
X0165438Y0216248D01*
X0165432Y0216340D01*
X0165430Y0216433D01*
X0150430Y0216433D02*
X0150432Y0216526D01*
X0150438Y0216618D01*
X0150448Y0216710D01*
X0150462Y0216801D01*
X0150479Y0216892D01*
X0150501Y0216982D01*
X0150526Y0217071D01*
X0150555Y0217159D01*
X0150588Y0217245D01*
X0150625Y0217330D01*
X0150665Y0217414D01*
X0150709Y0217495D01*
X0150756Y0217575D01*
X0150806Y0217653D01*
X0150860Y0217728D01*
X0150917Y0217801D01*
X0150977Y0217871D01*
X0151040Y0217939D01*
X0151106Y0218004D01*
X0151174Y0218066D01*
X0151245Y0218126D01*
X0151319Y0218182D01*
X0151395Y0218235D01*
X0151473Y0218284D01*
X0151553Y0218331D01*
X0151635Y0218373D01*
X0151719Y0218413D01*
X0151804Y0218448D01*
X0151891Y0218480D01*
X0151979Y0218509D01*
X0152068Y0218533D01*
X0152158Y0218554D01*
X0152249Y0218570D01*
X0152341Y0218583D01*
X0152433Y0218592D01*
X0152526Y0218597D01*
X0152618Y0218598D01*
X0152711Y0218595D01*
X0152803Y0218588D01*
X0152895Y0218577D01*
X0152986Y0218562D01*
X0153077Y0218544D01*
X0153167Y0218521D01*
X0153255Y0218495D01*
X0153343Y0218465D01*
X0153429Y0218431D01*
X0153513Y0218394D01*
X0153596Y0218352D01*
X0153677Y0218308D01*
X0153757Y0218260D01*
X0153834Y0218209D01*
X0153908Y0218154D01*
X0153981Y0218096D01*
X0154051Y0218036D01*
X0154118Y0217972D01*
X0154182Y0217906D01*
X0154244Y0217836D01*
X0154302Y0217765D01*
X0154357Y0217691D01*
X0154409Y0217614D01*
X0154458Y0217535D01*
X0154504Y0217455D01*
X0154546Y0217372D01*
X0154584Y0217288D01*
X0154619Y0217202D01*
X0154650Y0217115D01*
X0154677Y0217027D01*
X0154700Y0216937D01*
X0154720Y0216847D01*
X0154736Y0216756D01*
X0154748Y0216664D01*
X0154756Y0216572D01*
X0154760Y0216479D01*
X0154760Y0216387D01*
X0154756Y0216294D01*
X0154748Y0216202D01*
X0154736Y0216110D01*
X0154720Y0216019D01*
X0154700Y0215929D01*
X0154677Y0215839D01*
X0154650Y0215751D01*
X0154619Y0215664D01*
X0154584Y0215578D01*
X0154546Y0215494D01*
X0154504Y0215411D01*
X0154458Y0215331D01*
X0154409Y0215252D01*
X0154357Y0215175D01*
X0154302Y0215101D01*
X0154244Y0215030D01*
X0154182Y0214960D01*
X0154118Y0214894D01*
X0154051Y0214830D01*
X0153981Y0214770D01*
X0153908Y0214712D01*
X0153834Y0214657D01*
X0153757Y0214606D01*
X0153678Y0214558D01*
X0153596Y0214514D01*
X0153513Y0214472D01*
X0153429Y0214435D01*
X0153343Y0214401D01*
X0153255Y0214371D01*
X0153167Y0214345D01*
X0153077Y0214322D01*
X0152986Y0214304D01*
X0152895Y0214289D01*
X0152803Y0214278D01*
X0152711Y0214271D01*
X0152618Y0214268D01*
X0152526Y0214269D01*
X0152433Y0214274D01*
X0152341Y0214283D01*
X0152249Y0214296D01*
X0152158Y0214312D01*
X0152068Y0214333D01*
X0151979Y0214357D01*
X0151891Y0214386D01*
X0151804Y0214418D01*
X0151719Y0214453D01*
X0151635Y0214493D01*
X0151553Y0214535D01*
X0151473Y0214582D01*
X0151395Y0214631D01*
X0151319Y0214684D01*
X0151245Y0214740D01*
X0151174Y0214800D01*
X0151106Y0214862D01*
X0151040Y0214927D01*
X0150977Y0214995D01*
X0150917Y0215065D01*
X0150860Y0215138D01*
X0150806Y0215213D01*
X0150756Y0215291D01*
X0150709Y0215371D01*
X0150665Y0215452D01*
X0150625Y0215536D01*
X0150588Y0215621D01*
X0150555Y0215707D01*
X0150526Y0215795D01*
X0150501Y0215884D01*
X0150479Y0215974D01*
X0150462Y0216065D01*
X0150448Y0216156D01*
X0150438Y0216248D01*
X0150432Y0216340D01*
X0150430Y0216433D01*
X0140430Y0216433D02*
X0140432Y0216526D01*
X0140438Y0216618D01*
X0140448Y0216710D01*
X0140462Y0216801D01*
X0140479Y0216892D01*
X0140501Y0216982D01*
X0140526Y0217071D01*
X0140555Y0217159D01*
X0140588Y0217245D01*
X0140625Y0217330D01*
X0140665Y0217414D01*
X0140709Y0217495D01*
X0140756Y0217575D01*
X0140806Y0217653D01*
X0140860Y0217728D01*
X0140917Y0217801D01*
X0140977Y0217871D01*
X0141040Y0217939D01*
X0141106Y0218004D01*
X0141174Y0218066D01*
X0141245Y0218126D01*
X0141319Y0218182D01*
X0141395Y0218235D01*
X0141473Y0218284D01*
X0141553Y0218331D01*
X0141635Y0218373D01*
X0141719Y0218413D01*
X0141804Y0218448D01*
X0141891Y0218480D01*
X0141979Y0218509D01*
X0142068Y0218533D01*
X0142158Y0218554D01*
X0142249Y0218570D01*
X0142341Y0218583D01*
X0142433Y0218592D01*
X0142526Y0218597D01*
X0142618Y0218598D01*
X0142711Y0218595D01*
X0142803Y0218588D01*
X0142895Y0218577D01*
X0142986Y0218562D01*
X0143077Y0218544D01*
X0143167Y0218521D01*
X0143255Y0218495D01*
X0143343Y0218465D01*
X0143429Y0218431D01*
X0143513Y0218394D01*
X0143596Y0218352D01*
X0143677Y0218308D01*
X0143757Y0218260D01*
X0143834Y0218209D01*
X0143908Y0218154D01*
X0143981Y0218096D01*
X0144051Y0218036D01*
X0144118Y0217972D01*
X0144182Y0217906D01*
X0144244Y0217836D01*
X0144302Y0217765D01*
X0144357Y0217691D01*
X0144409Y0217614D01*
X0144458Y0217535D01*
X0144504Y0217455D01*
X0144546Y0217372D01*
X0144584Y0217288D01*
X0144619Y0217202D01*
X0144650Y0217115D01*
X0144677Y0217027D01*
X0144700Y0216937D01*
X0144720Y0216847D01*
X0144736Y0216756D01*
X0144748Y0216664D01*
X0144756Y0216572D01*
X0144760Y0216479D01*
X0144760Y0216387D01*
X0144756Y0216294D01*
X0144748Y0216202D01*
X0144736Y0216110D01*
X0144720Y0216019D01*
X0144700Y0215929D01*
X0144677Y0215839D01*
X0144650Y0215751D01*
X0144619Y0215664D01*
X0144584Y0215578D01*
X0144546Y0215494D01*
X0144504Y0215411D01*
X0144458Y0215331D01*
X0144409Y0215252D01*
X0144357Y0215175D01*
X0144302Y0215101D01*
X0144244Y0215030D01*
X0144182Y0214960D01*
X0144118Y0214894D01*
X0144051Y0214830D01*
X0143981Y0214770D01*
X0143908Y0214712D01*
X0143834Y0214657D01*
X0143757Y0214606D01*
X0143678Y0214558D01*
X0143596Y0214514D01*
X0143513Y0214472D01*
X0143429Y0214435D01*
X0143343Y0214401D01*
X0143255Y0214371D01*
X0143167Y0214345D01*
X0143077Y0214322D01*
X0142986Y0214304D01*
X0142895Y0214289D01*
X0142803Y0214278D01*
X0142711Y0214271D01*
X0142618Y0214268D01*
X0142526Y0214269D01*
X0142433Y0214274D01*
X0142341Y0214283D01*
X0142249Y0214296D01*
X0142158Y0214312D01*
X0142068Y0214333D01*
X0141979Y0214357D01*
X0141891Y0214386D01*
X0141804Y0214418D01*
X0141719Y0214453D01*
X0141635Y0214493D01*
X0141553Y0214535D01*
X0141473Y0214582D01*
X0141395Y0214631D01*
X0141319Y0214684D01*
X0141245Y0214740D01*
X0141174Y0214800D01*
X0141106Y0214862D01*
X0141040Y0214927D01*
X0140977Y0214995D01*
X0140917Y0215065D01*
X0140860Y0215138D01*
X0140806Y0215213D01*
X0140756Y0215291D01*
X0140709Y0215371D01*
X0140665Y0215452D01*
X0140625Y0215536D01*
X0140588Y0215621D01*
X0140555Y0215707D01*
X0140526Y0215795D01*
X0140501Y0215884D01*
X0140479Y0215974D01*
X0140462Y0216065D01*
X0140448Y0216156D01*
X0140438Y0216248D01*
X0140432Y0216340D01*
X0140430Y0216433D01*
X0130430Y0216433D02*
X0130432Y0216526D01*
X0130438Y0216618D01*
X0130448Y0216710D01*
X0130462Y0216801D01*
X0130479Y0216892D01*
X0130501Y0216982D01*
X0130526Y0217071D01*
X0130555Y0217159D01*
X0130588Y0217245D01*
X0130625Y0217330D01*
X0130665Y0217414D01*
X0130709Y0217495D01*
X0130756Y0217575D01*
X0130806Y0217653D01*
X0130860Y0217728D01*
X0130917Y0217801D01*
X0130977Y0217871D01*
X0131040Y0217939D01*
X0131106Y0218004D01*
X0131174Y0218066D01*
X0131245Y0218126D01*
X0131319Y0218182D01*
X0131395Y0218235D01*
X0131473Y0218284D01*
X0131553Y0218331D01*
X0131635Y0218373D01*
X0131719Y0218413D01*
X0131804Y0218448D01*
X0131891Y0218480D01*
X0131979Y0218509D01*
X0132068Y0218533D01*
X0132158Y0218554D01*
X0132249Y0218570D01*
X0132341Y0218583D01*
X0132433Y0218592D01*
X0132526Y0218597D01*
X0132618Y0218598D01*
X0132711Y0218595D01*
X0132803Y0218588D01*
X0132895Y0218577D01*
X0132986Y0218562D01*
X0133077Y0218544D01*
X0133167Y0218521D01*
X0133255Y0218495D01*
X0133343Y0218465D01*
X0133429Y0218431D01*
X0133513Y0218394D01*
X0133596Y0218352D01*
X0133677Y0218308D01*
X0133757Y0218260D01*
X0133834Y0218209D01*
X0133908Y0218154D01*
X0133981Y0218096D01*
X0134051Y0218036D01*
X0134118Y0217972D01*
X0134182Y0217906D01*
X0134244Y0217836D01*
X0134302Y0217765D01*
X0134357Y0217691D01*
X0134409Y0217614D01*
X0134458Y0217535D01*
X0134504Y0217455D01*
X0134546Y0217372D01*
X0134584Y0217288D01*
X0134619Y0217202D01*
X0134650Y0217115D01*
X0134677Y0217027D01*
X0134700Y0216937D01*
X0134720Y0216847D01*
X0134736Y0216756D01*
X0134748Y0216664D01*
X0134756Y0216572D01*
X0134760Y0216479D01*
X0134760Y0216387D01*
X0134756Y0216294D01*
X0134748Y0216202D01*
X0134736Y0216110D01*
X0134720Y0216019D01*
X0134700Y0215929D01*
X0134677Y0215839D01*
X0134650Y0215751D01*
X0134619Y0215664D01*
X0134584Y0215578D01*
X0134546Y0215494D01*
X0134504Y0215411D01*
X0134458Y0215331D01*
X0134409Y0215252D01*
X0134357Y0215175D01*
X0134302Y0215101D01*
X0134244Y0215030D01*
X0134182Y0214960D01*
X0134118Y0214894D01*
X0134051Y0214830D01*
X0133981Y0214770D01*
X0133908Y0214712D01*
X0133834Y0214657D01*
X0133757Y0214606D01*
X0133678Y0214558D01*
X0133596Y0214514D01*
X0133513Y0214472D01*
X0133429Y0214435D01*
X0133343Y0214401D01*
X0133255Y0214371D01*
X0133167Y0214345D01*
X0133077Y0214322D01*
X0132986Y0214304D01*
X0132895Y0214289D01*
X0132803Y0214278D01*
X0132711Y0214271D01*
X0132618Y0214268D01*
X0132526Y0214269D01*
X0132433Y0214274D01*
X0132341Y0214283D01*
X0132249Y0214296D01*
X0132158Y0214312D01*
X0132068Y0214333D01*
X0131979Y0214357D01*
X0131891Y0214386D01*
X0131804Y0214418D01*
X0131719Y0214453D01*
X0131635Y0214493D01*
X0131553Y0214535D01*
X0131473Y0214582D01*
X0131395Y0214631D01*
X0131319Y0214684D01*
X0131245Y0214740D01*
X0131174Y0214800D01*
X0131106Y0214862D01*
X0131040Y0214927D01*
X0130977Y0214995D01*
X0130917Y0215065D01*
X0130860Y0215138D01*
X0130806Y0215213D01*
X0130756Y0215291D01*
X0130709Y0215371D01*
X0130665Y0215452D01*
X0130625Y0215536D01*
X0130588Y0215621D01*
X0130555Y0215707D01*
X0130526Y0215795D01*
X0130501Y0215884D01*
X0130479Y0215974D01*
X0130462Y0216065D01*
X0130448Y0216156D01*
X0130438Y0216248D01*
X0130432Y0216340D01*
X0130430Y0216433D01*
X0115430Y0216433D02*
X0115432Y0216526D01*
X0115438Y0216618D01*
X0115448Y0216710D01*
X0115462Y0216801D01*
X0115479Y0216892D01*
X0115501Y0216982D01*
X0115526Y0217071D01*
X0115555Y0217159D01*
X0115588Y0217245D01*
X0115625Y0217330D01*
X0115665Y0217414D01*
X0115709Y0217495D01*
X0115756Y0217575D01*
X0115806Y0217653D01*
X0115860Y0217728D01*
X0115917Y0217801D01*
X0115977Y0217871D01*
X0116040Y0217939D01*
X0116106Y0218004D01*
X0116174Y0218066D01*
X0116245Y0218126D01*
X0116319Y0218182D01*
X0116395Y0218235D01*
X0116473Y0218284D01*
X0116553Y0218331D01*
X0116635Y0218373D01*
X0116719Y0218413D01*
X0116804Y0218448D01*
X0116891Y0218480D01*
X0116979Y0218509D01*
X0117068Y0218533D01*
X0117158Y0218554D01*
X0117249Y0218570D01*
X0117341Y0218583D01*
X0117433Y0218592D01*
X0117526Y0218597D01*
X0117618Y0218598D01*
X0117711Y0218595D01*
X0117803Y0218588D01*
X0117895Y0218577D01*
X0117986Y0218562D01*
X0118077Y0218544D01*
X0118167Y0218521D01*
X0118255Y0218495D01*
X0118343Y0218465D01*
X0118429Y0218431D01*
X0118513Y0218394D01*
X0118596Y0218352D01*
X0118677Y0218308D01*
X0118757Y0218260D01*
X0118834Y0218209D01*
X0118908Y0218154D01*
X0118981Y0218096D01*
X0119051Y0218036D01*
X0119118Y0217972D01*
X0119182Y0217906D01*
X0119244Y0217836D01*
X0119302Y0217765D01*
X0119357Y0217691D01*
X0119409Y0217614D01*
X0119458Y0217535D01*
X0119504Y0217455D01*
X0119546Y0217372D01*
X0119584Y0217288D01*
X0119619Y0217202D01*
X0119650Y0217115D01*
X0119677Y0217027D01*
X0119700Y0216937D01*
X0119720Y0216847D01*
X0119736Y0216756D01*
X0119748Y0216664D01*
X0119756Y0216572D01*
X0119760Y0216479D01*
X0119760Y0216387D01*
X0119756Y0216294D01*
X0119748Y0216202D01*
X0119736Y0216110D01*
X0119720Y0216019D01*
X0119700Y0215929D01*
X0119677Y0215839D01*
X0119650Y0215751D01*
X0119619Y0215664D01*
X0119584Y0215578D01*
X0119546Y0215494D01*
X0119504Y0215411D01*
X0119458Y0215331D01*
X0119409Y0215252D01*
X0119357Y0215175D01*
X0119302Y0215101D01*
X0119244Y0215030D01*
X0119182Y0214960D01*
X0119118Y0214894D01*
X0119051Y0214830D01*
X0118981Y0214770D01*
X0118908Y0214712D01*
X0118834Y0214657D01*
X0118757Y0214606D01*
X0118678Y0214558D01*
X0118596Y0214514D01*
X0118513Y0214472D01*
X0118429Y0214435D01*
X0118343Y0214401D01*
X0118255Y0214371D01*
X0118167Y0214345D01*
X0118077Y0214322D01*
X0117986Y0214304D01*
X0117895Y0214289D01*
X0117803Y0214278D01*
X0117711Y0214271D01*
X0117618Y0214268D01*
X0117526Y0214269D01*
X0117433Y0214274D01*
X0117341Y0214283D01*
X0117249Y0214296D01*
X0117158Y0214312D01*
X0117068Y0214333D01*
X0116979Y0214357D01*
X0116891Y0214386D01*
X0116804Y0214418D01*
X0116719Y0214453D01*
X0116635Y0214493D01*
X0116553Y0214535D01*
X0116473Y0214582D01*
X0116395Y0214631D01*
X0116319Y0214684D01*
X0116245Y0214740D01*
X0116174Y0214800D01*
X0116106Y0214862D01*
X0116040Y0214927D01*
X0115977Y0214995D01*
X0115917Y0215065D01*
X0115860Y0215138D01*
X0115806Y0215213D01*
X0115756Y0215291D01*
X0115709Y0215371D01*
X0115665Y0215452D01*
X0115625Y0215536D01*
X0115588Y0215621D01*
X0115555Y0215707D01*
X0115526Y0215795D01*
X0115501Y0215884D01*
X0115479Y0215974D01*
X0115462Y0216065D01*
X0115448Y0216156D01*
X0115438Y0216248D01*
X0115432Y0216340D01*
X0115430Y0216433D01*
X0105430Y0216433D02*
X0105432Y0216526D01*
X0105438Y0216618D01*
X0105448Y0216710D01*
X0105462Y0216801D01*
X0105479Y0216892D01*
X0105501Y0216982D01*
X0105526Y0217071D01*
X0105555Y0217159D01*
X0105588Y0217245D01*
X0105625Y0217330D01*
X0105665Y0217414D01*
X0105709Y0217495D01*
X0105756Y0217575D01*
X0105806Y0217653D01*
X0105860Y0217728D01*
X0105917Y0217801D01*
X0105977Y0217871D01*
X0106040Y0217939D01*
X0106106Y0218004D01*
X0106174Y0218066D01*
X0106245Y0218126D01*
X0106319Y0218182D01*
X0106395Y0218235D01*
X0106473Y0218284D01*
X0106553Y0218331D01*
X0106635Y0218373D01*
X0106719Y0218413D01*
X0106804Y0218448D01*
X0106891Y0218480D01*
X0106979Y0218509D01*
X0107068Y0218533D01*
X0107158Y0218554D01*
X0107249Y0218570D01*
X0107341Y0218583D01*
X0107433Y0218592D01*
X0107526Y0218597D01*
X0107618Y0218598D01*
X0107711Y0218595D01*
X0107803Y0218588D01*
X0107895Y0218577D01*
X0107986Y0218562D01*
X0108077Y0218544D01*
X0108167Y0218521D01*
X0108255Y0218495D01*
X0108343Y0218465D01*
X0108429Y0218431D01*
X0108513Y0218394D01*
X0108596Y0218352D01*
X0108677Y0218308D01*
X0108757Y0218260D01*
X0108834Y0218209D01*
X0108908Y0218154D01*
X0108981Y0218096D01*
X0109051Y0218036D01*
X0109118Y0217972D01*
X0109182Y0217906D01*
X0109244Y0217836D01*
X0109302Y0217765D01*
X0109357Y0217691D01*
X0109409Y0217614D01*
X0109458Y0217535D01*
X0109504Y0217455D01*
X0109546Y0217372D01*
X0109584Y0217288D01*
X0109619Y0217202D01*
X0109650Y0217115D01*
X0109677Y0217027D01*
X0109700Y0216937D01*
X0109720Y0216847D01*
X0109736Y0216756D01*
X0109748Y0216664D01*
X0109756Y0216572D01*
X0109760Y0216479D01*
X0109760Y0216387D01*
X0109756Y0216294D01*
X0109748Y0216202D01*
X0109736Y0216110D01*
X0109720Y0216019D01*
X0109700Y0215929D01*
X0109677Y0215839D01*
X0109650Y0215751D01*
X0109619Y0215664D01*
X0109584Y0215578D01*
X0109546Y0215494D01*
X0109504Y0215411D01*
X0109458Y0215331D01*
X0109409Y0215252D01*
X0109357Y0215175D01*
X0109302Y0215101D01*
X0109244Y0215030D01*
X0109182Y0214960D01*
X0109118Y0214894D01*
X0109051Y0214830D01*
X0108981Y0214770D01*
X0108908Y0214712D01*
X0108834Y0214657D01*
X0108757Y0214606D01*
X0108678Y0214558D01*
X0108596Y0214514D01*
X0108513Y0214472D01*
X0108429Y0214435D01*
X0108343Y0214401D01*
X0108255Y0214371D01*
X0108167Y0214345D01*
X0108077Y0214322D01*
X0107986Y0214304D01*
X0107895Y0214289D01*
X0107803Y0214278D01*
X0107711Y0214271D01*
X0107618Y0214268D01*
X0107526Y0214269D01*
X0107433Y0214274D01*
X0107341Y0214283D01*
X0107249Y0214296D01*
X0107158Y0214312D01*
X0107068Y0214333D01*
X0106979Y0214357D01*
X0106891Y0214386D01*
X0106804Y0214418D01*
X0106719Y0214453D01*
X0106635Y0214493D01*
X0106553Y0214535D01*
X0106473Y0214582D01*
X0106395Y0214631D01*
X0106319Y0214684D01*
X0106245Y0214740D01*
X0106174Y0214800D01*
X0106106Y0214862D01*
X0106040Y0214927D01*
X0105977Y0214995D01*
X0105917Y0215065D01*
X0105860Y0215138D01*
X0105806Y0215213D01*
X0105756Y0215291D01*
X0105709Y0215371D01*
X0105665Y0215452D01*
X0105625Y0215536D01*
X0105588Y0215621D01*
X0105555Y0215707D01*
X0105526Y0215795D01*
X0105501Y0215884D01*
X0105479Y0215974D01*
X0105462Y0216065D01*
X0105448Y0216156D01*
X0105438Y0216248D01*
X0105432Y0216340D01*
X0105430Y0216433D01*
X0095430Y0216433D02*
X0095432Y0216526D01*
X0095438Y0216618D01*
X0095448Y0216710D01*
X0095462Y0216801D01*
X0095479Y0216892D01*
X0095501Y0216982D01*
X0095526Y0217071D01*
X0095555Y0217159D01*
X0095588Y0217245D01*
X0095625Y0217330D01*
X0095665Y0217414D01*
X0095709Y0217495D01*
X0095756Y0217575D01*
X0095806Y0217653D01*
X0095860Y0217728D01*
X0095917Y0217801D01*
X0095977Y0217871D01*
X0096040Y0217939D01*
X0096106Y0218004D01*
X0096174Y0218066D01*
X0096245Y0218126D01*
X0096319Y0218182D01*
X0096395Y0218235D01*
X0096473Y0218284D01*
X0096553Y0218331D01*
X0096635Y0218373D01*
X0096719Y0218413D01*
X0096804Y0218448D01*
X0096891Y0218480D01*
X0096979Y0218509D01*
X0097068Y0218533D01*
X0097158Y0218554D01*
X0097249Y0218570D01*
X0097341Y0218583D01*
X0097433Y0218592D01*
X0097526Y0218597D01*
X0097618Y0218598D01*
X0097711Y0218595D01*
X0097803Y0218588D01*
X0097895Y0218577D01*
X0097986Y0218562D01*
X0098077Y0218544D01*
X0098167Y0218521D01*
X0098255Y0218495D01*
X0098343Y0218465D01*
X0098429Y0218431D01*
X0098513Y0218394D01*
X0098596Y0218352D01*
X0098677Y0218308D01*
X0098757Y0218260D01*
X0098834Y0218209D01*
X0098908Y0218154D01*
X0098981Y0218096D01*
X0099051Y0218036D01*
X0099118Y0217972D01*
X0099182Y0217906D01*
X0099244Y0217836D01*
X0099302Y0217765D01*
X0099357Y0217691D01*
X0099409Y0217614D01*
X0099458Y0217535D01*
X0099504Y0217455D01*
X0099546Y0217372D01*
X0099584Y0217288D01*
X0099619Y0217202D01*
X0099650Y0217115D01*
X0099677Y0217027D01*
X0099700Y0216937D01*
X0099720Y0216847D01*
X0099736Y0216756D01*
X0099748Y0216664D01*
X0099756Y0216572D01*
X0099760Y0216479D01*
X0099760Y0216387D01*
X0099756Y0216294D01*
X0099748Y0216202D01*
X0099736Y0216110D01*
X0099720Y0216019D01*
X0099700Y0215929D01*
X0099677Y0215839D01*
X0099650Y0215751D01*
X0099619Y0215664D01*
X0099584Y0215578D01*
X0099546Y0215494D01*
X0099504Y0215411D01*
X0099458Y0215331D01*
X0099409Y0215252D01*
X0099357Y0215175D01*
X0099302Y0215101D01*
X0099244Y0215030D01*
X0099182Y0214960D01*
X0099118Y0214894D01*
X0099051Y0214830D01*
X0098981Y0214770D01*
X0098908Y0214712D01*
X0098834Y0214657D01*
X0098757Y0214606D01*
X0098678Y0214558D01*
X0098596Y0214514D01*
X0098513Y0214472D01*
X0098429Y0214435D01*
X0098343Y0214401D01*
X0098255Y0214371D01*
X0098167Y0214345D01*
X0098077Y0214322D01*
X0097986Y0214304D01*
X0097895Y0214289D01*
X0097803Y0214278D01*
X0097711Y0214271D01*
X0097618Y0214268D01*
X0097526Y0214269D01*
X0097433Y0214274D01*
X0097341Y0214283D01*
X0097249Y0214296D01*
X0097158Y0214312D01*
X0097068Y0214333D01*
X0096979Y0214357D01*
X0096891Y0214386D01*
X0096804Y0214418D01*
X0096719Y0214453D01*
X0096635Y0214493D01*
X0096553Y0214535D01*
X0096473Y0214582D01*
X0096395Y0214631D01*
X0096319Y0214684D01*
X0096245Y0214740D01*
X0096174Y0214800D01*
X0096106Y0214862D01*
X0096040Y0214927D01*
X0095977Y0214995D01*
X0095917Y0215065D01*
X0095860Y0215138D01*
X0095806Y0215213D01*
X0095756Y0215291D01*
X0095709Y0215371D01*
X0095665Y0215452D01*
X0095625Y0215536D01*
X0095588Y0215621D01*
X0095555Y0215707D01*
X0095526Y0215795D01*
X0095501Y0215884D01*
X0095479Y0215974D01*
X0095462Y0216065D01*
X0095448Y0216156D01*
X0095438Y0216248D01*
X0095432Y0216340D01*
X0095430Y0216433D01*
D11*
X0096626Y0221583D02*
X0096143Y0222067D01*
X0096143Y0223034D01*
X0096626Y0223518D01*
X0097594Y0223518D02*
X0097594Y0222551D01*
X0097594Y0223518D02*
X0098561Y0223518D01*
X0099045Y0223034D01*
X0099045Y0222067D01*
X0098561Y0221583D01*
X0096626Y0221583D01*
X0096143Y0224530D02*
X0099045Y0226465D01*
X0096143Y0226465D01*
X0096143Y0227476D02*
X0096143Y0228927D01*
X0096626Y0229411D01*
X0098561Y0229411D01*
X0099045Y0228927D01*
X0099045Y0227476D01*
X0096143Y0227476D01*
X0096143Y0224530D02*
X0099045Y0224530D01*
X0106143Y0225013D02*
X0106143Y0225981D01*
X0106626Y0226465D01*
X0107110Y0226465D01*
X0107594Y0225981D01*
X0107594Y0225013D01*
X0107110Y0224530D01*
X0106626Y0224530D01*
X0106143Y0225013D01*
X0107594Y0225013D02*
X0108078Y0224530D01*
X0108561Y0224530D01*
X0109045Y0225013D01*
X0109045Y0225981D01*
X0108561Y0226465D01*
X0108078Y0226465D01*
X0107594Y0225981D01*
X0108561Y0223518D02*
X0106626Y0223518D01*
X0106143Y0223034D01*
X0106143Y0221583D01*
X0109045Y0221583D01*
X0109045Y0223034D01*
X0108561Y0223518D01*
X0116143Y0224530D02*
X0116143Y0226465D01*
X0116143Y0227476D02*
X0118078Y0227476D01*
X0119045Y0228444D01*
X0118078Y0229411D01*
X0116143Y0229411D01*
X0117594Y0226465D02*
X0118561Y0226465D01*
X0119045Y0225981D01*
X0119045Y0225013D01*
X0118561Y0224530D01*
X0117594Y0224530D02*
X0117110Y0225497D01*
X0117110Y0225981D01*
X0117594Y0226465D01*
X0117594Y0224530D02*
X0116143Y0224530D01*
X0117594Y0223518D02*
X0117594Y0221583D01*
X0116626Y0222551D02*
X0118561Y0222551D01*
X0131143Y0223034D02*
X0131143Y0222067D01*
X0131626Y0221583D01*
X0133561Y0221583D01*
X0134045Y0222067D01*
X0134045Y0223034D01*
X0133561Y0223518D01*
X0132594Y0223518D01*
X0132594Y0222551D01*
X0131626Y0223518D02*
X0131143Y0223034D01*
X0131143Y0224530D02*
X0134045Y0226465D01*
X0131143Y0226465D01*
X0131143Y0227476D02*
X0131143Y0228927D01*
X0131626Y0229411D01*
X0133561Y0229411D01*
X0134045Y0228927D01*
X0134045Y0227476D01*
X0131143Y0227476D01*
X0131143Y0224530D02*
X0134045Y0224530D01*
X0141143Y0225013D02*
X0141143Y0225981D01*
X0141626Y0226465D01*
X0142110Y0226465D01*
X0142594Y0225981D01*
X0142594Y0225013D01*
X0142110Y0224530D01*
X0141626Y0224530D01*
X0141143Y0225013D01*
X0142594Y0225013D02*
X0143078Y0224530D01*
X0143561Y0224530D01*
X0144045Y0225013D01*
X0144045Y0225981D01*
X0143561Y0226465D01*
X0143078Y0226465D01*
X0142594Y0225981D01*
X0143561Y0223518D02*
X0141626Y0223518D01*
X0141143Y0223034D01*
X0141143Y0221583D01*
X0144045Y0221583D01*
X0144045Y0223034D01*
X0143561Y0223518D01*
X0151143Y0224530D02*
X0151143Y0226465D01*
X0151143Y0227476D02*
X0153078Y0227476D01*
X0154045Y0228444D01*
X0153078Y0229411D01*
X0151143Y0229411D01*
X0152594Y0226465D02*
X0153561Y0226465D01*
X0154045Y0225981D01*
X0154045Y0225013D01*
X0153561Y0224530D01*
X0152594Y0224530D02*
X0152110Y0225497D01*
X0152110Y0225981D01*
X0152594Y0226465D01*
X0152594Y0224530D02*
X0151143Y0224530D01*
X0152594Y0223518D02*
X0152594Y0221583D01*
X0151626Y0222551D02*
X0153561Y0222551D01*
X0166143Y0223034D02*
X0166143Y0222067D01*
X0166626Y0221583D01*
X0168561Y0221583D01*
X0169045Y0222067D01*
X0169045Y0223034D01*
X0168561Y0223518D01*
X0167594Y0223518D01*
X0167594Y0222551D01*
X0166626Y0223518D02*
X0166143Y0223034D01*
X0166143Y0224530D02*
X0169045Y0226465D01*
X0166143Y0226465D01*
X0166143Y0227476D02*
X0166143Y0228927D01*
X0166626Y0229411D01*
X0168561Y0229411D01*
X0169045Y0228927D01*
X0169045Y0227476D01*
X0166143Y0227476D01*
X0166143Y0224530D02*
X0169045Y0224530D01*
X0176143Y0223034D02*
X0176143Y0221583D01*
X0179045Y0221583D01*
X0179045Y0223034D01*
X0178561Y0223518D01*
X0176626Y0223518D01*
X0176143Y0223034D01*
X0177594Y0224530D02*
X0177594Y0225981D01*
X0178078Y0226465D01*
X0178561Y0226465D01*
X0179045Y0225981D01*
X0179045Y0225013D01*
X0178561Y0224530D01*
X0177594Y0224530D01*
X0176626Y0225497D01*
X0176143Y0226465D01*
X0186143Y0226465D02*
X0186143Y0224530D01*
X0187594Y0224530D01*
X0187110Y0225497D01*
X0187110Y0225981D01*
X0187594Y0226465D01*
X0188561Y0226465D01*
X0189045Y0225981D01*
X0189045Y0225013D01*
X0188561Y0224530D01*
X0187594Y0223518D02*
X0187594Y0221583D01*
X0186626Y0222551D02*
X0188561Y0222551D01*
X0188078Y0227476D02*
X0189045Y0228444D01*
X0188078Y0229411D01*
X0186143Y0229411D01*
X0186143Y0227476D02*
X0188078Y0227476D01*
X0188078Y0040572D02*
X0186143Y0040572D01*
X0188078Y0040572D02*
X0189045Y0039604D01*
X0188078Y0038637D01*
X0186143Y0038637D01*
X0186143Y0037625D02*
X0186143Y0035690D01*
X0187594Y0035690D01*
X0187110Y0036658D01*
X0187110Y0037141D01*
X0187594Y0037625D01*
X0188561Y0037625D01*
X0189045Y0037141D01*
X0189045Y0036174D01*
X0188561Y0035690D01*
X0187594Y0034678D02*
X0187594Y0032744D01*
X0188561Y0033711D02*
X0186626Y0033711D01*
X0196143Y0033711D02*
X0199045Y0033711D01*
X0199045Y0032744D02*
X0199045Y0034678D01*
X0199045Y0035690D02*
X0196143Y0035690D01*
X0196143Y0037141D01*
X0196626Y0037625D01*
X0197594Y0037625D01*
X0198078Y0037141D01*
X0198078Y0035690D01*
X0198078Y0036658D02*
X0199045Y0037625D01*
X0199045Y0038637D02*
X0196143Y0040572D01*
X0196143Y0038637D02*
X0199045Y0040572D01*
X0206143Y0040088D02*
X0206143Y0038637D01*
X0209045Y0038637D01*
X0209045Y0040088D01*
X0208561Y0040572D01*
X0206626Y0040572D01*
X0206143Y0040088D01*
X0206143Y0037625D02*
X0209045Y0037625D01*
X0206143Y0035690D01*
X0209045Y0035690D01*
X0208561Y0034678D02*
X0207594Y0034678D01*
X0207594Y0033711D01*
X0208561Y0034678D02*
X0209045Y0034195D01*
X0209045Y0033227D01*
X0208561Y0032744D01*
X0206626Y0032744D01*
X0206143Y0033227D01*
X0206143Y0034195D01*
X0206626Y0034678D01*
X0197110Y0032744D02*
X0196143Y0033711D01*
X0174045Y0034195D02*
X0173561Y0034678D01*
X0172594Y0034678D01*
X0172594Y0033711D01*
X0173561Y0032744D02*
X0174045Y0033227D01*
X0174045Y0034195D01*
X0174045Y0035690D02*
X0171143Y0035690D01*
X0174045Y0037625D01*
X0171143Y0037625D01*
X0171143Y0038637D02*
X0171143Y0040088D01*
X0171626Y0040572D01*
X0173561Y0040572D01*
X0174045Y0040088D01*
X0174045Y0038637D01*
X0171143Y0038637D01*
X0171626Y0034678D02*
X0171143Y0034195D01*
X0171143Y0033227D01*
X0171626Y0032744D01*
X0173561Y0032744D01*
X0164045Y0035690D02*
X0164045Y0037141D01*
X0163561Y0037625D01*
X0161626Y0037625D01*
X0161143Y0037141D01*
X0161143Y0035690D01*
X0164045Y0035690D01*
X0163561Y0038637D02*
X0164045Y0039120D01*
X0164045Y0040088D01*
X0163561Y0040572D01*
X0163078Y0040572D01*
X0162594Y0040088D01*
X0162594Y0038637D01*
X0163561Y0038637D01*
X0162594Y0038637D02*
X0161626Y0039604D01*
X0161143Y0040572D01*
X0154045Y0039604D02*
X0153078Y0040572D01*
X0151143Y0040572D01*
X0151143Y0038637D02*
X0153078Y0038637D01*
X0154045Y0039604D01*
X0153561Y0037625D02*
X0154045Y0037141D01*
X0154045Y0036174D01*
X0153561Y0035690D01*
X0152594Y0035690D02*
X0152110Y0036658D01*
X0152110Y0037141D01*
X0152594Y0037625D01*
X0153561Y0037625D01*
X0152594Y0035690D02*
X0151143Y0035690D01*
X0151143Y0037625D01*
X0152594Y0034678D02*
X0152594Y0032744D01*
X0153561Y0033711D02*
X0151626Y0033711D01*
X0139045Y0034195D02*
X0138561Y0034678D01*
X0137594Y0034678D01*
X0137594Y0033711D01*
X0138561Y0032744D02*
X0136626Y0032744D01*
X0136143Y0033227D01*
X0136143Y0034195D01*
X0136626Y0034678D01*
X0136143Y0035690D02*
X0139045Y0037625D01*
X0136143Y0037625D01*
X0136143Y0038637D02*
X0136143Y0040088D01*
X0136626Y0040572D01*
X0138561Y0040572D01*
X0139045Y0040088D01*
X0139045Y0038637D01*
X0136143Y0038637D01*
X0136143Y0035690D02*
X0139045Y0035690D01*
X0139045Y0034195D02*
X0139045Y0033227D01*
X0138561Y0032744D01*
X0129045Y0035690D02*
X0129045Y0037141D01*
X0128561Y0037625D01*
X0126626Y0037625D01*
X0126143Y0037141D01*
X0126143Y0035690D01*
X0129045Y0035690D01*
X0128561Y0038637D02*
X0128078Y0038637D01*
X0127594Y0039120D01*
X0127594Y0040088D01*
X0128078Y0040572D01*
X0128561Y0040572D01*
X0129045Y0040088D01*
X0129045Y0039120D01*
X0128561Y0038637D01*
X0127594Y0039120D02*
X0127110Y0038637D01*
X0126626Y0038637D01*
X0126143Y0039120D01*
X0126143Y0040088D01*
X0126626Y0040572D01*
X0127110Y0040572D01*
X0127594Y0040088D01*
X0119045Y0039604D02*
X0118078Y0040572D01*
X0116143Y0040572D01*
X0116143Y0038637D02*
X0118078Y0038637D01*
X0119045Y0039604D01*
X0118561Y0037625D02*
X0119045Y0037141D01*
X0119045Y0036174D01*
X0118561Y0035690D01*
X0117594Y0035690D02*
X0117110Y0036658D01*
X0117110Y0037141D01*
X0117594Y0037625D01*
X0118561Y0037625D01*
X0117594Y0035690D02*
X0116143Y0035690D01*
X0116143Y0037625D01*
X0117594Y0034678D02*
X0117594Y0032744D01*
X0118561Y0033711D02*
X0116626Y0033711D01*
X0104045Y0034195D02*
X0103561Y0034678D01*
X0102594Y0034678D01*
X0102594Y0033711D01*
X0103561Y0032744D02*
X0101626Y0032744D01*
X0101143Y0033227D01*
X0101143Y0034195D01*
X0101626Y0034678D01*
X0101143Y0035690D02*
X0104045Y0037625D01*
X0101143Y0037625D01*
X0101143Y0038637D02*
X0101143Y0040088D01*
X0101626Y0040572D01*
X0103561Y0040572D01*
X0104045Y0040088D01*
X0104045Y0038637D01*
X0101143Y0038637D01*
X0101143Y0035690D02*
X0104045Y0035690D01*
X0104045Y0034195D02*
X0104045Y0033227D01*
X0103561Y0032744D01*
X0094045Y0033227D02*
X0093561Y0032744D01*
X0094045Y0033227D02*
X0094045Y0034195D01*
X0093561Y0034678D01*
X0093078Y0034678D01*
X0092594Y0034195D01*
X0092594Y0033227D01*
X0092110Y0032744D01*
X0091626Y0032744D01*
X0091143Y0033227D01*
X0091143Y0034195D01*
X0091626Y0034678D01*
X0091626Y0035690D02*
X0093561Y0035690D01*
X0094045Y0036174D01*
X0094045Y0037141D01*
X0093561Y0037625D01*
X0094045Y0038637D02*
X0094045Y0040572D01*
X0094045Y0038637D02*
X0091143Y0038637D01*
X0091626Y0037625D02*
X0091143Y0037141D01*
X0091143Y0036174D01*
X0091626Y0035690D01*
X0084045Y0035690D02*
X0084045Y0037141D01*
X0083561Y0037625D01*
X0081626Y0037625D01*
X0081143Y0037141D01*
X0081143Y0035690D01*
X0084045Y0035690D01*
X0083561Y0034678D02*
X0084045Y0034195D01*
X0084045Y0033227D01*
X0083561Y0032744D01*
X0082594Y0033227D02*
X0082594Y0034195D01*
X0083078Y0034678D01*
X0083561Y0034678D01*
X0082594Y0033227D02*
X0082110Y0032744D01*
X0081626Y0032744D01*
X0081143Y0033227D01*
X0081143Y0034195D01*
X0081626Y0034678D01*
X0082110Y0038637D02*
X0081143Y0039604D01*
X0082110Y0040572D01*
X0084045Y0040572D01*
X0082594Y0040572D02*
X0082594Y0038637D01*
X0082110Y0038637D02*
X0084045Y0038637D01*
X0074045Y0039120D02*
X0073561Y0038637D01*
X0074045Y0039120D02*
X0074045Y0040088D01*
X0073561Y0040572D01*
X0073078Y0040572D01*
X0072594Y0040088D01*
X0072594Y0039604D01*
X0072594Y0040088D02*
X0072110Y0040572D01*
X0071626Y0040572D01*
X0071143Y0040088D01*
X0071143Y0039120D01*
X0071626Y0038637D01*
X0071143Y0037625D02*
X0073078Y0037625D01*
X0074045Y0036658D01*
X0073078Y0035690D01*
X0071143Y0035690D01*
X0071626Y0034678D02*
X0072110Y0034678D01*
X0072594Y0034195D01*
X0073078Y0034678D01*
X0073561Y0034678D01*
X0074045Y0034195D01*
X0074045Y0033227D01*
X0073561Y0032744D01*
X0072594Y0033711D02*
X0072594Y0034195D01*
X0071626Y0034678D02*
X0071143Y0034195D01*
X0071143Y0033227D01*
X0071626Y0032744D01*
X0072594Y0031732D02*
X0072594Y0029797D01*
X0073561Y0030764D02*
X0071626Y0030764D01*
D12*
X0049096Y0031433D02*
X0037595Y0031433D01*
X0037595Y0042686D01*
X0037595Y0048592D02*
X0037595Y0059845D01*
X0037595Y0065751D02*
X0037595Y0077004D01*
X0037595Y0082909D02*
X0037595Y0094163D01*
X0042595Y0096433D02*
X0042595Y0216433D01*
X0062595Y0216433D01*
X0062595Y0096433D01*
X0042595Y0096433D01*
X0037595Y0100068D02*
X0037595Y0111322D01*
X0037595Y0117227D02*
X0037595Y0128480D01*
X0037595Y0134386D02*
X0037595Y0145639D01*
X0037595Y0151545D02*
X0037595Y0162798D01*
X0037595Y0168703D02*
X0037595Y0179957D01*
X0037595Y0185862D02*
X0037595Y0197115D01*
X0037595Y0203021D02*
X0037595Y0214274D01*
X0037595Y0220180D02*
X0037595Y0231433D01*
X0049096Y0231433D01*
X0055001Y0231433D02*
X0066502Y0231433D01*
X0072408Y0231433D02*
X0083908Y0231433D01*
X0089814Y0231433D02*
X0101314Y0231433D01*
X0107220Y0231433D02*
X0118721Y0231433D01*
X0124626Y0231433D02*
X0136127Y0231433D01*
X0142032Y0231433D02*
X0153533Y0231433D01*
X0159439Y0231433D02*
X0170939Y0231433D01*
X0176845Y0231433D02*
X0188345Y0231433D01*
X0194251Y0231433D02*
X0205752Y0231433D01*
X0202595Y0231433D02*
X0202595Y0111433D01*
X0212595Y0111433D01*
X0212595Y0231433D01*
X0202595Y0231433D01*
X0211657Y0231433D02*
X0223158Y0231433D01*
X0229063Y0231433D02*
X0240564Y0231433D01*
X0246470Y0231433D02*
X0257970Y0231433D01*
X0263876Y0231433D02*
X0275377Y0231433D01*
X0281282Y0231433D02*
X0292783Y0231433D01*
X0298688Y0231433D02*
X0310189Y0231433D01*
X0316094Y0231433D02*
X0327595Y0231433D01*
X0327595Y0220180D01*
X0327595Y0214274D02*
X0327595Y0203021D01*
X0327595Y0197115D02*
X0327595Y0185862D01*
X0327595Y0179957D02*
X0327595Y0168703D01*
X0327595Y0162798D02*
X0327595Y0151545D01*
X0327595Y0145639D02*
X0327595Y0134386D01*
X0327595Y0128480D02*
X0327595Y0117227D01*
X0327595Y0111322D02*
X0327595Y0100068D01*
X0327595Y0094163D02*
X0327595Y0082909D01*
X0327595Y0077004D02*
X0327595Y0065751D01*
X0327595Y0059845D02*
X0327595Y0048592D01*
X0327595Y0042686D02*
X0327595Y0031433D01*
X0316094Y0031433D01*
X0310189Y0031433D02*
X0298688Y0031433D01*
X0292783Y0031433D02*
X0281282Y0031433D01*
X0275377Y0031433D02*
X0263876Y0031433D01*
X0257970Y0031433D02*
X0246470Y0031433D01*
X0240564Y0031433D02*
X0229063Y0031433D01*
X0223158Y0031433D02*
X0211657Y0031433D01*
X0205752Y0031433D02*
X0194251Y0031433D01*
X0188345Y0031433D02*
X0176845Y0031433D01*
X0170939Y0031433D02*
X0159439Y0031433D01*
X0153533Y0031433D02*
X0142032Y0031433D01*
X0136127Y0031433D02*
X0124626Y0031433D01*
X0118721Y0031433D02*
X0107220Y0031433D01*
X0101314Y0031433D02*
X0089814Y0031433D01*
X0083908Y0031433D02*
X0072408Y0031433D01*
X0066502Y0031433D02*
X0055001Y0031433D01*
X0081707Y0071683D02*
X0083208Y0071683D01*
X0082457Y0071683D02*
X0082457Y0076187D01*
X0081707Y0076187D02*
X0083208Y0076187D01*
X0084776Y0075436D02*
X0085526Y0076187D01*
X0087028Y0076187D01*
X0087778Y0075436D01*
X0087778Y0074686D01*
X0084776Y0071683D01*
X0087778Y0071683D01*
X0089380Y0072434D02*
X0090130Y0071683D01*
X0091632Y0071683D01*
X0092382Y0072434D01*
X0089380Y0072434D02*
X0089380Y0075436D01*
X0090130Y0076187D01*
X0091632Y0076187D01*
X0092382Y0075436D01*
X0092374Y0087183D02*
X0092374Y0089085D01*
X0091740Y0088451D01*
X0090798Y0088768D02*
X0090798Y0088134D01*
X0090481Y0087817D01*
X0089530Y0087817D01*
X0089530Y0087183D02*
X0089530Y0089085D01*
X0090481Y0089085D01*
X0090798Y0088768D01*
X0090164Y0087817D02*
X0090798Y0087183D01*
X0091740Y0087183D02*
X0093008Y0087183D01*
X0093950Y0087500D02*
X0094267Y0087183D01*
X0094901Y0087183D01*
X0095218Y0087500D01*
X0095218Y0087817D01*
X0094901Y0088134D01*
X0094584Y0088134D01*
X0094901Y0088134D02*
X0095218Y0088451D01*
X0095218Y0088768D01*
X0094901Y0089085D01*
X0094267Y0089085D01*
X0093950Y0088768D01*
X0089028Y0094473D02*
X0089345Y0094790D01*
X0089345Y0095424D01*
X0089028Y0095741D01*
X0089028Y0096683D02*
X0089345Y0097000D01*
X0089345Y0097634D01*
X0089028Y0097951D01*
X0088711Y0097951D01*
X0088394Y0097634D01*
X0088394Y0097317D01*
X0088394Y0097634D02*
X0088077Y0097951D01*
X0087760Y0097951D01*
X0087444Y0097634D01*
X0087444Y0097000D01*
X0087760Y0096683D01*
X0087760Y0095741D02*
X0087444Y0095424D01*
X0087444Y0094790D01*
X0087760Y0094473D01*
X0089028Y0094473D01*
X0085770Y0090958D02*
X0085770Y0101908D01*
X0074420Y0101908D01*
X0074420Y0090958D01*
X0085770Y0090958D01*
X0080745Y0095080D02*
X0080745Y0095714D01*
X0080428Y0096031D01*
X0078844Y0096031D01*
X0079160Y0096973D02*
X0078844Y0097290D01*
X0078844Y0097924D01*
X0079160Y0098241D01*
X0079477Y0098241D01*
X0079794Y0097924D01*
X0080111Y0098241D01*
X0080428Y0098241D01*
X0080745Y0097924D01*
X0080745Y0097290D01*
X0080428Y0096973D01*
X0079794Y0097607D02*
X0079794Y0097924D01*
X0080745Y0095080D02*
X0080428Y0094763D01*
X0078844Y0094763D01*
X0089530Y0112183D02*
X0089530Y0114085D01*
X0090481Y0114085D01*
X0090798Y0113768D01*
X0090798Y0113134D01*
X0090481Y0112817D01*
X0089530Y0112817D01*
X0090164Y0112817D02*
X0090798Y0112183D01*
X0091740Y0112183D02*
X0093008Y0112183D01*
X0092374Y0112183D02*
X0092374Y0114085D01*
X0091740Y0113451D01*
X0093950Y0113134D02*
X0095218Y0113134D01*
X0094901Y0114085D02*
X0093950Y0113134D01*
X0094901Y0112183D02*
X0094901Y0114085D01*
X0107344Y0098422D02*
X0109245Y0098422D01*
X0109245Y0097788D02*
X0109245Y0099056D01*
X0107977Y0097788D02*
X0107344Y0098422D01*
X0107660Y0096846D02*
X0108294Y0096846D01*
X0108611Y0096529D01*
X0108611Y0095578D01*
X0109245Y0095578D02*
X0107344Y0095578D01*
X0107344Y0096529D01*
X0107660Y0096846D01*
X0107344Y0094636D02*
X0107344Y0094002D01*
X0107344Y0094319D02*
X0108928Y0094319D01*
X0109245Y0094002D01*
X0109245Y0093685D01*
X0108928Y0093368D01*
X0118925Y0094100D02*
X0119242Y0093783D01*
X0119876Y0093783D01*
X0120193Y0094100D01*
X0120193Y0095368D01*
X0119876Y0095685D01*
X0119242Y0095685D01*
X0118925Y0095368D01*
X0118925Y0094100D01*
X0119559Y0094417D02*
X0120193Y0093783D01*
X0121135Y0094100D02*
X0121452Y0093783D01*
X0122086Y0093783D01*
X0122403Y0094100D01*
X0122403Y0094734D01*
X0122086Y0095051D01*
X0121769Y0095051D01*
X0121135Y0094734D01*
X0121135Y0095685D01*
X0122403Y0095685D01*
X0138925Y0095368D02*
X0139242Y0095685D01*
X0139876Y0095685D01*
X0140193Y0095368D01*
X0140193Y0094100D01*
X0139876Y0093783D01*
X0139242Y0093783D01*
X0138925Y0094100D01*
X0138925Y0095368D01*
X0139559Y0094417D02*
X0140193Y0093783D01*
X0141135Y0094100D02*
X0141452Y0093783D01*
X0142086Y0093783D01*
X0142403Y0094100D01*
X0142403Y0094417D01*
X0142086Y0094734D01*
X0141769Y0094734D01*
X0142086Y0094734D02*
X0142403Y0095051D01*
X0142403Y0095368D01*
X0142086Y0095685D01*
X0141452Y0095685D01*
X0141135Y0095368D01*
X0140952Y0086585D02*
X0140635Y0086268D01*
X0140635Y0085000D01*
X0140952Y0084683D01*
X0141586Y0084683D01*
X0141903Y0085000D01*
X0142845Y0084683D02*
X0144113Y0084683D01*
X0143479Y0084683D02*
X0143479Y0086585D01*
X0142845Y0085951D01*
X0141903Y0086268D02*
X0141586Y0086585D01*
X0140952Y0086585D01*
X0154530Y0086835D02*
X0154530Y0084933D01*
X0154530Y0085567D02*
X0155481Y0085567D01*
X0155798Y0085884D01*
X0155798Y0086518D01*
X0155481Y0086835D01*
X0154530Y0086835D01*
X0155164Y0085567D02*
X0155798Y0084933D01*
X0156740Y0084933D02*
X0158008Y0084933D01*
X0157374Y0084933D02*
X0157374Y0086835D01*
X0156740Y0086201D01*
X0158950Y0085884D02*
X0159584Y0086518D01*
X0160218Y0086835D01*
X0159901Y0085884D02*
X0158950Y0085884D01*
X0158950Y0085250D01*
X0159267Y0084933D01*
X0159901Y0084933D01*
X0160218Y0085250D01*
X0160218Y0085567D01*
X0159901Y0085884D01*
X0159876Y0093783D02*
X0159242Y0093783D01*
X0158925Y0094100D01*
X0158925Y0095368D01*
X0159242Y0095685D01*
X0159876Y0095685D01*
X0160193Y0095368D01*
X0160193Y0094100D01*
X0159876Y0093783D01*
X0160193Y0093783D02*
X0159559Y0094417D01*
X0161135Y0095051D02*
X0161769Y0095685D01*
X0161769Y0093783D01*
X0161135Y0093783D02*
X0162403Y0093783D01*
X0178925Y0094100D02*
X0179242Y0093783D01*
X0179876Y0093783D01*
X0180193Y0094100D01*
X0180193Y0095368D01*
X0179876Y0095685D01*
X0179242Y0095685D01*
X0178925Y0095368D01*
X0178925Y0094100D01*
X0179559Y0094417D02*
X0180193Y0093783D01*
X0181135Y0093783D02*
X0181135Y0094100D01*
X0182403Y0095368D01*
X0182403Y0095685D01*
X0181135Y0095685D01*
X0181731Y0076187D02*
X0183233Y0074686D01*
X0184734Y0076187D01*
X0184734Y0071683D01*
X0186335Y0071683D02*
X0188587Y0071683D01*
X0189338Y0072434D01*
X0189338Y0073184D01*
X0188587Y0073935D01*
X0186335Y0073935D01*
X0186335Y0071683D02*
X0186335Y0076187D01*
X0188587Y0076187D01*
X0189338Y0075436D01*
X0189338Y0074686D01*
X0188587Y0073935D01*
X0190939Y0073935D02*
X0193942Y0073935D01*
X0195543Y0072434D02*
X0195543Y0071683D01*
X0195543Y0072434D02*
X0198546Y0075436D01*
X0198546Y0076187D01*
X0195543Y0076187D01*
X0200147Y0075436D02*
X0200898Y0076187D01*
X0202399Y0076187D01*
X0203150Y0075436D01*
X0203150Y0074686D01*
X0202399Y0073935D01*
X0203150Y0073184D01*
X0203150Y0072434D01*
X0202399Y0071683D01*
X0200898Y0071683D01*
X0200147Y0072434D01*
X0201648Y0073935D02*
X0202399Y0073935D01*
X0204751Y0074686D02*
X0204751Y0075436D01*
X0205502Y0076187D01*
X0207003Y0076187D01*
X0207754Y0075436D01*
X0207754Y0074686D01*
X0207003Y0073935D01*
X0205502Y0073935D01*
X0204751Y0074686D01*
X0205502Y0073935D02*
X0204751Y0073184D01*
X0204751Y0072434D01*
X0205502Y0071683D01*
X0207003Y0071683D01*
X0207754Y0072434D01*
X0207754Y0073184D01*
X0207003Y0073935D01*
X0209355Y0074686D02*
X0210106Y0073935D01*
X0212357Y0073935D01*
X0212357Y0072434D02*
X0212357Y0075436D01*
X0211607Y0076187D01*
X0210106Y0076187D01*
X0209355Y0075436D01*
X0209355Y0074686D01*
X0209355Y0072434D02*
X0210106Y0071683D01*
X0211607Y0071683D01*
X0212357Y0072434D01*
X0181731Y0071683D02*
X0181731Y0076187D01*
X0174288Y0076187D02*
X0171286Y0076187D01*
X0171286Y0071683D01*
X0174288Y0071683D01*
X0172787Y0073935D02*
X0171286Y0073935D01*
X0169684Y0073935D02*
X0168934Y0073184D01*
X0166682Y0073184D01*
X0166682Y0071683D02*
X0166682Y0076187D01*
X0168934Y0076187D01*
X0169684Y0075436D01*
X0169684Y0073935D01*
X0168183Y0073184D02*
X0169684Y0071683D01*
X0165114Y0071683D02*
X0163612Y0071683D01*
X0164363Y0071683D02*
X0164363Y0076187D01*
X0163612Y0076187D02*
X0165114Y0076187D01*
X0162011Y0076187D02*
X0162011Y0071683D01*
X0160510Y0073184D01*
X0159009Y0071683D01*
X0159009Y0076187D01*
X0157407Y0073935D02*
X0154405Y0073935D01*
X0152803Y0071683D02*
X0149801Y0071683D01*
X0151302Y0071683D02*
X0151302Y0076187D01*
X0149801Y0074686D01*
X0139288Y0074686D02*
X0139288Y0075436D01*
X0138538Y0076187D01*
X0137036Y0076187D01*
X0136286Y0075436D01*
X0139288Y0074686D02*
X0136286Y0071683D01*
X0139288Y0071683D01*
X0134684Y0071683D02*
X0131682Y0071683D01*
X0133183Y0071683D02*
X0133183Y0076187D01*
X0131682Y0074686D01*
X0130080Y0073935D02*
X0127078Y0073935D01*
X0125510Y0076187D02*
X0124009Y0076187D01*
X0124759Y0076187D02*
X0124759Y0071683D01*
X0124009Y0071683D02*
X0125510Y0071683D01*
X0122407Y0072434D02*
X0122407Y0075436D01*
X0121656Y0076187D01*
X0119405Y0076187D01*
X0119405Y0071683D01*
X0121656Y0071683D01*
X0122407Y0072434D01*
X0117803Y0072434D02*
X0117053Y0071683D01*
X0115551Y0071683D01*
X0114801Y0072434D01*
X0115551Y0073935D02*
X0117053Y0073935D01*
X0117803Y0073184D01*
X0117803Y0072434D01*
X0115551Y0073935D02*
X0114801Y0074686D01*
X0114801Y0075436D01*
X0115551Y0076187D01*
X0117053Y0076187D01*
X0117803Y0075436D01*
X0124530Y0124683D02*
X0124530Y0126585D01*
X0125481Y0126585D01*
X0125798Y0126268D01*
X0125798Y0125634D01*
X0125481Y0125317D01*
X0124530Y0125317D01*
X0125164Y0125317D02*
X0125798Y0124683D01*
X0126740Y0124683D02*
X0128008Y0124683D01*
X0127374Y0124683D02*
X0127374Y0126585D01*
X0126740Y0125951D01*
X0128950Y0126268D02*
X0129267Y0126585D01*
X0129901Y0126585D01*
X0130218Y0126268D01*
X0130218Y0125951D01*
X0128950Y0124683D01*
X0130218Y0124683D01*
X0130218Y0135033D02*
X0128950Y0135033D01*
X0129584Y0135033D02*
X0129584Y0136935D01*
X0128950Y0136301D01*
X0128008Y0135033D02*
X0126740Y0135033D01*
X0127374Y0135033D02*
X0127374Y0136935D01*
X0126740Y0136301D01*
X0125798Y0136618D02*
X0125798Y0135984D01*
X0125481Y0135667D01*
X0124530Y0135667D01*
X0124530Y0135033D02*
X0124530Y0136935D01*
X0125481Y0136935D01*
X0125798Y0136618D01*
X0125164Y0135667D02*
X0125798Y0135033D01*
X0124086Y0140783D02*
X0123452Y0140783D01*
X0123135Y0141100D01*
X0123135Y0141734D01*
X0124086Y0141734D01*
X0124403Y0141417D01*
X0124403Y0141100D01*
X0124086Y0140783D01*
X0123135Y0141734D02*
X0123769Y0142368D01*
X0124403Y0142685D01*
X0122193Y0142368D02*
X0122193Y0141100D01*
X0121876Y0140783D01*
X0121242Y0140783D01*
X0120925Y0141100D01*
X0120925Y0142368D01*
X0121242Y0142685D01*
X0121876Y0142685D01*
X0122193Y0142368D01*
X0121559Y0141417D02*
X0122193Y0140783D01*
X0140925Y0141100D02*
X0141242Y0140783D01*
X0141876Y0140783D01*
X0142193Y0141100D01*
X0142193Y0142368D01*
X0141876Y0142685D01*
X0141242Y0142685D01*
X0140925Y0142368D01*
X0140925Y0141100D01*
X0141559Y0141417D02*
X0142193Y0140783D01*
X0143135Y0141734D02*
X0144403Y0141734D01*
X0144086Y0142685D02*
X0143135Y0141734D01*
X0144086Y0140783D02*
X0144086Y0142685D01*
X0145635Y0136935D02*
X0146586Y0136935D01*
X0146903Y0136618D01*
X0146903Y0135984D01*
X0146586Y0135667D01*
X0145635Y0135667D01*
X0145635Y0135033D02*
X0145635Y0136935D01*
X0146269Y0135667D02*
X0146903Y0135033D01*
X0147845Y0135350D02*
X0147845Y0135667D01*
X0148162Y0135984D01*
X0148796Y0135984D01*
X0149113Y0135667D01*
X0149113Y0135350D01*
X0148796Y0135033D01*
X0148162Y0135033D01*
X0147845Y0135350D01*
X0148162Y0135984D02*
X0147845Y0136301D01*
X0147845Y0136618D01*
X0148162Y0136935D01*
X0148796Y0136935D01*
X0149113Y0136618D01*
X0149113Y0136301D01*
X0148796Y0135984D01*
X0160925Y0141100D02*
X0160925Y0142368D01*
X0161242Y0142685D01*
X0161876Y0142685D01*
X0162193Y0142368D01*
X0162193Y0141100D01*
X0161876Y0140783D01*
X0161242Y0140783D01*
X0160925Y0141100D01*
X0161559Y0141417D02*
X0162193Y0140783D01*
X0163135Y0140783D02*
X0164403Y0142051D01*
X0164403Y0142368D01*
X0164086Y0142685D01*
X0163452Y0142685D01*
X0163135Y0142368D01*
X0163135Y0140783D02*
X0164403Y0140783D01*
X0165635Y0136935D02*
X0166586Y0136935D01*
X0166903Y0136618D01*
X0166903Y0135984D01*
X0166586Y0135667D01*
X0165635Y0135667D01*
X0165635Y0135033D02*
X0165635Y0136935D01*
X0166269Y0135667D02*
X0166903Y0135033D01*
X0167845Y0135350D02*
X0168162Y0135033D01*
X0168796Y0135033D01*
X0169113Y0135350D01*
X0169113Y0135984D01*
X0168796Y0136301D01*
X0168479Y0136301D01*
X0167845Y0135984D01*
X0167845Y0136935D01*
X0169113Y0136935D01*
X0180925Y0141100D02*
X0180925Y0142368D01*
X0181242Y0142685D01*
X0181876Y0142685D01*
X0182193Y0142368D01*
X0182193Y0141100D01*
X0181876Y0140783D01*
X0181242Y0140783D01*
X0180925Y0141100D01*
X0181559Y0141417D02*
X0182193Y0140783D01*
X0183135Y0141100D02*
X0183135Y0141417D01*
X0183452Y0141734D01*
X0184086Y0141734D01*
X0184403Y0141417D01*
X0184403Y0141100D01*
X0184086Y0140783D01*
X0183452Y0140783D01*
X0183135Y0141100D01*
X0183452Y0141734D02*
X0183135Y0142051D01*
X0183135Y0142368D01*
X0183452Y0142685D01*
X0184086Y0142685D01*
X0184403Y0142368D01*
X0184403Y0142051D01*
X0184086Y0141734D01*
X0185635Y0136935D02*
X0186586Y0136935D01*
X0186903Y0136618D01*
X0186903Y0135984D01*
X0186586Y0135667D01*
X0185635Y0135667D01*
X0185635Y0135033D02*
X0185635Y0136935D01*
X0186269Y0135667D02*
X0186903Y0135033D01*
X0187845Y0135033D02*
X0189113Y0136301D01*
X0189113Y0136618D01*
X0188796Y0136935D01*
X0188162Y0136935D01*
X0187845Y0136618D01*
X0187845Y0135033D02*
X0189113Y0135033D01*
X0188796Y0126585D02*
X0189113Y0126268D01*
X0189113Y0125951D01*
X0188796Y0125634D01*
X0189113Y0125317D01*
X0189113Y0125000D01*
X0188796Y0124683D01*
X0188162Y0124683D01*
X0187845Y0125000D01*
X0188479Y0125634D02*
X0188796Y0125634D01*
X0188796Y0126585D02*
X0188162Y0126585D01*
X0187845Y0126268D01*
X0186903Y0126268D02*
X0186903Y0125634D01*
X0186586Y0125317D01*
X0185635Y0125317D01*
X0185635Y0124683D02*
X0185635Y0126585D01*
X0186586Y0126585D01*
X0186903Y0126268D01*
X0186269Y0125317D02*
X0186903Y0124683D01*
X0169113Y0125000D02*
X0169113Y0125317D01*
X0168796Y0125634D01*
X0167845Y0125634D01*
X0167845Y0125000D01*
X0168162Y0124683D01*
X0168796Y0124683D01*
X0169113Y0125000D01*
X0168479Y0126268D02*
X0167845Y0125634D01*
X0168479Y0126268D02*
X0169113Y0126585D01*
X0166903Y0126268D02*
X0166903Y0125634D01*
X0166586Y0125317D01*
X0165635Y0125317D01*
X0165635Y0124683D02*
X0165635Y0126585D01*
X0166586Y0126585D01*
X0166903Y0126268D01*
X0166269Y0125317D02*
X0166903Y0124683D01*
X0149113Y0125000D02*
X0149113Y0126268D01*
X0148796Y0126585D01*
X0148162Y0126585D01*
X0147845Y0126268D01*
X0147845Y0125951D01*
X0148162Y0125634D01*
X0149113Y0125634D01*
X0149113Y0125000D02*
X0148796Y0124683D01*
X0148162Y0124683D01*
X0147845Y0125000D01*
X0146903Y0124683D02*
X0146269Y0125317D01*
X0146586Y0125317D02*
X0145635Y0125317D01*
X0145635Y0124683D02*
X0145635Y0126585D01*
X0146586Y0126585D01*
X0146903Y0126268D01*
X0146903Y0125634D01*
X0146586Y0125317D01*
X0146903Y0165033D02*
X0146269Y0165667D01*
X0146586Y0165667D02*
X0145635Y0165667D01*
X0145635Y0165033D02*
X0145635Y0166935D01*
X0146586Y0166935D01*
X0146903Y0166618D01*
X0146903Y0165984D01*
X0146586Y0165667D01*
X0147845Y0165350D02*
X0147845Y0165033D01*
X0147845Y0165350D02*
X0149113Y0166618D01*
X0149113Y0166935D01*
X0147845Y0166935D01*
X0130218Y0166618D02*
X0128950Y0165350D01*
X0129267Y0165033D01*
X0129901Y0165033D01*
X0130218Y0165350D01*
X0130218Y0166618D01*
X0129901Y0166935D01*
X0129267Y0166935D01*
X0128950Y0166618D01*
X0128950Y0165350D01*
X0128008Y0165033D02*
X0126740Y0165033D01*
X0127374Y0165033D02*
X0127374Y0166935D01*
X0126740Y0166301D01*
X0125798Y0166618D02*
X0125798Y0165984D01*
X0125481Y0165667D01*
X0124530Y0165667D01*
X0124530Y0165033D02*
X0124530Y0166935D01*
X0125481Y0166935D01*
X0125798Y0166618D01*
X0125164Y0165667D02*
X0125798Y0165033D01*
X0130551Y0186683D02*
X0129801Y0187434D01*
X0130551Y0186683D02*
X0132053Y0186683D01*
X0132803Y0187434D01*
X0132803Y0188184D01*
X0132053Y0188935D01*
X0130551Y0188935D01*
X0129801Y0189686D01*
X0129801Y0190436D01*
X0130551Y0191187D01*
X0132053Y0191187D01*
X0132803Y0190436D01*
X0134405Y0191187D02*
X0134405Y0186683D01*
X0136657Y0186683D01*
X0137407Y0187434D01*
X0137407Y0190436D01*
X0136657Y0191187D01*
X0134405Y0191187D01*
X0139009Y0191187D02*
X0140510Y0191187D01*
X0139759Y0191187D02*
X0139759Y0186683D01*
X0139009Y0186683D02*
X0140510Y0186683D01*
X0142078Y0188935D02*
X0145080Y0188935D01*
X0146682Y0189686D02*
X0148183Y0191187D01*
X0148183Y0186683D01*
X0146682Y0186683D02*
X0149684Y0186683D01*
X0151286Y0186683D02*
X0154288Y0189686D01*
X0154288Y0190436D01*
X0153538Y0191187D01*
X0152036Y0191187D01*
X0151286Y0190436D01*
X0151286Y0186683D02*
X0154288Y0186683D01*
X0164801Y0186683D02*
X0167803Y0186683D01*
X0166302Y0186683D02*
X0166302Y0191187D01*
X0164801Y0189686D01*
X0169405Y0188935D02*
X0172407Y0188935D01*
X0174009Y0191187D02*
X0174009Y0186683D01*
X0175510Y0188184D01*
X0177011Y0186683D01*
X0177011Y0191187D01*
X0178612Y0191187D02*
X0180114Y0191187D01*
X0179363Y0191187D02*
X0179363Y0186683D01*
X0178612Y0186683D02*
X0180114Y0186683D01*
X0181682Y0186683D02*
X0181682Y0191187D01*
X0183934Y0191187D01*
X0184684Y0190436D01*
X0184684Y0188935D01*
X0183934Y0188184D01*
X0181682Y0188184D01*
X0183183Y0188184D02*
X0184684Y0186683D01*
X0186286Y0186683D02*
X0186286Y0191187D01*
X0189288Y0191187D01*
X0187787Y0188935D02*
X0186286Y0188935D01*
X0186286Y0186683D02*
X0189288Y0186683D01*
X0188479Y0166935D02*
X0188479Y0165033D01*
X0187845Y0165033D02*
X0189113Y0165033D01*
X0187845Y0166301D02*
X0188479Y0166935D01*
X0186903Y0166618D02*
X0186903Y0165984D01*
X0186586Y0165667D01*
X0185635Y0165667D01*
X0185635Y0165033D02*
X0185635Y0166935D01*
X0186586Y0166935D01*
X0186903Y0166618D01*
X0186269Y0165667D02*
X0186903Y0165033D01*
X0169113Y0165984D02*
X0167845Y0165984D01*
X0168796Y0166935D01*
X0168796Y0165033D01*
X0166903Y0165033D02*
X0166269Y0165667D01*
X0166586Y0165667D02*
X0165635Y0165667D01*
X0165635Y0165033D02*
X0165635Y0166935D01*
X0166586Y0166935D01*
X0166903Y0166618D01*
X0166903Y0165984D01*
X0166586Y0165667D01*
X0119288Y0186683D02*
X0116286Y0186683D01*
X0119288Y0189686D01*
X0119288Y0190436D01*
X0118538Y0191187D01*
X0117036Y0191187D01*
X0116286Y0190436D01*
X0113183Y0191187D02*
X0113183Y0186683D01*
X0111682Y0186683D02*
X0114684Y0186683D01*
X0111682Y0189686D02*
X0113183Y0191187D01*
X0110080Y0188935D02*
X0107078Y0188935D01*
X0105510Y0191187D02*
X0104009Y0191187D01*
X0104759Y0191187D02*
X0104759Y0186683D01*
X0104009Y0186683D02*
X0105510Y0186683D01*
X0102407Y0187434D02*
X0102407Y0190436D01*
X0101657Y0191187D01*
X0099405Y0191187D01*
X0099405Y0186683D01*
X0101657Y0186683D01*
X0102407Y0187434D01*
X0097803Y0187434D02*
X0097053Y0186683D01*
X0095551Y0186683D01*
X0094801Y0187434D01*
X0095551Y0188935D02*
X0097053Y0188935D01*
X0097803Y0188184D01*
X0097803Y0187434D01*
X0095551Y0188935D02*
X0094801Y0189686D01*
X0094801Y0190436D01*
X0095551Y0191187D01*
X0097053Y0191187D01*
X0097803Y0190436D01*
D13*
X0070628Y0108910D02*
X0067559Y0108910D01*
X0070628Y0105841D01*
X0071395Y0106608D01*
X0071395Y0108143D01*
X0070628Y0108910D01*
X0070628Y0105841D02*
X0067559Y0105841D01*
X0066791Y0106608D01*
X0066791Y0108143D01*
X0067559Y0108910D01*
X0067559Y0104306D02*
X0068326Y0104306D01*
X0069093Y0103539D01*
X0069093Y0102004D01*
X0068326Y0101237D01*
X0067559Y0101237D01*
X0066791Y0102004D01*
X0066791Y0103539D01*
X0067559Y0104306D01*
X0069093Y0103539D02*
X0069861Y0104306D01*
X0070628Y0104306D01*
X0071395Y0103539D01*
X0071395Y0102004D01*
X0070628Y0101237D01*
X0069861Y0101237D01*
X0069093Y0102004D01*
X0068326Y0099702D02*
X0067559Y0099702D01*
X0066791Y0098935D01*
X0066791Y0097400D01*
X0067559Y0096633D01*
X0066791Y0095098D02*
X0066791Y0092029D01*
X0071395Y0092029D01*
X0071395Y0095098D01*
X0071395Y0096633D02*
X0068326Y0099702D01*
X0071395Y0099702D02*
X0071395Y0096633D01*
X0069093Y0093564D02*
X0069093Y0092029D01*
X0066791Y0090494D02*
X0071395Y0090494D01*
X0071395Y0087425D02*
X0066791Y0087425D01*
X0068326Y0088960D01*
X0066791Y0090494D01*
X0067559Y0085891D02*
X0068326Y0085891D01*
X0069093Y0085123D01*
X0069093Y0082821D01*
X0071395Y0082821D02*
X0066791Y0082821D01*
X0066791Y0085123D01*
X0067559Y0085891D01*
X0069093Y0085123D02*
X0069861Y0085891D01*
X0070628Y0085891D01*
X0071395Y0085123D01*
X0071395Y0082821D01*
X0266781Y0041237D02*
X0266781Y0036633D01*
X0268315Y0038168D01*
X0269850Y0036633D01*
X0269850Y0041237D01*
X0272152Y0039702D02*
X0273686Y0039702D01*
X0274454Y0038935D01*
X0274454Y0036633D01*
X0272152Y0036633D01*
X0271385Y0037400D01*
X0272152Y0038168D01*
X0274454Y0038168D01*
X0275988Y0038935D02*
X0276756Y0039702D01*
X0279058Y0039702D01*
X0280592Y0039702D02*
X0282894Y0039702D01*
X0283662Y0038935D01*
X0283662Y0037400D01*
X0282894Y0036633D01*
X0280592Y0036633D01*
X0280592Y0035098D02*
X0280592Y0039702D01*
X0278290Y0038168D02*
X0276756Y0038168D01*
X0275988Y0038935D01*
X0275988Y0036633D02*
X0278290Y0036633D01*
X0279058Y0037400D01*
X0278290Y0038168D01*
X0285196Y0036633D02*
X0285196Y0041237D01*
X0286731Y0039702D01*
X0288266Y0041237D01*
X0288266Y0036633D01*
X0289800Y0037400D02*
X0290568Y0036633D01*
X0292102Y0036633D01*
X0292870Y0037400D01*
X0292870Y0038935D01*
X0292102Y0039702D01*
X0290568Y0039702D01*
X0289800Y0038935D01*
X0289800Y0037400D01*
X0294404Y0039702D02*
X0295939Y0039702D01*
X0295171Y0040470D02*
X0295171Y0037400D01*
X0295939Y0036633D01*
X0297473Y0037400D02*
X0297473Y0038935D01*
X0298241Y0039702D01*
X0299775Y0039702D01*
X0300543Y0038935D01*
X0300543Y0038168D01*
X0297473Y0038168D01*
X0297473Y0037400D02*
X0298241Y0036633D01*
X0299775Y0036633D01*
X0306681Y0039702D02*
X0308216Y0036633D01*
X0309751Y0039702D01*
X0311285Y0039702D02*
X0312820Y0041237D01*
X0312820Y0036633D01*
X0314354Y0036633D02*
X0311285Y0036633D01*
X0315889Y0036633D02*
X0315889Y0037400D01*
X0316656Y0037400D01*
X0316656Y0036633D01*
X0315889Y0036633D01*
X0318191Y0037400D02*
X0318958Y0036633D01*
X0320493Y0036633D01*
X0321260Y0037400D01*
X0321260Y0038935D01*
X0320493Y0039702D01*
X0319726Y0039702D01*
X0318191Y0038935D01*
X0318191Y0041237D01*
X0321260Y0041237D01*
D14*
X0334390Y0045241D02*
X0335457Y0044174D01*
X0336525Y0044174D01*
X0337592Y0045241D01*
X0337592Y0047377D01*
X0338660Y0048444D01*
X0339728Y0048444D01*
X0340795Y0047377D01*
X0340795Y0045241D01*
X0339728Y0044174D01*
X0334390Y0045241D02*
X0334390Y0047377D01*
X0335457Y0048444D01*
X0334390Y0050619D02*
X0334390Y0053822D01*
X0335457Y0054890D01*
X0339728Y0054890D01*
X0340795Y0053822D01*
X0340795Y0050619D01*
X0334390Y0050619D01*
X0337592Y0057065D02*
X0337592Y0061335D01*
X0335457Y0063510D02*
X0339728Y0063510D01*
X0340795Y0064578D01*
X0340795Y0066713D01*
X0339728Y0067781D01*
X0340795Y0069956D02*
X0336525Y0069956D01*
X0334390Y0072091D01*
X0336525Y0074226D01*
X0340795Y0074226D01*
X0340795Y0076401D02*
X0334390Y0076401D01*
X0334390Y0079604D01*
X0335457Y0080672D01*
X0337592Y0080672D01*
X0338660Y0079604D01*
X0338660Y0076401D01*
X0338660Y0078536D02*
X0340795Y0080672D01*
X0340795Y0082847D02*
X0334390Y0082847D01*
X0334390Y0086050D01*
X0335457Y0087117D01*
X0339728Y0087117D01*
X0340795Y0086050D01*
X0340795Y0082847D01*
X0337592Y0074226D02*
X0337592Y0069956D01*
X0335457Y0067781D02*
X0334390Y0066713D01*
X0334390Y0064578D01*
X0335457Y0063510D01*
X0299321Y0024639D02*
X0296118Y0024639D01*
X0296118Y0018233D01*
X0299321Y0018233D01*
X0300388Y0019301D01*
X0300388Y0020368D01*
X0299321Y0021436D01*
X0296118Y0021436D01*
X0293943Y0020368D02*
X0292875Y0021436D01*
X0290740Y0021436D01*
X0289672Y0022503D01*
X0289672Y0023571D01*
X0290740Y0024639D01*
X0292875Y0024639D01*
X0293943Y0023571D01*
X0299321Y0024639D02*
X0300388Y0023571D01*
X0300388Y0022503D01*
X0299321Y0021436D01*
X0293943Y0020368D02*
X0293943Y0019301D01*
X0292875Y0018233D01*
X0290740Y0018233D01*
X0289672Y0019301D01*
X0287497Y0019301D02*
X0286430Y0018233D01*
X0284294Y0018233D01*
X0283227Y0019301D01*
X0283227Y0024639D01*
X0287497Y0024639D02*
X0287497Y0019301D01*
X0106595Y0091433D02*
X0106595Y0101433D01*
X0106593Y0101493D01*
X0106588Y0101554D01*
X0106579Y0101613D01*
X0106566Y0101672D01*
X0106550Y0101731D01*
X0106530Y0101788D01*
X0106507Y0101843D01*
X0106480Y0101898D01*
X0106451Y0101950D01*
X0106418Y0102001D01*
X0106382Y0102050D01*
X0106344Y0102096D01*
X0106302Y0102140D01*
X0106258Y0102182D01*
X0106212Y0102220D01*
X0106163Y0102256D01*
X0106112Y0102289D01*
X0106060Y0102318D01*
X0106005Y0102345D01*
X0105950Y0102368D01*
X0105893Y0102388D01*
X0105834Y0102404D01*
X0105775Y0102417D01*
X0105716Y0102426D01*
X0105655Y0102431D01*
X0105595Y0102433D01*
X0099595Y0102433D01*
X0099535Y0102431D01*
X0099474Y0102426D01*
X0099415Y0102417D01*
X0099356Y0102404D01*
X0099297Y0102388D01*
X0099240Y0102368D01*
X0099185Y0102345D01*
X0099130Y0102318D01*
X0099078Y0102289D01*
X0099027Y0102256D01*
X0098978Y0102220D01*
X0098932Y0102182D01*
X0098888Y0102140D01*
X0098846Y0102096D01*
X0098808Y0102050D01*
X0098772Y0102001D01*
X0098739Y0101950D01*
X0098710Y0101898D01*
X0098683Y0101843D01*
X0098660Y0101788D01*
X0098640Y0101731D01*
X0098624Y0101672D01*
X0098611Y0101613D01*
X0098602Y0101554D01*
X0098597Y0101493D01*
X0098595Y0101433D01*
X0098595Y0091433D01*
X0098597Y0091373D01*
X0098602Y0091312D01*
X0098611Y0091253D01*
X0098624Y0091194D01*
X0098640Y0091135D01*
X0098660Y0091078D01*
X0098683Y0091023D01*
X0098710Y0090968D01*
X0098739Y0090916D01*
X0098772Y0090865D01*
X0098808Y0090816D01*
X0098846Y0090770D01*
X0098888Y0090726D01*
X0098932Y0090684D01*
X0098978Y0090646D01*
X0099027Y0090610D01*
X0099078Y0090577D01*
X0099130Y0090548D01*
X0099185Y0090521D01*
X0099240Y0090498D01*
X0099297Y0090478D01*
X0099356Y0090462D01*
X0099415Y0090449D01*
X0099474Y0090440D01*
X0099535Y0090435D01*
X0099595Y0090433D01*
X0105595Y0090433D01*
X0105655Y0090435D01*
X0105716Y0090440D01*
X0105775Y0090449D01*
X0105834Y0090462D01*
X0105893Y0090478D01*
X0105950Y0090498D01*
X0106005Y0090521D01*
X0106060Y0090548D01*
X0106112Y0090577D01*
X0106163Y0090610D01*
X0106212Y0090646D01*
X0106258Y0090684D01*
X0106302Y0090726D01*
X0106344Y0090770D01*
X0106382Y0090816D01*
X0106418Y0090865D01*
X0106451Y0090916D01*
X0106480Y0090968D01*
X0106507Y0091023D01*
X0106530Y0091078D01*
X0106550Y0091135D01*
X0106566Y0091194D01*
X0106579Y0091253D01*
X0106588Y0091312D01*
X0106593Y0091373D01*
X0106595Y0091433D01*
D15*
X0107595Y0068933D02*
X0107595Y0051433D01*
X0067595Y0051433D01*
X0067595Y0068933D01*
X0107595Y0068933D01*
X0112595Y0068933D02*
X0142595Y0068933D01*
X0142595Y0051433D01*
X0112595Y0051433D01*
X0112595Y0068933D01*
X0112595Y0051433D02*
X0112595Y0043933D01*
X0142595Y0043933D01*
X0142595Y0051433D01*
X0147595Y0051433D02*
X0177595Y0051433D01*
X0177595Y0043933D01*
X0147595Y0043933D01*
X0147595Y0051433D01*
X0147595Y0068933D01*
X0177595Y0068933D01*
X0177595Y0051433D01*
X0182595Y0051433D02*
X0212595Y0051433D01*
X0212595Y0043933D01*
X0182595Y0043933D01*
X0182595Y0051433D01*
X0182595Y0068933D01*
X0212595Y0068933D01*
X0212595Y0051433D01*
X0107595Y0051433D02*
X0107595Y0043933D01*
X0067595Y0043933D01*
X0067595Y0051433D01*
X0092595Y0193933D02*
X0092595Y0211433D01*
X0122595Y0211433D01*
X0122595Y0193933D01*
X0092595Y0193933D01*
X0092595Y0211433D02*
X0092595Y0218933D01*
X0122595Y0218933D01*
X0122595Y0211433D01*
X0127595Y0211433D02*
X0157595Y0211433D01*
X0157595Y0193933D01*
X0127595Y0193933D01*
X0127595Y0211433D01*
X0127595Y0218933D01*
X0157595Y0218933D01*
X0157595Y0211433D01*
X0162595Y0211433D02*
X0192595Y0211433D01*
X0192595Y0193933D01*
X0162595Y0193933D01*
X0162595Y0211433D01*
X0162595Y0218933D01*
X0192595Y0218933D01*
X0192595Y0211433D01*
D16*
X0073720Y0090058D03*
D17*
X0092430Y0129933D03*
D18*
X0092510Y0130100D03*
D19*
X0092430Y0130267D03*
D20*
X0092430Y0130433D03*
D21*
X0087930Y0130600D03*
X0096930Y0130600D03*
X0095930Y0139767D03*
X0082930Y0141267D03*
X0090930Y0153267D03*
X0089430Y0164100D03*
X0112430Y0159767D03*
D22*
X0093595Y0164100D03*
X0090095Y0157600D03*
X0071765Y0156600D03*
X0084765Y0141767D03*
X0095765Y0139600D03*
X0087425Y0130767D03*
D23*
X0097510Y0130767D03*
X0080180Y0170600D03*
X0087680Y0177100D03*
X0097180Y0177100D03*
D24*
X0098430Y0162433D03*
X0080930Y0149433D03*
X0072430Y0150433D03*
X0081430Y0140933D03*
X0086430Y0130933D03*
X0101930Y0136433D03*
D25*
X0097095Y0136933D03*
X0098595Y0130933D03*
X0088095Y0136933D03*
D26*
X0084345Y0133767D03*
X0086015Y0131100D03*
X0095515Y0137767D03*
X0102015Y0136267D03*
X0103345Y0135600D03*
X0098845Y0131100D03*
X0081515Y0140767D03*
X0072175Y0152267D03*
X0074345Y0165100D03*
X0088015Y0170767D03*
X0091345Y0170100D03*
X0092515Y0169600D03*
X0097175Y0170767D03*
X0097515Y0170600D03*
X0098845Y0174767D03*
X0099015Y0176600D03*
X0098675Y0176767D03*
X0108015Y0168600D03*
X0107845Y0166267D03*
X0109345Y0164600D03*
X0112175Y0161767D03*
X0098015Y0158600D03*
X0089845Y0153100D03*
X0085845Y0176600D03*
X0086175Y0176767D03*
D27*
X0088760Y0174100D03*
X0092260Y0173100D03*
X0092430Y0175767D03*
X0089760Y0168100D03*
X0097760Y0162267D03*
X0095930Y0156267D03*
X0080930Y0149267D03*
X0078930Y0138600D03*
X0085260Y0131267D03*
X0093930Y0134600D03*
X0098260Y0135267D03*
X0098430Y0132767D03*
D28*
X0099680Y0131267D03*
X0100680Y0131600D03*
X0102510Y0136100D03*
X0098180Y0137267D03*
X0093680Y0137100D03*
X0086010Y0137600D03*
X0082680Y0139600D03*
X0082510Y0139767D03*
X0079010Y0138767D03*
X0086010Y0142100D03*
X0084010Y0131767D03*
X0080510Y0151600D03*
X0074010Y0161100D03*
X0086510Y0170267D03*
X0084680Y0174267D03*
X0085510Y0174600D03*
X0090680Y0168767D03*
X0093180Y0164267D03*
X0095010Y0162767D03*
X0093010Y0161267D03*
X0098510Y0170267D03*
X0102010Y0170767D03*
X0100180Y0176267D03*
X0108010Y0168767D03*
X0110680Y0165267D03*
X0112180Y0156267D03*
D29*
X0111680Y0159433D03*
X0111010Y0161433D03*
X0099680Y0166433D03*
X0093010Y0164433D03*
X0088510Y0160933D03*
X0087180Y0162433D03*
X0077180Y0168933D03*
X0085180Y0176433D03*
X0098180Y0170433D03*
X0113510Y0150933D03*
X0100010Y0131433D03*
X0085010Y0131433D03*
D30*
X0084265Y0131600D03*
X0084425Y0136267D03*
X0085095Y0138100D03*
X0085765Y0137767D03*
X0084095Y0138600D03*
X0083925Y0138767D03*
X0083425Y0139100D03*
X0083095Y0139267D03*
X0081095Y0138100D03*
X0093925Y0134767D03*
X0098425Y0132600D03*
X0100925Y0131767D03*
X0099095Y0137600D03*
X0095095Y0139267D03*
X0112095Y0150100D03*
X0113595Y0151100D03*
X0100265Y0158100D03*
X0098765Y0162600D03*
X0098765Y0162767D03*
X0094925Y0162600D03*
X0092265Y0159267D03*
X0087265Y0162600D03*
X0088265Y0163767D03*
X0089595Y0167600D03*
X0089595Y0167767D03*
X0090595Y0168600D03*
X0091425Y0169100D03*
X0090265Y0169600D03*
X0092925Y0167600D03*
X0099095Y0170100D03*
X0100765Y0176100D03*
X0088595Y0174600D03*
X0084095Y0176100D03*
X0080595Y0170767D03*
X0077265Y0169100D03*
X0078595Y0167600D03*
X0075765Y0164100D03*
X0085925Y0170100D03*
X0088765Y0152767D03*
X0109595Y0164767D03*
X0110925Y0161267D03*
D31*
X0104930Y0168767D03*
X0104260Y0169767D03*
X0100760Y0169267D03*
X0103930Y0174600D03*
X0103760Y0174767D03*
X0094930Y0166767D03*
X0092430Y0164767D03*
X0089430Y0160600D03*
X0094930Y0159767D03*
X0096260Y0158600D03*
X0084930Y0169600D03*
X0084260Y0169267D03*
X0083930Y0169100D03*
X0079930Y0171767D03*
X0080430Y0174267D03*
X0081260Y0174767D03*
X0081930Y0175100D03*
X0077260Y0169267D03*
X0076260Y0168267D03*
X0077930Y0166767D03*
X0071430Y0159267D03*
X0072930Y0154100D03*
X0074430Y0144267D03*
X0074430Y0144100D03*
X0079260Y0139267D03*
X0082430Y0142267D03*
X0087430Y0142600D03*
X0094260Y0137267D03*
X0097760Y0140267D03*
X0101930Y0139100D03*
X0105430Y0139100D03*
X0106930Y0137600D03*
X0104260Y0133267D03*
X0103930Y0133100D03*
X0103260Y0132767D03*
X0093760Y0131767D03*
X0081930Y0132600D03*
X0081760Y0132767D03*
X0110430Y0143600D03*
X0092760Y0174267D03*
D32*
X0092265Y0172933D03*
X0089595Y0167933D03*
X0093095Y0167433D03*
X0096095Y0163433D03*
X0096095Y0158933D03*
X0098595Y0158933D03*
X0094925Y0153933D03*
X0082425Y0142433D03*
X0082925Y0139433D03*
X0083595Y0138933D03*
X0084425Y0138433D03*
X0085265Y0137933D03*
X0086595Y0137433D03*
X0089265Y0134933D03*
X0083425Y0131933D03*
X0079425Y0137433D03*
X0079095Y0138933D03*
X0097095Y0139933D03*
X0098425Y0137433D03*
X0102765Y0135933D03*
X0103925Y0135433D03*
X0113595Y0157433D03*
X0109925Y0164933D03*
X0110765Y0165433D03*
X0101095Y0175933D03*
X0083925Y0175933D03*
D33*
X0082015Y0172933D03*
X0080675Y0174433D03*
X0079845Y0173933D03*
X0079015Y0173433D03*
X0080515Y0168933D03*
X0082175Y0167933D03*
X0082845Y0168433D03*
X0083675Y0168933D03*
X0083345Y0170933D03*
X0086015Y0171933D03*
X0089845Y0172933D03*
X0099515Y0172433D03*
X0102515Y0173433D03*
X0104345Y0174433D03*
X0105015Y0173933D03*
X0104015Y0169433D03*
X0101345Y0168933D03*
X0108015Y0168933D03*
X0109015Y0166933D03*
X0107845Y0165933D03*
X0111675Y0159933D03*
X0112675Y0156433D03*
X0099675Y0155933D03*
X0094345Y0161933D03*
X0095675Y0162933D03*
X0091675Y0161933D03*
X0088015Y0161433D03*
X0089515Y0157433D03*
X0089345Y0167433D03*
X0077175Y0167433D03*
X0074675Y0166433D03*
X0088675Y0143433D03*
X0088015Y0142933D03*
X0081345Y0140433D03*
X0079345Y0139433D03*
X0077675Y0137933D03*
X0079015Y0136933D03*
X0080015Y0135933D03*
X0080345Y0136433D03*
X0080675Y0136933D03*
X0081015Y0137433D03*
X0083015Y0134433D03*
X0083345Y0133933D03*
X0085015Y0133933D03*
X0080515Y0133433D03*
X0079675Y0133933D03*
X0089175Y0131933D03*
X0098015Y0140433D03*
X0099015Y0143433D03*
X0101675Y0138933D03*
X0103175Y0139933D03*
X0106515Y0137933D03*
X0107345Y0135433D03*
X0106015Y0134433D03*
X0105345Y0133933D03*
X0110345Y0143433D03*
D34*
X0093345Y0136933D03*
X0093845Y0131933D03*
X0093015Y0161433D03*
X0089515Y0164433D03*
X0092675Y0168433D03*
D35*
X0090510Y0168433D03*
X0092510Y0165433D03*
X0094180Y0163933D03*
X0092010Y0159433D03*
X0095510Y0156433D03*
X0087510Y0161933D03*
X0085680Y0169933D03*
X0092510Y0174433D03*
X0092510Y0175933D03*
X0088510Y0174933D03*
X0082510Y0175433D03*
X0075180Y0164433D03*
X0072680Y0155933D03*
X0071010Y0154933D03*
X0101510Y0131933D03*
X0102510Y0132433D03*
X0112180Y0155933D03*
X0113180Y0159933D03*
X0112510Y0161933D03*
X0109010Y0164433D03*
D36*
X0110180Y0165100D03*
X0111510Y0159267D03*
X0113510Y0157600D03*
X0112180Y0156100D03*
X0113510Y0151267D03*
X0100510Y0158267D03*
X0098510Y0158767D03*
X0096180Y0158767D03*
X0096180Y0161100D03*
X0096180Y0161267D03*
X0092680Y0164600D03*
X0092510Y0165267D03*
X0093010Y0167767D03*
X0093180Y0168767D03*
X0091510Y0169267D03*
X0095010Y0166600D03*
X0089510Y0164600D03*
X0087510Y0163100D03*
X0087510Y0161767D03*
X0088180Y0161267D03*
X0090510Y0160100D03*
X0091180Y0159767D03*
X0091510Y0159600D03*
X0080510Y0151767D03*
X0072180Y0155600D03*
X0071510Y0155267D03*
X0071180Y0155100D03*
X0071180Y0156767D03*
X0072510Y0161767D03*
X0074680Y0164767D03*
X0077680Y0167100D03*
X0080510Y0169100D03*
X0085180Y0169767D03*
X0085680Y0174767D03*
X0083010Y0175600D03*
X0088510Y0174767D03*
X0092180Y0174600D03*
X0101680Y0175767D03*
X0102510Y0173267D03*
X0102010Y0170600D03*
X0099180Y0143600D03*
X0096180Y0137267D03*
X0101510Y0136600D03*
X0104010Y0135267D03*
X0103010Y0132600D03*
X0089180Y0132100D03*
X0083180Y0132100D03*
X0082680Y0132267D03*
X0084680Y0138267D03*
X0086680Y0142267D03*
X0079180Y0139100D03*
D37*
X0080930Y0137767D03*
X0089260Y0134767D03*
X0093760Y0132100D03*
X0079430Y0149767D03*
X0072930Y0158600D03*
X0071930Y0159100D03*
X0078430Y0168100D03*
X0093260Y0159100D03*
X0097430Y0164100D03*
X0098930Y0174600D03*
D38*
X0101845Y0175600D03*
X0099845Y0169767D03*
X0099845Y0166767D03*
X0099845Y0166600D03*
X0095845Y0163267D03*
X0090845Y0167267D03*
X0089845Y0165600D03*
X0087345Y0162767D03*
X0094845Y0159600D03*
X0097345Y0158100D03*
X0107845Y0166100D03*
X0083345Y0175767D03*
X0082345Y0175267D03*
X0079845Y0171600D03*
X0076345Y0168100D03*
X0074845Y0164600D03*
X0072845Y0156100D03*
X0072345Y0155767D03*
X0081845Y0141100D03*
X0079345Y0137267D03*
X0097345Y0140100D03*
X0099345Y0137767D03*
X0101845Y0132100D03*
X0102345Y0132267D03*
X0106845Y0137767D03*
X0110345Y0143767D03*
D39*
X0099345Y0143767D03*
X0086845Y0137267D03*
X0084345Y0133600D03*
X0088845Y0132267D03*
X0088345Y0161100D03*
X0089845Y0165767D03*
X0092845Y0168600D03*
X0098845Y0172100D03*
X0084845Y0176267D03*
D40*
X0088515Y0175267D03*
X0088345Y0173767D03*
X0089845Y0173100D03*
X0093015Y0174100D03*
X0093015Y0175600D03*
X0099675Y0172600D03*
X0099345Y0172267D03*
X0101175Y0169100D03*
X0101675Y0168767D03*
X0102015Y0168600D03*
X0102675Y0168100D03*
X0103175Y0167767D03*
X0103345Y0167600D03*
X0105015Y0168600D03*
X0105015Y0170600D03*
X0105675Y0171267D03*
X0107015Y0172600D03*
X0106845Y0172767D03*
X0106345Y0173100D03*
X0105675Y0173600D03*
X0105345Y0173767D03*
X0104845Y0174100D03*
X0104515Y0174267D03*
X0107675Y0172100D03*
X0107175Y0168267D03*
X0107015Y0168100D03*
X0108675Y0166600D03*
X0108845Y0166767D03*
X0110845Y0165600D03*
X0109015Y0164267D03*
X0112675Y0162100D03*
X0113345Y0160100D03*
X0096345Y0161600D03*
X0095675Y0163100D03*
X0094345Y0163600D03*
X0094345Y0163767D03*
X0094515Y0162100D03*
X0092175Y0161600D03*
X0092015Y0161767D03*
X0091515Y0162100D03*
X0089175Y0160767D03*
X0087675Y0163267D03*
X0089675Y0164767D03*
X0090675Y0167100D03*
X0086015Y0172100D03*
X0083345Y0171100D03*
X0083345Y0168767D03*
X0083175Y0168600D03*
X0082675Y0168267D03*
X0082345Y0168100D03*
X0078015Y0166600D03*
X0077345Y0167267D03*
X0074675Y0166267D03*
X0072845Y0163100D03*
X0070845Y0154767D03*
X0071015Y0149767D03*
X0074345Y0143767D03*
X0079345Y0139600D03*
X0081175Y0140600D03*
X0077675Y0138100D03*
X0080015Y0136100D03*
X0078675Y0134600D03*
X0078015Y0135100D03*
X0080015Y0133767D03*
X0080175Y0133600D03*
X0080675Y0133267D03*
X0083015Y0134267D03*
X0083175Y0134100D03*
X0085175Y0134100D03*
X0085345Y0134267D03*
X0084015Y0136100D03*
X0088515Y0134600D03*
X0089175Y0135100D03*
X0093015Y0132267D03*
X0097675Y0133100D03*
X0098515Y0135600D03*
X0101345Y0136767D03*
X0101175Y0138600D03*
X0101345Y0138767D03*
X0102675Y0139600D03*
X0103345Y0140100D03*
X0105345Y0139267D03*
X0106345Y0138100D03*
X0106515Y0134767D03*
X0106345Y0134600D03*
X0105845Y0134267D03*
X0105515Y0134100D03*
X0105015Y0133767D03*
X0104845Y0133600D03*
X0110345Y0144100D03*
X0110345Y0144267D03*
X0088175Y0143100D03*
X0088675Y0152600D03*
X0080345Y0152100D03*
X0093515Y0158767D03*
X0082015Y0173100D03*
X0081015Y0174600D03*
X0080015Y0174100D03*
X0079515Y0173767D03*
X0079345Y0173600D03*
X0078015Y0172600D03*
D41*
X0084430Y0169433D03*
X0090930Y0167433D03*
X0093260Y0169433D03*
X0087760Y0163433D03*
X0087430Y0162933D03*
X0094760Y0162433D03*
X0096260Y0161433D03*
X0107260Y0168433D03*
X0105430Y0170933D03*
X0103260Y0174933D03*
X0102430Y0175433D03*
X0098760Y0174933D03*
X0075760Y0163933D03*
X0072930Y0162933D03*
X0073430Y0158433D03*
X0071760Y0155433D03*
X0072430Y0152433D03*
X0080430Y0151933D03*
X0074430Y0144433D03*
X0074430Y0143933D03*
X0086930Y0142433D03*
X0099930Y0143933D03*
X0100760Y0138433D03*
X0104430Y0133433D03*
X0110430Y0143933D03*
X0088430Y0132433D03*
X0082430Y0132433D03*
X0081260Y0132933D03*
D42*
X0078930Y0134433D03*
X0078260Y0134933D03*
X0076930Y0135933D03*
X0076430Y0136433D03*
X0075930Y0136933D03*
X0075430Y0137433D03*
X0074930Y0137933D03*
X0079260Y0138433D03*
X0083930Y0135933D03*
X0083430Y0134933D03*
X0085430Y0134433D03*
X0087930Y0133433D03*
X0088260Y0134433D03*
X0092760Y0132933D03*
X0092930Y0132433D03*
X0097260Y0133933D03*
X0097430Y0133433D03*
X0102760Y0137433D03*
X0102430Y0139433D03*
X0103760Y0140433D03*
X0104430Y0140933D03*
X0105260Y0139433D03*
X0106930Y0137433D03*
X0107930Y0135933D03*
X0106760Y0134933D03*
X0089760Y0144433D03*
X0089260Y0143933D03*
X0079260Y0142433D03*
X0078930Y0153433D03*
X0078760Y0154433D03*
X0079260Y0154933D03*
X0079760Y0155433D03*
X0080260Y0155933D03*
X0080760Y0156433D03*
X0081260Y0156933D03*
X0081760Y0157433D03*
X0082260Y0157933D03*
X0082760Y0158433D03*
X0079430Y0165433D03*
X0080930Y0166933D03*
X0081430Y0167433D03*
X0077260Y0169433D03*
X0076260Y0168433D03*
X0077760Y0172433D03*
X0078430Y0172933D03*
X0082760Y0171933D03*
X0085760Y0172433D03*
X0089760Y0169433D03*
X0089930Y0165433D03*
X0090260Y0163433D03*
X0091260Y0163433D03*
X0092760Y0163933D03*
X0092260Y0164933D03*
X0094430Y0163433D03*
X0094930Y0159933D03*
X0094430Y0159433D03*
X0104760Y0166433D03*
X0102930Y0167933D03*
X0102260Y0168433D03*
X0104430Y0169933D03*
X0104930Y0170433D03*
X0103260Y0172933D03*
X0105930Y0173433D03*
X0107260Y0172433D03*
X0107760Y0171933D03*
X0108430Y0171433D03*
X0108930Y0170933D03*
X0109930Y0169933D03*
X0106930Y0167933D03*
X0101260Y0170933D03*
X0097930Y0172433D03*
X0097760Y0173933D03*
X0091760Y0174933D03*
X0091760Y0175433D03*
X0075430Y0165433D03*
X0111930Y0160433D03*
X0112260Y0160933D03*
D43*
X0112180Y0160767D03*
X0113510Y0160267D03*
X0115180Y0160600D03*
X0115180Y0160767D03*
X0115510Y0159767D03*
X0115510Y0159600D03*
X0114510Y0162600D03*
X0114510Y0162767D03*
X0114180Y0163600D03*
X0113510Y0164767D03*
X0113010Y0165767D03*
X0112680Y0166267D03*
X0112510Y0166600D03*
X0112180Y0167100D03*
X0112010Y0167267D03*
X0111680Y0167767D03*
X0111510Y0168100D03*
X0111010Y0168600D03*
X0110680Y0169100D03*
X0110510Y0169267D03*
X0110180Y0169600D03*
X0109180Y0170767D03*
X0109180Y0168100D03*
X0109180Y0167267D03*
X0106680Y0167600D03*
X0105510Y0165600D03*
X0106180Y0164767D03*
X0106510Y0164267D03*
X0107010Y0163767D03*
X0107680Y0162600D03*
X0108180Y0161767D03*
X0108180Y0161600D03*
X0108510Y0161100D03*
X0108680Y0160600D03*
X0109010Y0159767D03*
X0109180Y0159267D03*
X0109180Y0159100D03*
X0109510Y0158267D03*
X0109510Y0158100D03*
X0111180Y0159100D03*
X0111510Y0157267D03*
X0113010Y0157100D03*
X0112180Y0155767D03*
X0116180Y0155767D03*
X0116180Y0155600D03*
X0116180Y0155267D03*
X0116180Y0155100D03*
X0116180Y0154767D03*
X0116180Y0154600D03*
X0116180Y0154267D03*
X0116180Y0154100D03*
X0116180Y0153767D03*
X0116180Y0153600D03*
X0116180Y0153267D03*
X0116180Y0153100D03*
X0116180Y0152767D03*
X0116180Y0152600D03*
X0116180Y0152267D03*
X0116180Y0152100D03*
X0114180Y0150767D03*
X0114010Y0150100D03*
X0115510Y0148267D03*
X0115510Y0148100D03*
X0115180Y0147100D03*
X0114510Y0145100D03*
X0114180Y0144267D03*
X0113680Y0143267D03*
X0113510Y0142767D03*
X0113180Y0142267D03*
X0112510Y0141267D03*
X0112510Y0141100D03*
X0112180Y0140767D03*
X0112180Y0140600D03*
X0111510Y0139767D03*
X0111510Y0139600D03*
X0111180Y0139267D03*
X0111010Y0139100D03*
X0110680Y0138600D03*
X0110180Y0138100D03*
X0109180Y0137100D03*
X0108180Y0136100D03*
X0105510Y0139600D03*
X0104510Y0141100D03*
X0105180Y0141767D03*
X0105510Y0142100D03*
X0105680Y0142267D03*
X0106510Y0143267D03*
X0106680Y0143600D03*
X0107180Y0144267D03*
X0107510Y0144767D03*
X0107680Y0145100D03*
X0108180Y0146100D03*
X0108510Y0146600D03*
X0108510Y0146767D03*
X0108680Y0147100D03*
X0109180Y0148267D03*
X0109180Y0148600D03*
X0109510Y0149600D03*
X0109510Y0149767D03*
X0111510Y0151267D03*
X0100180Y0147267D03*
X0100180Y0147100D03*
X0100180Y0146767D03*
X0100180Y0146600D03*
X0100180Y0146267D03*
X0093510Y0146767D03*
X0093510Y0147100D03*
X0093510Y0147267D03*
X0092180Y0148767D03*
X0092510Y0150100D03*
X0092510Y0150267D03*
X0093010Y0153267D03*
X0094180Y0153267D03*
X0095180Y0153267D03*
X0095180Y0153100D03*
X0095180Y0152767D03*
X0095180Y0152600D03*
X0095510Y0155767D03*
X0094510Y0157100D03*
X0094180Y0157600D03*
X0094010Y0157767D03*
X0095510Y0159100D03*
X0096510Y0159100D03*
X0098180Y0159100D03*
X0098180Y0159267D03*
X0098180Y0159600D03*
X0098180Y0159767D03*
X0098180Y0160100D03*
X0098180Y0160267D03*
X0098180Y0160600D03*
X0098180Y0160767D03*
X0098180Y0161100D03*
X0098180Y0161267D03*
X0098180Y0161600D03*
X0098180Y0161767D03*
X0098180Y0163100D03*
X0098180Y0163267D03*
X0098180Y0164267D03*
X0098180Y0164600D03*
X0098180Y0164767D03*
X0099180Y0163600D03*
X0099180Y0163267D03*
X0099180Y0163100D03*
X0100180Y0163600D03*
X0100180Y0163767D03*
X0100180Y0164100D03*
X0100180Y0164267D03*
X0100180Y0164600D03*
X0100180Y0164767D03*
X0100180Y0165100D03*
X0100180Y0165267D03*
X0100180Y0165600D03*
X0100180Y0165767D03*
X0100180Y0166100D03*
X0100180Y0166267D03*
X0096510Y0164767D03*
X0094510Y0163267D03*
X0094510Y0163100D03*
X0095510Y0160767D03*
X0095510Y0160600D03*
X0095180Y0160267D03*
X0099180Y0159267D03*
X0099180Y0159100D03*
X0099510Y0159767D03*
X0099510Y0160100D03*
X0099510Y0161100D03*
X0099510Y0161267D03*
X0099510Y0161600D03*
X0100510Y0162100D03*
X0100510Y0162267D03*
X0099510Y0157100D03*
X0099510Y0156767D03*
X0098510Y0155767D03*
X0099510Y0154767D03*
X0099510Y0154600D03*
X0099510Y0154267D03*
X0099510Y0154100D03*
X0099510Y0153767D03*
X0091510Y0147100D03*
X0091180Y0146267D03*
X0091010Y0146100D03*
X0090510Y0145267D03*
X0093180Y0145100D03*
X0093180Y0144767D03*
X0093180Y0144600D03*
X0092510Y0141267D03*
X0092510Y0141100D03*
X0092510Y0140767D03*
X0092180Y0139267D03*
X0092180Y0139100D03*
X0094680Y0138767D03*
X0095010Y0138267D03*
X0095180Y0138100D03*
X0097510Y0135100D03*
X0097180Y0134600D03*
X0097180Y0134267D03*
X0097180Y0134100D03*
X0097510Y0133267D03*
X0094510Y0134267D03*
X0093010Y0134267D03*
X0092680Y0133600D03*
X0092680Y0133267D03*
X0092680Y0133100D03*
X0088180Y0132600D03*
X0088010Y0133767D03*
X0088180Y0134267D03*
X0085510Y0134600D03*
X0085510Y0134767D03*
X0085510Y0135100D03*
X0085510Y0135267D03*
X0085510Y0135600D03*
X0085510Y0135767D03*
X0085180Y0136100D03*
X0084010Y0136767D03*
X0083510Y0135100D03*
X0083180Y0134600D03*
X0080180Y0135767D03*
X0079180Y0137767D03*
X0079180Y0138100D03*
X0080510Y0141100D03*
X0080010Y0141600D03*
X0079510Y0142100D03*
X0079180Y0142600D03*
X0079010Y0142767D03*
X0078680Y0143100D03*
X0078510Y0143267D03*
X0078180Y0143767D03*
X0078010Y0144100D03*
X0077680Y0144600D03*
X0077510Y0144767D03*
X0077010Y0145767D03*
X0076510Y0146767D03*
X0076180Y0147600D03*
X0076180Y0147767D03*
X0075510Y0149600D03*
X0075510Y0149767D03*
X0075180Y0151267D03*
X0075180Y0151600D03*
X0075180Y0151767D03*
X0073180Y0150600D03*
X0070510Y0152267D03*
X0069180Y0149767D03*
X0069180Y0149600D03*
X0069180Y0149267D03*
X0069510Y0148267D03*
X0069510Y0148100D03*
X0070180Y0145767D03*
X0070510Y0145100D03*
X0071180Y0143600D03*
X0071510Y0142767D03*
X0072180Y0141767D03*
X0072180Y0141600D03*
X0072510Y0141100D03*
X0073010Y0140267D03*
X0073180Y0140100D03*
X0073510Y0139767D03*
X0073510Y0139600D03*
X0074180Y0138767D03*
X0074680Y0138267D03*
X0075180Y0137600D03*
X0075510Y0137267D03*
X0082510Y0140267D03*
X0082680Y0140100D03*
X0081510Y0143100D03*
X0081010Y0143600D03*
X0080680Y0144100D03*
X0080510Y0144267D03*
X0080180Y0144767D03*
X0080010Y0145100D03*
X0079510Y0145767D03*
X0079180Y0146267D03*
X0078510Y0147767D03*
X0078510Y0148100D03*
X0079680Y0151100D03*
X0080180Y0152267D03*
X0081510Y0151100D03*
X0082510Y0151100D03*
X0082180Y0150100D03*
X0083180Y0152600D03*
X0083510Y0153267D03*
X0083680Y0153767D03*
X0084180Y0154767D03*
X0084510Y0155600D03*
X0084510Y0155767D03*
X0084680Y0156100D03*
X0085180Y0157100D03*
X0085180Y0157267D03*
X0085510Y0158100D03*
X0086010Y0159267D03*
X0086180Y0159600D03*
X0086180Y0159767D03*
X0086510Y0160267D03*
X0086680Y0160767D03*
X0086010Y0161767D03*
X0085510Y0161267D03*
X0085010Y0160767D03*
X0084510Y0160267D03*
X0084010Y0159767D03*
X0083510Y0159267D03*
X0083010Y0158767D03*
X0088180Y0159600D03*
X0088180Y0159767D03*
X0088510Y0158767D03*
X0088680Y0158600D03*
X0089180Y0156767D03*
X0088510Y0154767D03*
X0088510Y0154600D03*
X0088180Y0153600D03*
X0088180Y0153267D03*
X0088180Y0151767D03*
X0088180Y0151600D03*
X0087510Y0149267D03*
X0087510Y0149100D03*
X0087180Y0147767D03*
X0086510Y0146767D03*
X0086180Y0146267D03*
X0085680Y0145767D03*
X0085510Y0145600D03*
X0084680Y0144600D03*
X0084180Y0144100D03*
X0083510Y0143267D03*
X0078510Y0154100D03*
X0075180Y0155767D03*
X0075180Y0156100D03*
X0075180Y0156267D03*
X0075510Y0157767D03*
X0075510Y0158100D03*
X0073510Y0158267D03*
X0076180Y0160100D03*
X0076180Y0160267D03*
X0076510Y0160767D03*
X0076680Y0161267D03*
X0077180Y0162267D03*
X0077510Y0162767D03*
X0077680Y0163100D03*
X0078010Y0163600D03*
X0078180Y0163767D03*
X0078510Y0164267D03*
X0078680Y0164600D03*
X0079180Y0165100D03*
X0079510Y0165600D03*
X0079680Y0165767D03*
X0080010Y0166100D03*
X0080180Y0166267D03*
X0080510Y0166600D03*
X0081010Y0169267D03*
X0083180Y0170600D03*
X0082180Y0173267D03*
X0085180Y0173767D03*
X0085510Y0173100D03*
X0089180Y0174267D03*
X0089510Y0173600D03*
X0091680Y0173267D03*
X0093180Y0173600D03*
X0093180Y0173767D03*
X0091680Y0175267D03*
X0088510Y0175600D03*
X0089680Y0169267D03*
X0089510Y0169100D03*
X0089180Y0168600D03*
X0090510Y0166600D03*
X0090510Y0166100D03*
X0089180Y0166100D03*
X0091510Y0167767D03*
X0093510Y0167100D03*
X0093180Y0166267D03*
X0093180Y0166100D03*
X0093510Y0169100D03*
X0093510Y0169267D03*
X0097680Y0172767D03*
X0097510Y0173100D03*
X0097680Y0173600D03*
X0100010Y0173600D03*
X0100010Y0173767D03*
X0100010Y0174100D03*
X0102010Y0172600D03*
X0102180Y0172267D03*
X0102510Y0171767D03*
X0102510Y0171600D03*
X0103510Y0172600D03*
X0103510Y0172767D03*
X0101180Y0171100D03*
X0101010Y0171267D03*
X0104180Y0169100D03*
X0104510Y0166600D03*
X0110510Y0164267D03*
X0110510Y0164100D03*
X0111510Y0164100D03*
X0111680Y0164267D03*
X0110510Y0161100D03*
X0090510Y0163100D03*
X0079180Y0171267D03*
X0076180Y0171100D03*
X0075180Y0170100D03*
X0074510Y0169267D03*
X0074010Y0168767D03*
X0073680Y0168267D03*
X0073510Y0168100D03*
X0073180Y0167600D03*
X0072510Y0166767D03*
X0072510Y0166600D03*
X0072180Y0166100D03*
X0071680Y0165267D03*
X0071180Y0164267D03*
X0070510Y0162767D03*
X0070510Y0162600D03*
X0070180Y0161767D03*
X0069510Y0159767D03*
X0069510Y0159600D03*
X0069180Y0158267D03*
X0069180Y0158100D03*
X0073510Y0162600D03*
X0074010Y0162100D03*
X0076510Y0164600D03*
X0076680Y0165267D03*
X0102510Y0135267D03*
X0102510Y0135100D03*
X0102510Y0134600D03*
X0102510Y0134267D03*
D44*
X0102845Y0136767D03*
X0102845Y0137100D03*
X0102845Y0137600D03*
X0099345Y0133100D03*
X0097345Y0134767D03*
X0092845Y0134100D03*
X0092845Y0132600D03*
X0091845Y0137600D03*
X0091845Y0137767D03*
X0092845Y0142600D03*
X0092845Y0142767D03*
X0092845Y0143100D03*
X0094845Y0143100D03*
X0094845Y0143267D03*
X0094845Y0143600D03*
X0094845Y0143767D03*
X0094845Y0144100D03*
X0094845Y0144267D03*
X0094845Y0144600D03*
X0094845Y0144767D03*
X0094845Y0145100D03*
X0094845Y0145267D03*
X0094845Y0145600D03*
X0094845Y0145767D03*
X0091845Y0147767D03*
X0090845Y0145767D03*
X0090345Y0145100D03*
X0086845Y0147100D03*
X0084845Y0144767D03*
X0084345Y0144267D03*
X0083845Y0143600D03*
X0083345Y0143100D03*
X0081845Y0142767D03*
X0081345Y0143267D03*
X0080845Y0143767D03*
X0080345Y0144600D03*
X0079845Y0145267D03*
X0079345Y0146100D03*
X0078845Y0147100D03*
X0076845Y0146100D03*
X0077345Y0145100D03*
X0077845Y0144267D03*
X0078345Y0143600D03*
X0079845Y0141767D03*
X0080345Y0141267D03*
X0082345Y0140600D03*
X0083845Y0135767D03*
X0078845Y0136767D03*
X0074845Y0138100D03*
X0074345Y0138600D03*
X0073845Y0139267D03*
X0072845Y0140600D03*
X0071845Y0142100D03*
X0071845Y0142267D03*
X0070845Y0144100D03*
X0070845Y0144267D03*
X0069845Y0146767D03*
X0068845Y0151600D03*
X0068845Y0151767D03*
X0068845Y0152100D03*
X0068845Y0152267D03*
X0068845Y0152600D03*
X0068845Y0152767D03*
X0068845Y0153100D03*
X0068845Y0153267D03*
X0068845Y0154600D03*
X0068845Y0154767D03*
X0068845Y0155100D03*
X0068845Y0155267D03*
X0068845Y0155600D03*
X0068845Y0155767D03*
X0068845Y0156100D03*
X0069845Y0160767D03*
X0069845Y0161100D03*
X0070845Y0163600D03*
X0071345Y0164600D03*
X0071845Y0165600D03*
X0072845Y0167100D03*
X0072845Y0167267D03*
X0073845Y0168600D03*
X0074345Y0169100D03*
X0074845Y0169767D03*
X0075845Y0170767D03*
X0081345Y0169767D03*
X0082845Y0171767D03*
X0087845Y0173100D03*
X0093345Y0168100D03*
X0091345Y0167600D03*
X0089845Y0165267D03*
X0090345Y0163267D03*
X0090845Y0162767D03*
X0090845Y0162600D03*
X0086845Y0161267D03*
X0086845Y0161100D03*
X0085845Y0161600D03*
X0085345Y0161100D03*
X0084845Y0160600D03*
X0084345Y0160100D03*
X0083845Y0159600D03*
X0083345Y0159100D03*
X0085845Y0158767D03*
X0084845Y0156600D03*
X0084345Y0155267D03*
X0083845Y0154267D03*
X0083845Y0154100D03*
X0082845Y0151767D03*
X0081845Y0149767D03*
X0079845Y0151267D03*
X0079345Y0150767D03*
X0079345Y0150600D03*
X0079845Y0152600D03*
X0075845Y0148600D03*
X0087845Y0150100D03*
X0087845Y0150267D03*
X0092845Y0151600D03*
X0092845Y0151767D03*
X0093845Y0150267D03*
X0093845Y0150100D03*
X0093845Y0149767D03*
X0093845Y0149600D03*
X0099845Y0150100D03*
X0099845Y0150267D03*
X0099845Y0150600D03*
X0099845Y0150767D03*
X0099845Y0151100D03*
X0095345Y0154100D03*
X0094345Y0157267D03*
X0099845Y0157600D03*
X0099845Y0157767D03*
X0100845Y0157600D03*
X0100845Y0156767D03*
X0100845Y0161100D03*
X0100845Y0161267D03*
X0097345Y0161767D03*
X0104845Y0166267D03*
X0105345Y0165767D03*
X0105845Y0165267D03*
X0106345Y0164600D03*
X0106845Y0166600D03*
X0108845Y0164100D03*
X0109345Y0163267D03*
X0107845Y0162267D03*
X0108845Y0160267D03*
X0108845Y0160100D03*
X0111845Y0160267D03*
X0114845Y0161600D03*
X0114845Y0161767D03*
X0114345Y0163100D03*
X0113845Y0164100D03*
X0113845Y0164267D03*
X0112845Y0166100D03*
X0111845Y0167600D03*
X0111345Y0168267D03*
X0110845Y0165767D03*
X0115845Y0158267D03*
X0115845Y0158100D03*
X0115845Y0157767D03*
X0112845Y0156767D03*
X0112845Y0156600D03*
X0109845Y0156600D03*
X0109845Y0156767D03*
X0109845Y0156267D03*
X0109845Y0156100D03*
X0111845Y0151767D03*
X0109845Y0151600D03*
X0109845Y0151267D03*
X0109845Y0151100D03*
X0108845Y0147600D03*
X0107845Y0145267D03*
X0106845Y0143767D03*
X0106345Y0143100D03*
X0100345Y0144267D03*
X0109845Y0137767D03*
X0110345Y0138267D03*
X0108845Y0136767D03*
X0106845Y0137267D03*
X0111845Y0140100D03*
X0111845Y0140267D03*
X0112845Y0141600D03*
X0112845Y0141767D03*
X0113345Y0142600D03*
X0113845Y0143600D03*
X0114845Y0146100D03*
X0110345Y0143267D03*
X0113845Y0149600D03*
X0113845Y0149767D03*
X0115845Y0149767D03*
X0115845Y0149600D03*
X0115845Y0150100D03*
X0089345Y0157267D03*
X0088845Y0158267D03*
X0088845Y0155767D03*
X0088845Y0155600D03*
X0076845Y0161600D03*
X0076845Y0161767D03*
X0077345Y0162600D03*
X0077845Y0163267D03*
X0078345Y0164100D03*
X0078845Y0164767D03*
X0075845Y0163767D03*
X0075845Y0163600D03*
X0075345Y0165600D03*
X0073345Y0162767D03*
X0073845Y0162267D03*
X0075845Y0159267D03*
X0075845Y0159100D03*
X0097845Y0172600D03*
X0097845Y0174100D03*
X0099845Y0174267D03*
D45*
X0097595Y0173267D03*
X0098095Y0172267D03*
X0102595Y0171267D03*
X0102595Y0171100D03*
X0104595Y0170100D03*
X0105095Y0170767D03*
X0104095Y0169267D03*
X0105095Y0166100D03*
X0109095Y0167100D03*
X0110095Y0169767D03*
X0109595Y0170267D03*
X0108595Y0171267D03*
X0108095Y0171767D03*
X0106095Y0173267D03*
X0090595Y0166267D03*
X0094095Y0161767D03*
X0095095Y0160100D03*
X0093595Y0158600D03*
X0095095Y0156600D03*
X0099595Y0157267D03*
X0109595Y0163100D03*
X0112595Y0161267D03*
X0112095Y0160600D03*
X0113095Y0157267D03*
X0114095Y0156267D03*
X0106095Y0142767D03*
X0105095Y0141600D03*
X0104095Y0140767D03*
X0103595Y0140267D03*
X0100095Y0144100D03*
X0090095Y0144767D03*
X0089595Y0144267D03*
X0089095Y0143767D03*
X0085095Y0145100D03*
X0083095Y0142767D03*
X0078095Y0138267D03*
X0076095Y0136767D03*
X0076595Y0136267D03*
X0075095Y0137767D03*
X0079095Y0134267D03*
X0080595Y0136767D03*
X0083595Y0135267D03*
X0084095Y0136600D03*
X0088095Y0134100D03*
X0088095Y0132767D03*
X0107595Y0135600D03*
X0082095Y0150267D03*
X0079095Y0150267D03*
X0079095Y0153267D03*
X0078595Y0153767D03*
X0078595Y0154267D03*
X0079095Y0154767D03*
X0079595Y0155267D03*
X0080095Y0155767D03*
X0080595Y0156267D03*
X0081095Y0156767D03*
X0081595Y0157267D03*
X0082095Y0157767D03*
X0082595Y0158267D03*
X0081095Y0167100D03*
X0083095Y0171267D03*
X0082595Y0172267D03*
X0084095Y0174100D03*
X0085095Y0174100D03*
X0085595Y0172767D03*
X0085595Y0172600D03*
X0088095Y0173600D03*
X0078595Y0173100D03*
X0078095Y0172767D03*
X0077595Y0172267D03*
D46*
X0077260Y0172100D03*
X0076930Y0171767D03*
X0076760Y0171600D03*
X0076430Y0171267D03*
X0075760Y0170600D03*
X0075430Y0170267D03*
X0074760Y0169600D03*
X0077760Y0168767D03*
X0079260Y0170767D03*
X0081260Y0170100D03*
X0083260Y0170767D03*
X0082930Y0171600D03*
X0082760Y0172100D03*
X0082430Y0172600D03*
X0082260Y0172767D03*
X0085260Y0173600D03*
X0085430Y0173267D03*
X0085760Y0172267D03*
X0087930Y0172600D03*
X0087930Y0172767D03*
X0089430Y0173767D03*
X0089760Y0173267D03*
X0091760Y0175100D03*
X0091930Y0175600D03*
X0092930Y0173267D03*
X0097760Y0173767D03*
X0097930Y0174267D03*
X0099930Y0173267D03*
X0099930Y0173100D03*
X0099760Y0172767D03*
X0101930Y0172767D03*
X0102260Y0172100D03*
X0104760Y0170267D03*
X0102430Y0168267D03*
X0103760Y0167267D03*
X0103930Y0167100D03*
X0104430Y0166767D03*
X0105930Y0165100D03*
X0106760Y0167767D03*
X0109760Y0170100D03*
X0109260Y0170600D03*
X0108760Y0171100D03*
X0108260Y0171600D03*
X0107430Y0172267D03*
X0110930Y0168767D03*
X0112430Y0161100D03*
X0111760Y0160100D03*
X0100760Y0157767D03*
X0100760Y0156600D03*
X0099430Y0156600D03*
X0094930Y0156767D03*
X0093760Y0158267D03*
X0094260Y0159267D03*
X0093930Y0161600D03*
X0096430Y0161767D03*
X0091260Y0162267D03*
X0092260Y0165100D03*
X0093260Y0166600D03*
X0093430Y0166767D03*
X0093430Y0167267D03*
X0091760Y0168100D03*
X0089260Y0167267D03*
X0087930Y0161600D03*
X0082930Y0158600D03*
X0082430Y0158100D03*
X0081930Y0157600D03*
X0081430Y0157100D03*
X0080930Y0156600D03*
X0080430Y0156100D03*
X0079930Y0155600D03*
X0079430Y0155100D03*
X0078930Y0154600D03*
X0078760Y0153600D03*
X0079260Y0153100D03*
X0079760Y0152767D03*
X0081260Y0151267D03*
X0081760Y0149600D03*
X0078930Y0150100D03*
X0085260Y0145267D03*
X0085930Y0146100D03*
X0086430Y0146600D03*
X0083930Y0143767D03*
X0082930Y0142600D03*
X0082430Y0142100D03*
X0082260Y0141767D03*
X0081930Y0142600D03*
X0081430Y0140267D03*
X0081760Y0140100D03*
X0081260Y0138267D03*
X0080930Y0137267D03*
X0080760Y0137100D03*
X0080430Y0136600D03*
X0079260Y0138267D03*
X0079430Y0139767D03*
X0079430Y0142267D03*
X0077760Y0137767D03*
X0076260Y0136600D03*
X0075760Y0137100D03*
X0076760Y0136100D03*
X0077260Y0135767D03*
X0077430Y0135600D03*
X0077760Y0135267D03*
X0078430Y0134767D03*
X0079430Y0134100D03*
X0083260Y0134767D03*
X0083760Y0135600D03*
X0087930Y0133600D03*
X0087930Y0133267D03*
X0087930Y0133100D03*
X0089930Y0134600D03*
X0092760Y0133767D03*
X0092760Y0132767D03*
X0097260Y0133767D03*
X0097430Y0133600D03*
X0102760Y0137267D03*
X0102260Y0139267D03*
X0102930Y0139767D03*
X0103930Y0140600D03*
X0104760Y0141267D03*
X0105930Y0142600D03*
X0105760Y0138767D03*
X0105930Y0138600D03*
X0106260Y0138267D03*
X0107760Y0135767D03*
X0107260Y0135267D03*
X0106930Y0135100D03*
X0108430Y0136267D03*
X0108760Y0136600D03*
X0109430Y0137267D03*
X0109760Y0137600D03*
X0110760Y0138767D03*
X0103930Y0135100D03*
X0098430Y0140767D03*
X0098260Y0140600D03*
X0098930Y0143267D03*
X0089930Y0144600D03*
X0089430Y0144100D03*
X0088930Y0143600D03*
X0088430Y0143267D03*
X0088260Y0153100D03*
X0074430Y0144600D03*
X0073930Y0139100D03*
X0070760Y0151767D03*
X0074260Y0161767D03*
X0072760Y0163267D03*
X0073930Y0165267D03*
X0075430Y0165267D03*
X0079260Y0165267D03*
X0080760Y0166767D03*
X0081260Y0167267D03*
X0081760Y0167600D03*
X0081930Y0167767D03*
X0078930Y0173267D03*
X0111760Y0151600D03*
X0112760Y0150600D03*
X0112930Y0150767D03*
D47*
X0111680Y0151433D03*
X0109510Y0149433D03*
X0109180Y0148433D03*
X0109010Y0147933D03*
X0108180Y0145933D03*
X0107010Y0143933D03*
X0106510Y0143433D03*
X0106180Y0142933D03*
X0100180Y0146433D03*
X0100180Y0146933D03*
X0100180Y0147433D03*
X0099510Y0153933D03*
X0099510Y0154433D03*
X0101010Y0156933D03*
X0099680Y0157433D03*
X0098180Y0159433D03*
X0098180Y0159933D03*
X0098180Y0160433D03*
X0098180Y0160933D03*
X0098180Y0161433D03*
X0099510Y0161433D03*
X0099510Y0159933D03*
X0099180Y0162933D03*
X0099180Y0163433D03*
X0098180Y0163433D03*
X0098180Y0164433D03*
X0099010Y0164933D03*
X0100180Y0164933D03*
X0100180Y0164433D03*
X0100180Y0163933D03*
X0100180Y0163433D03*
X0100180Y0165433D03*
X0100180Y0165933D03*
X0105180Y0165933D03*
X0105680Y0165433D03*
X0106510Y0164433D03*
X0107180Y0163433D03*
X0107510Y0162933D03*
X0109180Y0163433D03*
X0110510Y0163933D03*
X0111680Y0164433D03*
X0113180Y0165433D03*
X0113510Y0164933D03*
X0114180Y0163433D03*
X0115180Y0160933D03*
X0115510Y0159433D03*
X0116180Y0155433D03*
X0116180Y0154933D03*
X0116180Y0154433D03*
X0116180Y0153933D03*
X0116180Y0153433D03*
X0116180Y0152933D03*
X0116180Y0152433D03*
X0115510Y0148433D03*
X0115180Y0146933D03*
X0114510Y0144933D03*
X0114180Y0144433D03*
X0114010Y0143933D03*
X0113510Y0142933D03*
X0113180Y0142433D03*
X0113010Y0141933D03*
X0112680Y0141433D03*
X0112010Y0140433D03*
X0111680Y0139933D03*
X0110510Y0138433D03*
X0110010Y0137933D03*
X0109510Y0137433D03*
X0108510Y0136433D03*
X0102510Y0134933D03*
X0102510Y0134433D03*
X0097180Y0134433D03*
X0094510Y0134433D03*
X0092680Y0133433D03*
X0091680Y0136933D03*
X0092180Y0139433D03*
X0092510Y0140933D03*
X0093180Y0144433D03*
X0093180Y0144933D03*
X0093510Y0146933D03*
X0093510Y0147433D03*
X0091680Y0147433D03*
X0091510Y0146933D03*
X0091180Y0146433D03*
X0090680Y0145433D03*
X0090180Y0144933D03*
X0086680Y0146933D03*
X0086180Y0146433D03*
X0087180Y0147933D03*
X0087510Y0148933D03*
X0088180Y0151433D03*
X0088510Y0152433D03*
X0088180Y0153433D03*
X0088510Y0154433D03*
X0089180Y0156933D03*
X0089010Y0157933D03*
X0088510Y0158933D03*
X0088180Y0159933D03*
X0086510Y0160433D03*
X0086180Y0159433D03*
X0085680Y0158433D03*
X0085510Y0157933D03*
X0085180Y0157433D03*
X0083180Y0158933D03*
X0083680Y0159433D03*
X0084180Y0159933D03*
X0084680Y0160433D03*
X0085180Y0160933D03*
X0085680Y0161433D03*
X0086180Y0161933D03*
X0090680Y0162933D03*
X0094510Y0162933D03*
X0095680Y0160933D03*
X0095180Y0160433D03*
X0096510Y0160933D03*
X0095680Y0164933D03*
X0093180Y0166433D03*
X0093510Y0166933D03*
X0093510Y0168933D03*
X0091680Y0167933D03*
X0090510Y0166433D03*
X0090510Y0165933D03*
X0089180Y0165933D03*
X0089180Y0168433D03*
X0087680Y0172433D03*
X0085510Y0172933D03*
X0085180Y0173933D03*
X0084010Y0173933D03*
X0082510Y0172433D03*
X0080010Y0171933D03*
X0079180Y0170933D03*
X0081180Y0169433D03*
X0076510Y0171433D03*
X0075510Y0170433D03*
X0074510Y0169433D03*
X0074180Y0168933D03*
X0073510Y0167933D03*
X0073010Y0167433D03*
X0072680Y0166933D03*
X0071510Y0164933D03*
X0071010Y0163933D03*
X0070510Y0162933D03*
X0070180Y0161933D03*
X0069510Y0159933D03*
X0069180Y0158433D03*
X0069180Y0157933D03*
X0075180Y0156433D03*
X0075180Y0155933D03*
X0075510Y0157933D03*
X0076510Y0160933D03*
X0077010Y0161933D03*
X0077510Y0162933D03*
X0078180Y0163933D03*
X0078510Y0164433D03*
X0079010Y0164933D03*
X0074180Y0161933D03*
X0073680Y0162433D03*
X0084180Y0154933D03*
X0083510Y0153433D03*
X0083180Y0152433D03*
X0082680Y0151433D03*
X0082510Y0150933D03*
X0081510Y0150933D03*
X0081180Y0151433D03*
X0082010Y0149933D03*
X0079510Y0150933D03*
X0079180Y0150433D03*
X0078510Y0149433D03*
X0078510Y0147933D03*
X0078680Y0147433D03*
X0079180Y0146433D03*
X0079510Y0145933D03*
X0080510Y0144433D03*
X0081180Y0143433D03*
X0083180Y0142933D03*
X0083680Y0143433D03*
X0084510Y0144433D03*
X0085010Y0144933D03*
X0082510Y0140433D03*
X0080180Y0141433D03*
X0079680Y0141933D03*
X0078510Y0143433D03*
X0078180Y0143933D03*
X0077510Y0144933D03*
X0077180Y0145433D03*
X0076680Y0146433D03*
X0076510Y0146933D03*
X0076180Y0147433D03*
X0075510Y0149933D03*
X0075180Y0151433D03*
X0075180Y0151933D03*
X0078510Y0153933D03*
X0079510Y0152933D03*
X0069180Y0149433D03*
X0069510Y0147933D03*
X0070180Y0145933D03*
X0070510Y0144933D03*
X0071180Y0143433D03*
X0071510Y0142933D03*
X0072010Y0141933D03*
X0073010Y0140433D03*
X0073680Y0139433D03*
X0074510Y0138433D03*
X0078180Y0138433D03*
X0079180Y0137933D03*
X0085180Y0135933D03*
X0085510Y0135433D03*
X0085510Y0134933D03*
X0088010Y0132933D03*
X0095180Y0137933D03*
X0098510Y0140933D03*
X0092180Y0148933D03*
X0092510Y0149933D03*
X0095180Y0152933D03*
X0095180Y0153433D03*
X0094680Y0156933D03*
X0094180Y0157433D03*
X0093680Y0158433D03*
X0108510Y0160933D03*
X0109180Y0159433D03*
X0109510Y0157933D03*
X0109180Y0167433D03*
X0111180Y0168433D03*
X0111510Y0167933D03*
X0109510Y0170433D03*
X0105010Y0168433D03*
X0106510Y0167433D03*
X0101010Y0171433D03*
X0100010Y0173433D03*
X0100010Y0173933D03*
X0089180Y0174433D03*
X0088510Y0175433D03*
D48*
X0098510Y0132933D03*
D49*
X0103595Y0132933D03*
X0105595Y0138933D03*
X0112095Y0149933D03*
X0113595Y0151433D03*
X0100595Y0169433D03*
X0081595Y0174933D03*
X0079095Y0149933D03*
D50*
X0082095Y0150600D03*
X0082095Y0150767D03*
X0087595Y0142767D03*
X0080095Y0136267D03*
X0079095Y0137100D03*
X0081095Y0133100D03*
X0100095Y0138100D03*
X0100595Y0138267D03*
X0113595Y0157767D03*
X0104095Y0169600D03*
X0105595Y0171100D03*
X0100095Y0169600D03*
X0102595Y0175267D03*
X0103095Y0175100D03*
X0092095Y0174767D03*
X0088595Y0175100D03*
X0077095Y0167600D03*
X0088095Y0163600D03*
X0090095Y0160267D03*
X0093095Y0161100D03*
X0094595Y0162267D03*
D51*
X0093095Y0160933D03*
X0091095Y0162433D03*
X0090595Y0166933D03*
X0095595Y0166433D03*
X0102595Y0170933D03*
X0102595Y0171433D03*
X0102095Y0172433D03*
X0102095Y0172933D03*
X0105595Y0171433D03*
X0106595Y0172933D03*
X0098095Y0174433D03*
X0097595Y0173433D03*
X0093095Y0173433D03*
X0093095Y0173933D03*
X0089595Y0173433D03*
X0083095Y0171433D03*
X0077095Y0171933D03*
X0076095Y0170933D03*
X0075095Y0169933D03*
X0080095Y0152433D03*
X0082095Y0150433D03*
X0084095Y0143933D03*
X0081595Y0142933D03*
X0074095Y0138933D03*
X0077595Y0135433D03*
X0083595Y0135433D03*
X0088095Y0133933D03*
X0093095Y0134433D03*
X0106095Y0138433D03*
X0109095Y0136933D03*
X0094095Y0153433D03*
X0109595Y0162933D03*
X0112595Y0161433D03*
X0111595Y0157433D03*
X0114095Y0156433D03*
X0106095Y0164933D03*
X0104095Y0166933D03*
X0103595Y0167433D03*
D52*
X0104345Y0168933D03*
X0102345Y0171933D03*
X0099845Y0172933D03*
X0099845Y0174433D03*
X0093345Y0167933D03*
X0094845Y0166933D03*
X0091845Y0169433D03*
X0089845Y0164933D03*
X0085845Y0158933D03*
X0084845Y0156433D03*
X0088845Y0155933D03*
X0092845Y0151933D03*
X0092845Y0151433D03*
X0093845Y0150433D03*
X0093845Y0149933D03*
X0093845Y0149433D03*
X0091845Y0147933D03*
X0094845Y0145933D03*
X0094845Y0145433D03*
X0094845Y0144933D03*
X0094845Y0144433D03*
X0094845Y0143933D03*
X0094845Y0143433D03*
X0094845Y0142933D03*
X0092845Y0142933D03*
X0094845Y0138433D03*
X0091845Y0137433D03*
X0092845Y0133933D03*
X0102845Y0136933D03*
X0104845Y0141433D03*
X0105345Y0141933D03*
X0105845Y0142433D03*
X0107845Y0145433D03*
X0108845Y0147433D03*
X0109845Y0150933D03*
X0109845Y0151433D03*
X0113845Y0149933D03*
X0115845Y0149933D03*
X0114845Y0145933D03*
X0113845Y0143433D03*
X0112345Y0140933D03*
X0111345Y0139433D03*
X0110845Y0138933D03*
X0110345Y0144433D03*
X0099845Y0149933D03*
X0099845Y0150433D03*
X0099845Y0150933D03*
X0100845Y0158433D03*
X0100845Y0160933D03*
X0098345Y0162933D03*
X0095345Y0159433D03*
X0083345Y0152933D03*
X0082845Y0151933D03*
X0079845Y0151433D03*
X0075845Y0148433D03*
X0076845Y0145933D03*
X0077845Y0144433D03*
X0078845Y0142933D03*
X0080845Y0143933D03*
X0082345Y0141933D03*
X0085345Y0145433D03*
X0085845Y0145933D03*
X0087845Y0150433D03*
X0078845Y0146933D03*
X0072345Y0141433D03*
X0073345Y0139933D03*
X0069845Y0146933D03*
X0068845Y0151933D03*
X0068845Y0152433D03*
X0068845Y0152933D03*
X0068845Y0154933D03*
X0068845Y0155433D03*
X0068845Y0155933D03*
X0071345Y0159433D03*
X0069845Y0160933D03*
X0070845Y0163433D03*
X0071845Y0165433D03*
X0072345Y0166433D03*
X0073845Y0165433D03*
X0077845Y0166433D03*
X0079845Y0165933D03*
X0080345Y0166433D03*
X0081345Y0169933D03*
X0085345Y0173433D03*
X0087845Y0172933D03*
X0077845Y0163433D03*
X0073845Y0168433D03*
X0106845Y0163933D03*
X0107845Y0162433D03*
X0110845Y0165933D03*
X0112845Y0165933D03*
X0110845Y0168933D03*
X0110345Y0169433D03*
X0114845Y0161933D03*
X0115845Y0157933D03*
X0112845Y0156933D03*
X0109845Y0156433D03*
D53*
X0110010Y0154933D03*
X0110010Y0154433D03*
X0110010Y0153433D03*
X0110010Y0152933D03*
X0111680Y0153433D03*
X0116010Y0150933D03*
X0115680Y0148933D03*
X0111010Y0158933D03*
X0113510Y0160433D03*
X0100010Y0166933D03*
X0091010Y0169433D03*
X0089010Y0166933D03*
X0075680Y0163433D03*
X0072010Y0161933D03*
X0073680Y0157933D03*
X0070680Y0156933D03*
X0075010Y0154433D03*
X0075010Y0153933D03*
X0075010Y0153433D03*
X0070680Y0150433D03*
X0069010Y0150433D03*
X0088010Y0150933D03*
X0093680Y0148433D03*
X0095010Y0149433D03*
X0098680Y0148933D03*
X0098680Y0147433D03*
X0098680Y0146933D03*
X0098680Y0146433D03*
X0098680Y0145933D03*
X0098680Y0145433D03*
X0098680Y0144933D03*
X0092680Y0141933D03*
X0102180Y0133933D03*
X0106680Y0136933D03*
X0099680Y0152433D03*
D54*
X0099595Y0152600D03*
X0099595Y0152767D03*
X0099595Y0153100D03*
X0099595Y0153267D03*
X0099595Y0153600D03*
X0098595Y0153600D03*
X0098595Y0153767D03*
X0098595Y0154100D03*
X0098595Y0154267D03*
X0098595Y0154600D03*
X0098595Y0154767D03*
X0098595Y0155100D03*
X0098595Y0155267D03*
X0098595Y0155600D03*
X0099425Y0155600D03*
X0099425Y0155767D03*
X0099425Y0155267D03*
X0099425Y0155100D03*
X0098595Y0153267D03*
X0098595Y0153100D03*
X0098595Y0152767D03*
X0098595Y0152600D03*
X0098595Y0152267D03*
X0098595Y0152100D03*
X0098595Y0151767D03*
X0098595Y0151600D03*
X0098595Y0151267D03*
X0098595Y0151100D03*
X0098595Y0150767D03*
X0098595Y0150600D03*
X0098595Y0150267D03*
X0098595Y0150100D03*
X0098595Y0149767D03*
X0098595Y0149600D03*
X0098595Y0149267D03*
X0098595Y0149100D03*
X0098595Y0148767D03*
X0098595Y0148600D03*
X0098595Y0148267D03*
X0098595Y0148100D03*
X0098595Y0147767D03*
X0098595Y0147600D03*
X0100095Y0147600D03*
X0100095Y0147767D03*
X0100095Y0148100D03*
X0100095Y0148267D03*
X0099925Y0149100D03*
X0099925Y0149267D03*
X0099925Y0149600D03*
X0099925Y0149767D03*
X0099765Y0151267D03*
X0099765Y0151600D03*
X0099765Y0151767D03*
X0099765Y0152100D03*
X0099765Y0152267D03*
X0095095Y0152267D03*
X0095095Y0152100D03*
X0095095Y0151767D03*
X0095095Y0151600D03*
X0095095Y0151267D03*
X0095095Y0151100D03*
X0095095Y0150767D03*
X0095095Y0150600D03*
X0095095Y0150267D03*
X0095095Y0150100D03*
X0095095Y0149767D03*
X0095095Y0149600D03*
X0094925Y0148767D03*
X0094925Y0148600D03*
X0094925Y0148267D03*
X0094925Y0148100D03*
X0094925Y0147767D03*
X0094925Y0147600D03*
X0094925Y0147267D03*
X0094925Y0147100D03*
X0094925Y0146767D03*
X0094925Y0146600D03*
X0094925Y0146267D03*
X0094925Y0146100D03*
X0093425Y0146100D03*
X0093425Y0146267D03*
X0093425Y0146600D03*
X0093265Y0145767D03*
X0093265Y0145600D03*
X0093265Y0145267D03*
X0093095Y0144267D03*
X0093095Y0144100D03*
X0092925Y0143600D03*
X0092925Y0143267D03*
X0092765Y0142267D03*
X0092765Y0142100D03*
X0092595Y0141767D03*
X0092595Y0141600D03*
X0092425Y0140600D03*
X0092425Y0140267D03*
X0092265Y0139767D03*
X0092265Y0139600D03*
X0092095Y0138767D03*
X0092095Y0138600D03*
X0091925Y0138267D03*
X0091925Y0138100D03*
X0091765Y0137267D03*
X0091765Y0137100D03*
X0094765Y0138600D03*
X0094595Y0139100D03*
X0094765Y0140267D03*
X0094765Y0140600D03*
X0094765Y0140767D03*
X0094765Y0141100D03*
X0094765Y0141267D03*
X0094765Y0141600D03*
X0094765Y0141767D03*
X0094765Y0142100D03*
X0094765Y0142267D03*
X0094765Y0142600D03*
X0094765Y0142767D03*
X0098765Y0142767D03*
X0098765Y0142600D03*
X0098765Y0142267D03*
X0098765Y0142100D03*
X0098765Y0141767D03*
X0098765Y0141600D03*
X0098595Y0141267D03*
X0098595Y0141100D03*
X0098765Y0143100D03*
X0098765Y0144600D03*
X0098765Y0144767D03*
X0100265Y0145267D03*
X0100265Y0145600D03*
X0100265Y0145767D03*
X0100265Y0146100D03*
X0100425Y0144767D03*
X0100425Y0144600D03*
X0107095Y0144100D03*
X0107425Y0144600D03*
X0107925Y0145600D03*
X0108095Y0145767D03*
X0108265Y0146267D03*
X0108765Y0147267D03*
X0108925Y0147767D03*
X0109095Y0148100D03*
X0109265Y0148767D03*
X0109425Y0149100D03*
X0109425Y0149267D03*
X0109595Y0150100D03*
X0109595Y0150267D03*
X0109765Y0150600D03*
X0109765Y0150767D03*
X0109925Y0151767D03*
X0109925Y0152100D03*
X0109925Y0152267D03*
X0109925Y0152600D03*
X0110095Y0153600D03*
X0110095Y0153767D03*
X0110095Y0154100D03*
X0109925Y0155100D03*
X0109925Y0155267D03*
X0109925Y0155600D03*
X0109925Y0155767D03*
X0109765Y0157100D03*
X0109765Y0157267D03*
X0109595Y0157600D03*
X0109595Y0157767D03*
X0109425Y0158600D03*
X0109265Y0158767D03*
X0109095Y0159600D03*
X0108595Y0160767D03*
X0108425Y0161267D03*
X0107925Y0162100D03*
X0107595Y0162767D03*
X0107425Y0163100D03*
X0107265Y0163267D03*
X0107095Y0163600D03*
X0106765Y0164100D03*
X0109095Y0163600D03*
X0111595Y0164767D03*
X0113095Y0165600D03*
X0113265Y0165267D03*
X0113425Y0165100D03*
X0113595Y0164600D03*
X0114095Y0163767D03*
X0114265Y0163267D03*
X0114595Y0162267D03*
X0114765Y0162100D03*
X0115095Y0161267D03*
X0115095Y0161100D03*
X0115265Y0160267D03*
X0115425Y0160100D03*
X0115595Y0159267D03*
X0115595Y0159100D03*
X0115765Y0158767D03*
X0115765Y0158600D03*
X0115925Y0157600D03*
X0115925Y0157267D03*
X0115925Y0157100D03*
X0116095Y0156600D03*
X0116095Y0156267D03*
X0116095Y0156100D03*
X0114265Y0156600D03*
X0114265Y0157100D03*
X0114095Y0157267D03*
X0114095Y0156100D03*
X0111425Y0156600D03*
X0111425Y0156767D03*
X0111425Y0157100D03*
X0111595Y0157600D03*
X0112765Y0162267D03*
X0112425Y0166767D03*
X0109265Y0167600D03*
X0109265Y0167767D03*
X0109095Y0168267D03*
X0108095Y0169100D03*
X0106595Y0167267D03*
X0106595Y0167100D03*
X0106765Y0166767D03*
X0100265Y0163267D03*
X0100265Y0163100D03*
X0100425Y0162767D03*
X0100425Y0162600D03*
X0100595Y0161767D03*
X0100765Y0161600D03*
X0100925Y0160767D03*
X0100925Y0160600D03*
X0100925Y0160267D03*
X0101095Y0159767D03*
X0101095Y0159600D03*
X0101095Y0159267D03*
X0100925Y0158767D03*
X0100925Y0158600D03*
X0101095Y0157267D03*
X0101095Y0157100D03*
X0099425Y0159600D03*
X0099595Y0160267D03*
X0099595Y0160600D03*
X0099595Y0160767D03*
X0099425Y0161767D03*
X0099265Y0162267D03*
X0099095Y0163767D03*
X0099095Y0164100D03*
X0099095Y0164267D03*
X0099095Y0164600D03*
X0099095Y0164767D03*
X0097425Y0164767D03*
X0097425Y0164267D03*
X0096595Y0164267D03*
X0096595Y0164600D03*
X0095595Y0164600D03*
X0095595Y0164767D03*
X0095595Y0164267D03*
X0095595Y0164100D03*
X0095595Y0163767D03*
X0095595Y0163600D03*
X0094595Y0164267D03*
X0094595Y0164600D03*
X0094595Y0164767D03*
X0094595Y0165100D03*
X0094595Y0165267D03*
X0094595Y0165600D03*
X0094595Y0165767D03*
X0094595Y0166100D03*
X0094595Y0166267D03*
X0093095Y0165767D03*
X0092925Y0165600D03*
X0090425Y0166767D03*
X0089095Y0167100D03*
X0089095Y0166267D03*
X0089925Y0165100D03*
X0087095Y0161600D03*
X0086595Y0160600D03*
X0086425Y0160100D03*
X0085925Y0159100D03*
X0085765Y0158600D03*
X0085595Y0158267D03*
X0085425Y0157767D03*
X0085265Y0157600D03*
X0084925Y0156767D03*
X0084765Y0156267D03*
X0084265Y0155100D03*
X0084095Y0154600D03*
X0083595Y0153600D03*
X0083425Y0153100D03*
X0083265Y0152767D03*
X0083095Y0152267D03*
X0082925Y0152100D03*
X0082765Y0151600D03*
X0082595Y0151267D03*
X0078425Y0149267D03*
X0078425Y0149100D03*
X0078425Y0148267D03*
X0078595Y0147600D03*
X0078765Y0147267D03*
X0078925Y0146767D03*
X0079095Y0146600D03*
X0079595Y0145600D03*
X0077265Y0145267D03*
X0077095Y0145600D03*
X0076765Y0146267D03*
X0076595Y0146600D03*
X0076425Y0147100D03*
X0076265Y0147267D03*
X0075925Y0148100D03*
X0075925Y0148267D03*
X0075765Y0148767D03*
X0075595Y0149100D03*
X0075595Y0149267D03*
X0075425Y0150100D03*
X0075425Y0150267D03*
X0075265Y0150600D03*
X0075265Y0150767D03*
X0075265Y0151100D03*
X0075095Y0152100D03*
X0075095Y0152267D03*
X0075095Y0152600D03*
X0075095Y0152767D03*
X0075095Y0153100D03*
X0075095Y0154600D03*
X0075095Y0154767D03*
X0075095Y0155100D03*
X0075095Y0155267D03*
X0075095Y0155600D03*
X0075265Y0156600D03*
X0075265Y0156767D03*
X0075265Y0157100D03*
X0075425Y0157600D03*
X0075595Y0158267D03*
X0075595Y0158600D03*
X0075765Y0158767D03*
X0075925Y0159600D03*
X0076095Y0159767D03*
X0076425Y0160600D03*
X0076595Y0161100D03*
X0077095Y0162100D03*
X0076595Y0164767D03*
X0076765Y0165100D03*
X0075265Y0165767D03*
X0074265Y0166100D03*
X0074595Y0166600D03*
X0073925Y0165600D03*
X0072265Y0166267D03*
X0071925Y0165767D03*
X0071595Y0165100D03*
X0071425Y0164767D03*
X0071095Y0164100D03*
X0070925Y0163767D03*
X0070765Y0163267D03*
X0070595Y0163100D03*
X0070265Y0162267D03*
X0070265Y0162100D03*
X0070095Y0161600D03*
X0069925Y0161267D03*
X0069765Y0160600D03*
X0069595Y0160267D03*
X0069595Y0160100D03*
X0069425Y0159267D03*
X0069265Y0158767D03*
X0069265Y0158600D03*
X0069095Y0157767D03*
X0069095Y0157600D03*
X0068925Y0157100D03*
X0068925Y0156767D03*
X0068925Y0156600D03*
X0068925Y0156267D03*
X0068765Y0154267D03*
X0068765Y0154100D03*
X0068765Y0153767D03*
X0068765Y0153600D03*
X0068925Y0151267D03*
X0068925Y0151100D03*
X0068925Y0150767D03*
X0068925Y0150600D03*
X0069095Y0150267D03*
X0069095Y0150100D03*
X0069265Y0149100D03*
X0069265Y0148767D03*
X0069425Y0148600D03*
X0069595Y0147767D03*
X0069595Y0147600D03*
X0069765Y0147267D03*
X0069765Y0147100D03*
X0069925Y0146600D03*
X0070095Y0146267D03*
X0070095Y0146100D03*
X0070265Y0145600D03*
X0070425Y0145267D03*
X0070595Y0144767D03*
X0070595Y0144600D03*
X0071095Y0143767D03*
X0071265Y0143267D03*
X0071425Y0143100D03*
X0071595Y0142600D03*
X0072425Y0141267D03*
X0072765Y0140767D03*
X0074425Y0143600D03*
X0074425Y0144767D03*
X0070925Y0149600D03*
X0073265Y0150767D03*
X0073425Y0151100D03*
X0073265Y0151767D03*
X0073265Y0154600D03*
X0071095Y0158767D03*
X0072765Y0163600D03*
X0073265Y0167767D03*
X0076265Y0168600D03*
X0076425Y0168767D03*
X0077765Y0168600D03*
X0077765Y0168267D03*
X0077925Y0166267D03*
X0080265Y0169267D03*
X0081265Y0169600D03*
X0079095Y0171100D03*
X0084095Y0173767D03*
X0085595Y0171767D03*
X0087925Y0173267D03*
X0088095Y0174267D03*
X0089595Y0172767D03*
X0093095Y0175267D03*
X0098765Y0175100D03*
X0105425Y0171600D03*
X0096595Y0160767D03*
X0096595Y0160600D03*
X0096595Y0160267D03*
X0096595Y0160100D03*
X0096595Y0159767D03*
X0096595Y0159600D03*
X0096595Y0159267D03*
X0095425Y0159267D03*
X0095425Y0155600D03*
X0095425Y0155267D03*
X0095425Y0155100D03*
X0095425Y0154767D03*
X0095425Y0154600D03*
X0095425Y0154267D03*
X0094095Y0153100D03*
X0094095Y0152767D03*
X0094095Y0152600D03*
X0094095Y0152267D03*
X0094095Y0152100D03*
X0093925Y0151267D03*
X0093925Y0151100D03*
X0093925Y0150767D03*
X0093925Y0150600D03*
X0092765Y0151100D03*
X0092765Y0151267D03*
X0092595Y0150767D03*
X0092595Y0150600D03*
X0092425Y0149767D03*
X0092425Y0149600D03*
X0092265Y0149267D03*
X0092265Y0149100D03*
X0092095Y0148600D03*
X0091925Y0148267D03*
X0091925Y0148100D03*
X0091765Y0147600D03*
X0091595Y0147267D03*
X0091425Y0146767D03*
X0091265Y0146600D03*
X0090765Y0145600D03*
X0093595Y0147600D03*
X0093595Y0147767D03*
X0093595Y0148100D03*
X0093595Y0148267D03*
X0093765Y0148600D03*
X0093765Y0148767D03*
X0093765Y0149100D03*
X0093765Y0149267D03*
X0092925Y0152100D03*
X0092925Y0152267D03*
X0092925Y0152600D03*
X0093095Y0153100D03*
X0088425Y0152267D03*
X0088265Y0152100D03*
X0088095Y0151267D03*
X0088095Y0151100D03*
X0087925Y0150767D03*
X0087925Y0150600D03*
X0087765Y0149767D03*
X0087595Y0149600D03*
X0087425Y0148767D03*
X0087425Y0148600D03*
X0087265Y0148267D03*
X0087265Y0148100D03*
X0087095Y0147600D03*
X0086925Y0147267D03*
X0088265Y0153767D03*
X0088425Y0154100D03*
X0088425Y0154267D03*
X0088595Y0155100D03*
X0088765Y0155267D03*
X0088925Y0156100D03*
X0088925Y0156267D03*
X0089095Y0156600D03*
X0089265Y0157100D03*
X0088925Y0158100D03*
X0088425Y0159100D03*
X0088425Y0159267D03*
X0088095Y0160100D03*
X0088095Y0160267D03*
X0087925Y0160600D03*
X0087925Y0160767D03*
X0089265Y0168767D03*
X0111425Y0151100D03*
X0111425Y0150767D03*
X0111425Y0150600D03*
X0112095Y0149767D03*
X0114095Y0150267D03*
X0114265Y0150600D03*
X0115925Y0150600D03*
X0115925Y0150767D03*
X0116095Y0151100D03*
X0116095Y0151267D03*
X0116095Y0151600D03*
X0116095Y0151767D03*
X0115925Y0150267D03*
X0115765Y0149267D03*
X0115765Y0149100D03*
X0115595Y0148767D03*
X0115595Y0148600D03*
X0115425Y0147767D03*
X0115425Y0147600D03*
X0115265Y0147267D03*
X0115095Y0146767D03*
X0115095Y0146600D03*
X0114925Y0146267D03*
X0114765Y0145767D03*
X0114765Y0145600D03*
X0114595Y0145267D03*
X0114425Y0144767D03*
X0114265Y0144600D03*
X0114095Y0144100D03*
X0113925Y0143767D03*
X0113595Y0143100D03*
X0113095Y0142100D03*
X0106765Y0137100D03*
X0102925Y0137767D03*
X0102765Y0136600D03*
X0102425Y0134767D03*
X0102265Y0134100D03*
X0098595Y0135767D03*
X0080265Y0135600D03*
X0077765Y0137600D03*
X0079265Y0140100D03*
D55*
X0090010Y0134267D03*
X0099010Y0135100D03*
X0105510Y0139767D03*
X0098680Y0144100D03*
X0098680Y0144267D03*
X0098680Y0145100D03*
X0098680Y0145267D03*
X0098680Y0145600D03*
X0098680Y0145767D03*
X0098680Y0146100D03*
X0098680Y0146267D03*
X0098680Y0146600D03*
X0098680Y0146767D03*
X0098680Y0147100D03*
X0098680Y0147267D03*
X0100010Y0148600D03*
X0100010Y0148767D03*
X0095010Y0149100D03*
X0095010Y0149267D03*
X0094010Y0151600D03*
X0094010Y0151767D03*
X0093010Y0152767D03*
X0101010Y0159100D03*
X0101010Y0160100D03*
X0109010Y0163767D03*
X0111680Y0164600D03*
X0113680Y0159600D03*
X0111680Y0157767D03*
X0110010Y0154767D03*
X0110010Y0154600D03*
X0110010Y0154267D03*
X0110010Y0153267D03*
X0110010Y0153100D03*
X0110010Y0152767D03*
X0111680Y0153267D03*
X0111680Y0154267D03*
X0116010Y0156767D03*
X0105010Y0168267D03*
X0101010Y0171600D03*
X0092680Y0167267D03*
X0089010Y0166767D03*
X0089010Y0166600D03*
X0085510Y0171600D03*
X0084010Y0173600D03*
X0080010Y0172100D03*
X0074010Y0165767D03*
X0072680Y0163767D03*
X0071680Y0161100D03*
X0071010Y0158600D03*
X0069010Y0157267D03*
X0070680Y0156100D03*
X0073680Y0158100D03*
X0075010Y0154267D03*
X0075010Y0154100D03*
X0075010Y0153767D03*
X0075010Y0153600D03*
X0075010Y0153267D03*
X0070680Y0151600D03*
X0093010Y0143767D03*
X0094680Y0140100D03*
X0091680Y0173600D03*
X0092510Y0176100D03*
D56*
X0093095Y0175433D03*
X0091595Y0173433D03*
X0088095Y0174433D03*
X0087925Y0173433D03*
X0086095Y0174433D03*
X0085925Y0174933D03*
X0082265Y0173433D03*
X0079265Y0171433D03*
X0077765Y0168433D03*
X0074095Y0165933D03*
X0072095Y0165933D03*
X0071265Y0164433D03*
X0072765Y0163433D03*
X0070425Y0162433D03*
X0069925Y0161433D03*
X0069765Y0160433D03*
X0069425Y0159433D03*
X0069265Y0158933D03*
X0069095Y0157433D03*
X0068925Y0156933D03*
X0068925Y0156433D03*
X0068765Y0154433D03*
X0068765Y0153933D03*
X0068765Y0153433D03*
X0068925Y0151433D03*
X0068925Y0150933D03*
X0069095Y0149933D03*
X0069265Y0148933D03*
X0069425Y0148433D03*
X0069595Y0147433D03*
X0069925Y0146433D03*
X0070265Y0145433D03*
X0070765Y0144433D03*
X0070925Y0143933D03*
X0071765Y0142433D03*
X0072595Y0140933D03*
X0079265Y0139933D03*
X0081265Y0138433D03*
X0080095Y0144933D03*
X0079765Y0145433D03*
X0078425Y0148433D03*
X0076095Y0147933D03*
X0075765Y0148933D03*
X0075595Y0149433D03*
X0075265Y0150933D03*
X0075095Y0152433D03*
X0075095Y0152933D03*
X0075095Y0154933D03*
X0075095Y0155433D03*
X0075265Y0156933D03*
X0075425Y0157433D03*
X0075595Y0158433D03*
X0075765Y0158933D03*
X0075925Y0159433D03*
X0076095Y0159933D03*
X0076265Y0160433D03*
X0076765Y0161433D03*
X0077265Y0162433D03*
X0076765Y0164933D03*
X0076595Y0165433D03*
X0073925Y0158933D03*
X0073095Y0153933D03*
X0073425Y0150933D03*
X0083765Y0153933D03*
X0083925Y0154433D03*
X0084425Y0155433D03*
X0084595Y0155933D03*
X0085095Y0156933D03*
X0086265Y0159933D03*
X0086765Y0160933D03*
X0086925Y0161433D03*
X0087925Y0160433D03*
X0088265Y0159433D03*
X0088765Y0158433D03*
X0089095Y0156433D03*
X0088765Y0155433D03*
X0088595Y0154933D03*
X0088265Y0153933D03*
X0088265Y0151933D03*
X0087765Y0149933D03*
X0087595Y0149433D03*
X0087265Y0148433D03*
X0087095Y0147433D03*
X0090925Y0145933D03*
X0093265Y0145433D03*
X0093425Y0146433D03*
X0094925Y0146433D03*
X0094925Y0146933D03*
X0094925Y0147433D03*
X0094925Y0147933D03*
X0094925Y0148433D03*
X0094925Y0148933D03*
X0095095Y0149933D03*
X0095095Y0150433D03*
X0095095Y0150933D03*
X0095095Y0151433D03*
X0095095Y0151933D03*
X0095095Y0152433D03*
X0094095Y0152433D03*
X0094095Y0151933D03*
X0093925Y0151433D03*
X0093925Y0150933D03*
X0092765Y0150933D03*
X0092595Y0150433D03*
X0093765Y0148933D03*
X0093595Y0147933D03*
X0092095Y0148433D03*
X0092925Y0152433D03*
X0093095Y0152933D03*
X0094095Y0152933D03*
X0095425Y0154433D03*
X0095425Y0154933D03*
X0095425Y0155433D03*
X0098595Y0155433D03*
X0098595Y0154933D03*
X0098595Y0154433D03*
X0098595Y0153933D03*
X0098595Y0153433D03*
X0098595Y0152933D03*
X0098595Y0152433D03*
X0098595Y0151933D03*
X0098595Y0151433D03*
X0098595Y0150933D03*
X0098595Y0150433D03*
X0098595Y0149933D03*
X0098595Y0149433D03*
X0098595Y0148433D03*
X0098595Y0147933D03*
X0100095Y0147933D03*
X0100095Y0148433D03*
X0099925Y0148933D03*
X0099925Y0149433D03*
X0099765Y0151433D03*
X0099765Y0151933D03*
X0099595Y0152933D03*
X0099595Y0153433D03*
X0099425Y0154933D03*
X0099425Y0155433D03*
X0099425Y0156933D03*
X0101095Y0157433D03*
X0100925Y0158933D03*
X0101095Y0159433D03*
X0101095Y0159933D03*
X0100925Y0160433D03*
X0100765Y0161433D03*
X0100595Y0161933D03*
X0100425Y0162433D03*
X0100265Y0162933D03*
X0099425Y0161933D03*
X0099595Y0160933D03*
X0099595Y0160433D03*
X0099265Y0159433D03*
X0096595Y0159433D03*
X0096595Y0159933D03*
X0096595Y0160433D03*
X0095595Y0163933D03*
X0095595Y0164433D03*
X0094595Y0164433D03*
X0094595Y0164933D03*
X0094595Y0165433D03*
X0094595Y0165933D03*
X0094595Y0166433D03*
X0093095Y0165933D03*
X0096595Y0164433D03*
X0099095Y0164433D03*
X0099095Y0163933D03*
X0106595Y0166933D03*
X0108925Y0168433D03*
X0109265Y0167933D03*
X0111925Y0167433D03*
X0112265Y0166933D03*
X0112595Y0166433D03*
X0111425Y0164933D03*
X0110425Y0164433D03*
X0108925Y0163933D03*
X0108095Y0161933D03*
X0108265Y0161433D03*
X0108765Y0160433D03*
X0108925Y0159933D03*
X0109265Y0158933D03*
X0109425Y0158433D03*
X0109595Y0157433D03*
X0109765Y0156933D03*
X0109925Y0155933D03*
X0109925Y0155433D03*
X0110095Y0153933D03*
X0109925Y0152433D03*
X0109925Y0151933D03*
X0109765Y0150433D03*
X0109595Y0149933D03*
X0109265Y0148933D03*
X0108595Y0146933D03*
X0108425Y0146433D03*
X0107595Y0144933D03*
X0107265Y0144433D03*
X0100425Y0144433D03*
X0100265Y0145433D03*
X0100265Y0145933D03*
X0098765Y0144433D03*
X0098765Y0143933D03*
X0098765Y0142933D03*
X0098765Y0142433D03*
X0098765Y0141933D03*
X0098765Y0141433D03*
X0094765Y0141433D03*
X0094765Y0140933D03*
X0094765Y0140433D03*
X0094765Y0139933D03*
X0094595Y0138933D03*
X0092095Y0138933D03*
X0091925Y0138433D03*
X0091925Y0137933D03*
X0092265Y0139933D03*
X0092425Y0140433D03*
X0092595Y0141433D03*
X0092765Y0142433D03*
X0092925Y0143433D03*
X0093095Y0143933D03*
X0094765Y0142433D03*
X0094765Y0141933D03*
X0101595Y0136933D03*
X0102595Y0135433D03*
X0103925Y0134933D03*
X0097425Y0134933D03*
X0090095Y0134433D03*
X0114595Y0145433D03*
X0114925Y0146433D03*
X0115265Y0147433D03*
X0115425Y0147933D03*
X0115765Y0149433D03*
X0115925Y0150433D03*
X0116095Y0151433D03*
X0116095Y0151933D03*
X0114265Y0150433D03*
X0111425Y0150933D03*
X0116095Y0155933D03*
X0116095Y0156433D03*
X0115925Y0156933D03*
X0115925Y0157433D03*
X0115765Y0158433D03*
X0115595Y0158933D03*
X0115425Y0159933D03*
X0115265Y0160433D03*
X0114925Y0161433D03*
X0114595Y0162433D03*
X0114425Y0162933D03*
X0113925Y0163933D03*
X0113765Y0164433D03*
X0110425Y0160933D03*
X0111425Y0156933D03*
X0111595Y0156433D03*
X0113595Y0157933D03*
X0114265Y0156933D03*
X0103425Y0172433D03*
X0097595Y0172933D03*
X0089425Y0168933D03*
X0089095Y0166433D03*
D57*
X0091345Y0168933D03*
X0086845Y0170433D03*
X0099845Y0176433D03*
X0100345Y0157933D03*
X0082345Y0139933D03*
X0098345Y0135433D03*
D58*
X0103095Y0135767D03*
X0087595Y0137100D03*
X0112095Y0150267D03*
X0087095Y0162267D03*
X0087595Y0170600D03*
X0075595Y0164267D03*
X0071095Y0154600D03*
X0102595Y0173100D03*
D59*
X0092595Y0136267D03*
D60*
X0099845Y0137933D03*
X0084345Y0136433D03*
X0090845Y0159933D03*
X0089845Y0160433D03*
X0099345Y0169933D03*
X0098845Y0171933D03*
X0084845Y0174433D03*
X0077845Y0166933D03*
D61*
X0092510Y0136433D03*
D62*
X0092515Y0136600D03*
D63*
X0092510Y0136767D03*
D64*
X0095510Y0137600D03*
X0097180Y0137100D03*
X0112010Y0159600D03*
X0112010Y0161600D03*
X0090010Y0168267D03*
X0089510Y0164267D03*
D65*
X0074595Y0166767D03*
X0109595Y0162767D03*
X0101595Y0137100D03*
D66*
X0095345Y0137433D03*
X0113015Y0153933D03*
X0097345Y0158433D03*
X0072015Y0156433D03*
D67*
X0079595Y0149600D03*
X0080095Y0137600D03*
D68*
X0081095Y0137933D03*
X0112095Y0150433D03*
D69*
X0095430Y0139433D03*
X0085760Y0141933D03*
X0093260Y0158933D03*
X0088760Y0173933D03*
X0074260Y0164933D03*
D70*
X0071345Y0159600D03*
X0069345Y0159100D03*
X0075345Y0157267D03*
X0070345Y0154100D03*
X0073345Y0151600D03*
X0073345Y0151267D03*
X0078345Y0148767D03*
X0078345Y0148600D03*
X0092345Y0140100D03*
X0100345Y0145100D03*
X0114345Y0154267D03*
X0114345Y0156767D03*
X0110345Y0160767D03*
X0110345Y0163767D03*
X0111345Y0165100D03*
X0110845Y0166100D03*
X0105345Y0171767D03*
X0103345Y0172267D03*
X0097345Y0164600D03*
X0097345Y0161600D03*
X0097345Y0161267D03*
X0097345Y0161100D03*
X0097345Y0160767D03*
X0097345Y0160600D03*
X0097345Y0160267D03*
X0097345Y0160100D03*
X0097345Y0159767D03*
X0097345Y0159600D03*
X0097345Y0159267D03*
X0097345Y0159100D03*
X0097345Y0158767D03*
X0099345Y0162100D03*
X0080345Y0168767D03*
D71*
X0089510Y0163933D03*
X0073180Y0161433D03*
X0083180Y0141433D03*
D72*
X0083675Y0141600D03*
X0090845Y0157767D03*
X0091345Y0163767D03*
X0097345Y0165100D03*
X0097345Y0166100D03*
D73*
X0097345Y0164433D03*
X0097345Y0161433D03*
X0097345Y0160933D03*
X0097345Y0160433D03*
X0097345Y0159933D03*
X0097345Y0159433D03*
X0097345Y0158933D03*
X0092345Y0149433D03*
X0093345Y0145933D03*
X0100345Y0144933D03*
X0114345Y0153433D03*
X0078345Y0148933D03*
X0075345Y0150433D03*
X0073345Y0151433D03*
X0076345Y0164433D03*
D74*
X0091425Y0169933D03*
X0087265Y0176933D03*
X0097765Y0176933D03*
X0099595Y0156433D03*
X0071765Y0149933D03*
D75*
X0071845Y0150100D03*
X0072845Y0158767D03*
X0080345Y0170267D03*
D76*
X0072015Y0156267D03*
X0071845Y0152100D03*
X0072015Y0150267D03*
X0099175Y0156267D03*
X0113015Y0154100D03*
X0113015Y0153767D03*
X0113015Y0153600D03*
D77*
X0071930Y0151933D03*
D78*
X0070430Y0152433D03*
X0111760Y0151933D03*
X0112760Y0162433D03*
X0111430Y0163933D03*
D79*
X0089180Y0152933D03*
X0072180Y0158933D03*
X0080180Y0170433D03*
D80*
X0094760Y0167100D03*
X0108430Y0164767D03*
X0112260Y0155600D03*
X0114430Y0153267D03*
D81*
X0091765Y0153433D03*
D82*
X0093180Y0153600D03*
X0092510Y0177767D03*
D83*
X0089595Y0177267D03*
X0093425Y0153767D03*
D84*
X0071845Y0154267D03*
D85*
X0071845Y0154433D03*
X0077845Y0167933D03*
D86*
X0102095Y0170433D03*
X0111595Y0154433D03*
D87*
X0097010Y0155933D03*
D88*
X0097845Y0156100D03*
D89*
X0092095Y0157933D03*
D90*
X0092260Y0158100D03*
X0097430Y0165267D03*
D91*
X0097345Y0163767D03*
X0097345Y0163600D03*
X0097345Y0162100D03*
X0097345Y0158267D03*
D92*
X0073180Y0161267D03*
D93*
X0073260Y0161600D03*
X0077930Y0167767D03*
D94*
X0097345Y0164933D03*
X0097345Y0163933D03*
X0097345Y0161933D03*
X0107845Y0166433D03*
D95*
X0092595Y0168267D03*
X0087095Y0162100D03*
D96*
X0091425Y0163600D03*
X0089765Y0171100D03*
X0095265Y0171100D03*
D97*
X0097345Y0165933D03*
X0097345Y0165433D03*
D98*
X0097345Y0166267D03*
D99*
X0091680Y0169767D03*
D100*
X0089095Y0170933D03*
D101*
X0095930Y0170933D03*
D102*
X0092515Y0171267D03*
D103*
X0092510Y0171433D03*
D104*
X0095345Y0177267D03*
D105*
X0092510Y0177433D03*
D106*
X0092510Y0177600D03*
M02*
