G75*
%MOIN*%
%OFA0B0*%
%FSLAX25Y25*%
%IPPOS*%
%LPD*%
%AMOC8*
5,1,8,0,0,1.08239X$1,22.5*
%
%ADD10C,0.00000*%
%ADD11C,0.00600*%
%ADD12C,0.00500*%
D10*
X0062595Y0031433D02*
X0062595Y0076433D01*
X0037595Y0076433D01*
X0037595Y0231433D01*
X0217595Y0231433D01*
X0217595Y0031433D01*
X0062595Y0031433D01*
X0070430Y0046433D02*
X0070432Y0046526D01*
X0070438Y0046618D01*
X0070448Y0046710D01*
X0070462Y0046801D01*
X0070479Y0046892D01*
X0070501Y0046982D01*
X0070526Y0047071D01*
X0070555Y0047159D01*
X0070588Y0047245D01*
X0070625Y0047330D01*
X0070665Y0047414D01*
X0070709Y0047495D01*
X0070756Y0047575D01*
X0070806Y0047653D01*
X0070860Y0047728D01*
X0070917Y0047801D01*
X0070977Y0047871D01*
X0071040Y0047939D01*
X0071106Y0048004D01*
X0071174Y0048066D01*
X0071245Y0048126D01*
X0071319Y0048182D01*
X0071395Y0048235D01*
X0071473Y0048284D01*
X0071553Y0048331D01*
X0071635Y0048373D01*
X0071719Y0048413D01*
X0071804Y0048448D01*
X0071891Y0048480D01*
X0071979Y0048509D01*
X0072068Y0048533D01*
X0072158Y0048554D01*
X0072249Y0048570D01*
X0072341Y0048583D01*
X0072433Y0048592D01*
X0072526Y0048597D01*
X0072618Y0048598D01*
X0072711Y0048595D01*
X0072803Y0048588D01*
X0072895Y0048577D01*
X0072986Y0048562D01*
X0073077Y0048544D01*
X0073167Y0048521D01*
X0073255Y0048495D01*
X0073343Y0048465D01*
X0073429Y0048431D01*
X0073513Y0048394D01*
X0073596Y0048352D01*
X0073677Y0048308D01*
X0073757Y0048260D01*
X0073834Y0048209D01*
X0073908Y0048154D01*
X0073981Y0048096D01*
X0074051Y0048036D01*
X0074118Y0047972D01*
X0074182Y0047906D01*
X0074244Y0047836D01*
X0074302Y0047765D01*
X0074357Y0047691D01*
X0074409Y0047614D01*
X0074458Y0047535D01*
X0074504Y0047455D01*
X0074546Y0047372D01*
X0074584Y0047288D01*
X0074619Y0047202D01*
X0074650Y0047115D01*
X0074677Y0047027D01*
X0074700Y0046937D01*
X0074720Y0046847D01*
X0074736Y0046756D01*
X0074748Y0046664D01*
X0074756Y0046572D01*
X0074760Y0046479D01*
X0074760Y0046387D01*
X0074756Y0046294D01*
X0074748Y0046202D01*
X0074736Y0046110D01*
X0074720Y0046019D01*
X0074700Y0045929D01*
X0074677Y0045839D01*
X0074650Y0045751D01*
X0074619Y0045664D01*
X0074584Y0045578D01*
X0074546Y0045494D01*
X0074504Y0045411D01*
X0074458Y0045331D01*
X0074409Y0045252D01*
X0074357Y0045175D01*
X0074302Y0045101D01*
X0074244Y0045030D01*
X0074182Y0044960D01*
X0074118Y0044894D01*
X0074051Y0044830D01*
X0073981Y0044770D01*
X0073908Y0044712D01*
X0073834Y0044657D01*
X0073757Y0044606D01*
X0073678Y0044558D01*
X0073596Y0044514D01*
X0073513Y0044472D01*
X0073429Y0044435D01*
X0073343Y0044401D01*
X0073255Y0044371D01*
X0073167Y0044345D01*
X0073077Y0044322D01*
X0072986Y0044304D01*
X0072895Y0044289D01*
X0072803Y0044278D01*
X0072711Y0044271D01*
X0072618Y0044268D01*
X0072526Y0044269D01*
X0072433Y0044274D01*
X0072341Y0044283D01*
X0072249Y0044296D01*
X0072158Y0044312D01*
X0072068Y0044333D01*
X0071979Y0044357D01*
X0071891Y0044386D01*
X0071804Y0044418D01*
X0071719Y0044453D01*
X0071635Y0044493D01*
X0071553Y0044535D01*
X0071473Y0044582D01*
X0071395Y0044631D01*
X0071319Y0044684D01*
X0071245Y0044740D01*
X0071174Y0044800D01*
X0071106Y0044862D01*
X0071040Y0044927D01*
X0070977Y0044995D01*
X0070917Y0045065D01*
X0070860Y0045138D01*
X0070806Y0045213D01*
X0070756Y0045291D01*
X0070709Y0045371D01*
X0070665Y0045452D01*
X0070625Y0045536D01*
X0070588Y0045621D01*
X0070555Y0045707D01*
X0070526Y0045795D01*
X0070501Y0045884D01*
X0070479Y0045974D01*
X0070462Y0046065D01*
X0070448Y0046156D01*
X0070438Y0046248D01*
X0070432Y0046340D01*
X0070430Y0046433D01*
X0080430Y0046433D02*
X0080432Y0046526D01*
X0080438Y0046618D01*
X0080448Y0046710D01*
X0080462Y0046801D01*
X0080479Y0046892D01*
X0080501Y0046982D01*
X0080526Y0047071D01*
X0080555Y0047159D01*
X0080588Y0047245D01*
X0080625Y0047330D01*
X0080665Y0047414D01*
X0080709Y0047495D01*
X0080756Y0047575D01*
X0080806Y0047653D01*
X0080860Y0047728D01*
X0080917Y0047801D01*
X0080977Y0047871D01*
X0081040Y0047939D01*
X0081106Y0048004D01*
X0081174Y0048066D01*
X0081245Y0048126D01*
X0081319Y0048182D01*
X0081395Y0048235D01*
X0081473Y0048284D01*
X0081553Y0048331D01*
X0081635Y0048373D01*
X0081719Y0048413D01*
X0081804Y0048448D01*
X0081891Y0048480D01*
X0081979Y0048509D01*
X0082068Y0048533D01*
X0082158Y0048554D01*
X0082249Y0048570D01*
X0082341Y0048583D01*
X0082433Y0048592D01*
X0082526Y0048597D01*
X0082618Y0048598D01*
X0082711Y0048595D01*
X0082803Y0048588D01*
X0082895Y0048577D01*
X0082986Y0048562D01*
X0083077Y0048544D01*
X0083167Y0048521D01*
X0083255Y0048495D01*
X0083343Y0048465D01*
X0083429Y0048431D01*
X0083513Y0048394D01*
X0083596Y0048352D01*
X0083677Y0048308D01*
X0083757Y0048260D01*
X0083834Y0048209D01*
X0083908Y0048154D01*
X0083981Y0048096D01*
X0084051Y0048036D01*
X0084118Y0047972D01*
X0084182Y0047906D01*
X0084244Y0047836D01*
X0084302Y0047765D01*
X0084357Y0047691D01*
X0084409Y0047614D01*
X0084458Y0047535D01*
X0084504Y0047455D01*
X0084546Y0047372D01*
X0084584Y0047288D01*
X0084619Y0047202D01*
X0084650Y0047115D01*
X0084677Y0047027D01*
X0084700Y0046937D01*
X0084720Y0046847D01*
X0084736Y0046756D01*
X0084748Y0046664D01*
X0084756Y0046572D01*
X0084760Y0046479D01*
X0084760Y0046387D01*
X0084756Y0046294D01*
X0084748Y0046202D01*
X0084736Y0046110D01*
X0084720Y0046019D01*
X0084700Y0045929D01*
X0084677Y0045839D01*
X0084650Y0045751D01*
X0084619Y0045664D01*
X0084584Y0045578D01*
X0084546Y0045494D01*
X0084504Y0045411D01*
X0084458Y0045331D01*
X0084409Y0045252D01*
X0084357Y0045175D01*
X0084302Y0045101D01*
X0084244Y0045030D01*
X0084182Y0044960D01*
X0084118Y0044894D01*
X0084051Y0044830D01*
X0083981Y0044770D01*
X0083908Y0044712D01*
X0083834Y0044657D01*
X0083757Y0044606D01*
X0083678Y0044558D01*
X0083596Y0044514D01*
X0083513Y0044472D01*
X0083429Y0044435D01*
X0083343Y0044401D01*
X0083255Y0044371D01*
X0083167Y0044345D01*
X0083077Y0044322D01*
X0082986Y0044304D01*
X0082895Y0044289D01*
X0082803Y0044278D01*
X0082711Y0044271D01*
X0082618Y0044268D01*
X0082526Y0044269D01*
X0082433Y0044274D01*
X0082341Y0044283D01*
X0082249Y0044296D01*
X0082158Y0044312D01*
X0082068Y0044333D01*
X0081979Y0044357D01*
X0081891Y0044386D01*
X0081804Y0044418D01*
X0081719Y0044453D01*
X0081635Y0044493D01*
X0081553Y0044535D01*
X0081473Y0044582D01*
X0081395Y0044631D01*
X0081319Y0044684D01*
X0081245Y0044740D01*
X0081174Y0044800D01*
X0081106Y0044862D01*
X0081040Y0044927D01*
X0080977Y0044995D01*
X0080917Y0045065D01*
X0080860Y0045138D01*
X0080806Y0045213D01*
X0080756Y0045291D01*
X0080709Y0045371D01*
X0080665Y0045452D01*
X0080625Y0045536D01*
X0080588Y0045621D01*
X0080555Y0045707D01*
X0080526Y0045795D01*
X0080501Y0045884D01*
X0080479Y0045974D01*
X0080462Y0046065D01*
X0080448Y0046156D01*
X0080438Y0046248D01*
X0080432Y0046340D01*
X0080430Y0046433D01*
X0090430Y0046433D02*
X0090432Y0046526D01*
X0090438Y0046618D01*
X0090448Y0046710D01*
X0090462Y0046801D01*
X0090479Y0046892D01*
X0090501Y0046982D01*
X0090526Y0047071D01*
X0090555Y0047159D01*
X0090588Y0047245D01*
X0090625Y0047330D01*
X0090665Y0047414D01*
X0090709Y0047495D01*
X0090756Y0047575D01*
X0090806Y0047653D01*
X0090860Y0047728D01*
X0090917Y0047801D01*
X0090977Y0047871D01*
X0091040Y0047939D01*
X0091106Y0048004D01*
X0091174Y0048066D01*
X0091245Y0048126D01*
X0091319Y0048182D01*
X0091395Y0048235D01*
X0091473Y0048284D01*
X0091553Y0048331D01*
X0091635Y0048373D01*
X0091719Y0048413D01*
X0091804Y0048448D01*
X0091891Y0048480D01*
X0091979Y0048509D01*
X0092068Y0048533D01*
X0092158Y0048554D01*
X0092249Y0048570D01*
X0092341Y0048583D01*
X0092433Y0048592D01*
X0092526Y0048597D01*
X0092618Y0048598D01*
X0092711Y0048595D01*
X0092803Y0048588D01*
X0092895Y0048577D01*
X0092986Y0048562D01*
X0093077Y0048544D01*
X0093167Y0048521D01*
X0093255Y0048495D01*
X0093343Y0048465D01*
X0093429Y0048431D01*
X0093513Y0048394D01*
X0093596Y0048352D01*
X0093677Y0048308D01*
X0093757Y0048260D01*
X0093834Y0048209D01*
X0093908Y0048154D01*
X0093981Y0048096D01*
X0094051Y0048036D01*
X0094118Y0047972D01*
X0094182Y0047906D01*
X0094244Y0047836D01*
X0094302Y0047765D01*
X0094357Y0047691D01*
X0094409Y0047614D01*
X0094458Y0047535D01*
X0094504Y0047455D01*
X0094546Y0047372D01*
X0094584Y0047288D01*
X0094619Y0047202D01*
X0094650Y0047115D01*
X0094677Y0047027D01*
X0094700Y0046937D01*
X0094720Y0046847D01*
X0094736Y0046756D01*
X0094748Y0046664D01*
X0094756Y0046572D01*
X0094760Y0046479D01*
X0094760Y0046387D01*
X0094756Y0046294D01*
X0094748Y0046202D01*
X0094736Y0046110D01*
X0094720Y0046019D01*
X0094700Y0045929D01*
X0094677Y0045839D01*
X0094650Y0045751D01*
X0094619Y0045664D01*
X0094584Y0045578D01*
X0094546Y0045494D01*
X0094504Y0045411D01*
X0094458Y0045331D01*
X0094409Y0045252D01*
X0094357Y0045175D01*
X0094302Y0045101D01*
X0094244Y0045030D01*
X0094182Y0044960D01*
X0094118Y0044894D01*
X0094051Y0044830D01*
X0093981Y0044770D01*
X0093908Y0044712D01*
X0093834Y0044657D01*
X0093757Y0044606D01*
X0093678Y0044558D01*
X0093596Y0044514D01*
X0093513Y0044472D01*
X0093429Y0044435D01*
X0093343Y0044401D01*
X0093255Y0044371D01*
X0093167Y0044345D01*
X0093077Y0044322D01*
X0092986Y0044304D01*
X0092895Y0044289D01*
X0092803Y0044278D01*
X0092711Y0044271D01*
X0092618Y0044268D01*
X0092526Y0044269D01*
X0092433Y0044274D01*
X0092341Y0044283D01*
X0092249Y0044296D01*
X0092158Y0044312D01*
X0092068Y0044333D01*
X0091979Y0044357D01*
X0091891Y0044386D01*
X0091804Y0044418D01*
X0091719Y0044453D01*
X0091635Y0044493D01*
X0091553Y0044535D01*
X0091473Y0044582D01*
X0091395Y0044631D01*
X0091319Y0044684D01*
X0091245Y0044740D01*
X0091174Y0044800D01*
X0091106Y0044862D01*
X0091040Y0044927D01*
X0090977Y0044995D01*
X0090917Y0045065D01*
X0090860Y0045138D01*
X0090806Y0045213D01*
X0090756Y0045291D01*
X0090709Y0045371D01*
X0090665Y0045452D01*
X0090625Y0045536D01*
X0090588Y0045621D01*
X0090555Y0045707D01*
X0090526Y0045795D01*
X0090501Y0045884D01*
X0090479Y0045974D01*
X0090462Y0046065D01*
X0090448Y0046156D01*
X0090438Y0046248D01*
X0090432Y0046340D01*
X0090430Y0046433D01*
X0100430Y0046433D02*
X0100432Y0046526D01*
X0100438Y0046618D01*
X0100448Y0046710D01*
X0100462Y0046801D01*
X0100479Y0046892D01*
X0100501Y0046982D01*
X0100526Y0047071D01*
X0100555Y0047159D01*
X0100588Y0047245D01*
X0100625Y0047330D01*
X0100665Y0047414D01*
X0100709Y0047495D01*
X0100756Y0047575D01*
X0100806Y0047653D01*
X0100860Y0047728D01*
X0100917Y0047801D01*
X0100977Y0047871D01*
X0101040Y0047939D01*
X0101106Y0048004D01*
X0101174Y0048066D01*
X0101245Y0048126D01*
X0101319Y0048182D01*
X0101395Y0048235D01*
X0101473Y0048284D01*
X0101553Y0048331D01*
X0101635Y0048373D01*
X0101719Y0048413D01*
X0101804Y0048448D01*
X0101891Y0048480D01*
X0101979Y0048509D01*
X0102068Y0048533D01*
X0102158Y0048554D01*
X0102249Y0048570D01*
X0102341Y0048583D01*
X0102433Y0048592D01*
X0102526Y0048597D01*
X0102618Y0048598D01*
X0102711Y0048595D01*
X0102803Y0048588D01*
X0102895Y0048577D01*
X0102986Y0048562D01*
X0103077Y0048544D01*
X0103167Y0048521D01*
X0103255Y0048495D01*
X0103343Y0048465D01*
X0103429Y0048431D01*
X0103513Y0048394D01*
X0103596Y0048352D01*
X0103677Y0048308D01*
X0103757Y0048260D01*
X0103834Y0048209D01*
X0103908Y0048154D01*
X0103981Y0048096D01*
X0104051Y0048036D01*
X0104118Y0047972D01*
X0104182Y0047906D01*
X0104244Y0047836D01*
X0104302Y0047765D01*
X0104357Y0047691D01*
X0104409Y0047614D01*
X0104458Y0047535D01*
X0104504Y0047455D01*
X0104546Y0047372D01*
X0104584Y0047288D01*
X0104619Y0047202D01*
X0104650Y0047115D01*
X0104677Y0047027D01*
X0104700Y0046937D01*
X0104720Y0046847D01*
X0104736Y0046756D01*
X0104748Y0046664D01*
X0104756Y0046572D01*
X0104760Y0046479D01*
X0104760Y0046387D01*
X0104756Y0046294D01*
X0104748Y0046202D01*
X0104736Y0046110D01*
X0104720Y0046019D01*
X0104700Y0045929D01*
X0104677Y0045839D01*
X0104650Y0045751D01*
X0104619Y0045664D01*
X0104584Y0045578D01*
X0104546Y0045494D01*
X0104504Y0045411D01*
X0104458Y0045331D01*
X0104409Y0045252D01*
X0104357Y0045175D01*
X0104302Y0045101D01*
X0104244Y0045030D01*
X0104182Y0044960D01*
X0104118Y0044894D01*
X0104051Y0044830D01*
X0103981Y0044770D01*
X0103908Y0044712D01*
X0103834Y0044657D01*
X0103757Y0044606D01*
X0103678Y0044558D01*
X0103596Y0044514D01*
X0103513Y0044472D01*
X0103429Y0044435D01*
X0103343Y0044401D01*
X0103255Y0044371D01*
X0103167Y0044345D01*
X0103077Y0044322D01*
X0102986Y0044304D01*
X0102895Y0044289D01*
X0102803Y0044278D01*
X0102711Y0044271D01*
X0102618Y0044268D01*
X0102526Y0044269D01*
X0102433Y0044274D01*
X0102341Y0044283D01*
X0102249Y0044296D01*
X0102158Y0044312D01*
X0102068Y0044333D01*
X0101979Y0044357D01*
X0101891Y0044386D01*
X0101804Y0044418D01*
X0101719Y0044453D01*
X0101635Y0044493D01*
X0101553Y0044535D01*
X0101473Y0044582D01*
X0101395Y0044631D01*
X0101319Y0044684D01*
X0101245Y0044740D01*
X0101174Y0044800D01*
X0101106Y0044862D01*
X0101040Y0044927D01*
X0100977Y0044995D01*
X0100917Y0045065D01*
X0100860Y0045138D01*
X0100806Y0045213D01*
X0100756Y0045291D01*
X0100709Y0045371D01*
X0100665Y0045452D01*
X0100625Y0045536D01*
X0100588Y0045621D01*
X0100555Y0045707D01*
X0100526Y0045795D01*
X0100501Y0045884D01*
X0100479Y0045974D01*
X0100462Y0046065D01*
X0100448Y0046156D01*
X0100438Y0046248D01*
X0100432Y0046340D01*
X0100430Y0046433D01*
X0115430Y0046433D02*
X0115432Y0046526D01*
X0115438Y0046618D01*
X0115448Y0046710D01*
X0115462Y0046801D01*
X0115479Y0046892D01*
X0115501Y0046982D01*
X0115526Y0047071D01*
X0115555Y0047159D01*
X0115588Y0047245D01*
X0115625Y0047330D01*
X0115665Y0047414D01*
X0115709Y0047495D01*
X0115756Y0047575D01*
X0115806Y0047653D01*
X0115860Y0047728D01*
X0115917Y0047801D01*
X0115977Y0047871D01*
X0116040Y0047939D01*
X0116106Y0048004D01*
X0116174Y0048066D01*
X0116245Y0048126D01*
X0116319Y0048182D01*
X0116395Y0048235D01*
X0116473Y0048284D01*
X0116553Y0048331D01*
X0116635Y0048373D01*
X0116719Y0048413D01*
X0116804Y0048448D01*
X0116891Y0048480D01*
X0116979Y0048509D01*
X0117068Y0048533D01*
X0117158Y0048554D01*
X0117249Y0048570D01*
X0117341Y0048583D01*
X0117433Y0048592D01*
X0117526Y0048597D01*
X0117618Y0048598D01*
X0117711Y0048595D01*
X0117803Y0048588D01*
X0117895Y0048577D01*
X0117986Y0048562D01*
X0118077Y0048544D01*
X0118167Y0048521D01*
X0118255Y0048495D01*
X0118343Y0048465D01*
X0118429Y0048431D01*
X0118513Y0048394D01*
X0118596Y0048352D01*
X0118677Y0048308D01*
X0118757Y0048260D01*
X0118834Y0048209D01*
X0118908Y0048154D01*
X0118981Y0048096D01*
X0119051Y0048036D01*
X0119118Y0047972D01*
X0119182Y0047906D01*
X0119244Y0047836D01*
X0119302Y0047765D01*
X0119357Y0047691D01*
X0119409Y0047614D01*
X0119458Y0047535D01*
X0119504Y0047455D01*
X0119546Y0047372D01*
X0119584Y0047288D01*
X0119619Y0047202D01*
X0119650Y0047115D01*
X0119677Y0047027D01*
X0119700Y0046937D01*
X0119720Y0046847D01*
X0119736Y0046756D01*
X0119748Y0046664D01*
X0119756Y0046572D01*
X0119760Y0046479D01*
X0119760Y0046387D01*
X0119756Y0046294D01*
X0119748Y0046202D01*
X0119736Y0046110D01*
X0119720Y0046019D01*
X0119700Y0045929D01*
X0119677Y0045839D01*
X0119650Y0045751D01*
X0119619Y0045664D01*
X0119584Y0045578D01*
X0119546Y0045494D01*
X0119504Y0045411D01*
X0119458Y0045331D01*
X0119409Y0045252D01*
X0119357Y0045175D01*
X0119302Y0045101D01*
X0119244Y0045030D01*
X0119182Y0044960D01*
X0119118Y0044894D01*
X0119051Y0044830D01*
X0118981Y0044770D01*
X0118908Y0044712D01*
X0118834Y0044657D01*
X0118757Y0044606D01*
X0118678Y0044558D01*
X0118596Y0044514D01*
X0118513Y0044472D01*
X0118429Y0044435D01*
X0118343Y0044401D01*
X0118255Y0044371D01*
X0118167Y0044345D01*
X0118077Y0044322D01*
X0117986Y0044304D01*
X0117895Y0044289D01*
X0117803Y0044278D01*
X0117711Y0044271D01*
X0117618Y0044268D01*
X0117526Y0044269D01*
X0117433Y0044274D01*
X0117341Y0044283D01*
X0117249Y0044296D01*
X0117158Y0044312D01*
X0117068Y0044333D01*
X0116979Y0044357D01*
X0116891Y0044386D01*
X0116804Y0044418D01*
X0116719Y0044453D01*
X0116635Y0044493D01*
X0116553Y0044535D01*
X0116473Y0044582D01*
X0116395Y0044631D01*
X0116319Y0044684D01*
X0116245Y0044740D01*
X0116174Y0044800D01*
X0116106Y0044862D01*
X0116040Y0044927D01*
X0115977Y0044995D01*
X0115917Y0045065D01*
X0115860Y0045138D01*
X0115806Y0045213D01*
X0115756Y0045291D01*
X0115709Y0045371D01*
X0115665Y0045452D01*
X0115625Y0045536D01*
X0115588Y0045621D01*
X0115555Y0045707D01*
X0115526Y0045795D01*
X0115501Y0045884D01*
X0115479Y0045974D01*
X0115462Y0046065D01*
X0115448Y0046156D01*
X0115438Y0046248D01*
X0115432Y0046340D01*
X0115430Y0046433D01*
X0125430Y0046433D02*
X0125432Y0046526D01*
X0125438Y0046618D01*
X0125448Y0046710D01*
X0125462Y0046801D01*
X0125479Y0046892D01*
X0125501Y0046982D01*
X0125526Y0047071D01*
X0125555Y0047159D01*
X0125588Y0047245D01*
X0125625Y0047330D01*
X0125665Y0047414D01*
X0125709Y0047495D01*
X0125756Y0047575D01*
X0125806Y0047653D01*
X0125860Y0047728D01*
X0125917Y0047801D01*
X0125977Y0047871D01*
X0126040Y0047939D01*
X0126106Y0048004D01*
X0126174Y0048066D01*
X0126245Y0048126D01*
X0126319Y0048182D01*
X0126395Y0048235D01*
X0126473Y0048284D01*
X0126553Y0048331D01*
X0126635Y0048373D01*
X0126719Y0048413D01*
X0126804Y0048448D01*
X0126891Y0048480D01*
X0126979Y0048509D01*
X0127068Y0048533D01*
X0127158Y0048554D01*
X0127249Y0048570D01*
X0127341Y0048583D01*
X0127433Y0048592D01*
X0127526Y0048597D01*
X0127618Y0048598D01*
X0127711Y0048595D01*
X0127803Y0048588D01*
X0127895Y0048577D01*
X0127986Y0048562D01*
X0128077Y0048544D01*
X0128167Y0048521D01*
X0128255Y0048495D01*
X0128343Y0048465D01*
X0128429Y0048431D01*
X0128513Y0048394D01*
X0128596Y0048352D01*
X0128677Y0048308D01*
X0128757Y0048260D01*
X0128834Y0048209D01*
X0128908Y0048154D01*
X0128981Y0048096D01*
X0129051Y0048036D01*
X0129118Y0047972D01*
X0129182Y0047906D01*
X0129244Y0047836D01*
X0129302Y0047765D01*
X0129357Y0047691D01*
X0129409Y0047614D01*
X0129458Y0047535D01*
X0129504Y0047455D01*
X0129546Y0047372D01*
X0129584Y0047288D01*
X0129619Y0047202D01*
X0129650Y0047115D01*
X0129677Y0047027D01*
X0129700Y0046937D01*
X0129720Y0046847D01*
X0129736Y0046756D01*
X0129748Y0046664D01*
X0129756Y0046572D01*
X0129760Y0046479D01*
X0129760Y0046387D01*
X0129756Y0046294D01*
X0129748Y0046202D01*
X0129736Y0046110D01*
X0129720Y0046019D01*
X0129700Y0045929D01*
X0129677Y0045839D01*
X0129650Y0045751D01*
X0129619Y0045664D01*
X0129584Y0045578D01*
X0129546Y0045494D01*
X0129504Y0045411D01*
X0129458Y0045331D01*
X0129409Y0045252D01*
X0129357Y0045175D01*
X0129302Y0045101D01*
X0129244Y0045030D01*
X0129182Y0044960D01*
X0129118Y0044894D01*
X0129051Y0044830D01*
X0128981Y0044770D01*
X0128908Y0044712D01*
X0128834Y0044657D01*
X0128757Y0044606D01*
X0128678Y0044558D01*
X0128596Y0044514D01*
X0128513Y0044472D01*
X0128429Y0044435D01*
X0128343Y0044401D01*
X0128255Y0044371D01*
X0128167Y0044345D01*
X0128077Y0044322D01*
X0127986Y0044304D01*
X0127895Y0044289D01*
X0127803Y0044278D01*
X0127711Y0044271D01*
X0127618Y0044268D01*
X0127526Y0044269D01*
X0127433Y0044274D01*
X0127341Y0044283D01*
X0127249Y0044296D01*
X0127158Y0044312D01*
X0127068Y0044333D01*
X0126979Y0044357D01*
X0126891Y0044386D01*
X0126804Y0044418D01*
X0126719Y0044453D01*
X0126635Y0044493D01*
X0126553Y0044535D01*
X0126473Y0044582D01*
X0126395Y0044631D01*
X0126319Y0044684D01*
X0126245Y0044740D01*
X0126174Y0044800D01*
X0126106Y0044862D01*
X0126040Y0044927D01*
X0125977Y0044995D01*
X0125917Y0045065D01*
X0125860Y0045138D01*
X0125806Y0045213D01*
X0125756Y0045291D01*
X0125709Y0045371D01*
X0125665Y0045452D01*
X0125625Y0045536D01*
X0125588Y0045621D01*
X0125555Y0045707D01*
X0125526Y0045795D01*
X0125501Y0045884D01*
X0125479Y0045974D01*
X0125462Y0046065D01*
X0125448Y0046156D01*
X0125438Y0046248D01*
X0125432Y0046340D01*
X0125430Y0046433D01*
X0135430Y0046433D02*
X0135432Y0046526D01*
X0135438Y0046618D01*
X0135448Y0046710D01*
X0135462Y0046801D01*
X0135479Y0046892D01*
X0135501Y0046982D01*
X0135526Y0047071D01*
X0135555Y0047159D01*
X0135588Y0047245D01*
X0135625Y0047330D01*
X0135665Y0047414D01*
X0135709Y0047495D01*
X0135756Y0047575D01*
X0135806Y0047653D01*
X0135860Y0047728D01*
X0135917Y0047801D01*
X0135977Y0047871D01*
X0136040Y0047939D01*
X0136106Y0048004D01*
X0136174Y0048066D01*
X0136245Y0048126D01*
X0136319Y0048182D01*
X0136395Y0048235D01*
X0136473Y0048284D01*
X0136553Y0048331D01*
X0136635Y0048373D01*
X0136719Y0048413D01*
X0136804Y0048448D01*
X0136891Y0048480D01*
X0136979Y0048509D01*
X0137068Y0048533D01*
X0137158Y0048554D01*
X0137249Y0048570D01*
X0137341Y0048583D01*
X0137433Y0048592D01*
X0137526Y0048597D01*
X0137618Y0048598D01*
X0137711Y0048595D01*
X0137803Y0048588D01*
X0137895Y0048577D01*
X0137986Y0048562D01*
X0138077Y0048544D01*
X0138167Y0048521D01*
X0138255Y0048495D01*
X0138343Y0048465D01*
X0138429Y0048431D01*
X0138513Y0048394D01*
X0138596Y0048352D01*
X0138677Y0048308D01*
X0138757Y0048260D01*
X0138834Y0048209D01*
X0138908Y0048154D01*
X0138981Y0048096D01*
X0139051Y0048036D01*
X0139118Y0047972D01*
X0139182Y0047906D01*
X0139244Y0047836D01*
X0139302Y0047765D01*
X0139357Y0047691D01*
X0139409Y0047614D01*
X0139458Y0047535D01*
X0139504Y0047455D01*
X0139546Y0047372D01*
X0139584Y0047288D01*
X0139619Y0047202D01*
X0139650Y0047115D01*
X0139677Y0047027D01*
X0139700Y0046937D01*
X0139720Y0046847D01*
X0139736Y0046756D01*
X0139748Y0046664D01*
X0139756Y0046572D01*
X0139760Y0046479D01*
X0139760Y0046387D01*
X0139756Y0046294D01*
X0139748Y0046202D01*
X0139736Y0046110D01*
X0139720Y0046019D01*
X0139700Y0045929D01*
X0139677Y0045839D01*
X0139650Y0045751D01*
X0139619Y0045664D01*
X0139584Y0045578D01*
X0139546Y0045494D01*
X0139504Y0045411D01*
X0139458Y0045331D01*
X0139409Y0045252D01*
X0139357Y0045175D01*
X0139302Y0045101D01*
X0139244Y0045030D01*
X0139182Y0044960D01*
X0139118Y0044894D01*
X0139051Y0044830D01*
X0138981Y0044770D01*
X0138908Y0044712D01*
X0138834Y0044657D01*
X0138757Y0044606D01*
X0138678Y0044558D01*
X0138596Y0044514D01*
X0138513Y0044472D01*
X0138429Y0044435D01*
X0138343Y0044401D01*
X0138255Y0044371D01*
X0138167Y0044345D01*
X0138077Y0044322D01*
X0137986Y0044304D01*
X0137895Y0044289D01*
X0137803Y0044278D01*
X0137711Y0044271D01*
X0137618Y0044268D01*
X0137526Y0044269D01*
X0137433Y0044274D01*
X0137341Y0044283D01*
X0137249Y0044296D01*
X0137158Y0044312D01*
X0137068Y0044333D01*
X0136979Y0044357D01*
X0136891Y0044386D01*
X0136804Y0044418D01*
X0136719Y0044453D01*
X0136635Y0044493D01*
X0136553Y0044535D01*
X0136473Y0044582D01*
X0136395Y0044631D01*
X0136319Y0044684D01*
X0136245Y0044740D01*
X0136174Y0044800D01*
X0136106Y0044862D01*
X0136040Y0044927D01*
X0135977Y0044995D01*
X0135917Y0045065D01*
X0135860Y0045138D01*
X0135806Y0045213D01*
X0135756Y0045291D01*
X0135709Y0045371D01*
X0135665Y0045452D01*
X0135625Y0045536D01*
X0135588Y0045621D01*
X0135555Y0045707D01*
X0135526Y0045795D01*
X0135501Y0045884D01*
X0135479Y0045974D01*
X0135462Y0046065D01*
X0135448Y0046156D01*
X0135438Y0046248D01*
X0135432Y0046340D01*
X0135430Y0046433D01*
X0150430Y0046433D02*
X0150432Y0046526D01*
X0150438Y0046618D01*
X0150448Y0046710D01*
X0150462Y0046801D01*
X0150479Y0046892D01*
X0150501Y0046982D01*
X0150526Y0047071D01*
X0150555Y0047159D01*
X0150588Y0047245D01*
X0150625Y0047330D01*
X0150665Y0047414D01*
X0150709Y0047495D01*
X0150756Y0047575D01*
X0150806Y0047653D01*
X0150860Y0047728D01*
X0150917Y0047801D01*
X0150977Y0047871D01*
X0151040Y0047939D01*
X0151106Y0048004D01*
X0151174Y0048066D01*
X0151245Y0048126D01*
X0151319Y0048182D01*
X0151395Y0048235D01*
X0151473Y0048284D01*
X0151553Y0048331D01*
X0151635Y0048373D01*
X0151719Y0048413D01*
X0151804Y0048448D01*
X0151891Y0048480D01*
X0151979Y0048509D01*
X0152068Y0048533D01*
X0152158Y0048554D01*
X0152249Y0048570D01*
X0152341Y0048583D01*
X0152433Y0048592D01*
X0152526Y0048597D01*
X0152618Y0048598D01*
X0152711Y0048595D01*
X0152803Y0048588D01*
X0152895Y0048577D01*
X0152986Y0048562D01*
X0153077Y0048544D01*
X0153167Y0048521D01*
X0153255Y0048495D01*
X0153343Y0048465D01*
X0153429Y0048431D01*
X0153513Y0048394D01*
X0153596Y0048352D01*
X0153677Y0048308D01*
X0153757Y0048260D01*
X0153834Y0048209D01*
X0153908Y0048154D01*
X0153981Y0048096D01*
X0154051Y0048036D01*
X0154118Y0047972D01*
X0154182Y0047906D01*
X0154244Y0047836D01*
X0154302Y0047765D01*
X0154357Y0047691D01*
X0154409Y0047614D01*
X0154458Y0047535D01*
X0154504Y0047455D01*
X0154546Y0047372D01*
X0154584Y0047288D01*
X0154619Y0047202D01*
X0154650Y0047115D01*
X0154677Y0047027D01*
X0154700Y0046937D01*
X0154720Y0046847D01*
X0154736Y0046756D01*
X0154748Y0046664D01*
X0154756Y0046572D01*
X0154760Y0046479D01*
X0154760Y0046387D01*
X0154756Y0046294D01*
X0154748Y0046202D01*
X0154736Y0046110D01*
X0154720Y0046019D01*
X0154700Y0045929D01*
X0154677Y0045839D01*
X0154650Y0045751D01*
X0154619Y0045664D01*
X0154584Y0045578D01*
X0154546Y0045494D01*
X0154504Y0045411D01*
X0154458Y0045331D01*
X0154409Y0045252D01*
X0154357Y0045175D01*
X0154302Y0045101D01*
X0154244Y0045030D01*
X0154182Y0044960D01*
X0154118Y0044894D01*
X0154051Y0044830D01*
X0153981Y0044770D01*
X0153908Y0044712D01*
X0153834Y0044657D01*
X0153757Y0044606D01*
X0153678Y0044558D01*
X0153596Y0044514D01*
X0153513Y0044472D01*
X0153429Y0044435D01*
X0153343Y0044401D01*
X0153255Y0044371D01*
X0153167Y0044345D01*
X0153077Y0044322D01*
X0152986Y0044304D01*
X0152895Y0044289D01*
X0152803Y0044278D01*
X0152711Y0044271D01*
X0152618Y0044268D01*
X0152526Y0044269D01*
X0152433Y0044274D01*
X0152341Y0044283D01*
X0152249Y0044296D01*
X0152158Y0044312D01*
X0152068Y0044333D01*
X0151979Y0044357D01*
X0151891Y0044386D01*
X0151804Y0044418D01*
X0151719Y0044453D01*
X0151635Y0044493D01*
X0151553Y0044535D01*
X0151473Y0044582D01*
X0151395Y0044631D01*
X0151319Y0044684D01*
X0151245Y0044740D01*
X0151174Y0044800D01*
X0151106Y0044862D01*
X0151040Y0044927D01*
X0150977Y0044995D01*
X0150917Y0045065D01*
X0150860Y0045138D01*
X0150806Y0045213D01*
X0150756Y0045291D01*
X0150709Y0045371D01*
X0150665Y0045452D01*
X0150625Y0045536D01*
X0150588Y0045621D01*
X0150555Y0045707D01*
X0150526Y0045795D01*
X0150501Y0045884D01*
X0150479Y0045974D01*
X0150462Y0046065D01*
X0150448Y0046156D01*
X0150438Y0046248D01*
X0150432Y0046340D01*
X0150430Y0046433D01*
X0160430Y0046433D02*
X0160432Y0046526D01*
X0160438Y0046618D01*
X0160448Y0046710D01*
X0160462Y0046801D01*
X0160479Y0046892D01*
X0160501Y0046982D01*
X0160526Y0047071D01*
X0160555Y0047159D01*
X0160588Y0047245D01*
X0160625Y0047330D01*
X0160665Y0047414D01*
X0160709Y0047495D01*
X0160756Y0047575D01*
X0160806Y0047653D01*
X0160860Y0047728D01*
X0160917Y0047801D01*
X0160977Y0047871D01*
X0161040Y0047939D01*
X0161106Y0048004D01*
X0161174Y0048066D01*
X0161245Y0048126D01*
X0161319Y0048182D01*
X0161395Y0048235D01*
X0161473Y0048284D01*
X0161553Y0048331D01*
X0161635Y0048373D01*
X0161719Y0048413D01*
X0161804Y0048448D01*
X0161891Y0048480D01*
X0161979Y0048509D01*
X0162068Y0048533D01*
X0162158Y0048554D01*
X0162249Y0048570D01*
X0162341Y0048583D01*
X0162433Y0048592D01*
X0162526Y0048597D01*
X0162618Y0048598D01*
X0162711Y0048595D01*
X0162803Y0048588D01*
X0162895Y0048577D01*
X0162986Y0048562D01*
X0163077Y0048544D01*
X0163167Y0048521D01*
X0163255Y0048495D01*
X0163343Y0048465D01*
X0163429Y0048431D01*
X0163513Y0048394D01*
X0163596Y0048352D01*
X0163677Y0048308D01*
X0163757Y0048260D01*
X0163834Y0048209D01*
X0163908Y0048154D01*
X0163981Y0048096D01*
X0164051Y0048036D01*
X0164118Y0047972D01*
X0164182Y0047906D01*
X0164244Y0047836D01*
X0164302Y0047765D01*
X0164357Y0047691D01*
X0164409Y0047614D01*
X0164458Y0047535D01*
X0164504Y0047455D01*
X0164546Y0047372D01*
X0164584Y0047288D01*
X0164619Y0047202D01*
X0164650Y0047115D01*
X0164677Y0047027D01*
X0164700Y0046937D01*
X0164720Y0046847D01*
X0164736Y0046756D01*
X0164748Y0046664D01*
X0164756Y0046572D01*
X0164760Y0046479D01*
X0164760Y0046387D01*
X0164756Y0046294D01*
X0164748Y0046202D01*
X0164736Y0046110D01*
X0164720Y0046019D01*
X0164700Y0045929D01*
X0164677Y0045839D01*
X0164650Y0045751D01*
X0164619Y0045664D01*
X0164584Y0045578D01*
X0164546Y0045494D01*
X0164504Y0045411D01*
X0164458Y0045331D01*
X0164409Y0045252D01*
X0164357Y0045175D01*
X0164302Y0045101D01*
X0164244Y0045030D01*
X0164182Y0044960D01*
X0164118Y0044894D01*
X0164051Y0044830D01*
X0163981Y0044770D01*
X0163908Y0044712D01*
X0163834Y0044657D01*
X0163757Y0044606D01*
X0163678Y0044558D01*
X0163596Y0044514D01*
X0163513Y0044472D01*
X0163429Y0044435D01*
X0163343Y0044401D01*
X0163255Y0044371D01*
X0163167Y0044345D01*
X0163077Y0044322D01*
X0162986Y0044304D01*
X0162895Y0044289D01*
X0162803Y0044278D01*
X0162711Y0044271D01*
X0162618Y0044268D01*
X0162526Y0044269D01*
X0162433Y0044274D01*
X0162341Y0044283D01*
X0162249Y0044296D01*
X0162158Y0044312D01*
X0162068Y0044333D01*
X0161979Y0044357D01*
X0161891Y0044386D01*
X0161804Y0044418D01*
X0161719Y0044453D01*
X0161635Y0044493D01*
X0161553Y0044535D01*
X0161473Y0044582D01*
X0161395Y0044631D01*
X0161319Y0044684D01*
X0161245Y0044740D01*
X0161174Y0044800D01*
X0161106Y0044862D01*
X0161040Y0044927D01*
X0160977Y0044995D01*
X0160917Y0045065D01*
X0160860Y0045138D01*
X0160806Y0045213D01*
X0160756Y0045291D01*
X0160709Y0045371D01*
X0160665Y0045452D01*
X0160625Y0045536D01*
X0160588Y0045621D01*
X0160555Y0045707D01*
X0160526Y0045795D01*
X0160501Y0045884D01*
X0160479Y0045974D01*
X0160462Y0046065D01*
X0160448Y0046156D01*
X0160438Y0046248D01*
X0160432Y0046340D01*
X0160430Y0046433D01*
X0170430Y0046433D02*
X0170432Y0046526D01*
X0170438Y0046618D01*
X0170448Y0046710D01*
X0170462Y0046801D01*
X0170479Y0046892D01*
X0170501Y0046982D01*
X0170526Y0047071D01*
X0170555Y0047159D01*
X0170588Y0047245D01*
X0170625Y0047330D01*
X0170665Y0047414D01*
X0170709Y0047495D01*
X0170756Y0047575D01*
X0170806Y0047653D01*
X0170860Y0047728D01*
X0170917Y0047801D01*
X0170977Y0047871D01*
X0171040Y0047939D01*
X0171106Y0048004D01*
X0171174Y0048066D01*
X0171245Y0048126D01*
X0171319Y0048182D01*
X0171395Y0048235D01*
X0171473Y0048284D01*
X0171553Y0048331D01*
X0171635Y0048373D01*
X0171719Y0048413D01*
X0171804Y0048448D01*
X0171891Y0048480D01*
X0171979Y0048509D01*
X0172068Y0048533D01*
X0172158Y0048554D01*
X0172249Y0048570D01*
X0172341Y0048583D01*
X0172433Y0048592D01*
X0172526Y0048597D01*
X0172618Y0048598D01*
X0172711Y0048595D01*
X0172803Y0048588D01*
X0172895Y0048577D01*
X0172986Y0048562D01*
X0173077Y0048544D01*
X0173167Y0048521D01*
X0173255Y0048495D01*
X0173343Y0048465D01*
X0173429Y0048431D01*
X0173513Y0048394D01*
X0173596Y0048352D01*
X0173677Y0048308D01*
X0173757Y0048260D01*
X0173834Y0048209D01*
X0173908Y0048154D01*
X0173981Y0048096D01*
X0174051Y0048036D01*
X0174118Y0047972D01*
X0174182Y0047906D01*
X0174244Y0047836D01*
X0174302Y0047765D01*
X0174357Y0047691D01*
X0174409Y0047614D01*
X0174458Y0047535D01*
X0174504Y0047455D01*
X0174546Y0047372D01*
X0174584Y0047288D01*
X0174619Y0047202D01*
X0174650Y0047115D01*
X0174677Y0047027D01*
X0174700Y0046937D01*
X0174720Y0046847D01*
X0174736Y0046756D01*
X0174748Y0046664D01*
X0174756Y0046572D01*
X0174760Y0046479D01*
X0174760Y0046387D01*
X0174756Y0046294D01*
X0174748Y0046202D01*
X0174736Y0046110D01*
X0174720Y0046019D01*
X0174700Y0045929D01*
X0174677Y0045839D01*
X0174650Y0045751D01*
X0174619Y0045664D01*
X0174584Y0045578D01*
X0174546Y0045494D01*
X0174504Y0045411D01*
X0174458Y0045331D01*
X0174409Y0045252D01*
X0174357Y0045175D01*
X0174302Y0045101D01*
X0174244Y0045030D01*
X0174182Y0044960D01*
X0174118Y0044894D01*
X0174051Y0044830D01*
X0173981Y0044770D01*
X0173908Y0044712D01*
X0173834Y0044657D01*
X0173757Y0044606D01*
X0173678Y0044558D01*
X0173596Y0044514D01*
X0173513Y0044472D01*
X0173429Y0044435D01*
X0173343Y0044401D01*
X0173255Y0044371D01*
X0173167Y0044345D01*
X0173077Y0044322D01*
X0172986Y0044304D01*
X0172895Y0044289D01*
X0172803Y0044278D01*
X0172711Y0044271D01*
X0172618Y0044268D01*
X0172526Y0044269D01*
X0172433Y0044274D01*
X0172341Y0044283D01*
X0172249Y0044296D01*
X0172158Y0044312D01*
X0172068Y0044333D01*
X0171979Y0044357D01*
X0171891Y0044386D01*
X0171804Y0044418D01*
X0171719Y0044453D01*
X0171635Y0044493D01*
X0171553Y0044535D01*
X0171473Y0044582D01*
X0171395Y0044631D01*
X0171319Y0044684D01*
X0171245Y0044740D01*
X0171174Y0044800D01*
X0171106Y0044862D01*
X0171040Y0044927D01*
X0170977Y0044995D01*
X0170917Y0045065D01*
X0170860Y0045138D01*
X0170806Y0045213D01*
X0170756Y0045291D01*
X0170709Y0045371D01*
X0170665Y0045452D01*
X0170625Y0045536D01*
X0170588Y0045621D01*
X0170555Y0045707D01*
X0170526Y0045795D01*
X0170501Y0045884D01*
X0170479Y0045974D01*
X0170462Y0046065D01*
X0170448Y0046156D01*
X0170438Y0046248D01*
X0170432Y0046340D01*
X0170430Y0046433D01*
X0185430Y0046433D02*
X0185432Y0046526D01*
X0185438Y0046618D01*
X0185448Y0046710D01*
X0185462Y0046801D01*
X0185479Y0046892D01*
X0185501Y0046982D01*
X0185526Y0047071D01*
X0185555Y0047159D01*
X0185588Y0047245D01*
X0185625Y0047330D01*
X0185665Y0047414D01*
X0185709Y0047495D01*
X0185756Y0047575D01*
X0185806Y0047653D01*
X0185860Y0047728D01*
X0185917Y0047801D01*
X0185977Y0047871D01*
X0186040Y0047939D01*
X0186106Y0048004D01*
X0186174Y0048066D01*
X0186245Y0048126D01*
X0186319Y0048182D01*
X0186395Y0048235D01*
X0186473Y0048284D01*
X0186553Y0048331D01*
X0186635Y0048373D01*
X0186719Y0048413D01*
X0186804Y0048448D01*
X0186891Y0048480D01*
X0186979Y0048509D01*
X0187068Y0048533D01*
X0187158Y0048554D01*
X0187249Y0048570D01*
X0187341Y0048583D01*
X0187433Y0048592D01*
X0187526Y0048597D01*
X0187618Y0048598D01*
X0187711Y0048595D01*
X0187803Y0048588D01*
X0187895Y0048577D01*
X0187986Y0048562D01*
X0188077Y0048544D01*
X0188167Y0048521D01*
X0188255Y0048495D01*
X0188343Y0048465D01*
X0188429Y0048431D01*
X0188513Y0048394D01*
X0188596Y0048352D01*
X0188677Y0048308D01*
X0188757Y0048260D01*
X0188834Y0048209D01*
X0188908Y0048154D01*
X0188981Y0048096D01*
X0189051Y0048036D01*
X0189118Y0047972D01*
X0189182Y0047906D01*
X0189244Y0047836D01*
X0189302Y0047765D01*
X0189357Y0047691D01*
X0189409Y0047614D01*
X0189458Y0047535D01*
X0189504Y0047455D01*
X0189546Y0047372D01*
X0189584Y0047288D01*
X0189619Y0047202D01*
X0189650Y0047115D01*
X0189677Y0047027D01*
X0189700Y0046937D01*
X0189720Y0046847D01*
X0189736Y0046756D01*
X0189748Y0046664D01*
X0189756Y0046572D01*
X0189760Y0046479D01*
X0189760Y0046387D01*
X0189756Y0046294D01*
X0189748Y0046202D01*
X0189736Y0046110D01*
X0189720Y0046019D01*
X0189700Y0045929D01*
X0189677Y0045839D01*
X0189650Y0045751D01*
X0189619Y0045664D01*
X0189584Y0045578D01*
X0189546Y0045494D01*
X0189504Y0045411D01*
X0189458Y0045331D01*
X0189409Y0045252D01*
X0189357Y0045175D01*
X0189302Y0045101D01*
X0189244Y0045030D01*
X0189182Y0044960D01*
X0189118Y0044894D01*
X0189051Y0044830D01*
X0188981Y0044770D01*
X0188908Y0044712D01*
X0188834Y0044657D01*
X0188757Y0044606D01*
X0188678Y0044558D01*
X0188596Y0044514D01*
X0188513Y0044472D01*
X0188429Y0044435D01*
X0188343Y0044401D01*
X0188255Y0044371D01*
X0188167Y0044345D01*
X0188077Y0044322D01*
X0187986Y0044304D01*
X0187895Y0044289D01*
X0187803Y0044278D01*
X0187711Y0044271D01*
X0187618Y0044268D01*
X0187526Y0044269D01*
X0187433Y0044274D01*
X0187341Y0044283D01*
X0187249Y0044296D01*
X0187158Y0044312D01*
X0187068Y0044333D01*
X0186979Y0044357D01*
X0186891Y0044386D01*
X0186804Y0044418D01*
X0186719Y0044453D01*
X0186635Y0044493D01*
X0186553Y0044535D01*
X0186473Y0044582D01*
X0186395Y0044631D01*
X0186319Y0044684D01*
X0186245Y0044740D01*
X0186174Y0044800D01*
X0186106Y0044862D01*
X0186040Y0044927D01*
X0185977Y0044995D01*
X0185917Y0045065D01*
X0185860Y0045138D01*
X0185806Y0045213D01*
X0185756Y0045291D01*
X0185709Y0045371D01*
X0185665Y0045452D01*
X0185625Y0045536D01*
X0185588Y0045621D01*
X0185555Y0045707D01*
X0185526Y0045795D01*
X0185501Y0045884D01*
X0185479Y0045974D01*
X0185462Y0046065D01*
X0185448Y0046156D01*
X0185438Y0046248D01*
X0185432Y0046340D01*
X0185430Y0046433D01*
X0195430Y0046433D02*
X0195432Y0046526D01*
X0195438Y0046618D01*
X0195448Y0046710D01*
X0195462Y0046801D01*
X0195479Y0046892D01*
X0195501Y0046982D01*
X0195526Y0047071D01*
X0195555Y0047159D01*
X0195588Y0047245D01*
X0195625Y0047330D01*
X0195665Y0047414D01*
X0195709Y0047495D01*
X0195756Y0047575D01*
X0195806Y0047653D01*
X0195860Y0047728D01*
X0195917Y0047801D01*
X0195977Y0047871D01*
X0196040Y0047939D01*
X0196106Y0048004D01*
X0196174Y0048066D01*
X0196245Y0048126D01*
X0196319Y0048182D01*
X0196395Y0048235D01*
X0196473Y0048284D01*
X0196553Y0048331D01*
X0196635Y0048373D01*
X0196719Y0048413D01*
X0196804Y0048448D01*
X0196891Y0048480D01*
X0196979Y0048509D01*
X0197068Y0048533D01*
X0197158Y0048554D01*
X0197249Y0048570D01*
X0197341Y0048583D01*
X0197433Y0048592D01*
X0197526Y0048597D01*
X0197618Y0048598D01*
X0197711Y0048595D01*
X0197803Y0048588D01*
X0197895Y0048577D01*
X0197986Y0048562D01*
X0198077Y0048544D01*
X0198167Y0048521D01*
X0198255Y0048495D01*
X0198343Y0048465D01*
X0198429Y0048431D01*
X0198513Y0048394D01*
X0198596Y0048352D01*
X0198677Y0048308D01*
X0198757Y0048260D01*
X0198834Y0048209D01*
X0198908Y0048154D01*
X0198981Y0048096D01*
X0199051Y0048036D01*
X0199118Y0047972D01*
X0199182Y0047906D01*
X0199244Y0047836D01*
X0199302Y0047765D01*
X0199357Y0047691D01*
X0199409Y0047614D01*
X0199458Y0047535D01*
X0199504Y0047455D01*
X0199546Y0047372D01*
X0199584Y0047288D01*
X0199619Y0047202D01*
X0199650Y0047115D01*
X0199677Y0047027D01*
X0199700Y0046937D01*
X0199720Y0046847D01*
X0199736Y0046756D01*
X0199748Y0046664D01*
X0199756Y0046572D01*
X0199760Y0046479D01*
X0199760Y0046387D01*
X0199756Y0046294D01*
X0199748Y0046202D01*
X0199736Y0046110D01*
X0199720Y0046019D01*
X0199700Y0045929D01*
X0199677Y0045839D01*
X0199650Y0045751D01*
X0199619Y0045664D01*
X0199584Y0045578D01*
X0199546Y0045494D01*
X0199504Y0045411D01*
X0199458Y0045331D01*
X0199409Y0045252D01*
X0199357Y0045175D01*
X0199302Y0045101D01*
X0199244Y0045030D01*
X0199182Y0044960D01*
X0199118Y0044894D01*
X0199051Y0044830D01*
X0198981Y0044770D01*
X0198908Y0044712D01*
X0198834Y0044657D01*
X0198757Y0044606D01*
X0198678Y0044558D01*
X0198596Y0044514D01*
X0198513Y0044472D01*
X0198429Y0044435D01*
X0198343Y0044401D01*
X0198255Y0044371D01*
X0198167Y0044345D01*
X0198077Y0044322D01*
X0197986Y0044304D01*
X0197895Y0044289D01*
X0197803Y0044278D01*
X0197711Y0044271D01*
X0197618Y0044268D01*
X0197526Y0044269D01*
X0197433Y0044274D01*
X0197341Y0044283D01*
X0197249Y0044296D01*
X0197158Y0044312D01*
X0197068Y0044333D01*
X0196979Y0044357D01*
X0196891Y0044386D01*
X0196804Y0044418D01*
X0196719Y0044453D01*
X0196635Y0044493D01*
X0196553Y0044535D01*
X0196473Y0044582D01*
X0196395Y0044631D01*
X0196319Y0044684D01*
X0196245Y0044740D01*
X0196174Y0044800D01*
X0196106Y0044862D01*
X0196040Y0044927D01*
X0195977Y0044995D01*
X0195917Y0045065D01*
X0195860Y0045138D01*
X0195806Y0045213D01*
X0195756Y0045291D01*
X0195709Y0045371D01*
X0195665Y0045452D01*
X0195625Y0045536D01*
X0195588Y0045621D01*
X0195555Y0045707D01*
X0195526Y0045795D01*
X0195501Y0045884D01*
X0195479Y0045974D01*
X0195462Y0046065D01*
X0195448Y0046156D01*
X0195438Y0046248D01*
X0195432Y0046340D01*
X0195430Y0046433D01*
X0205430Y0046433D02*
X0205432Y0046526D01*
X0205438Y0046618D01*
X0205448Y0046710D01*
X0205462Y0046801D01*
X0205479Y0046892D01*
X0205501Y0046982D01*
X0205526Y0047071D01*
X0205555Y0047159D01*
X0205588Y0047245D01*
X0205625Y0047330D01*
X0205665Y0047414D01*
X0205709Y0047495D01*
X0205756Y0047575D01*
X0205806Y0047653D01*
X0205860Y0047728D01*
X0205917Y0047801D01*
X0205977Y0047871D01*
X0206040Y0047939D01*
X0206106Y0048004D01*
X0206174Y0048066D01*
X0206245Y0048126D01*
X0206319Y0048182D01*
X0206395Y0048235D01*
X0206473Y0048284D01*
X0206553Y0048331D01*
X0206635Y0048373D01*
X0206719Y0048413D01*
X0206804Y0048448D01*
X0206891Y0048480D01*
X0206979Y0048509D01*
X0207068Y0048533D01*
X0207158Y0048554D01*
X0207249Y0048570D01*
X0207341Y0048583D01*
X0207433Y0048592D01*
X0207526Y0048597D01*
X0207618Y0048598D01*
X0207711Y0048595D01*
X0207803Y0048588D01*
X0207895Y0048577D01*
X0207986Y0048562D01*
X0208077Y0048544D01*
X0208167Y0048521D01*
X0208255Y0048495D01*
X0208343Y0048465D01*
X0208429Y0048431D01*
X0208513Y0048394D01*
X0208596Y0048352D01*
X0208677Y0048308D01*
X0208757Y0048260D01*
X0208834Y0048209D01*
X0208908Y0048154D01*
X0208981Y0048096D01*
X0209051Y0048036D01*
X0209118Y0047972D01*
X0209182Y0047906D01*
X0209244Y0047836D01*
X0209302Y0047765D01*
X0209357Y0047691D01*
X0209409Y0047614D01*
X0209458Y0047535D01*
X0209504Y0047455D01*
X0209546Y0047372D01*
X0209584Y0047288D01*
X0209619Y0047202D01*
X0209650Y0047115D01*
X0209677Y0047027D01*
X0209700Y0046937D01*
X0209720Y0046847D01*
X0209736Y0046756D01*
X0209748Y0046664D01*
X0209756Y0046572D01*
X0209760Y0046479D01*
X0209760Y0046387D01*
X0209756Y0046294D01*
X0209748Y0046202D01*
X0209736Y0046110D01*
X0209720Y0046019D01*
X0209700Y0045929D01*
X0209677Y0045839D01*
X0209650Y0045751D01*
X0209619Y0045664D01*
X0209584Y0045578D01*
X0209546Y0045494D01*
X0209504Y0045411D01*
X0209458Y0045331D01*
X0209409Y0045252D01*
X0209357Y0045175D01*
X0209302Y0045101D01*
X0209244Y0045030D01*
X0209182Y0044960D01*
X0209118Y0044894D01*
X0209051Y0044830D01*
X0208981Y0044770D01*
X0208908Y0044712D01*
X0208834Y0044657D01*
X0208757Y0044606D01*
X0208678Y0044558D01*
X0208596Y0044514D01*
X0208513Y0044472D01*
X0208429Y0044435D01*
X0208343Y0044401D01*
X0208255Y0044371D01*
X0208167Y0044345D01*
X0208077Y0044322D01*
X0207986Y0044304D01*
X0207895Y0044289D01*
X0207803Y0044278D01*
X0207711Y0044271D01*
X0207618Y0044268D01*
X0207526Y0044269D01*
X0207433Y0044274D01*
X0207341Y0044283D01*
X0207249Y0044296D01*
X0207158Y0044312D01*
X0207068Y0044333D01*
X0206979Y0044357D01*
X0206891Y0044386D01*
X0206804Y0044418D01*
X0206719Y0044453D01*
X0206635Y0044493D01*
X0206553Y0044535D01*
X0206473Y0044582D01*
X0206395Y0044631D01*
X0206319Y0044684D01*
X0206245Y0044740D01*
X0206174Y0044800D01*
X0206106Y0044862D01*
X0206040Y0044927D01*
X0205977Y0044995D01*
X0205917Y0045065D01*
X0205860Y0045138D01*
X0205806Y0045213D01*
X0205756Y0045291D01*
X0205709Y0045371D01*
X0205665Y0045452D01*
X0205625Y0045536D01*
X0205588Y0045621D01*
X0205555Y0045707D01*
X0205526Y0045795D01*
X0205501Y0045884D01*
X0205479Y0045974D01*
X0205462Y0046065D01*
X0205448Y0046156D01*
X0205438Y0046248D01*
X0205432Y0046340D01*
X0205430Y0046433D01*
X0185430Y0216433D02*
X0185432Y0216526D01*
X0185438Y0216618D01*
X0185448Y0216710D01*
X0185462Y0216801D01*
X0185479Y0216892D01*
X0185501Y0216982D01*
X0185526Y0217071D01*
X0185555Y0217159D01*
X0185588Y0217245D01*
X0185625Y0217330D01*
X0185665Y0217414D01*
X0185709Y0217495D01*
X0185756Y0217575D01*
X0185806Y0217653D01*
X0185860Y0217728D01*
X0185917Y0217801D01*
X0185977Y0217871D01*
X0186040Y0217939D01*
X0186106Y0218004D01*
X0186174Y0218066D01*
X0186245Y0218126D01*
X0186319Y0218182D01*
X0186395Y0218235D01*
X0186473Y0218284D01*
X0186553Y0218331D01*
X0186635Y0218373D01*
X0186719Y0218413D01*
X0186804Y0218448D01*
X0186891Y0218480D01*
X0186979Y0218509D01*
X0187068Y0218533D01*
X0187158Y0218554D01*
X0187249Y0218570D01*
X0187341Y0218583D01*
X0187433Y0218592D01*
X0187526Y0218597D01*
X0187618Y0218598D01*
X0187711Y0218595D01*
X0187803Y0218588D01*
X0187895Y0218577D01*
X0187986Y0218562D01*
X0188077Y0218544D01*
X0188167Y0218521D01*
X0188255Y0218495D01*
X0188343Y0218465D01*
X0188429Y0218431D01*
X0188513Y0218394D01*
X0188596Y0218352D01*
X0188677Y0218308D01*
X0188757Y0218260D01*
X0188834Y0218209D01*
X0188908Y0218154D01*
X0188981Y0218096D01*
X0189051Y0218036D01*
X0189118Y0217972D01*
X0189182Y0217906D01*
X0189244Y0217836D01*
X0189302Y0217765D01*
X0189357Y0217691D01*
X0189409Y0217614D01*
X0189458Y0217535D01*
X0189504Y0217455D01*
X0189546Y0217372D01*
X0189584Y0217288D01*
X0189619Y0217202D01*
X0189650Y0217115D01*
X0189677Y0217027D01*
X0189700Y0216937D01*
X0189720Y0216847D01*
X0189736Y0216756D01*
X0189748Y0216664D01*
X0189756Y0216572D01*
X0189760Y0216479D01*
X0189760Y0216387D01*
X0189756Y0216294D01*
X0189748Y0216202D01*
X0189736Y0216110D01*
X0189720Y0216019D01*
X0189700Y0215929D01*
X0189677Y0215839D01*
X0189650Y0215751D01*
X0189619Y0215664D01*
X0189584Y0215578D01*
X0189546Y0215494D01*
X0189504Y0215411D01*
X0189458Y0215331D01*
X0189409Y0215252D01*
X0189357Y0215175D01*
X0189302Y0215101D01*
X0189244Y0215030D01*
X0189182Y0214960D01*
X0189118Y0214894D01*
X0189051Y0214830D01*
X0188981Y0214770D01*
X0188908Y0214712D01*
X0188834Y0214657D01*
X0188757Y0214606D01*
X0188678Y0214558D01*
X0188596Y0214514D01*
X0188513Y0214472D01*
X0188429Y0214435D01*
X0188343Y0214401D01*
X0188255Y0214371D01*
X0188167Y0214345D01*
X0188077Y0214322D01*
X0187986Y0214304D01*
X0187895Y0214289D01*
X0187803Y0214278D01*
X0187711Y0214271D01*
X0187618Y0214268D01*
X0187526Y0214269D01*
X0187433Y0214274D01*
X0187341Y0214283D01*
X0187249Y0214296D01*
X0187158Y0214312D01*
X0187068Y0214333D01*
X0186979Y0214357D01*
X0186891Y0214386D01*
X0186804Y0214418D01*
X0186719Y0214453D01*
X0186635Y0214493D01*
X0186553Y0214535D01*
X0186473Y0214582D01*
X0186395Y0214631D01*
X0186319Y0214684D01*
X0186245Y0214740D01*
X0186174Y0214800D01*
X0186106Y0214862D01*
X0186040Y0214927D01*
X0185977Y0214995D01*
X0185917Y0215065D01*
X0185860Y0215138D01*
X0185806Y0215213D01*
X0185756Y0215291D01*
X0185709Y0215371D01*
X0185665Y0215452D01*
X0185625Y0215536D01*
X0185588Y0215621D01*
X0185555Y0215707D01*
X0185526Y0215795D01*
X0185501Y0215884D01*
X0185479Y0215974D01*
X0185462Y0216065D01*
X0185448Y0216156D01*
X0185438Y0216248D01*
X0185432Y0216340D01*
X0185430Y0216433D01*
X0175430Y0216433D02*
X0175432Y0216526D01*
X0175438Y0216618D01*
X0175448Y0216710D01*
X0175462Y0216801D01*
X0175479Y0216892D01*
X0175501Y0216982D01*
X0175526Y0217071D01*
X0175555Y0217159D01*
X0175588Y0217245D01*
X0175625Y0217330D01*
X0175665Y0217414D01*
X0175709Y0217495D01*
X0175756Y0217575D01*
X0175806Y0217653D01*
X0175860Y0217728D01*
X0175917Y0217801D01*
X0175977Y0217871D01*
X0176040Y0217939D01*
X0176106Y0218004D01*
X0176174Y0218066D01*
X0176245Y0218126D01*
X0176319Y0218182D01*
X0176395Y0218235D01*
X0176473Y0218284D01*
X0176553Y0218331D01*
X0176635Y0218373D01*
X0176719Y0218413D01*
X0176804Y0218448D01*
X0176891Y0218480D01*
X0176979Y0218509D01*
X0177068Y0218533D01*
X0177158Y0218554D01*
X0177249Y0218570D01*
X0177341Y0218583D01*
X0177433Y0218592D01*
X0177526Y0218597D01*
X0177618Y0218598D01*
X0177711Y0218595D01*
X0177803Y0218588D01*
X0177895Y0218577D01*
X0177986Y0218562D01*
X0178077Y0218544D01*
X0178167Y0218521D01*
X0178255Y0218495D01*
X0178343Y0218465D01*
X0178429Y0218431D01*
X0178513Y0218394D01*
X0178596Y0218352D01*
X0178677Y0218308D01*
X0178757Y0218260D01*
X0178834Y0218209D01*
X0178908Y0218154D01*
X0178981Y0218096D01*
X0179051Y0218036D01*
X0179118Y0217972D01*
X0179182Y0217906D01*
X0179244Y0217836D01*
X0179302Y0217765D01*
X0179357Y0217691D01*
X0179409Y0217614D01*
X0179458Y0217535D01*
X0179504Y0217455D01*
X0179546Y0217372D01*
X0179584Y0217288D01*
X0179619Y0217202D01*
X0179650Y0217115D01*
X0179677Y0217027D01*
X0179700Y0216937D01*
X0179720Y0216847D01*
X0179736Y0216756D01*
X0179748Y0216664D01*
X0179756Y0216572D01*
X0179760Y0216479D01*
X0179760Y0216387D01*
X0179756Y0216294D01*
X0179748Y0216202D01*
X0179736Y0216110D01*
X0179720Y0216019D01*
X0179700Y0215929D01*
X0179677Y0215839D01*
X0179650Y0215751D01*
X0179619Y0215664D01*
X0179584Y0215578D01*
X0179546Y0215494D01*
X0179504Y0215411D01*
X0179458Y0215331D01*
X0179409Y0215252D01*
X0179357Y0215175D01*
X0179302Y0215101D01*
X0179244Y0215030D01*
X0179182Y0214960D01*
X0179118Y0214894D01*
X0179051Y0214830D01*
X0178981Y0214770D01*
X0178908Y0214712D01*
X0178834Y0214657D01*
X0178757Y0214606D01*
X0178678Y0214558D01*
X0178596Y0214514D01*
X0178513Y0214472D01*
X0178429Y0214435D01*
X0178343Y0214401D01*
X0178255Y0214371D01*
X0178167Y0214345D01*
X0178077Y0214322D01*
X0177986Y0214304D01*
X0177895Y0214289D01*
X0177803Y0214278D01*
X0177711Y0214271D01*
X0177618Y0214268D01*
X0177526Y0214269D01*
X0177433Y0214274D01*
X0177341Y0214283D01*
X0177249Y0214296D01*
X0177158Y0214312D01*
X0177068Y0214333D01*
X0176979Y0214357D01*
X0176891Y0214386D01*
X0176804Y0214418D01*
X0176719Y0214453D01*
X0176635Y0214493D01*
X0176553Y0214535D01*
X0176473Y0214582D01*
X0176395Y0214631D01*
X0176319Y0214684D01*
X0176245Y0214740D01*
X0176174Y0214800D01*
X0176106Y0214862D01*
X0176040Y0214927D01*
X0175977Y0214995D01*
X0175917Y0215065D01*
X0175860Y0215138D01*
X0175806Y0215213D01*
X0175756Y0215291D01*
X0175709Y0215371D01*
X0175665Y0215452D01*
X0175625Y0215536D01*
X0175588Y0215621D01*
X0175555Y0215707D01*
X0175526Y0215795D01*
X0175501Y0215884D01*
X0175479Y0215974D01*
X0175462Y0216065D01*
X0175448Y0216156D01*
X0175438Y0216248D01*
X0175432Y0216340D01*
X0175430Y0216433D01*
X0165430Y0216433D02*
X0165432Y0216526D01*
X0165438Y0216618D01*
X0165448Y0216710D01*
X0165462Y0216801D01*
X0165479Y0216892D01*
X0165501Y0216982D01*
X0165526Y0217071D01*
X0165555Y0217159D01*
X0165588Y0217245D01*
X0165625Y0217330D01*
X0165665Y0217414D01*
X0165709Y0217495D01*
X0165756Y0217575D01*
X0165806Y0217653D01*
X0165860Y0217728D01*
X0165917Y0217801D01*
X0165977Y0217871D01*
X0166040Y0217939D01*
X0166106Y0218004D01*
X0166174Y0218066D01*
X0166245Y0218126D01*
X0166319Y0218182D01*
X0166395Y0218235D01*
X0166473Y0218284D01*
X0166553Y0218331D01*
X0166635Y0218373D01*
X0166719Y0218413D01*
X0166804Y0218448D01*
X0166891Y0218480D01*
X0166979Y0218509D01*
X0167068Y0218533D01*
X0167158Y0218554D01*
X0167249Y0218570D01*
X0167341Y0218583D01*
X0167433Y0218592D01*
X0167526Y0218597D01*
X0167618Y0218598D01*
X0167711Y0218595D01*
X0167803Y0218588D01*
X0167895Y0218577D01*
X0167986Y0218562D01*
X0168077Y0218544D01*
X0168167Y0218521D01*
X0168255Y0218495D01*
X0168343Y0218465D01*
X0168429Y0218431D01*
X0168513Y0218394D01*
X0168596Y0218352D01*
X0168677Y0218308D01*
X0168757Y0218260D01*
X0168834Y0218209D01*
X0168908Y0218154D01*
X0168981Y0218096D01*
X0169051Y0218036D01*
X0169118Y0217972D01*
X0169182Y0217906D01*
X0169244Y0217836D01*
X0169302Y0217765D01*
X0169357Y0217691D01*
X0169409Y0217614D01*
X0169458Y0217535D01*
X0169504Y0217455D01*
X0169546Y0217372D01*
X0169584Y0217288D01*
X0169619Y0217202D01*
X0169650Y0217115D01*
X0169677Y0217027D01*
X0169700Y0216937D01*
X0169720Y0216847D01*
X0169736Y0216756D01*
X0169748Y0216664D01*
X0169756Y0216572D01*
X0169760Y0216479D01*
X0169760Y0216387D01*
X0169756Y0216294D01*
X0169748Y0216202D01*
X0169736Y0216110D01*
X0169720Y0216019D01*
X0169700Y0215929D01*
X0169677Y0215839D01*
X0169650Y0215751D01*
X0169619Y0215664D01*
X0169584Y0215578D01*
X0169546Y0215494D01*
X0169504Y0215411D01*
X0169458Y0215331D01*
X0169409Y0215252D01*
X0169357Y0215175D01*
X0169302Y0215101D01*
X0169244Y0215030D01*
X0169182Y0214960D01*
X0169118Y0214894D01*
X0169051Y0214830D01*
X0168981Y0214770D01*
X0168908Y0214712D01*
X0168834Y0214657D01*
X0168757Y0214606D01*
X0168678Y0214558D01*
X0168596Y0214514D01*
X0168513Y0214472D01*
X0168429Y0214435D01*
X0168343Y0214401D01*
X0168255Y0214371D01*
X0168167Y0214345D01*
X0168077Y0214322D01*
X0167986Y0214304D01*
X0167895Y0214289D01*
X0167803Y0214278D01*
X0167711Y0214271D01*
X0167618Y0214268D01*
X0167526Y0214269D01*
X0167433Y0214274D01*
X0167341Y0214283D01*
X0167249Y0214296D01*
X0167158Y0214312D01*
X0167068Y0214333D01*
X0166979Y0214357D01*
X0166891Y0214386D01*
X0166804Y0214418D01*
X0166719Y0214453D01*
X0166635Y0214493D01*
X0166553Y0214535D01*
X0166473Y0214582D01*
X0166395Y0214631D01*
X0166319Y0214684D01*
X0166245Y0214740D01*
X0166174Y0214800D01*
X0166106Y0214862D01*
X0166040Y0214927D01*
X0165977Y0214995D01*
X0165917Y0215065D01*
X0165860Y0215138D01*
X0165806Y0215213D01*
X0165756Y0215291D01*
X0165709Y0215371D01*
X0165665Y0215452D01*
X0165625Y0215536D01*
X0165588Y0215621D01*
X0165555Y0215707D01*
X0165526Y0215795D01*
X0165501Y0215884D01*
X0165479Y0215974D01*
X0165462Y0216065D01*
X0165448Y0216156D01*
X0165438Y0216248D01*
X0165432Y0216340D01*
X0165430Y0216433D01*
X0150430Y0216433D02*
X0150432Y0216526D01*
X0150438Y0216618D01*
X0150448Y0216710D01*
X0150462Y0216801D01*
X0150479Y0216892D01*
X0150501Y0216982D01*
X0150526Y0217071D01*
X0150555Y0217159D01*
X0150588Y0217245D01*
X0150625Y0217330D01*
X0150665Y0217414D01*
X0150709Y0217495D01*
X0150756Y0217575D01*
X0150806Y0217653D01*
X0150860Y0217728D01*
X0150917Y0217801D01*
X0150977Y0217871D01*
X0151040Y0217939D01*
X0151106Y0218004D01*
X0151174Y0218066D01*
X0151245Y0218126D01*
X0151319Y0218182D01*
X0151395Y0218235D01*
X0151473Y0218284D01*
X0151553Y0218331D01*
X0151635Y0218373D01*
X0151719Y0218413D01*
X0151804Y0218448D01*
X0151891Y0218480D01*
X0151979Y0218509D01*
X0152068Y0218533D01*
X0152158Y0218554D01*
X0152249Y0218570D01*
X0152341Y0218583D01*
X0152433Y0218592D01*
X0152526Y0218597D01*
X0152618Y0218598D01*
X0152711Y0218595D01*
X0152803Y0218588D01*
X0152895Y0218577D01*
X0152986Y0218562D01*
X0153077Y0218544D01*
X0153167Y0218521D01*
X0153255Y0218495D01*
X0153343Y0218465D01*
X0153429Y0218431D01*
X0153513Y0218394D01*
X0153596Y0218352D01*
X0153677Y0218308D01*
X0153757Y0218260D01*
X0153834Y0218209D01*
X0153908Y0218154D01*
X0153981Y0218096D01*
X0154051Y0218036D01*
X0154118Y0217972D01*
X0154182Y0217906D01*
X0154244Y0217836D01*
X0154302Y0217765D01*
X0154357Y0217691D01*
X0154409Y0217614D01*
X0154458Y0217535D01*
X0154504Y0217455D01*
X0154546Y0217372D01*
X0154584Y0217288D01*
X0154619Y0217202D01*
X0154650Y0217115D01*
X0154677Y0217027D01*
X0154700Y0216937D01*
X0154720Y0216847D01*
X0154736Y0216756D01*
X0154748Y0216664D01*
X0154756Y0216572D01*
X0154760Y0216479D01*
X0154760Y0216387D01*
X0154756Y0216294D01*
X0154748Y0216202D01*
X0154736Y0216110D01*
X0154720Y0216019D01*
X0154700Y0215929D01*
X0154677Y0215839D01*
X0154650Y0215751D01*
X0154619Y0215664D01*
X0154584Y0215578D01*
X0154546Y0215494D01*
X0154504Y0215411D01*
X0154458Y0215331D01*
X0154409Y0215252D01*
X0154357Y0215175D01*
X0154302Y0215101D01*
X0154244Y0215030D01*
X0154182Y0214960D01*
X0154118Y0214894D01*
X0154051Y0214830D01*
X0153981Y0214770D01*
X0153908Y0214712D01*
X0153834Y0214657D01*
X0153757Y0214606D01*
X0153678Y0214558D01*
X0153596Y0214514D01*
X0153513Y0214472D01*
X0153429Y0214435D01*
X0153343Y0214401D01*
X0153255Y0214371D01*
X0153167Y0214345D01*
X0153077Y0214322D01*
X0152986Y0214304D01*
X0152895Y0214289D01*
X0152803Y0214278D01*
X0152711Y0214271D01*
X0152618Y0214268D01*
X0152526Y0214269D01*
X0152433Y0214274D01*
X0152341Y0214283D01*
X0152249Y0214296D01*
X0152158Y0214312D01*
X0152068Y0214333D01*
X0151979Y0214357D01*
X0151891Y0214386D01*
X0151804Y0214418D01*
X0151719Y0214453D01*
X0151635Y0214493D01*
X0151553Y0214535D01*
X0151473Y0214582D01*
X0151395Y0214631D01*
X0151319Y0214684D01*
X0151245Y0214740D01*
X0151174Y0214800D01*
X0151106Y0214862D01*
X0151040Y0214927D01*
X0150977Y0214995D01*
X0150917Y0215065D01*
X0150860Y0215138D01*
X0150806Y0215213D01*
X0150756Y0215291D01*
X0150709Y0215371D01*
X0150665Y0215452D01*
X0150625Y0215536D01*
X0150588Y0215621D01*
X0150555Y0215707D01*
X0150526Y0215795D01*
X0150501Y0215884D01*
X0150479Y0215974D01*
X0150462Y0216065D01*
X0150448Y0216156D01*
X0150438Y0216248D01*
X0150432Y0216340D01*
X0150430Y0216433D01*
X0140430Y0216433D02*
X0140432Y0216526D01*
X0140438Y0216618D01*
X0140448Y0216710D01*
X0140462Y0216801D01*
X0140479Y0216892D01*
X0140501Y0216982D01*
X0140526Y0217071D01*
X0140555Y0217159D01*
X0140588Y0217245D01*
X0140625Y0217330D01*
X0140665Y0217414D01*
X0140709Y0217495D01*
X0140756Y0217575D01*
X0140806Y0217653D01*
X0140860Y0217728D01*
X0140917Y0217801D01*
X0140977Y0217871D01*
X0141040Y0217939D01*
X0141106Y0218004D01*
X0141174Y0218066D01*
X0141245Y0218126D01*
X0141319Y0218182D01*
X0141395Y0218235D01*
X0141473Y0218284D01*
X0141553Y0218331D01*
X0141635Y0218373D01*
X0141719Y0218413D01*
X0141804Y0218448D01*
X0141891Y0218480D01*
X0141979Y0218509D01*
X0142068Y0218533D01*
X0142158Y0218554D01*
X0142249Y0218570D01*
X0142341Y0218583D01*
X0142433Y0218592D01*
X0142526Y0218597D01*
X0142618Y0218598D01*
X0142711Y0218595D01*
X0142803Y0218588D01*
X0142895Y0218577D01*
X0142986Y0218562D01*
X0143077Y0218544D01*
X0143167Y0218521D01*
X0143255Y0218495D01*
X0143343Y0218465D01*
X0143429Y0218431D01*
X0143513Y0218394D01*
X0143596Y0218352D01*
X0143677Y0218308D01*
X0143757Y0218260D01*
X0143834Y0218209D01*
X0143908Y0218154D01*
X0143981Y0218096D01*
X0144051Y0218036D01*
X0144118Y0217972D01*
X0144182Y0217906D01*
X0144244Y0217836D01*
X0144302Y0217765D01*
X0144357Y0217691D01*
X0144409Y0217614D01*
X0144458Y0217535D01*
X0144504Y0217455D01*
X0144546Y0217372D01*
X0144584Y0217288D01*
X0144619Y0217202D01*
X0144650Y0217115D01*
X0144677Y0217027D01*
X0144700Y0216937D01*
X0144720Y0216847D01*
X0144736Y0216756D01*
X0144748Y0216664D01*
X0144756Y0216572D01*
X0144760Y0216479D01*
X0144760Y0216387D01*
X0144756Y0216294D01*
X0144748Y0216202D01*
X0144736Y0216110D01*
X0144720Y0216019D01*
X0144700Y0215929D01*
X0144677Y0215839D01*
X0144650Y0215751D01*
X0144619Y0215664D01*
X0144584Y0215578D01*
X0144546Y0215494D01*
X0144504Y0215411D01*
X0144458Y0215331D01*
X0144409Y0215252D01*
X0144357Y0215175D01*
X0144302Y0215101D01*
X0144244Y0215030D01*
X0144182Y0214960D01*
X0144118Y0214894D01*
X0144051Y0214830D01*
X0143981Y0214770D01*
X0143908Y0214712D01*
X0143834Y0214657D01*
X0143757Y0214606D01*
X0143678Y0214558D01*
X0143596Y0214514D01*
X0143513Y0214472D01*
X0143429Y0214435D01*
X0143343Y0214401D01*
X0143255Y0214371D01*
X0143167Y0214345D01*
X0143077Y0214322D01*
X0142986Y0214304D01*
X0142895Y0214289D01*
X0142803Y0214278D01*
X0142711Y0214271D01*
X0142618Y0214268D01*
X0142526Y0214269D01*
X0142433Y0214274D01*
X0142341Y0214283D01*
X0142249Y0214296D01*
X0142158Y0214312D01*
X0142068Y0214333D01*
X0141979Y0214357D01*
X0141891Y0214386D01*
X0141804Y0214418D01*
X0141719Y0214453D01*
X0141635Y0214493D01*
X0141553Y0214535D01*
X0141473Y0214582D01*
X0141395Y0214631D01*
X0141319Y0214684D01*
X0141245Y0214740D01*
X0141174Y0214800D01*
X0141106Y0214862D01*
X0141040Y0214927D01*
X0140977Y0214995D01*
X0140917Y0215065D01*
X0140860Y0215138D01*
X0140806Y0215213D01*
X0140756Y0215291D01*
X0140709Y0215371D01*
X0140665Y0215452D01*
X0140625Y0215536D01*
X0140588Y0215621D01*
X0140555Y0215707D01*
X0140526Y0215795D01*
X0140501Y0215884D01*
X0140479Y0215974D01*
X0140462Y0216065D01*
X0140448Y0216156D01*
X0140438Y0216248D01*
X0140432Y0216340D01*
X0140430Y0216433D01*
X0130430Y0216433D02*
X0130432Y0216526D01*
X0130438Y0216618D01*
X0130448Y0216710D01*
X0130462Y0216801D01*
X0130479Y0216892D01*
X0130501Y0216982D01*
X0130526Y0217071D01*
X0130555Y0217159D01*
X0130588Y0217245D01*
X0130625Y0217330D01*
X0130665Y0217414D01*
X0130709Y0217495D01*
X0130756Y0217575D01*
X0130806Y0217653D01*
X0130860Y0217728D01*
X0130917Y0217801D01*
X0130977Y0217871D01*
X0131040Y0217939D01*
X0131106Y0218004D01*
X0131174Y0218066D01*
X0131245Y0218126D01*
X0131319Y0218182D01*
X0131395Y0218235D01*
X0131473Y0218284D01*
X0131553Y0218331D01*
X0131635Y0218373D01*
X0131719Y0218413D01*
X0131804Y0218448D01*
X0131891Y0218480D01*
X0131979Y0218509D01*
X0132068Y0218533D01*
X0132158Y0218554D01*
X0132249Y0218570D01*
X0132341Y0218583D01*
X0132433Y0218592D01*
X0132526Y0218597D01*
X0132618Y0218598D01*
X0132711Y0218595D01*
X0132803Y0218588D01*
X0132895Y0218577D01*
X0132986Y0218562D01*
X0133077Y0218544D01*
X0133167Y0218521D01*
X0133255Y0218495D01*
X0133343Y0218465D01*
X0133429Y0218431D01*
X0133513Y0218394D01*
X0133596Y0218352D01*
X0133677Y0218308D01*
X0133757Y0218260D01*
X0133834Y0218209D01*
X0133908Y0218154D01*
X0133981Y0218096D01*
X0134051Y0218036D01*
X0134118Y0217972D01*
X0134182Y0217906D01*
X0134244Y0217836D01*
X0134302Y0217765D01*
X0134357Y0217691D01*
X0134409Y0217614D01*
X0134458Y0217535D01*
X0134504Y0217455D01*
X0134546Y0217372D01*
X0134584Y0217288D01*
X0134619Y0217202D01*
X0134650Y0217115D01*
X0134677Y0217027D01*
X0134700Y0216937D01*
X0134720Y0216847D01*
X0134736Y0216756D01*
X0134748Y0216664D01*
X0134756Y0216572D01*
X0134760Y0216479D01*
X0134760Y0216387D01*
X0134756Y0216294D01*
X0134748Y0216202D01*
X0134736Y0216110D01*
X0134720Y0216019D01*
X0134700Y0215929D01*
X0134677Y0215839D01*
X0134650Y0215751D01*
X0134619Y0215664D01*
X0134584Y0215578D01*
X0134546Y0215494D01*
X0134504Y0215411D01*
X0134458Y0215331D01*
X0134409Y0215252D01*
X0134357Y0215175D01*
X0134302Y0215101D01*
X0134244Y0215030D01*
X0134182Y0214960D01*
X0134118Y0214894D01*
X0134051Y0214830D01*
X0133981Y0214770D01*
X0133908Y0214712D01*
X0133834Y0214657D01*
X0133757Y0214606D01*
X0133678Y0214558D01*
X0133596Y0214514D01*
X0133513Y0214472D01*
X0133429Y0214435D01*
X0133343Y0214401D01*
X0133255Y0214371D01*
X0133167Y0214345D01*
X0133077Y0214322D01*
X0132986Y0214304D01*
X0132895Y0214289D01*
X0132803Y0214278D01*
X0132711Y0214271D01*
X0132618Y0214268D01*
X0132526Y0214269D01*
X0132433Y0214274D01*
X0132341Y0214283D01*
X0132249Y0214296D01*
X0132158Y0214312D01*
X0132068Y0214333D01*
X0131979Y0214357D01*
X0131891Y0214386D01*
X0131804Y0214418D01*
X0131719Y0214453D01*
X0131635Y0214493D01*
X0131553Y0214535D01*
X0131473Y0214582D01*
X0131395Y0214631D01*
X0131319Y0214684D01*
X0131245Y0214740D01*
X0131174Y0214800D01*
X0131106Y0214862D01*
X0131040Y0214927D01*
X0130977Y0214995D01*
X0130917Y0215065D01*
X0130860Y0215138D01*
X0130806Y0215213D01*
X0130756Y0215291D01*
X0130709Y0215371D01*
X0130665Y0215452D01*
X0130625Y0215536D01*
X0130588Y0215621D01*
X0130555Y0215707D01*
X0130526Y0215795D01*
X0130501Y0215884D01*
X0130479Y0215974D01*
X0130462Y0216065D01*
X0130448Y0216156D01*
X0130438Y0216248D01*
X0130432Y0216340D01*
X0130430Y0216433D01*
X0115430Y0216433D02*
X0115432Y0216526D01*
X0115438Y0216618D01*
X0115448Y0216710D01*
X0115462Y0216801D01*
X0115479Y0216892D01*
X0115501Y0216982D01*
X0115526Y0217071D01*
X0115555Y0217159D01*
X0115588Y0217245D01*
X0115625Y0217330D01*
X0115665Y0217414D01*
X0115709Y0217495D01*
X0115756Y0217575D01*
X0115806Y0217653D01*
X0115860Y0217728D01*
X0115917Y0217801D01*
X0115977Y0217871D01*
X0116040Y0217939D01*
X0116106Y0218004D01*
X0116174Y0218066D01*
X0116245Y0218126D01*
X0116319Y0218182D01*
X0116395Y0218235D01*
X0116473Y0218284D01*
X0116553Y0218331D01*
X0116635Y0218373D01*
X0116719Y0218413D01*
X0116804Y0218448D01*
X0116891Y0218480D01*
X0116979Y0218509D01*
X0117068Y0218533D01*
X0117158Y0218554D01*
X0117249Y0218570D01*
X0117341Y0218583D01*
X0117433Y0218592D01*
X0117526Y0218597D01*
X0117618Y0218598D01*
X0117711Y0218595D01*
X0117803Y0218588D01*
X0117895Y0218577D01*
X0117986Y0218562D01*
X0118077Y0218544D01*
X0118167Y0218521D01*
X0118255Y0218495D01*
X0118343Y0218465D01*
X0118429Y0218431D01*
X0118513Y0218394D01*
X0118596Y0218352D01*
X0118677Y0218308D01*
X0118757Y0218260D01*
X0118834Y0218209D01*
X0118908Y0218154D01*
X0118981Y0218096D01*
X0119051Y0218036D01*
X0119118Y0217972D01*
X0119182Y0217906D01*
X0119244Y0217836D01*
X0119302Y0217765D01*
X0119357Y0217691D01*
X0119409Y0217614D01*
X0119458Y0217535D01*
X0119504Y0217455D01*
X0119546Y0217372D01*
X0119584Y0217288D01*
X0119619Y0217202D01*
X0119650Y0217115D01*
X0119677Y0217027D01*
X0119700Y0216937D01*
X0119720Y0216847D01*
X0119736Y0216756D01*
X0119748Y0216664D01*
X0119756Y0216572D01*
X0119760Y0216479D01*
X0119760Y0216387D01*
X0119756Y0216294D01*
X0119748Y0216202D01*
X0119736Y0216110D01*
X0119720Y0216019D01*
X0119700Y0215929D01*
X0119677Y0215839D01*
X0119650Y0215751D01*
X0119619Y0215664D01*
X0119584Y0215578D01*
X0119546Y0215494D01*
X0119504Y0215411D01*
X0119458Y0215331D01*
X0119409Y0215252D01*
X0119357Y0215175D01*
X0119302Y0215101D01*
X0119244Y0215030D01*
X0119182Y0214960D01*
X0119118Y0214894D01*
X0119051Y0214830D01*
X0118981Y0214770D01*
X0118908Y0214712D01*
X0118834Y0214657D01*
X0118757Y0214606D01*
X0118678Y0214558D01*
X0118596Y0214514D01*
X0118513Y0214472D01*
X0118429Y0214435D01*
X0118343Y0214401D01*
X0118255Y0214371D01*
X0118167Y0214345D01*
X0118077Y0214322D01*
X0117986Y0214304D01*
X0117895Y0214289D01*
X0117803Y0214278D01*
X0117711Y0214271D01*
X0117618Y0214268D01*
X0117526Y0214269D01*
X0117433Y0214274D01*
X0117341Y0214283D01*
X0117249Y0214296D01*
X0117158Y0214312D01*
X0117068Y0214333D01*
X0116979Y0214357D01*
X0116891Y0214386D01*
X0116804Y0214418D01*
X0116719Y0214453D01*
X0116635Y0214493D01*
X0116553Y0214535D01*
X0116473Y0214582D01*
X0116395Y0214631D01*
X0116319Y0214684D01*
X0116245Y0214740D01*
X0116174Y0214800D01*
X0116106Y0214862D01*
X0116040Y0214927D01*
X0115977Y0214995D01*
X0115917Y0215065D01*
X0115860Y0215138D01*
X0115806Y0215213D01*
X0115756Y0215291D01*
X0115709Y0215371D01*
X0115665Y0215452D01*
X0115625Y0215536D01*
X0115588Y0215621D01*
X0115555Y0215707D01*
X0115526Y0215795D01*
X0115501Y0215884D01*
X0115479Y0215974D01*
X0115462Y0216065D01*
X0115448Y0216156D01*
X0115438Y0216248D01*
X0115432Y0216340D01*
X0115430Y0216433D01*
X0105430Y0216433D02*
X0105432Y0216526D01*
X0105438Y0216618D01*
X0105448Y0216710D01*
X0105462Y0216801D01*
X0105479Y0216892D01*
X0105501Y0216982D01*
X0105526Y0217071D01*
X0105555Y0217159D01*
X0105588Y0217245D01*
X0105625Y0217330D01*
X0105665Y0217414D01*
X0105709Y0217495D01*
X0105756Y0217575D01*
X0105806Y0217653D01*
X0105860Y0217728D01*
X0105917Y0217801D01*
X0105977Y0217871D01*
X0106040Y0217939D01*
X0106106Y0218004D01*
X0106174Y0218066D01*
X0106245Y0218126D01*
X0106319Y0218182D01*
X0106395Y0218235D01*
X0106473Y0218284D01*
X0106553Y0218331D01*
X0106635Y0218373D01*
X0106719Y0218413D01*
X0106804Y0218448D01*
X0106891Y0218480D01*
X0106979Y0218509D01*
X0107068Y0218533D01*
X0107158Y0218554D01*
X0107249Y0218570D01*
X0107341Y0218583D01*
X0107433Y0218592D01*
X0107526Y0218597D01*
X0107618Y0218598D01*
X0107711Y0218595D01*
X0107803Y0218588D01*
X0107895Y0218577D01*
X0107986Y0218562D01*
X0108077Y0218544D01*
X0108167Y0218521D01*
X0108255Y0218495D01*
X0108343Y0218465D01*
X0108429Y0218431D01*
X0108513Y0218394D01*
X0108596Y0218352D01*
X0108677Y0218308D01*
X0108757Y0218260D01*
X0108834Y0218209D01*
X0108908Y0218154D01*
X0108981Y0218096D01*
X0109051Y0218036D01*
X0109118Y0217972D01*
X0109182Y0217906D01*
X0109244Y0217836D01*
X0109302Y0217765D01*
X0109357Y0217691D01*
X0109409Y0217614D01*
X0109458Y0217535D01*
X0109504Y0217455D01*
X0109546Y0217372D01*
X0109584Y0217288D01*
X0109619Y0217202D01*
X0109650Y0217115D01*
X0109677Y0217027D01*
X0109700Y0216937D01*
X0109720Y0216847D01*
X0109736Y0216756D01*
X0109748Y0216664D01*
X0109756Y0216572D01*
X0109760Y0216479D01*
X0109760Y0216387D01*
X0109756Y0216294D01*
X0109748Y0216202D01*
X0109736Y0216110D01*
X0109720Y0216019D01*
X0109700Y0215929D01*
X0109677Y0215839D01*
X0109650Y0215751D01*
X0109619Y0215664D01*
X0109584Y0215578D01*
X0109546Y0215494D01*
X0109504Y0215411D01*
X0109458Y0215331D01*
X0109409Y0215252D01*
X0109357Y0215175D01*
X0109302Y0215101D01*
X0109244Y0215030D01*
X0109182Y0214960D01*
X0109118Y0214894D01*
X0109051Y0214830D01*
X0108981Y0214770D01*
X0108908Y0214712D01*
X0108834Y0214657D01*
X0108757Y0214606D01*
X0108678Y0214558D01*
X0108596Y0214514D01*
X0108513Y0214472D01*
X0108429Y0214435D01*
X0108343Y0214401D01*
X0108255Y0214371D01*
X0108167Y0214345D01*
X0108077Y0214322D01*
X0107986Y0214304D01*
X0107895Y0214289D01*
X0107803Y0214278D01*
X0107711Y0214271D01*
X0107618Y0214268D01*
X0107526Y0214269D01*
X0107433Y0214274D01*
X0107341Y0214283D01*
X0107249Y0214296D01*
X0107158Y0214312D01*
X0107068Y0214333D01*
X0106979Y0214357D01*
X0106891Y0214386D01*
X0106804Y0214418D01*
X0106719Y0214453D01*
X0106635Y0214493D01*
X0106553Y0214535D01*
X0106473Y0214582D01*
X0106395Y0214631D01*
X0106319Y0214684D01*
X0106245Y0214740D01*
X0106174Y0214800D01*
X0106106Y0214862D01*
X0106040Y0214927D01*
X0105977Y0214995D01*
X0105917Y0215065D01*
X0105860Y0215138D01*
X0105806Y0215213D01*
X0105756Y0215291D01*
X0105709Y0215371D01*
X0105665Y0215452D01*
X0105625Y0215536D01*
X0105588Y0215621D01*
X0105555Y0215707D01*
X0105526Y0215795D01*
X0105501Y0215884D01*
X0105479Y0215974D01*
X0105462Y0216065D01*
X0105448Y0216156D01*
X0105438Y0216248D01*
X0105432Y0216340D01*
X0105430Y0216433D01*
X0095430Y0216433D02*
X0095432Y0216526D01*
X0095438Y0216618D01*
X0095448Y0216710D01*
X0095462Y0216801D01*
X0095479Y0216892D01*
X0095501Y0216982D01*
X0095526Y0217071D01*
X0095555Y0217159D01*
X0095588Y0217245D01*
X0095625Y0217330D01*
X0095665Y0217414D01*
X0095709Y0217495D01*
X0095756Y0217575D01*
X0095806Y0217653D01*
X0095860Y0217728D01*
X0095917Y0217801D01*
X0095977Y0217871D01*
X0096040Y0217939D01*
X0096106Y0218004D01*
X0096174Y0218066D01*
X0096245Y0218126D01*
X0096319Y0218182D01*
X0096395Y0218235D01*
X0096473Y0218284D01*
X0096553Y0218331D01*
X0096635Y0218373D01*
X0096719Y0218413D01*
X0096804Y0218448D01*
X0096891Y0218480D01*
X0096979Y0218509D01*
X0097068Y0218533D01*
X0097158Y0218554D01*
X0097249Y0218570D01*
X0097341Y0218583D01*
X0097433Y0218592D01*
X0097526Y0218597D01*
X0097618Y0218598D01*
X0097711Y0218595D01*
X0097803Y0218588D01*
X0097895Y0218577D01*
X0097986Y0218562D01*
X0098077Y0218544D01*
X0098167Y0218521D01*
X0098255Y0218495D01*
X0098343Y0218465D01*
X0098429Y0218431D01*
X0098513Y0218394D01*
X0098596Y0218352D01*
X0098677Y0218308D01*
X0098757Y0218260D01*
X0098834Y0218209D01*
X0098908Y0218154D01*
X0098981Y0218096D01*
X0099051Y0218036D01*
X0099118Y0217972D01*
X0099182Y0217906D01*
X0099244Y0217836D01*
X0099302Y0217765D01*
X0099357Y0217691D01*
X0099409Y0217614D01*
X0099458Y0217535D01*
X0099504Y0217455D01*
X0099546Y0217372D01*
X0099584Y0217288D01*
X0099619Y0217202D01*
X0099650Y0217115D01*
X0099677Y0217027D01*
X0099700Y0216937D01*
X0099720Y0216847D01*
X0099736Y0216756D01*
X0099748Y0216664D01*
X0099756Y0216572D01*
X0099760Y0216479D01*
X0099760Y0216387D01*
X0099756Y0216294D01*
X0099748Y0216202D01*
X0099736Y0216110D01*
X0099720Y0216019D01*
X0099700Y0215929D01*
X0099677Y0215839D01*
X0099650Y0215751D01*
X0099619Y0215664D01*
X0099584Y0215578D01*
X0099546Y0215494D01*
X0099504Y0215411D01*
X0099458Y0215331D01*
X0099409Y0215252D01*
X0099357Y0215175D01*
X0099302Y0215101D01*
X0099244Y0215030D01*
X0099182Y0214960D01*
X0099118Y0214894D01*
X0099051Y0214830D01*
X0098981Y0214770D01*
X0098908Y0214712D01*
X0098834Y0214657D01*
X0098757Y0214606D01*
X0098678Y0214558D01*
X0098596Y0214514D01*
X0098513Y0214472D01*
X0098429Y0214435D01*
X0098343Y0214401D01*
X0098255Y0214371D01*
X0098167Y0214345D01*
X0098077Y0214322D01*
X0097986Y0214304D01*
X0097895Y0214289D01*
X0097803Y0214278D01*
X0097711Y0214271D01*
X0097618Y0214268D01*
X0097526Y0214269D01*
X0097433Y0214274D01*
X0097341Y0214283D01*
X0097249Y0214296D01*
X0097158Y0214312D01*
X0097068Y0214333D01*
X0096979Y0214357D01*
X0096891Y0214386D01*
X0096804Y0214418D01*
X0096719Y0214453D01*
X0096635Y0214493D01*
X0096553Y0214535D01*
X0096473Y0214582D01*
X0096395Y0214631D01*
X0096319Y0214684D01*
X0096245Y0214740D01*
X0096174Y0214800D01*
X0096106Y0214862D01*
X0096040Y0214927D01*
X0095977Y0214995D01*
X0095917Y0215065D01*
X0095860Y0215138D01*
X0095806Y0215213D01*
X0095756Y0215291D01*
X0095709Y0215371D01*
X0095665Y0215452D01*
X0095625Y0215536D01*
X0095588Y0215621D01*
X0095555Y0215707D01*
X0095526Y0215795D01*
X0095501Y0215884D01*
X0095479Y0215974D01*
X0095462Y0216065D01*
X0095448Y0216156D01*
X0095438Y0216248D01*
X0095432Y0216340D01*
X0095430Y0216433D01*
D11*
X0077868Y0203444D02*
X0076801Y0203444D01*
X0074665Y0203444D02*
X0074665Y0202377D01*
X0074665Y0203444D02*
X0070395Y0203444D01*
X0070395Y0202377D02*
X0070395Y0204512D01*
X0071463Y0206674D02*
X0070395Y0207741D01*
X0070395Y0209876D01*
X0071463Y0210944D01*
X0073598Y0210944D01*
X0074665Y0209876D01*
X0074665Y0207741D01*
X0073598Y0206674D01*
X0071463Y0206674D01*
X0071463Y0213119D02*
X0071463Y0214187D01*
X0070395Y0214187D01*
X0070395Y0213119D01*
X0071463Y0213119D01*
X0070395Y0216342D02*
X0074665Y0216342D01*
X0074665Y0219545D01*
X0073598Y0220612D01*
X0070395Y0220612D01*
X0071463Y0222787D02*
X0070395Y0223855D01*
X0070395Y0225990D01*
X0071463Y0227058D01*
X0073598Y0227058D01*
X0074665Y0225990D01*
X0074665Y0223855D01*
X0073598Y0222787D01*
X0071463Y0222787D01*
X0070395Y0200201D02*
X0074665Y0200201D01*
X0070395Y0200201D02*
X0070395Y0196999D01*
X0071463Y0195931D01*
X0074665Y0195931D01*
X0071463Y0193776D02*
X0070395Y0193776D01*
X0070395Y0192708D01*
X0071463Y0192708D01*
X0071463Y0193776D01*
X0071463Y0190533D02*
X0073598Y0190533D01*
X0074665Y0189466D01*
X0074665Y0187330D01*
X0073598Y0186263D01*
X0071463Y0186263D01*
X0070395Y0187330D01*
X0070395Y0189466D01*
X0071463Y0190533D01*
X0072530Y0184088D02*
X0072530Y0179817D01*
X0071463Y0179817D02*
X0073598Y0179817D01*
X0074665Y0180885D01*
X0074665Y0183020D01*
X0073598Y0184088D01*
X0072530Y0184088D01*
X0070395Y0183020D02*
X0070395Y0180885D01*
X0071463Y0179817D01*
X0070395Y0177642D02*
X0070395Y0174439D01*
X0071463Y0173372D01*
X0073598Y0173372D01*
X0074665Y0174439D01*
X0074665Y0177642D01*
X0069328Y0177642D01*
X0068260Y0176575D01*
X0068260Y0175507D01*
X0071463Y0171197D02*
X0070395Y0170129D01*
X0070395Y0167994D01*
X0071463Y0166926D01*
X0075733Y0166926D01*
X0076801Y0167994D01*
X0076801Y0170129D01*
X0075733Y0171197D01*
X0073598Y0171197D01*
X0072530Y0170129D01*
X0074665Y0170129D01*
X0074665Y0167994D01*
X0072530Y0167994D01*
X0072530Y0170129D01*
X0073598Y0164751D02*
X0070395Y0164751D01*
X0073598Y0164751D02*
X0074665Y0163684D01*
X0074665Y0161548D01*
X0073598Y0160481D01*
X0074665Y0158319D02*
X0074665Y0156184D01*
X0075733Y0157251D02*
X0071463Y0157251D01*
X0070395Y0158319D01*
X0070395Y0160481D02*
X0076801Y0160481D01*
X0080895Y0156164D02*
X0081963Y0157231D01*
X0083030Y0157231D01*
X0084098Y0156164D01*
X0084098Y0154029D01*
X0085165Y0152961D01*
X0086233Y0152961D01*
X0087301Y0154029D01*
X0087301Y0156164D01*
X0086233Y0157231D01*
X0085165Y0157231D01*
X0084098Y0156164D01*
X0084098Y0154029D02*
X0083030Y0152961D01*
X0081963Y0152961D01*
X0080895Y0154029D01*
X0080895Y0156164D01*
X0076801Y0152954D02*
X0070395Y0152954D01*
X0070395Y0151887D02*
X0070395Y0154022D01*
X0070395Y0149712D02*
X0074665Y0149712D01*
X0076801Y0151887D02*
X0076801Y0152954D01*
X0080895Y0150786D02*
X0080895Y0146516D01*
X0080895Y0148651D02*
X0087301Y0148651D01*
X0085165Y0146516D01*
X0086233Y0144340D02*
X0081963Y0144340D01*
X0080895Y0143273D01*
X0080895Y0141138D01*
X0081963Y0140070D01*
X0086233Y0144340D01*
X0087301Y0143273D01*
X0087301Y0141138D01*
X0086233Y0140070D01*
X0081963Y0140070D01*
X0080895Y0137895D02*
X0080895Y0133625D01*
X0085165Y0137895D01*
X0086233Y0137895D01*
X0087301Y0136827D01*
X0087301Y0134692D01*
X0086233Y0133625D01*
X0076801Y0138996D02*
X0070395Y0138996D01*
X0070395Y0136841D02*
X0070395Y0135773D01*
X0071463Y0135773D01*
X0071463Y0136841D01*
X0070395Y0136841D01*
X0070395Y0133598D02*
X0073598Y0133598D01*
X0074665Y0132530D01*
X0074665Y0129328D01*
X0070395Y0129328D01*
X0070395Y0127152D02*
X0073598Y0127152D01*
X0074665Y0126085D01*
X0074665Y0123950D01*
X0073598Y0122882D01*
X0073598Y0120707D02*
X0071463Y0120707D01*
X0070395Y0119639D01*
X0070395Y0117504D01*
X0071463Y0116437D01*
X0073598Y0116437D01*
X0074665Y0117504D01*
X0074665Y0119639D01*
X0073598Y0120707D01*
X0076801Y0122882D02*
X0070395Y0122882D01*
X0080895Y0122882D02*
X0083030Y0125017D01*
X0085165Y0125017D01*
X0087301Y0122882D01*
X0086233Y0120707D02*
X0087301Y0119639D01*
X0087301Y0117504D01*
X0086233Y0116437D01*
X0081963Y0116437D01*
X0080895Y0117504D01*
X0080895Y0119639D01*
X0081963Y0120707D01*
X0080895Y0114275D02*
X0083030Y0112140D01*
X0085165Y0112140D01*
X0087301Y0114275D01*
X0077868Y0114275D02*
X0076801Y0114275D01*
X0074665Y0114275D02*
X0069328Y0114275D01*
X0068260Y0113207D01*
X0068260Y0112140D01*
X0073598Y0138996D02*
X0074665Y0140063D01*
X0074665Y0142199D01*
X0073598Y0143266D01*
X0070395Y0143266D01*
X0071463Y0145441D02*
X0070395Y0146509D01*
X0070395Y0149712D01*
X0071463Y0145441D02*
X0074665Y0145441D01*
X0191260Y0162636D02*
X0191260Y0163703D01*
X0192328Y0164771D01*
X0197665Y0164771D01*
X0197665Y0161568D01*
X0196598Y0160501D01*
X0194463Y0160501D01*
X0193395Y0161568D01*
X0193395Y0164771D01*
X0193395Y0158325D02*
X0196598Y0158325D01*
X0197665Y0157258D01*
X0197665Y0154055D01*
X0193395Y0154055D01*
X0193395Y0151893D02*
X0193395Y0149758D01*
X0193395Y0150826D02*
X0197665Y0150826D01*
X0197665Y0149758D01*
X0199801Y0150826D02*
X0200868Y0150826D01*
X0196598Y0147583D02*
X0193395Y0147583D01*
X0193395Y0145448D02*
X0196598Y0145448D01*
X0197665Y0146515D01*
X0196598Y0147583D01*
X0196598Y0145448D02*
X0197665Y0144380D01*
X0197665Y0143313D01*
X0193395Y0143313D01*
X0193395Y0141138D02*
X0196598Y0141138D01*
X0197665Y0140070D01*
X0196598Y0139002D01*
X0193395Y0139002D01*
X0193395Y0136867D02*
X0197665Y0136867D01*
X0197665Y0137935D01*
X0196598Y0139002D01*
X0196598Y0134692D02*
X0195530Y0134692D01*
X0195530Y0130422D01*
X0194463Y0130422D02*
X0196598Y0130422D01*
X0197665Y0131489D01*
X0197665Y0133624D01*
X0196598Y0134692D01*
X0193395Y0133624D02*
X0193395Y0131489D01*
X0194463Y0130422D01*
X0193395Y0128247D02*
X0193395Y0123976D01*
X0199801Y0123976D01*
X0198733Y0173392D02*
X0197665Y0173392D01*
X0196598Y0174459D01*
X0196598Y0176594D01*
X0195530Y0177662D01*
X0194463Y0177662D01*
X0193395Y0176594D01*
X0193395Y0174459D01*
X0194463Y0173392D01*
X0198733Y0173392D02*
X0199801Y0174459D01*
X0199801Y0176594D01*
X0198733Y0177662D01*
X0199801Y0179837D02*
X0193395Y0179837D01*
X0193395Y0184107D02*
X0199801Y0184107D01*
X0197665Y0181972D01*
X0199801Y0179837D01*
X0199801Y0186283D02*
X0193395Y0186283D01*
X0193395Y0189485D01*
X0194463Y0190553D01*
X0198733Y0190553D01*
X0199801Y0189485D01*
X0199801Y0186283D01*
X0199801Y0199174D02*
X0195530Y0199174D01*
X0193395Y0201309D01*
X0195530Y0203444D01*
X0199801Y0203444D01*
X0197665Y0205619D02*
X0199801Y0207754D01*
X0193395Y0207754D01*
X0193395Y0205619D02*
X0193395Y0209889D01*
X0193395Y0212065D02*
X0193395Y0213132D01*
X0194463Y0213132D01*
X0194463Y0212065D01*
X0193395Y0212065D01*
X0194463Y0215287D02*
X0198733Y0219558D01*
X0194463Y0219558D01*
X0193395Y0218490D01*
X0193395Y0216355D01*
X0194463Y0215287D01*
X0198733Y0215287D01*
X0199801Y0216355D01*
X0199801Y0218490D01*
X0198733Y0219558D01*
D12*
X0049096Y0031433D02*
X0037595Y0031433D01*
X0037595Y0042686D01*
X0037595Y0048592D02*
X0037595Y0059845D01*
X0037595Y0065751D02*
X0037595Y0077004D01*
X0037595Y0082909D02*
X0037595Y0094163D01*
X0042595Y0096433D02*
X0042595Y0216433D01*
X0062595Y0216433D01*
X0062595Y0096433D01*
X0042595Y0096433D01*
X0037595Y0100068D02*
X0037595Y0111322D01*
X0037595Y0117227D02*
X0037595Y0128480D01*
X0037595Y0134386D02*
X0037595Y0145639D01*
X0037595Y0151545D02*
X0037595Y0162798D01*
X0037595Y0168703D02*
X0037595Y0179957D01*
X0037595Y0185862D02*
X0037595Y0197115D01*
X0037595Y0203021D02*
X0037595Y0214274D01*
X0037595Y0220180D02*
X0037595Y0231433D01*
X0049096Y0231433D01*
X0055001Y0231433D02*
X0066502Y0231433D01*
X0072408Y0231433D02*
X0083908Y0231433D01*
X0089814Y0231433D02*
X0101314Y0231433D01*
X0107220Y0231433D02*
X0118721Y0231433D01*
X0124626Y0231433D02*
X0136127Y0231433D01*
X0142032Y0231433D02*
X0153533Y0231433D01*
X0159439Y0231433D02*
X0170939Y0231433D01*
X0176845Y0231433D02*
X0188345Y0231433D01*
X0194251Y0231433D02*
X0205752Y0231433D01*
X0202595Y0231433D02*
X0202595Y0111433D01*
X0212595Y0111433D01*
X0212595Y0231433D01*
X0202595Y0231433D01*
X0211657Y0231433D02*
X0223158Y0231433D01*
X0229063Y0231433D02*
X0240564Y0231433D01*
X0246470Y0231433D02*
X0257970Y0231433D01*
X0263876Y0231433D02*
X0275377Y0231433D01*
X0281282Y0231433D02*
X0292783Y0231433D01*
X0298688Y0231433D02*
X0310189Y0231433D01*
X0316094Y0231433D02*
X0327595Y0231433D01*
X0327595Y0220180D01*
X0327595Y0214274D02*
X0327595Y0203021D01*
X0327595Y0197115D02*
X0327595Y0185862D01*
X0327595Y0179957D02*
X0327595Y0168703D01*
X0327595Y0162798D02*
X0327595Y0151545D01*
X0327595Y0145639D02*
X0327595Y0134386D01*
X0327595Y0128480D02*
X0327595Y0117227D01*
X0327595Y0111322D02*
X0327595Y0100068D01*
X0327595Y0094163D02*
X0327595Y0082909D01*
X0327595Y0077004D02*
X0327595Y0065751D01*
X0327595Y0059845D02*
X0327595Y0048592D01*
X0327595Y0042686D02*
X0327595Y0031433D01*
X0316094Y0031433D01*
X0310189Y0031433D02*
X0298688Y0031433D01*
X0292783Y0031433D02*
X0281282Y0031433D01*
X0275377Y0031433D02*
X0263876Y0031433D01*
X0257970Y0031433D02*
X0246470Y0031433D01*
X0240564Y0031433D02*
X0229063Y0031433D01*
X0223158Y0031433D02*
X0211657Y0031433D01*
X0205752Y0031433D02*
X0194251Y0031433D01*
X0188345Y0031433D02*
X0176845Y0031433D01*
X0170939Y0031433D02*
X0159439Y0031433D01*
X0153533Y0031433D02*
X0142032Y0031433D01*
X0136127Y0031433D02*
X0124626Y0031433D01*
X0118721Y0031433D02*
X0107220Y0031433D01*
X0101314Y0031433D02*
X0089814Y0031433D01*
X0083908Y0031433D02*
X0072408Y0031433D01*
X0066502Y0031433D02*
X0055001Y0031433D01*
X0040705Y0061433D02*
X0040707Y0061602D01*
X0040713Y0061771D01*
X0040724Y0061940D01*
X0040738Y0062108D01*
X0040757Y0062276D01*
X0040780Y0062444D01*
X0040806Y0062611D01*
X0040837Y0062777D01*
X0040872Y0062943D01*
X0040911Y0063107D01*
X0040955Y0063271D01*
X0041002Y0063433D01*
X0041053Y0063594D01*
X0041108Y0063754D01*
X0041167Y0063913D01*
X0041229Y0064070D01*
X0041296Y0064225D01*
X0041367Y0064379D01*
X0041441Y0064531D01*
X0041519Y0064681D01*
X0041600Y0064829D01*
X0041685Y0064975D01*
X0041774Y0065119D01*
X0041866Y0065261D01*
X0041962Y0065400D01*
X0042061Y0065537D01*
X0042163Y0065672D01*
X0042269Y0065804D01*
X0042378Y0065933D01*
X0042490Y0066060D01*
X0042605Y0066184D01*
X0042723Y0066305D01*
X0042844Y0066423D01*
X0042968Y0066538D01*
X0043095Y0066650D01*
X0043224Y0066759D01*
X0043356Y0066865D01*
X0043491Y0066967D01*
X0043628Y0067066D01*
X0043767Y0067162D01*
X0043909Y0067254D01*
X0044053Y0067343D01*
X0044199Y0067428D01*
X0044347Y0067509D01*
X0044497Y0067587D01*
X0044649Y0067661D01*
X0044803Y0067732D01*
X0044958Y0067799D01*
X0045115Y0067861D01*
X0045274Y0067920D01*
X0045434Y0067975D01*
X0045595Y0068026D01*
X0045757Y0068073D01*
X0045921Y0068117D01*
X0046085Y0068156D01*
X0046251Y0068191D01*
X0046417Y0068222D01*
X0046584Y0068248D01*
X0046752Y0068271D01*
X0046920Y0068290D01*
X0047088Y0068304D01*
X0047257Y0068315D01*
X0047426Y0068321D01*
X0047595Y0068323D01*
X0047764Y0068321D01*
X0047933Y0068315D01*
X0048102Y0068304D01*
X0048270Y0068290D01*
X0048438Y0068271D01*
X0048606Y0068248D01*
X0048773Y0068222D01*
X0048939Y0068191D01*
X0049105Y0068156D01*
X0049269Y0068117D01*
X0049433Y0068073D01*
X0049595Y0068026D01*
X0049756Y0067975D01*
X0049916Y0067920D01*
X0050075Y0067861D01*
X0050232Y0067799D01*
X0050387Y0067732D01*
X0050541Y0067661D01*
X0050693Y0067587D01*
X0050843Y0067509D01*
X0050991Y0067428D01*
X0051137Y0067343D01*
X0051281Y0067254D01*
X0051423Y0067162D01*
X0051562Y0067066D01*
X0051699Y0066967D01*
X0051834Y0066865D01*
X0051966Y0066759D01*
X0052095Y0066650D01*
X0052222Y0066538D01*
X0052346Y0066423D01*
X0052467Y0066305D01*
X0052585Y0066184D01*
X0052700Y0066060D01*
X0052812Y0065933D01*
X0052921Y0065804D01*
X0053027Y0065672D01*
X0053129Y0065537D01*
X0053228Y0065400D01*
X0053324Y0065261D01*
X0053416Y0065119D01*
X0053505Y0064975D01*
X0053590Y0064829D01*
X0053671Y0064681D01*
X0053749Y0064531D01*
X0053823Y0064379D01*
X0053894Y0064225D01*
X0053961Y0064070D01*
X0054023Y0063913D01*
X0054082Y0063754D01*
X0054137Y0063594D01*
X0054188Y0063433D01*
X0054235Y0063271D01*
X0054279Y0063107D01*
X0054318Y0062943D01*
X0054353Y0062777D01*
X0054384Y0062611D01*
X0054410Y0062444D01*
X0054433Y0062276D01*
X0054452Y0062108D01*
X0054466Y0061940D01*
X0054477Y0061771D01*
X0054483Y0061602D01*
X0054485Y0061433D01*
X0054483Y0061264D01*
X0054477Y0061095D01*
X0054466Y0060926D01*
X0054452Y0060758D01*
X0054433Y0060590D01*
X0054410Y0060422D01*
X0054384Y0060255D01*
X0054353Y0060089D01*
X0054318Y0059923D01*
X0054279Y0059759D01*
X0054235Y0059595D01*
X0054188Y0059433D01*
X0054137Y0059272D01*
X0054082Y0059112D01*
X0054023Y0058953D01*
X0053961Y0058796D01*
X0053894Y0058641D01*
X0053823Y0058487D01*
X0053749Y0058335D01*
X0053671Y0058185D01*
X0053590Y0058037D01*
X0053505Y0057891D01*
X0053416Y0057747D01*
X0053324Y0057605D01*
X0053228Y0057466D01*
X0053129Y0057329D01*
X0053027Y0057194D01*
X0052921Y0057062D01*
X0052812Y0056933D01*
X0052700Y0056806D01*
X0052585Y0056682D01*
X0052467Y0056561D01*
X0052346Y0056443D01*
X0052222Y0056328D01*
X0052095Y0056216D01*
X0051966Y0056107D01*
X0051834Y0056001D01*
X0051699Y0055899D01*
X0051562Y0055800D01*
X0051423Y0055704D01*
X0051281Y0055612D01*
X0051137Y0055523D01*
X0050991Y0055438D01*
X0050843Y0055357D01*
X0050693Y0055279D01*
X0050541Y0055205D01*
X0050387Y0055134D01*
X0050232Y0055067D01*
X0050075Y0055005D01*
X0049916Y0054946D01*
X0049756Y0054891D01*
X0049595Y0054840D01*
X0049433Y0054793D01*
X0049269Y0054749D01*
X0049105Y0054710D01*
X0048939Y0054675D01*
X0048773Y0054644D01*
X0048606Y0054618D01*
X0048438Y0054595D01*
X0048270Y0054576D01*
X0048102Y0054562D01*
X0047933Y0054551D01*
X0047764Y0054545D01*
X0047595Y0054543D01*
X0047426Y0054545D01*
X0047257Y0054551D01*
X0047088Y0054562D01*
X0046920Y0054576D01*
X0046752Y0054595D01*
X0046584Y0054618D01*
X0046417Y0054644D01*
X0046251Y0054675D01*
X0046085Y0054710D01*
X0045921Y0054749D01*
X0045757Y0054793D01*
X0045595Y0054840D01*
X0045434Y0054891D01*
X0045274Y0054946D01*
X0045115Y0055005D01*
X0044958Y0055067D01*
X0044803Y0055134D01*
X0044649Y0055205D01*
X0044497Y0055279D01*
X0044347Y0055357D01*
X0044199Y0055438D01*
X0044053Y0055523D01*
X0043909Y0055612D01*
X0043767Y0055704D01*
X0043628Y0055800D01*
X0043491Y0055899D01*
X0043356Y0056001D01*
X0043224Y0056107D01*
X0043095Y0056216D01*
X0042968Y0056328D01*
X0042844Y0056443D01*
X0042723Y0056561D01*
X0042605Y0056682D01*
X0042490Y0056806D01*
X0042378Y0056933D01*
X0042269Y0057062D01*
X0042163Y0057194D01*
X0042061Y0057329D01*
X0041962Y0057466D01*
X0041866Y0057605D01*
X0041774Y0057747D01*
X0041685Y0057891D01*
X0041600Y0058037D01*
X0041519Y0058185D01*
X0041441Y0058335D01*
X0041367Y0058487D01*
X0041296Y0058641D01*
X0041229Y0058796D01*
X0041167Y0058953D01*
X0041108Y0059112D01*
X0041053Y0059272D01*
X0041002Y0059433D01*
X0040955Y0059595D01*
X0040911Y0059759D01*
X0040872Y0059923D01*
X0040837Y0060089D01*
X0040806Y0060255D01*
X0040780Y0060422D01*
X0040757Y0060590D01*
X0040738Y0060758D01*
X0040724Y0060926D01*
X0040713Y0061095D01*
X0040707Y0061264D01*
X0040705Y0061433D01*
X0305705Y0216433D02*
X0305707Y0216602D01*
X0305713Y0216771D01*
X0305724Y0216940D01*
X0305738Y0217108D01*
X0305757Y0217276D01*
X0305780Y0217444D01*
X0305806Y0217611D01*
X0305837Y0217777D01*
X0305872Y0217943D01*
X0305911Y0218107D01*
X0305955Y0218271D01*
X0306002Y0218433D01*
X0306053Y0218594D01*
X0306108Y0218754D01*
X0306167Y0218913D01*
X0306229Y0219070D01*
X0306296Y0219225D01*
X0306367Y0219379D01*
X0306441Y0219531D01*
X0306519Y0219681D01*
X0306600Y0219829D01*
X0306685Y0219975D01*
X0306774Y0220119D01*
X0306866Y0220261D01*
X0306962Y0220400D01*
X0307061Y0220537D01*
X0307163Y0220672D01*
X0307269Y0220804D01*
X0307378Y0220933D01*
X0307490Y0221060D01*
X0307605Y0221184D01*
X0307723Y0221305D01*
X0307844Y0221423D01*
X0307968Y0221538D01*
X0308095Y0221650D01*
X0308224Y0221759D01*
X0308356Y0221865D01*
X0308491Y0221967D01*
X0308628Y0222066D01*
X0308767Y0222162D01*
X0308909Y0222254D01*
X0309053Y0222343D01*
X0309199Y0222428D01*
X0309347Y0222509D01*
X0309497Y0222587D01*
X0309649Y0222661D01*
X0309803Y0222732D01*
X0309958Y0222799D01*
X0310115Y0222861D01*
X0310274Y0222920D01*
X0310434Y0222975D01*
X0310595Y0223026D01*
X0310757Y0223073D01*
X0310921Y0223117D01*
X0311085Y0223156D01*
X0311251Y0223191D01*
X0311417Y0223222D01*
X0311584Y0223248D01*
X0311752Y0223271D01*
X0311920Y0223290D01*
X0312088Y0223304D01*
X0312257Y0223315D01*
X0312426Y0223321D01*
X0312595Y0223323D01*
X0312764Y0223321D01*
X0312933Y0223315D01*
X0313102Y0223304D01*
X0313270Y0223290D01*
X0313438Y0223271D01*
X0313606Y0223248D01*
X0313773Y0223222D01*
X0313939Y0223191D01*
X0314105Y0223156D01*
X0314269Y0223117D01*
X0314433Y0223073D01*
X0314595Y0223026D01*
X0314756Y0222975D01*
X0314916Y0222920D01*
X0315075Y0222861D01*
X0315232Y0222799D01*
X0315387Y0222732D01*
X0315541Y0222661D01*
X0315693Y0222587D01*
X0315843Y0222509D01*
X0315991Y0222428D01*
X0316137Y0222343D01*
X0316281Y0222254D01*
X0316423Y0222162D01*
X0316562Y0222066D01*
X0316699Y0221967D01*
X0316834Y0221865D01*
X0316966Y0221759D01*
X0317095Y0221650D01*
X0317222Y0221538D01*
X0317346Y0221423D01*
X0317467Y0221305D01*
X0317585Y0221184D01*
X0317700Y0221060D01*
X0317812Y0220933D01*
X0317921Y0220804D01*
X0318027Y0220672D01*
X0318129Y0220537D01*
X0318228Y0220400D01*
X0318324Y0220261D01*
X0318416Y0220119D01*
X0318505Y0219975D01*
X0318590Y0219829D01*
X0318671Y0219681D01*
X0318749Y0219531D01*
X0318823Y0219379D01*
X0318894Y0219225D01*
X0318961Y0219070D01*
X0319023Y0218913D01*
X0319082Y0218754D01*
X0319137Y0218594D01*
X0319188Y0218433D01*
X0319235Y0218271D01*
X0319279Y0218107D01*
X0319318Y0217943D01*
X0319353Y0217777D01*
X0319384Y0217611D01*
X0319410Y0217444D01*
X0319433Y0217276D01*
X0319452Y0217108D01*
X0319466Y0216940D01*
X0319477Y0216771D01*
X0319483Y0216602D01*
X0319485Y0216433D01*
X0319483Y0216264D01*
X0319477Y0216095D01*
X0319466Y0215926D01*
X0319452Y0215758D01*
X0319433Y0215590D01*
X0319410Y0215422D01*
X0319384Y0215255D01*
X0319353Y0215089D01*
X0319318Y0214923D01*
X0319279Y0214759D01*
X0319235Y0214595D01*
X0319188Y0214433D01*
X0319137Y0214272D01*
X0319082Y0214112D01*
X0319023Y0213953D01*
X0318961Y0213796D01*
X0318894Y0213641D01*
X0318823Y0213487D01*
X0318749Y0213335D01*
X0318671Y0213185D01*
X0318590Y0213037D01*
X0318505Y0212891D01*
X0318416Y0212747D01*
X0318324Y0212605D01*
X0318228Y0212466D01*
X0318129Y0212329D01*
X0318027Y0212194D01*
X0317921Y0212062D01*
X0317812Y0211933D01*
X0317700Y0211806D01*
X0317585Y0211682D01*
X0317467Y0211561D01*
X0317346Y0211443D01*
X0317222Y0211328D01*
X0317095Y0211216D01*
X0316966Y0211107D01*
X0316834Y0211001D01*
X0316699Y0210899D01*
X0316562Y0210800D01*
X0316423Y0210704D01*
X0316281Y0210612D01*
X0316137Y0210523D01*
X0315991Y0210438D01*
X0315843Y0210357D01*
X0315693Y0210279D01*
X0315541Y0210205D01*
X0315387Y0210134D01*
X0315232Y0210067D01*
X0315075Y0210005D01*
X0314916Y0209946D01*
X0314756Y0209891D01*
X0314595Y0209840D01*
X0314433Y0209793D01*
X0314269Y0209749D01*
X0314105Y0209710D01*
X0313939Y0209675D01*
X0313773Y0209644D01*
X0313606Y0209618D01*
X0313438Y0209595D01*
X0313270Y0209576D01*
X0313102Y0209562D01*
X0312933Y0209551D01*
X0312764Y0209545D01*
X0312595Y0209543D01*
X0312426Y0209545D01*
X0312257Y0209551D01*
X0312088Y0209562D01*
X0311920Y0209576D01*
X0311752Y0209595D01*
X0311584Y0209618D01*
X0311417Y0209644D01*
X0311251Y0209675D01*
X0311085Y0209710D01*
X0310921Y0209749D01*
X0310757Y0209793D01*
X0310595Y0209840D01*
X0310434Y0209891D01*
X0310274Y0209946D01*
X0310115Y0210005D01*
X0309958Y0210067D01*
X0309803Y0210134D01*
X0309649Y0210205D01*
X0309497Y0210279D01*
X0309347Y0210357D01*
X0309199Y0210438D01*
X0309053Y0210523D01*
X0308909Y0210612D01*
X0308767Y0210704D01*
X0308628Y0210800D01*
X0308491Y0210899D01*
X0308356Y0211001D01*
X0308224Y0211107D01*
X0308095Y0211216D01*
X0307968Y0211328D01*
X0307844Y0211443D01*
X0307723Y0211561D01*
X0307605Y0211682D01*
X0307490Y0211806D01*
X0307378Y0211933D01*
X0307269Y0212062D01*
X0307163Y0212194D01*
X0307061Y0212329D01*
X0306962Y0212466D01*
X0306866Y0212605D01*
X0306774Y0212747D01*
X0306685Y0212891D01*
X0306600Y0213037D01*
X0306519Y0213185D01*
X0306441Y0213335D01*
X0306367Y0213487D01*
X0306296Y0213641D01*
X0306229Y0213796D01*
X0306167Y0213953D01*
X0306108Y0214112D01*
X0306053Y0214272D01*
X0306002Y0214433D01*
X0305955Y0214595D01*
X0305911Y0214759D01*
X0305872Y0214923D01*
X0305837Y0215089D01*
X0305806Y0215255D01*
X0305780Y0215422D01*
X0305757Y0215590D01*
X0305738Y0215758D01*
X0305724Y0215926D01*
X0305713Y0216095D01*
X0305707Y0216264D01*
X0305705Y0216433D01*
M02*
