G04 EAGLE Gerber RS-274X export*
G75*
%MOMM*%
%FSLAX34Y34*%
%LPD*%
%INBottom Copper*%
%IPPOS*%
%AMOC8*
5,1,8,0,0,1.08239X$1,22.5*%
G01*
%ADD10C,1.350000*%
%ADD11C,0.755600*%
%ADD12C,0.609600*%
%ADD13C,0.304800*%
%ADD14C,0.736600*%

G36*
X732808Y1781D02*
X732808Y1781D01*
X732826Y1779D01*
X733008Y1800D01*
X733191Y1819D01*
X733208Y1824D01*
X733225Y1826D01*
X733400Y1883D01*
X733576Y1937D01*
X733591Y1945D01*
X733608Y1951D01*
X733768Y2041D01*
X733930Y2129D01*
X733943Y2140D01*
X733959Y2149D01*
X734098Y2269D01*
X734239Y2386D01*
X734250Y2400D01*
X734264Y2412D01*
X734376Y2557D01*
X734491Y2700D01*
X734499Y2716D01*
X734510Y2730D01*
X734592Y2895D01*
X734677Y3057D01*
X734682Y3074D01*
X734690Y3090D01*
X734737Y3269D01*
X734788Y3444D01*
X734790Y3462D01*
X734794Y3479D01*
X734821Y3810D01*
X734821Y420370D01*
X734819Y420388D01*
X734821Y420406D01*
X734800Y420588D01*
X734781Y420771D01*
X734776Y420788D01*
X734774Y420805D01*
X734717Y420980D01*
X734663Y421156D01*
X734655Y421171D01*
X734649Y421188D01*
X734559Y421348D01*
X734471Y421510D01*
X734460Y421523D01*
X734451Y421539D01*
X734331Y421678D01*
X734214Y421819D01*
X734200Y421830D01*
X734188Y421844D01*
X734043Y421956D01*
X733900Y422071D01*
X733884Y422079D01*
X733870Y422090D01*
X733705Y422172D01*
X733543Y422257D01*
X733526Y422262D01*
X733510Y422270D01*
X733331Y422317D01*
X733156Y422368D01*
X733138Y422370D01*
X733121Y422374D01*
X732790Y422401D01*
X471703Y422401D01*
X470661Y423443D01*
X470661Y504190D01*
X470659Y504208D01*
X470661Y504226D01*
X470640Y504408D01*
X470621Y504591D01*
X470616Y504608D01*
X470614Y504625D01*
X470557Y504800D01*
X470503Y504976D01*
X470495Y504991D01*
X470489Y505008D01*
X470399Y505168D01*
X470311Y505330D01*
X470300Y505343D01*
X470291Y505359D01*
X470171Y505498D01*
X470054Y505639D01*
X470040Y505650D01*
X470028Y505664D01*
X469883Y505776D01*
X469740Y505891D01*
X469724Y505899D01*
X469710Y505910D01*
X469545Y505992D01*
X469383Y506077D01*
X469366Y506082D01*
X469350Y506090D01*
X469171Y506137D01*
X468996Y506188D01*
X468978Y506190D01*
X468961Y506194D01*
X468630Y506221D01*
X437844Y506221D01*
X437835Y506220D01*
X437826Y506221D01*
X437634Y506200D01*
X437443Y506181D01*
X437435Y506179D01*
X437426Y506178D01*
X437244Y506120D01*
X437059Y506063D01*
X437051Y506059D01*
X437042Y506056D01*
X436874Y505963D01*
X436704Y505871D01*
X436698Y505866D01*
X436690Y505861D01*
X436543Y505737D01*
X436395Y505614D01*
X436390Y505607D01*
X436383Y505601D01*
X436264Y505450D01*
X436143Y505300D01*
X436139Y505292D01*
X436133Y505285D01*
X436045Y505112D01*
X435957Y504943D01*
X435955Y504934D01*
X435951Y504926D01*
X435899Y504740D01*
X435846Y504556D01*
X435845Y504547D01*
X435843Y504538D01*
X435829Y504345D01*
X435813Y504154D01*
X435814Y504146D01*
X435813Y504137D01*
X435838Y503944D01*
X435860Y503755D01*
X435863Y503746D01*
X435864Y503737D01*
X435925Y503554D01*
X435985Y503372D01*
X435989Y503364D01*
X435992Y503356D01*
X436087Y503190D01*
X436183Y503021D01*
X436189Y503014D01*
X436193Y503007D01*
X436408Y502754D01*
X439030Y500131D01*
X440329Y496997D01*
X440329Y493603D01*
X439030Y490469D01*
X436631Y488070D01*
X433497Y486771D01*
X430103Y486771D01*
X426969Y488070D01*
X424570Y490469D01*
X423271Y493603D01*
X423271Y496997D01*
X424570Y500131D01*
X427192Y502754D01*
X427198Y502761D01*
X427205Y502766D01*
X427325Y502916D01*
X427447Y503065D01*
X427452Y503073D01*
X427457Y503080D01*
X427546Y503250D01*
X427636Y503421D01*
X427639Y503430D01*
X427643Y503437D01*
X427696Y503622D01*
X427751Y503807D01*
X427752Y503816D01*
X427754Y503824D01*
X427770Y504015D01*
X427787Y504208D01*
X427786Y504217D01*
X427787Y504226D01*
X427765Y504415D01*
X427744Y504608D01*
X427741Y504617D01*
X427740Y504625D01*
X427681Y504807D01*
X427622Y504992D01*
X427618Y505000D01*
X427615Y505008D01*
X427520Y505177D01*
X427427Y505344D01*
X427422Y505351D01*
X427417Y505359D01*
X427291Y505505D01*
X427167Y505651D01*
X427160Y505657D01*
X427154Y505664D01*
X427003Y505781D01*
X426851Y505901D01*
X426843Y505905D01*
X426836Y505910D01*
X426664Y505996D01*
X426492Y506083D01*
X426483Y506086D01*
X426475Y506090D01*
X426289Y506140D01*
X426104Y506191D01*
X426095Y506192D01*
X426087Y506194D01*
X425756Y506221D01*
X3810Y506221D01*
X3792Y506219D01*
X3774Y506221D01*
X3592Y506200D01*
X3409Y506181D01*
X3392Y506176D01*
X3375Y506174D01*
X3200Y506117D01*
X3024Y506063D01*
X3009Y506055D01*
X2992Y506049D01*
X2832Y505959D01*
X2670Y505871D01*
X2657Y505860D01*
X2641Y505851D01*
X2502Y505731D01*
X2361Y505614D01*
X2350Y505600D01*
X2336Y505588D01*
X2224Y505443D01*
X2109Y505300D01*
X2101Y505284D01*
X2090Y505270D01*
X2008Y505105D01*
X1923Y504943D01*
X1918Y504926D01*
X1910Y504910D01*
X1863Y504731D01*
X1812Y504556D01*
X1810Y504538D01*
X1806Y504521D01*
X1779Y504190D01*
X1779Y118110D01*
X1781Y118092D01*
X1779Y118074D01*
X1800Y117892D01*
X1819Y117709D01*
X1824Y117692D01*
X1826Y117675D01*
X1883Y117500D01*
X1937Y117324D01*
X1945Y117309D01*
X1951Y117292D01*
X2041Y117132D01*
X2129Y116970D01*
X2140Y116957D01*
X2149Y116941D01*
X2269Y116802D01*
X2386Y116661D01*
X2400Y116650D01*
X2412Y116636D01*
X2557Y116524D01*
X2700Y116409D01*
X2716Y116401D01*
X2730Y116390D01*
X2895Y116308D01*
X3057Y116223D01*
X3074Y116218D01*
X3090Y116210D01*
X3269Y116163D01*
X3444Y116112D01*
X3462Y116110D01*
X3479Y116106D01*
X3810Y116079D01*
X64237Y116079D01*
X65279Y115037D01*
X65279Y3810D01*
X65281Y3792D01*
X65279Y3774D01*
X65300Y3592D01*
X65319Y3409D01*
X65324Y3392D01*
X65326Y3375D01*
X65383Y3200D01*
X65437Y3024D01*
X65445Y3009D01*
X65451Y2992D01*
X65541Y2832D01*
X65629Y2670D01*
X65640Y2657D01*
X65649Y2641D01*
X65769Y2502D01*
X65886Y2361D01*
X65900Y2350D01*
X65912Y2336D01*
X66057Y2224D01*
X66200Y2109D01*
X66216Y2101D01*
X66230Y2090D01*
X66395Y2008D01*
X66557Y1923D01*
X66574Y1918D01*
X66590Y1910D01*
X66769Y1863D01*
X66944Y1812D01*
X66962Y1810D01*
X66979Y1806D01*
X67310Y1779D01*
X732790Y1779D01*
X732808Y1781D01*
G37*
%LPC*%
G36*
X420535Y83343D02*
X420535Y83343D01*
X418492Y84189D01*
X416929Y85752D01*
X416083Y87795D01*
X416083Y90005D01*
X416929Y92048D01*
X418187Y93306D01*
X418193Y93313D01*
X418200Y93318D01*
X418321Y93469D01*
X418442Y93617D01*
X418447Y93625D01*
X418452Y93632D01*
X418541Y93802D01*
X418631Y93973D01*
X418634Y93982D01*
X418638Y93989D01*
X418691Y94174D01*
X418746Y94359D01*
X418747Y94368D01*
X418749Y94376D01*
X418765Y94567D01*
X418782Y94760D01*
X418781Y94769D01*
X418782Y94778D01*
X418760Y94967D01*
X418739Y95160D01*
X418736Y95169D01*
X418735Y95177D01*
X418676Y95359D01*
X418617Y95544D01*
X418613Y95552D01*
X418610Y95560D01*
X418516Y95727D01*
X418422Y95896D01*
X418417Y95903D01*
X418412Y95911D01*
X418287Y96056D01*
X418162Y96203D01*
X418155Y96209D01*
X418149Y96216D01*
X417999Y96332D01*
X417846Y96453D01*
X417838Y96457D01*
X417831Y96462D01*
X417660Y96547D01*
X417487Y96635D01*
X417478Y96638D01*
X417470Y96642D01*
X417285Y96691D01*
X417099Y96743D01*
X417090Y96744D01*
X417082Y96746D01*
X416751Y96773D01*
X297912Y96773D01*
X297881Y96770D01*
X297850Y96772D01*
X297680Y96750D01*
X297511Y96733D01*
X297481Y96724D01*
X297450Y96720D01*
X297134Y96619D01*
X295745Y96043D01*
X293535Y96043D01*
X291492Y96889D01*
X289929Y98452D01*
X289083Y100495D01*
X289083Y102705D01*
X289929Y104748D01*
X291492Y106311D01*
X293535Y107157D01*
X294101Y107157D01*
X294110Y107158D01*
X294119Y107157D01*
X294311Y107178D01*
X294502Y107197D01*
X294510Y107199D01*
X294519Y107200D01*
X294702Y107258D01*
X294887Y107315D01*
X294894Y107319D01*
X294903Y107322D01*
X295072Y107415D01*
X295241Y107507D01*
X295247Y107512D01*
X295255Y107517D01*
X295403Y107642D01*
X295550Y107764D01*
X295555Y107771D01*
X295562Y107777D01*
X295682Y107929D01*
X295802Y108078D01*
X295806Y108086D01*
X295812Y108093D01*
X295900Y108266D01*
X295988Y108435D01*
X295990Y108444D01*
X295994Y108452D01*
X296046Y108637D01*
X296099Y108822D01*
X296100Y108831D01*
X296102Y108840D01*
X296116Y109032D01*
X296132Y109224D01*
X296131Y109232D01*
X296132Y109241D01*
X296107Y109433D01*
X296085Y109623D01*
X296082Y109632D01*
X296081Y109641D01*
X296020Y109823D01*
X295960Y110006D01*
X295956Y110014D01*
X295953Y110022D01*
X295857Y110190D01*
X295762Y110357D01*
X295756Y110364D01*
X295752Y110371D01*
X295537Y110624D01*
X295009Y111152D01*
X294163Y113195D01*
X294163Y115405D01*
X295009Y117448D01*
X296267Y118706D01*
X296273Y118713D01*
X296280Y118718D01*
X296401Y118869D01*
X296522Y119017D01*
X296527Y119025D01*
X296532Y119032D01*
X296621Y119202D01*
X296711Y119373D01*
X296714Y119382D01*
X296718Y119389D01*
X296771Y119574D01*
X296826Y119759D01*
X296827Y119768D01*
X296829Y119776D01*
X296845Y119967D01*
X296862Y120160D01*
X296861Y120169D01*
X296862Y120178D01*
X296840Y120367D01*
X296819Y120560D01*
X296816Y120569D01*
X296815Y120577D01*
X296756Y120759D01*
X296697Y120944D01*
X296693Y120952D01*
X296690Y120960D01*
X296596Y121127D01*
X296502Y121296D01*
X296497Y121303D01*
X296492Y121311D01*
X296367Y121456D01*
X296242Y121603D01*
X296235Y121609D01*
X296229Y121616D01*
X296079Y121732D01*
X295926Y121853D01*
X295918Y121857D01*
X295911Y121862D01*
X295740Y121947D01*
X295567Y122035D01*
X295558Y122038D01*
X295550Y122042D01*
X295365Y122091D01*
X295179Y122143D01*
X295170Y122144D01*
X295162Y122146D01*
X294831Y122173D01*
X244572Y122173D01*
X244541Y122170D01*
X244510Y122172D01*
X244340Y122150D01*
X244171Y122133D01*
X244141Y122124D01*
X244110Y122120D01*
X243794Y122019D01*
X242405Y121443D01*
X240195Y121443D01*
X238152Y122289D01*
X236589Y123852D01*
X235743Y125895D01*
X235743Y128105D01*
X236589Y130148D01*
X238152Y131711D01*
X240195Y132557D01*
X242405Y132557D01*
X243794Y131981D01*
X243824Y131972D01*
X243852Y131958D01*
X244017Y131914D01*
X244180Y131865D01*
X244211Y131862D01*
X244241Y131854D01*
X244572Y131827D01*
X301528Y131827D01*
X301559Y131830D01*
X301590Y131828D01*
X301760Y131850D01*
X301929Y131867D01*
X301959Y131876D01*
X301990Y131880D01*
X302306Y131981D01*
X303695Y132557D01*
X305905Y132557D01*
X307948Y131711D01*
X309511Y130148D01*
X310357Y128105D01*
X310357Y125895D01*
X309511Y123852D01*
X308253Y122594D01*
X308247Y122587D01*
X308240Y122582D01*
X308119Y122431D01*
X307998Y122283D01*
X307993Y122275D01*
X307988Y122268D01*
X307899Y122098D01*
X307809Y121927D01*
X307806Y121918D01*
X307802Y121911D01*
X307749Y121726D01*
X307694Y121541D01*
X307693Y121532D01*
X307691Y121524D01*
X307675Y121333D01*
X307658Y121140D01*
X307659Y121131D01*
X307658Y121122D01*
X307680Y120932D01*
X307701Y120740D01*
X307704Y120731D01*
X307705Y120723D01*
X307764Y120541D01*
X307823Y120356D01*
X307827Y120348D01*
X307830Y120340D01*
X307924Y120173D01*
X308018Y120004D01*
X308023Y119997D01*
X308028Y119989D01*
X308153Y119844D01*
X308278Y119697D01*
X308285Y119691D01*
X308291Y119684D01*
X308441Y119568D01*
X308594Y119447D01*
X308602Y119443D01*
X308609Y119438D01*
X308780Y119353D01*
X308953Y119265D01*
X308962Y119262D01*
X308970Y119258D01*
X309155Y119209D01*
X309341Y119157D01*
X309350Y119156D01*
X309358Y119154D01*
X309689Y119127D01*
X344361Y119127D01*
X344370Y119128D01*
X344379Y119127D01*
X344571Y119148D01*
X344762Y119167D01*
X344770Y119169D01*
X344779Y119170D01*
X344961Y119228D01*
X345147Y119285D01*
X345154Y119289D01*
X345163Y119292D01*
X345331Y119384D01*
X345501Y119477D01*
X345507Y119482D01*
X345515Y119487D01*
X345663Y119612D01*
X345810Y119734D01*
X345815Y119741D01*
X345822Y119747D01*
X345942Y119898D01*
X346062Y120048D01*
X346066Y120056D01*
X346072Y120063D01*
X346159Y120235D01*
X346248Y120405D01*
X346250Y120414D01*
X346254Y120422D01*
X346306Y120608D01*
X346359Y120792D01*
X346360Y120801D01*
X346362Y120810D01*
X346376Y121002D01*
X346392Y121194D01*
X346391Y121202D01*
X346392Y121211D01*
X346367Y121404D01*
X346345Y121593D01*
X346342Y121602D01*
X346341Y121611D01*
X346280Y121793D01*
X346220Y121976D01*
X346216Y121984D01*
X346213Y121992D01*
X346118Y122158D01*
X346022Y122327D01*
X346016Y122334D01*
X346012Y122341D01*
X345797Y122594D01*
X344539Y123852D01*
X343693Y125895D01*
X343693Y128105D01*
X344539Y130148D01*
X346102Y131711D01*
X348145Y132557D01*
X350355Y132557D01*
X351744Y131981D01*
X351774Y131972D01*
X351802Y131958D01*
X351967Y131914D01*
X352130Y131865D01*
X352161Y131862D01*
X352191Y131854D01*
X352522Y131827D01*
X364483Y131827D01*
X364488Y131827D01*
X364493Y131827D01*
X364688Y131847D01*
X364884Y131867D01*
X364888Y131868D01*
X364893Y131869D01*
X365080Y131927D01*
X365269Y131985D01*
X365273Y131987D01*
X365278Y131989D01*
X365450Y132083D01*
X365623Y132177D01*
X365626Y132180D01*
X365631Y132182D01*
X365784Y132311D01*
X365932Y132434D01*
X365935Y132438D01*
X365939Y132441D01*
X366062Y132597D01*
X366184Y132748D01*
X366187Y132752D01*
X366190Y132756D01*
X366279Y132931D01*
X366370Y133105D01*
X366371Y133110D01*
X366373Y133114D01*
X366427Y133302D01*
X366481Y133492D01*
X366482Y133497D01*
X366483Y133502D01*
X366498Y133697D01*
X366514Y133894D01*
X366514Y133898D01*
X366514Y133903D01*
X366490Y134098D01*
X366467Y134293D01*
X366466Y134298D01*
X366465Y134303D01*
X366404Y134486D01*
X366342Y134676D01*
X366340Y134681D01*
X366338Y134685D01*
X366242Y134854D01*
X366144Y135027D01*
X366141Y135030D01*
X366139Y135035D01*
X366008Y135185D01*
X365881Y135331D01*
X365877Y135334D01*
X365874Y135338D01*
X365716Y135460D01*
X365708Y135466D01*
X345158Y156016D01*
X344423Y157790D01*
X344423Y371378D01*
X344420Y371409D01*
X344422Y371440D01*
X344400Y371610D01*
X344383Y371779D01*
X344374Y371809D01*
X344370Y371840D01*
X344269Y372156D01*
X343693Y373545D01*
X343693Y375755D01*
X344539Y377798D01*
X346102Y379361D01*
X348145Y380207D01*
X350355Y380207D01*
X352398Y379361D01*
X353961Y377798D01*
X354807Y375755D01*
X354807Y373545D01*
X354231Y372156D01*
X354222Y372126D01*
X354208Y372098D01*
X354164Y371933D01*
X354115Y371770D01*
X354112Y371739D01*
X354104Y371709D01*
X354077Y371378D01*
X354077Y169989D01*
X354078Y169980D01*
X354077Y169971D01*
X354098Y169779D01*
X354117Y169588D01*
X354119Y169580D01*
X354120Y169571D01*
X354178Y169389D01*
X354235Y169203D01*
X354239Y169196D01*
X354242Y169187D01*
X354335Y169019D01*
X354427Y168849D01*
X354432Y168843D01*
X354437Y168835D01*
X354562Y168687D01*
X354684Y168540D01*
X354691Y168535D01*
X354697Y168528D01*
X354849Y168408D01*
X354998Y168288D01*
X355006Y168284D01*
X355013Y168278D01*
X355185Y168191D01*
X355355Y168102D01*
X355364Y168100D01*
X355372Y168096D01*
X355558Y168044D01*
X355742Y167991D01*
X355751Y167990D01*
X355760Y167988D01*
X355952Y167974D01*
X356144Y167958D01*
X356152Y167959D01*
X356161Y167958D01*
X356354Y167983D01*
X356543Y168005D01*
X356552Y168008D01*
X356561Y168009D01*
X356744Y168070D01*
X356926Y168130D01*
X356934Y168134D01*
X356942Y168137D01*
X357108Y168232D01*
X357277Y168328D01*
X357284Y168334D01*
X357291Y168338D01*
X357544Y168553D01*
X358802Y169811D01*
X360845Y170657D01*
X363055Y170657D01*
X364444Y170081D01*
X364474Y170072D01*
X364502Y170058D01*
X364667Y170014D01*
X364830Y169965D01*
X364861Y169962D01*
X364891Y169954D01*
X365222Y169927D01*
X570768Y169927D01*
X570799Y169930D01*
X570830Y169928D01*
X571000Y169950D01*
X571169Y169967D01*
X571199Y169976D01*
X571230Y169980D01*
X571546Y170081D01*
X572935Y170657D01*
X575145Y170657D01*
X577188Y169811D01*
X578751Y168248D01*
X579597Y166205D01*
X579597Y163995D01*
X578751Y161952D01*
X577493Y160694D01*
X577487Y160687D01*
X577480Y160682D01*
X577359Y160531D01*
X577238Y160383D01*
X577233Y160375D01*
X577228Y160368D01*
X577139Y160198D01*
X577049Y160027D01*
X577046Y160018D01*
X577042Y160011D01*
X576989Y159826D01*
X576934Y159641D01*
X576933Y159632D01*
X576931Y159624D01*
X576915Y159433D01*
X576898Y159240D01*
X576899Y159231D01*
X576898Y159222D01*
X576920Y159033D01*
X576941Y158840D01*
X576944Y158831D01*
X576945Y158823D01*
X577004Y158641D01*
X577063Y158456D01*
X577067Y158448D01*
X577070Y158440D01*
X577164Y158273D01*
X577258Y158104D01*
X577263Y158097D01*
X577268Y158089D01*
X577393Y157944D01*
X577518Y157797D01*
X577525Y157791D01*
X577531Y157784D01*
X577681Y157668D01*
X577834Y157547D01*
X577842Y157543D01*
X577849Y157538D01*
X578020Y157453D01*
X578193Y157365D01*
X578202Y157362D01*
X578210Y157358D01*
X578395Y157309D01*
X578581Y157257D01*
X578590Y157256D01*
X578598Y157254D01*
X578929Y157227D01*
X671098Y157227D01*
X671129Y157230D01*
X671160Y157228D01*
X671330Y157250D01*
X671499Y157267D01*
X671529Y157276D01*
X671560Y157280D01*
X671876Y157381D01*
X673265Y157957D01*
X675475Y157957D01*
X677518Y157111D01*
X679081Y155548D01*
X679927Y153505D01*
X679927Y151295D01*
X679081Y149252D01*
X677518Y147689D01*
X675475Y146843D01*
X673265Y146843D01*
X671876Y147419D01*
X671846Y147428D01*
X671818Y147442D01*
X671653Y147486D01*
X671490Y147535D01*
X671459Y147538D01*
X671429Y147546D01*
X671098Y147573D01*
X650049Y147573D01*
X650040Y147572D01*
X650031Y147573D01*
X649839Y147552D01*
X649648Y147533D01*
X649640Y147531D01*
X649631Y147530D01*
X649449Y147472D01*
X649263Y147415D01*
X649256Y147411D01*
X649247Y147408D01*
X649079Y147315D01*
X648909Y147223D01*
X648903Y147218D01*
X648895Y147213D01*
X648747Y147088D01*
X648600Y146966D01*
X648595Y146959D01*
X648588Y146953D01*
X648468Y146801D01*
X648348Y146652D01*
X648344Y146644D01*
X648338Y146637D01*
X648251Y146465D01*
X648162Y146295D01*
X648160Y146286D01*
X648156Y146278D01*
X648104Y146092D01*
X648051Y145908D01*
X648050Y145899D01*
X648048Y145890D01*
X648034Y145698D01*
X648018Y145506D01*
X648019Y145498D01*
X648018Y145489D01*
X648043Y145296D01*
X648065Y145107D01*
X648068Y145098D01*
X648069Y145089D01*
X648130Y144906D01*
X648190Y144724D01*
X648194Y144716D01*
X648197Y144708D01*
X648292Y144542D01*
X648388Y144373D01*
X648394Y144366D01*
X648398Y144359D01*
X648613Y144106D01*
X649871Y142848D01*
X650717Y140805D01*
X650717Y138595D01*
X649871Y136552D01*
X648308Y134989D01*
X646265Y134143D01*
X644055Y134143D01*
X642666Y134719D01*
X642636Y134728D01*
X642608Y134742D01*
X642443Y134786D01*
X642280Y134835D01*
X642249Y134838D01*
X642219Y134846D01*
X641888Y134873D01*
X493839Y134873D01*
X493830Y134872D01*
X493821Y134873D01*
X493629Y134852D01*
X493438Y134833D01*
X493430Y134831D01*
X493421Y134830D01*
X493239Y134772D01*
X493053Y134715D01*
X493046Y134711D01*
X493037Y134708D01*
X492868Y134615D01*
X492699Y134523D01*
X492693Y134518D01*
X492685Y134513D01*
X492537Y134388D01*
X492390Y134266D01*
X492385Y134259D01*
X492378Y134253D01*
X492258Y134101D01*
X492138Y133952D01*
X492134Y133944D01*
X492128Y133937D01*
X492041Y133765D01*
X491952Y133595D01*
X491950Y133586D01*
X491946Y133578D01*
X491894Y133392D01*
X491841Y133208D01*
X491840Y133199D01*
X491838Y133190D01*
X491824Y132998D01*
X491808Y132806D01*
X491809Y132798D01*
X491808Y132789D01*
X491833Y132596D01*
X491855Y132407D01*
X491858Y132398D01*
X491859Y132389D01*
X491920Y132206D01*
X491980Y132024D01*
X491984Y132016D01*
X491987Y132008D01*
X492082Y131842D01*
X492178Y131673D01*
X492184Y131666D01*
X492188Y131659D01*
X492403Y131406D01*
X493661Y130148D01*
X494507Y128105D01*
X494507Y125895D01*
X493661Y123852D01*
X492098Y122289D01*
X490055Y121443D01*
X487845Y121443D01*
X486456Y122019D01*
X486426Y122028D01*
X486398Y122042D01*
X486233Y122086D01*
X486070Y122135D01*
X486039Y122138D01*
X486009Y122146D01*
X485678Y122173D01*
X481139Y122173D01*
X481130Y122172D01*
X481121Y122173D01*
X480929Y122152D01*
X480738Y122133D01*
X480730Y122131D01*
X480721Y122130D01*
X480539Y122072D01*
X480353Y122015D01*
X480346Y122011D01*
X480337Y122008D01*
X480168Y121915D01*
X479999Y121823D01*
X479993Y121818D01*
X479985Y121813D01*
X479837Y121688D01*
X479690Y121566D01*
X479685Y121559D01*
X479678Y121553D01*
X479558Y121401D01*
X479438Y121252D01*
X479434Y121244D01*
X479428Y121237D01*
X479341Y121065D01*
X479252Y120895D01*
X479250Y120886D01*
X479246Y120878D01*
X479194Y120692D01*
X479141Y120508D01*
X479140Y120499D01*
X479138Y120490D01*
X479124Y120298D01*
X479108Y120106D01*
X479109Y120098D01*
X479108Y120089D01*
X479133Y119896D01*
X479155Y119707D01*
X479158Y119698D01*
X479159Y119689D01*
X479220Y119506D01*
X479280Y119324D01*
X479284Y119316D01*
X479287Y119308D01*
X479383Y119141D01*
X479478Y118973D01*
X479484Y118966D01*
X479488Y118959D01*
X479703Y118706D01*
X480961Y117448D01*
X481807Y115405D01*
X481807Y113195D01*
X480961Y111152D01*
X479703Y109894D01*
X479697Y109887D01*
X479690Y109882D01*
X479569Y109731D01*
X479448Y109583D01*
X479443Y109575D01*
X479438Y109568D01*
X479349Y109398D01*
X479259Y109227D01*
X479256Y109218D01*
X479252Y109211D01*
X479199Y109026D01*
X479144Y108841D01*
X479143Y108832D01*
X479141Y108824D01*
X479125Y108633D01*
X479108Y108440D01*
X479109Y108431D01*
X479108Y108422D01*
X479130Y108232D01*
X479151Y108040D01*
X479154Y108031D01*
X479155Y108023D01*
X479214Y107841D01*
X479273Y107656D01*
X479277Y107648D01*
X479280Y107640D01*
X479374Y107473D01*
X479468Y107304D01*
X479473Y107297D01*
X479478Y107289D01*
X479603Y107144D01*
X479728Y106997D01*
X479735Y106991D01*
X479741Y106984D01*
X479891Y106868D01*
X480044Y106747D01*
X480052Y106743D01*
X480059Y106738D01*
X480230Y106653D01*
X480403Y106565D01*
X480412Y106562D01*
X480420Y106558D01*
X480605Y106509D01*
X480791Y106457D01*
X480800Y106456D01*
X480808Y106454D01*
X481139Y106427D01*
X498378Y106427D01*
X498409Y106430D01*
X498440Y106428D01*
X498610Y106450D01*
X498779Y106467D01*
X498809Y106476D01*
X498840Y106480D01*
X499156Y106581D01*
X500545Y107157D01*
X502755Y107157D01*
X504798Y106311D01*
X506361Y104748D01*
X507207Y102705D01*
X507207Y100495D01*
X506361Y98452D01*
X505103Y97194D01*
X505097Y97187D01*
X505090Y97182D01*
X504969Y97031D01*
X504848Y96883D01*
X504843Y96875D01*
X504838Y96868D01*
X504749Y96698D01*
X504659Y96527D01*
X504656Y96518D01*
X504652Y96511D01*
X504599Y96326D01*
X504544Y96141D01*
X504543Y96132D01*
X504541Y96124D01*
X504525Y95933D01*
X504508Y95740D01*
X504509Y95731D01*
X504508Y95722D01*
X504530Y95533D01*
X504551Y95340D01*
X504554Y95331D01*
X504555Y95323D01*
X504614Y95141D01*
X504673Y94956D01*
X504677Y94948D01*
X504680Y94940D01*
X504774Y94773D01*
X504868Y94604D01*
X504873Y94597D01*
X504878Y94589D01*
X505003Y94444D01*
X505128Y94297D01*
X505135Y94291D01*
X505141Y94284D01*
X505291Y94168D01*
X505444Y94047D01*
X505452Y94043D01*
X505459Y94038D01*
X505630Y93953D01*
X505803Y93865D01*
X505812Y93862D01*
X505820Y93858D01*
X506005Y93809D01*
X506191Y93757D01*
X506200Y93756D01*
X506208Y93754D01*
X506539Y93727D01*
X533099Y93727D01*
X533126Y93729D01*
X533153Y93727D01*
X533327Y93749D01*
X533500Y93767D01*
X533525Y93774D01*
X533552Y93778D01*
X533718Y93833D01*
X533885Y93885D01*
X533908Y93898D01*
X533934Y93906D01*
X534085Y93993D01*
X534239Y94077D01*
X534259Y94094D01*
X534283Y94107D01*
X534536Y94322D01*
X540374Y100160D01*
X540393Y100184D01*
X540417Y100204D01*
X540521Y100339D01*
X540629Y100471D01*
X540643Y100499D01*
X540662Y100523D01*
X540814Y100819D01*
X541389Y102208D01*
X542952Y103771D01*
X544995Y104617D01*
X547205Y104617D01*
X549248Y103771D01*
X550811Y102208D01*
X551657Y100165D01*
X551657Y97955D01*
X550811Y95912D01*
X549248Y94349D01*
X547859Y93774D01*
X547831Y93759D01*
X547801Y93749D01*
X547654Y93664D01*
X547504Y93584D01*
X547480Y93564D01*
X547453Y93548D01*
X547200Y93334D01*
X538674Y84808D01*
X536900Y84073D01*
X424912Y84073D01*
X424881Y84070D01*
X424849Y84072D01*
X424680Y84050D01*
X424511Y84033D01*
X424481Y84024D01*
X424450Y84020D01*
X424134Y83919D01*
X422745Y83343D01*
X420535Y83343D01*
G37*
%LPD*%
%LPC*%
G36*
X151295Y115093D02*
X151295Y115093D01*
X149906Y115669D01*
X149876Y115678D01*
X149848Y115692D01*
X149683Y115736D01*
X149520Y115785D01*
X149489Y115788D01*
X149459Y115796D01*
X149128Y115823D01*
X89383Y115823D01*
X89352Y115820D01*
X89321Y115822D01*
X89152Y115800D01*
X88983Y115783D01*
X88953Y115774D01*
X88922Y115770D01*
X88606Y115669D01*
X87446Y115188D01*
X85274Y115188D01*
X83266Y116020D01*
X81730Y117556D01*
X80898Y119564D01*
X80898Y121736D01*
X81730Y123744D01*
X83266Y125280D01*
X85274Y126112D01*
X87446Y126112D01*
X88606Y125631D01*
X88636Y125622D01*
X88664Y125608D01*
X88829Y125564D01*
X88991Y125515D01*
X89022Y125512D01*
X89053Y125504D01*
X89383Y125477D01*
X145542Y125477D01*
X145560Y125479D01*
X145578Y125477D01*
X145760Y125498D01*
X145943Y125517D01*
X145960Y125522D01*
X145977Y125524D01*
X146152Y125581D01*
X146328Y125635D01*
X146343Y125643D01*
X146360Y125649D01*
X146520Y125739D01*
X146682Y125827D01*
X146695Y125838D01*
X146711Y125847D01*
X146850Y125967D01*
X146991Y126084D01*
X147002Y126098D01*
X147016Y126110D01*
X147128Y126255D01*
X147243Y126398D01*
X147251Y126414D01*
X147262Y126428D01*
X147344Y126593D01*
X147429Y126755D01*
X147434Y126772D01*
X147442Y126788D01*
X147489Y126967D01*
X147540Y127142D01*
X147542Y127160D01*
X147546Y127177D01*
X147573Y127508D01*
X147573Y191460D01*
X148308Y193234D01*
X168844Y213770D01*
X168921Y213834D01*
X169075Y213962D01*
X169078Y213965D01*
X169082Y213968D01*
X169203Y214119D01*
X169329Y214274D01*
X169331Y214278D01*
X169334Y214282D01*
X169424Y214455D01*
X169516Y214631D01*
X169518Y214635D01*
X169520Y214639D01*
X169574Y214827D01*
X169629Y215017D01*
X169630Y215022D01*
X169631Y215026D01*
X169647Y215221D01*
X169664Y215418D01*
X169664Y215423D01*
X169664Y215428D01*
X169642Y215618D01*
X169619Y215818D01*
X169618Y215823D01*
X169617Y215827D01*
X169557Y216013D01*
X169496Y216202D01*
X169494Y216206D01*
X169492Y216210D01*
X169396Y216380D01*
X169300Y216553D01*
X169297Y216557D01*
X169294Y216561D01*
X169166Y216710D01*
X169038Y216859D01*
X169034Y216862D01*
X169031Y216866D01*
X168878Y216985D01*
X168721Y217107D01*
X168717Y217110D01*
X168713Y217112D01*
X168539Y217199D01*
X168361Y217288D01*
X168357Y217289D01*
X168353Y217292D01*
X168160Y217343D01*
X167973Y217395D01*
X167968Y217395D01*
X167964Y217396D01*
X167633Y217423D01*
X104872Y217423D01*
X104841Y217420D01*
X104810Y217422D01*
X104640Y217400D01*
X104471Y217383D01*
X104441Y217374D01*
X104410Y217370D01*
X104094Y217269D01*
X103359Y216964D01*
X103331Y216949D01*
X103301Y216939D01*
X103154Y216854D01*
X103004Y216774D01*
X102980Y216754D01*
X102953Y216738D01*
X102700Y216524D01*
X59884Y173708D01*
X58355Y173075D01*
X58327Y173060D01*
X58298Y173050D01*
X58150Y172965D01*
X58000Y172884D01*
X57976Y172864D01*
X57949Y172849D01*
X57696Y172634D01*
X55631Y170570D01*
X52497Y169271D01*
X49103Y169271D01*
X45969Y170570D01*
X43570Y172969D01*
X42271Y176103D01*
X42271Y179497D01*
X43570Y182631D01*
X45969Y185030D01*
X49103Y186329D01*
X52496Y186329D01*
X55737Y184986D01*
X55758Y184980D01*
X55778Y184970D01*
X55951Y184922D01*
X56122Y184870D01*
X56145Y184868D01*
X56166Y184862D01*
X56345Y184849D01*
X56523Y184832D01*
X56545Y184834D01*
X56568Y184832D01*
X56747Y184855D01*
X56924Y184873D01*
X56945Y184880D01*
X56967Y184883D01*
X57137Y184940D01*
X57308Y184993D01*
X57328Y185004D01*
X57349Y185011D01*
X57505Y185101D01*
X57661Y185187D01*
X57678Y185201D01*
X57698Y185212D01*
X57951Y185427D01*
X95874Y223350D01*
X95893Y223374D01*
X95917Y223394D01*
X96021Y223529D01*
X96129Y223661D01*
X96143Y223689D01*
X96162Y223713D01*
X96314Y224009D01*
X96889Y225398D01*
X98452Y226961D01*
X99526Y227405D01*
X99526Y227406D01*
X100495Y227807D01*
X102705Y227807D01*
X104094Y227231D01*
X104124Y227222D01*
X104152Y227208D01*
X104317Y227164D01*
X104480Y227115D01*
X104511Y227112D01*
X104541Y227104D01*
X104872Y227077D01*
X109411Y227077D01*
X109420Y227078D01*
X109429Y227077D01*
X109621Y227098D01*
X109812Y227117D01*
X109820Y227119D01*
X109829Y227120D01*
X110011Y227178D01*
X110197Y227235D01*
X110204Y227239D01*
X110213Y227242D01*
X110381Y227335D01*
X110551Y227427D01*
X110557Y227432D01*
X110565Y227437D01*
X110713Y227562D01*
X110860Y227684D01*
X110865Y227691D01*
X110872Y227697D01*
X110992Y227849D01*
X111112Y227998D01*
X111116Y228006D01*
X111122Y228013D01*
X111209Y228185D01*
X111298Y228355D01*
X111300Y228364D01*
X111304Y228372D01*
X111356Y228558D01*
X111409Y228742D01*
X111410Y228751D01*
X111412Y228760D01*
X111426Y228952D01*
X111442Y229144D01*
X111441Y229152D01*
X111442Y229161D01*
X111417Y229354D01*
X111395Y229543D01*
X111392Y229552D01*
X111391Y229561D01*
X111330Y229744D01*
X111270Y229926D01*
X111266Y229934D01*
X111263Y229942D01*
X111168Y230108D01*
X111072Y230277D01*
X111066Y230284D01*
X111062Y230291D01*
X110847Y230544D01*
X109589Y231802D01*
X108743Y233845D01*
X108743Y236055D01*
X109589Y238098D01*
X111152Y239661D01*
X113195Y240507D01*
X115405Y240507D01*
X116794Y239931D01*
X116824Y239922D01*
X116852Y239908D01*
X117017Y239864D01*
X117180Y239815D01*
X117211Y239812D01*
X117241Y239804D01*
X117572Y239777D01*
X199928Y239777D01*
X199959Y239780D01*
X199990Y239778D01*
X200160Y239800D01*
X200329Y239817D01*
X200359Y239826D01*
X200390Y239830D01*
X200706Y239931D01*
X202095Y240507D01*
X204305Y240507D01*
X205694Y239931D01*
X205724Y239922D01*
X205752Y239908D01*
X205917Y239864D01*
X206080Y239815D01*
X206111Y239812D01*
X206141Y239804D01*
X206472Y239777D01*
X282478Y239777D01*
X282509Y239780D01*
X282540Y239778D01*
X282710Y239800D01*
X282879Y239817D01*
X282909Y239826D01*
X282940Y239830D01*
X283256Y239931D01*
X284645Y240507D01*
X286855Y240507D01*
X288898Y239661D01*
X290461Y238098D01*
X291307Y236055D01*
X291307Y233845D01*
X290461Y231802D01*
X288898Y230239D01*
X286855Y229393D01*
X285019Y229393D01*
X285010Y229392D01*
X285001Y229393D01*
X284809Y229372D01*
X284618Y229353D01*
X284610Y229351D01*
X284601Y229350D01*
X284418Y229292D01*
X284233Y229235D01*
X284226Y229231D01*
X284217Y229228D01*
X284048Y229135D01*
X283879Y229043D01*
X283873Y229038D01*
X283865Y229033D01*
X283717Y228908D01*
X283570Y228786D01*
X283565Y228779D01*
X283558Y228773D01*
X283437Y228621D01*
X283318Y228472D01*
X283314Y228464D01*
X283308Y228457D01*
X283220Y228284D01*
X283132Y228115D01*
X283130Y228106D01*
X283126Y228098D01*
X283074Y227913D01*
X283021Y227728D01*
X283020Y227719D01*
X283018Y227710D01*
X283004Y227518D01*
X282988Y227326D01*
X282989Y227318D01*
X282988Y227309D01*
X283013Y227116D01*
X283035Y226927D01*
X283038Y226918D01*
X283039Y226909D01*
X283100Y226727D01*
X283160Y226544D01*
X283164Y226536D01*
X283167Y226528D01*
X283263Y226360D01*
X283358Y226193D01*
X283364Y226186D01*
X283368Y226179D01*
X283583Y225926D01*
X284111Y225398D01*
X284957Y223355D01*
X284957Y221145D01*
X284111Y219102D01*
X282853Y217844D01*
X282847Y217837D01*
X282840Y217832D01*
X282719Y217681D01*
X282598Y217533D01*
X282593Y217525D01*
X282588Y217518D01*
X282499Y217348D01*
X282409Y217177D01*
X282406Y217168D01*
X282402Y217161D01*
X282349Y216976D01*
X282294Y216791D01*
X282293Y216782D01*
X282291Y216774D01*
X282275Y216583D01*
X282258Y216390D01*
X282259Y216381D01*
X282258Y216372D01*
X282280Y216183D01*
X282301Y215990D01*
X282304Y215981D01*
X282305Y215973D01*
X282364Y215790D01*
X282423Y215606D01*
X282427Y215598D01*
X282430Y215590D01*
X282524Y215423D01*
X282618Y215254D01*
X282623Y215247D01*
X282628Y215239D01*
X282753Y215094D01*
X282878Y214947D01*
X282885Y214941D01*
X282891Y214934D01*
X283041Y214818D01*
X283194Y214697D01*
X283202Y214693D01*
X283209Y214688D01*
X283380Y214603D01*
X283553Y214515D01*
X283562Y214512D01*
X283570Y214508D01*
X283755Y214459D01*
X283941Y214407D01*
X283950Y214406D01*
X283958Y214404D01*
X284289Y214377D01*
X289259Y214377D01*
X289286Y214379D01*
X289313Y214377D01*
X289487Y214399D01*
X289660Y214417D01*
X289685Y214424D01*
X289712Y214428D01*
X289878Y214483D01*
X290045Y214535D01*
X290068Y214548D01*
X290094Y214556D01*
X290245Y214643D01*
X290399Y214727D01*
X290419Y214744D01*
X290443Y214757D01*
X290696Y214972D01*
X312078Y236354D01*
X312095Y236375D01*
X312116Y236393D01*
X312223Y236530D01*
X312333Y236666D01*
X312346Y236690D01*
X312362Y236711D01*
X312440Y236868D01*
X312522Y237022D01*
X312530Y237047D01*
X312542Y237071D01*
X312587Y237241D01*
X312637Y237407D01*
X312639Y237434D01*
X312646Y237460D01*
X312673Y237791D01*
X312673Y320578D01*
X312670Y320609D01*
X312672Y320640D01*
X312650Y320810D01*
X312633Y320979D01*
X312624Y321009D01*
X312620Y321040D01*
X312519Y321356D01*
X311943Y322745D01*
X311943Y324955D01*
X312789Y326998D01*
X314352Y328561D01*
X315335Y328968D01*
X316395Y329407D01*
X318605Y329407D01*
X320648Y328561D01*
X322211Y326998D01*
X323057Y324955D01*
X323057Y322745D01*
X322481Y321356D01*
X322472Y321326D01*
X322458Y321298D01*
X322414Y321133D01*
X322365Y320970D01*
X322362Y320939D01*
X322354Y320909D01*
X322327Y320578D01*
X322327Y233990D01*
X321592Y232216D01*
X294834Y205458D01*
X293114Y204746D01*
X293060Y204723D01*
X174291Y204723D01*
X174264Y204721D01*
X174237Y204723D01*
X174063Y204701D01*
X173890Y204683D01*
X173865Y204676D01*
X173838Y204672D01*
X173672Y204617D01*
X173505Y204565D01*
X173482Y204552D01*
X173456Y204544D01*
X173305Y204457D01*
X173151Y204373D01*
X173131Y204356D01*
X173107Y204343D01*
X172854Y204128D01*
X157822Y189096D01*
X157805Y189075D01*
X157784Y189057D01*
X157677Y188920D01*
X157567Y188784D01*
X157554Y188760D01*
X157538Y188739D01*
X157460Y188582D01*
X157378Y188428D01*
X157370Y188403D01*
X157358Y188379D01*
X157313Y188209D01*
X157263Y188043D01*
X157261Y188016D01*
X157254Y187990D01*
X157227Y187659D01*
X157227Y123922D01*
X157230Y123891D01*
X157228Y123860D01*
X157250Y123690D01*
X157267Y123521D01*
X157276Y123491D01*
X157280Y123460D01*
X157381Y123144D01*
X157957Y121755D01*
X157957Y119545D01*
X157111Y117502D01*
X155548Y115939D01*
X153505Y115093D01*
X151295Y115093D01*
G37*
%LPD*%
%LPC*%
G36*
X49103Y194671D02*
X49103Y194671D01*
X45969Y195970D01*
X43570Y198369D01*
X42271Y201503D01*
X42271Y204897D01*
X43570Y208031D01*
X45969Y210430D01*
X49103Y211729D01*
X51661Y211729D01*
X51688Y211731D01*
X51715Y211729D01*
X51889Y211751D01*
X52062Y211769D01*
X52087Y211776D01*
X52114Y211780D01*
X52280Y211835D01*
X52447Y211887D01*
X52470Y211900D01*
X52496Y211908D01*
X52647Y211995D01*
X52801Y212079D01*
X52821Y212096D01*
X52845Y212109D01*
X53098Y212324D01*
X202882Y362108D01*
X204526Y363752D01*
X206300Y364487D01*
X228092Y364487D01*
X228110Y364489D01*
X228128Y364487D01*
X228310Y364508D01*
X228493Y364527D01*
X228510Y364532D01*
X228527Y364534D01*
X228702Y364591D01*
X228878Y364645D01*
X228893Y364653D01*
X228910Y364659D01*
X229070Y364749D01*
X229232Y364837D01*
X229245Y364848D01*
X229261Y364857D01*
X229400Y364977D01*
X229541Y365094D01*
X229552Y365108D01*
X229566Y365120D01*
X229678Y365265D01*
X229793Y365408D01*
X229801Y365424D01*
X229812Y365438D01*
X229894Y365603D01*
X229979Y365765D01*
X229984Y365782D01*
X229992Y365798D01*
X230039Y365977D01*
X230090Y366152D01*
X230092Y366170D01*
X230096Y366187D01*
X230123Y366518D01*
X230123Y407188D01*
X230120Y407219D01*
X230122Y407250D01*
X230100Y407420D01*
X230083Y407589D01*
X230074Y407619D01*
X230070Y407650D01*
X229969Y407966D01*
X229393Y409355D01*
X229393Y411565D01*
X229969Y412954D01*
X229978Y412984D01*
X229992Y413012D01*
X230036Y413177D01*
X230085Y413340D01*
X230088Y413371D01*
X230096Y413401D01*
X230123Y413732D01*
X230123Y457988D01*
X230120Y458019D01*
X230122Y458050D01*
X230100Y458220D01*
X230083Y458389D01*
X230074Y458419D01*
X230070Y458450D01*
X229969Y458766D01*
X229393Y460155D01*
X229393Y462365D01*
X230239Y464408D01*
X231802Y465971D01*
X233845Y466817D01*
X236055Y466817D01*
X238098Y465971D01*
X239661Y464408D01*
X240507Y462365D01*
X240507Y460155D01*
X239931Y458766D01*
X239922Y458736D01*
X239908Y458708D01*
X239864Y458543D01*
X239815Y458380D01*
X239812Y458349D01*
X239804Y458319D01*
X239777Y457988D01*
X239777Y413732D01*
X239780Y413701D01*
X239778Y413670D01*
X239800Y413500D01*
X239817Y413331D01*
X239826Y413301D01*
X239830Y413270D01*
X239931Y412954D01*
X240507Y411565D01*
X240507Y409355D01*
X239931Y407966D01*
X239922Y407936D01*
X239908Y407908D01*
X239864Y407743D01*
X239815Y407580D01*
X239812Y407549D01*
X239804Y407519D01*
X239777Y407188D01*
X239777Y362932D01*
X239780Y362901D01*
X239778Y362870D01*
X239800Y362700D01*
X239817Y362531D01*
X239826Y362501D01*
X239830Y362470D01*
X239931Y362154D01*
X240507Y360765D01*
X240507Y358555D01*
X239661Y356512D01*
X238098Y354949D01*
X236055Y354103D01*
X233845Y354103D01*
X232456Y354679D01*
X232426Y354688D01*
X232398Y354702D01*
X232233Y354746D01*
X232070Y354795D01*
X232039Y354798D01*
X232009Y354806D01*
X231678Y354833D01*
X210101Y354833D01*
X210074Y354831D01*
X210047Y354833D01*
X209873Y354811D01*
X209700Y354793D01*
X209675Y354786D01*
X209648Y354782D01*
X209482Y354727D01*
X209315Y354675D01*
X209292Y354662D01*
X209266Y354654D01*
X209115Y354567D01*
X208961Y354483D01*
X208941Y354466D01*
X208917Y354453D01*
X208664Y354238D01*
X59924Y205498D01*
X59907Y205477D01*
X59886Y205459D01*
X59779Y205322D01*
X59669Y205186D01*
X59656Y205163D01*
X59640Y205141D01*
X59562Y204984D01*
X59480Y204830D01*
X59472Y204805D01*
X59460Y204781D01*
X59415Y204611D01*
X59365Y204445D01*
X59363Y204418D01*
X59356Y204392D01*
X59329Y204061D01*
X59329Y201503D01*
X58030Y198369D01*
X55631Y195970D01*
X52497Y194671D01*
X49103Y194671D01*
G37*
%LPD*%
%LPC*%
G36*
X94145Y470693D02*
X94145Y470693D01*
X92102Y471539D01*
X90539Y473102D01*
X89693Y475145D01*
X89693Y477355D01*
X90539Y479398D01*
X92102Y480961D01*
X94145Y481807D01*
X96355Y481807D01*
X97744Y481231D01*
X97774Y481222D01*
X97802Y481208D01*
X97967Y481164D01*
X98130Y481115D01*
X98161Y481112D01*
X98191Y481104D01*
X98522Y481077D01*
X384078Y481077D01*
X384109Y481080D01*
X384140Y481078D01*
X384310Y481100D01*
X384479Y481117D01*
X384509Y481126D01*
X384540Y481130D01*
X384856Y481231D01*
X385050Y481312D01*
X386245Y481807D01*
X388455Y481807D01*
X390498Y480961D01*
X392061Y479398D01*
X392907Y477355D01*
X392907Y475145D01*
X392061Y473102D01*
X390498Y471539D01*
X388455Y470693D01*
X386245Y470693D01*
X384856Y471269D01*
X384826Y471278D01*
X384798Y471292D01*
X384633Y471336D01*
X384470Y471385D01*
X384439Y471388D01*
X384409Y471396D01*
X384078Y471423D01*
X98522Y471423D01*
X98491Y471420D01*
X98460Y471422D01*
X98290Y471400D01*
X98121Y471383D01*
X98091Y471374D01*
X98060Y471370D01*
X97744Y471269D01*
X96708Y470839D01*
X96355Y470693D01*
X94145Y470693D01*
G37*
%LPD*%
%LPC*%
G36*
X430103Y334371D02*
X430103Y334371D01*
X426969Y335670D01*
X424570Y338069D01*
X423271Y341203D01*
X423271Y344597D01*
X424666Y347965D01*
X424670Y347978D01*
X424676Y347989D01*
X424728Y348170D01*
X424783Y348350D01*
X424784Y348363D01*
X424788Y348376D01*
X424803Y348564D01*
X424821Y348751D01*
X424820Y348764D01*
X424821Y348778D01*
X424799Y348965D01*
X424779Y349151D01*
X424775Y349164D01*
X424774Y349177D01*
X424715Y349357D01*
X424660Y349536D01*
X424653Y349547D01*
X424649Y349560D01*
X424556Y349725D01*
X424466Y349889D01*
X424458Y349899D01*
X424451Y349911D01*
X424328Y350053D01*
X424207Y350197D01*
X424197Y350205D01*
X424188Y350216D01*
X424039Y350331D01*
X423892Y350448D01*
X423880Y350454D01*
X423870Y350462D01*
X423701Y350546D01*
X423534Y350632D01*
X423521Y350636D01*
X423509Y350642D01*
X423326Y350691D01*
X423147Y350742D01*
X423134Y350743D01*
X423121Y350746D01*
X422790Y350773D01*
X413060Y350773D01*
X411286Y351508D01*
X395958Y366836D01*
X395223Y368610D01*
X395223Y384509D01*
X395221Y384536D01*
X395223Y384563D01*
X395201Y384737D01*
X395183Y384910D01*
X395176Y384935D01*
X395172Y384962D01*
X395117Y385128D01*
X395065Y385295D01*
X395052Y385318D01*
X395044Y385344D01*
X394957Y385495D01*
X394873Y385649D01*
X394856Y385669D01*
X394843Y385693D01*
X394628Y385946D01*
X385946Y394628D01*
X385925Y394645D01*
X385907Y394666D01*
X385770Y394773D01*
X385634Y394883D01*
X385610Y394896D01*
X385589Y394912D01*
X385432Y394990D01*
X385278Y395072D01*
X385253Y395080D01*
X385229Y395092D01*
X385059Y395137D01*
X384893Y395187D01*
X384866Y395189D01*
X384840Y395196D01*
X384509Y395223D01*
X301722Y395223D01*
X301691Y395220D01*
X301660Y395222D01*
X301490Y395200D01*
X301321Y395183D01*
X301291Y395174D01*
X301260Y395170D01*
X300944Y395069D01*
X299555Y394493D01*
X297345Y394493D01*
X295302Y395339D01*
X293739Y396902D01*
X292893Y398945D01*
X292893Y401155D01*
X293739Y403198D01*
X295302Y404761D01*
X297345Y405607D01*
X299555Y405607D01*
X300944Y405031D01*
X300974Y405022D01*
X301002Y405008D01*
X301167Y404964D01*
X301330Y404915D01*
X301361Y404912D01*
X301391Y404904D01*
X301722Y404877D01*
X388310Y404877D01*
X390084Y404142D01*
X404142Y390084D01*
X404877Y388310D01*
X404877Y372411D01*
X404879Y372384D01*
X404877Y372357D01*
X404899Y372183D01*
X404917Y372010D01*
X404924Y371985D01*
X404928Y371958D01*
X404983Y371792D01*
X405035Y371625D01*
X405048Y371602D01*
X405056Y371576D01*
X405143Y371425D01*
X405227Y371271D01*
X405244Y371251D01*
X405257Y371227D01*
X405472Y370974D01*
X415424Y361022D01*
X415445Y361005D01*
X415463Y360984D01*
X415600Y360877D01*
X415736Y360767D01*
X415760Y360754D01*
X415781Y360738D01*
X415938Y360660D01*
X416092Y360578D01*
X416117Y360570D01*
X416141Y360558D01*
X416311Y360513D01*
X416477Y360463D01*
X416504Y360461D01*
X416530Y360454D01*
X416861Y360427D01*
X422070Y360427D01*
X422162Y360436D01*
X422256Y360435D01*
X422362Y360456D01*
X422470Y360467D01*
X422559Y360494D01*
X422651Y360512D01*
X422752Y360553D01*
X422855Y360585D01*
X422937Y360629D01*
X423023Y360665D01*
X423114Y360725D01*
X423209Y360777D01*
X423281Y360836D01*
X423358Y360888D01*
X423435Y360965D01*
X423519Y361034D01*
X423577Y361107D01*
X423643Y361173D01*
X423703Y361264D01*
X423771Y361348D01*
X423814Y361431D01*
X423865Y361508D01*
X423906Y361609D01*
X423956Y361705D01*
X423982Y361795D01*
X424017Y361881D01*
X424038Y361988D01*
X424068Y362092D01*
X424075Y362185D01*
X424093Y362277D01*
X424092Y362385D01*
X424101Y362494D01*
X424090Y362586D01*
X424089Y362679D01*
X424066Y362786D01*
X424054Y362893D01*
X424025Y362982D01*
X424006Y363073D01*
X423955Y363197D01*
X423929Y363276D01*
X423905Y363319D01*
X423880Y363380D01*
X423190Y364734D01*
X422762Y366051D01*
X431582Y366051D01*
X431600Y366052D01*
X431617Y366051D01*
X431781Y366070D01*
X432018Y366051D01*
X440838Y366051D01*
X440410Y364734D01*
X439801Y363539D01*
X439769Y363456D01*
X439728Y363377D01*
X439696Y363269D01*
X439655Y363164D01*
X439640Y363076D01*
X439615Y362991D01*
X439605Y362878D01*
X439585Y362767D01*
X439588Y362678D01*
X439580Y362590D01*
X439593Y362478D01*
X439596Y362365D01*
X439615Y362278D01*
X439625Y362190D01*
X439660Y362082D01*
X439685Y361972D01*
X439721Y361891D01*
X439748Y361806D01*
X439803Y361708D01*
X439850Y361605D01*
X439901Y361533D01*
X439945Y361455D01*
X440018Y361369D01*
X440084Y361277D01*
X440149Y361217D01*
X440207Y361149D01*
X440295Y361080D01*
X440378Y361002D01*
X440454Y360956D01*
X440524Y360901D01*
X440624Y360850D01*
X440721Y360791D01*
X440804Y360760D01*
X440883Y360720D01*
X440992Y360690D01*
X441098Y360651D01*
X441186Y360637D01*
X441272Y360614D01*
X441384Y360606D01*
X441496Y360589D01*
X441585Y360592D01*
X441673Y360586D01*
X441786Y360601D01*
X441898Y360606D01*
X441984Y360627D01*
X442073Y360638D01*
X442207Y360682D01*
X442289Y360702D01*
X442331Y360721D01*
X442388Y360740D01*
X443395Y361157D01*
X445605Y361157D01*
X447648Y360311D01*
X449211Y358748D01*
X450057Y356705D01*
X450057Y354495D01*
X449211Y352452D01*
X447648Y350889D01*
X445605Y350043D01*
X443395Y350043D01*
X442006Y350619D01*
X441976Y350628D01*
X441948Y350642D01*
X441783Y350686D01*
X441620Y350735D01*
X441589Y350738D01*
X441559Y350746D01*
X441228Y350773D01*
X440810Y350773D01*
X440797Y350772D01*
X440784Y350773D01*
X440597Y350752D01*
X440410Y350733D01*
X440397Y350729D01*
X440383Y350728D01*
X440204Y350670D01*
X440025Y350615D01*
X440013Y350609D01*
X440000Y350605D01*
X439835Y350513D01*
X439671Y350423D01*
X439660Y350415D01*
X439649Y350408D01*
X439505Y350286D01*
X439361Y350166D01*
X439353Y350155D01*
X439343Y350147D01*
X439227Y349998D01*
X439109Y349852D01*
X439103Y349840D01*
X439095Y349830D01*
X439010Y349661D01*
X438924Y349495D01*
X438920Y349482D01*
X438914Y349470D01*
X438864Y349288D01*
X438812Y349108D01*
X438811Y349094D01*
X438808Y349081D01*
X438795Y348893D01*
X438779Y348706D01*
X438781Y348693D01*
X438780Y348680D01*
X438804Y348492D01*
X438826Y348307D01*
X438830Y348294D01*
X438832Y348281D01*
X438934Y347965D01*
X440329Y344597D01*
X440329Y341203D01*
X439030Y338069D01*
X436631Y335670D01*
X433497Y334371D01*
X430103Y334371D01*
G37*
%LPD*%
%LPC*%
G36*
X506895Y306863D02*
X506895Y306863D01*
X504852Y307709D01*
X503289Y309272D01*
X502443Y311315D01*
X502443Y313525D01*
X503019Y314914D01*
X503028Y314944D01*
X503042Y314972D01*
X503086Y315137D01*
X503135Y315300D01*
X503138Y315331D01*
X503146Y315361D01*
X503173Y315692D01*
X503173Y379429D01*
X503171Y379456D01*
X503173Y379483D01*
X503151Y379657D01*
X503133Y379830D01*
X503126Y379855D01*
X503122Y379882D01*
X503067Y380048D01*
X503015Y380215D01*
X503002Y380238D01*
X502994Y380264D01*
X502907Y380415D01*
X502823Y380569D01*
X502806Y380589D01*
X502793Y380613D01*
X502578Y380866D01*
X495166Y388278D01*
X495145Y388295D01*
X495127Y388316D01*
X494990Y388423D01*
X494854Y388533D01*
X494830Y388546D01*
X494809Y388562D01*
X494652Y388640D01*
X494498Y388722D01*
X494473Y388730D01*
X494449Y388742D01*
X494279Y388787D01*
X494113Y388837D01*
X494086Y388839D01*
X494060Y388846D01*
X493729Y388873D01*
X439876Y388873D01*
X439850Y388871D01*
X439823Y388873D01*
X439649Y388851D01*
X439475Y388833D01*
X439450Y388826D01*
X439423Y388822D01*
X439257Y388766D01*
X439091Y388715D01*
X439067Y388702D01*
X439042Y388694D01*
X438890Y388607D01*
X438737Y388523D01*
X438716Y388506D01*
X438693Y388493D01*
X438440Y388278D01*
X436631Y386470D01*
X433497Y385171D01*
X430103Y385171D01*
X426969Y386470D01*
X424570Y388869D01*
X423271Y392003D01*
X423271Y395397D01*
X424570Y398531D01*
X426969Y400930D01*
X430103Y402229D01*
X433497Y402229D01*
X436631Y400930D01*
X438440Y399122D01*
X438460Y399105D01*
X438478Y399084D01*
X438616Y398977D01*
X438751Y398867D01*
X438775Y398854D01*
X438796Y398838D01*
X438953Y398760D01*
X439107Y398678D01*
X439133Y398670D01*
X439157Y398658D01*
X439326Y398613D01*
X439493Y398563D01*
X439520Y398561D01*
X439545Y398554D01*
X439876Y398527D01*
X497530Y398527D01*
X499304Y397792D01*
X512092Y385004D01*
X512827Y383230D01*
X512827Y315692D01*
X512830Y315661D01*
X512828Y315630D01*
X512850Y315460D01*
X512867Y315291D01*
X512876Y315261D01*
X512880Y315230D01*
X512981Y314914D01*
X513557Y313525D01*
X513557Y311315D01*
X512711Y309272D01*
X511148Y307709D01*
X509105Y306863D01*
X506895Y306863D01*
G37*
%LPD*%
%LPC*%
G36*
X273234Y89788D02*
X273234Y89788D01*
X272074Y90269D01*
X272044Y90278D01*
X272016Y90292D01*
X271852Y90336D01*
X271688Y90385D01*
X271657Y90388D01*
X271627Y90396D01*
X271297Y90423D01*
X208590Y90423D01*
X206816Y91158D01*
X189400Y108574D01*
X189376Y108593D01*
X189356Y108617D01*
X189221Y108721D01*
X189089Y108829D01*
X189061Y108843D01*
X189037Y108862D01*
X188741Y109014D01*
X187352Y109589D01*
X185789Y111152D01*
X184943Y113195D01*
X184943Y115405D01*
X185789Y117448D01*
X187352Y119011D01*
X189135Y119749D01*
X189395Y119857D01*
X191605Y119857D01*
X193648Y119011D01*
X195211Y117448D01*
X195786Y116059D01*
X195801Y116031D01*
X195811Y116001D01*
X195896Y115854D01*
X195976Y115704D01*
X195996Y115680D01*
X196012Y115653D01*
X196226Y115400D01*
X210954Y100672D01*
X210975Y100655D01*
X210993Y100634D01*
X211130Y100527D01*
X211266Y100417D01*
X211290Y100404D01*
X211311Y100388D01*
X211468Y100310D01*
X211622Y100228D01*
X211647Y100220D01*
X211671Y100208D01*
X211841Y100163D01*
X212007Y100113D01*
X212034Y100111D01*
X212060Y100104D01*
X212391Y100077D01*
X217361Y100077D01*
X217370Y100078D01*
X217379Y100077D01*
X217571Y100098D01*
X217762Y100117D01*
X217770Y100119D01*
X217779Y100120D01*
X217961Y100178D01*
X218147Y100235D01*
X218154Y100239D01*
X218163Y100242D01*
X218331Y100335D01*
X218501Y100427D01*
X218507Y100432D01*
X218515Y100437D01*
X218663Y100562D01*
X218810Y100684D01*
X218815Y100691D01*
X218822Y100697D01*
X218942Y100849D01*
X219062Y100998D01*
X219066Y101006D01*
X219072Y101013D01*
X219159Y101185D01*
X219248Y101355D01*
X219250Y101364D01*
X219254Y101372D01*
X219306Y101558D01*
X219359Y101742D01*
X219360Y101751D01*
X219362Y101760D01*
X219376Y101950D01*
X219392Y102144D01*
X219391Y102152D01*
X219392Y102161D01*
X219367Y102354D01*
X219345Y102543D01*
X219342Y102552D01*
X219341Y102561D01*
X219280Y102744D01*
X219220Y102926D01*
X219216Y102934D01*
X219213Y102942D01*
X219118Y103108D01*
X219022Y103277D01*
X219016Y103284D01*
X219012Y103291D01*
X218797Y103544D01*
X217539Y104802D01*
X216964Y106191D01*
X216949Y106219D01*
X216939Y106249D01*
X216854Y106396D01*
X216774Y106546D01*
X216754Y106570D01*
X216738Y106597D01*
X216524Y106850D01*
X202100Y121274D01*
X202076Y121293D01*
X202056Y121317D01*
X201921Y121421D01*
X201789Y121529D01*
X201761Y121543D01*
X201737Y121562D01*
X201441Y121714D01*
X200052Y122289D01*
X198489Y123852D01*
X197643Y125895D01*
X197643Y128105D01*
X198489Y130148D01*
X200052Y131711D01*
X202095Y132557D01*
X204305Y132557D01*
X206348Y131711D01*
X207911Y130148D01*
X208486Y128759D01*
X208501Y128731D01*
X208511Y128701D01*
X208596Y128554D01*
X208676Y128404D01*
X208696Y128380D01*
X208712Y128353D01*
X208926Y128100D01*
X223350Y113676D01*
X223374Y113657D01*
X223394Y113633D01*
X223529Y113529D01*
X223661Y113421D01*
X223689Y113407D01*
X223713Y113388D01*
X224009Y113236D01*
X225398Y112661D01*
X226961Y111098D01*
X227807Y109055D01*
X227807Y106845D01*
X226961Y104802D01*
X225703Y103544D01*
X225697Y103537D01*
X225690Y103532D01*
X225569Y103381D01*
X225448Y103233D01*
X225443Y103225D01*
X225438Y103218D01*
X225349Y103048D01*
X225259Y102877D01*
X225256Y102868D01*
X225252Y102861D01*
X225199Y102676D01*
X225144Y102491D01*
X225143Y102482D01*
X225141Y102474D01*
X225125Y102283D01*
X225108Y102090D01*
X225109Y102081D01*
X225108Y102072D01*
X225130Y101883D01*
X225151Y101690D01*
X225154Y101681D01*
X225155Y101673D01*
X225214Y101491D01*
X225273Y101306D01*
X225277Y101298D01*
X225280Y101290D01*
X225374Y101123D01*
X225468Y100954D01*
X225473Y100947D01*
X225478Y100939D01*
X225603Y100794D01*
X225728Y100647D01*
X225735Y100641D01*
X225741Y100634D01*
X225891Y100518D01*
X226044Y100397D01*
X226052Y100393D01*
X226059Y100388D01*
X226230Y100303D01*
X226403Y100215D01*
X226412Y100212D01*
X226420Y100208D01*
X226605Y100159D01*
X226791Y100107D01*
X226800Y100106D01*
X226808Y100104D01*
X227139Y100077D01*
X271297Y100077D01*
X271328Y100080D01*
X271359Y100078D01*
X271528Y100100D01*
X271697Y100117D01*
X271727Y100126D01*
X271758Y100130D01*
X272074Y100231D01*
X273234Y100712D01*
X275406Y100712D01*
X277414Y99880D01*
X278950Y98344D01*
X279782Y96336D01*
X279782Y94164D01*
X278950Y92156D01*
X277414Y90620D01*
X275406Y89788D01*
X273234Y89788D01*
G37*
%LPD*%
%LPC*%
G36*
X343895Y32543D02*
X343895Y32543D01*
X341852Y33389D01*
X340289Y34952D01*
X339443Y36995D01*
X339443Y39205D01*
X340289Y41248D01*
X341852Y42811D01*
X343895Y43657D01*
X346105Y43657D01*
X347494Y43081D01*
X347524Y43072D01*
X347552Y43058D01*
X347717Y43014D01*
X347880Y42965D01*
X347911Y42962D01*
X347941Y42954D01*
X348272Y42927D01*
X441728Y42927D01*
X441759Y42930D01*
X441790Y42928D01*
X441960Y42950D01*
X442129Y42967D01*
X442159Y42976D01*
X442190Y42980D01*
X442506Y43081D01*
X443895Y43657D01*
X446105Y43657D01*
X448148Y42811D01*
X449711Y41248D01*
X450557Y39205D01*
X450557Y36995D01*
X449711Y34952D01*
X448148Y33389D01*
X446105Y32543D01*
X443895Y32543D01*
X442506Y33119D01*
X442476Y33128D01*
X442448Y33142D01*
X442283Y33186D01*
X442120Y33235D01*
X442089Y33238D01*
X442059Y33246D01*
X441728Y33273D01*
X348272Y33273D01*
X348241Y33270D01*
X348210Y33272D01*
X348040Y33250D01*
X347871Y33233D01*
X347841Y33224D01*
X347810Y33220D01*
X347494Y33119D01*
X346105Y32543D01*
X343895Y32543D01*
G37*
%LPD*%
%LPC*%
G36*
X373895Y47783D02*
X373895Y47783D01*
X371852Y48629D01*
X370289Y50192D01*
X369443Y52235D01*
X369443Y54445D01*
X370289Y56488D01*
X371852Y58051D01*
X373895Y58897D01*
X376105Y58897D01*
X377494Y58321D01*
X377524Y58312D01*
X377552Y58298D01*
X377717Y58254D01*
X377880Y58205D01*
X377911Y58202D01*
X377941Y58194D01*
X378272Y58167D01*
X471728Y58167D01*
X471759Y58170D01*
X471790Y58168D01*
X471960Y58190D01*
X472129Y58207D01*
X472159Y58216D01*
X472190Y58220D01*
X472506Y58321D01*
X473895Y58897D01*
X476105Y58897D01*
X478148Y58051D01*
X479711Y56488D01*
X480557Y54445D01*
X480557Y52235D01*
X479711Y50192D01*
X478148Y48629D01*
X476105Y47783D01*
X473895Y47783D01*
X472506Y48359D01*
X472492Y48363D01*
X472486Y48366D01*
X472472Y48369D01*
X472448Y48382D01*
X472283Y48426D01*
X472120Y48475D01*
X472089Y48478D01*
X472059Y48486D01*
X471728Y48513D01*
X378272Y48513D01*
X378241Y48510D01*
X378210Y48512D01*
X378040Y48490D01*
X377871Y48473D01*
X377841Y48464D01*
X377810Y48460D01*
X377494Y48359D01*
X376105Y47783D01*
X373895Y47783D01*
G37*
%LPD*%
%LPC*%
G36*
X322745Y419893D02*
X322745Y419893D01*
X320702Y420739D01*
X319139Y422302D01*
X318293Y424345D01*
X318293Y426555D01*
X319139Y428598D01*
X320702Y430161D01*
X321595Y430530D01*
X321595Y430531D01*
X322745Y431007D01*
X324955Y431007D01*
X326344Y430431D01*
X326374Y430422D01*
X326402Y430408D01*
X326567Y430364D01*
X326730Y430315D01*
X326761Y430312D01*
X326791Y430304D01*
X327122Y430277D01*
X396778Y430277D01*
X396809Y430280D01*
X396840Y430278D01*
X397010Y430300D01*
X397179Y430317D01*
X397209Y430326D01*
X397240Y430330D01*
X397556Y430431D01*
X398945Y431007D01*
X401155Y431007D01*
X403198Y430161D01*
X404761Y428598D01*
X405607Y426555D01*
X405607Y424345D01*
X404761Y422302D01*
X403198Y420739D01*
X401554Y420058D01*
X401553Y420058D01*
X401155Y419893D01*
X398945Y419893D01*
X397556Y420469D01*
X397526Y420478D01*
X397498Y420492D01*
X397333Y420536D01*
X397170Y420585D01*
X397139Y420588D01*
X397109Y420596D01*
X396778Y420623D01*
X327122Y420623D01*
X327091Y420620D01*
X327060Y420622D01*
X326890Y420600D01*
X326721Y420583D01*
X326691Y420574D01*
X326660Y420570D01*
X326344Y420469D01*
X324955Y419893D01*
X322745Y419893D01*
G37*
%LPD*%
%LPC*%
G36*
X94145Y324643D02*
X94145Y324643D01*
X92102Y325489D01*
X90539Y327052D01*
X89964Y328441D01*
X89949Y328469D01*
X89939Y328499D01*
X89854Y328646D01*
X89774Y328796D01*
X89754Y328820D01*
X89738Y328847D01*
X89524Y329100D01*
X68446Y350178D01*
X68425Y350195D01*
X68407Y350216D01*
X68270Y350323D01*
X68134Y350433D01*
X68110Y350446D01*
X68089Y350462D01*
X67932Y350540D01*
X67778Y350622D01*
X67753Y350630D01*
X67729Y350642D01*
X67559Y350687D01*
X67393Y350737D01*
X67366Y350739D01*
X67340Y350746D01*
X67009Y350773D01*
X58876Y350773D01*
X58850Y350771D01*
X58823Y350773D01*
X58649Y350751D01*
X58475Y350733D01*
X58450Y350726D01*
X58423Y350722D01*
X58258Y350667D01*
X58091Y350615D01*
X58067Y350602D01*
X58042Y350594D01*
X57890Y350507D01*
X57737Y350423D01*
X57716Y350406D01*
X57693Y350393D01*
X57440Y350178D01*
X55631Y348370D01*
X52497Y347071D01*
X49103Y347071D01*
X45969Y348370D01*
X43570Y350769D01*
X42271Y353903D01*
X42271Y357297D01*
X43570Y360431D01*
X45969Y362830D01*
X47584Y363499D01*
X49103Y364129D01*
X52497Y364129D01*
X55631Y362830D01*
X57440Y361022D01*
X57461Y361005D01*
X57478Y360984D01*
X57616Y360877D01*
X57751Y360767D01*
X57775Y360754D01*
X57796Y360738D01*
X57953Y360660D01*
X58107Y360578D01*
X58133Y360570D01*
X58157Y360558D01*
X58326Y360513D01*
X58493Y360463D01*
X58520Y360461D01*
X58545Y360454D01*
X58876Y360427D01*
X70810Y360427D01*
X72584Y359692D01*
X74228Y358048D01*
X96350Y335926D01*
X96374Y335907D01*
X96394Y335883D01*
X96529Y335779D01*
X96661Y335671D01*
X96689Y335657D01*
X96713Y335638D01*
X97009Y335486D01*
X98398Y334911D01*
X99961Y333348D01*
X100807Y331305D01*
X100807Y329095D01*
X99961Y327052D01*
X98398Y325489D01*
X96355Y324643D01*
X94145Y324643D01*
G37*
%LPD*%
%LPC*%
G36*
X233845Y252503D02*
X233845Y252503D01*
X231802Y253349D01*
X230239Y254912D01*
X229393Y256955D01*
X229393Y259165D01*
X229969Y260554D01*
X229978Y260584D01*
X229992Y260612D01*
X230036Y260777D01*
X230085Y260940D01*
X230088Y260971D01*
X230096Y261001D01*
X230123Y261332D01*
X230123Y305588D01*
X230120Y305619D01*
X230122Y305650D01*
X230100Y305820D01*
X230083Y305989D01*
X230074Y306019D01*
X230070Y306050D01*
X229969Y306366D01*
X229393Y307755D01*
X229393Y309965D01*
X230239Y312008D01*
X231802Y313571D01*
X233845Y314417D01*
X236055Y314417D01*
X238098Y313571D01*
X239661Y312008D01*
X240507Y309965D01*
X240507Y307755D01*
X239931Y306366D01*
X239922Y306336D01*
X239908Y306308D01*
X239864Y306143D01*
X239815Y305980D01*
X239812Y305949D01*
X239804Y305919D01*
X239777Y305588D01*
X239777Y261332D01*
X239780Y261301D01*
X239778Y261270D01*
X239800Y261100D01*
X239817Y260931D01*
X239826Y260901D01*
X239830Y260870D01*
X239931Y260554D01*
X240507Y259165D01*
X240507Y256955D01*
X239661Y254912D01*
X238098Y253349D01*
X236055Y252503D01*
X233845Y252503D01*
G37*
%LPD*%
%LPC*%
G36*
X143675Y40163D02*
X143675Y40163D01*
X142286Y40739D01*
X142256Y40748D01*
X142228Y40762D01*
X142063Y40806D01*
X141900Y40855D01*
X141869Y40858D01*
X141839Y40866D01*
X141508Y40893D01*
X104623Y40893D01*
X104592Y40890D01*
X104561Y40892D01*
X104392Y40870D01*
X104223Y40853D01*
X104193Y40844D01*
X104162Y40840D01*
X103846Y40739D01*
X102686Y40258D01*
X100514Y40258D01*
X98506Y41090D01*
X96970Y42626D01*
X96138Y44634D01*
X96138Y46806D01*
X96970Y48814D01*
X98506Y50350D01*
X100514Y51182D01*
X102686Y51182D01*
X103846Y50701D01*
X103876Y50692D01*
X103904Y50678D01*
X104068Y50634D01*
X104232Y50585D01*
X104263Y50582D01*
X104293Y50574D01*
X104623Y50547D01*
X141508Y50547D01*
X141539Y50550D01*
X141570Y50548D01*
X141740Y50570D01*
X141909Y50587D01*
X141939Y50596D01*
X141970Y50600D01*
X142286Y50701D01*
X143675Y51277D01*
X145885Y51277D01*
X147928Y50431D01*
X149491Y48868D01*
X150337Y46825D01*
X150337Y44615D01*
X149491Y42572D01*
X147928Y41009D01*
X146009Y40214D01*
X145885Y40163D01*
X143675Y40163D01*
G37*
%LPD*%
%LPC*%
G36*
X475145Y176053D02*
X475145Y176053D01*
X473102Y176899D01*
X471539Y178462D01*
X470693Y180505D01*
X470693Y182715D01*
X471539Y184758D01*
X473102Y186321D01*
X474212Y186780D01*
X474212Y186781D01*
X475145Y187167D01*
X477355Y187167D01*
X479398Y186321D01*
X480211Y185508D01*
X480231Y185491D01*
X480249Y185470D01*
X480387Y185363D01*
X480522Y185253D01*
X480546Y185240D01*
X480567Y185224D01*
X480724Y185146D01*
X480878Y185064D01*
X480903Y185056D01*
X480928Y185044D01*
X481097Y184999D01*
X481264Y184949D01*
X481290Y184947D01*
X481316Y184940D01*
X481647Y184913D01*
X521653Y184913D01*
X521679Y184915D01*
X521706Y184913D01*
X521880Y184935D01*
X522054Y184953D01*
X522079Y184960D01*
X522106Y184964D01*
X522271Y185019D01*
X522438Y185071D01*
X522462Y185084D01*
X522487Y185092D01*
X522639Y185179D01*
X522792Y185263D01*
X522813Y185280D01*
X522836Y185293D01*
X523089Y185508D01*
X523902Y186321D01*
X525012Y186780D01*
X525012Y186781D01*
X525945Y187167D01*
X528155Y187167D01*
X530198Y186321D01*
X531761Y184758D01*
X532607Y182715D01*
X532607Y180505D01*
X531761Y178462D01*
X530198Y176899D01*
X528771Y176308D01*
X528155Y176053D01*
X525945Y176053D01*
X523902Y176899D01*
X523089Y177712D01*
X523069Y177729D01*
X523051Y177750D01*
X522913Y177857D01*
X522778Y177967D01*
X522754Y177980D01*
X522733Y177996D01*
X522576Y178074D01*
X522422Y178156D01*
X522397Y178164D01*
X522372Y178176D01*
X522203Y178221D01*
X522036Y178271D01*
X522010Y178273D01*
X521984Y178280D01*
X521653Y178307D01*
X481647Y178307D01*
X481621Y178305D01*
X481594Y178307D01*
X481420Y178285D01*
X481246Y178267D01*
X481221Y178260D01*
X481194Y178256D01*
X481029Y178201D01*
X480862Y178149D01*
X480838Y178136D01*
X480813Y178128D01*
X480661Y178041D01*
X480508Y177957D01*
X480487Y177940D01*
X480464Y177927D01*
X480211Y177712D01*
X479398Y176899D01*
X477971Y176308D01*
X477355Y176053D01*
X475145Y176053D01*
G37*
%LPD*%
%LPC*%
G36*
X430103Y410571D02*
X430103Y410571D01*
X426969Y411870D01*
X424570Y414269D01*
X423271Y417403D01*
X423271Y420797D01*
X424570Y423931D01*
X426969Y426330D01*
X427301Y426468D01*
X430103Y427629D01*
X433497Y427629D01*
X436631Y426330D01*
X439030Y423931D01*
X440329Y420797D01*
X440329Y417403D01*
X439030Y414269D01*
X436631Y411870D01*
X433497Y410571D01*
X430103Y410571D01*
G37*
%LPD*%
%LPC*%
G36*
X430103Y461371D02*
X430103Y461371D01*
X426969Y462670D01*
X424570Y465069D01*
X423271Y468203D01*
X423271Y471597D01*
X424570Y474731D01*
X426969Y477130D01*
X430103Y478429D01*
X433497Y478429D01*
X436631Y477130D01*
X439030Y474731D01*
X440329Y471597D01*
X440329Y468203D01*
X439030Y465069D01*
X436631Y462670D01*
X433497Y461371D01*
X430103Y461371D01*
G37*
%LPD*%
%LPC*%
G36*
X49103Y448671D02*
X49103Y448671D01*
X45969Y449970D01*
X43570Y452369D01*
X42271Y455503D01*
X42271Y458897D01*
X43570Y462031D01*
X45969Y464430D01*
X49103Y465729D01*
X52497Y465729D01*
X55631Y464430D01*
X58030Y462031D01*
X59329Y458897D01*
X59329Y455503D01*
X58030Y452369D01*
X55631Y449970D01*
X52497Y448671D01*
X49103Y448671D01*
G37*
%LPD*%
%LPC*%
G36*
X23703Y448671D02*
X23703Y448671D01*
X20569Y449970D01*
X18170Y452369D01*
X16871Y455503D01*
X16871Y458897D01*
X18170Y462031D01*
X20569Y464430D01*
X23703Y465729D01*
X27097Y465729D01*
X30231Y464430D01*
X32630Y462031D01*
X33929Y458897D01*
X33929Y455503D01*
X32630Y452369D01*
X30231Y449970D01*
X27097Y448671D01*
X23703Y448671D01*
G37*
%LPD*%
%LPC*%
G36*
X49103Y372471D02*
X49103Y372471D01*
X45969Y373770D01*
X43570Y376169D01*
X42271Y379303D01*
X42271Y382697D01*
X43570Y385831D01*
X45969Y388230D01*
X49103Y389529D01*
X52497Y389529D01*
X55631Y388230D01*
X58030Y385831D01*
X59329Y382697D01*
X59329Y379303D01*
X58030Y376169D01*
X55631Y373770D01*
X52497Y372471D01*
X49103Y372471D01*
G37*
%LPD*%
%LPC*%
G36*
X23703Y169271D02*
X23703Y169271D01*
X20569Y170570D01*
X18170Y172969D01*
X16871Y176103D01*
X16871Y179497D01*
X18170Y182631D01*
X20569Y185030D01*
X23703Y186329D01*
X27097Y186329D01*
X30231Y185030D01*
X32630Y182631D01*
X33929Y179497D01*
X33929Y176103D01*
X32630Y172969D01*
X30231Y170570D01*
X27097Y169271D01*
X23703Y169271D01*
G37*
%LPD*%
%LPC*%
G36*
X49103Y397871D02*
X49103Y397871D01*
X45969Y399170D01*
X43570Y401569D01*
X42271Y404703D01*
X42271Y408097D01*
X43570Y411231D01*
X45969Y413630D01*
X49103Y414929D01*
X52497Y414929D01*
X55631Y413630D01*
X58030Y411231D01*
X59329Y408097D01*
X59329Y404703D01*
X58030Y401569D01*
X55631Y399170D01*
X52497Y397871D01*
X49103Y397871D01*
G37*
%LPD*%
%LPC*%
G36*
X23703Y397871D02*
X23703Y397871D01*
X20569Y399170D01*
X18170Y401569D01*
X16871Y404703D01*
X16871Y408097D01*
X18170Y411231D01*
X20569Y413630D01*
X23703Y414929D01*
X27097Y414929D01*
X30231Y413630D01*
X32630Y411231D01*
X33929Y408097D01*
X33929Y404703D01*
X32630Y401569D01*
X30231Y399170D01*
X27097Y397871D01*
X23703Y397871D01*
G37*
%LPD*%
%LPC*%
G36*
X23703Y372471D02*
X23703Y372471D01*
X20569Y373770D01*
X18170Y376169D01*
X16871Y379303D01*
X16871Y382697D01*
X18170Y385831D01*
X20569Y388230D01*
X23703Y389529D01*
X27097Y389529D01*
X30231Y388230D01*
X32630Y385831D01*
X33929Y382697D01*
X33929Y379303D01*
X32630Y376169D01*
X30231Y373770D01*
X27097Y372471D01*
X23703Y372471D01*
G37*
%LPD*%
%LPC*%
G36*
X23703Y194671D02*
X23703Y194671D01*
X20569Y195970D01*
X18170Y198369D01*
X16871Y201503D01*
X16871Y204897D01*
X18170Y208031D01*
X20569Y210430D01*
X23703Y211729D01*
X27097Y211729D01*
X30231Y210430D01*
X32630Y208031D01*
X33929Y204897D01*
X33929Y201503D01*
X32630Y198369D01*
X30231Y195970D01*
X27097Y194671D01*
X23703Y194671D01*
G37*
%LPD*%
%LPC*%
G36*
X49103Y296271D02*
X49103Y296271D01*
X45969Y297570D01*
X43570Y299969D01*
X42271Y303103D01*
X42271Y306497D01*
X43570Y309631D01*
X45969Y312030D01*
X49103Y313329D01*
X52497Y313329D01*
X55631Y312030D01*
X58030Y309631D01*
X59329Y306497D01*
X59329Y303103D01*
X58030Y299969D01*
X55631Y297570D01*
X52497Y296271D01*
X49103Y296271D01*
G37*
%LPD*%
%LPC*%
G36*
X23703Y296271D02*
X23703Y296271D01*
X20569Y297570D01*
X18170Y299969D01*
X16871Y303103D01*
X16871Y306497D01*
X18170Y309631D01*
X20569Y312030D01*
X23703Y313329D01*
X27097Y313329D01*
X30231Y312030D01*
X32630Y309631D01*
X33929Y306497D01*
X33929Y303103D01*
X32630Y299969D01*
X30231Y297570D01*
X27097Y296271D01*
X23703Y296271D01*
G37*
%LPD*%
%LPC*%
G36*
X430103Y283571D02*
X430103Y283571D01*
X426969Y284870D01*
X424570Y287269D01*
X423271Y290403D01*
X423271Y293797D01*
X424570Y296931D01*
X426969Y299330D01*
X430103Y300629D01*
X433497Y300629D01*
X436631Y299330D01*
X439030Y296931D01*
X440329Y293797D01*
X440329Y290403D01*
X439030Y287269D01*
X436631Y284870D01*
X433497Y283571D01*
X430103Y283571D01*
G37*
%LPD*%
%LPC*%
G36*
X49103Y270871D02*
X49103Y270871D01*
X45969Y272170D01*
X43570Y274569D01*
X42271Y277703D01*
X42271Y281097D01*
X43570Y284231D01*
X45969Y286630D01*
X49103Y287929D01*
X52497Y287929D01*
X55631Y286630D01*
X58030Y284231D01*
X59329Y281097D01*
X59329Y277703D01*
X58030Y274569D01*
X55631Y272170D01*
X52497Y270871D01*
X49103Y270871D01*
G37*
%LPD*%
%LPC*%
G36*
X23703Y270871D02*
X23703Y270871D01*
X20569Y272170D01*
X18170Y274569D01*
X16871Y277703D01*
X16871Y281097D01*
X18170Y284231D01*
X20569Y286630D01*
X23703Y287929D01*
X27097Y287929D01*
X30231Y286630D01*
X32630Y284231D01*
X33929Y281097D01*
X33929Y277703D01*
X32630Y274569D01*
X30231Y272170D01*
X27097Y270871D01*
X23703Y270871D01*
G37*
%LPD*%
%LPC*%
G36*
X430103Y258171D02*
X430103Y258171D01*
X426969Y259470D01*
X424570Y261869D01*
X423271Y265003D01*
X423271Y268397D01*
X424570Y271531D01*
X426969Y273930D01*
X430103Y275229D01*
X433497Y275229D01*
X436631Y273930D01*
X439030Y271531D01*
X440329Y268397D01*
X440329Y265003D01*
X439030Y261869D01*
X436631Y259470D01*
X433497Y258171D01*
X430103Y258171D01*
G37*
%LPD*%
%LPC*%
G36*
X49103Y220071D02*
X49103Y220071D01*
X45969Y221370D01*
X43570Y223769D01*
X42271Y226903D01*
X42271Y230297D01*
X43570Y233431D01*
X45969Y235830D01*
X49103Y237129D01*
X52497Y237129D01*
X55631Y235830D01*
X58030Y233431D01*
X59329Y230297D01*
X59329Y226903D01*
X58030Y223769D01*
X55631Y221370D01*
X52497Y220071D01*
X49103Y220071D01*
G37*
%LPD*%
%LPC*%
G36*
X23703Y220071D02*
X23703Y220071D01*
X20569Y221370D01*
X18170Y223769D01*
X16871Y226903D01*
X16871Y230297D01*
X18170Y233431D01*
X20569Y235830D01*
X23703Y237129D01*
X27097Y237129D01*
X30231Y235830D01*
X32630Y233431D01*
X33929Y230297D01*
X33929Y226903D01*
X32630Y223769D01*
X30231Y221370D01*
X27097Y220071D01*
X23703Y220071D01*
G37*
%LPD*%
%LPC*%
G36*
X430103Y207371D02*
X430103Y207371D01*
X426969Y208670D01*
X424570Y211069D01*
X423271Y214203D01*
X423271Y217597D01*
X424570Y220731D01*
X426969Y223130D01*
X427482Y223343D01*
X430103Y224429D01*
X433497Y224429D01*
X436631Y223130D01*
X439030Y220731D01*
X440329Y217597D01*
X440329Y214203D01*
X439030Y211069D01*
X436631Y208670D01*
X433497Y207371D01*
X430103Y207371D01*
G37*
%LPD*%
%LPC*%
G36*
X430103Y308971D02*
X430103Y308971D01*
X426969Y310270D01*
X424570Y312669D01*
X423271Y315803D01*
X423271Y319197D01*
X424570Y322331D01*
X426969Y324730D01*
X427392Y324905D01*
X427392Y324906D01*
X430103Y326029D01*
X433497Y326029D01*
X436631Y324730D01*
X439030Y322331D01*
X440329Y319197D01*
X440329Y315803D01*
X439030Y312669D01*
X436631Y310270D01*
X433497Y308971D01*
X430103Y308971D01*
G37*
%LPD*%
%LPC*%
G36*
X23703Y423271D02*
X23703Y423271D01*
X20569Y424570D01*
X18170Y426969D01*
X16871Y430103D01*
X16871Y433497D01*
X18170Y436631D01*
X20569Y439030D01*
X23703Y440329D01*
X27097Y440329D01*
X30231Y439030D01*
X32630Y436631D01*
X33929Y433497D01*
X33929Y430103D01*
X32630Y426969D01*
X30231Y424570D01*
X29147Y424121D01*
X27097Y423271D01*
X23703Y423271D01*
G37*
%LPD*%
%LPC*%
G36*
X49103Y245471D02*
X49103Y245471D01*
X45969Y246770D01*
X43570Y249169D01*
X42271Y252303D01*
X42271Y255697D01*
X43570Y258831D01*
X45969Y261230D01*
X47674Y261937D01*
X49103Y262529D01*
X52497Y262529D01*
X55631Y261230D01*
X58030Y258831D01*
X59329Y255697D01*
X59329Y252303D01*
X58030Y249169D01*
X55631Y246770D01*
X52497Y245471D01*
X49103Y245471D01*
G37*
%LPD*%
%LPC*%
G36*
X23703Y245471D02*
X23703Y245471D01*
X20569Y246770D01*
X18170Y249169D01*
X16871Y252303D01*
X16871Y255697D01*
X18170Y258831D01*
X20569Y261230D01*
X22274Y261937D01*
X23703Y262529D01*
X27097Y262529D01*
X30231Y261230D01*
X32630Y258831D01*
X33929Y255697D01*
X33929Y252303D01*
X32630Y249169D01*
X30231Y246770D01*
X27097Y245471D01*
X23703Y245471D01*
G37*
%LPD*%
%LPC*%
G36*
X23703Y347071D02*
X23703Y347071D01*
X20569Y348370D01*
X18170Y350769D01*
X16871Y353903D01*
X16871Y357297D01*
X18170Y360431D01*
X20569Y362830D01*
X22184Y363499D01*
X23703Y364129D01*
X27097Y364129D01*
X30231Y362830D01*
X32630Y360431D01*
X33929Y357297D01*
X33929Y353903D01*
X32630Y350769D01*
X30231Y348370D01*
X27097Y347071D01*
X23703Y347071D01*
G37*
%LPD*%
%LPC*%
G36*
X430103Y232771D02*
X430103Y232771D01*
X426969Y234070D01*
X424570Y236469D01*
X423271Y239603D01*
X423271Y242997D01*
X424570Y246131D01*
X426969Y248530D01*
X430103Y249829D01*
X433497Y249829D01*
X436631Y248530D01*
X439030Y246131D01*
X440329Y242997D01*
X440329Y239603D01*
X439030Y236469D01*
X436631Y234070D01*
X434491Y233183D01*
X433497Y232771D01*
X430103Y232771D01*
G37*
%LPD*%
%LPC*%
G36*
X49103Y321671D02*
X49103Y321671D01*
X45969Y322970D01*
X43570Y325369D01*
X42271Y328503D01*
X42271Y331897D01*
X43570Y335031D01*
X45969Y337430D01*
X49103Y338729D01*
X52497Y338729D01*
X55631Y337430D01*
X58030Y335031D01*
X59329Y331897D01*
X59329Y328503D01*
X58030Y325369D01*
X55631Y322970D01*
X54638Y322558D01*
X52497Y321671D01*
X49103Y321671D01*
G37*
%LPD*%
%LPC*%
G36*
X23703Y321671D02*
X23703Y321671D01*
X20569Y322970D01*
X18170Y325369D01*
X16871Y328503D01*
X16871Y331897D01*
X18170Y335031D01*
X20569Y337430D01*
X23703Y338729D01*
X27097Y338729D01*
X30231Y337430D01*
X32630Y335031D01*
X33929Y331897D01*
X33929Y328503D01*
X32630Y325369D01*
X30231Y322970D01*
X29238Y322558D01*
X27097Y321671D01*
X23703Y321671D01*
G37*
%LPD*%
%LPC*%
G36*
X430103Y435971D02*
X430103Y435971D01*
X426969Y437270D01*
X424570Y439669D01*
X423271Y442803D01*
X423271Y446197D01*
X424570Y449331D01*
X426969Y451730D01*
X429730Y452874D01*
X429731Y452874D01*
X430103Y453029D01*
X433497Y453029D01*
X436631Y451730D01*
X439030Y449331D01*
X440329Y446197D01*
X440329Y442803D01*
X439030Y439669D01*
X436631Y437270D01*
X433497Y435971D01*
X430103Y435971D01*
G37*
%LPD*%
%LPC*%
G36*
X434049Y370549D02*
X434049Y370549D01*
X434049Y377338D01*
X435367Y376910D01*
X436669Y376246D01*
X437853Y375387D01*
X438887Y374353D01*
X439746Y373169D01*
X440410Y371867D01*
X440838Y370549D01*
X434049Y370549D01*
G37*
%LPD*%
%LPC*%
G36*
X53049Y434049D02*
X53049Y434049D01*
X53049Y440838D01*
X54367Y440410D01*
X55669Y439746D01*
X56853Y438887D01*
X57887Y437853D01*
X58746Y436669D01*
X59410Y435367D01*
X59838Y434049D01*
X53049Y434049D01*
G37*
%LPD*%
%LPC*%
G36*
X41762Y434049D02*
X41762Y434049D01*
X42190Y435367D01*
X42854Y436669D01*
X43713Y437853D01*
X44747Y438887D01*
X45931Y439746D01*
X47233Y440410D01*
X48551Y440838D01*
X48551Y434049D01*
X41762Y434049D01*
G37*
%LPD*%
%LPC*%
G36*
X422762Y370549D02*
X422762Y370549D01*
X423190Y371867D01*
X423854Y373169D01*
X424713Y374353D01*
X425747Y375387D01*
X426931Y376246D01*
X428233Y376910D01*
X429551Y377338D01*
X429551Y370549D01*
X422762Y370549D01*
G37*
%LPD*%
%LPC*%
G36*
X53049Y429551D02*
X53049Y429551D01*
X59838Y429551D01*
X59410Y428233D01*
X58746Y426931D01*
X57887Y425747D01*
X56853Y424713D01*
X55669Y423854D01*
X54367Y423190D01*
X53049Y422762D01*
X53049Y429551D01*
G37*
%LPD*%
%LPC*%
G36*
X47233Y423190D02*
X47233Y423190D01*
X45931Y423854D01*
X44747Y424713D01*
X43713Y425747D01*
X42854Y426931D01*
X42190Y428233D01*
X41762Y429551D01*
X48551Y429551D01*
X48551Y422762D01*
X47233Y423190D01*
G37*
%LPD*%
D10*
X25400Y457200D03*
X50800Y457200D03*
X25400Y431800D03*
X50800Y431800D03*
X25400Y406400D03*
X50800Y406400D03*
X25400Y381000D03*
X50800Y381000D03*
X25400Y355600D03*
X50800Y355600D03*
X25400Y330200D03*
X50800Y330200D03*
X25400Y304800D03*
X50800Y304800D03*
X25400Y279400D03*
X50800Y279400D03*
X25400Y254000D03*
X50800Y254000D03*
X25400Y228600D03*
X50800Y228600D03*
X25400Y203200D03*
X50800Y203200D03*
X25400Y177800D03*
X50800Y177800D03*
X431800Y495300D03*
X431800Y469900D03*
X431800Y444500D03*
X431800Y419100D03*
X431800Y393700D03*
X431800Y368300D03*
X431800Y342900D03*
X431800Y317500D03*
X431800Y292100D03*
X431800Y266700D03*
X431800Y241300D03*
X431800Y215900D03*
D11*
X298450Y400050D03*
D12*
X387350Y400050D01*
X400050Y387350D01*
X400050Y369570D01*
X414020Y355600D01*
X444500Y355600D01*
D11*
X444500Y355600D03*
X133350Y463550D03*
X133350Y412750D03*
X133350Y361950D03*
X133350Y311150D03*
X133350Y260350D03*
X95250Y419100D03*
X304800Y438150D03*
X342900Y387350D03*
X514350Y226060D03*
X317500Y355600D03*
X50800Y139700D03*
X360000Y87750D03*
X674370Y152400D03*
D12*
X412750Y152400D01*
D11*
X412750Y152400D03*
D12*
X361950Y165100D02*
X574040Y165100D01*
D11*
X361950Y165100D03*
X574040Y165100D03*
X114300Y234950D03*
D12*
X203200Y234950D01*
D11*
X203200Y234950D03*
X285750Y234950D03*
D12*
X203200Y234950D01*
X101600Y222250D02*
X57150Y177800D01*
X50800Y177800D01*
D11*
X101600Y222250D03*
D12*
X190500Y222250D01*
D11*
X190500Y222250D03*
D12*
X279400Y222250D01*
D11*
X279400Y222250D03*
X95250Y330200D03*
D12*
X69850Y355600D01*
X50800Y355600D01*
X95250Y476250D02*
X387350Y476250D01*
D11*
X387350Y476250D03*
X95250Y476250D03*
X375000Y53340D03*
D12*
X475000Y53340D01*
D11*
X475000Y53340D03*
X234950Y461260D03*
X234950Y410460D03*
D12*
X234950Y461260D01*
X207260Y359660D02*
X50800Y203200D01*
D11*
X234950Y359660D03*
D12*
X234950Y410460D01*
X234950Y359660D02*
X207260Y359660D01*
X431800Y393700D02*
X496570Y393700D01*
X508000Y382270D02*
X508000Y312420D01*
D11*
X508000Y312420D03*
D12*
X508000Y382270D02*
X496570Y393700D01*
D11*
X234950Y308860D03*
D12*
X234950Y258060D01*
D11*
X234950Y258060D03*
X345000Y38100D03*
D12*
X445000Y38100D01*
D11*
X445000Y38100D03*
X323850Y425450D03*
D12*
X400050Y425450D01*
D11*
X400050Y425450D03*
X546100Y99060D03*
D12*
X535940Y88900D01*
X421640Y88900D01*
D11*
X421640Y88900D03*
D12*
X368300Y139700D02*
X645160Y139700D01*
D11*
X645160Y139700D03*
D12*
X349250Y158750D02*
X349250Y374650D01*
D11*
X349250Y374650D03*
D12*
X349250Y158750D02*
X368300Y139700D01*
D11*
X241300Y127000D03*
D12*
X304800Y127000D01*
D11*
X304800Y127000D03*
X349250Y127000D03*
D12*
X488950Y127000D01*
D11*
X488950Y127000D03*
X299720Y114300D03*
X476250Y114300D03*
X527050Y181610D03*
D13*
X476250Y181610D01*
D11*
X476250Y181610D03*
D12*
X476250Y114300D02*
X299720Y114300D01*
D11*
X294640Y101600D03*
X501650Y101600D03*
D12*
X294640Y101600D01*
D11*
X190500Y114300D03*
D12*
X209550Y95250D01*
X274320Y95250D01*
D14*
X274320Y95250D03*
D11*
X222250Y107950D03*
D12*
X203200Y127000D01*
D11*
X203200Y127000D03*
X317500Y323850D03*
D12*
X317500Y234950D01*
X292100Y209550D01*
X171450Y209550D01*
X152400Y190500D01*
X152400Y120650D01*
D11*
X152400Y120650D03*
D12*
X86360Y120650D01*
D14*
X86360Y120650D03*
X101600Y45720D03*
D12*
X144780Y45720D01*
D11*
X144780Y45720D03*
M02*
