G04 EAGLE Gerber RS-274X export*
G75*
%MOMM*%
%FSLAX34Y34*%
%LPD*%
%INTop Copper*%
%IPPOS*%
%AMOC8*
5,1,8,0,0,1.08239X$1,22.5*%
G01*
%ADD10R,1.000000X1.100000*%
%ADD11C,1.879600*%
%ADD12R,0.350000X0.500000*%
%ADD13R,1.100000X1.000000*%
%ADD14R,0.300000X0.450000*%
%ADD15R,1.700000X1.000000*%
%ADD16R,0.250000X0.600000*%
%ADD17C,0.855600*%
%ADD18C,2.540000*%
%ADD19C,0.203200*%
%ADD20C,0.609600*%
%ADD21C,0.254000*%
%ADD22C,0.736600*%
%ADD23C,0.955600*%
%ADD24C,0.406400*%
%ADD25C,0.304800*%

G36*
X-12674Y201680D02*
X-12674Y201680D01*
X-12648Y201678D01*
X-12501Y201700D01*
X-12354Y201717D01*
X-12329Y201725D01*
X-12303Y201729D01*
X-12165Y201784D01*
X-12026Y201834D01*
X-12004Y201848D01*
X-11979Y201858D01*
X-11858Y201943D01*
X-11733Y202023D01*
X-11715Y202042D01*
X-11693Y202057D01*
X-11594Y202167D01*
X-11491Y202274D01*
X-11477Y202296D01*
X-11460Y202316D01*
X-11388Y202446D01*
X-11312Y202573D01*
X-11304Y202598D01*
X-11291Y202621D01*
X-11251Y202764D01*
X-11206Y202905D01*
X-11204Y202931D01*
X-11196Y202956D01*
X-11177Y203200D01*
X-11177Y229560D01*
X-10442Y231334D01*
X-5273Y236503D01*
X-5194Y236602D01*
X-5110Y236696D01*
X-5086Y236738D01*
X-5056Y236776D01*
X-5002Y236890D01*
X-4941Y237001D01*
X-4928Y237048D01*
X-4907Y237091D01*
X-4881Y237215D01*
X-4846Y237336D01*
X-4841Y237397D01*
X-4834Y237432D01*
X-4835Y237480D01*
X-4827Y237580D01*
X-4827Y246840D01*
X-4838Y246940D01*
X-4840Y247041D01*
X-4858Y247113D01*
X-4867Y247187D01*
X-4900Y247281D01*
X-4925Y247378D01*
X-4959Y247445D01*
X-4984Y247515D01*
X-5039Y247599D01*
X-5085Y247688D01*
X-5133Y247745D01*
X-5173Y247807D01*
X-5245Y247877D01*
X-5310Y247954D01*
X-5370Y247998D01*
X-5424Y248050D01*
X-5510Y248101D01*
X-5591Y248161D01*
X-5659Y248190D01*
X-5723Y248228D01*
X-5819Y248259D01*
X-5911Y248299D01*
X-5984Y248312D01*
X-6055Y248335D01*
X-6155Y248343D01*
X-6254Y248361D01*
X-6328Y248357D01*
X-6402Y248363D01*
X-6502Y248348D01*
X-6602Y248343D01*
X-6673Y248322D01*
X-6747Y248311D01*
X-6840Y248274D01*
X-6937Y248246D01*
X-7002Y248210D01*
X-7071Y248182D01*
X-7153Y248125D01*
X-7241Y248076D01*
X-7317Y248011D01*
X-7357Y247983D01*
X-7381Y247957D01*
X-7427Y247917D01*
X-8233Y247111D01*
X-19707Y247111D01*
X-20749Y248153D01*
X-20749Y260627D01*
X-20025Y261351D01*
X-19993Y261391D01*
X-19955Y261425D01*
X-19885Y261527D01*
X-19808Y261624D01*
X-19786Y261670D01*
X-19757Y261712D01*
X-19712Y261827D01*
X-19659Y261939D01*
X-19648Y261989D01*
X-19630Y262036D01*
X-19612Y262159D01*
X-19586Y262280D01*
X-19587Y262331D01*
X-19579Y262381D01*
X-19589Y262505D01*
X-19592Y262628D01*
X-19604Y262678D01*
X-19608Y262729D01*
X-19646Y262846D01*
X-19677Y262966D01*
X-19700Y263012D01*
X-19716Y263060D01*
X-19780Y263166D01*
X-19836Y263276D01*
X-19869Y263315D01*
X-19896Y263359D01*
X-19982Y263447D01*
X-20062Y263541D01*
X-20103Y263572D01*
X-20139Y263608D01*
X-20340Y263747D01*
X-20530Y263857D01*
X-21003Y264330D01*
X-21338Y264909D01*
X-21511Y265555D01*
X-21511Y268891D01*
X-14946Y268891D01*
X-14920Y268894D01*
X-14894Y268892D01*
X-14747Y268914D01*
X-14600Y268931D01*
X-14575Y268939D01*
X-14549Y268943D01*
X-14412Y268998D01*
X-14272Y269048D01*
X-14250Y269062D01*
X-14225Y269072D01*
X-14104Y269157D01*
X-13979Y269237D01*
X-13961Y269256D01*
X-13939Y269271D01*
X-13840Y269381D01*
X-13737Y269488D01*
X-13723Y269510D01*
X-13706Y269530D01*
X-13634Y269660D01*
X-13558Y269787D01*
X-13550Y269812D01*
X-13537Y269835D01*
X-13497Y269978D01*
X-13452Y270119D01*
X-13450Y270145D01*
X-13443Y270170D01*
X-13423Y270414D01*
X-13423Y270843D01*
X-12994Y270843D01*
X-12968Y270846D01*
X-12942Y270844D01*
X-12795Y270866D01*
X-12648Y270883D01*
X-12623Y270892D01*
X-12597Y270896D01*
X-12459Y270950D01*
X-12320Y271000D01*
X-12298Y271015D01*
X-12273Y271024D01*
X-12152Y271109D01*
X-12027Y271189D01*
X-12009Y271208D01*
X-11987Y271223D01*
X-11888Y271333D01*
X-11785Y271440D01*
X-11771Y271463D01*
X-11754Y271482D01*
X-11682Y271612D01*
X-11606Y271739D01*
X-11598Y271764D01*
X-11585Y271787D01*
X-11545Y271930D01*
X-11500Y272071D01*
X-11497Y272097D01*
X-11490Y272122D01*
X-11471Y272366D01*
X-11471Y279431D01*
X-8635Y279431D01*
X-7989Y279258D01*
X-7410Y278923D01*
X-6937Y278450D01*
X-6653Y277959D01*
X-6579Y277858D01*
X-6511Y277753D01*
X-6475Y277719D01*
X-6446Y277679D01*
X-6350Y277598D01*
X-6260Y277511D01*
X-6218Y277485D01*
X-6180Y277453D01*
X-6068Y277396D01*
X-5961Y277332D01*
X-5914Y277317D01*
X-5870Y277294D01*
X-5748Y277264D01*
X-5629Y277226D01*
X-5580Y277222D01*
X-5531Y277210D01*
X-5406Y277208D01*
X-5282Y277198D01*
X-5233Y277205D01*
X-5183Y277204D01*
X-5061Y277231D01*
X-4937Y277250D01*
X-4891Y277268D01*
X-4842Y277278D01*
X-4729Y277332D01*
X-4613Y277378D01*
X-4573Y277407D01*
X-4528Y277428D01*
X-4430Y277506D01*
X-4327Y277577D01*
X-4294Y277614D01*
X-4255Y277645D01*
X-4177Y277743D01*
X-4094Y277836D01*
X-4070Y277879D01*
X-4039Y277918D01*
X-3986Y278031D01*
X-3925Y278141D01*
X-3912Y278189D01*
X-3890Y278234D01*
X-3864Y278356D01*
X-3830Y278476D01*
X-3825Y278539D01*
X-3818Y278575D01*
X-3819Y278622D01*
X-3811Y278720D01*
X-3811Y279731D01*
X-3825Y279856D01*
X-3832Y279982D01*
X-3845Y280029D01*
X-3851Y280077D01*
X-3893Y280196D01*
X-3928Y280317D01*
X-3952Y280359D01*
X-3968Y280405D01*
X-4037Y280511D01*
X-4098Y280621D01*
X-4138Y280668D01*
X-4157Y280698D01*
X-4192Y280731D01*
X-4257Y280808D01*
X-13561Y290112D01*
X-13561Y305049D01*
X-13538Y305090D01*
X-13508Y305127D01*
X-13454Y305242D01*
X-13393Y305352D01*
X-13380Y305399D01*
X-13359Y305442D01*
X-13333Y305566D01*
X-13298Y305688D01*
X-13293Y305748D01*
X-13286Y305783D01*
X-13287Y305831D01*
X-13279Y305931D01*
X-13279Y306677D01*
X-12237Y307719D01*
X-7409Y307719D01*
X-7308Y307730D01*
X-7206Y307732D01*
X-7135Y307750D01*
X-7063Y307759D01*
X-6967Y307793D01*
X-6868Y307818D01*
X-6779Y307860D01*
X-6734Y307876D01*
X-6704Y307896D01*
X-6647Y307923D01*
X-5981Y308308D01*
X-5335Y308481D01*
X-4773Y308481D01*
X-4773Y303440D01*
X-4773Y298355D01*
X-4787Y298351D01*
X-4813Y298347D01*
X-4951Y298292D01*
X-5090Y298242D01*
X-5112Y298228D01*
X-5137Y298218D01*
X-5258Y298133D01*
X-5383Y298053D01*
X-5401Y298034D01*
X-5423Y298019D01*
X-5522Y297909D01*
X-5625Y297802D01*
X-5639Y297780D01*
X-5656Y297760D01*
X-5728Y297630D01*
X-5804Y297503D01*
X-5812Y297478D01*
X-5825Y297455D01*
X-5865Y297312D01*
X-5910Y297171D01*
X-5912Y297145D01*
X-5920Y297120D01*
X-5939Y296876D01*
X-5939Y293899D01*
X-5925Y293774D01*
X-5918Y293648D01*
X-5905Y293601D01*
X-5899Y293553D01*
X-5857Y293434D01*
X-5822Y293313D01*
X-5798Y293271D01*
X-5782Y293225D01*
X-5713Y293119D01*
X-5652Y293009D01*
X-5612Y292962D01*
X-5593Y292932D01*
X-5558Y292899D01*
X-5493Y292822D01*
X-3161Y290490D01*
X-3083Y290428D01*
X-3010Y290358D01*
X-2946Y290320D01*
X-2888Y290274D01*
X-2797Y290231D01*
X-2711Y290179D01*
X-2640Y290157D01*
X-2573Y290125D01*
X-2475Y290104D01*
X-2379Y290073D01*
X-2305Y290067D01*
X-2232Y290051D01*
X-2132Y290053D01*
X-2032Y290045D01*
X-1958Y290056D01*
X-1884Y290057D01*
X-1787Y290082D01*
X-1687Y290097D01*
X-1618Y290124D01*
X-1546Y290142D01*
X-1457Y290188D01*
X-1363Y290225D01*
X-1302Y290268D01*
X-1236Y290302D01*
X-1160Y290367D01*
X-1077Y290424D01*
X-1027Y290480D01*
X-971Y290528D01*
X-911Y290609D01*
X-844Y290683D01*
X-808Y290748D01*
X-763Y290808D01*
X-724Y290900D01*
X-675Y290988D01*
X-655Y291060D01*
X-625Y291128D01*
X-608Y291227D01*
X-580Y291324D01*
X-572Y291424D01*
X-564Y291471D01*
X-566Y291507D01*
X-561Y291567D01*
X-561Y296876D01*
X-564Y296902D01*
X-562Y296928D01*
X-584Y297075D01*
X-601Y297222D01*
X-609Y297247D01*
X-613Y297273D01*
X-668Y297411D01*
X-718Y297550D01*
X-732Y297572D01*
X-742Y297597D01*
X-827Y297718D01*
X-907Y297843D01*
X-926Y297861D01*
X-941Y297883D01*
X-1051Y297982D01*
X-1158Y298085D01*
X-1180Y298099D01*
X-1200Y298116D01*
X-1330Y298188D01*
X-1457Y298264D01*
X-1482Y298272D01*
X-1505Y298285D01*
X-1648Y298325D01*
X-1727Y298350D01*
X-1727Y303440D01*
X-1727Y308493D01*
X-1669Y308494D01*
X-1597Y308512D01*
X-1523Y308521D01*
X-1428Y308554D01*
X-1331Y308579D01*
X-1265Y308613D01*
X-1195Y308638D01*
X-1110Y308693D01*
X-1021Y308739D01*
X-964Y308787D01*
X-902Y308827D01*
X-832Y308899D01*
X-756Y308964D01*
X-711Y309024D01*
X-660Y309078D01*
X-608Y309164D01*
X-548Y309245D01*
X-519Y309313D01*
X-481Y309377D01*
X-450Y309473D01*
X-410Y309565D01*
X-397Y309638D01*
X-375Y309709D01*
X-366Y309809D01*
X-349Y309908D01*
X-353Y309982D01*
X-347Y310056D01*
X-361Y310156D01*
X-367Y310256D01*
X-387Y310327D01*
X-398Y310401D01*
X-435Y310494D01*
X-463Y310591D01*
X-500Y310656D01*
X-527Y310725D01*
X-584Y310807D01*
X-633Y310895D01*
X-698Y310971D01*
X-726Y311011D01*
X-752Y311035D01*
X-792Y311081D01*
X-6553Y316842D01*
X-6553Y317376D01*
X-6556Y317402D01*
X-6554Y317428D01*
X-6576Y317575D01*
X-6593Y317722D01*
X-6601Y317747D01*
X-6605Y317773D01*
X-6660Y317911D01*
X-6710Y318050D01*
X-6724Y318072D01*
X-6734Y318097D01*
X-6819Y318218D01*
X-6899Y318343D01*
X-6918Y318361D01*
X-6933Y318383D01*
X-7043Y318482D01*
X-7150Y318585D01*
X-7172Y318599D01*
X-7192Y318616D01*
X-7322Y318688D01*
X-7449Y318764D01*
X-7474Y318772D01*
X-7497Y318785D01*
X-7640Y318825D01*
X-7781Y318870D01*
X-7807Y318872D01*
X-7832Y318880D01*
X-8076Y318899D01*
X-8227Y318899D01*
X-8227Y323940D01*
X-8227Y328981D01*
X-7665Y328981D01*
X-7019Y328808D01*
X-6353Y328423D01*
X-6260Y328382D01*
X-6170Y328333D01*
X-6100Y328313D01*
X-6033Y328284D01*
X-5933Y328266D01*
X-5835Y328238D01*
X-5737Y328230D01*
X-5690Y328222D01*
X-5654Y328224D01*
X-5591Y328219D01*
X-1322Y328219D01*
X-1296Y328222D01*
X-1270Y328220D01*
X-1123Y328242D01*
X-976Y328259D01*
X-951Y328267D01*
X-925Y328271D01*
X-787Y328326D01*
X-648Y328376D01*
X-626Y328390D01*
X-601Y328400D01*
X-480Y328485D01*
X-355Y328565D01*
X-337Y328584D01*
X-315Y328599D01*
X-216Y328709D01*
X-113Y328816D01*
X-99Y328838D01*
X-82Y328858D01*
X-10Y328988D01*
X66Y329115D01*
X74Y329140D01*
X87Y329163D01*
X127Y329306D01*
X172Y329447D01*
X175Y329473D01*
X182Y329498D01*
X201Y329742D01*
X201Y330136D01*
X187Y330262D01*
X180Y330388D01*
X167Y330434D01*
X161Y330482D01*
X119Y330601D01*
X84Y330723D01*
X60Y330765D01*
X44Y330811D01*
X-25Y330917D01*
X-86Y331027D01*
X-126Y331073D01*
X-145Y331103D01*
X-180Y331137D01*
X-245Y331213D01*
X-817Y331785D01*
X-916Y331864D01*
X-1010Y331948D01*
X-1052Y331972D01*
X-1090Y332002D01*
X-1204Y332056D01*
X-1315Y332117D01*
X-1361Y332130D01*
X-1405Y332151D01*
X-1528Y332177D01*
X-1650Y332212D01*
X-1711Y332217D01*
X-1746Y332224D01*
X-1794Y332223D01*
X-1894Y332231D01*
X-24332Y332231D01*
X-24458Y332217D01*
X-24584Y332210D01*
X-24630Y332197D01*
X-24678Y332191D01*
X-24797Y332149D01*
X-24919Y332114D01*
X-24961Y332090D01*
X-25007Y332074D01*
X-25113Y332005D01*
X-25223Y331944D01*
X-25269Y331904D01*
X-25299Y331885D01*
X-25333Y331850D01*
X-25409Y331785D01*
X-27049Y330145D01*
X-29275Y329223D01*
X-31685Y329223D01*
X-33911Y330145D01*
X-35615Y331849D01*
X-36537Y334075D01*
X-36537Y336485D01*
X-35615Y338711D01*
X-33911Y340415D01*
X-31685Y341337D01*
X-29275Y341337D01*
X-27049Y340415D01*
X-25409Y338775D01*
X-25310Y338696D01*
X-25216Y338612D01*
X-25174Y338588D01*
X-25136Y338558D01*
X-25022Y338504D01*
X-24911Y338443D01*
X-24865Y338430D01*
X-24821Y338409D01*
X-24698Y338383D01*
X-24576Y338348D01*
X-24515Y338343D01*
X-24481Y338336D01*
X-24433Y338337D01*
X-24332Y338329D01*
X-12072Y338329D01*
X-12046Y338332D01*
X-12020Y338330D01*
X-11873Y338352D01*
X-11726Y338369D01*
X-11701Y338377D01*
X-11675Y338381D01*
X-11537Y338436D01*
X-11398Y338486D01*
X-11376Y338500D01*
X-11351Y338510D01*
X-11230Y338595D01*
X-11105Y338675D01*
X-11087Y338694D01*
X-11065Y338709D01*
X-10966Y338819D01*
X-10863Y338926D01*
X-10849Y338948D01*
X-10832Y338968D01*
X-10760Y339098D01*
X-10684Y339225D01*
X-10676Y339250D01*
X-10663Y339273D01*
X-10623Y339416D01*
X-10578Y339557D01*
X-10576Y339583D01*
X-10568Y339608D01*
X-10549Y339852D01*
X-10549Y348309D01*
X-10548Y348310D01*
X-10543Y348371D01*
X-10536Y348406D01*
X-10537Y348454D01*
X-10529Y348554D01*
X-10529Y350684D01*
X-10515Y350750D01*
X-10479Y350916D01*
X-10479Y350918D01*
X-10478Y350919D01*
X-10482Y351097D01*
X-10485Y351265D01*
X-10485Y351266D01*
X-10485Y351268D01*
X-10529Y351442D01*
X-10570Y351603D01*
X-10570Y351604D01*
X-10571Y351606D01*
X-10676Y351827D01*
X-10868Y352159D01*
X-11041Y352805D01*
X-11041Y355641D01*
X-976Y355641D01*
X-950Y355644D01*
X-924Y355642D01*
X-777Y355664D01*
X-630Y355681D01*
X-605Y355689D01*
X-579Y355693D01*
X-442Y355748D01*
X-302Y355798D01*
X-280Y355812D01*
X-255Y355822D01*
X-134Y355907D01*
X-9Y355987D01*
X3Y356000D01*
X50Y355955D01*
X73Y355941D01*
X92Y355924D01*
X222Y355852D01*
X349Y355776D01*
X374Y355768D01*
X397Y355755D01*
X540Y355715D01*
X681Y355670D01*
X707Y355667D01*
X732Y355660D01*
X976Y355641D01*
X11041Y355641D01*
X11041Y352805D01*
X10868Y352159D01*
X10676Y351827D01*
X10675Y351825D01*
X10674Y351824D01*
X10605Y351664D01*
X10537Y351507D01*
X10537Y351505D01*
X10536Y351504D01*
X10506Y351335D01*
X10475Y351164D01*
X10475Y351162D01*
X10474Y351161D01*
X10483Y350994D01*
X10492Y350816D01*
X10492Y350814D01*
X10492Y350813D01*
X10529Y350687D01*
X10529Y348554D01*
X10543Y348428D01*
X10549Y348323D01*
X10549Y339852D01*
X10552Y339826D01*
X10550Y339800D01*
X10572Y339653D01*
X10589Y339506D01*
X10597Y339481D01*
X10601Y339455D01*
X10656Y339317D01*
X10706Y339178D01*
X10720Y339156D01*
X10730Y339131D01*
X10815Y339010D01*
X10895Y338885D01*
X10914Y338867D01*
X10929Y338845D01*
X11039Y338746D01*
X11146Y338643D01*
X11168Y338629D01*
X11188Y338612D01*
X11318Y338540D01*
X11445Y338464D01*
X11470Y338456D01*
X11493Y338443D01*
X11636Y338403D01*
X11777Y338358D01*
X11803Y338356D01*
X11828Y338348D01*
X12072Y338329D01*
X24332Y338329D01*
X24458Y338343D01*
X24584Y338350D01*
X24630Y338363D01*
X24678Y338369D01*
X24797Y338411D01*
X24919Y338446D01*
X24961Y338470D01*
X25007Y338486D01*
X25113Y338555D01*
X25223Y338616D01*
X25269Y338656D01*
X25299Y338675D01*
X25333Y338710D01*
X25409Y338775D01*
X27049Y340415D01*
X29275Y341337D01*
X31685Y341337D01*
X33911Y340415D01*
X35615Y338711D01*
X36537Y336485D01*
X36537Y334075D01*
X35594Y331799D01*
X35590Y331794D01*
X35566Y331752D01*
X35536Y331715D01*
X35482Y331600D01*
X35421Y331489D01*
X35408Y331443D01*
X35387Y331400D01*
X35361Y331276D01*
X35326Y331154D01*
X35321Y331094D01*
X35314Y331059D01*
X35315Y331011D01*
X35307Y330910D01*
X35307Y245420D01*
X34572Y243646D01*
X11623Y220697D01*
X11544Y220598D01*
X11460Y220504D01*
X11436Y220462D01*
X11406Y220424D01*
X11352Y220310D01*
X11291Y220199D01*
X11278Y220152D01*
X11257Y220109D01*
X11231Y219985D01*
X11196Y219864D01*
X11191Y219803D01*
X11184Y219768D01*
X11185Y219720D01*
X11177Y219620D01*
X11177Y203200D01*
X11180Y203174D01*
X11178Y203148D01*
X11200Y203001D01*
X11217Y202854D01*
X11225Y202829D01*
X11229Y202803D01*
X11284Y202665D01*
X11334Y202526D01*
X11348Y202504D01*
X11358Y202479D01*
X11443Y202358D01*
X11523Y202233D01*
X11542Y202215D01*
X11557Y202193D01*
X11667Y202094D01*
X11774Y201991D01*
X11796Y201977D01*
X11816Y201960D01*
X11946Y201888D01*
X12073Y201812D01*
X12098Y201804D01*
X12121Y201791D01*
X12264Y201751D01*
X12405Y201706D01*
X12431Y201704D01*
X12456Y201696D01*
X12700Y201677D01*
X31083Y201677D01*
X31184Y201688D01*
X31285Y201690D01*
X31356Y201708D01*
X31429Y201717D01*
X31525Y201751D01*
X31623Y201776D01*
X31688Y201809D01*
X31757Y201834D01*
X31843Y201889D01*
X31933Y201936D01*
X31989Y201983D01*
X32050Y202023D01*
X32121Y202096D01*
X32198Y202162D01*
X32241Y202221D01*
X32292Y202274D01*
X32344Y202361D01*
X32405Y202442D01*
X32447Y202532D01*
X32471Y202573D01*
X32482Y202607D01*
X32509Y202663D01*
X42498Y229204D01*
X48849Y241405D01*
X48874Y241469D01*
X48907Y241529D01*
X48936Y241631D01*
X48974Y241730D01*
X48983Y241798D01*
X49002Y241864D01*
X49015Y242035D01*
X49021Y242075D01*
X49020Y242089D01*
X49021Y242108D01*
X49021Y457200D01*
X49017Y457234D01*
X49018Y457292D01*
X48672Y463017D01*
X48669Y463033D01*
X48670Y463048D01*
X48631Y463290D01*
X45890Y474408D01*
X45869Y474465D01*
X45856Y474526D01*
X45779Y474706D01*
X45769Y474734D01*
X45765Y474740D01*
X45760Y474751D01*
X40439Y484890D01*
X40404Y484941D01*
X40377Y484997D01*
X40260Y485153D01*
X40243Y485178D01*
X40237Y485183D01*
X40230Y485192D01*
X32637Y493763D01*
X32591Y493804D01*
X32552Y493852D01*
X32400Y493976D01*
X32378Y493996D01*
X32371Y493999D01*
X32362Y494006D01*
X22939Y500511D01*
X22884Y500540D01*
X22835Y500577D01*
X22658Y500661D01*
X22631Y500675D01*
X22624Y500677D01*
X22614Y500682D01*
X11907Y504742D01*
X11847Y504757D01*
X11790Y504781D01*
X11598Y504820D01*
X11569Y504828D01*
X11562Y504828D01*
X11551Y504830D01*
X184Y506210D01*
X122Y506211D01*
X61Y506220D01*
X-135Y506212D01*
X-165Y506212D01*
X-172Y506211D01*
X-184Y506210D01*
X-11551Y504830D01*
X-11611Y504816D01*
X-11672Y504810D01*
X-11860Y504756D01*
X-11890Y504749D01*
X-11896Y504745D01*
X-11907Y504742D01*
X-22614Y500682D01*
X-22668Y500653D01*
X-22727Y500633D01*
X-22897Y500535D01*
X-22923Y500522D01*
X-22929Y500517D01*
X-22939Y500511D01*
X-32362Y494006D01*
X-32409Y493966D01*
X-32461Y493932D01*
X-32602Y493797D01*
X-32625Y493777D01*
X-32629Y493771D01*
X-32637Y493763D01*
X-40230Y485192D01*
X-40266Y485141D01*
X-40308Y485097D01*
X-40413Y484931D01*
X-40430Y484906D01*
X-40433Y484899D01*
X-40439Y484890D01*
X-45760Y474751D01*
X-45782Y474693D01*
X-45813Y474640D01*
X-45875Y474454D01*
X-45886Y474426D01*
X-45887Y474418D01*
X-45890Y474408D01*
X-48631Y463290D01*
X-48633Y463274D01*
X-48638Y463259D01*
X-48672Y463017D01*
X-49018Y457292D01*
X-49017Y457258D01*
X-49021Y457200D01*
X-49021Y242108D01*
X-49013Y242040D01*
X-49015Y241971D01*
X-48994Y241867D01*
X-48981Y241762D01*
X-48958Y241697D01*
X-48944Y241630D01*
X-48878Y241472D01*
X-48864Y241434D01*
X-48857Y241423D01*
X-48849Y241405D01*
X-42498Y229204D01*
X-32509Y202663D01*
X-32462Y202573D01*
X-32425Y202479D01*
X-32383Y202419D01*
X-32349Y202353D01*
X-32284Y202276D01*
X-32226Y202193D01*
X-32172Y202144D01*
X-32124Y202088D01*
X-32043Y202028D01*
X-31967Y201960D01*
X-31903Y201924D01*
X-31844Y201880D01*
X-31751Y201840D01*
X-31662Y201791D01*
X-31592Y201771D01*
X-31524Y201742D01*
X-31424Y201724D01*
X-31327Y201696D01*
X-31228Y201688D01*
X-31181Y201680D01*
X-31145Y201682D01*
X-31083Y201677D01*
X-12700Y201677D01*
X-12674Y201680D01*
G37*
G36*
X98324Y-74418D02*
X98324Y-74418D01*
X98350Y-74420D01*
X98497Y-74398D01*
X98644Y-74381D01*
X98669Y-74373D01*
X98695Y-74369D01*
X98833Y-74314D01*
X98972Y-74264D01*
X98994Y-74250D01*
X99019Y-74240D01*
X99140Y-74155D01*
X99265Y-74075D01*
X99283Y-74056D01*
X99305Y-74041D01*
X99404Y-73931D01*
X99507Y-73824D01*
X99521Y-73802D01*
X99538Y-73782D01*
X99610Y-73652D01*
X99686Y-73525D01*
X99694Y-73500D01*
X99707Y-73477D01*
X99747Y-73334D01*
X99792Y-73193D01*
X99794Y-73167D01*
X99802Y-73142D01*
X99821Y-72898D01*
X99821Y-3302D01*
X99818Y-3276D01*
X99820Y-3250D01*
X99798Y-3103D01*
X99781Y-2956D01*
X99773Y-2931D01*
X99769Y-2905D01*
X99714Y-2767D01*
X99664Y-2628D01*
X99650Y-2606D01*
X99640Y-2581D01*
X99555Y-2460D01*
X99475Y-2335D01*
X99456Y-2317D01*
X99441Y-2295D01*
X99331Y-2196D01*
X99224Y-2093D01*
X99202Y-2079D01*
X99182Y-2062D01*
X99052Y-1990D01*
X98925Y-1914D01*
X98900Y-1906D01*
X98877Y-1893D01*
X98734Y-1853D01*
X98593Y-1808D01*
X98567Y-1806D01*
X98542Y-1798D01*
X98298Y-1779D01*
X50063Y-1779D01*
X49021Y-737D01*
X49021Y18242D01*
X49013Y18310D01*
X49015Y18379D01*
X48994Y18483D01*
X48981Y18588D01*
X48958Y18653D01*
X48944Y18720D01*
X48878Y18878D01*
X48864Y18916D01*
X48857Y18927D01*
X48849Y18945D01*
X42498Y31146D01*
X38723Y41177D01*
X38676Y41267D01*
X38639Y41361D01*
X38597Y41421D01*
X38563Y41487D01*
X38498Y41564D01*
X38440Y41647D01*
X38385Y41696D01*
X38338Y41752D01*
X38257Y41813D01*
X38181Y41880D01*
X38117Y41916D01*
X38058Y41960D01*
X37965Y42000D01*
X37876Y42049D01*
X37806Y42069D01*
X37738Y42098D01*
X37638Y42116D01*
X37541Y42144D01*
X37442Y42152D01*
X37395Y42160D01*
X37359Y42158D01*
X37297Y42163D01*
X12700Y42163D01*
X12674Y42160D01*
X12648Y42162D01*
X12501Y42140D01*
X12354Y42123D01*
X12329Y42115D01*
X12303Y42111D01*
X12165Y42056D01*
X12026Y42006D01*
X12004Y41992D01*
X11979Y41982D01*
X11858Y41897D01*
X11733Y41817D01*
X11715Y41798D01*
X11693Y41783D01*
X11594Y41673D01*
X11491Y41566D01*
X11477Y41544D01*
X11460Y41524D01*
X11388Y41394D01*
X11312Y41267D01*
X11304Y41242D01*
X11291Y41219D01*
X11251Y41076D01*
X11206Y40935D01*
X11204Y40909D01*
X11196Y40884D01*
X11177Y40640D01*
X11177Y21680D01*
X11191Y21555D01*
X11198Y21428D01*
X11211Y21382D01*
X11217Y21334D01*
X11259Y21215D01*
X11294Y21094D01*
X11318Y21051D01*
X11334Y21006D01*
X11403Y20900D01*
X11464Y20789D01*
X11504Y20743D01*
X11523Y20713D01*
X11558Y20680D01*
X11623Y20603D01*
X42192Y-9966D01*
X42927Y-11740D01*
X42927Y-39684D01*
X42935Y-39760D01*
X42934Y-39836D01*
X42955Y-39932D01*
X42967Y-40030D01*
X42992Y-40102D01*
X43009Y-40177D01*
X43051Y-40265D01*
X43084Y-40358D01*
X43126Y-40423D01*
X43158Y-40491D01*
X43220Y-40568D01*
X43273Y-40651D01*
X43328Y-40704D01*
X43376Y-40764D01*
X43453Y-40825D01*
X43524Y-40893D01*
X43589Y-40932D01*
X43649Y-40980D01*
X43782Y-41048D01*
X43823Y-41072D01*
X43841Y-41078D01*
X43867Y-41091D01*
X44431Y-41325D01*
X47575Y-44469D01*
X49124Y-48208D01*
X49161Y-48275D01*
X49189Y-48346D01*
X49245Y-48427D01*
X49293Y-48513D01*
X49345Y-48569D01*
X49388Y-48632D01*
X49461Y-48698D01*
X49527Y-48771D01*
X49590Y-48814D01*
X49647Y-48865D01*
X49733Y-48913D01*
X49814Y-48969D01*
X49885Y-48997D01*
X49952Y-49034D01*
X50047Y-49061D01*
X50138Y-49097D01*
X50214Y-49108D01*
X50287Y-49129D01*
X50436Y-49141D01*
X50483Y-49148D01*
X50502Y-49146D01*
X50531Y-49148D01*
X61510Y-49148D01*
X61586Y-49140D01*
X61662Y-49141D01*
X61758Y-49120D01*
X61856Y-49108D01*
X61928Y-49083D01*
X62003Y-49066D01*
X62091Y-49024D01*
X62184Y-48991D01*
X62248Y-48949D01*
X62317Y-48917D01*
X62394Y-48855D01*
X62477Y-48802D01*
X62530Y-48747D01*
X62590Y-48699D01*
X62651Y-48622D01*
X62719Y-48551D01*
X62758Y-48486D01*
X62806Y-48426D01*
X62874Y-48292D01*
X62898Y-48252D01*
X62904Y-48234D01*
X62917Y-48208D01*
X63926Y-45773D01*
X67998Y-41701D01*
X73293Y-39507D01*
X73381Y-39458D01*
X73473Y-39418D01*
X73533Y-39374D01*
X73598Y-39338D01*
X73672Y-39271D01*
X73753Y-39211D01*
X73801Y-39154D01*
X73856Y-39104D01*
X73913Y-39021D01*
X73978Y-38945D01*
X74012Y-38878D01*
X74054Y-38817D01*
X74091Y-38724D01*
X74137Y-38634D01*
X74155Y-38562D01*
X74182Y-38493D01*
X74197Y-38393D01*
X74221Y-38296D01*
X74222Y-38222D01*
X74233Y-38148D01*
X74225Y-38048D01*
X74226Y-37948D01*
X74210Y-37875D01*
X74204Y-37801D01*
X74173Y-37705D01*
X74152Y-37607D01*
X74120Y-37540D01*
X74097Y-37469D01*
X74045Y-37383D01*
X74002Y-37292D01*
X73956Y-37234D01*
X73917Y-37171D01*
X73847Y-37099D01*
X73785Y-37020D01*
X73726Y-36974D01*
X73674Y-36921D01*
X73590Y-36866D01*
X73511Y-36804D01*
X73422Y-36758D01*
X73381Y-36732D01*
X73347Y-36720D01*
X73293Y-36693D01*
X67998Y-34499D01*
X63926Y-30427D01*
X61721Y-25105D01*
X61721Y-19345D01*
X63926Y-14023D01*
X67998Y-9951D01*
X73320Y-7746D01*
X79080Y-7746D01*
X84402Y-9951D01*
X88474Y-14023D01*
X90679Y-19345D01*
X90679Y-25105D01*
X88474Y-30427D01*
X84402Y-34499D01*
X79107Y-36693D01*
X79019Y-36741D01*
X78927Y-36781D01*
X78867Y-36826D01*
X78802Y-36862D01*
X78728Y-36929D01*
X78647Y-36989D01*
X78599Y-37046D01*
X78544Y-37096D01*
X78487Y-37179D01*
X78422Y-37255D01*
X78388Y-37322D01*
X78346Y-37383D01*
X78309Y-37476D01*
X78263Y-37566D01*
X78245Y-37638D01*
X78218Y-37707D01*
X78203Y-37806D01*
X78179Y-37904D01*
X78178Y-37978D01*
X78167Y-38052D01*
X78175Y-38152D01*
X78174Y-38252D01*
X78190Y-38325D01*
X78196Y-38399D01*
X78227Y-38495D01*
X78248Y-38593D01*
X78280Y-38660D01*
X78303Y-38731D01*
X78355Y-38817D01*
X78398Y-38908D01*
X78444Y-38966D01*
X78483Y-39029D01*
X78553Y-39102D01*
X78615Y-39180D01*
X78674Y-39226D01*
X78726Y-39279D01*
X78810Y-39334D01*
X78889Y-39396D01*
X78978Y-39442D01*
X79019Y-39468D01*
X79052Y-39480D01*
X79107Y-39507D01*
X84402Y-41701D01*
X88474Y-45773D01*
X90679Y-51095D01*
X90679Y-56855D01*
X88474Y-62177D01*
X84402Y-66249D01*
X79080Y-68454D01*
X73320Y-68454D01*
X67998Y-66249D01*
X63926Y-62177D01*
X62917Y-59742D01*
X62880Y-59675D01*
X62852Y-59604D01*
X62796Y-59524D01*
X62748Y-59437D01*
X62696Y-59381D01*
X62653Y-59318D01*
X62580Y-59252D01*
X62514Y-59179D01*
X62451Y-59136D01*
X62394Y-59085D01*
X62308Y-59037D01*
X62227Y-58981D01*
X62156Y-58953D01*
X62089Y-58916D01*
X61994Y-58889D01*
X61903Y-58853D01*
X61827Y-58842D01*
X61754Y-58821D01*
X61605Y-58809D01*
X61558Y-58802D01*
X61539Y-58804D01*
X61510Y-58802D01*
X46535Y-58802D01*
X46410Y-58816D01*
X46284Y-58823D01*
X46237Y-58836D01*
X46189Y-58842D01*
X46070Y-58884D01*
X45949Y-58919D01*
X45907Y-58943D01*
X45861Y-58959D01*
X45755Y-59028D01*
X45645Y-59089D01*
X45598Y-59129D01*
X45568Y-59148D01*
X45535Y-59183D01*
X45458Y-59248D01*
X44431Y-60275D01*
X40323Y-61977D01*
X35877Y-61977D01*
X31769Y-60275D01*
X28625Y-57131D01*
X26923Y-53023D01*
X26923Y-48577D01*
X28625Y-44469D01*
X31769Y-41325D01*
X32333Y-41091D01*
X32400Y-41054D01*
X32471Y-41026D01*
X32552Y-40970D01*
X32638Y-40922D01*
X32694Y-40870D01*
X32757Y-40827D01*
X32823Y-40754D01*
X32896Y-40688D01*
X32939Y-40625D01*
X32990Y-40568D01*
X33038Y-40482D01*
X33094Y-40401D01*
X33122Y-40330D01*
X33159Y-40263D01*
X33186Y-40168D01*
X33222Y-40077D01*
X33233Y-40001D01*
X33254Y-39928D01*
X33266Y-39779D01*
X33273Y-39732D01*
X33271Y-39713D01*
X33273Y-39684D01*
X33273Y-15330D01*
X33259Y-15205D01*
X33252Y-15078D01*
X33239Y-15032D01*
X33233Y-14984D01*
X33191Y-14865D01*
X33156Y-14744D01*
X33132Y-14701D01*
X33116Y-14656D01*
X33047Y-14550D01*
X32986Y-14439D01*
X32946Y-14393D01*
X32927Y-14363D01*
X32892Y-14330D01*
X32827Y-14253D01*
X3830Y14744D01*
X2258Y16316D01*
X1523Y18090D01*
X1523Y40640D01*
X1483Y40986D01*
X1366Y41314D01*
X1177Y41607D01*
X926Y41849D01*
X627Y42028D01*
X295Y42134D01*
X-52Y42162D01*
X-397Y42111D01*
X-721Y41982D01*
X-1007Y41783D01*
X-1240Y41524D01*
X-1409Y41219D01*
X-1504Y40884D01*
X-1523Y40640D01*
X-1523Y-16835D01*
X-2258Y-18609D01*
X-3830Y-20181D01*
X-7427Y-23778D01*
X-7506Y-23877D01*
X-7590Y-23971D01*
X-7614Y-24013D01*
X-7644Y-24051D01*
X-7698Y-24165D01*
X-7759Y-24276D01*
X-7772Y-24323D01*
X-7793Y-24366D01*
X-7819Y-24490D01*
X-7854Y-24611D01*
X-7859Y-24672D01*
X-7866Y-24707D01*
X-7865Y-24755D01*
X-7873Y-24855D01*
X-7873Y-39684D01*
X-7865Y-39760D01*
X-7866Y-39836D01*
X-7845Y-39932D01*
X-7833Y-40030D01*
X-7808Y-40102D01*
X-7791Y-40177D01*
X-7749Y-40265D01*
X-7716Y-40358D01*
X-7674Y-40423D01*
X-7642Y-40491D01*
X-7580Y-40568D01*
X-7527Y-40651D01*
X-7472Y-40704D01*
X-7424Y-40764D01*
X-7347Y-40825D01*
X-7276Y-40893D01*
X-7211Y-40932D01*
X-7151Y-40980D01*
X-7018Y-41048D01*
X-6977Y-41072D01*
X-6959Y-41078D01*
X-6933Y-41091D01*
X-6369Y-41325D01*
X-3225Y-44469D01*
X-1523Y-48577D01*
X-1523Y-53023D01*
X-3225Y-57131D01*
X-6369Y-60275D01*
X-10477Y-61977D01*
X-14923Y-61977D01*
X-19031Y-60275D01*
X-22175Y-57131D01*
X-23637Y-53601D01*
X-23715Y-53461D01*
X-23790Y-53320D01*
X-23800Y-53309D01*
X-23807Y-53296D01*
X-23914Y-53178D01*
X-24019Y-53057D01*
X-24031Y-53049D01*
X-24041Y-53038D01*
X-24173Y-52947D01*
X-24302Y-52854D01*
X-24316Y-52848D01*
X-24328Y-52840D01*
X-24477Y-52781D01*
X-24624Y-52720D01*
X-24638Y-52717D01*
X-24652Y-52712D01*
X-24810Y-52689D01*
X-24968Y-52663D01*
X-24982Y-52663D01*
X-24997Y-52661D01*
X-25156Y-52675D01*
X-25315Y-52685D01*
X-25329Y-52689D01*
X-25344Y-52690D01*
X-25496Y-52739D01*
X-25649Y-52786D01*
X-25662Y-52793D01*
X-25676Y-52797D01*
X-25813Y-52880D01*
X-25951Y-52960D01*
X-25962Y-52970D01*
X-25974Y-52977D01*
X-26089Y-53089D01*
X-26206Y-53198D01*
X-26214Y-53210D01*
X-26224Y-53220D01*
X-26310Y-53354D01*
X-26399Y-53487D01*
X-26406Y-53503D01*
X-26412Y-53513D01*
X-26425Y-53549D01*
X-26493Y-53713D01*
X-27036Y-55383D01*
X-27889Y-57057D01*
X-28994Y-58578D01*
X-30322Y-59906D01*
X-31843Y-61011D01*
X-33517Y-61864D01*
X-35304Y-62445D01*
X-35561Y-62485D01*
X-35561Y-51816D01*
X-35564Y-51790D01*
X-35562Y-51764D01*
X-35584Y-51617D01*
X-35601Y-51470D01*
X-35609Y-51445D01*
X-35613Y-51419D01*
X-35668Y-51282D01*
X-35718Y-51142D01*
X-35732Y-51120D01*
X-35742Y-51095D01*
X-35827Y-50974D01*
X-35907Y-50849D01*
X-35926Y-50831D01*
X-35941Y-50809D01*
X-35957Y-50795D01*
X-35875Y-50710D01*
X-35861Y-50687D01*
X-35844Y-50668D01*
X-35772Y-50538D01*
X-35696Y-50411D01*
X-35688Y-50386D01*
X-35675Y-50363D01*
X-35635Y-50220D01*
X-35590Y-50079D01*
X-35587Y-50053D01*
X-35580Y-50028D01*
X-35561Y-49784D01*
X-35561Y-39115D01*
X-35304Y-39155D01*
X-33517Y-39736D01*
X-31843Y-40589D01*
X-30322Y-41694D01*
X-28994Y-43022D01*
X-27889Y-44543D01*
X-27036Y-46217D01*
X-26493Y-47887D01*
X-26427Y-48032D01*
X-26363Y-48179D01*
X-26355Y-48191D01*
X-26348Y-48204D01*
X-26251Y-48330D01*
X-26155Y-48459D01*
X-26144Y-48468D01*
X-26135Y-48480D01*
X-26011Y-48581D01*
X-25889Y-48684D01*
X-25876Y-48690D01*
X-25865Y-48700D01*
X-25721Y-48770D01*
X-25579Y-48843D01*
X-25565Y-48846D01*
X-25552Y-48852D01*
X-25395Y-48888D01*
X-25241Y-48927D01*
X-25226Y-48927D01*
X-25212Y-48930D01*
X-25052Y-48929D01*
X-24892Y-48932D01*
X-24878Y-48929D01*
X-24864Y-48929D01*
X-24708Y-48892D01*
X-24552Y-48857D01*
X-24539Y-48851D01*
X-24525Y-48848D01*
X-24381Y-48776D01*
X-24237Y-48708D01*
X-24226Y-48699D01*
X-24213Y-48692D01*
X-24089Y-48590D01*
X-23965Y-48490D01*
X-23956Y-48479D01*
X-23945Y-48470D01*
X-23848Y-48343D01*
X-23749Y-48217D01*
X-23741Y-48201D01*
X-23734Y-48192D01*
X-23718Y-48157D01*
X-23637Y-47999D01*
X-22175Y-44469D01*
X-19031Y-41325D01*
X-18467Y-41091D01*
X-18400Y-41054D01*
X-18329Y-41026D01*
X-18248Y-40970D01*
X-18162Y-40922D01*
X-18106Y-40870D01*
X-18043Y-40827D01*
X-17977Y-40754D01*
X-17904Y-40688D01*
X-17861Y-40625D01*
X-17810Y-40568D01*
X-17762Y-40482D01*
X-17706Y-40401D01*
X-17678Y-40330D01*
X-17641Y-40263D01*
X-17614Y-40168D01*
X-17578Y-40077D01*
X-17567Y-40001D01*
X-17546Y-39928D01*
X-17534Y-39779D01*
X-17527Y-39732D01*
X-17529Y-39713D01*
X-17527Y-39684D01*
X-17527Y-28575D01*
X-17530Y-28549D01*
X-17528Y-28523D01*
X-17550Y-28376D01*
X-17567Y-28229D01*
X-17575Y-28204D01*
X-17579Y-28178D01*
X-17634Y-28040D01*
X-17684Y-27901D01*
X-17698Y-27879D01*
X-17708Y-27854D01*
X-17793Y-27733D01*
X-17873Y-27608D01*
X-17892Y-27590D01*
X-17907Y-27568D01*
X-18017Y-27469D01*
X-18124Y-27366D01*
X-18146Y-27352D01*
X-18166Y-27335D01*
X-18296Y-27263D01*
X-18423Y-27187D01*
X-18448Y-27179D01*
X-18471Y-27166D01*
X-18614Y-27126D01*
X-18755Y-27081D01*
X-18781Y-27079D01*
X-18806Y-27071D01*
X-19050Y-27052D01*
X-61510Y-27052D01*
X-61586Y-27060D01*
X-61662Y-27059D01*
X-61758Y-27080D01*
X-61856Y-27092D01*
X-61928Y-27117D01*
X-62003Y-27134D01*
X-62091Y-27176D01*
X-62184Y-27209D01*
X-62248Y-27251D01*
X-62317Y-27283D01*
X-62394Y-27345D01*
X-62477Y-27398D01*
X-62530Y-27453D01*
X-62590Y-27501D01*
X-62651Y-27578D01*
X-62719Y-27649D01*
X-62758Y-27714D01*
X-62806Y-27774D01*
X-62874Y-27908D01*
X-62898Y-27948D01*
X-62904Y-27966D01*
X-62917Y-27992D01*
X-63926Y-30427D01*
X-67998Y-34499D01*
X-73320Y-36704D01*
X-79080Y-36704D01*
X-84402Y-34499D01*
X-88474Y-30427D01*
X-90679Y-25105D01*
X-90679Y-19345D01*
X-88474Y-14023D01*
X-84402Y-9951D01*
X-79080Y-7746D01*
X-73320Y-7746D01*
X-67998Y-9951D01*
X-63926Y-14023D01*
X-62917Y-16458D01*
X-62880Y-16525D01*
X-62852Y-16596D01*
X-62796Y-16676D01*
X-62748Y-16763D01*
X-62696Y-16819D01*
X-62653Y-16882D01*
X-62580Y-16948D01*
X-62514Y-17021D01*
X-62451Y-17064D01*
X-62394Y-17115D01*
X-62308Y-17163D01*
X-62227Y-17219D01*
X-62156Y-17247D01*
X-62089Y-17284D01*
X-61994Y-17311D01*
X-61903Y-17347D01*
X-61827Y-17358D01*
X-61754Y-17379D01*
X-61605Y-17391D01*
X-61558Y-17398D01*
X-61539Y-17396D01*
X-61510Y-17398D01*
X-15330Y-17398D01*
X-15205Y-17384D01*
X-15078Y-17377D01*
X-15032Y-17364D01*
X-14984Y-17358D01*
X-14865Y-17316D01*
X-14744Y-17281D01*
X-14701Y-17257D01*
X-14656Y-17241D01*
X-14550Y-17172D01*
X-14439Y-17111D01*
X-14393Y-17071D01*
X-14363Y-17052D01*
X-14330Y-17017D01*
X-14253Y-16952D01*
X-11623Y-14322D01*
X-11544Y-14223D01*
X-11460Y-14129D01*
X-11436Y-14087D01*
X-11406Y-14049D01*
X-11352Y-13935D01*
X-11291Y-13824D01*
X-11278Y-13777D01*
X-11257Y-13734D01*
X-11231Y-13610D01*
X-11196Y-13489D01*
X-11191Y-13428D01*
X-11184Y-13393D01*
X-11185Y-13345D01*
X-11177Y-13245D01*
X-11177Y40640D01*
X-11180Y40666D01*
X-11178Y40692D01*
X-11200Y40839D01*
X-11217Y40986D01*
X-11225Y41011D01*
X-11229Y41037D01*
X-11284Y41175D01*
X-11334Y41314D01*
X-11348Y41336D01*
X-11358Y41361D01*
X-11443Y41482D01*
X-11523Y41607D01*
X-11542Y41625D01*
X-11557Y41647D01*
X-11667Y41746D01*
X-11774Y41849D01*
X-11796Y41863D01*
X-11816Y41880D01*
X-11946Y41952D01*
X-12073Y42028D01*
X-12098Y42036D01*
X-12121Y42049D01*
X-12264Y42089D01*
X-12405Y42134D01*
X-12431Y42136D01*
X-12456Y42144D01*
X-12700Y42163D01*
X-37297Y42163D01*
X-37398Y42152D01*
X-37499Y42150D01*
X-37570Y42132D01*
X-37643Y42123D01*
X-37739Y42089D01*
X-37837Y42064D01*
X-37902Y42031D01*
X-37971Y42006D01*
X-38056Y41951D01*
X-38146Y41904D01*
X-38202Y41857D01*
X-38264Y41817D01*
X-38335Y41744D01*
X-38412Y41678D01*
X-38455Y41619D01*
X-38506Y41566D01*
X-38558Y41479D01*
X-38618Y41398D01*
X-38661Y41308D01*
X-38685Y41267D01*
X-38696Y41233D01*
X-38723Y41177D01*
X-42498Y31146D01*
X-48849Y18945D01*
X-48874Y18881D01*
X-48907Y18821D01*
X-48936Y18719D01*
X-48974Y18620D01*
X-48983Y18552D01*
X-49002Y18486D01*
X-49015Y18315D01*
X-49021Y18275D01*
X-49020Y18261D01*
X-49021Y18242D01*
X-49021Y-737D01*
X-50063Y-1779D01*
X-98298Y-1779D01*
X-98324Y-1782D01*
X-98350Y-1780D01*
X-98497Y-1802D01*
X-98644Y-1819D01*
X-98669Y-1827D01*
X-98695Y-1831D01*
X-98833Y-1886D01*
X-98972Y-1936D01*
X-98994Y-1950D01*
X-99019Y-1960D01*
X-99140Y-2045D01*
X-99265Y-2125D01*
X-99283Y-2144D01*
X-99305Y-2159D01*
X-99404Y-2269D01*
X-99507Y-2376D01*
X-99521Y-2398D01*
X-99538Y-2418D01*
X-99610Y-2548D01*
X-99686Y-2675D01*
X-99694Y-2700D01*
X-99707Y-2723D01*
X-99747Y-2866D01*
X-99792Y-3007D01*
X-99794Y-3033D01*
X-99802Y-3058D01*
X-99821Y-3302D01*
X-99821Y-72898D01*
X-99818Y-72924D01*
X-99820Y-72950D01*
X-99798Y-73097D01*
X-99781Y-73244D01*
X-99773Y-73269D01*
X-99769Y-73295D01*
X-99714Y-73433D01*
X-99664Y-73572D01*
X-99650Y-73594D01*
X-99640Y-73619D01*
X-99555Y-73740D01*
X-99475Y-73865D01*
X-99456Y-73883D01*
X-99441Y-73905D01*
X-99331Y-74004D01*
X-99224Y-74107D01*
X-99202Y-74121D01*
X-99182Y-74138D01*
X-99052Y-74210D01*
X-98925Y-74286D01*
X-98900Y-74294D01*
X-98877Y-74307D01*
X-98734Y-74347D01*
X-98593Y-74392D01*
X-98567Y-74394D01*
X-98542Y-74402D01*
X-98298Y-74421D01*
X98298Y-74421D01*
X98324Y-74418D01*
G37*
%LPC*%
G36*
X-50Y360325D02*
X-50Y360325D01*
X-73Y360339D01*
X-92Y360356D01*
X-222Y360428D01*
X-349Y360504D01*
X-374Y360512D01*
X-397Y360525D01*
X-540Y360565D01*
X-681Y360610D01*
X-707Y360612D01*
X-732Y360620D01*
X-976Y360639D01*
X-11041Y360639D01*
X-11041Y363475D01*
X-10829Y364266D01*
X-10818Y364337D01*
X-10808Y364369D01*
X-10804Y364422D01*
X-10784Y364515D01*
X-10785Y364563D01*
X-10777Y364611D01*
X-10783Y364678D01*
X-10780Y364717D01*
X-10789Y364775D01*
X-10790Y364864D01*
X-10802Y364910D01*
X-10806Y364958D01*
X-10825Y365017D01*
X-10831Y365061D01*
X-10856Y365123D01*
X-10876Y365201D01*
X-10902Y365256D01*
X-10913Y365290D01*
X-10938Y365332D01*
X-10945Y365347D01*
X-10960Y365385D01*
X-10970Y365399D01*
X-10981Y365422D01*
X-11118Y365659D01*
X-11291Y366305D01*
X-11291Y368117D01*
X-7500Y368117D01*
X-2500Y368117D01*
X-2474Y368120D01*
X-2448Y368117D01*
X-2301Y368139D01*
X-2154Y368156D01*
X-2129Y368165D01*
X-2103Y368169D01*
X-1966Y368224D01*
X-1826Y368274D01*
X-1804Y368288D01*
X-1780Y368298D01*
X-1658Y368382D01*
X-1533Y368463D01*
X-1515Y368482D01*
X-1493Y368497D01*
X-1394Y368607D01*
X-1291Y368714D01*
X-1278Y368736D01*
X-1260Y368756D01*
X-1188Y368886D01*
X-1112Y369013D01*
X-1104Y369038D01*
X-1091Y369061D01*
X-1051Y369204D01*
X-1006Y369345D01*
X-1004Y369371D01*
X-997Y369396D01*
X-977Y369640D01*
X-980Y369666D01*
X-978Y369692D01*
X-1000Y369839D01*
X-1017Y369986D01*
X-1026Y370011D01*
X-1030Y370037D01*
X-1084Y370175D01*
X-1134Y370314D01*
X-1149Y370337D01*
X-1158Y370361D01*
X-1243Y370482D01*
X-1323Y370607D01*
X-1342Y370626D01*
X-1357Y370647D01*
X-1467Y370746D01*
X-1574Y370849D01*
X-1597Y370863D01*
X-1616Y370880D01*
X-1746Y370952D01*
X-1873Y371028D01*
X-1898Y371036D01*
X-1921Y371049D01*
X-2064Y371089D01*
X-2205Y371135D01*
X-2231Y371137D01*
X-2257Y371144D01*
X-2500Y371163D01*
X-7500Y371163D01*
X-11291Y371163D01*
X-11291Y372975D01*
X-11152Y373494D01*
X-11144Y373544D01*
X-11129Y373593D01*
X-11119Y373716D01*
X-11101Y373839D01*
X-11105Y373889D01*
X-11101Y373940D01*
X-11119Y374063D01*
X-11129Y374186D01*
X-11145Y374234D01*
X-11152Y374285D01*
X-11198Y374400D01*
X-11236Y374518D01*
X-11262Y374561D01*
X-11281Y374609D01*
X-11351Y374710D01*
X-11415Y374816D01*
X-11451Y374853D01*
X-11480Y374895D01*
X-11572Y374978D01*
X-11658Y375067D01*
X-11701Y375094D01*
X-11739Y375128D01*
X-11847Y375188D01*
X-11951Y375255D01*
X-11999Y375272D01*
X-12044Y375297D01*
X-12163Y375331D01*
X-12279Y375372D01*
X-12330Y375378D01*
X-12379Y375392D01*
X-12623Y375411D01*
X-26663Y375411D01*
X-34448Y383196D01*
X-34449Y383204D01*
X-34457Y383229D01*
X-34461Y383255D01*
X-34516Y383393D01*
X-34566Y383532D01*
X-34580Y383554D01*
X-34590Y383579D01*
X-34675Y383700D01*
X-34755Y383825D01*
X-34774Y383843D01*
X-34789Y383865D01*
X-34899Y383964D01*
X-35006Y384067D01*
X-35028Y384081D01*
X-35048Y384098D01*
X-35178Y384170D01*
X-35305Y384246D01*
X-35330Y384254D01*
X-35353Y384267D01*
X-35496Y384307D01*
X-35637Y384352D01*
X-35663Y384354D01*
X-35688Y384362D01*
X-35932Y384381D01*
X-37597Y384381D01*
X-38639Y385423D01*
X-38639Y396897D01*
X-37597Y397939D01*
X-25123Y397939D01*
X-23937Y396753D01*
X-23917Y396736D01*
X-23900Y396716D01*
X-23780Y396628D01*
X-23664Y396536D01*
X-23640Y396525D01*
X-23619Y396509D01*
X-23483Y396450D01*
X-23349Y396387D01*
X-23323Y396382D01*
X-23299Y396371D01*
X-23153Y396345D01*
X-23008Y396314D01*
X-22982Y396314D01*
X-22956Y396309D01*
X-22808Y396317D01*
X-22660Y396320D01*
X-22634Y396326D01*
X-22608Y396327D01*
X-22466Y396369D01*
X-22322Y396405D01*
X-22299Y396417D01*
X-22273Y396424D01*
X-22144Y396496D01*
X-22012Y396564D01*
X-21992Y396581D01*
X-21969Y396594D01*
X-21783Y396753D01*
X-20597Y397939D01*
X-8123Y397939D01*
X-7427Y397243D01*
X-7348Y397180D01*
X-7276Y397110D01*
X-7212Y397072D01*
X-7154Y397026D01*
X-7063Y396983D01*
X-6977Y396932D01*
X-6906Y396909D01*
X-6839Y396877D01*
X-6741Y396856D01*
X-6645Y396825D01*
X-6571Y396819D01*
X-6498Y396804D01*
X-6398Y396805D01*
X-6298Y396797D01*
X-6224Y396808D01*
X-6150Y396810D01*
X-6053Y396834D01*
X-5953Y396849D01*
X-5884Y396877D01*
X-5812Y396895D01*
X-5723Y396941D01*
X-5629Y396978D01*
X-5568Y397020D01*
X-5502Y397054D01*
X-5426Y397119D01*
X-5343Y397177D01*
X-5293Y397232D01*
X-5237Y397280D01*
X-5177Y397361D01*
X-5110Y397435D01*
X-5074Y397501D01*
X-5029Y397560D01*
X-4990Y397652D01*
X-4941Y397740D01*
X-4921Y397812D01*
X-4891Y397880D01*
X-4874Y397979D01*
X-4846Y398076D01*
X-4838Y398176D01*
X-4830Y398223D01*
X-4832Y398259D01*
X-4827Y398320D01*
X-4827Y404320D01*
X-4838Y404420D01*
X-4840Y404521D01*
X-4858Y404593D01*
X-4867Y404667D01*
X-4901Y404761D01*
X-4925Y404858D01*
X-4959Y404924D01*
X-4984Y404995D01*
X-5039Y405079D01*
X-5085Y405168D01*
X-5133Y405225D01*
X-5173Y405287D01*
X-5245Y405357D01*
X-5310Y405434D01*
X-5370Y405478D01*
X-5424Y405530D01*
X-5510Y405581D01*
X-5591Y405641D01*
X-5659Y405670D01*
X-5723Y405708D01*
X-5819Y405739D01*
X-5911Y405779D01*
X-5984Y405792D01*
X-6055Y405815D01*
X-6155Y405823D01*
X-6254Y405841D01*
X-6328Y405837D01*
X-6402Y405843D01*
X-6502Y405828D01*
X-6602Y405823D01*
X-6673Y405802D01*
X-6747Y405791D01*
X-6840Y405754D01*
X-6937Y405726D01*
X-7002Y405690D01*
X-7071Y405662D01*
X-7153Y405605D01*
X-7241Y405556D01*
X-7317Y405491D01*
X-7357Y405463D01*
X-7381Y405437D01*
X-7427Y405397D01*
X-8123Y404701D01*
X-20597Y404701D01*
X-21321Y405425D01*
X-21361Y405457D01*
X-21395Y405495D01*
X-21497Y405565D01*
X-21594Y405642D01*
X-21640Y405664D01*
X-21682Y405693D01*
X-21797Y405738D01*
X-21909Y405791D01*
X-21959Y405802D01*
X-22006Y405820D01*
X-22129Y405838D01*
X-22250Y405864D01*
X-22301Y405863D01*
X-22351Y405871D01*
X-22475Y405861D01*
X-22598Y405858D01*
X-22648Y405846D01*
X-22699Y405842D01*
X-22816Y405804D01*
X-22936Y405773D01*
X-22982Y405750D01*
X-23030Y405734D01*
X-23136Y405670D01*
X-23246Y405614D01*
X-23285Y405581D01*
X-23329Y405554D01*
X-23417Y405468D01*
X-23511Y405388D01*
X-23542Y405347D01*
X-23578Y405311D01*
X-23717Y405110D01*
X-23827Y404920D01*
X-24300Y404447D01*
X-24879Y404112D01*
X-25525Y403939D01*
X-28861Y403939D01*
X-28861Y410504D01*
X-28864Y410530D01*
X-28862Y410556D01*
X-28884Y410703D01*
X-28901Y410850D01*
X-28909Y410875D01*
X-28913Y410901D01*
X-28968Y411038D01*
X-29018Y411178D01*
X-29032Y411200D01*
X-29042Y411225D01*
X-29127Y411346D01*
X-29207Y411471D01*
X-29220Y411483D01*
X-29175Y411530D01*
X-29161Y411553D01*
X-29144Y411572D01*
X-29072Y411702D01*
X-28996Y411829D01*
X-28988Y411854D01*
X-28975Y411877D01*
X-28935Y412020D01*
X-28890Y412161D01*
X-28887Y412187D01*
X-28880Y412212D01*
X-28861Y412456D01*
X-28861Y419021D01*
X-25525Y419021D01*
X-24879Y418848D01*
X-24300Y418513D01*
X-23827Y418040D01*
X-23717Y417850D01*
X-23687Y417809D01*
X-23663Y417764D01*
X-23583Y417670D01*
X-23510Y417570D01*
X-23471Y417537D01*
X-23438Y417498D01*
X-23338Y417425D01*
X-23244Y417345D01*
X-23198Y417321D01*
X-23157Y417291D01*
X-23044Y417242D01*
X-22934Y417186D01*
X-22884Y417173D01*
X-22837Y417153D01*
X-22716Y417131D01*
X-22596Y417101D01*
X-22545Y417100D01*
X-22494Y417091D01*
X-22371Y417098D01*
X-22247Y417096D01*
X-22197Y417107D01*
X-22146Y417109D01*
X-22028Y417144D01*
X-21907Y417170D01*
X-21860Y417192D01*
X-21811Y417206D01*
X-21704Y417266D01*
X-21592Y417319D01*
X-21552Y417351D01*
X-21507Y417376D01*
X-21321Y417535D01*
X-20597Y418259D01*
X-8107Y418259D01*
X-8038Y418192D01*
X-7974Y418154D01*
X-7916Y418108D01*
X-7825Y418065D01*
X-7739Y418014D01*
X-7668Y417991D01*
X-7601Y417959D01*
X-7503Y417938D01*
X-7407Y417907D01*
X-7333Y417901D01*
X-7260Y417886D01*
X-7160Y417887D01*
X-7060Y417879D01*
X-6986Y417890D01*
X-6912Y417892D01*
X-6814Y417916D01*
X-6715Y417931D01*
X-6646Y417959D01*
X-6574Y417977D01*
X-6485Y418023D01*
X-6391Y418060D01*
X-6330Y418102D01*
X-6264Y418136D01*
X-6188Y418201D01*
X-6105Y418259D01*
X-6055Y418314D01*
X-5999Y418362D01*
X-5939Y418443D01*
X-5872Y418517D01*
X-5836Y418582D01*
X-5791Y418642D01*
X-5752Y418735D01*
X-5703Y418822D01*
X-5683Y418894D01*
X-5653Y418962D01*
X-5636Y419061D01*
X-5608Y419158D01*
X-5600Y419258D01*
X-5592Y419305D01*
X-5594Y419341D01*
X-5589Y419402D01*
X-5589Y441136D01*
X-5592Y441162D01*
X-5590Y441188D01*
X-5612Y441335D01*
X-5629Y441482D01*
X-5637Y441507D01*
X-5641Y441533D01*
X-5696Y441671D01*
X-5746Y441810D01*
X-5760Y441832D01*
X-5770Y441857D01*
X-5855Y441978D01*
X-5935Y442103D01*
X-5954Y442121D01*
X-5969Y442143D01*
X-6079Y442242D01*
X-6186Y442345D01*
X-6208Y442359D01*
X-6228Y442376D01*
X-6358Y442448D01*
X-6485Y442524D01*
X-6510Y442532D01*
X-6533Y442545D01*
X-6676Y442585D01*
X-6817Y442630D01*
X-6843Y442632D01*
X-6868Y442640D01*
X-7112Y442659D01*
X-8335Y442659D01*
X-8981Y442832D01*
X-9560Y443167D01*
X-10033Y443640D01*
X-10368Y444219D01*
X-10541Y444865D01*
X-10541Y445927D01*
X-6500Y445927D01*
X-6474Y445930D01*
X-6448Y445927D01*
X-6301Y445949D01*
X-6154Y445966D01*
X-6129Y445975D01*
X-6103Y445979D01*
X-5966Y446034D01*
X-5826Y446084D01*
X-5804Y446098D01*
X-5780Y446108D01*
X-5658Y446192D01*
X-5533Y446273D01*
X-5515Y446292D01*
X-5493Y446307D01*
X-5394Y446417D01*
X-5291Y446524D01*
X-5277Y446547D01*
X-5259Y446566D01*
X-5188Y446696D01*
X-5112Y446823D01*
X-5104Y446848D01*
X-5091Y446871D01*
X-5051Y447014D01*
X-5005Y447155D01*
X-5003Y447181D01*
X-4996Y447207D01*
X-4977Y447450D01*
X-4977Y452241D01*
X-4665Y452241D01*
X-4019Y452068D01*
X-3353Y451683D01*
X-3260Y451642D01*
X-3170Y451593D01*
X-3100Y451573D01*
X-3033Y451544D01*
X-2933Y451526D01*
X-2835Y451498D01*
X-2737Y451490D01*
X-2690Y451482D01*
X-2654Y451484D01*
X-2591Y451479D01*
X2248Y451479D01*
X2330Y451418D01*
X2446Y451326D01*
X2470Y451315D01*
X2491Y451299D01*
X2627Y451240D01*
X2761Y451177D01*
X2787Y451172D01*
X2811Y451161D01*
X2957Y451135D01*
X3102Y451104D01*
X3128Y451104D01*
X3154Y451099D01*
X3302Y451107D01*
X3450Y451110D01*
X3476Y451116D01*
X3502Y451117D01*
X3644Y451158D01*
X3788Y451195D01*
X3812Y451207D01*
X3837Y451214D01*
X3966Y451286D01*
X4098Y451354D01*
X4118Y451371D01*
X4141Y451384D01*
X4252Y451479D01*
X8737Y451479D01*
X9779Y450437D01*
X9779Y444407D01*
X9778Y444406D01*
X9724Y444292D01*
X9663Y444181D01*
X9650Y444135D01*
X9629Y444091D01*
X9603Y443968D01*
X9568Y443846D01*
X9563Y443785D01*
X9556Y443751D01*
X9557Y443703D01*
X9549Y443602D01*
X9549Y441091D01*
X6035Y437577D01*
X5956Y437478D01*
X5872Y437384D01*
X5848Y437341D01*
X5818Y437304D01*
X5764Y437189D01*
X5703Y437079D01*
X5690Y437032D01*
X5669Y436989D01*
X5643Y436865D01*
X5608Y436743D01*
X5603Y436683D01*
X5596Y436648D01*
X5597Y436600D01*
X5589Y436500D01*
X5589Y430899D01*
X5597Y430823D01*
X5596Y430746D01*
X5617Y430650D01*
X5629Y430553D01*
X5654Y430481D01*
X5671Y430406D01*
X5713Y430317D01*
X5746Y430224D01*
X5788Y430160D01*
X5820Y430091D01*
X5882Y430014D01*
X5935Y429932D01*
X5990Y429879D01*
X6038Y429819D01*
X6115Y429758D01*
X6186Y429689D01*
X6251Y429650D01*
X6311Y429603D01*
X6444Y429535D01*
X6485Y429511D01*
X6503Y429505D01*
X6529Y429491D01*
X8174Y428810D01*
X9710Y427274D01*
X10542Y425266D01*
X10542Y423094D01*
X9710Y421086D01*
X9483Y420859D01*
X9421Y420781D01*
X9351Y420708D01*
X9313Y420644D01*
X9267Y420586D01*
X9224Y420495D01*
X9172Y420409D01*
X9149Y420338D01*
X9118Y420271D01*
X9096Y420173D01*
X9066Y420077D01*
X9060Y420003D01*
X9044Y419930D01*
X9046Y419830D01*
X9038Y419730D01*
X9049Y419656D01*
X9050Y419582D01*
X9075Y419484D01*
X9090Y419385D01*
X9117Y419316D01*
X9135Y419244D01*
X9181Y419155D01*
X9218Y419061D01*
X9261Y419000D01*
X9295Y418934D01*
X9360Y418858D01*
X9417Y418775D01*
X9472Y418725D01*
X9521Y418669D01*
X9601Y418609D01*
X9676Y418542D01*
X9741Y418506D01*
X9801Y418461D01*
X9893Y418422D01*
X9981Y418373D01*
X10053Y418353D01*
X10121Y418323D01*
X10220Y418306D01*
X10316Y418278D01*
X10417Y418270D01*
X10464Y418262D01*
X10499Y418264D01*
X10560Y418259D01*
X20597Y418259D01*
X21321Y417535D01*
X21361Y417503D01*
X21395Y417465D01*
X21497Y417395D01*
X21594Y417318D01*
X21640Y417296D01*
X21682Y417267D01*
X21797Y417222D01*
X21909Y417169D01*
X21959Y417158D01*
X22006Y417140D01*
X22129Y417122D01*
X22250Y417096D01*
X22301Y417097D01*
X22351Y417089D01*
X22475Y417100D01*
X22598Y417102D01*
X22648Y417114D01*
X22699Y417118D01*
X22816Y417156D01*
X22936Y417187D01*
X22982Y417210D01*
X23030Y417226D01*
X23136Y417290D01*
X23246Y417346D01*
X23285Y417379D01*
X23329Y417406D01*
X23417Y417492D01*
X23511Y417572D01*
X23542Y417613D01*
X23578Y417649D01*
X23717Y417850D01*
X23827Y418040D01*
X24300Y418513D01*
X24879Y418848D01*
X25525Y419021D01*
X28861Y419021D01*
X28861Y412456D01*
X28864Y412430D01*
X28862Y412404D01*
X28884Y412257D01*
X28901Y412110D01*
X28909Y412085D01*
X28913Y412059D01*
X28968Y411922D01*
X29018Y411782D01*
X29032Y411760D01*
X29042Y411735D01*
X29127Y411614D01*
X29207Y411489D01*
X29220Y411477D01*
X29175Y411430D01*
X29161Y411407D01*
X29144Y411388D01*
X29072Y411258D01*
X28996Y411131D01*
X28988Y411106D01*
X28975Y411083D01*
X28935Y410940D01*
X28890Y410799D01*
X28887Y410773D01*
X28880Y410748D01*
X28861Y410504D01*
X28861Y403939D01*
X25525Y403939D01*
X24879Y404112D01*
X24300Y404447D01*
X23827Y404920D01*
X23717Y405110D01*
X23687Y405151D01*
X23663Y405196D01*
X23583Y405291D01*
X23510Y405390D01*
X23471Y405423D01*
X23438Y405462D01*
X23338Y405535D01*
X23244Y405615D01*
X23198Y405639D01*
X23157Y405669D01*
X23044Y405718D01*
X22934Y405774D01*
X22884Y405787D01*
X22837Y405807D01*
X22716Y405829D01*
X22596Y405859D01*
X22545Y405860D01*
X22494Y405869D01*
X22371Y405862D01*
X22247Y405864D01*
X22197Y405853D01*
X22146Y405851D01*
X22027Y405816D01*
X21907Y405790D01*
X21860Y405768D01*
X21811Y405754D01*
X21703Y405694D01*
X21592Y405641D01*
X21552Y405609D01*
X21507Y405584D01*
X21321Y405425D01*
X20597Y404701D01*
X8123Y404701D01*
X7427Y405397D01*
X7348Y405460D01*
X7276Y405530D01*
X7212Y405568D01*
X7154Y405614D01*
X7063Y405657D01*
X6977Y405708D01*
X6906Y405731D01*
X6839Y405763D01*
X6741Y405784D01*
X6645Y405815D01*
X6571Y405821D01*
X6498Y405836D01*
X6398Y405835D01*
X6298Y405843D01*
X6224Y405832D01*
X6150Y405830D01*
X6053Y405806D01*
X5953Y405791D01*
X5884Y405763D01*
X5812Y405745D01*
X5723Y405699D01*
X5629Y405662D01*
X5568Y405620D01*
X5502Y405586D01*
X5426Y405521D01*
X5343Y405463D01*
X5293Y405408D01*
X5237Y405360D01*
X5177Y405279D01*
X5110Y405205D01*
X5074Y405139D01*
X5029Y405080D01*
X4990Y404988D01*
X4941Y404900D01*
X4921Y404828D01*
X4891Y404760D01*
X4874Y404661D01*
X4846Y404564D01*
X4838Y404464D01*
X4830Y404417D01*
X4832Y404381D01*
X4827Y404320D01*
X4827Y398320D01*
X4838Y398220D01*
X4840Y398119D01*
X4858Y398047D01*
X4867Y397973D01*
X4901Y397879D01*
X4925Y397782D01*
X4959Y397716D01*
X4984Y397645D01*
X5039Y397561D01*
X5085Y397472D01*
X5133Y397415D01*
X5173Y397353D01*
X5245Y397283D01*
X5310Y397206D01*
X5370Y397162D01*
X5424Y397110D01*
X5510Y397059D01*
X5591Y396999D01*
X5659Y396970D01*
X5723Y396932D01*
X5819Y396901D01*
X5911Y396861D01*
X5984Y396848D01*
X6055Y396825D01*
X6155Y396817D01*
X6254Y396799D01*
X6328Y396803D01*
X6402Y396797D01*
X6502Y396812D01*
X6602Y396817D01*
X6673Y396838D01*
X6747Y396849D01*
X6840Y396886D01*
X6937Y396914D01*
X7002Y396950D01*
X7071Y396978D01*
X7153Y397035D01*
X7241Y397084D01*
X7317Y397149D01*
X7357Y397177D01*
X7381Y397203D01*
X7427Y397243D01*
X8123Y397939D01*
X20597Y397939D01*
X21321Y397215D01*
X21361Y397183D01*
X21395Y397145D01*
X21497Y397075D01*
X21594Y396998D01*
X21640Y396976D01*
X21682Y396947D01*
X21797Y396902D01*
X21909Y396849D01*
X21959Y396838D01*
X22006Y396820D01*
X22129Y396802D01*
X22250Y396776D01*
X22301Y396777D01*
X22351Y396769D01*
X22475Y396779D01*
X22598Y396782D01*
X22648Y396794D01*
X22699Y396798D01*
X22816Y396836D01*
X22936Y396867D01*
X22982Y396890D01*
X23030Y396906D01*
X23136Y396970D01*
X23246Y397026D01*
X23285Y397059D01*
X23329Y397086D01*
X23417Y397172D01*
X23511Y397252D01*
X23542Y397293D01*
X23578Y397329D01*
X23717Y397530D01*
X23827Y397720D01*
X24300Y398193D01*
X24879Y398528D01*
X25525Y398701D01*
X28861Y398701D01*
X28861Y392136D01*
X28864Y392110D01*
X28862Y392084D01*
X28884Y391937D01*
X28901Y391790D01*
X28909Y391765D01*
X28913Y391739D01*
X28968Y391602D01*
X29018Y391462D01*
X29032Y391440D01*
X29042Y391415D01*
X29127Y391294D01*
X29207Y391169D01*
X29220Y391157D01*
X29175Y391110D01*
X29161Y391087D01*
X29144Y391068D01*
X29072Y390938D01*
X28996Y390811D01*
X28988Y390786D01*
X28975Y390763D01*
X28935Y390620D01*
X28890Y390479D01*
X28887Y390453D01*
X28880Y390428D01*
X28861Y390184D01*
X28861Y383619D01*
X25525Y383619D01*
X24879Y383792D01*
X24300Y384127D01*
X23827Y384600D01*
X23717Y384790D01*
X23687Y384831D01*
X23663Y384876D01*
X23583Y384970D01*
X23510Y385070D01*
X23471Y385103D01*
X23438Y385142D01*
X23338Y385215D01*
X23244Y385295D01*
X23198Y385319D01*
X23157Y385349D01*
X23044Y385398D01*
X22934Y385454D01*
X22884Y385467D01*
X22837Y385487D01*
X22716Y385509D01*
X22596Y385539D01*
X22545Y385540D01*
X22494Y385549D01*
X22371Y385542D01*
X22247Y385544D01*
X22197Y385533D01*
X22146Y385531D01*
X22028Y385496D01*
X21907Y385470D01*
X21860Y385448D01*
X21811Y385434D01*
X21704Y385374D01*
X21592Y385321D01*
X21552Y385289D01*
X21507Y385264D01*
X21321Y385105D01*
X20597Y384381D01*
X9329Y384381D01*
X9229Y384370D01*
X9128Y384368D01*
X9056Y384350D01*
X8982Y384341D01*
X8888Y384308D01*
X8790Y384283D01*
X8724Y384249D01*
X8654Y384224D01*
X8570Y384169D01*
X8481Y384123D01*
X8424Y384075D01*
X8361Y384035D01*
X8291Y383963D01*
X8215Y383898D01*
X8171Y383838D01*
X8119Y383784D01*
X8068Y383698D01*
X8008Y383617D01*
X7979Y383549D01*
X7940Y383485D01*
X7910Y383389D01*
X7870Y383297D01*
X7857Y383224D01*
X7834Y383153D01*
X7826Y383053D01*
X7808Y382954D01*
X7812Y382880D01*
X7806Y382806D01*
X7821Y382706D01*
X7826Y382606D01*
X7847Y382535D01*
X7858Y382461D01*
X7895Y382368D01*
X7923Y382271D01*
X7959Y382206D01*
X7987Y382137D01*
X8044Y382055D01*
X8093Y381967D01*
X8158Y381891D01*
X8186Y381851D01*
X8212Y381827D01*
X8251Y381781D01*
X10295Y379738D01*
X10295Y374242D01*
X10309Y374116D01*
X10316Y373990D01*
X10329Y373944D01*
X10335Y373896D01*
X10377Y373777D01*
X10412Y373655D01*
X10436Y373613D01*
X10452Y373567D01*
X10521Y373461D01*
X10529Y373447D01*
X10529Y365596D01*
X10515Y365530D01*
X10479Y365364D01*
X10479Y365362D01*
X10478Y365361D01*
X10482Y365181D01*
X10485Y365015D01*
X10485Y365014D01*
X10485Y365012D01*
X10529Y364838D01*
X10570Y364677D01*
X10570Y364676D01*
X10571Y364674D01*
X10676Y364453D01*
X10868Y364121D01*
X11041Y363475D01*
X11041Y360639D01*
X976Y360639D01*
X950Y360636D01*
X924Y360638D01*
X777Y360616D01*
X630Y360599D01*
X605Y360591D01*
X579Y360587D01*
X442Y360532D01*
X302Y360482D01*
X280Y360468D01*
X255Y360458D01*
X134Y360373D01*
X9Y360293D01*
X-3Y360280D01*
X-50Y360325D01*
G37*
%LPD*%
G36*
X397Y201729D02*
X397Y201729D01*
X721Y201858D01*
X1007Y202057D01*
X1240Y202316D01*
X1409Y202621D01*
X1504Y202956D01*
X1523Y203200D01*
X1523Y223210D01*
X2258Y224984D01*
X25207Y247933D01*
X25286Y248032D01*
X25370Y248126D01*
X25394Y248168D01*
X25424Y248206D01*
X25478Y248320D01*
X25539Y248431D01*
X25552Y248478D01*
X25573Y248521D01*
X25599Y248645D01*
X25634Y248766D01*
X25639Y248827D01*
X25646Y248862D01*
X25645Y248910D01*
X25653Y249010D01*
X25653Y330708D01*
X25650Y330734D01*
X25652Y330760D01*
X25630Y330907D01*
X25613Y331054D01*
X25605Y331079D01*
X25601Y331105D01*
X25546Y331243D01*
X25496Y331382D01*
X25482Y331404D01*
X25472Y331429D01*
X25387Y331550D01*
X25307Y331675D01*
X25288Y331693D01*
X25273Y331715D01*
X25163Y331814D01*
X25056Y331917D01*
X25034Y331931D01*
X25014Y331948D01*
X24884Y332020D01*
X24757Y332096D01*
X24732Y332104D01*
X24709Y332117D01*
X24566Y332157D01*
X24425Y332202D01*
X24399Y332204D01*
X24374Y332212D01*
X24130Y332231D01*
X14322Y332231D01*
X14296Y332228D01*
X14270Y332230D01*
X14123Y332208D01*
X13976Y332191D01*
X13951Y332183D01*
X13925Y332179D01*
X13787Y332124D01*
X13648Y332074D01*
X13626Y332060D01*
X13601Y332050D01*
X13480Y331965D01*
X13355Y331885D01*
X13337Y331866D01*
X13315Y331851D01*
X13216Y331741D01*
X13113Y331634D01*
X13099Y331612D01*
X13082Y331592D01*
X13010Y331462D01*
X12934Y331335D01*
X12926Y331310D01*
X12913Y331287D01*
X12873Y331144D01*
X12828Y331003D01*
X12826Y330977D01*
X12818Y330952D01*
X12799Y330708D01*
X12799Y328288D01*
X12813Y328162D01*
X12820Y328036D01*
X12833Y327990D01*
X12839Y327942D01*
X12881Y327823D01*
X12916Y327701D01*
X12940Y327659D01*
X12956Y327613D01*
X13025Y327507D01*
X13086Y327397D01*
X13126Y327351D01*
X13145Y327321D01*
X13180Y327287D01*
X13245Y327211D01*
X13279Y327177D01*
X13279Y320703D01*
X12237Y319661D01*
X7098Y319661D01*
X6989Y319713D01*
X6963Y319718D01*
X6939Y319729D01*
X6793Y319755D01*
X6648Y319786D01*
X6622Y319786D01*
X6596Y319791D01*
X6448Y319783D01*
X6300Y319780D01*
X6274Y319774D01*
X6248Y319773D01*
X6106Y319732D01*
X5962Y319695D01*
X5938Y319683D01*
X5913Y319676D01*
X5887Y319661D01*
X3647Y319661D01*
X3547Y319650D01*
X3447Y319648D01*
X3375Y319630D01*
X3301Y319621D01*
X3206Y319588D01*
X3109Y319563D01*
X3043Y319529D01*
X2973Y319504D01*
X2888Y319449D01*
X2799Y319403D01*
X2742Y319355D01*
X2680Y319315D01*
X2610Y319243D01*
X2534Y319178D01*
X2489Y319118D01*
X2438Y319064D01*
X2386Y318978D01*
X2326Y318897D01*
X2297Y318829D01*
X2259Y318765D01*
X2228Y318669D01*
X2188Y318577D01*
X2175Y318504D01*
X2153Y318433D01*
X2144Y318333D01*
X2127Y318234D01*
X2131Y318160D01*
X2125Y318086D01*
X2139Y317986D01*
X2145Y317886D01*
X2165Y317815D01*
X2176Y317741D01*
X2213Y317648D01*
X2241Y317551D01*
X2278Y317486D01*
X2305Y317417D01*
X2362Y317335D01*
X2411Y317247D01*
X2476Y317171D01*
X2504Y317131D01*
X2530Y317107D01*
X2570Y317061D01*
X6553Y313078D01*
X6553Y309242D01*
X6556Y309216D01*
X6554Y309190D01*
X6576Y309043D01*
X6593Y308896D01*
X6601Y308871D01*
X6605Y308845D01*
X6660Y308707D01*
X6710Y308568D01*
X6724Y308546D01*
X6734Y308521D01*
X6819Y308400D01*
X6899Y308275D01*
X6918Y308257D01*
X6933Y308235D01*
X7043Y308136D01*
X7150Y308033D01*
X7172Y308019D01*
X7192Y308002D01*
X7322Y307930D01*
X7449Y307854D01*
X7474Y307846D01*
X7497Y307833D01*
X7640Y307793D01*
X7781Y307748D01*
X7807Y307746D01*
X7832Y307738D01*
X8076Y307719D01*
X12237Y307719D01*
X13279Y306677D01*
X13279Y305931D01*
X13293Y305806D01*
X13300Y305680D01*
X13313Y305633D01*
X13319Y305585D01*
X13361Y305466D01*
X13396Y305345D01*
X13420Y305303D01*
X13436Y305257D01*
X13505Y305151D01*
X13561Y305051D01*
X13561Y293449D01*
X13575Y293324D01*
X13582Y293198D01*
X13595Y293151D01*
X13601Y293103D01*
X13643Y292984D01*
X13678Y292863D01*
X13702Y292821D01*
X13718Y292775D01*
X13787Y292669D01*
X13848Y292559D01*
X13888Y292512D01*
X13907Y292482D01*
X13942Y292449D01*
X14007Y292372D01*
X17781Y288598D01*
X17781Y280192D01*
X17784Y280166D01*
X17782Y280140D01*
X17804Y279993D01*
X17821Y279846D01*
X17829Y279821D01*
X17833Y279795D01*
X17888Y279657D01*
X17938Y279518D01*
X17952Y279496D01*
X17962Y279471D01*
X18047Y279350D01*
X18127Y279225D01*
X18146Y279207D01*
X18161Y279185D01*
X18271Y279086D01*
X18378Y278983D01*
X18400Y278969D01*
X18420Y278952D01*
X18550Y278880D01*
X18677Y278804D01*
X18702Y278796D01*
X18725Y278783D01*
X18868Y278743D01*
X19009Y278698D01*
X19035Y278696D01*
X19060Y278688D01*
X19304Y278669D01*
X19707Y278669D01*
X20749Y277627D01*
X20749Y265153D01*
X19563Y263967D01*
X19546Y263947D01*
X19526Y263930D01*
X19438Y263810D01*
X19346Y263694D01*
X19335Y263670D01*
X19319Y263649D01*
X19260Y263513D01*
X19197Y263379D01*
X19192Y263353D01*
X19181Y263329D01*
X19155Y263183D01*
X19124Y263038D01*
X19124Y263012D01*
X19119Y262986D01*
X19127Y262838D01*
X19130Y262690D01*
X19136Y262664D01*
X19137Y262638D01*
X19179Y262496D01*
X19215Y262352D01*
X19227Y262329D01*
X19234Y262303D01*
X19306Y262174D01*
X19374Y262042D01*
X19391Y262022D01*
X19404Y261999D01*
X19563Y261813D01*
X20749Y260627D01*
X20749Y248153D01*
X19707Y247111D01*
X8233Y247111D01*
X7427Y247917D01*
X7348Y247980D01*
X7276Y248050D01*
X7212Y248088D01*
X7154Y248134D01*
X7063Y248177D01*
X6977Y248228D01*
X6906Y248251D01*
X6839Y248283D01*
X6741Y248304D01*
X6645Y248335D01*
X6571Y248341D01*
X6498Y248356D01*
X6398Y248355D01*
X6298Y248363D01*
X6224Y248352D01*
X6150Y248350D01*
X6053Y248326D01*
X5953Y248311D01*
X5884Y248283D01*
X5812Y248265D01*
X5723Y248219D01*
X5629Y248182D01*
X5568Y248140D01*
X5502Y248106D01*
X5426Y248041D01*
X5343Y247983D01*
X5293Y247928D01*
X5237Y247880D01*
X5177Y247799D01*
X5110Y247725D01*
X5074Y247659D01*
X5029Y247600D01*
X4990Y247508D01*
X4941Y247420D01*
X4921Y247348D01*
X4891Y247280D01*
X4874Y247181D01*
X4846Y247084D01*
X4838Y246984D01*
X4830Y246937D01*
X4832Y246901D01*
X4827Y246840D01*
X4827Y233990D01*
X4092Y232216D01*
X-1077Y227047D01*
X-1156Y226948D01*
X-1240Y226854D01*
X-1264Y226812D01*
X-1294Y226774D01*
X-1348Y226660D01*
X-1409Y226549D01*
X-1422Y226502D01*
X-1443Y226459D01*
X-1469Y226335D01*
X-1504Y226214D01*
X-1509Y226153D01*
X-1516Y226118D01*
X-1515Y226070D01*
X-1523Y225970D01*
X-1523Y203200D01*
X-1483Y202854D01*
X-1366Y202526D01*
X-1177Y202233D01*
X-926Y201991D01*
X-627Y201812D01*
X-295Y201706D01*
X52Y201678D01*
X397Y201729D01*
G37*
%LPC*%
G36*
X10477Y-61977D02*
X10477Y-61977D01*
X6369Y-60275D01*
X3225Y-57131D01*
X1523Y-53023D01*
X1523Y-48577D01*
X3225Y-44469D01*
X6369Y-41325D01*
X10477Y-39623D01*
X14923Y-39623D01*
X19031Y-41325D01*
X22175Y-44469D01*
X23877Y-48577D01*
X23877Y-53023D01*
X22175Y-57131D01*
X19031Y-60275D01*
X14923Y-61977D01*
X10477Y-61977D01*
G37*
%LPD*%
%LPC*%
G36*
X1523Y462159D02*
X1523Y462159D01*
X1523Y466950D01*
X1523Y472321D01*
X1540Y472338D01*
X1591Y472424D01*
X1651Y472505D01*
X1680Y472573D01*
X1718Y472637D01*
X1749Y472733D01*
X1789Y472825D01*
X1802Y472898D01*
X1825Y472969D01*
X1833Y473069D01*
X1850Y473168D01*
X1847Y473242D01*
X1853Y473316D01*
X1838Y473416D01*
X1833Y473516D01*
X1812Y473587D01*
X1801Y473661D01*
X1764Y473754D01*
X1736Y473851D01*
X1700Y473916D01*
X1672Y473985D01*
X1615Y474067D01*
X1566Y474155D01*
X1501Y474231D01*
X1473Y474271D01*
X1447Y474295D01*
X1407Y474341D01*
X-509Y476257D01*
X-509Y491483D01*
X1723Y493715D01*
X6357Y498349D01*
X7394Y498349D01*
X7519Y498363D01*
X7646Y498370D01*
X7692Y498383D01*
X7740Y498389D01*
X7859Y498431D01*
X7980Y498466D01*
X8023Y498490D01*
X8068Y498506D01*
X8174Y498575D01*
X8285Y498636D01*
X8331Y498676D01*
X8361Y498695D01*
X8394Y498730D01*
X8471Y498795D01*
X9606Y499930D01*
X11614Y500762D01*
X13786Y500762D01*
X15794Y499930D01*
X17330Y498394D01*
X18162Y496386D01*
X18162Y494214D01*
X17330Y492206D01*
X15794Y490670D01*
X13786Y489838D01*
X11614Y489838D01*
X9606Y490670D01*
X9531Y490745D01*
X9510Y490761D01*
X9493Y490781D01*
X9374Y490870D01*
X9258Y490962D01*
X9234Y490973D01*
X9213Y490989D01*
X9077Y491047D01*
X8943Y491111D01*
X8917Y491116D01*
X8893Y491127D01*
X8747Y491153D01*
X8602Y491184D01*
X8576Y491184D01*
X8550Y491188D01*
X8402Y491181D01*
X8254Y491178D01*
X8228Y491172D01*
X8202Y491170D01*
X8060Y491129D01*
X7916Y491093D01*
X7892Y491081D01*
X7867Y491074D01*
X7738Y491001D01*
X7606Y490933D01*
X7586Y490916D01*
X7563Y490904D01*
X7377Y490745D01*
X6035Y489403D01*
X5956Y489304D01*
X5872Y489210D01*
X5848Y489168D01*
X5818Y489130D01*
X5764Y489016D01*
X5703Y488905D01*
X5690Y488859D01*
X5669Y488815D01*
X5643Y488692D01*
X5608Y488570D01*
X5603Y488509D01*
X5596Y488474D01*
X5597Y488426D01*
X5589Y488326D01*
X5589Y479414D01*
X5603Y479288D01*
X5610Y479162D01*
X5623Y479116D01*
X5629Y479068D01*
X5671Y478949D01*
X5706Y478827D01*
X5730Y478785D01*
X5746Y478739D01*
X5815Y478633D01*
X5876Y478523D01*
X5916Y478477D01*
X5935Y478447D01*
X5970Y478413D01*
X6035Y478337D01*
X9549Y474823D01*
X9549Y470798D01*
X9563Y470672D01*
X9570Y470546D01*
X9583Y470500D01*
X9589Y470452D01*
X9631Y470333D01*
X9666Y470211D01*
X9690Y470169D01*
X9706Y470123D01*
X9775Y470017D01*
X9779Y470010D01*
X9779Y463963D01*
X8737Y462921D01*
X3909Y462921D01*
X3808Y462910D01*
X3706Y462908D01*
X3635Y462890D01*
X3563Y462881D01*
X3467Y462847D01*
X3368Y462822D01*
X3279Y462780D01*
X3234Y462764D01*
X3204Y462744D01*
X3147Y462717D01*
X2481Y462332D01*
X1835Y462159D01*
X1523Y462159D01*
G37*
%LPD*%
%LPC*%
G36*
X-1835Y462159D02*
X-1835Y462159D01*
X-2481Y462332D01*
X-3147Y462717D01*
X-3240Y462758D01*
X-3330Y462807D01*
X-3400Y462827D01*
X-3467Y462856D01*
X-3567Y462874D01*
X-3665Y462902D01*
X-3763Y462910D01*
X-3810Y462918D01*
X-3846Y462916D01*
X-3909Y462921D01*
X-8737Y462921D01*
X-9779Y463963D01*
X-9779Y469937D01*
X-8737Y470979D01*
X-3909Y470979D01*
X-3808Y470990D01*
X-3706Y470992D01*
X-3635Y471010D01*
X-3563Y471019D01*
X-3467Y471053D01*
X-3368Y471078D01*
X-3279Y471120D01*
X-3234Y471136D01*
X-3204Y471156D01*
X-3147Y471183D01*
X-2481Y471568D01*
X-1835Y471741D01*
X-1523Y471741D01*
X-1523Y466950D01*
X-1523Y462159D01*
X-1835Y462159D01*
G37*
%LPD*%
%LPC*%
G36*
X-40896Y-62445D02*
X-40896Y-62445D01*
X-42683Y-61864D01*
X-44357Y-61011D01*
X-45878Y-59906D01*
X-47206Y-58578D01*
X-48311Y-57057D01*
X-49164Y-55383D01*
X-49745Y-53596D01*
X-49785Y-53339D01*
X-40639Y-53339D01*
X-40639Y-62485D01*
X-40896Y-62445D01*
G37*
%LPD*%
%LPC*%
G36*
X-49785Y-48261D02*
X-49785Y-48261D01*
X-49745Y-48004D01*
X-49164Y-46217D01*
X-48311Y-44543D01*
X-47206Y-43022D01*
X-45878Y-41694D01*
X-44357Y-40589D01*
X-42683Y-39736D01*
X-40896Y-39155D01*
X-40639Y-39115D01*
X-40639Y-48261D01*
X-49785Y-48261D01*
G37*
%LPD*%
%LPC*%
G36*
X33859Y413979D02*
X33859Y413979D01*
X33859Y419021D01*
X37195Y419021D01*
X37841Y418848D01*
X38420Y418513D01*
X38893Y418040D01*
X39228Y417461D01*
X39401Y416815D01*
X39401Y413979D01*
X33859Y413979D01*
G37*
%LPD*%
%LPC*%
G36*
X33859Y393659D02*
X33859Y393659D01*
X33859Y398701D01*
X37195Y398701D01*
X37841Y398528D01*
X38420Y398193D01*
X38893Y397720D01*
X39228Y397141D01*
X39401Y396495D01*
X39401Y393659D01*
X33859Y393659D01*
G37*
%LPD*%
%LPC*%
G36*
X-21511Y273889D02*
X-21511Y273889D01*
X-21511Y277225D01*
X-21338Y277871D01*
X-21003Y278450D01*
X-20530Y278923D01*
X-19951Y279258D01*
X-19305Y279431D01*
X-16469Y279431D01*
X-16469Y273889D01*
X-21511Y273889D01*
G37*
%LPD*%
%LPC*%
G36*
X-39401Y413979D02*
X-39401Y413979D01*
X-39401Y416815D01*
X-39228Y417461D01*
X-38893Y418040D01*
X-38420Y418513D01*
X-37841Y418848D01*
X-37195Y419021D01*
X-33859Y419021D01*
X-33859Y413979D01*
X-39401Y413979D01*
G37*
%LPD*%
%LPC*%
G36*
X-37195Y403939D02*
X-37195Y403939D01*
X-37841Y404112D01*
X-38420Y404447D01*
X-38893Y404920D01*
X-39228Y405499D01*
X-39401Y406145D01*
X-39401Y408981D01*
X-33859Y408981D01*
X-33859Y403939D01*
X-37195Y403939D01*
G37*
%LPD*%
%LPC*%
G36*
X33859Y403939D02*
X33859Y403939D01*
X33859Y408981D01*
X39401Y408981D01*
X39401Y406145D01*
X39228Y405499D01*
X38893Y404920D01*
X38420Y404447D01*
X37841Y404112D01*
X37195Y403939D01*
X33859Y403939D01*
G37*
%LPD*%
%LPC*%
G36*
X33859Y383619D02*
X33859Y383619D01*
X33859Y388661D01*
X39401Y388661D01*
X39401Y385825D01*
X39228Y385179D01*
X38893Y384600D01*
X38420Y384127D01*
X37841Y383792D01*
X37195Y383619D01*
X33859Y383619D01*
G37*
%LPD*%
%LPC*%
G36*
X-14041Y325463D02*
X-14041Y325463D01*
X-14041Y326775D01*
X-13868Y327421D01*
X-13533Y328000D01*
X-13060Y328473D01*
X-12481Y328808D01*
X-11835Y328981D01*
X-11273Y328981D01*
X-11273Y325463D01*
X-14041Y325463D01*
G37*
%LPD*%
%LPC*%
G36*
X-11835Y318899D02*
X-11835Y318899D01*
X-12481Y319072D01*
X-13060Y319407D01*
X-13533Y319880D01*
X-13868Y320459D01*
X-14041Y321105D01*
X-14041Y322417D01*
X-11273Y322417D01*
X-11273Y318899D01*
X-11835Y318899D01*
G37*
%LPD*%
%LPC*%
G36*
X-10541Y448973D02*
X-10541Y448973D01*
X-10541Y450035D01*
X-10368Y450681D01*
X-10033Y451260D01*
X-9560Y451733D01*
X-8981Y452068D01*
X-8335Y452241D01*
X-8023Y452241D01*
X-8023Y448973D01*
X-10541Y448973D01*
G37*
%LPD*%
D10*
X-13970Y254390D03*
X-13970Y271390D03*
D11*
X-38100Y-50800D03*
X-12700Y-50800D03*
X12700Y-50800D03*
X38100Y-50800D03*
D10*
X13970Y271390D03*
X13970Y254390D03*
D12*
X-9750Y323940D03*
X-3250Y323940D03*
X3250Y323940D03*
X9750Y323940D03*
X9750Y303440D03*
X3250Y303440D03*
X-3250Y303440D03*
X-9750Y303440D03*
D13*
X-14360Y411480D03*
X-31360Y411480D03*
X14360Y391160D03*
X31360Y391160D03*
D14*
X-6500Y466950D03*
X0Y466950D03*
X6500Y466950D03*
X6500Y447450D03*
X0Y447450D03*
X-6500Y447450D03*
D15*
X0Y358140D03*
D16*
X-7500Y346640D03*
X-2500Y346640D03*
X2500Y346640D03*
X7500Y346640D03*
X7500Y369640D03*
X2500Y369640D03*
X-2500Y369640D03*
X-7500Y369640D03*
D13*
X14360Y411480D03*
X31360Y411480D03*
X-31360Y391160D03*
X-14360Y391160D03*
D17*
X-20320Y313690D03*
X20320Y313690D03*
D18*
X-76200Y-53975D03*
D17*
X25400Y25400D03*
X-25400Y25400D03*
X25400Y222250D03*
X-25400Y222250D03*
D19*
X-2500Y346640D02*
X-2500Y355640D01*
X-1270Y356870D01*
X0Y358140D01*
X-7500Y363100D02*
X-7500Y369640D01*
X-7500Y363100D02*
X-1270Y356870D01*
X-2500Y360640D02*
X-2500Y369640D01*
X-2500Y360640D02*
X0Y358140D01*
D17*
X-12700Y495300D03*
X-43180Y401320D03*
X43180Y401320D03*
D20*
X30480Y335280D02*
X30480Y246380D01*
X38100Y-12700D02*
X38100Y-50800D01*
X38100Y-12700D02*
X6350Y19050D01*
X6350Y222250D01*
X30480Y246380D01*
D18*
X76200Y-53975D03*
D20*
X41275Y-53975D01*
X38100Y-50800D01*
D17*
X30480Y335280D03*
D21*
X7500Y337940D02*
X7500Y346640D01*
X9750Y335280D02*
X9750Y323940D01*
X9750Y335280D02*
X30480Y335280D01*
X9750Y335280D02*
X9750Y335690D01*
X7500Y337940D01*
D22*
X12700Y495300D03*
D21*
X7620Y495300D01*
X2540Y490220D01*
X2540Y477520D01*
X6500Y473560D01*
X6500Y466950D01*
D18*
X76200Y-22225D03*
D17*
X-30480Y335280D03*
D21*
X-7500Y335280D02*
X-7500Y346640D01*
X-7500Y335280D02*
X-30480Y335280D01*
X-7500Y335280D02*
X0Y335280D01*
X3250Y332030D02*
X3250Y323940D01*
X3250Y332030D02*
X0Y335280D01*
X6500Y442353D02*
X6500Y447450D01*
X2540Y426720D02*
X5080Y424180D01*
D22*
X5080Y424180D03*
D21*
X2540Y438393D02*
X6500Y442353D01*
X2540Y438393D02*
X2540Y426720D01*
D23*
X0Y255270D03*
D24*
X0Y281940D01*
X3250Y285190D02*
X3250Y303440D01*
X3250Y285190D02*
X0Y281940D01*
X-9750Y291690D02*
X-9750Y303440D01*
X-9750Y291690D02*
X0Y281940D01*
D25*
X3250Y303440D02*
X3250Y311710D01*
X-3250Y318210D02*
X-3250Y323940D01*
X-3250Y318210D02*
X3250Y311710D01*
D20*
X0Y234950D02*
X-6350Y228600D01*
D18*
X-76200Y-22225D03*
D20*
X-12700Y-22225D01*
X-12700Y-50800D01*
X-12700Y-22225D02*
X-6350Y-15875D01*
X-6350Y228600D01*
D24*
X0Y255270D02*
X13090Y255270D01*
X13970Y254390D01*
X0Y255270D02*
X-13090Y255270D01*
X-13970Y254390D01*
D20*
X0Y255270D02*
X0Y234950D01*
D23*
X0Y391160D03*
D20*
X-14360Y391160D01*
D19*
X7500Y378580D02*
X7500Y369640D01*
X0Y386080D02*
X0Y391160D01*
X0Y386080D02*
X7500Y378580D01*
D20*
X0Y411480D02*
X-14360Y411480D01*
X0Y411480D02*
X14360Y411480D01*
X14360Y391160D02*
X0Y391160D01*
X0Y411480D01*
D21*
X-2540Y414020D01*
X-2540Y439420D01*
X0Y441960D01*
X0Y447450D01*
D24*
X13970Y287020D02*
X13970Y271390D01*
X13970Y287020D02*
X9750Y291240D01*
X9750Y303440D01*
D21*
X2500Y369640D02*
X2500Y375880D01*
X2540Y375920D01*
X0Y378460D01*
X-25400Y378460D01*
X-31360Y384420D01*
X-31360Y391160D01*
M02*
