G04 EAGLE Gerber RS-274X export*
G75*
%MOMM*%
%FSLAX34Y34*%
%LPD*%
%IN*%
%IPPOS*%
%AMOC8*
5,1,8,0,0,1.08239X$1,22.5*%
G01*
%ADD10C,0.812800*%
%ADD11C,0.254000*%


D10*
X-22860Y447040D02*
X-22856Y446733D01*
X-22845Y446426D01*
X-22827Y446120D01*
X-22801Y445814D01*
X-22767Y445509D01*
X-22727Y445205D01*
X-22679Y444902D01*
X-22623Y444600D01*
X-22561Y444300D01*
X-22491Y444001D01*
X-22414Y443704D01*
X-22330Y443408D01*
X-22238Y443115D01*
X-22140Y442825D01*
X-22035Y442537D01*
X-21922Y442251D01*
X-21803Y441968D01*
X-21677Y441688D01*
X-21545Y441411D01*
X-21405Y441138D01*
X-21259Y440868D01*
X-21107Y440602D01*
X-20948Y440339D01*
X-20783Y440080D01*
X-20612Y439826D01*
X-20435Y439575D01*
X-20251Y439329D01*
X-20062Y439087D01*
X-19867Y438851D01*
X-19666Y438618D01*
X-19460Y438391D01*
X-19248Y438169D01*
X-19031Y437952D01*
X-18809Y437740D01*
X-18582Y437534D01*
X-18349Y437333D01*
X-18113Y437138D01*
X-17871Y436949D01*
X-17625Y436765D01*
X-17374Y436588D01*
X-17120Y436417D01*
X-16861Y436252D01*
X-16598Y436093D01*
X-16332Y435941D01*
X-16062Y435795D01*
X-15789Y435655D01*
X-15512Y435523D01*
X-15232Y435397D01*
X-14949Y435278D01*
X-14663Y435165D01*
X-14375Y435060D01*
X-14085Y434962D01*
X-13792Y434870D01*
X-13496Y434786D01*
X-13199Y434709D01*
X-12900Y434639D01*
X-12600Y434577D01*
X-12298Y434521D01*
X-11995Y434473D01*
X-11691Y434433D01*
X-11386Y434399D01*
X-11080Y434373D01*
X-10774Y434355D01*
X-10467Y434344D01*
X-10160Y434340D01*
X-22860Y467360D02*
X-22856Y467667D01*
X-22845Y467974D01*
X-22827Y468280D01*
X-22801Y468586D01*
X-22767Y468891D01*
X-22727Y469195D01*
X-22679Y469498D01*
X-22623Y469800D01*
X-22561Y470100D01*
X-22491Y470399D01*
X-22414Y470696D01*
X-22330Y470992D01*
X-22238Y471285D01*
X-22140Y471575D01*
X-22035Y471863D01*
X-21922Y472149D01*
X-21803Y472432D01*
X-21677Y472712D01*
X-21545Y472989D01*
X-21405Y473262D01*
X-21259Y473532D01*
X-21107Y473798D01*
X-20948Y474061D01*
X-20783Y474320D01*
X-20612Y474574D01*
X-20435Y474825D01*
X-20251Y475071D01*
X-20062Y475313D01*
X-19867Y475549D01*
X-19666Y475782D01*
X-19460Y476009D01*
X-19248Y476231D01*
X-19031Y476448D01*
X-18809Y476660D01*
X-18582Y476866D01*
X-18349Y477067D01*
X-18113Y477262D01*
X-17871Y477451D01*
X-17625Y477635D01*
X-17374Y477812D01*
X-17120Y477983D01*
X-16861Y478148D01*
X-16598Y478307D01*
X-16332Y478459D01*
X-16062Y478605D01*
X-15789Y478745D01*
X-15512Y478877D01*
X-15232Y479003D01*
X-14949Y479122D01*
X-14663Y479235D01*
X-14375Y479340D01*
X-14085Y479438D01*
X-13792Y479530D01*
X-13496Y479614D01*
X-13199Y479691D01*
X-12900Y479761D01*
X-12600Y479823D01*
X-12298Y479879D01*
X-11995Y479927D01*
X-11691Y479967D01*
X-11386Y480001D01*
X-11080Y480027D01*
X-10774Y480045D01*
X-10467Y480056D01*
X-10160Y480060D01*
X10160Y480060D02*
X10467Y480056D01*
X10774Y480045D01*
X11080Y480027D01*
X11386Y480001D01*
X11691Y479967D01*
X11995Y479927D01*
X12298Y479879D01*
X12600Y479823D01*
X12900Y479761D01*
X13199Y479691D01*
X13496Y479614D01*
X13792Y479530D01*
X14085Y479438D01*
X14375Y479340D01*
X14663Y479235D01*
X14949Y479122D01*
X15232Y479003D01*
X15512Y478877D01*
X15789Y478745D01*
X16062Y478605D01*
X16332Y478459D01*
X16598Y478307D01*
X16861Y478148D01*
X17120Y477983D01*
X17374Y477812D01*
X17625Y477635D01*
X17871Y477451D01*
X18113Y477262D01*
X18349Y477067D01*
X18582Y476866D01*
X18809Y476660D01*
X19031Y476448D01*
X19248Y476231D01*
X19460Y476009D01*
X19666Y475782D01*
X19867Y475549D01*
X20062Y475313D01*
X20251Y475071D01*
X20435Y474825D01*
X20612Y474574D01*
X20783Y474320D01*
X20948Y474061D01*
X21107Y473798D01*
X21259Y473532D01*
X21405Y473262D01*
X21545Y472989D01*
X21677Y472712D01*
X21803Y472432D01*
X21922Y472149D01*
X22035Y471863D01*
X22140Y471575D01*
X22238Y471285D01*
X22330Y470992D01*
X22414Y470696D01*
X22491Y470399D01*
X22561Y470100D01*
X22623Y469800D01*
X22679Y469498D01*
X22727Y469195D01*
X22767Y468891D01*
X22801Y468586D01*
X22827Y468280D01*
X22845Y467974D01*
X22856Y467667D01*
X22860Y467360D01*
X22860Y447040D02*
X22856Y446733D01*
X22845Y446426D01*
X22827Y446120D01*
X22801Y445814D01*
X22767Y445509D01*
X22727Y445205D01*
X22679Y444902D01*
X22623Y444600D01*
X22561Y444300D01*
X22491Y444001D01*
X22414Y443704D01*
X22330Y443408D01*
X22238Y443115D01*
X22140Y442825D01*
X22035Y442537D01*
X21922Y442251D01*
X21803Y441968D01*
X21677Y441688D01*
X21545Y441411D01*
X21405Y441138D01*
X21259Y440868D01*
X21107Y440602D01*
X20948Y440339D01*
X20783Y440080D01*
X20612Y439826D01*
X20435Y439575D01*
X20251Y439329D01*
X20062Y439087D01*
X19867Y438851D01*
X19666Y438618D01*
X19460Y438391D01*
X19248Y438169D01*
X19031Y437952D01*
X18809Y437740D01*
X18582Y437534D01*
X18349Y437333D01*
X18113Y437138D01*
X17871Y436949D01*
X17625Y436765D01*
X17374Y436588D01*
X17120Y436417D01*
X16861Y436252D01*
X16598Y436093D01*
X16332Y435941D01*
X16062Y435795D01*
X15789Y435655D01*
X15512Y435523D01*
X15232Y435397D01*
X14949Y435278D01*
X14663Y435165D01*
X14375Y435060D01*
X14085Y434962D01*
X13792Y434870D01*
X13496Y434786D01*
X13199Y434709D01*
X12900Y434639D01*
X12600Y434577D01*
X12298Y434521D01*
X11995Y434473D01*
X11691Y434433D01*
X11386Y434399D01*
X11080Y434373D01*
X10774Y434355D01*
X10467Y434344D01*
X10160Y434340D01*
X-22860Y447040D02*
X-22860Y467360D01*
X22860Y467360D02*
X22860Y447040D01*
D11*
X-101600Y-76200D02*
X101600Y-76200D01*
X101600Y0D01*
X50800Y0D01*
X50800Y19050D01*
X41927Y38078D01*
X34746Y57807D01*
X29313Y78086D01*
X25667Y98762D01*
X23837Y119678D01*
X23837Y140673D01*
X25667Y161588D01*
X29313Y182264D01*
X34746Y202543D01*
X41927Y222272D01*
X50800Y241300D01*
X50800Y457200D01*
X50607Y461628D01*
X50028Y466021D01*
X49069Y470348D01*
X47736Y474575D01*
X46040Y478669D01*
X43994Y482600D01*
X41613Y486338D01*
X38915Y489854D01*
X35921Y493121D01*
X32654Y496115D01*
X29138Y498813D01*
X25400Y501194D01*
X21469Y503240D01*
X17375Y504936D01*
X13148Y506269D01*
X8821Y507228D01*
X4428Y507807D01*
X0Y508000D01*
X-4428Y507807D01*
X-8821Y507228D01*
X-13148Y506269D01*
X-17375Y504936D01*
X-21469Y503240D01*
X-25400Y501194D01*
X-29138Y498813D01*
X-32654Y496115D01*
X-35921Y493121D01*
X-38915Y489854D01*
X-41613Y486338D01*
X-43994Y482600D01*
X-46040Y478669D01*
X-47736Y474575D01*
X-49069Y470348D01*
X-50028Y466021D01*
X-50607Y461628D01*
X-50800Y457200D01*
X-50800Y241300D01*
X-41927Y222272D01*
X-34746Y202543D01*
X-29313Y182264D01*
X-25667Y161588D01*
X-23837Y140673D01*
X-23837Y119678D01*
X-25667Y98762D01*
X-29313Y78086D01*
X-34746Y57807D01*
X-41927Y38078D01*
X-50800Y19050D01*
X-50800Y0D01*
X-101600Y0D01*
X-101600Y-76200D01*
M02*
