G04 EAGLE Gerber RS-274X export*
G75*
%MOMM*%
%FSLAX34Y34*%
%LPD*%
%INSilkscreen Bottom*%
%IPPOS*%
%AMOC8*
5,1,8,0,0,1.08239X$1,22.5*%
G01*
%ADD10C,0.152400*%


D10*
X8382Y171581D02*
X13805Y166158D01*
X19229Y166158D01*
X24652Y171581D01*
X24652Y185207D02*
X21940Y187919D01*
X24652Y185207D02*
X24652Y179784D01*
X21940Y177072D01*
X11094Y177072D01*
X8382Y179784D01*
X8382Y185207D01*
X11094Y187919D01*
X8382Y193444D02*
X13805Y198867D01*
X19229Y198867D01*
X24652Y193444D01*
X8382Y220730D02*
X8382Y231576D01*
X8382Y220730D02*
X19229Y231576D01*
X21940Y231576D01*
X24652Y228865D01*
X24652Y223441D01*
X21940Y220730D01*
X21940Y237101D02*
X11094Y237101D01*
X21940Y237101D02*
X24652Y239813D01*
X24652Y245236D01*
X21940Y247948D01*
X11094Y247948D01*
X8382Y245236D01*
X8382Y239813D01*
X11094Y237101D01*
X21940Y247948D01*
X19229Y253473D02*
X24652Y258896D01*
X8382Y258896D01*
X8382Y253473D02*
X8382Y264319D01*
X11094Y269844D02*
X8382Y272556D01*
X8382Y277979D01*
X11094Y280691D01*
X21940Y280691D01*
X24652Y277979D01*
X24652Y272556D01*
X21940Y269844D01*
X19229Y269844D01*
X16517Y272556D01*
X16517Y280691D01*
X-23711Y80190D02*
X-23711Y77478D01*
X-23711Y80190D02*
X-21000Y82902D01*
X-7441Y82902D01*
X-2018Y82902D02*
X694Y82902D01*
X-18288Y91104D02*
X-18288Y96528D01*
X-15576Y99239D01*
X-10153Y99239D01*
X-7441Y96528D01*
X-7441Y91104D01*
X-10153Y88393D01*
X-15576Y88393D01*
X-18288Y91104D01*
X-18288Y104764D02*
X-2018Y104764D01*
X-7441Y107476D02*
X-10153Y104764D01*
X-7441Y107476D02*
X-7441Y112899D01*
X-10153Y115611D01*
X-18288Y115611D01*
X-18288Y121136D02*
X-7441Y121136D01*
X-7441Y129271D01*
X-10153Y131982D01*
X-18288Y131982D01*
X-18288Y137507D02*
X-15576Y137507D01*
X-15576Y140219D01*
X-18288Y140219D01*
X-18288Y137507D01*
X-18288Y145693D02*
X-2018Y145693D01*
X-7441Y148405D02*
X-10153Y145693D01*
X-7441Y148405D02*
X-7441Y153828D01*
X-10153Y156540D01*
X-18288Y156540D01*
X-15576Y162065D02*
X-7441Y162065D01*
X-15576Y162065D02*
X-18288Y164776D01*
X-18288Y172911D01*
X-7441Y172911D01*
X-2018Y178436D02*
X-2018Y181148D01*
X-18288Y181148D01*
X-18288Y178436D02*
X-18288Y183860D01*
X-15576Y192062D02*
X-4730Y192062D01*
X-15576Y192062D02*
X-18288Y194774D01*
X-7441Y194774D02*
X-7441Y189351D01*
X-2018Y200265D02*
X-18288Y200265D01*
X-10153Y200265D02*
X-7441Y202977D01*
X-7441Y208400D01*
X-10153Y211112D01*
X-18288Y211112D01*
X-18288Y224772D02*
X-15576Y227483D01*
X-18288Y224772D02*
X-18288Y219348D01*
X-15576Y216637D01*
X-4730Y216637D01*
X-2018Y219348D01*
X-2018Y224772D01*
X-4730Y227483D01*
X-10153Y227483D01*
X-12865Y224772D01*
X-12865Y219348D01*
X-7441Y219348D01*
X-7441Y224772D01*
X-12865Y224772D01*
X-23711Y238432D02*
X-23711Y241143D01*
X-21000Y243855D01*
X-7441Y243855D01*
X-7441Y235720D01*
X-10153Y233008D01*
X-15576Y233008D01*
X-18288Y235720D01*
X-18288Y243855D01*
X-18288Y252091D02*
X-18288Y257515D01*
X-18288Y252091D02*
X-15576Y249380D01*
X-10153Y249380D01*
X-7441Y252091D01*
X-7441Y257515D01*
X-10153Y260226D01*
X-12865Y260226D01*
X-12865Y249380D01*
X-18288Y268463D02*
X-18288Y273886D01*
X-15576Y276598D01*
X-10153Y276598D01*
X-7441Y273886D01*
X-7441Y268463D01*
X-10153Y265751D01*
X-15576Y265751D01*
X-18288Y268463D01*
X-18288Y282123D02*
X-15576Y282123D01*
X-15576Y284835D01*
X-18288Y284835D01*
X-18288Y282123D01*
X-15576Y290309D02*
X-7441Y290309D01*
X-15576Y290309D02*
X-18288Y293020D01*
X-18288Y301155D01*
X-7441Y301155D01*
X-7441Y306680D02*
X-7441Y309392D01*
X-18288Y309392D01*
X-18288Y306680D02*
X-18288Y312104D01*
X-2018Y309392D02*
X694Y309392D01*
X-18288Y320306D02*
X-18288Y325730D01*
X-15576Y328441D01*
X-10153Y328441D01*
X-7441Y325730D01*
X-7441Y320306D01*
X-10153Y317595D01*
X-15576Y317595D01*
X-18288Y320306D01*
X-18288Y333966D02*
X-15576Y333966D01*
X-15576Y336678D01*
X-18288Y336678D01*
X-18288Y333966D01*
X-18288Y342152D02*
X-7441Y342152D01*
X-7441Y350287D01*
X-10153Y352999D01*
X-18288Y352999D01*
X-18288Y361235D02*
X-18288Y366658D01*
X-15576Y369370D01*
X-10153Y369370D01*
X-7441Y366658D01*
X-7441Y361235D01*
X-10153Y358524D01*
X-15576Y358524D01*
X-18288Y361235D01*
M02*
