G04 EAGLE Gerber RS-274X export*
G75*
%MOMM*%
%FSLAX34Y34*%
%LPD*%
%INSilkscreen Top*%
%IPPOS*%
%AMOC8*
5,1,8,0,0,1.08239X$1,22.5*%
G01*
%ADD10C,0.304800*%
%ADD11C,0.152400*%
%ADD12C,0.127000*%
%ADD13C,0.508000*%
%ADD14C,0.203200*%
%ADD15C,0.406400*%


D10*
X-50800Y0D02*
X50800Y0D01*
D11*
X-52106Y-12695D02*
X-59563Y-12695D01*
X-55835Y-8967D02*
X-55835Y-16424D01*
X-47869Y-8967D02*
X-46005Y-7102D01*
X-42276Y-7102D01*
X-40412Y-8967D01*
X-40412Y-10831D01*
X-42276Y-12695D01*
X-44141Y-12695D01*
X-42276Y-12695D02*
X-40412Y-14560D01*
X-40412Y-16424D01*
X-42276Y-18288D01*
X-46005Y-18288D01*
X-47869Y-16424D01*
X-36175Y-14560D02*
X-36175Y-7102D01*
X-36175Y-14560D02*
X-32447Y-18288D01*
X-28718Y-14560D01*
X-28718Y-7102D01*
X-24481Y-8967D02*
X-22617Y-7102D01*
X-18888Y-7102D01*
X-17024Y-8967D01*
X-17024Y-10831D01*
X-18888Y-12695D01*
X-20753Y-12695D01*
X-18888Y-12695D02*
X-17024Y-14560D01*
X-17024Y-16424D01*
X-18888Y-18288D01*
X-22617Y-18288D01*
X-24481Y-16424D01*
X-57053Y-34956D02*
X-59443Y-33842D01*
X-62947Y-35117D01*
X-64061Y-37506D01*
X-61510Y-44514D01*
X-59121Y-45628D01*
X-55617Y-44353D01*
X-54503Y-41963D01*
X-55778Y-38459D01*
X-59282Y-39735D01*
X-49884Y-42266D02*
X-53710Y-31755D01*
X-42877Y-39715D01*
X-46702Y-29204D01*
X-42721Y-27755D02*
X-38895Y-38266D01*
X-33640Y-36353D01*
X-32525Y-33964D01*
X-35076Y-26957D01*
X-37465Y-25842D01*
X-42721Y-27755D01*
X31598Y-7102D02*
X33462Y-8967D01*
X31598Y-7102D02*
X27869Y-7102D01*
X26005Y-8967D01*
X26005Y-10831D01*
X27869Y-12695D01*
X31598Y-12695D01*
X33462Y-14560D01*
X33462Y-16424D01*
X31598Y-18288D01*
X27869Y-18288D01*
X26005Y-16424D01*
X37699Y-18288D02*
X37699Y-7102D01*
X37699Y-18288D02*
X43292Y-18288D01*
X45156Y-16424D01*
X45156Y-8967D01*
X43292Y-7102D01*
X37699Y-7102D01*
X49393Y-10831D02*
X49393Y-18288D01*
X49393Y-10831D02*
X53121Y-7102D01*
X56850Y-10831D01*
X56850Y-18288D01*
X56850Y-12695D02*
X49393Y-12695D01*
X38420Y-26190D02*
X39534Y-28579D01*
X38420Y-26190D02*
X34916Y-24914D01*
X32527Y-26029D01*
X31889Y-27780D01*
X33003Y-30170D01*
X36507Y-31445D01*
X37621Y-33835D01*
X36983Y-35586D01*
X34594Y-36701D01*
X31090Y-35425D01*
X29976Y-33036D01*
X49408Y-30189D02*
X50523Y-32579D01*
X49408Y-30189D02*
X45905Y-28914D01*
X43515Y-30028D01*
X40965Y-37036D01*
X42079Y-39425D01*
X45583Y-40700D01*
X47972Y-39586D01*
X51316Y-42787D02*
X55142Y-32276D01*
X51316Y-42787D02*
X58323Y-45337D01*
X8128Y13462D02*
X-8142Y13462D01*
X8128Y13462D02*
X8128Y24309D01*
X-2719Y32545D02*
X-2719Y37969D01*
X-7Y40680D01*
X8128Y40680D01*
X8128Y32545D01*
X5416Y29834D01*
X2705Y32545D01*
X2705Y40680D01*
X13551Y51628D02*
X13551Y54340D01*
X10840Y57052D01*
X-2719Y57052D01*
X-2719Y48917D01*
X-7Y46205D01*
X5416Y46205D01*
X8128Y48917D01*
X8128Y57052D01*
X8128Y65288D02*
X8128Y70712D01*
X5416Y73423D01*
X-7Y73423D01*
X-2719Y70712D01*
X-2719Y65288D01*
X-7Y62577D01*
X5416Y62577D01*
X8128Y65288D01*
X13551Y78948D02*
X-2719Y78948D01*
X-2719Y87083D01*
X-7Y89795D01*
X5416Y89795D01*
X8128Y87083D01*
X8128Y78948D01*
X5416Y95320D02*
X-2719Y95320D01*
X5416Y95320D02*
X8128Y98031D01*
X8128Y106166D01*
X-2719Y106166D01*
X8128Y111691D02*
X8128Y119826D01*
X5416Y122538D01*
X2705Y119826D01*
X2705Y114403D01*
X-7Y111691D01*
X-2719Y114403D01*
X-2719Y122538D01*
X-8142Y144435D02*
X8128Y144435D01*
X-8142Y144435D02*
X-8142Y152569D01*
X-5430Y155281D01*
X-2719Y155281D01*
X-7Y152569D01*
X2705Y155281D01*
X5416Y155281D01*
X8128Y152569D01*
X8128Y144435D01*
X-7Y144435D02*
X-7Y152569D01*
X2705Y177178D02*
X-8142Y177178D01*
X2705Y177178D02*
X8128Y182601D01*
X2705Y188024D01*
X-8142Y188024D01*
X8128Y193549D02*
X8128Y204396D01*
X8128Y193549D02*
X-2719Y204396D01*
X-5430Y204396D01*
X-8142Y201684D01*
X-8142Y196261D01*
X-5430Y193549D01*
X5416Y209921D02*
X8128Y209921D01*
X5416Y209921D02*
X5416Y212632D01*
X8128Y212632D01*
X8128Y209921D01*
X5416Y218107D02*
X-5430Y218107D01*
X-8142Y220818D01*
X-8142Y226241D01*
X-5430Y228953D01*
X5416Y228953D01*
X8128Y226241D01*
X8128Y220818D01*
X5416Y218107D01*
X-5430Y228953D01*
D12*
X-27055Y260327D02*
X-26250Y261132D01*
X-27055Y260327D02*
X-27055Y258717D01*
X-26250Y257912D01*
X-23030Y257912D01*
X-22225Y258717D01*
X-22225Y260327D01*
X-23030Y261132D01*
X-25445Y263525D02*
X-27055Y265135D01*
X-22225Y265135D01*
X-22225Y263525D02*
X-22225Y266745D01*
X22221Y257912D02*
X27051Y257912D01*
X22221Y257912D02*
X22221Y260327D01*
X23026Y261132D01*
X24636Y261132D01*
X25441Y260327D01*
X25441Y257912D01*
X25441Y259522D02*
X27051Y261132D01*
X23831Y263525D02*
X22221Y265135D01*
X27051Y265135D01*
X27051Y263525D02*
X27051Y266745D01*
X-13907Y299276D02*
X-13907Y328105D01*
X13907Y328105D01*
X13907Y299276D01*
X-13907Y299276D01*
D13*
X-16193Y329883D03*
D12*
X-4978Y315472D02*
X-4978Y311447D01*
X-4173Y310642D01*
X-2563Y310642D01*
X-1758Y311447D01*
X-1758Y315472D01*
X635Y314667D02*
X1440Y315472D01*
X3050Y315472D01*
X3855Y314667D01*
X3855Y313862D01*
X3050Y313057D01*
X2245Y313057D01*
X3050Y313057D02*
X3855Y312252D01*
X3855Y311447D01*
X3050Y310642D01*
X1440Y310642D01*
X635Y311447D01*
X-46105Y408917D02*
X-45300Y409722D01*
X-46105Y408917D02*
X-46105Y407307D01*
X-45300Y406502D01*
X-42080Y406502D01*
X-41275Y407307D01*
X-41275Y408917D01*
X-42080Y409722D01*
X-41275Y412115D02*
X-41275Y415335D01*
X-41275Y412115D02*
X-44495Y415335D01*
X-45300Y415335D01*
X-46105Y414530D01*
X-46105Y412920D01*
X-45300Y412115D01*
X41271Y388597D02*
X42076Y389402D01*
X41271Y388597D02*
X41271Y386987D01*
X42076Y386182D01*
X45296Y386182D01*
X46101Y386987D01*
X46101Y388597D01*
X45296Y389402D01*
X42076Y391795D02*
X41271Y392600D01*
X41271Y394210D01*
X42076Y395015D01*
X42881Y395015D01*
X43686Y394210D01*
X43686Y393405D01*
X43686Y394210D02*
X44491Y395015D01*
X45296Y395015D01*
X46101Y394210D01*
X46101Y392600D01*
X45296Y391795D01*
D14*
X13350Y466620D02*
X13352Y466664D01*
X13358Y466708D01*
X13368Y466751D01*
X13381Y466793D01*
X13398Y466834D01*
X13419Y466873D01*
X13443Y466910D01*
X13470Y466945D01*
X13500Y466977D01*
X13533Y467007D01*
X13569Y467033D01*
X13606Y467057D01*
X13646Y467076D01*
X13687Y467093D01*
X13730Y467105D01*
X13773Y467114D01*
X13817Y467119D01*
X13861Y467120D01*
X13905Y467117D01*
X13949Y467110D01*
X13992Y467099D01*
X14034Y467085D01*
X14074Y467067D01*
X14113Y467045D01*
X14149Y467021D01*
X14183Y466993D01*
X14215Y466962D01*
X14244Y466928D01*
X14270Y466892D01*
X14292Y466854D01*
X14311Y466814D01*
X14326Y466772D01*
X14338Y466730D01*
X14346Y466686D01*
X14350Y466642D01*
X14350Y466598D01*
X14346Y466554D01*
X14338Y466510D01*
X14326Y466468D01*
X14311Y466426D01*
X14292Y466386D01*
X14270Y466348D01*
X14244Y466312D01*
X14215Y466278D01*
X14183Y466247D01*
X14149Y466219D01*
X14113Y466195D01*
X14074Y466173D01*
X14034Y466155D01*
X13992Y466141D01*
X13949Y466130D01*
X13905Y466123D01*
X13861Y466120D01*
X13817Y466121D01*
X13773Y466126D01*
X13730Y466135D01*
X13687Y466147D01*
X13646Y466164D01*
X13606Y466183D01*
X13569Y466207D01*
X13533Y466233D01*
X13500Y466263D01*
X13470Y466295D01*
X13443Y466330D01*
X13419Y466367D01*
X13398Y466406D01*
X13381Y466447D01*
X13368Y466489D01*
X13358Y466532D01*
X13352Y466576D01*
X13350Y466620D01*
X10000Y467200D02*
X10000Y447200D01*
X-10000Y447200D02*
X-10000Y467200D01*
D12*
X-25598Y462735D02*
X-25598Y458710D01*
X-24793Y457905D01*
X-23183Y457905D01*
X-22378Y458710D01*
X-22378Y462735D01*
X-17570Y462735D02*
X-17570Y457905D01*
X-19985Y460320D02*
X-17570Y462735D01*
X-16765Y460320D02*
X-19985Y460320D01*
X-14000Y344140D02*
X-11000Y344140D01*
X-14000Y344140D02*
X-14000Y372140D01*
X-11000Y372140D01*
X11000Y344140D02*
X14000Y344140D01*
X14000Y372140D01*
X11000Y372140D01*
D15*
X-13618Y339140D02*
X-13616Y339206D01*
X-13610Y339272D01*
X-13600Y339338D01*
X-13587Y339403D01*
X-13569Y339467D01*
X-13548Y339529D01*
X-13523Y339591D01*
X-13495Y339651D01*
X-13463Y339709D01*
X-13427Y339765D01*
X-13389Y339818D01*
X-13347Y339870D01*
X-13302Y339919D01*
X-13255Y339965D01*
X-13204Y340008D01*
X-13152Y340048D01*
X-13097Y340085D01*
X-13040Y340119D01*
X-12981Y340149D01*
X-12920Y340176D01*
X-12858Y340199D01*
X-12795Y340218D01*
X-12730Y340234D01*
X-12665Y340246D01*
X-12599Y340254D01*
X-12533Y340258D01*
X-12467Y340258D01*
X-12401Y340254D01*
X-12335Y340246D01*
X-12270Y340234D01*
X-12205Y340218D01*
X-12142Y340199D01*
X-12080Y340176D01*
X-12019Y340149D01*
X-11960Y340119D01*
X-11903Y340085D01*
X-11848Y340048D01*
X-11796Y340008D01*
X-11745Y339965D01*
X-11698Y339919D01*
X-11653Y339870D01*
X-11611Y339818D01*
X-11573Y339765D01*
X-11537Y339709D01*
X-11505Y339651D01*
X-11477Y339591D01*
X-11452Y339529D01*
X-11431Y339467D01*
X-11413Y339403D01*
X-11400Y339338D01*
X-11390Y339272D01*
X-11384Y339206D01*
X-11382Y339140D01*
X-11384Y339074D01*
X-11390Y339008D01*
X-11400Y338942D01*
X-11413Y338877D01*
X-11431Y338813D01*
X-11452Y338751D01*
X-11477Y338689D01*
X-11505Y338629D01*
X-11537Y338571D01*
X-11573Y338515D01*
X-11611Y338462D01*
X-11653Y338410D01*
X-11698Y338361D01*
X-11745Y338315D01*
X-11796Y338272D01*
X-11848Y338232D01*
X-11903Y338195D01*
X-11960Y338161D01*
X-12019Y338131D01*
X-12080Y338104D01*
X-12142Y338081D01*
X-12205Y338062D01*
X-12270Y338046D01*
X-12335Y338034D01*
X-12401Y338026D01*
X-12467Y338022D01*
X-12533Y338022D01*
X-12599Y338026D01*
X-12665Y338034D01*
X-12730Y338046D01*
X-12795Y338062D01*
X-12858Y338081D01*
X-12920Y338104D01*
X-12981Y338131D01*
X-13040Y338161D01*
X-13097Y338195D01*
X-13152Y338232D01*
X-13204Y338272D01*
X-13255Y338315D01*
X-13302Y338361D01*
X-13347Y338410D01*
X-13389Y338462D01*
X-13427Y338515D01*
X-13463Y338571D01*
X-13495Y338629D01*
X-13523Y338689D01*
X-13548Y338751D01*
X-13569Y338813D01*
X-13587Y338877D01*
X-13600Y338942D01*
X-13610Y339008D01*
X-13616Y339074D01*
X-13618Y339140D01*
D11*
X-17964Y346252D02*
X-23472Y346252D01*
X-17964Y346252D02*
X-16862Y347354D01*
X-16862Y349557D01*
X-17964Y350658D01*
X-23472Y350658D01*
X-21268Y353736D02*
X-23472Y355939D01*
X-16862Y355939D01*
X-16862Y353736D02*
X-16862Y358143D01*
D12*
X41271Y408917D02*
X42076Y409722D01*
X41271Y408917D02*
X41271Y407307D01*
X42076Y406502D01*
X45296Y406502D01*
X46101Y407307D01*
X46101Y408917D01*
X45296Y409722D01*
X46101Y414530D02*
X41271Y414530D01*
X43686Y412115D01*
X43686Y415335D01*
X-41275Y386182D02*
X-46105Y386182D01*
X-46105Y388597D01*
X-45300Y389402D01*
X-43690Y389402D01*
X-42885Y388597D01*
X-42885Y386182D01*
X-42885Y387792D02*
X-41275Y389402D01*
X-41275Y391795D02*
X-41275Y395015D01*
X-41275Y391795D02*
X-44495Y395015D01*
X-45300Y395015D01*
X-46105Y394210D01*
X-46105Y392600D01*
X-45300Y391795D01*
M02*
