M48
;GenerationSoftware,Autodesk,EAGLE,9.5.2*%
;CreationDate,2019-12-19T11:30:29Z*%
FMAT,2
ICI,OFF
METRIC,TZ,000.000
T3C0.381
T2C0.400
T1C0.900
%
G90
M71
T1
X5080Y17780
X2540Y45720
X5080Y45720
X2540Y43180
X5080Y43180
X2540Y40640
X5080Y40640
X2540Y38100
X5080Y38100
X2540Y35560
X5080Y35560
X2540Y33020
X5080Y33020
X2540Y30480
X5080Y30480
X2540Y27940
X5080Y27940
X2540Y25400
X5080Y25400
X2540Y22860
X5080Y22860
X2540Y20320
X5080Y20320
X2540Y17780
X43180Y49530
X43180Y46990
X43180Y44450
X43180Y41910
X43180Y39370
X43180Y36830
X43180Y34290
X43180Y31750
X43180Y29210
X43180Y26670
X43180Y24130
X43180Y21590
T2
X44500Y3810
X32385Y42545
X40005Y42545
X54610Y9906
X42164Y8890
X64516Y13970
X34925Y37465
X24130Y12700
X30480Y12700
X34925Y12700
X48895Y12700
X29972Y11430
X47625Y11430
X5080Y13970
X47625Y18161
X29464Y10160
X50165Y10160
X19050Y11430
X22225Y10795
X20320Y12700
X31750Y32385
X15240Y12065
X14478Y4572
X29845Y40005
X44450Y35560
X13335Y46355
X13335Y41275
X13335Y36195
X13335Y31115
X13335Y26035
X9525Y41910
X30480Y43815
X34290Y38735
X51435Y22606
X31750Y35560
X36000Y8775
X67437Y15240
X41275Y15240
X36195Y16510
X57404Y16510
X11430Y23495
X20320Y23495
X28575Y23495
X10160Y22225
X19050Y22225
X27940Y22225
X52705Y18161
X9525Y33020
X38735Y47625
X9525Y47625
X37500Y5334
X47500Y5334
X23495Y46126
X23495Y41046
X23495Y35966
X50800Y31242
X23495Y30886
X23495Y25806
X34500Y3810
T3
X8636Y12065
X10160Y4572
X27432Y9525
M30