M48
;GenerationSoftware,Autodesk,EAGLE,9.5.2*%
;CreationDate,2019-12-19T11:59:22Z*%
FMAT,2
ICI,OFF
METRIC,TZ,000.000
T5C0.381
T4C0.500
T3C1.016
T2C1.100
T1C3.200
%
G90
M71
T1
X16510Y-21590
X21590Y-16510
X0Y-19050
X0Y19050
T2
X-25400Y20320
X-22860Y22860
X-22860Y17780
X-20320Y20320
T3
X-1288Y3030
X508Y4826
X-11684Y10795
X-3084Y1234
X-9144Y10795
X-6604Y10795
X-4064Y10795
X-4880Y-562
T4
X18796Y19304
X11982Y37853
X23368Y-5842
X23114Y13208
X0Y10668
X-7747Y13208
X-20320Y29210
X-2286Y32512
X-11176Y32512
X3810Y31750
X9906Y25019
X25146Y20320
X-6350Y31750
X19729Y26296
X-10414Y13335
X-7747Y4064
X-5969Y5969
X-29972Y21590
X6604Y32512
T5
X22606Y10414
X20320Y24638
X20320Y22606
X21082Y24638
X13716Y33274
X-4318Y41148
X13716Y1524
X12446Y35560
X14478Y24638
X14478Y2794
X13970Y36068
X16002Y23114
X16002Y5334
X14224Y34798
X15240Y25908
X15240Y6604
X14986Y36068
X16764Y22098
X16764Y254
X-9398Y39624
X-508Y39624
X10922Y31496
X8240Y40274
X-1524Y40386
X12954Y32004
X-5080Y24892
X4826Y36068
X11937Y18796
X11938Y7874
X-5461Y27305
X4064Y36830
X17526Y4064
X8890Y39624
X5842Y40132
X4064Y27940
X22860Y23622
X9398Y31242
X7112Y21844
X508Y31750
X22606Y-2286
X-10414Y40386
M30