G04 EAGLE Gerber RS-274X export*
G75*
%MOMM*%
%FSLAX34Y34*%
%LPD*%
%IN*%
%IPPOS*%
%AMOC8*
5,1,8,0,0,1.08239X$1,22.5*%
G01*
%ADD10C,0.254000*%


D10*
X-101600Y-76200D02*
X101600Y-76200D01*
X101600Y0D01*
X50800Y0D01*
X50800Y19050D01*
X41927Y38078D01*
X34746Y57807D01*
X29313Y78086D01*
X25667Y98762D01*
X23837Y119678D01*
X23837Y140673D01*
X25667Y161588D01*
X29313Y182264D01*
X34746Y202543D01*
X41927Y222272D01*
X50800Y241300D01*
X50800Y457200D01*
X50607Y461628D01*
X50028Y466021D01*
X49069Y470348D01*
X47736Y474575D01*
X46040Y478669D01*
X43994Y482600D01*
X41613Y486338D01*
X38915Y489854D01*
X35921Y493121D01*
X32654Y496115D01*
X29138Y498813D01*
X25400Y501194D01*
X21469Y503240D01*
X17375Y504936D01*
X13148Y506269D01*
X8821Y507228D01*
X4428Y507807D01*
X0Y508000D01*
X-4428Y507807D01*
X-8821Y507228D01*
X-13148Y506269D01*
X-17375Y504936D01*
X-21469Y503240D01*
X-25400Y501194D01*
X-29138Y498813D01*
X-32654Y496115D01*
X-35921Y493121D01*
X-38915Y489854D01*
X-41613Y486338D01*
X-43994Y482600D01*
X-46040Y478669D01*
X-47736Y474575D01*
X-49069Y470348D01*
X-50028Y466021D01*
X-50607Y461628D01*
X-50800Y457200D01*
X-50800Y241300D01*
X-41927Y222272D01*
X-34746Y202543D01*
X-29313Y182264D01*
X-25667Y161588D01*
X-23837Y140673D01*
X-23837Y119678D01*
X-25667Y98762D01*
X-29313Y78086D01*
X-34746Y57807D01*
X-41927Y38078D01*
X-50800Y19050D01*
X-50800Y0D01*
X-101600Y0D01*
X-101600Y-76200D01*
M02*
