%
M48
M72
T01C0.01969
T02C0.02362
T03C0.03150
T04C0.04000
%
T01
X28711Y96177
X8711Y96177
X108711Y96177
X88711Y96177
X68711Y96177
X48711Y96177
X48711Y241177
X28711Y241177
X8711Y241177
X308711Y346177
X288711Y346177
X268711Y346177
X248711Y346177
X228711Y346177
X208711Y346177
X188711Y346177
X168711Y346177
X148711Y346177
X128711Y346177
X108711Y346177
X88711Y346177
X68711Y346177
X48711Y346177
X28711Y346177
X8711Y346177
X28711Y491177
X8711Y491177
X308711Y491177
X288711Y491177
X268711Y491177
X248711Y491177
X48711Y491177
X68711Y491177
X88711Y491177
X108711Y491177
X128711Y491177
X148711Y491177
X168711Y491177
X188711Y491177
X208711Y491177
X228711Y491177
X308711Y241177
X288711Y241177
X268711Y241177
X248711Y241177
X228711Y241177
X208711Y241177
X188711Y241177
X168711Y241177
X148711Y241177
X128711Y241177
X108711Y241177
X88711Y241177
X68711Y241177
X128711Y96177
X148711Y96177
X168711Y96177
X228711Y96177
X208711Y96177
X188711Y96177
X268711Y96177
X248711Y96177
X308711Y96177
X288711Y96177
T02
X292550Y153933
X272550Y153933
X252550Y153933
X72550Y153933
X52550Y153933
X32550Y153933
X32550Y188933
X52550Y188933
X72550Y188933
X252550Y188933
X272550Y188933
X292550Y188933
X292550Y403933
X272550Y403933
X252550Y403933
X72550Y403933
X52550Y403933
X32550Y403933
X32550Y438933
X52550Y438933
X72550Y438933
X252550Y438933
X272550Y438933
X292550Y438933
T03
X22550Y541433
X22550Y536433
X22550Y531433
X22550Y526433
X42550Y526433
X42550Y531433
X42550Y536433
X42550Y541433
X62550Y541433
X62550Y536433
X62550Y531433
X62550Y526433
X82550Y526433
X82550Y531433
X82550Y536433
X82550Y541433
X102550Y541433
X102550Y536433
X102550Y531433
X102550Y526433
X122550Y526433
X122550Y531433
X122550Y536433
X122550Y541433
X142550Y541433
X142550Y536433
X142550Y531433
X142550Y526433
X162550Y526433
X162550Y531433
X162550Y536433
X162550Y541433
X182550Y541433
X182550Y536433
X182550Y531433
X182550Y526433
X202550Y526433
X202550Y531433
X202550Y536433
X202550Y541433
X222550Y541433
X222550Y536433
X222550Y531433
X222550Y526433
X242550Y526433
X242550Y531433
X242550Y536433
X242550Y541433
X262550Y541433
X262550Y536433
X262550Y531433
X262550Y526433
X282550Y526433
X282550Y531433
X282550Y536433
X282550Y541433
X302550Y541433
X302550Y536433
X302550Y531433
X302550Y526433
X302550Y461433
X302550Y456433
X302550Y451433
X302550Y446433
X300050Y441433
X295050Y441433
X290050Y441433
X285050Y441433
X280050Y441433
X275050Y441433
X270050Y441433
X265050Y441433
X260050Y441433
X255050Y441433
X250050Y441433
X245050Y441433
X240050Y441433
X235050Y441433
X230050Y441433
X225050Y441433
X220050Y441433
X215050Y441433
X210050Y441433
X205050Y441433
X200050Y441433
X195050Y441433
X190050Y441433
X185050Y441433
X180050Y441433
X175050Y441433
X170050Y441433
X165050Y441433
X160050Y441433
X155050Y441433
X150050Y441433
X145050Y441433
X140050Y441433
X135050Y441433
X130050Y441433
X125050Y441433
X120050Y441433
X115050Y441433
X110050Y441433
X105050Y441433
X100050Y441433
X95050Y441433
X90050Y441433
X85050Y441433
X80050Y441433
X75050Y441433
X70050Y441433
X65050Y441433
X60050Y441433
X55050Y441433
X50050Y441433
X45050Y441433
X40050Y441433
X35050Y441433
X30050Y441433
X25050Y441433
X20050Y441433
X15050Y441433
X10050Y441433
X5050Y441433
X22550Y446433
X22550Y451433
X22550Y456433
X22550Y461433
X42550Y461433
X42550Y456433
X42550Y451433
X42550Y446433
X62550Y446433
X62550Y451433
X62550Y456433
X62550Y461433
X82550Y461433
X82550Y456433
X82550Y451433
X82550Y446433
X102550Y446433
X102550Y451433
X102550Y456433
X102550Y461433
X122550Y461433
X122550Y456433
X122550Y451433
X122550Y446433
X142550Y446433
X142550Y451433
X142550Y456433
X142550Y461433
X162550Y461433
X162550Y456433
X162550Y451433
X162550Y446433
X182550Y446433
X182550Y451433
X182550Y456433
X182550Y461433
X202550Y461433
X202550Y456433
X202550Y451433
X202550Y446433
X222550Y446433
X222550Y451433
X222550Y456433
X222550Y461433
X242550Y461433
X242550Y456433
X242550Y451433
X242550Y446433
X262550Y446433
X262550Y451433
X262550Y456433
X262550Y461433
X282550Y461433
X282550Y456433
X282550Y451433
X282550Y446433
X305050Y441433
X310050Y441433
X315050Y441433
X320050Y441433
X320050Y401433
X315050Y401433
X310050Y401433
X305050Y401433
X300050Y401433
X295050Y401433
X290050Y401433
X285050Y401433
X280050Y401433
X275050Y401433
X270050Y401433
X265050Y401433
X260050Y401433
X255050Y401433
X250050Y401433
X245050Y401433
X240050Y401433
X235050Y401433
X230050Y401433
X225050Y401433
X220050Y401433
X215050Y401433
X210050Y401433
X205050Y401433
X200050Y401433
X195050Y401433
X190050Y401433
X185050Y401433
X180050Y401433
X175050Y401433
X170050Y401433
X165050Y401433
X160050Y401433
X155050Y401433
X150050Y401433
X145050Y401433
X140050Y401433
X135050Y401433
X130050Y401433
X125050Y401433
X120050Y401433
X115050Y401433
X110050Y401433
X105050Y401433
X100050Y401433
X95050Y401433
X90050Y401433
X85050Y401433
X80050Y401433
X75050Y401433
X70050Y401433
X65050Y401433
X60050Y401433
X55050Y401433
X50050Y401433
X45050Y401433
X40050Y401433
X35050Y401433
X30050Y401433
X25050Y401433
X20050Y401433
X15050Y401433
X10050Y401433
X5050Y401433
X22550Y316433
X22550Y311433
X22550Y306433
X22550Y301433
X20050Y296433
X15050Y296433
X10050Y296433
X5050Y296433
X25050Y296433
X30050Y296433
X35050Y296433
X40050Y296433
X42550Y301433
X42550Y306433
X42550Y311433
X42550Y316433
X45050Y296433
X50050Y296433
X55050Y296433
X60050Y296433
X62550Y301433
X62550Y306433
X62550Y311433
X62550Y316433
X65050Y296433
X70050Y296433
X75050Y296433
X80050Y296433
X82550Y301433
X82550Y306433
X82550Y311433
X82550Y316433
X85050Y296433
X90050Y296433
X95050Y296433
X100050Y296433
X102550Y301433
X102550Y306433
X102550Y311433
X102550Y316433
X105050Y296433
X110050Y296433
X115050Y296433
X120050Y296433
X122550Y301433
X122550Y306433
X122550Y311433
X122550Y316433
X125050Y296433
X130050Y296433
X135050Y296433
X140050Y296433
X142550Y301433
X142550Y306433
X142550Y311433
X142550Y316433
X145050Y296433
X150050Y296433
X155050Y296433
X160050Y296433
X162550Y301433
X162550Y306433
X162550Y311433
X162550Y316433
X165050Y296433
X170050Y296433
X175050Y296433
X180050Y296433
X182550Y301433
X182550Y306433
X182550Y311433
X182550Y316433
X185050Y296433
X190050Y296433
X195050Y296433
X200050Y296433
X202550Y301433
X202550Y306433
X202550Y311433
X202550Y316433
X205050Y296433
X210050Y296433
X215050Y296433
X220050Y296433
X222550Y301433
X222550Y306433
X222550Y311433
X222550Y316433
X225050Y296433
X230050Y296433
X235050Y296433
X240050Y296433
X242550Y301433
X242550Y306433
X242550Y311433
X242550Y316433
X245050Y296433
X250050Y296433
X255050Y296433
X260050Y296433
X262550Y301433
X262550Y306433
X262550Y311433
X262550Y316433
X265050Y296433
X270050Y296433
X275050Y296433
X280050Y296433
X282550Y301433
X282550Y306433
X282550Y311433
X282550Y316433
X285050Y296433
X290050Y296433
X295050Y296433
X300050Y296433
X302550Y301433
X302550Y306433
X302550Y311433
X302550Y316433
X305050Y296433
X310050Y296433
X315050Y296433
X320050Y296433
X302550Y211433
X302550Y206433
X302550Y201433
X302550Y196433
X300050Y191433
X295050Y191433
X290050Y191433
X285050Y191433
X280050Y191433
X275050Y191433
X270050Y191433
X265050Y191433
X260050Y191433
X255050Y191433
X250050Y191433
X245050Y191433
X240050Y191433
X235050Y191433
X230050Y191433
X225050Y191433
X220050Y191433
X215050Y191433
X210050Y191433
X205050Y191433
X200050Y191433
X195050Y191433
X190050Y191433
X185050Y191433
X180050Y191433
X175050Y191433
X170050Y191433
X165050Y191433
X160050Y191433
X155050Y191433
X150050Y191433
X145050Y191433
X140050Y191433
X135050Y191433
X130050Y191433
X125050Y191433
X120050Y191433
X115050Y191433
X110050Y191433
X105050Y191433
X100050Y191433
X95050Y191433
X90050Y191433
X85050Y191433
X80050Y191433
X75050Y191433
X70050Y191433
X65050Y191433
X60050Y191433
X55050Y191433
X50050Y191433
X45050Y191433
X40050Y191433
X35050Y191433
X30050Y191433
X25050Y191433
X20050Y191433
X15050Y191433
X10050Y191433
X5050Y191433
X22550Y196433
X22550Y201433
X22550Y206433
X22550Y211433
X42550Y211433
X42550Y206433
X42550Y201433
X42550Y196433
X62550Y196433
X62550Y201433
X62550Y206433
X62550Y211433
X82550Y211433
X82550Y206433
X82550Y201433
X82550Y196433
X102550Y196433
X102550Y201433
X102550Y206433
X102550Y211433
X122550Y211433
X122550Y206433
X122550Y201433
X122550Y196433
X142550Y196433
X142550Y201433
X142550Y206433
X142550Y211433
X162550Y211433
X162550Y206433
X162550Y201433
X162550Y196433
X182550Y196433
X182550Y201433
X182550Y206433
X182550Y211433
X202550Y211433
X202550Y206433
X202550Y201433
X202550Y196433
X222550Y196433
X222550Y201433
X222550Y206433
X222550Y211433
X242550Y211433
X242550Y206433
X242550Y201433
X242550Y196433
X262550Y196433
X262550Y201433
X262550Y206433
X262550Y211433
X282550Y211433
X282550Y206433
X282550Y201433
X282550Y196433
X305050Y191433
X310050Y191433
X315050Y191433
X320050Y191433
X320050Y151433
X315050Y151433
X310050Y151433
X305050Y151433
X300050Y151433
X295050Y151433
X290050Y151433
X285050Y151433
X280050Y151433
X275050Y151433
X270050Y151433
X265050Y151433
X260050Y151433
X255050Y151433
X250050Y151433
X245050Y151433
X240050Y151433
X235050Y151433
X230050Y151433
X225050Y151433
X220050Y151433
X215050Y151433
X210050Y151433
X205050Y151433
X200050Y151433
X195050Y151433
X190050Y151433
X185050Y151433
X180050Y151433
X175050Y151433
X170050Y151433
X165050Y151433
X160050Y151433
X155050Y151433
X150050Y151433
X145050Y151433
X140050Y151433
X135050Y151433
X130050Y151433
X125050Y151433
X120050Y151433
X115050Y151433
X110050Y151433
X105050Y151433
X100050Y151433
X95050Y151433
X90050Y151433
X85050Y151433
X80050Y151433
X75050Y151433
X70050Y151433
X65050Y151433
X60050Y151433
X55050Y151433
X50050Y151433
X45050Y151433
X40050Y151433
X35050Y151433
X30050Y151433
X25050Y151433
X20050Y151433
X15050Y151433
X10050Y151433
X5050Y151433
X22550Y66433
X22550Y61433
X22550Y56433
X22550Y51433
X42550Y51433
X42550Y56433
X42550Y61433
X42550Y66433
X62550Y66433
X62550Y61433
X62550Y56433
X62550Y51433
X82550Y51433
X82550Y56433
X82550Y61433
X82550Y66433
X102550Y66433
X102550Y61433
X102550Y56433
X102550Y51433
X122550Y51433
X122550Y56433
X122550Y61433
X122550Y66433
X142550Y66433
X142550Y61433
X142550Y56433
X142550Y51433
X162550Y51433
X162550Y56433
X162550Y61433
X162550Y66433
X182550Y66433
X182550Y61433
X182550Y56433
X182550Y51433
X202550Y51433
X202550Y56433
X202550Y61433
X202550Y66433
X222550Y66433
X222550Y61433
X222550Y56433
X222550Y51433
X242550Y51433
X242550Y56433
X242550Y61433
X242550Y66433
X262550Y66433
X262550Y61433
X262550Y56433
X262550Y51433
X282550Y51433
X282550Y56433
X282550Y61433
X282550Y66433
X302550Y66433
X302550Y61433
X302550Y56433
X302550Y51433
T04
X12550Y166433
X12550Y176433
X312550Y176433
X312550Y166433
X237550Y166433
X237550Y176433
X227550Y176433
X227550Y166433
X217550Y166433
X207550Y166433
X207550Y176433
X217550Y176433
X197550Y176433
X197550Y166433
X187550Y166433
X177550Y166433
X177550Y176433
X187550Y176433
X167550Y176433
X167550Y166433
X157550Y166433
X147550Y166433
X147550Y176433
X157550Y176433
X137550Y176433
X137550Y166433
X127550Y166433
X117550Y166433
X117550Y176433
X127550Y176433
X107550Y176433
X107550Y166433
X97550Y166433
X87550Y166433
X87550Y176433
X97550Y176433
X12550Y416433
X12550Y426433
X312550Y426433
X312550Y416433
X237550Y416433
X237550Y426433
X227550Y426433
X227550Y416433
X217550Y416433
X207550Y416433
X207550Y426433
X217550Y426433
X197550Y426433
X197550Y416433
X187550Y416433
X177550Y416433
X177550Y426433
X187550Y426433
X167550Y426433
X167550Y416433
X157550Y416433
X147550Y416433
X147550Y426433
X157550Y426433
X137550Y426433
X137550Y416433
X127550Y416433
X117550Y416433
X117550Y426433
X127550Y426433
X107550Y426433
X107550Y416433
X97550Y416433
X87550Y416433
X87550Y426433
X97550Y426433
M30
