G04 EAGLE Gerber RS-274X export*
G75*
%MOMM*%
%FSLAX34Y34*%
%LPD*%
%INBottom Copper*%
%IPPOS*%
%AMOC8*
5,1,8,0,0,1.08239X$1,22.5*%
G01*
%ADD10C,1.879600*%
%ADD11C,1.930400*%
%ADD12C,0.736600*%
%ADD13C,0.406400*%
%ADD14C,0.855600*%
%ADD15C,0.812800*%
%ADD16C,0.203200*%

G36*
X353238Y-264912D02*
X353238Y-264912D01*
X353355Y-264912D01*
X353483Y-264892D01*
X353612Y-264881D01*
X353726Y-264853D01*
X353843Y-264834D01*
X353965Y-264794D01*
X354091Y-264763D01*
X354199Y-264716D01*
X354311Y-264679D01*
X354425Y-264619D01*
X354544Y-264568D01*
X354643Y-264505D01*
X354748Y-264450D01*
X354851Y-264372D01*
X354960Y-264303D01*
X355048Y-264225D01*
X355142Y-264154D01*
X355204Y-264085D01*
X355328Y-263974D01*
X355539Y-263714D01*
X355599Y-263647D01*
X366026Y-249070D01*
X366094Y-248957D01*
X366143Y-248894D01*
X387412Y-214339D01*
X387496Y-214175D01*
X387548Y-214093D01*
X405543Y-177724D01*
X405611Y-177553D01*
X405656Y-177467D01*
X420222Y-139594D01*
X420274Y-139418D01*
X420310Y-139328D01*
X420752Y-137762D01*
X424190Y-125573D01*
X426768Y-116431D01*
X427627Y-113384D01*
X430205Y-104242D01*
X430206Y-104242D01*
X431065Y-101195D01*
X431325Y-100274D01*
X431360Y-100094D01*
X431388Y-100000D01*
X438757Y-60098D01*
X438775Y-59915D01*
X438795Y-59820D01*
X442455Y-19408D01*
X442457Y-19224D01*
X442467Y-19128D01*
X442388Y21449D01*
X442375Y21607D01*
X442377Y21672D01*
X442374Y21695D01*
X442374Y21730D01*
X438556Y62127D01*
X438523Y62308D01*
X438516Y62405D01*
X430991Y102278D01*
X430943Y102455D01*
X430926Y102551D01*
X419759Y141561D01*
X419694Y141733D01*
X419669Y141828D01*
X404954Y179642D01*
X404874Y179808D01*
X404840Y179899D01*
X386703Y216197D01*
X386608Y216354D01*
X386566Y216442D01*
X365162Y250914D01*
X365052Y251062D01*
X365002Y251146D01*
X340512Y283499D01*
X340390Y283636D01*
X340332Y283715D01*
X312965Y313673D01*
X312830Y313798D01*
X312766Y313871D01*
X282754Y341180D01*
X282608Y341293D01*
X282537Y341360D01*
X250137Y365786D01*
X249981Y365885D01*
X249905Y365945D01*
X215391Y387282D01*
X215227Y387366D01*
X215145Y387419D01*
X178812Y405484D01*
X178641Y405553D01*
X178555Y405598D01*
X140711Y420238D01*
X140535Y420291D01*
X140445Y420328D01*
X101413Y431418D01*
X101233Y431454D01*
X101139Y431483D01*
X61252Y438929D01*
X61069Y438948D01*
X60973Y438968D01*
X20569Y442707D01*
X20385Y442710D01*
X20288Y442720D01*
X-20288Y442720D01*
X-20472Y442706D01*
X-20569Y442707D01*
X-60973Y438968D01*
X-61155Y438936D01*
X-61252Y438929D01*
X-101139Y431483D01*
X-101317Y431434D01*
X-101413Y431418D01*
X-140445Y420328D01*
X-140617Y420263D01*
X-140711Y420238D01*
X-178555Y405598D01*
X-178720Y405518D01*
X-178812Y405484D01*
X-215145Y387419D01*
X-215303Y387324D01*
X-215391Y387282D01*
X-249905Y365945D01*
X-250053Y365836D01*
X-250137Y365786D01*
X-282537Y341360D01*
X-282675Y341237D01*
X-282754Y341180D01*
X-312766Y313871D01*
X-312892Y313737D01*
X-312965Y313673D01*
X-340332Y283715D01*
X-340445Y283569D01*
X-340512Y283499D01*
X-365002Y251146D01*
X-365101Y250991D01*
X-365162Y250914D01*
X-386566Y216442D01*
X-386650Y216279D01*
X-386703Y216197D01*
X-404840Y179899D01*
X-404909Y179728D01*
X-404954Y179642D01*
X-419669Y141828D01*
X-419722Y141651D01*
X-419759Y141561D01*
X-430926Y102551D01*
X-430963Y102371D01*
X-430991Y102278D01*
X-438516Y62405D01*
X-438536Y62222D01*
X-438556Y62127D01*
X-442374Y21730D01*
X-442377Y21546D01*
X-442388Y21449D01*
X-442467Y-19128D01*
X-442453Y-19311D01*
X-442455Y-19408D01*
X-438795Y-59820D01*
X-438764Y-60001D01*
X-438757Y-60098D01*
X-431388Y-100000D01*
X-431340Y-100178D01*
X-431325Y-100274D01*
X-420310Y-139328D01*
X-420246Y-139500D01*
X-420222Y-139594D01*
X-405656Y-177467D01*
X-405576Y-177632D01*
X-405543Y-177724D01*
X-387548Y-214093D01*
X-387454Y-214250D01*
X-387412Y-214339D01*
X-366143Y-248894D01*
X-366065Y-249001D01*
X-366026Y-249070D01*
X-355599Y-263647D01*
X-355522Y-263737D01*
X-355454Y-263833D01*
X-355364Y-263925D01*
X-355280Y-264024D01*
X-355190Y-264100D01*
X-355108Y-264184D01*
X-355003Y-264260D01*
X-354905Y-264344D01*
X-354804Y-264405D01*
X-354709Y-264474D01*
X-354593Y-264533D01*
X-354483Y-264600D01*
X-354374Y-264644D01*
X-354268Y-264697D01*
X-354145Y-264736D01*
X-354025Y-264784D01*
X-353910Y-264810D01*
X-353798Y-264845D01*
X-353706Y-264855D01*
X-353544Y-264892D01*
X-353209Y-264911D01*
X-353120Y-264921D01*
X353120Y-264921D01*
X353238Y-264912D01*
G37*
%LPC*%
G36*
X166554Y-2922D02*
X166554Y-2922D01*
X164546Y-2090D01*
X163010Y-554D01*
X162178Y1454D01*
X162178Y3626D01*
X163010Y5634D01*
X163953Y6577D01*
X164027Y6664D01*
X164108Y6744D01*
X164186Y6851D01*
X164272Y6953D01*
X164331Y7051D01*
X164398Y7143D01*
X164458Y7261D01*
X164527Y7375D01*
X164569Y7482D01*
X164621Y7583D01*
X164661Y7710D01*
X164710Y7833D01*
X164735Y7945D01*
X164769Y8054D01*
X164779Y8147D01*
X164817Y8315D01*
X164835Y8639D01*
X164845Y8732D01*
X164845Y44866D01*
X164831Y45046D01*
X164824Y45227D01*
X164811Y45292D01*
X164805Y45358D01*
X164762Y45533D01*
X164726Y45710D01*
X164703Y45772D01*
X164687Y45837D01*
X164615Y46003D01*
X164552Y46172D01*
X164518Y46229D01*
X164492Y46290D01*
X164395Y46443D01*
X164305Y46599D01*
X164263Y46650D01*
X164227Y46706D01*
X164107Y46841D01*
X163992Y46981D01*
X163943Y47025D01*
X163898Y47074D01*
X163758Y47188D01*
X163622Y47307D01*
X163566Y47343D01*
X163514Y47384D01*
X163358Y47473D01*
X163205Y47570D01*
X163143Y47595D01*
X163086Y47628D01*
X162916Y47691D01*
X162750Y47761D01*
X162686Y47777D01*
X162623Y47800D01*
X162446Y47834D01*
X162271Y47877D01*
X162204Y47882D01*
X162139Y47895D01*
X161959Y47900D01*
X161779Y47914D01*
X161712Y47908D01*
X161646Y47910D01*
X161467Y47886D01*
X161375Y47878D01*
X158934Y47878D01*
X156926Y48710D01*
X155390Y50246D01*
X154558Y52254D01*
X154558Y54426D01*
X155361Y56365D01*
X155416Y56536D01*
X155479Y56706D01*
X155492Y56771D01*
X155512Y56834D01*
X155539Y57013D01*
X155574Y57190D01*
X155576Y57256D01*
X155586Y57322D01*
X155584Y57503D01*
X155589Y57683D01*
X155581Y57749D01*
X155580Y57816D01*
X155549Y57993D01*
X155525Y58172D01*
X155506Y58236D01*
X155494Y58301D01*
X155435Y58472D01*
X155382Y58645D01*
X155353Y58704D01*
X155331Y58767D01*
X155245Y58925D01*
X155166Y59088D01*
X155127Y59142D01*
X155095Y59200D01*
X154985Y59343D01*
X154880Y59490D01*
X154833Y59537D01*
X154793Y59590D01*
X154660Y59713D01*
X154533Y59841D01*
X154480Y59880D01*
X154431Y59925D01*
X154280Y60025D01*
X154135Y60131D01*
X154075Y60161D01*
X154020Y60198D01*
X153855Y60272D01*
X153694Y60354D01*
X153631Y60374D01*
X153570Y60401D01*
X153396Y60448D01*
X153224Y60502D01*
X153171Y60508D01*
X153094Y60529D01*
X152603Y60578D01*
X152569Y60576D01*
X152546Y60578D01*
X151046Y60578D01*
X150963Y60595D01*
X150897Y60597D01*
X150831Y60607D01*
X150650Y60604D01*
X150470Y60610D01*
X150404Y60601D01*
X150338Y60600D01*
X150160Y60569D01*
X149981Y60545D01*
X149917Y60526D01*
X149852Y60515D01*
X149682Y60455D01*
X149508Y60403D01*
X149449Y60374D01*
X149386Y60352D01*
X149228Y60266D01*
X149065Y60186D01*
X149011Y60148D01*
X148953Y60116D01*
X148810Y60005D01*
X148663Y59901D01*
X148616Y59854D01*
X148563Y59813D01*
X148440Y59681D01*
X148312Y59554D01*
X148273Y59500D01*
X148228Y59451D01*
X148128Y59301D01*
X148022Y59155D01*
X147992Y59096D01*
X147955Y59040D01*
X147881Y58876D01*
X147799Y58715D01*
X147779Y58651D01*
X147752Y58591D01*
X147705Y58417D01*
X147651Y58244D01*
X147645Y58192D01*
X147624Y58114D01*
X147575Y57623D01*
X147577Y57590D01*
X147575Y57566D01*
X147575Y34132D01*
X147584Y34018D01*
X147583Y33904D01*
X147604Y33772D01*
X147615Y33640D01*
X147642Y33529D01*
X147660Y33416D01*
X147701Y33290D01*
X147733Y33161D01*
X147778Y33056D01*
X147814Y32948D01*
X147876Y32830D01*
X147928Y32708D01*
X147989Y32611D01*
X148042Y32510D01*
X148101Y32436D01*
X148193Y32292D01*
X148409Y32049D01*
X148467Y31977D01*
X149410Y31034D01*
X150242Y29026D01*
X150242Y26854D01*
X149410Y24846D01*
X147874Y23310D01*
X145866Y22478D01*
X144634Y22478D01*
X144454Y22464D01*
X144274Y22457D01*
X144209Y22444D01*
X144142Y22438D01*
X143967Y22395D01*
X143790Y22359D01*
X143728Y22336D01*
X143664Y22320D01*
X143498Y22248D01*
X143329Y22185D01*
X143271Y22151D01*
X143210Y22125D01*
X143058Y22028D01*
X142902Y21938D01*
X142850Y21896D01*
X142794Y21860D01*
X142660Y21740D01*
X142520Y21625D01*
X142476Y21576D01*
X142426Y21531D01*
X142313Y21391D01*
X142193Y21256D01*
X142158Y21199D01*
X142116Y21147D01*
X142027Y20991D01*
X141931Y20838D01*
X141905Y20777D01*
X141872Y20719D01*
X141809Y20549D01*
X141739Y20383D01*
X141724Y20319D01*
X141701Y20256D01*
X141666Y20079D01*
X141624Y19904D01*
X141619Y19837D01*
X141606Y19772D01*
X141600Y19592D01*
X141587Y19412D01*
X141593Y19345D01*
X141591Y19279D01*
X141614Y19100D01*
X141630Y18920D01*
X141645Y18870D01*
X141655Y18790D01*
X141798Y18318D01*
X141812Y18287D01*
X141819Y18265D01*
X142622Y16326D01*
X142622Y14154D01*
X141790Y12146D01*
X140254Y10610D01*
X138246Y9778D01*
X136074Y9778D01*
X134066Y10610D01*
X132530Y12146D01*
X131698Y14154D01*
X131698Y16326D01*
X132530Y18334D01*
X133473Y19277D01*
X133547Y19364D01*
X133628Y19444D01*
X133706Y19551D01*
X133792Y19653D01*
X133851Y19751D01*
X133918Y19843D01*
X133978Y19961D01*
X134047Y20075D01*
X134089Y20182D01*
X134141Y20283D01*
X134181Y20410D01*
X134230Y20533D01*
X134255Y20645D01*
X134289Y20754D01*
X134299Y20847D01*
X134337Y21015D01*
X134346Y21178D01*
X134346Y21179D01*
X134346Y21188D01*
X134355Y21339D01*
X134365Y21432D01*
X134365Y311566D01*
X134351Y311746D01*
X134344Y311928D01*
X134331Y311992D01*
X134325Y312058D01*
X134282Y312234D01*
X134246Y312411D01*
X134222Y312473D01*
X134207Y312537D01*
X134135Y312703D01*
X134071Y312873D01*
X134038Y312930D01*
X134012Y312990D01*
X133915Y313143D01*
X133824Y313300D01*
X133782Y313351D01*
X133747Y313406D01*
X133627Y313541D01*
X133512Y313681D01*
X133462Y313725D01*
X133418Y313774D01*
X133278Y313888D01*
X133142Y314008D01*
X133086Y314043D01*
X133034Y314084D01*
X132877Y314174D01*
X132724Y314270D01*
X132663Y314296D01*
X132606Y314328D01*
X132436Y314391D01*
X132269Y314461D01*
X132205Y314477D01*
X132143Y314500D01*
X131966Y314535D01*
X131790Y314577D01*
X131724Y314582D01*
X131659Y314595D01*
X131478Y314600D01*
X131298Y314614D01*
X131232Y314608D01*
X131166Y314610D01*
X130987Y314586D01*
X130895Y314578D01*
X128454Y314578D01*
X126446Y315410D01*
X124910Y316946D01*
X124078Y318954D01*
X124078Y320287D01*
X124069Y320401D01*
X124070Y320515D01*
X124049Y320647D01*
X124038Y320779D01*
X124011Y320890D01*
X123993Y321003D01*
X123952Y321129D01*
X123920Y321258D01*
X123875Y321363D01*
X123839Y321471D01*
X123777Y321589D01*
X123725Y321711D01*
X123664Y321807D01*
X123611Y321909D01*
X123552Y321982D01*
X123460Y322127D01*
X123244Y322369D01*
X123186Y322442D01*
X45455Y400173D01*
X45368Y400247D01*
X45288Y400328D01*
X45180Y400406D01*
X45079Y400492D01*
X44981Y400551D01*
X44889Y400618D01*
X44770Y400678D01*
X44656Y400747D01*
X44550Y400789D01*
X44448Y400841D01*
X44322Y400881D01*
X44198Y400930D01*
X44087Y400955D01*
X43978Y400989D01*
X43884Y400999D01*
X43717Y401037D01*
X43392Y401055D01*
X43300Y401065D01*
X42044Y401065D01*
X42006Y401062D01*
X41968Y401064D01*
X41760Y401042D01*
X41552Y401025D01*
X41515Y401016D01*
X41477Y401012D01*
X41276Y400957D01*
X41073Y400907D01*
X41038Y400892D01*
X41001Y400881D01*
X40811Y400794D01*
X40620Y400712D01*
X40588Y400692D01*
X40553Y400676D01*
X40380Y400559D01*
X40204Y400447D01*
X40175Y400422D01*
X40144Y400400D01*
X39992Y400257D01*
X39836Y400118D01*
X39812Y400089D01*
X39784Y400063D01*
X39657Y399897D01*
X39526Y399734D01*
X39507Y399701D01*
X39484Y399671D01*
X39385Y399487D01*
X39282Y399306D01*
X39269Y399270D01*
X39251Y399236D01*
X39183Y399039D01*
X39110Y398843D01*
X39103Y398806D01*
X39091Y398770D01*
X39056Y398563D01*
X39016Y398359D01*
X39014Y398321D01*
X39008Y398283D01*
X39007Y398074D01*
X39000Y397866D01*
X39005Y397828D01*
X39005Y397790D01*
X39038Y397583D01*
X39065Y397377D01*
X39076Y397340D01*
X39082Y397303D01*
X39147Y397104D01*
X39207Y396905D01*
X39224Y396870D01*
X39236Y396834D01*
X39332Y396649D01*
X39424Y396461D01*
X39446Y396430D01*
X39464Y396396D01*
X39522Y396324D01*
X39710Y396059D01*
X39831Y395937D01*
X39889Y395863D01*
X112015Y323738D01*
X112015Y321152D01*
X112024Y321038D01*
X112023Y320924D01*
X112044Y320792D01*
X112055Y320660D01*
X112082Y320549D01*
X112100Y320436D01*
X112141Y320310D01*
X112173Y320181D01*
X112218Y320076D01*
X112254Y319968D01*
X112316Y319850D01*
X112368Y319728D01*
X112429Y319631D01*
X112482Y319530D01*
X112541Y319456D01*
X112633Y319312D01*
X112849Y319069D01*
X112907Y318997D01*
X113850Y318054D01*
X114682Y316046D01*
X114682Y313874D01*
X113850Y311866D01*
X112314Y310330D01*
X110306Y309498D01*
X108134Y309498D01*
X106126Y310330D01*
X104590Y311866D01*
X103758Y313874D01*
X103758Y316046D01*
X104590Y318054D01*
X105037Y318501D01*
X105086Y318559D01*
X105142Y318611D01*
X105246Y318747D01*
X105357Y318877D01*
X105396Y318942D01*
X105442Y319003D01*
X105523Y319153D01*
X105611Y319300D01*
X105639Y319370D01*
X105675Y319438D01*
X105731Y319599D01*
X105794Y319758D01*
X105811Y319832D01*
X105835Y319904D01*
X105864Y320073D01*
X105901Y320239D01*
X105905Y320315D01*
X105918Y320391D01*
X105919Y320561D01*
X105929Y320732D01*
X105921Y320808D01*
X105921Y320884D01*
X105895Y321053D01*
X105876Y321222D01*
X105856Y321296D01*
X105844Y321371D01*
X105791Y321534D01*
X105746Y321698D01*
X105714Y321767D01*
X105690Y321840D01*
X105611Y321991D01*
X105540Y322147D01*
X105498Y322210D01*
X105462Y322277D01*
X105397Y322360D01*
X105265Y322556D01*
X105103Y322728D01*
X105037Y322811D01*
X35295Y392553D01*
X35208Y392627D01*
X35128Y392708D01*
X35020Y392786D01*
X34919Y392872D01*
X34821Y392931D01*
X34729Y392998D01*
X34610Y393058D01*
X34496Y393127D01*
X34390Y393169D01*
X34288Y393221D01*
X34162Y393261D01*
X34038Y393310D01*
X33927Y393335D01*
X33818Y393369D01*
X33724Y393379D01*
X33557Y393417D01*
X33232Y393435D01*
X33140Y393445D01*
X1112Y393445D01*
X998Y393436D01*
X883Y393437D01*
X752Y393416D01*
X620Y393405D01*
X509Y393378D01*
X396Y393360D01*
X270Y393319D01*
X141Y393287D01*
X36Y393242D01*
X-73Y393206D01*
X-190Y393144D01*
X-312Y393092D01*
X-409Y393031D01*
X-510Y392978D01*
X-584Y392919D01*
X-729Y392827D01*
X-971Y392611D01*
X-1043Y392553D01*
X-1986Y391610D01*
X-3994Y390778D01*
X-6166Y390778D01*
X-8174Y391610D01*
X-9117Y392553D01*
X-9204Y392627D01*
X-9284Y392708D01*
X-9391Y392786D01*
X-9493Y392872D01*
X-9591Y392931D01*
X-9683Y392998D01*
X-9801Y393058D01*
X-9915Y393127D01*
X-10022Y393169D01*
X-10123Y393221D01*
X-10250Y393261D01*
X-10373Y393310D01*
X-10485Y393335D01*
X-10594Y393369D01*
X-10687Y393379D01*
X-10855Y393417D01*
X-11179Y393435D01*
X-11272Y393445D01*
X-87788Y393445D01*
X-87902Y393436D01*
X-88017Y393437D01*
X-88148Y393416D01*
X-88280Y393405D01*
X-88391Y393378D01*
X-88504Y393360D01*
X-88630Y393319D01*
X-88759Y393287D01*
X-88864Y393242D01*
X-88972Y393206D01*
X-89090Y393145D01*
X-89212Y393092D01*
X-89309Y393031D01*
X-89410Y392978D01*
X-89484Y392919D01*
X-89628Y392827D01*
X-89870Y392611D01*
X-89943Y392553D01*
X-90886Y391610D01*
X-92894Y390778D01*
X-95066Y390778D01*
X-97074Y391610D01*
X-98610Y393146D01*
X-99442Y395154D01*
X-99442Y395351D01*
X-99448Y395427D01*
X-99446Y395503D01*
X-99468Y395672D01*
X-99482Y395843D01*
X-99500Y395917D01*
X-99510Y395992D01*
X-99559Y396156D01*
X-99600Y396322D01*
X-99630Y396391D01*
X-99652Y396465D01*
X-99728Y396618D01*
X-99795Y396775D01*
X-99836Y396839D01*
X-99869Y396908D01*
X-99968Y397047D01*
X-100060Y397191D01*
X-100111Y397248D01*
X-100155Y397310D01*
X-100275Y397431D01*
X-100389Y397559D01*
X-100448Y397607D01*
X-100502Y397661D01*
X-100640Y397762D01*
X-100773Y397869D01*
X-100839Y397906D01*
X-100900Y397951D01*
X-101053Y398028D01*
X-101201Y398113D01*
X-101273Y398139D01*
X-101341Y398174D01*
X-101504Y398225D01*
X-101664Y398284D01*
X-101739Y398299D01*
X-101811Y398322D01*
X-101916Y398334D01*
X-102148Y398379D01*
X-102384Y398386D01*
X-102489Y398398D01*
X-105226Y398398D01*
X-107234Y399230D01*
X-108770Y400766D01*
X-109602Y402774D01*
X-109602Y404946D01*
X-108770Y406954D01*
X-107234Y408490D01*
X-105226Y409322D01*
X-103054Y409322D01*
X-101046Y408490D01*
X-100103Y407547D01*
X-100016Y407473D01*
X-99936Y407392D01*
X-99829Y407314D01*
X-99727Y407228D01*
X-99629Y407169D01*
X-99537Y407102D01*
X-99419Y407042D01*
X-99305Y406973D01*
X-99198Y406931D01*
X-99097Y406879D01*
X-98970Y406839D01*
X-98847Y406790D01*
X-98735Y406765D01*
X-98626Y406731D01*
X-98533Y406721D01*
X-98365Y406683D01*
X-98041Y406665D01*
X-97948Y406655D01*
X-51654Y406655D01*
X-51473Y406669D01*
X-51292Y406676D01*
X-51228Y406689D01*
X-51162Y406695D01*
X-50986Y406738D01*
X-50809Y406774D01*
X-50747Y406798D01*
X-50683Y406813D01*
X-50517Y406885D01*
X-50347Y406949D01*
X-50290Y406982D01*
X-50230Y407008D01*
X-50077Y407105D01*
X-49920Y407196D01*
X-49869Y407238D01*
X-49814Y407273D01*
X-49679Y407393D01*
X-49539Y407508D01*
X-49495Y407558D01*
X-49446Y407602D01*
X-49332Y407742D01*
X-49212Y407878D01*
X-49177Y407934D01*
X-49136Y407986D01*
X-49046Y408143D01*
X-48950Y408296D01*
X-48924Y408357D01*
X-48892Y408414D01*
X-48829Y408584D01*
X-48759Y408751D01*
X-48743Y408815D01*
X-48720Y408877D01*
X-48685Y409054D01*
X-48643Y409230D01*
X-48638Y409296D01*
X-48625Y409361D01*
X-48620Y409542D01*
X-48606Y409722D01*
X-48612Y409788D01*
X-48610Y409854D01*
X-48634Y410033D01*
X-48642Y410125D01*
X-48642Y412566D01*
X-47810Y414574D01*
X-46274Y416110D01*
X-44266Y416942D01*
X-42094Y416942D01*
X-40086Y416110D01*
X-39143Y415167D01*
X-39056Y415093D01*
X-38976Y415012D01*
X-38869Y414934D01*
X-38767Y414848D01*
X-38669Y414789D01*
X-38577Y414722D01*
X-38459Y414662D01*
X-38345Y414593D01*
X-38238Y414551D01*
X-38137Y414499D01*
X-38010Y414459D01*
X-37887Y414410D01*
X-37775Y414385D01*
X-37666Y414351D01*
X-37573Y414341D01*
X-37405Y414303D01*
X-37081Y414285D01*
X-36988Y414275D01*
X59578Y414275D01*
X62107Y411745D01*
X71736Y402116D01*
X71765Y402091D01*
X71791Y402063D01*
X71953Y401932D01*
X72112Y401797D01*
X72145Y401777D01*
X72175Y401753D01*
X72356Y401650D01*
X72535Y401542D01*
X72570Y401528D01*
X72603Y401509D01*
X72799Y401436D01*
X72993Y401359D01*
X73030Y401351D01*
X73066Y401337D01*
X73271Y401297D01*
X73475Y401252D01*
X73513Y401250D01*
X73550Y401243D01*
X73758Y401236D01*
X73967Y401224D01*
X74005Y401229D01*
X74043Y401227D01*
X74250Y401255D01*
X74458Y401277D01*
X74494Y401287D01*
X74532Y401292D01*
X74732Y401352D01*
X74933Y401407D01*
X74968Y401423D01*
X75005Y401434D01*
X75192Y401526D01*
X75382Y401613D01*
X75414Y401634D01*
X75448Y401651D01*
X75617Y401772D01*
X75791Y401888D01*
X75819Y401915D01*
X75850Y401937D01*
X75998Y402083D01*
X76151Y402226D01*
X76174Y402257D01*
X76201Y402283D01*
X76324Y402452D01*
X76451Y402618D01*
X76469Y402651D01*
X76491Y402682D01*
X76585Y402868D01*
X76684Y403052D01*
X76697Y403089D01*
X76714Y403123D01*
X76776Y403321D01*
X76844Y403519D01*
X76850Y403557D01*
X76862Y403593D01*
X76870Y403661D01*
X77770Y405834D01*
X79306Y407370D01*
X81314Y408202D01*
X83486Y408202D01*
X85494Y407370D01*
X86437Y406427D01*
X86524Y406353D01*
X86604Y406272D01*
X86711Y406194D01*
X86813Y406108D01*
X86911Y406049D01*
X87003Y405982D01*
X87121Y405922D01*
X87235Y405853D01*
X87342Y405811D01*
X87443Y405759D01*
X87570Y405719D01*
X87693Y405670D01*
X87805Y405645D01*
X87914Y405611D01*
X88007Y405601D01*
X88175Y405563D01*
X88499Y405545D01*
X88592Y405535D01*
X119118Y405535D01*
X178055Y346598D01*
X178055Y46832D01*
X178064Y46718D01*
X178063Y46604D01*
X178084Y46472D01*
X178095Y46340D01*
X178122Y46229D01*
X178140Y46116D01*
X178181Y45990D01*
X178213Y45861D01*
X178258Y45756D01*
X178294Y45648D01*
X178356Y45530D01*
X178408Y45408D01*
X178469Y45311D01*
X178522Y45210D01*
X178581Y45136D01*
X178673Y44992D01*
X178889Y44749D01*
X178947Y44677D01*
X179890Y43734D01*
X180722Y41726D01*
X180722Y39554D01*
X179890Y37546D01*
X178354Y36010D01*
X176346Y35178D01*
X173906Y35178D01*
X173823Y35195D01*
X173757Y35197D01*
X173692Y35206D01*
X173510Y35204D01*
X173330Y35210D01*
X173265Y35201D01*
X173198Y35200D01*
X173020Y35169D01*
X172841Y35145D01*
X172778Y35126D01*
X172713Y35115D01*
X172542Y35055D01*
X172368Y35003D01*
X172309Y34974D01*
X172247Y34952D01*
X172088Y34866D01*
X171925Y34786D01*
X171872Y34748D01*
X171814Y34716D01*
X171670Y34605D01*
X171523Y34501D01*
X171476Y34454D01*
X171424Y34414D01*
X171301Y34281D01*
X171172Y34154D01*
X171133Y34101D01*
X171088Y34052D01*
X170988Y33902D01*
X170882Y33755D01*
X170852Y33696D01*
X170815Y33641D01*
X170741Y33476D01*
X170659Y33315D01*
X170640Y33252D01*
X170612Y33192D01*
X170566Y33017D01*
X170511Y32844D01*
X170505Y32792D01*
X170485Y32715D01*
X170435Y32224D01*
X170437Y32190D01*
X170435Y32166D01*
X170435Y8732D01*
X170444Y8618D01*
X170443Y8504D01*
X170464Y8372D01*
X170475Y8240D01*
X170502Y8129D01*
X170520Y8016D01*
X170561Y7890D01*
X170593Y7761D01*
X170638Y7656D01*
X170674Y7548D01*
X170736Y7430D01*
X170788Y7308D01*
X170849Y7211D01*
X170902Y7110D01*
X170961Y7036D01*
X171053Y6892D01*
X171269Y6649D01*
X171327Y6577D01*
X172270Y5634D01*
X173102Y3626D01*
X173102Y1454D01*
X172270Y-554D01*
X170734Y-2090D01*
X168726Y-2922D01*
X166554Y-2922D01*
G37*
%LPD*%
%LPC*%
G36*
X-51025Y-16798D02*
X-51025Y-16798D01*
X-55133Y-15097D01*
X-58277Y-11953D01*
X-59978Y-7845D01*
X-59978Y-3970D01*
X-59987Y-3856D01*
X-59987Y-3742D01*
X-60007Y-3610D01*
X-60018Y-3478D01*
X-60046Y-3367D01*
X-60063Y-3254D01*
X-60105Y-3128D01*
X-60137Y-2999D01*
X-60182Y-2894D01*
X-60218Y-2786D01*
X-60279Y-2668D01*
X-60331Y-2546D01*
X-60393Y-2450D01*
X-60446Y-2348D01*
X-60504Y-2275D01*
X-60597Y-2130D01*
X-60813Y-1888D01*
X-60871Y-1815D01*
X-119721Y57035D01*
X-121793Y59107D01*
X-122683Y61255D01*
X-122683Y96724D01*
X-122692Y96838D01*
X-122691Y96952D01*
X-122712Y97084D01*
X-122723Y97216D01*
X-122750Y97327D01*
X-122768Y97440D01*
X-122809Y97566D01*
X-122841Y97695D01*
X-122886Y97800D01*
X-122922Y97908D01*
X-122984Y98026D01*
X-123036Y98148D01*
X-123097Y98244D01*
X-123150Y98346D01*
X-123209Y98419D01*
X-123301Y98564D01*
X-123517Y98806D01*
X-123575Y98879D01*
X-126315Y101619D01*
X-126580Y102258D01*
X-126680Y102453D01*
X-126776Y102649D01*
X-126792Y102672D01*
X-126805Y102697D01*
X-126935Y102873D01*
X-127061Y103051D01*
X-127081Y103071D01*
X-127098Y103094D01*
X-127254Y103246D01*
X-127408Y103402D01*
X-127431Y103419D01*
X-127451Y103439D01*
X-127630Y103564D01*
X-127807Y103692D01*
X-127832Y103705D01*
X-127855Y103722D01*
X-128052Y103816D01*
X-128247Y103915D01*
X-128274Y103923D01*
X-128300Y103936D01*
X-128509Y103997D01*
X-128718Y104063D01*
X-128741Y104066D01*
X-128773Y104075D01*
X-129262Y104136D01*
X-129343Y104133D01*
X-129395Y104139D01*
X-159508Y104139D01*
X-160909Y104719D01*
X-222222Y166033D01*
X-222389Y166174D01*
X-222552Y166319D01*
X-222576Y166334D01*
X-222598Y166353D01*
X-222786Y166466D01*
X-222970Y166581D01*
X-222996Y166592D01*
X-223021Y166607D01*
X-223224Y166688D01*
X-223425Y166773D01*
X-223453Y166780D01*
X-223479Y166790D01*
X-223692Y166837D01*
X-223904Y166889D01*
X-223933Y166891D01*
X-223961Y166897D01*
X-224179Y166909D01*
X-224396Y166926D01*
X-224425Y166923D01*
X-224453Y166925D01*
X-224671Y166902D01*
X-224888Y166882D01*
X-224910Y166876D01*
X-224944Y166872D01*
X-225419Y166742D01*
X-225493Y166708D01*
X-225543Y166694D01*
X-226326Y166369D01*
X-230874Y166369D01*
X-235075Y168109D01*
X-238291Y171325D01*
X-240031Y175526D01*
X-240031Y180074D01*
X-238291Y184275D01*
X-235075Y187491D01*
X-230874Y189231D01*
X-226326Y189231D01*
X-222125Y187491D01*
X-218909Y184275D01*
X-217169Y180074D01*
X-217169Y175526D01*
X-217494Y174743D01*
X-217560Y174536D01*
X-217631Y174329D01*
X-217636Y174301D01*
X-217645Y174274D01*
X-217677Y174058D01*
X-217714Y173842D01*
X-217714Y173814D01*
X-217718Y173786D01*
X-217716Y173568D01*
X-217717Y173349D01*
X-217713Y173321D01*
X-217712Y173292D01*
X-217674Y173078D01*
X-217640Y172862D01*
X-217632Y172835D01*
X-217627Y172807D01*
X-217555Y172601D01*
X-217486Y172393D01*
X-217473Y172368D01*
X-217464Y172341D01*
X-217359Y172150D01*
X-217258Y171955D01*
X-217244Y171937D01*
X-217228Y171908D01*
X-216925Y171518D01*
X-216866Y171463D01*
X-216833Y171422D01*
X-158064Y112653D01*
X-157977Y112579D01*
X-157897Y112498D01*
X-157789Y112420D01*
X-157688Y112334D01*
X-157590Y112275D01*
X-157498Y112208D01*
X-157380Y112148D01*
X-157266Y112079D01*
X-157159Y112037D01*
X-157058Y111985D01*
X-156931Y111945D01*
X-156807Y111896D01*
X-156696Y111871D01*
X-156587Y111837D01*
X-156494Y111827D01*
X-156326Y111789D01*
X-156002Y111771D01*
X-155909Y111761D01*
X-129395Y111761D01*
X-129177Y111778D01*
X-128960Y111792D01*
X-128932Y111798D01*
X-128904Y111801D01*
X-128691Y111853D01*
X-128479Y111902D01*
X-128452Y111913D01*
X-128425Y111919D01*
X-128224Y112006D01*
X-128022Y112088D01*
X-127997Y112103D01*
X-127971Y112114D01*
X-127788Y112231D01*
X-127601Y112345D01*
X-127579Y112364D01*
X-127555Y112379D01*
X-127393Y112524D01*
X-127227Y112667D01*
X-127209Y112689D01*
X-127187Y112708D01*
X-127050Y112877D01*
X-126910Y113045D01*
X-126898Y113065D01*
X-126877Y113092D01*
X-126633Y113520D01*
X-126605Y113596D01*
X-126580Y113642D01*
X-126315Y114281D01*
X-123171Y117425D01*
X-122532Y117690D01*
X-122337Y117790D01*
X-122141Y117886D01*
X-122118Y117902D01*
X-122093Y117915D01*
X-121917Y118045D01*
X-121739Y118171D01*
X-121719Y118191D01*
X-121696Y118208D01*
X-121544Y118364D01*
X-121388Y118518D01*
X-121371Y118541D01*
X-121351Y118561D01*
X-121226Y118740D01*
X-121098Y118917D01*
X-121085Y118942D01*
X-121068Y118965D01*
X-120974Y119162D01*
X-120875Y119357D01*
X-120867Y119384D01*
X-120854Y119410D01*
X-120793Y119619D01*
X-120727Y119828D01*
X-120724Y119851D01*
X-120715Y119883D01*
X-120654Y120372D01*
X-120657Y120453D01*
X-120651Y120505D01*
X-120651Y211578D01*
X-120071Y212979D01*
X-60964Y272085D01*
X-60890Y272172D01*
X-60809Y272252D01*
X-60731Y272360D01*
X-60645Y272461D01*
X-60586Y272559D01*
X-60519Y272651D01*
X-60459Y272769D01*
X-60390Y272883D01*
X-60348Y272990D01*
X-60296Y273091D01*
X-60256Y273218D01*
X-60207Y273342D01*
X-60182Y273453D01*
X-60148Y273562D01*
X-60138Y273655D01*
X-60100Y273823D01*
X-60084Y274106D01*
X-59240Y276144D01*
X-57704Y277680D01*
X-55674Y278521D01*
X-55572Y278520D01*
X-55440Y278541D01*
X-55308Y278552D01*
X-55197Y278579D01*
X-55084Y278597D01*
X-54958Y278638D01*
X-54829Y278670D01*
X-54724Y278715D01*
X-54616Y278751D01*
X-54498Y278813D01*
X-54376Y278865D01*
X-54280Y278926D01*
X-54178Y278979D01*
X-54105Y279038D01*
X-53960Y279130D01*
X-53717Y279346D01*
X-53645Y279404D01*
X34286Y367335D01*
X34360Y367422D01*
X34441Y367502D01*
X34519Y367610D01*
X34605Y367711D01*
X34664Y367809D01*
X34731Y367901D01*
X34791Y368019D01*
X34860Y368133D01*
X34902Y368240D01*
X34954Y368341D01*
X34994Y368468D01*
X35043Y368592D01*
X35068Y368703D01*
X35102Y368812D01*
X35112Y368905D01*
X35150Y369073D01*
X35166Y369356D01*
X36010Y371394D01*
X37546Y372930D01*
X39554Y373762D01*
X41726Y373762D01*
X43734Y372930D01*
X45270Y371394D01*
X46102Y369386D01*
X46102Y369189D01*
X46108Y369113D01*
X46106Y369037D01*
X46128Y368868D01*
X46142Y368697D01*
X46160Y368623D01*
X46170Y368548D01*
X46219Y368384D01*
X46260Y368218D01*
X46290Y368149D01*
X46312Y368075D01*
X46388Y367922D01*
X46455Y367765D01*
X46496Y367701D01*
X46529Y367632D01*
X46628Y367493D01*
X46720Y367349D01*
X46771Y367292D01*
X46815Y367230D01*
X46935Y367109D01*
X47049Y366981D01*
X47108Y366933D01*
X47162Y366879D01*
X47300Y366778D01*
X47433Y366671D01*
X47499Y366634D01*
X47560Y366589D01*
X47713Y366512D01*
X47861Y366427D01*
X47933Y366401D01*
X48001Y366366D01*
X48164Y366315D01*
X48324Y366256D01*
X48399Y366241D01*
X48471Y366218D01*
X48576Y366206D01*
X48808Y366161D01*
X49044Y366154D01*
X49149Y366142D01*
X49346Y366142D01*
X51354Y365310D01*
X52890Y363774D01*
X53722Y361766D01*
X53722Y359594D01*
X52881Y357564D01*
X52808Y357492D01*
X52730Y357385D01*
X52644Y357283D01*
X52585Y357185D01*
X52518Y357093D01*
X52458Y356975D01*
X52389Y356861D01*
X52347Y356754D01*
X52295Y356653D01*
X52255Y356526D01*
X52206Y356403D01*
X52181Y356291D01*
X52147Y356182D01*
X52137Y356089D01*
X52099Y355921D01*
X52081Y355597D01*
X52071Y355504D01*
X52071Y347222D01*
X51491Y345821D01*
X49990Y344321D01*
X-44446Y249885D01*
X-44520Y249798D01*
X-44601Y249718D01*
X-44679Y249610D01*
X-44765Y249509D01*
X-44824Y249411D01*
X-44891Y249319D01*
X-44951Y249201D01*
X-45020Y249087D01*
X-45062Y248980D01*
X-45114Y248879D01*
X-45154Y248752D01*
X-45203Y248628D01*
X-45228Y248517D01*
X-45262Y248408D01*
X-45272Y248315D01*
X-45310Y248147D01*
X-45326Y247864D01*
X-46170Y245826D01*
X-47706Y244290D01*
X-49736Y243449D01*
X-49838Y243450D01*
X-49970Y243429D01*
X-50102Y243418D01*
X-50213Y243391D01*
X-50326Y243373D01*
X-50452Y243332D01*
X-50581Y243300D01*
X-50686Y243255D01*
X-50794Y243219D01*
X-50912Y243157D01*
X-51034Y243105D01*
X-51130Y243044D01*
X-51232Y242991D01*
X-51305Y242932D01*
X-51450Y242840D01*
X-51693Y242624D01*
X-51765Y242566D01*
X-86737Y207594D01*
X-86811Y207507D01*
X-86892Y207427D01*
X-86970Y207319D01*
X-87056Y207218D01*
X-87115Y207120D01*
X-87182Y207028D01*
X-87242Y206910D01*
X-87311Y206796D01*
X-87353Y206689D01*
X-87405Y206588D01*
X-87445Y206461D01*
X-87494Y206337D01*
X-87519Y206226D01*
X-87553Y206117D01*
X-87563Y206024D01*
X-87601Y205856D01*
X-87619Y205532D01*
X-87629Y205439D01*
X-87629Y120505D01*
X-87612Y120287D01*
X-87598Y120070D01*
X-87592Y120042D01*
X-87589Y120014D01*
X-87537Y119801D01*
X-87488Y119589D01*
X-87477Y119562D01*
X-87471Y119535D01*
X-87384Y119334D01*
X-87302Y119132D01*
X-87287Y119107D01*
X-87276Y119081D01*
X-87158Y118897D01*
X-87045Y118711D01*
X-87026Y118689D01*
X-87011Y118665D01*
X-86866Y118503D01*
X-86723Y118337D01*
X-86701Y118319D01*
X-86682Y118297D01*
X-86513Y118160D01*
X-86345Y118020D01*
X-86325Y118008D01*
X-86298Y117987D01*
X-85870Y117743D01*
X-85794Y117715D01*
X-85748Y117690D01*
X-85109Y117425D01*
X-81965Y114281D01*
X-81555Y113292D01*
X-81538Y113259D01*
X-81525Y113222D01*
X-81425Y113039D01*
X-81330Y112853D01*
X-81308Y112823D01*
X-81289Y112789D01*
X-81161Y112624D01*
X-81037Y112456D01*
X-81010Y112430D01*
X-80987Y112400D01*
X-80833Y112258D01*
X-80684Y112112D01*
X-80653Y112090D01*
X-80625Y112064D01*
X-80451Y111949D01*
X-80280Y111829D01*
X-80245Y111812D01*
X-80214Y111791D01*
X-80024Y111706D01*
X-79835Y111615D01*
X-79799Y111604D01*
X-79764Y111589D01*
X-79562Y111534D01*
X-79362Y111475D01*
X-79325Y111471D01*
X-79288Y111461D01*
X-79079Y111440D01*
X-78873Y111414D01*
X-78835Y111416D01*
X-78797Y111412D01*
X-78588Y111425D01*
X-78380Y111433D01*
X-78342Y111440D01*
X-78304Y111443D01*
X-78100Y111489D01*
X-77896Y111530D01*
X-77861Y111544D01*
X-77823Y111552D01*
X-77630Y111631D01*
X-77435Y111705D01*
X-77402Y111724D01*
X-77366Y111738D01*
X-77188Y111847D01*
X-77008Y111952D01*
X-76978Y111976D01*
X-76945Y111996D01*
X-76787Y112132D01*
X-76626Y112264D01*
X-76601Y112293D01*
X-76572Y112318D01*
X-76437Y112478D01*
X-76299Y112634D01*
X-76279Y112666D01*
X-76255Y112695D01*
X-76210Y112777D01*
X-76037Y113052D01*
X-75970Y113210D01*
X-75925Y113292D01*
X-75515Y114281D01*
X-72371Y117425D01*
X-68263Y119127D01*
X-63817Y119127D01*
X-59709Y117425D01*
X-56565Y114281D01*
X-56515Y114162D01*
X-56440Y114014D01*
X-56372Y113863D01*
X-56327Y113795D01*
X-56290Y113723D01*
X-56192Y113589D01*
X-56101Y113451D01*
X-56046Y113391D01*
X-55997Y113326D01*
X-55879Y113210D01*
X-55767Y113089D01*
X-55703Y113038D01*
X-55644Y112981D01*
X-55509Y112886D01*
X-55378Y112784D01*
X-55307Y112745D01*
X-55240Y112698D01*
X-55091Y112627D01*
X-54946Y112547D01*
X-54869Y112520D01*
X-54795Y112484D01*
X-54637Y112438D01*
X-54481Y112382D01*
X-54400Y112368D01*
X-54322Y112345D01*
X-54158Y112324D01*
X-53996Y112295D01*
X-53914Y112294D01*
X-53833Y112283D01*
X-53668Y112290D01*
X-53502Y112287D01*
X-53421Y112299D01*
X-53340Y112302D01*
X-53178Y112335D01*
X-53014Y112359D01*
X-52936Y112383D01*
X-52856Y112400D01*
X-52702Y112458D01*
X-52544Y112508D01*
X-52471Y112545D01*
X-52395Y112574D01*
X-52252Y112657D01*
X-52104Y112732D01*
X-52038Y112780D01*
X-51968Y112821D01*
X-51840Y112926D01*
X-51706Y113023D01*
X-51649Y113082D01*
X-51586Y113133D01*
X-51476Y113257D01*
X-51361Y113375D01*
X-51326Y113428D01*
X-51259Y113503D01*
X-50997Y113921D01*
X-50991Y113935D01*
X-50985Y113944D01*
X-50851Y114207D01*
X-49746Y115728D01*
X-48418Y117056D01*
X-46897Y118161D01*
X-45223Y119014D01*
X-43687Y119513D01*
X-43687Y107950D01*
X-43687Y96387D01*
X-45223Y96886D01*
X-46897Y97739D01*
X-48418Y98844D01*
X-49746Y100172D01*
X-50851Y101693D01*
X-50985Y101956D01*
X-51072Y102097D01*
X-51151Y102242D01*
X-51201Y102306D01*
X-51244Y102376D01*
X-51352Y102501D01*
X-51453Y102631D01*
X-51513Y102687D01*
X-51567Y102748D01*
X-51694Y102854D01*
X-51815Y102967D01*
X-51883Y103012D01*
X-51946Y103064D01*
X-52088Y103148D01*
X-52226Y103239D01*
X-52301Y103273D01*
X-52371Y103314D01*
X-52525Y103374D01*
X-52676Y103442D01*
X-52755Y103463D01*
X-52831Y103493D01*
X-52993Y103527D01*
X-53152Y103570D01*
X-53234Y103578D01*
X-53314Y103595D01*
X-53479Y103603D01*
X-53643Y103619D01*
X-53725Y103614D01*
X-53806Y103618D01*
X-53971Y103599D01*
X-54136Y103588D01*
X-54215Y103570D01*
X-54296Y103561D01*
X-54455Y103515D01*
X-54617Y103478D01*
X-54692Y103448D01*
X-54771Y103425D01*
X-54921Y103355D01*
X-55073Y103292D01*
X-55143Y103250D01*
X-55217Y103215D01*
X-55353Y103121D01*
X-55494Y103035D01*
X-55556Y102982D01*
X-55624Y102936D01*
X-55743Y102821D01*
X-55868Y102713D01*
X-55921Y102651D01*
X-55980Y102594D01*
X-56079Y102462D01*
X-56185Y102335D01*
X-56216Y102280D01*
X-56276Y102200D01*
X-56505Y101763D01*
X-56510Y101748D01*
X-56515Y101738D01*
X-56565Y101619D01*
X-59709Y98475D01*
X-63817Y96773D01*
X-68263Y96773D01*
X-72371Y98475D01*
X-75515Y101619D01*
X-75925Y102608D01*
X-75942Y102642D01*
X-75955Y102678D01*
X-76054Y102861D01*
X-76150Y103047D01*
X-76172Y103077D01*
X-76191Y103111D01*
X-76318Y103275D01*
X-76443Y103444D01*
X-76470Y103470D01*
X-76493Y103500D01*
X-76646Y103642D01*
X-76796Y103788D01*
X-76827Y103810D01*
X-76855Y103836D01*
X-77029Y103951D01*
X-77200Y104071D01*
X-77234Y104088D01*
X-77266Y104109D01*
X-77457Y104195D01*
X-77644Y104285D01*
X-77681Y104296D01*
X-77716Y104311D01*
X-77917Y104365D01*
X-78118Y104425D01*
X-78156Y104429D01*
X-78192Y104439D01*
X-78400Y104460D01*
X-78607Y104486D01*
X-78645Y104484D01*
X-78683Y104488D01*
X-78891Y104475D01*
X-79100Y104467D01*
X-79138Y104460D01*
X-79176Y104457D01*
X-79378Y104411D01*
X-79584Y104370D01*
X-79619Y104356D01*
X-79657Y104348D01*
X-79850Y104269D01*
X-80045Y104195D01*
X-80078Y104176D01*
X-80114Y104162D01*
X-80292Y104053D01*
X-80472Y103948D01*
X-80502Y103924D01*
X-80534Y103904D01*
X-80692Y103769D01*
X-80854Y103636D01*
X-80879Y103607D01*
X-80908Y103583D01*
X-81042Y103423D01*
X-81181Y103266D01*
X-81201Y103234D01*
X-81225Y103205D01*
X-81270Y103123D01*
X-81443Y102848D01*
X-81510Y102690D01*
X-81555Y102608D01*
X-81965Y101619D01*
X-84705Y98879D01*
X-84779Y98792D01*
X-84860Y98712D01*
X-84938Y98604D01*
X-85024Y98503D01*
X-85083Y98405D01*
X-85150Y98313D01*
X-85210Y98195D01*
X-85279Y98080D01*
X-85321Y97974D01*
X-85373Y97872D01*
X-85413Y97746D01*
X-85462Y97622D01*
X-85487Y97511D01*
X-85521Y97402D01*
X-85531Y97308D01*
X-85569Y97141D01*
X-85587Y96816D01*
X-85597Y96724D01*
X-85597Y76620D01*
X-85588Y76507D01*
X-85589Y76392D01*
X-85568Y76261D01*
X-85557Y76129D01*
X-85530Y76018D01*
X-85512Y75905D01*
X-85471Y75779D01*
X-85439Y75650D01*
X-85394Y75545D01*
X-85358Y75436D01*
X-85296Y75318D01*
X-85244Y75196D01*
X-85183Y75100D01*
X-85130Y74999D01*
X-85071Y74925D01*
X-84979Y74780D01*
X-84763Y74538D01*
X-84705Y74466D01*
X-34647Y24408D01*
X-34560Y24334D01*
X-34480Y24253D01*
X-34373Y24175D01*
X-34271Y24089D01*
X-34174Y24030D01*
X-34081Y23963D01*
X-33963Y23903D01*
X-33849Y23834D01*
X-33743Y23792D01*
X-33641Y23740D01*
X-33514Y23700D01*
X-33391Y23651D01*
X-33279Y23626D01*
X-33170Y23592D01*
X-33077Y23581D01*
X-32909Y23544D01*
X-32585Y23526D01*
X-32493Y23516D01*
X-28618Y23516D01*
X-27629Y23106D01*
X-27593Y23094D01*
X-27558Y23078D01*
X-27358Y23019D01*
X-27160Y22955D01*
X-27122Y22949D01*
X-27085Y22938D01*
X-26879Y22913D01*
X-26672Y22881D01*
X-26633Y22882D01*
X-26596Y22877D01*
X-26388Y22885D01*
X-26178Y22888D01*
X-26141Y22894D01*
X-26103Y22896D01*
X-25898Y22937D01*
X-25693Y22973D01*
X-25657Y22986D01*
X-25619Y22993D01*
X-25424Y23067D01*
X-25227Y23136D01*
X-25193Y23154D01*
X-25158Y23168D01*
X-24977Y23272D01*
X-24794Y23372D01*
X-24764Y23396D01*
X-24731Y23415D01*
X-24569Y23547D01*
X-24404Y23675D01*
X-24378Y23703D01*
X-24349Y23727D01*
X-24211Y23883D01*
X-24069Y24037D01*
X-24048Y24068D01*
X-24022Y24097D01*
X-23911Y24274D01*
X-23796Y24448D01*
X-23780Y24482D01*
X-23760Y24515D01*
X-23679Y24708D01*
X-23593Y24897D01*
X-23583Y24934D01*
X-23568Y24969D01*
X-23519Y25172D01*
X-23465Y25374D01*
X-23462Y25412D01*
X-23453Y25449D01*
X-23437Y25657D01*
X-23416Y25865D01*
X-23419Y25903D01*
X-23416Y25941D01*
X-23434Y26148D01*
X-23447Y26357D01*
X-23456Y26394D01*
X-23459Y26432D01*
X-23485Y26522D01*
X-23557Y26838D01*
X-23622Y26997D01*
X-23648Y27088D01*
X-24057Y28076D01*
X-24057Y32523D01*
X-22356Y36631D01*
X-19212Y39775D01*
X-15104Y41476D01*
X-10657Y41476D01*
X-10538Y41427D01*
X-10381Y41376D01*
X-10226Y41317D01*
X-10146Y41300D01*
X-10068Y41275D01*
X-9905Y41251D01*
X-9743Y41217D01*
X-9661Y41214D01*
X-9580Y41202D01*
X-9415Y41204D01*
X-9250Y41197D01*
X-9169Y41207D01*
X-9087Y41208D01*
X-8924Y41237D01*
X-8760Y41257D01*
X-8682Y41280D01*
X-8601Y41294D01*
X-8445Y41348D01*
X-8286Y41395D01*
X-8213Y41430D01*
X-8136Y41457D01*
X-7990Y41536D01*
X-7841Y41607D01*
X-7774Y41654D01*
X-7702Y41693D01*
X-7572Y41794D01*
X-7436Y41888D01*
X-7377Y41945D01*
X-7313Y41995D01*
X-7200Y42117D01*
X-7082Y42232D01*
X-7033Y42297D01*
X-6977Y42357D01*
X-6886Y42495D01*
X-6787Y42628D01*
X-6750Y42700D01*
X-6705Y42768D01*
X-6636Y42919D01*
X-6561Y43066D01*
X-6535Y43143D01*
X-6502Y43218D01*
X-6459Y43377D01*
X-6408Y43535D01*
X-6395Y43616D01*
X-6374Y43694D01*
X-6358Y43859D01*
X-6332Y44022D01*
X-6333Y44104D01*
X-6325Y44185D01*
X-6335Y44350D01*
X-6337Y44516D01*
X-6349Y44578D01*
X-6356Y44678D01*
X-6466Y45159D01*
X-6471Y45173D01*
X-6474Y45184D01*
X-6565Y45464D01*
X-6859Y47320D01*
X-6859Y49200D01*
X-6565Y51056D01*
X-5984Y52843D01*
X-5251Y54281D01*
X2925Y46105D01*
X11101Y37929D01*
X9663Y37196D01*
X7876Y36615D01*
X6020Y36321D01*
X4140Y36321D01*
X2284Y36615D01*
X2004Y36706D01*
X1843Y36745D01*
X1684Y36791D01*
X1603Y36802D01*
X1524Y36820D01*
X1359Y36832D01*
X1195Y36853D01*
X1113Y36850D01*
X1032Y36855D01*
X867Y36840D01*
X702Y36834D01*
X622Y36818D01*
X540Y36811D01*
X380Y36769D01*
X218Y36736D01*
X142Y36708D01*
X63Y36687D01*
X-89Y36620D01*
X-243Y36562D01*
X-314Y36521D01*
X-389Y36488D01*
X-528Y36398D01*
X-671Y36315D01*
X-734Y36263D01*
X-802Y36219D01*
X-924Y36107D01*
X-1052Y36003D01*
X-1106Y35942D01*
X-1167Y35886D01*
X-1270Y35757D01*
X-1379Y35633D01*
X-1422Y35564D01*
X-1473Y35500D01*
X-1553Y35355D01*
X-1641Y35215D01*
X-1673Y35140D01*
X-1713Y35068D01*
X-1769Y34913D01*
X-1833Y34760D01*
X-1852Y34681D01*
X-1880Y34604D01*
X-1910Y34442D01*
X-1948Y34281D01*
X-1955Y34199D01*
X-1969Y34119D01*
X-1973Y33954D01*
X-1985Y33789D01*
X-1978Y33708D01*
X-1980Y33626D01*
X-1957Y33462D01*
X-1942Y33297D01*
X-1925Y33236D01*
X-1911Y33137D01*
X-1763Y32667D01*
X-1756Y32653D01*
X-1753Y32642D01*
X-1704Y32523D01*
X-1704Y28076D01*
X-3405Y23968D01*
X-6549Y20824D01*
X-10657Y19123D01*
X-15104Y19123D01*
X-16092Y19532D01*
X-16129Y19544D01*
X-16163Y19561D01*
X-16363Y19620D01*
X-16562Y19684D01*
X-16600Y19689D01*
X-16636Y19700D01*
X-16843Y19726D01*
X-17050Y19757D01*
X-17088Y19757D01*
X-17126Y19761D01*
X-17334Y19754D01*
X-17543Y19751D01*
X-17581Y19744D01*
X-17619Y19743D01*
X-17823Y19701D01*
X-18029Y19665D01*
X-18065Y19653D01*
X-18102Y19645D01*
X-18298Y19571D01*
X-18495Y19502D01*
X-18528Y19484D01*
X-18564Y19471D01*
X-18744Y19366D01*
X-18928Y19266D01*
X-18958Y19243D01*
X-18991Y19224D01*
X-19152Y19092D01*
X-19317Y18964D01*
X-19343Y18936D01*
X-19373Y18911D01*
X-19511Y18755D01*
X-19653Y18602D01*
X-19674Y18570D01*
X-19699Y18542D01*
X-19810Y18364D01*
X-19926Y18191D01*
X-19941Y18156D01*
X-19962Y18124D01*
X-20043Y17930D01*
X-20128Y17741D01*
X-20138Y17704D01*
X-20153Y17669D01*
X-20202Y17466D01*
X-20256Y17265D01*
X-20260Y17227D01*
X-20269Y17190D01*
X-20284Y16981D01*
X-20305Y16774D01*
X-20303Y16736D01*
X-20306Y16698D01*
X-20288Y16490D01*
X-20274Y16281D01*
X-20266Y16244D01*
X-20263Y16206D01*
X-20237Y16117D01*
X-20165Y15800D01*
X-20100Y15641D01*
X-20074Y15551D01*
X-19664Y14562D01*
X-19664Y10116D01*
X-21366Y6008D01*
X-24510Y2864D01*
X-28618Y1162D01*
X-33064Y1162D01*
X-34053Y1572D01*
X-34089Y1583D01*
X-34124Y1600D01*
X-34324Y1659D01*
X-34522Y1723D01*
X-34560Y1729D01*
X-34597Y1740D01*
X-34804Y1765D01*
X-35010Y1797D01*
X-35049Y1796D01*
X-35086Y1801D01*
X-35294Y1793D01*
X-35504Y1790D01*
X-35541Y1784D01*
X-35579Y1782D01*
X-35784Y1741D01*
X-35989Y1705D01*
X-36025Y1692D01*
X-36063Y1685D01*
X-36258Y1611D01*
X-36455Y1542D01*
X-36489Y1524D01*
X-36524Y1510D01*
X-36705Y1406D01*
X-36888Y1306D01*
X-36918Y1283D01*
X-36951Y1263D01*
X-37114Y1131D01*
X-37278Y1003D01*
X-37304Y975D01*
X-37333Y951D01*
X-37472Y794D01*
X-37613Y641D01*
X-37635Y610D01*
X-37660Y581D01*
X-37771Y404D01*
X-37886Y230D01*
X-37902Y196D01*
X-37922Y163D01*
X-38003Y-29D01*
X-38089Y-219D01*
X-38099Y-256D01*
X-38114Y-291D01*
X-38163Y-494D01*
X-38217Y-696D01*
X-38220Y-734D01*
X-38229Y-771D01*
X-38245Y-979D01*
X-38266Y-1187D01*
X-38263Y-1225D01*
X-38266Y-1263D01*
X-38248Y-1471D01*
X-38235Y-1679D01*
X-38227Y-1716D01*
X-38223Y-1754D01*
X-38197Y-1844D01*
X-38125Y-2160D01*
X-38060Y-2319D01*
X-38034Y-2410D01*
X-37625Y-3398D01*
X-37625Y-7845D01*
X-39326Y-11953D01*
X-42470Y-15097D01*
X-46578Y-16798D01*
X-51025Y-16798D01*
G37*
%LPD*%
G36*
X-103988Y111425D02*
X-103988Y111425D01*
X-103780Y111433D01*
X-103742Y111440D01*
X-103704Y111443D01*
X-103500Y111489D01*
X-103296Y111530D01*
X-103261Y111544D01*
X-103223Y111552D01*
X-103030Y111631D01*
X-102835Y111705D01*
X-102802Y111724D01*
X-102766Y111738D01*
X-102588Y111847D01*
X-102408Y111952D01*
X-102378Y111976D01*
X-102345Y111996D01*
X-102187Y112132D01*
X-102026Y112264D01*
X-102001Y112293D01*
X-101972Y112318D01*
X-101837Y112478D01*
X-101699Y112634D01*
X-101679Y112666D01*
X-101655Y112695D01*
X-101610Y112777D01*
X-101437Y113052D01*
X-101370Y113210D01*
X-101325Y113292D01*
X-100915Y114281D01*
X-97771Y117425D01*
X-97132Y117690D01*
X-96937Y117790D01*
X-96741Y117886D01*
X-96718Y117902D01*
X-96693Y117915D01*
X-96517Y118045D01*
X-96339Y118171D01*
X-96319Y118191D01*
X-96296Y118208D01*
X-96144Y118364D01*
X-95988Y118518D01*
X-95971Y118541D01*
X-95951Y118561D01*
X-95826Y118740D01*
X-95698Y118917D01*
X-95685Y118942D01*
X-95668Y118965D01*
X-95574Y119162D01*
X-95475Y119357D01*
X-95467Y119384D01*
X-95454Y119410D01*
X-95393Y119619D01*
X-95327Y119828D01*
X-95324Y119851D01*
X-95315Y119883D01*
X-95254Y120372D01*
X-95257Y120453D01*
X-95251Y120505D01*
X-95251Y209038D01*
X-94671Y210439D01*
X-57154Y247955D01*
X-57080Y248042D01*
X-56999Y248122D01*
X-56921Y248230D01*
X-56835Y248331D01*
X-56776Y248429D01*
X-56709Y248521D01*
X-56649Y248639D01*
X-56580Y248753D01*
X-56538Y248860D01*
X-56486Y248961D01*
X-56446Y249088D01*
X-56397Y249212D01*
X-56372Y249323D01*
X-56338Y249432D01*
X-56328Y249525D01*
X-56290Y249693D01*
X-56274Y249976D01*
X-55430Y252014D01*
X-53894Y253550D01*
X-51864Y254391D01*
X-51762Y254390D01*
X-51630Y254411D01*
X-51498Y254422D01*
X-51387Y254449D01*
X-51274Y254467D01*
X-51148Y254508D01*
X-51019Y254540D01*
X-50914Y254585D01*
X-50806Y254621D01*
X-50688Y254683D01*
X-50566Y254735D01*
X-50469Y254796D01*
X-50368Y254849D01*
X-50295Y254908D01*
X-50150Y255000D01*
X-49907Y255216D01*
X-49835Y255274D01*
X43557Y348666D01*
X43631Y348753D01*
X43712Y348833D01*
X43790Y348941D01*
X43876Y349042D01*
X43935Y349140D01*
X44002Y349232D01*
X44062Y349350D01*
X44131Y349464D01*
X44173Y349571D01*
X44225Y349672D01*
X44265Y349799D01*
X44314Y349923D01*
X44339Y350034D01*
X44373Y350143D01*
X44383Y350236D01*
X44421Y350404D01*
X44439Y350728D01*
X44449Y350821D01*
X44449Y355504D01*
X44440Y355618D01*
X44441Y355732D01*
X44420Y355864D01*
X44409Y355996D01*
X44382Y356107D01*
X44364Y356220D01*
X44323Y356346D01*
X44291Y356475D01*
X44246Y356580D01*
X44210Y356688D01*
X44148Y356806D01*
X44096Y356928D01*
X44035Y357025D01*
X43982Y357126D01*
X43923Y357200D01*
X43831Y357344D01*
X43643Y357555D01*
X42940Y359252D01*
X42857Y359413D01*
X42782Y359577D01*
X42745Y359632D01*
X42715Y359691D01*
X42607Y359836D01*
X42507Y359986D01*
X42461Y360034D01*
X42422Y360088D01*
X42293Y360214D01*
X42169Y360345D01*
X42116Y360386D01*
X42069Y360432D01*
X41921Y360536D01*
X41778Y360646D01*
X41719Y360677D01*
X41664Y360715D01*
X41502Y360794D01*
X41343Y360879D01*
X41280Y360901D01*
X41220Y360929D01*
X41047Y360980D01*
X40876Y361039D01*
X40811Y361050D01*
X40747Y361069D01*
X40568Y361091D01*
X40390Y361122D01*
X40323Y361122D01*
X40257Y361130D01*
X40077Y361123D01*
X39896Y361125D01*
X39831Y361114D01*
X39764Y361112D01*
X39588Y361076D01*
X39409Y361048D01*
X39346Y361027D01*
X39281Y361014D01*
X39112Y360950D01*
X38941Y360894D01*
X38881Y360863D01*
X38819Y360839D01*
X38663Y360749D01*
X38503Y360666D01*
X38462Y360633D01*
X38392Y360593D01*
X38010Y360280D01*
X37988Y360255D01*
X37970Y360241D01*
X-48256Y274015D01*
X-48330Y273928D01*
X-48411Y273848D01*
X-48489Y273740D01*
X-48575Y273639D01*
X-48634Y273541D01*
X-48701Y273449D01*
X-48761Y273331D01*
X-48830Y273217D01*
X-48872Y273110D01*
X-48924Y273009D01*
X-48964Y272882D01*
X-49013Y272758D01*
X-49038Y272647D01*
X-49072Y272538D01*
X-49082Y272445D01*
X-49120Y272277D01*
X-49136Y271994D01*
X-49980Y269956D01*
X-51516Y268420D01*
X-53546Y267579D01*
X-53648Y267580D01*
X-53780Y267559D01*
X-53912Y267548D01*
X-54023Y267521D01*
X-54136Y267503D01*
X-54262Y267462D01*
X-54391Y267430D01*
X-54496Y267385D01*
X-54604Y267349D01*
X-54722Y267287D01*
X-54844Y267235D01*
X-54940Y267174D01*
X-55042Y267121D01*
X-55115Y267062D01*
X-55260Y266970D01*
X-55503Y266754D01*
X-55575Y266696D01*
X-112137Y210134D01*
X-112211Y210047D01*
X-112292Y209967D01*
X-112370Y209859D01*
X-112456Y209758D01*
X-112515Y209660D01*
X-112582Y209568D01*
X-112642Y209450D01*
X-112711Y209336D01*
X-112753Y209229D01*
X-112805Y209128D01*
X-112845Y209001D01*
X-112894Y208877D01*
X-112919Y208766D01*
X-112953Y208657D01*
X-112963Y208564D01*
X-113001Y208396D01*
X-113019Y208072D01*
X-113029Y207979D01*
X-113029Y120505D01*
X-113012Y120287D01*
X-112998Y120070D01*
X-112992Y120042D01*
X-112989Y120014D01*
X-112937Y119801D01*
X-112888Y119589D01*
X-112877Y119562D01*
X-112871Y119535D01*
X-112784Y119334D01*
X-112702Y119132D01*
X-112687Y119107D01*
X-112676Y119081D01*
X-112558Y118897D01*
X-112445Y118711D01*
X-112426Y118689D01*
X-112411Y118665D01*
X-112266Y118503D01*
X-112123Y118337D01*
X-112101Y118319D01*
X-112082Y118297D01*
X-111913Y118160D01*
X-111745Y118020D01*
X-111725Y118008D01*
X-111698Y117987D01*
X-111270Y117743D01*
X-111194Y117715D01*
X-111148Y117690D01*
X-110509Y117425D01*
X-107365Y114281D01*
X-106955Y113292D01*
X-106938Y113259D01*
X-106925Y113222D01*
X-106825Y113039D01*
X-106730Y112853D01*
X-106708Y112823D01*
X-106689Y112789D01*
X-106561Y112624D01*
X-106437Y112456D01*
X-106410Y112430D01*
X-106387Y112400D01*
X-106233Y112258D01*
X-106084Y112112D01*
X-106053Y112090D01*
X-106025Y112064D01*
X-105851Y111949D01*
X-105680Y111829D01*
X-105645Y111812D01*
X-105614Y111791D01*
X-105424Y111706D01*
X-105235Y111615D01*
X-105199Y111604D01*
X-105164Y111589D01*
X-104962Y111534D01*
X-104762Y111475D01*
X-104725Y111471D01*
X-104688Y111461D01*
X-104479Y111440D01*
X-104273Y111414D01*
X-104235Y111416D01*
X-104197Y111412D01*
X-103988Y111425D01*
G37*
%LPC*%
G36*
X224974Y-28322D02*
X224974Y-28322D01*
X222966Y-27490D01*
X221430Y-25954D01*
X220598Y-23946D01*
X220598Y-21774D01*
X221439Y-19744D01*
X221512Y-19672D01*
X221590Y-19565D01*
X221676Y-19463D01*
X221735Y-19365D01*
X221802Y-19273D01*
X221862Y-19155D01*
X221931Y-19041D01*
X221973Y-18934D01*
X222025Y-18833D01*
X222065Y-18706D01*
X222114Y-18583D01*
X222139Y-18471D01*
X222173Y-18362D01*
X222183Y-18269D01*
X222221Y-18101D01*
X222239Y-17777D01*
X222249Y-17684D01*
X222249Y98964D01*
X222240Y99078D01*
X222241Y99192D01*
X222220Y99324D01*
X222209Y99456D01*
X222182Y99567D01*
X222164Y99680D01*
X222123Y99806D01*
X222091Y99935D01*
X222046Y100040D01*
X222010Y100148D01*
X221948Y100266D01*
X221896Y100388D01*
X221835Y100485D01*
X221782Y100586D01*
X221723Y100660D01*
X221631Y100804D01*
X221442Y101015D01*
X220589Y103076D01*
X220590Y103178D01*
X220569Y103310D01*
X220558Y103442D01*
X220531Y103553D01*
X220513Y103666D01*
X220472Y103792D01*
X220440Y103921D01*
X220395Y104026D01*
X220359Y104134D01*
X220297Y104252D01*
X220245Y104374D01*
X220184Y104470D01*
X220131Y104572D01*
X220072Y104645D01*
X219980Y104790D01*
X219764Y105033D01*
X219706Y105105D01*
X199969Y124841D01*
X199389Y126242D01*
X199389Y220884D01*
X199380Y220998D01*
X199381Y221112D01*
X199360Y221244D01*
X199349Y221376D01*
X199322Y221487D01*
X199304Y221600D01*
X199263Y221726D01*
X199231Y221855D01*
X199186Y221960D01*
X199150Y222068D01*
X199088Y222186D01*
X199036Y222308D01*
X198975Y222405D01*
X198922Y222506D01*
X198863Y222580D01*
X198771Y222724D01*
X198582Y222935D01*
X197738Y224974D01*
X197738Y227146D01*
X198579Y229176D01*
X198652Y229248D01*
X198730Y229355D01*
X198816Y229457D01*
X198875Y229555D01*
X198942Y229647D01*
X199002Y229765D01*
X199071Y229879D01*
X199113Y229986D01*
X199165Y230087D01*
X199205Y230214D01*
X199254Y230337D01*
X199279Y230449D01*
X199313Y230558D01*
X199323Y230651D01*
X199361Y230819D01*
X199379Y231143D01*
X199389Y231236D01*
X199389Y241204D01*
X199380Y241318D01*
X199381Y241432D01*
X199360Y241564D01*
X199349Y241696D01*
X199322Y241807D01*
X199304Y241920D01*
X199263Y242046D01*
X199231Y242175D01*
X199186Y242280D01*
X199150Y242388D01*
X199088Y242506D01*
X199036Y242628D01*
X198975Y242725D01*
X198922Y242826D01*
X198863Y242900D01*
X198771Y243044D01*
X198582Y243255D01*
X197738Y245294D01*
X197738Y247466D01*
X198570Y249474D01*
X200106Y251010D01*
X202114Y251842D01*
X204286Y251842D01*
X205844Y251197D01*
X205953Y251162D01*
X206058Y251117D01*
X206187Y251086D01*
X206313Y251045D01*
X206426Y251028D01*
X206537Y251002D01*
X206670Y250992D01*
X206801Y250972D01*
X206915Y250973D01*
X207029Y250965D01*
X207162Y250976D01*
X207295Y250978D01*
X207407Y250998D01*
X207521Y251008D01*
X207611Y251034D01*
X207780Y251064D01*
X208087Y251171D01*
X208176Y251197D01*
X209734Y251842D01*
X211906Y251842D01*
X213914Y251010D01*
X215450Y249474D01*
X216282Y247466D01*
X216282Y245294D01*
X215450Y243286D01*
X213914Y241750D01*
X211906Y240918D01*
X210058Y240918D01*
X209982Y240912D01*
X209906Y240914D01*
X209737Y240892D01*
X209566Y240878D01*
X209492Y240860D01*
X209417Y240850D01*
X209253Y240801D01*
X209087Y240760D01*
X209018Y240730D01*
X208944Y240708D01*
X208791Y240632D01*
X208634Y240565D01*
X208570Y240524D01*
X208501Y240491D01*
X208362Y240392D01*
X208218Y240300D01*
X208161Y240249D01*
X208099Y240205D01*
X207978Y240085D01*
X207850Y239971D01*
X207802Y239912D01*
X207748Y239858D01*
X207647Y239720D01*
X207540Y239587D01*
X207502Y239521D01*
X207458Y239460D01*
X207381Y239307D01*
X207296Y239159D01*
X207270Y239087D01*
X207235Y239019D01*
X207184Y238856D01*
X207125Y238696D01*
X207110Y238621D01*
X207087Y238549D01*
X207075Y238444D01*
X207030Y238212D01*
X207023Y237976D01*
X207011Y237871D01*
X207011Y231236D01*
X207020Y231122D01*
X207019Y231008D01*
X207040Y230876D01*
X207051Y230744D01*
X207078Y230633D01*
X207096Y230520D01*
X207137Y230394D01*
X207169Y230265D01*
X207214Y230160D01*
X207250Y230052D01*
X207312Y229934D01*
X207364Y229812D01*
X207425Y229715D01*
X207478Y229614D01*
X207537Y229540D01*
X207629Y229396D01*
X207818Y229185D01*
X208662Y227146D01*
X208662Y224974D01*
X207821Y222944D01*
X207748Y222872D01*
X207670Y222765D01*
X207584Y222663D01*
X207525Y222565D01*
X207458Y222473D01*
X207398Y222355D01*
X207329Y222241D01*
X207287Y222134D01*
X207235Y222033D01*
X207195Y221906D01*
X207146Y221783D01*
X207121Y221671D01*
X207087Y221562D01*
X207077Y221469D01*
X207039Y221301D01*
X207021Y220977D01*
X207011Y220884D01*
X207011Y129841D01*
X207020Y129727D01*
X207019Y129613D01*
X207040Y129481D01*
X207051Y129349D01*
X207078Y129238D01*
X207096Y129125D01*
X207137Y128999D01*
X207169Y128870D01*
X207214Y128765D01*
X207250Y128657D01*
X207312Y128539D01*
X207364Y128417D01*
X207425Y128321D01*
X207478Y128219D01*
X207537Y128146D01*
X207629Y128001D01*
X207845Y127758D01*
X207903Y127686D01*
X225095Y110494D01*
X225182Y110420D01*
X225262Y110339D01*
X225370Y110261D01*
X225471Y110175D01*
X225569Y110116D01*
X225661Y110049D01*
X225779Y109989D01*
X225893Y109920D01*
X226000Y109878D01*
X226101Y109826D01*
X226228Y109786D01*
X226352Y109737D01*
X226463Y109712D01*
X226572Y109678D01*
X226665Y109668D01*
X226833Y109630D01*
X227116Y109614D01*
X229154Y108770D01*
X230690Y107234D01*
X231522Y105226D01*
X231522Y103054D01*
X230681Y101024D01*
X230608Y100952D01*
X230530Y100845D01*
X230444Y100743D01*
X230385Y100645D01*
X230318Y100553D01*
X230258Y100435D01*
X230189Y100321D01*
X230147Y100214D01*
X230095Y100113D01*
X230055Y99986D01*
X230006Y99863D01*
X229981Y99751D01*
X229947Y99642D01*
X229937Y99549D01*
X229899Y99381D01*
X229881Y99057D01*
X229871Y98964D01*
X229871Y-17684D01*
X229880Y-17798D01*
X229879Y-17912D01*
X229900Y-18044D01*
X229911Y-18176D01*
X229938Y-18287D01*
X229956Y-18400D01*
X229997Y-18526D01*
X230029Y-18655D01*
X230074Y-18760D01*
X230110Y-18868D01*
X230172Y-18986D01*
X230224Y-19108D01*
X230285Y-19205D01*
X230338Y-19306D01*
X230397Y-19380D01*
X230489Y-19524D01*
X230678Y-19735D01*
X231522Y-21774D01*
X231522Y-23946D01*
X230690Y-25954D01*
X229154Y-27490D01*
X227146Y-28322D01*
X224974Y-28322D01*
G37*
%LPD*%
G36*
X-44348Y4924D02*
X-44348Y4924D01*
X-44139Y4927D01*
X-44101Y4934D01*
X-44063Y4935D01*
X-43859Y4976D01*
X-43653Y5013D01*
X-43617Y5025D01*
X-43580Y5033D01*
X-43385Y5107D01*
X-43187Y5176D01*
X-43154Y5194D01*
X-43118Y5207D01*
X-42937Y5312D01*
X-42754Y5412D01*
X-42724Y5435D01*
X-42691Y5454D01*
X-42529Y5587D01*
X-42365Y5714D01*
X-42339Y5742D01*
X-42309Y5766D01*
X-42171Y5923D01*
X-42029Y6076D01*
X-42008Y6108D01*
X-41983Y6136D01*
X-41872Y6313D01*
X-41756Y6487D01*
X-41741Y6522D01*
X-41720Y6554D01*
X-41639Y6746D01*
X-41553Y6937D01*
X-41544Y6974D01*
X-41529Y7009D01*
X-41480Y7212D01*
X-41426Y7413D01*
X-41422Y7451D01*
X-41413Y7488D01*
X-41398Y7697D01*
X-41377Y7904D01*
X-41379Y7942D01*
X-41376Y7980D01*
X-41395Y8188D01*
X-41408Y8397D01*
X-41416Y8434D01*
X-41419Y8472D01*
X-41445Y8561D01*
X-41517Y8878D01*
X-41582Y9037D01*
X-41608Y9127D01*
X-42018Y10116D01*
X-42018Y13991D01*
X-42027Y14104D01*
X-42026Y14219D01*
X-42047Y14350D01*
X-42058Y14482D01*
X-42085Y14593D01*
X-42103Y14706D01*
X-42144Y14832D01*
X-42176Y14961D01*
X-42221Y15066D01*
X-42257Y15175D01*
X-42319Y15293D01*
X-42371Y15415D01*
X-42432Y15511D01*
X-42485Y15612D01*
X-42544Y15686D01*
X-42636Y15831D01*
X-42852Y16073D01*
X-42910Y16145D01*
X-96393Y69628D01*
X-97283Y71776D01*
X-97283Y96724D01*
X-97292Y96838D01*
X-97291Y96952D01*
X-97312Y97084D01*
X-97323Y97216D01*
X-97350Y97327D01*
X-97368Y97440D01*
X-97409Y97566D01*
X-97441Y97695D01*
X-97486Y97800D01*
X-97522Y97908D01*
X-97584Y98026D01*
X-97636Y98148D01*
X-97697Y98244D01*
X-97750Y98346D01*
X-97809Y98419D01*
X-97901Y98564D01*
X-98117Y98806D01*
X-98175Y98879D01*
X-100915Y101619D01*
X-101325Y102608D01*
X-101342Y102642D01*
X-101355Y102678D01*
X-101454Y102861D01*
X-101550Y103047D01*
X-101572Y103077D01*
X-101591Y103111D01*
X-101718Y103275D01*
X-101843Y103444D01*
X-101870Y103470D01*
X-101893Y103500D01*
X-102046Y103642D01*
X-102196Y103788D01*
X-102227Y103810D01*
X-102255Y103836D01*
X-102429Y103951D01*
X-102600Y104071D01*
X-102634Y104088D01*
X-102666Y104109D01*
X-102857Y104195D01*
X-103044Y104285D01*
X-103081Y104296D01*
X-103116Y104311D01*
X-103317Y104365D01*
X-103518Y104425D01*
X-103556Y104429D01*
X-103592Y104439D01*
X-103800Y104460D01*
X-104007Y104486D01*
X-104045Y104484D01*
X-104083Y104488D01*
X-104291Y104475D01*
X-104500Y104467D01*
X-104538Y104460D01*
X-104576Y104457D01*
X-104778Y104411D01*
X-104984Y104370D01*
X-105019Y104356D01*
X-105057Y104348D01*
X-105250Y104269D01*
X-105445Y104195D01*
X-105478Y104176D01*
X-105514Y104162D01*
X-105692Y104053D01*
X-105872Y103948D01*
X-105902Y103924D01*
X-105934Y103904D01*
X-106092Y103769D01*
X-106254Y103636D01*
X-106279Y103607D01*
X-106308Y103583D01*
X-106442Y103423D01*
X-106581Y103266D01*
X-106601Y103234D01*
X-106625Y103205D01*
X-106670Y103123D01*
X-106843Y102848D01*
X-106910Y102690D01*
X-106955Y102608D01*
X-107365Y101619D01*
X-110105Y98879D01*
X-110179Y98792D01*
X-110260Y98712D01*
X-110338Y98604D01*
X-110424Y98503D01*
X-110483Y98405D01*
X-110550Y98313D01*
X-110610Y98195D01*
X-110679Y98080D01*
X-110721Y97974D01*
X-110773Y97872D01*
X-110813Y97746D01*
X-110862Y97622D01*
X-110887Y97511D01*
X-110921Y97402D01*
X-110931Y97308D01*
X-110969Y97141D01*
X-110987Y96816D01*
X-110997Y96724D01*
X-110997Y66099D01*
X-110988Y65986D01*
X-110989Y65871D01*
X-110968Y65740D01*
X-110957Y65608D01*
X-110930Y65497D01*
X-110912Y65384D01*
X-110871Y65258D01*
X-110839Y65129D01*
X-110794Y65024D01*
X-110758Y64915D01*
X-110696Y64797D01*
X-110644Y64675D01*
X-110583Y64579D01*
X-110530Y64478D01*
X-110471Y64404D01*
X-110379Y64259D01*
X-110163Y64017D01*
X-110105Y63945D01*
X-52608Y6448D01*
X-52521Y6374D01*
X-52441Y6293D01*
X-52333Y6214D01*
X-52232Y6128D01*
X-52134Y6069D01*
X-52042Y6002D01*
X-51923Y5942D01*
X-51809Y5874D01*
X-51703Y5831D01*
X-51601Y5780D01*
X-51475Y5740D01*
X-51351Y5691D01*
X-51240Y5666D01*
X-51131Y5632D01*
X-51037Y5621D01*
X-50870Y5584D01*
X-50545Y5566D01*
X-50453Y5555D01*
X-46578Y5555D01*
X-45590Y5146D01*
X-45553Y5134D01*
X-45519Y5117D01*
X-45318Y5058D01*
X-45120Y4994D01*
X-45082Y4989D01*
X-45046Y4978D01*
X-44839Y4952D01*
X-44632Y4921D01*
X-44594Y4921D01*
X-44556Y4917D01*
X-44348Y4924D01*
G37*
G36*
X117646Y357629D02*
X117646Y357629D01*
X117722Y357629D01*
X117891Y357655D01*
X118061Y357674D01*
X118134Y357694D01*
X118210Y357706D01*
X118372Y357759D01*
X118536Y357804D01*
X118606Y357836D01*
X118678Y357860D01*
X118829Y357939D01*
X118985Y358010D01*
X119048Y358053D01*
X119116Y358088D01*
X119198Y358153D01*
X119394Y358285D01*
X119566Y358447D01*
X119649Y358513D01*
X121366Y360230D01*
X123374Y361062D01*
X125546Y361062D01*
X127554Y360230D01*
X129036Y358748D01*
X129065Y358723D01*
X129091Y358695D01*
X129253Y358564D01*
X129412Y358428D01*
X129445Y358409D01*
X129475Y358385D01*
X129656Y358282D01*
X129835Y358174D01*
X129870Y358160D01*
X129903Y358141D01*
X130099Y358068D01*
X130293Y357991D01*
X130330Y357982D01*
X130366Y357969D01*
X130570Y357929D01*
X130774Y357884D01*
X130813Y357882D01*
X130850Y357874D01*
X131058Y357868D01*
X131267Y357856D01*
X131305Y357860D01*
X131343Y357859D01*
X131550Y357886D01*
X131758Y357908D01*
X131794Y357918D01*
X131832Y357923D01*
X132033Y357984D01*
X132233Y358039D01*
X132268Y358055D01*
X132305Y358066D01*
X132492Y358158D01*
X132682Y358245D01*
X132713Y358266D01*
X132748Y358283D01*
X132918Y358404D01*
X133091Y358520D01*
X133119Y358546D01*
X133150Y358568D01*
X133298Y358715D01*
X133451Y358858D01*
X133474Y358888D01*
X133501Y358915D01*
X133624Y359083D01*
X133751Y359249D01*
X133769Y359283D01*
X133791Y359314D01*
X133885Y359500D01*
X133984Y359684D01*
X133996Y359720D01*
X134014Y359754D01*
X134077Y359954D01*
X134144Y360151D01*
X134150Y360188D01*
X134162Y360225D01*
X134172Y360317D01*
X134227Y360637D01*
X134228Y360809D01*
X134238Y360902D01*
X134238Y361766D01*
X135070Y363774D01*
X136606Y365310D01*
X138614Y366142D01*
X140786Y366142D01*
X142848Y365288D01*
X142869Y365271D01*
X143001Y365159D01*
X143065Y365121D01*
X143124Y365076D01*
X143275Y364994D01*
X143424Y364905D01*
X143493Y364877D01*
X143558Y364842D01*
X143721Y364786D01*
X143882Y364722D01*
X143954Y364706D01*
X144025Y364681D01*
X144195Y364652D01*
X144363Y364615D01*
X144438Y364611D01*
X144511Y364598D01*
X144683Y364597D01*
X144856Y364587D01*
X144930Y364595D01*
X145004Y364595D01*
X145175Y364621D01*
X145346Y364639D01*
X145418Y364659D01*
X145492Y364671D01*
X145656Y364724D01*
X145822Y364770D01*
X145890Y364801D01*
X145960Y364824D01*
X146113Y364904D01*
X146271Y364976D01*
X146332Y365017D01*
X146398Y365051D01*
X146481Y365117D01*
X146680Y365251D01*
X146850Y365411D01*
X146932Y365476D01*
X146944Y365488D01*
X146992Y365544D01*
X147039Y365589D01*
X147041Y365591D01*
X147052Y365601D01*
X147155Y365735D01*
X147264Y365864D01*
X147305Y365931D01*
X147352Y365993D01*
X147432Y366141D01*
X147519Y366286D01*
X147549Y366359D01*
X147585Y366428D01*
X147640Y366587D01*
X147703Y366744D01*
X147720Y366820D01*
X147745Y366894D01*
X147774Y367061D01*
X147810Y367226D01*
X147815Y367303D01*
X147828Y367381D01*
X147829Y367549D01*
X147839Y367718D01*
X147831Y367796D01*
X147831Y367874D01*
X147805Y368041D01*
X147787Y368209D01*
X147767Y368284D01*
X147754Y368361D01*
X147702Y368522D01*
X147657Y368685D01*
X147625Y368756D01*
X147600Y368830D01*
X147522Y368980D01*
X147452Y369133D01*
X147408Y369198D01*
X147372Y369267D01*
X147307Y369350D01*
X147177Y369543D01*
X147013Y369718D01*
X146947Y369801D01*
X117695Y399053D01*
X117608Y399127D01*
X117528Y399208D01*
X117420Y399286D01*
X117319Y399372D01*
X117221Y399431D01*
X117129Y399498D01*
X117010Y399558D01*
X116896Y399627D01*
X116790Y399669D01*
X116688Y399721D01*
X116562Y399761D01*
X116438Y399810D01*
X116327Y399835D01*
X116218Y399869D01*
X116124Y399879D01*
X115957Y399917D01*
X115632Y399935D01*
X115540Y399945D01*
X88592Y399945D01*
X88478Y399936D01*
X88364Y399937D01*
X88232Y399916D01*
X88100Y399905D01*
X87989Y399878D01*
X87876Y399860D01*
X87750Y399819D01*
X87621Y399787D01*
X87516Y399742D01*
X87408Y399706D01*
X87290Y399644D01*
X87168Y399592D01*
X87071Y399531D01*
X86970Y399478D01*
X86896Y399419D01*
X86752Y399327D01*
X86509Y399111D01*
X86437Y399053D01*
X85494Y398110D01*
X83346Y397220D01*
X83163Y397170D01*
X82960Y397120D01*
X82925Y397105D01*
X82888Y397094D01*
X82698Y397007D01*
X82507Y396925D01*
X82475Y396905D01*
X82440Y396889D01*
X82267Y396772D01*
X82091Y396660D01*
X82062Y396635D01*
X82031Y396613D01*
X81879Y396470D01*
X81723Y396331D01*
X81699Y396302D01*
X81671Y396276D01*
X81544Y396110D01*
X81413Y395947D01*
X81394Y395914D01*
X81371Y395884D01*
X81272Y395700D01*
X81169Y395519D01*
X81156Y395483D01*
X81138Y395449D01*
X81070Y395252D01*
X80997Y395056D01*
X80990Y395019D01*
X80978Y394983D01*
X80942Y394775D01*
X80903Y394572D01*
X80901Y394534D01*
X80895Y394496D01*
X80894Y394287D01*
X80887Y394079D01*
X80892Y394041D01*
X80892Y394003D01*
X80925Y393796D01*
X80952Y393590D01*
X80963Y393553D01*
X80969Y393516D01*
X81034Y393317D01*
X81094Y393118D01*
X81111Y393083D01*
X81123Y393047D01*
X81219Y392862D01*
X81311Y392674D01*
X81333Y392643D01*
X81351Y392609D01*
X81409Y392537D01*
X81597Y392272D01*
X81718Y392150D01*
X81776Y392076D01*
X115339Y358513D01*
X115397Y358464D01*
X115450Y358408D01*
X115585Y358304D01*
X115715Y358193D01*
X115781Y358154D01*
X115841Y358108D01*
X115991Y358027D01*
X116138Y357939D01*
X116209Y357911D01*
X116276Y357875D01*
X116437Y357819D01*
X116596Y357756D01*
X116670Y357739D01*
X116742Y357715D01*
X116911Y357686D01*
X117078Y357649D01*
X117154Y357645D01*
X117229Y357632D01*
X117400Y357631D01*
X117570Y357621D01*
X117646Y357629D01*
G37*
%LPC*%
G36*
X212364Y-182879D02*
X212364Y-182879D01*
X205829Y-180172D01*
X200828Y-175171D01*
X198121Y-168636D01*
X198121Y-161564D01*
X200828Y-155029D01*
X205829Y-150028D01*
X212364Y-147321D01*
X219436Y-147321D01*
X225971Y-150028D01*
X230972Y-155029D01*
X233679Y-161564D01*
X233679Y-168636D01*
X230972Y-175171D01*
X225971Y-180172D01*
X219436Y-182879D01*
X212364Y-182879D01*
G37*
%LPD*%
%LPC*%
G36*
X161564Y-233679D02*
X161564Y-233679D01*
X155029Y-230972D01*
X150028Y-225971D01*
X147321Y-219436D01*
X147321Y-212364D01*
X150028Y-205829D01*
X155029Y-200828D01*
X161564Y-198121D01*
X168636Y-198121D01*
X175171Y-200828D01*
X180172Y-205829D01*
X182879Y-212364D01*
X182879Y-219436D01*
X180172Y-225971D01*
X175171Y-230972D01*
X168636Y-233679D01*
X161564Y-233679D01*
G37*
%LPD*%
%LPC*%
G36*
X-3536Y172721D02*
X-3536Y172721D01*
X-10071Y175428D01*
X-15072Y180429D01*
X-17779Y186964D01*
X-17779Y194036D01*
X-15072Y200571D01*
X-10071Y205572D01*
X-3536Y208279D01*
X3536Y208279D01*
X10071Y205572D01*
X15072Y200571D01*
X17779Y194036D01*
X17779Y186964D01*
X15072Y180429D01*
X10071Y175428D01*
X3536Y172721D01*
X-3536Y172721D01*
G37*
%LPD*%
%LPC*%
G36*
X-3536Y-208279D02*
X-3536Y-208279D01*
X-10071Y-205572D01*
X-15072Y-200571D01*
X-17779Y-194036D01*
X-17779Y-186964D01*
X-15072Y-180429D01*
X-10071Y-175428D01*
X-3536Y-172721D01*
X3536Y-172721D01*
X10071Y-175428D01*
X15072Y-180429D01*
X17779Y-186964D01*
X17779Y-194036D01*
X15072Y-200571D01*
X10071Y-205572D01*
X3536Y-208279D01*
X-3536Y-208279D01*
G37*
%LPD*%
G36*
X129866Y325516D02*
X129866Y325516D01*
X130046Y325523D01*
X130111Y325536D01*
X130178Y325542D01*
X130353Y325585D01*
X130530Y325621D01*
X130592Y325644D01*
X130656Y325660D01*
X130822Y325732D01*
X130991Y325795D01*
X131049Y325829D01*
X131110Y325855D01*
X131262Y325952D01*
X131418Y326042D01*
X131470Y326084D01*
X131526Y326120D01*
X131660Y326240D01*
X131800Y326355D01*
X131844Y326404D01*
X131894Y326449D01*
X132007Y326589D01*
X132127Y326724D01*
X132162Y326781D01*
X132204Y326833D01*
X132293Y326989D01*
X132389Y327142D01*
X132415Y327203D01*
X132448Y327261D01*
X132511Y327431D01*
X132581Y327597D01*
X132596Y327661D01*
X132619Y327724D01*
X132654Y327901D01*
X132696Y328076D01*
X132701Y328143D01*
X132714Y328208D01*
X132720Y328388D01*
X132733Y328568D01*
X132727Y328635D01*
X132729Y328701D01*
X132706Y328880D01*
X132690Y329060D01*
X132675Y329110D01*
X132665Y329190D01*
X132522Y329662D01*
X132508Y329693D01*
X132501Y329715D01*
X131698Y331654D01*
X131698Y332987D01*
X131689Y333101D01*
X131690Y333215D01*
X131669Y333347D01*
X131658Y333479D01*
X131631Y333590D01*
X131613Y333703D01*
X131572Y333829D01*
X131540Y333958D01*
X131495Y334063D01*
X131459Y334171D01*
X131397Y334289D01*
X131345Y334411D01*
X131284Y334507D01*
X131231Y334609D01*
X131172Y334682D01*
X131080Y334827D01*
X130864Y335069D01*
X130806Y335142D01*
X58155Y407793D01*
X58068Y407867D01*
X57988Y407948D01*
X57880Y408026D01*
X57779Y408112D01*
X57681Y408171D01*
X57589Y408238D01*
X57470Y408298D01*
X57356Y408367D01*
X57250Y408409D01*
X57148Y408461D01*
X57022Y408501D01*
X56898Y408550D01*
X56787Y408575D01*
X56678Y408609D01*
X56584Y408619D01*
X56417Y408657D01*
X56092Y408675D01*
X56000Y408685D01*
X52204Y408685D01*
X52166Y408682D01*
X52128Y408684D01*
X51920Y408662D01*
X51712Y408645D01*
X51675Y408636D01*
X51637Y408632D01*
X51436Y408577D01*
X51233Y408527D01*
X51198Y408512D01*
X51161Y408501D01*
X50971Y408414D01*
X50780Y408332D01*
X50748Y408312D01*
X50713Y408296D01*
X50540Y408179D01*
X50364Y408067D01*
X50335Y408042D01*
X50304Y408020D01*
X50152Y407877D01*
X49996Y407738D01*
X49972Y407709D01*
X49944Y407683D01*
X49817Y407517D01*
X49686Y407354D01*
X49667Y407321D01*
X49644Y407291D01*
X49545Y407107D01*
X49442Y406926D01*
X49429Y406890D01*
X49411Y406856D01*
X49343Y406659D01*
X49270Y406463D01*
X49263Y406426D01*
X49251Y406390D01*
X49216Y406183D01*
X49176Y405979D01*
X49174Y405941D01*
X49168Y405903D01*
X49167Y405693D01*
X49160Y405486D01*
X49165Y405448D01*
X49165Y405410D01*
X49198Y405203D01*
X49225Y404997D01*
X49236Y404960D01*
X49242Y404923D01*
X49307Y404724D01*
X49367Y404525D01*
X49384Y404490D01*
X49396Y404454D01*
X49492Y404269D01*
X49584Y404081D01*
X49606Y404050D01*
X49624Y404016D01*
X49682Y403944D01*
X49870Y403679D01*
X49991Y403557D01*
X50049Y403483D01*
X127138Y326394D01*
X127225Y326320D01*
X127305Y326239D01*
X127413Y326161D01*
X127514Y326075D01*
X127612Y326016D01*
X127704Y325949D01*
X127823Y325889D01*
X127937Y325820D01*
X128043Y325778D01*
X128145Y325726D01*
X128271Y325686D01*
X128395Y325637D01*
X128506Y325612D01*
X128615Y325578D01*
X128709Y325568D01*
X128876Y325530D01*
X129201Y325512D01*
X129293Y325502D01*
X129686Y325502D01*
X129866Y325516D01*
G37*
%LPC*%
G36*
X118294Y73278D02*
X118294Y73278D01*
X116286Y74110D01*
X114750Y75646D01*
X113918Y77654D01*
X113918Y79826D01*
X114759Y81856D01*
X114832Y81928D01*
X114910Y82035D01*
X114996Y82137D01*
X115055Y82235D01*
X115122Y82327D01*
X115182Y82445D01*
X115251Y82559D01*
X115293Y82666D01*
X115345Y82767D01*
X115385Y82894D01*
X115434Y83017D01*
X115459Y83129D01*
X115493Y83238D01*
X115503Y83331D01*
X115541Y83499D01*
X115559Y83823D01*
X115569Y83916D01*
X115569Y182776D01*
X115560Y182890D01*
X115561Y183004D01*
X115540Y183136D01*
X115529Y183268D01*
X115502Y183379D01*
X115484Y183492D01*
X115443Y183618D01*
X115411Y183747D01*
X115366Y183852D01*
X115330Y183960D01*
X115268Y184078D01*
X115216Y184200D01*
X115155Y184296D01*
X115102Y184398D01*
X115043Y184471D01*
X114951Y184616D01*
X114754Y184837D01*
X113910Y186874D01*
X113910Y189046D01*
X114742Y191054D01*
X116278Y192590D01*
X118285Y193422D01*
X120458Y193422D01*
X122466Y192590D01*
X124002Y191054D01*
X124834Y189046D01*
X124834Y186874D01*
X123993Y184844D01*
X123928Y184780D01*
X123850Y184673D01*
X123764Y184571D01*
X123705Y184474D01*
X123638Y184381D01*
X123578Y184263D01*
X123509Y184149D01*
X123467Y184043D01*
X123415Y183941D01*
X123375Y183814D01*
X123326Y183691D01*
X123301Y183579D01*
X123267Y183470D01*
X123257Y183377D01*
X123219Y183209D01*
X123201Y182885D01*
X123191Y182793D01*
X123191Y83916D01*
X123200Y83802D01*
X123199Y83688D01*
X123220Y83556D01*
X123231Y83424D01*
X123258Y83313D01*
X123276Y83200D01*
X123317Y83074D01*
X123349Y82945D01*
X123394Y82840D01*
X123430Y82732D01*
X123492Y82614D01*
X123544Y82492D01*
X123605Y82395D01*
X123658Y82294D01*
X123717Y82220D01*
X123809Y82076D01*
X123998Y81865D01*
X124842Y79826D01*
X124842Y77654D01*
X124010Y75646D01*
X122474Y74110D01*
X120466Y73278D01*
X118294Y73278D01*
G37*
%LPD*%
%LPC*%
G36*
X-230874Y217169D02*
X-230874Y217169D01*
X-235075Y218909D01*
X-238291Y222125D01*
X-240031Y226326D01*
X-240031Y230874D01*
X-238291Y235075D01*
X-235075Y238291D01*
X-230874Y240031D01*
X-226326Y240031D01*
X-222125Y238291D01*
X-218909Y235075D01*
X-217169Y230874D01*
X-217169Y226326D01*
X-218909Y222125D01*
X-222125Y218909D01*
X-226326Y217169D01*
X-230874Y217169D01*
G37*
%LPD*%
%LPC*%
G36*
X-205474Y191769D02*
X-205474Y191769D01*
X-209675Y193509D01*
X-212891Y196725D01*
X-214631Y200926D01*
X-214631Y205474D01*
X-212891Y209675D01*
X-209675Y212891D01*
X-205474Y214631D01*
X-200926Y214631D01*
X-196725Y212891D01*
X-193509Y209675D01*
X-191769Y205474D01*
X-191769Y200926D01*
X-193509Y196725D01*
X-196725Y193509D01*
X-200926Y191769D01*
X-205474Y191769D01*
G37*
%LPD*%
%LPC*%
G36*
X-265830Y206247D02*
X-265830Y206247D01*
X-265300Y207880D01*
X-264428Y209591D01*
X-263300Y211143D01*
X-261943Y212500D01*
X-260391Y213628D01*
X-258680Y214500D01*
X-257047Y215030D01*
X-257047Y206247D01*
X-265830Y206247D01*
G37*
%LPD*%
%LPC*%
G36*
X-250953Y206247D02*
X-250953Y206247D01*
X-250953Y215030D01*
X-249320Y214500D01*
X-247609Y213628D01*
X-246057Y212500D01*
X-244700Y211143D01*
X-243572Y209591D01*
X-242700Y207880D01*
X-242170Y206247D01*
X-250953Y206247D01*
G37*
%LPD*%
%LPC*%
G36*
X-258680Y191900D02*
X-258680Y191900D01*
X-260391Y192772D01*
X-261943Y193900D01*
X-263300Y195257D01*
X-264428Y196809D01*
X-265300Y198520D01*
X-265830Y200153D01*
X-257047Y200153D01*
X-257047Y191370D01*
X-258680Y191900D01*
G37*
%LPD*%
%LPC*%
G36*
X-250953Y200153D02*
X-250953Y200153D01*
X-242170Y200153D01*
X-242700Y198520D01*
X-243572Y196809D01*
X-244700Y195257D01*
X-246057Y193900D01*
X-247609Y192772D01*
X-249320Y191900D01*
X-250953Y191370D01*
X-250953Y200153D01*
G37*
%LPD*%
%LPC*%
G36*
X-941Y58591D02*
X-941Y58591D01*
X497Y59324D01*
X2284Y59905D01*
X4140Y60199D01*
X6020Y60199D01*
X7876Y59905D01*
X9663Y59324D01*
X11101Y58591D01*
X5080Y52570D01*
X-941Y58591D01*
G37*
%LPD*%
%LPC*%
G36*
X9390Y48260D02*
X9390Y48260D01*
X15411Y54281D01*
X16144Y52843D01*
X16725Y51056D01*
X17019Y49200D01*
X17019Y47320D01*
X16725Y45464D01*
X16144Y43677D01*
X15411Y42239D01*
X9390Y48260D01*
G37*
%LPD*%
%LPC*%
G36*
X-37593Y110997D02*
X-37593Y110997D01*
X-37593Y119513D01*
X-36057Y119014D01*
X-34383Y118161D01*
X-32862Y117056D01*
X-31534Y115728D01*
X-30429Y114207D01*
X-29576Y112533D01*
X-29077Y110997D01*
X-37593Y110997D01*
G37*
%LPD*%
%LPC*%
G36*
X-37593Y104903D02*
X-37593Y104903D01*
X-29077Y104903D01*
X-29576Y103367D01*
X-30429Y101693D01*
X-31534Y100172D01*
X-32862Y98844D01*
X-34383Y97739D01*
X-36057Y96886D01*
X-37593Y96387D01*
X-37593Y104903D01*
G37*
%LPD*%
D10*
X5080Y48260D03*
X-12881Y30299D03*
X-30841Y12339D03*
X-48802Y-5622D03*
X-40640Y107950D03*
X-66040Y107950D03*
X-91440Y107950D03*
X-116840Y107950D03*
D11*
X-228600Y177800D03*
X-228600Y228600D03*
X-254000Y203200D03*
X-203200Y203200D03*
D12*
X226060Y-22860D03*
D13*
X226060Y104140D01*
D12*
X226060Y104140D03*
D13*
X203200Y127000D01*
X203200Y226060D01*
D12*
X203200Y246380D03*
D13*
X203200Y226060D01*
D12*
X203200Y226060D03*
X210820Y246380D03*
D13*
X203200Y246380D01*
D14*
X-77470Y132080D03*
X-203200Y292100D03*
X-22860Y325120D03*
X-111760Y325120D03*
X187960Y193040D03*
X38100Y317500D03*
X99060Y250190D03*
X251460Y203200D03*
X-63500Y317500D03*
X197290Y262960D03*
X-104140Y133350D03*
X-77470Y40640D03*
X-59690Y59690D03*
X0Y106680D03*
X-299720Y215900D03*
X66040Y325120D03*
X119820Y378530D03*
D12*
X5080Y317500D03*
X71120Y218440D03*
X93980Y312420D03*
X228600Y236220D03*
X40640Y279400D03*
X58420Y401320D03*
X88900Y396240D03*
D14*
X233680Y-58420D03*
X231140Y132080D03*
D15*
X-48802Y-5622D02*
X-116840Y62417D01*
X-116840Y107950D01*
D12*
X40640Y368300D03*
D13*
X-54610Y273050D02*
X-116840Y210820D01*
X-54610Y273050D02*
X40640Y368300D01*
X-116840Y210820D02*
X-116840Y107950D01*
X-158750Y107950D01*
X-228600Y177800D01*
D12*
X-54610Y273050D03*
X119380Y78740D03*
D13*
X119380Y187952D01*
X119372Y187960D01*
D12*
X119372Y187960D03*
D15*
X-30841Y12339D02*
X-91440Y72938D01*
X-91440Y107950D01*
D12*
X48260Y360680D03*
D13*
X-91440Y208280D02*
X-91440Y107950D01*
X48260Y347980D02*
X48260Y360680D01*
X-50800Y248920D02*
X-91440Y208280D01*
X-50800Y248920D02*
X48260Y347980D01*
D12*
X-50800Y248920D03*
X82400Y402740D03*
D16*
X117960Y402740D01*
X175260Y345440D01*
D12*
X175260Y40640D03*
D16*
X175260Y345440D01*
D12*
X137160Y332740D03*
X-43180Y411480D03*
D16*
X58420Y411480D02*
X137160Y332740D01*
X58420Y411480D02*
X-43180Y411480D01*
D12*
X137160Y15240D03*
D16*
X137160Y332740D01*
D12*
X124460Y355600D03*
D16*
X144780Y335280D01*
X144780Y246380D01*
D12*
X144780Y246380D03*
D16*
X144780Y27940D01*
D12*
X144780Y27940D03*
X139700Y360680D03*
D16*
X160020Y340360D01*
D12*
X160020Y231140D03*
D16*
X160020Y340360D01*
D12*
X160020Y53340D03*
D16*
X160020Y231140D01*
D12*
X142240Y347980D03*
D16*
X152400Y337820D01*
X152400Y259080D01*
D12*
X152400Y259080D03*
X152400Y66040D03*
D16*
X152400Y259080D01*
D12*
X149860Y360680D03*
D16*
X167640Y342900D01*
D12*
X167640Y220980D03*
D16*
X167640Y342900D01*
D12*
X167640Y2540D03*
D16*
X167640Y220980D01*
D12*
X-93980Y396240D03*
D16*
X-5080Y396240D01*
D12*
X-5080Y396240D03*
X109220Y314960D03*
D16*
X109220Y322580D01*
X35560Y396240D01*
X-5080Y396240D01*
D12*
X-104140Y403860D03*
D16*
X-15240Y403860D01*
D12*
X-15240Y403860D03*
X129540Y320040D03*
D16*
X45720Y403860D01*
X-15240Y403860D01*
M02*
