G04 EAGLE Gerber RS-274X export*
G75*
%MOMM*%
%FSLAX34Y34*%
%LPD*%
%IN*%
%IPPOS*%
%AMOC8*
5,1,8,0,0,1.08239X$1,22.5*%
G01*
%ADD10C,0.254000*%


D10*
X-355600Y-266700D02*
X355600Y-266700D01*
X377517Y-234691D01*
X396560Y-200895D01*
X412586Y-165566D01*
X425471Y-128976D01*
X435119Y-91402D01*
X441455Y-53130D01*
X444431Y-14451D01*
X444025Y24340D01*
X440239Y62947D01*
X433103Y101078D01*
X422671Y138442D01*
X409022Y174755D01*
X392260Y209739D01*
X372513Y243130D01*
X349931Y274673D01*
X324685Y304127D01*
X296969Y331269D01*
X266992Y355892D01*
X234983Y377809D01*
X201187Y396852D01*
X165858Y412878D01*
X129268Y425763D01*
X91694Y435411D01*
X53422Y441747D01*
X14743Y444723D01*
X-24048Y444317D01*
X-62655Y440531D01*
X-100786Y433395D01*
X-138150Y422963D01*
X-174463Y409314D01*
X-209447Y392552D01*
X-242838Y372805D01*
X-274381Y350223D01*
X-303835Y324977D01*
X-330977Y297261D01*
X-355600Y267284D01*
X-377517Y235276D01*
X-396560Y201479D01*
X-412586Y166150D01*
X-425471Y129560D01*
X-435119Y91986D01*
X-441455Y53714D01*
X-444431Y15035D01*
X-444025Y-23755D01*
X-440239Y-62363D01*
X-433103Y-100494D01*
X-422671Y-137858D01*
X-409022Y-174171D01*
X-392260Y-209155D01*
X-372513Y-242546D01*
X-355600Y-266700D01*
X16000Y189976D02*
X15932Y188931D01*
X15795Y187892D01*
X15590Y186865D01*
X15319Y185853D01*
X14983Y184861D01*
X14582Y183893D01*
X14118Y182954D01*
X13595Y182046D01*
X13013Y181175D01*
X12375Y180344D01*
X11684Y179557D01*
X10943Y178816D01*
X10156Y178125D01*
X9325Y177488D01*
X8454Y176906D01*
X7546Y176382D01*
X6607Y175918D01*
X5639Y175517D01*
X4647Y175181D01*
X3635Y174910D01*
X2608Y174705D01*
X1569Y174569D01*
X524Y174500D01*
X-524Y174500D01*
X-1569Y174569D01*
X-2608Y174705D01*
X-3635Y174910D01*
X-4647Y175181D01*
X-5639Y175517D01*
X-6607Y175918D01*
X-7546Y176382D01*
X-8454Y176906D01*
X-9325Y177488D01*
X-10156Y178125D01*
X-10943Y178816D01*
X-11684Y179557D01*
X-12375Y180344D01*
X-13013Y181175D01*
X-13595Y182046D01*
X-14118Y182954D01*
X-14582Y183893D01*
X-14983Y184861D01*
X-15319Y185853D01*
X-15590Y186865D01*
X-15795Y187892D01*
X-15932Y188931D01*
X-16000Y189976D01*
X-16000Y191024D01*
X-15932Y192069D01*
X-15795Y193108D01*
X-15590Y194135D01*
X-15319Y195147D01*
X-14983Y196139D01*
X-14582Y197107D01*
X-14118Y198046D01*
X-13595Y198954D01*
X-13013Y199825D01*
X-12375Y200656D01*
X-11684Y201443D01*
X-10943Y202184D01*
X-10156Y202875D01*
X-9325Y203513D01*
X-8454Y204095D01*
X-7546Y204618D01*
X-6607Y205082D01*
X-5639Y205483D01*
X-4647Y205819D01*
X-3635Y206090D01*
X-2608Y206295D01*
X-1569Y206432D01*
X-524Y206500D01*
X524Y206500D01*
X1569Y206432D01*
X2608Y206295D01*
X3635Y206090D01*
X4647Y205819D01*
X5639Y205483D01*
X6607Y205082D01*
X7546Y204618D01*
X8454Y204095D01*
X9325Y203513D01*
X10156Y202875D01*
X10943Y202184D01*
X11684Y201443D01*
X12375Y200656D01*
X13013Y199825D01*
X13595Y198954D01*
X14118Y198046D01*
X14582Y197107D01*
X14983Y196139D01*
X15319Y195147D01*
X15590Y194135D01*
X15795Y193108D01*
X15932Y192069D01*
X16000Y191024D01*
X16000Y189976D01*
X16000Y-191024D02*
X15932Y-192069D01*
X15795Y-193108D01*
X15590Y-194135D01*
X15319Y-195147D01*
X14983Y-196139D01*
X14582Y-197107D01*
X14118Y-198046D01*
X13595Y-198954D01*
X13013Y-199825D01*
X12375Y-200656D01*
X11684Y-201443D01*
X10943Y-202184D01*
X10156Y-202875D01*
X9325Y-203513D01*
X8454Y-204095D01*
X7546Y-204618D01*
X6607Y-205082D01*
X5639Y-205483D01*
X4647Y-205819D01*
X3635Y-206090D01*
X2608Y-206295D01*
X1569Y-206432D01*
X524Y-206500D01*
X-524Y-206500D01*
X-1569Y-206432D01*
X-2608Y-206295D01*
X-3635Y-206090D01*
X-4647Y-205819D01*
X-5639Y-205483D01*
X-6607Y-205082D01*
X-7546Y-204618D01*
X-8454Y-204095D01*
X-9325Y-203513D01*
X-10156Y-202875D01*
X-10943Y-202184D01*
X-11684Y-201443D01*
X-12375Y-200656D01*
X-13013Y-199825D01*
X-13595Y-198954D01*
X-14118Y-198046D01*
X-14582Y-197107D01*
X-14983Y-196139D01*
X-15319Y-195147D01*
X-15590Y-194135D01*
X-15795Y-193108D01*
X-15932Y-192069D01*
X-16000Y-191024D01*
X-16000Y-189976D01*
X-15932Y-188931D01*
X-15795Y-187892D01*
X-15590Y-186865D01*
X-15319Y-185853D01*
X-14983Y-184861D01*
X-14582Y-183893D01*
X-14118Y-182954D01*
X-13595Y-182046D01*
X-13013Y-181175D01*
X-12375Y-180344D01*
X-11684Y-179557D01*
X-10943Y-178816D01*
X-10156Y-178125D01*
X-9325Y-177488D01*
X-8454Y-176906D01*
X-7546Y-176382D01*
X-6607Y-175918D01*
X-5639Y-175517D01*
X-4647Y-175181D01*
X-3635Y-174910D01*
X-2608Y-174705D01*
X-1569Y-174569D01*
X-524Y-174500D01*
X524Y-174500D01*
X1569Y-174569D01*
X2608Y-174705D01*
X3635Y-174910D01*
X4647Y-175181D01*
X5639Y-175517D01*
X6607Y-175918D01*
X7546Y-176382D01*
X8454Y-176906D01*
X9325Y-177488D01*
X10156Y-178125D01*
X10943Y-178816D01*
X11684Y-179557D01*
X12375Y-180344D01*
X13013Y-181175D01*
X13595Y-182046D01*
X14118Y-182954D01*
X14582Y-183893D01*
X14983Y-184861D01*
X15319Y-185853D01*
X15590Y-186865D01*
X15795Y-187892D01*
X15932Y-188931D01*
X16000Y-189976D01*
X16000Y-191024D01*
X231900Y-165624D02*
X231832Y-166669D01*
X231695Y-167708D01*
X231490Y-168735D01*
X231219Y-169747D01*
X230883Y-170739D01*
X230482Y-171707D01*
X230018Y-172646D01*
X229495Y-173554D01*
X228913Y-174425D01*
X228275Y-175256D01*
X227584Y-176043D01*
X226843Y-176784D01*
X226056Y-177475D01*
X225225Y-178113D01*
X224354Y-178695D01*
X223446Y-179218D01*
X222507Y-179682D01*
X221539Y-180083D01*
X220547Y-180419D01*
X219535Y-180690D01*
X218508Y-180895D01*
X217469Y-181032D01*
X216424Y-181100D01*
X215376Y-181100D01*
X214331Y-181032D01*
X213292Y-180895D01*
X212265Y-180690D01*
X211253Y-180419D01*
X210261Y-180083D01*
X209293Y-179682D01*
X208354Y-179218D01*
X207446Y-178695D01*
X206575Y-178113D01*
X205744Y-177475D01*
X204957Y-176784D01*
X204216Y-176043D01*
X203525Y-175256D01*
X202888Y-174425D01*
X202306Y-173554D01*
X201782Y-172646D01*
X201318Y-171707D01*
X200917Y-170739D01*
X200581Y-169747D01*
X200310Y-168735D01*
X200105Y-167708D01*
X199969Y-166669D01*
X199900Y-165624D01*
X199900Y-164576D01*
X199969Y-163531D01*
X200105Y-162492D01*
X200310Y-161465D01*
X200581Y-160453D01*
X200917Y-159461D01*
X201318Y-158493D01*
X201782Y-157554D01*
X202306Y-156646D01*
X202888Y-155775D01*
X203525Y-154944D01*
X204216Y-154157D01*
X204957Y-153416D01*
X205744Y-152725D01*
X206575Y-152088D01*
X207446Y-151506D01*
X208354Y-150982D01*
X209293Y-150518D01*
X210261Y-150117D01*
X211253Y-149781D01*
X212265Y-149510D01*
X213292Y-149305D01*
X214331Y-149169D01*
X215376Y-149100D01*
X216424Y-149100D01*
X217469Y-149169D01*
X218508Y-149305D01*
X219535Y-149510D01*
X220547Y-149781D01*
X221539Y-150117D01*
X222507Y-150518D01*
X223446Y-150982D01*
X224354Y-151506D01*
X225225Y-152088D01*
X226056Y-152725D01*
X226843Y-153416D01*
X227584Y-154157D01*
X228275Y-154944D01*
X228913Y-155775D01*
X229495Y-156646D01*
X230018Y-157554D01*
X230482Y-158493D01*
X230883Y-159461D01*
X231219Y-160453D01*
X231490Y-161465D01*
X231695Y-162492D01*
X231832Y-163531D01*
X231900Y-164576D01*
X231900Y-165624D01*
X181100Y-216424D02*
X181032Y-217469D01*
X180895Y-218508D01*
X180690Y-219535D01*
X180419Y-220547D01*
X180083Y-221539D01*
X179682Y-222507D01*
X179218Y-223446D01*
X178695Y-224354D01*
X178113Y-225225D01*
X177475Y-226056D01*
X176784Y-226843D01*
X176043Y-227584D01*
X175256Y-228275D01*
X174425Y-228913D01*
X173554Y-229495D01*
X172646Y-230018D01*
X171707Y-230482D01*
X170739Y-230883D01*
X169747Y-231219D01*
X168735Y-231490D01*
X167708Y-231695D01*
X166669Y-231832D01*
X165624Y-231900D01*
X164576Y-231900D01*
X163531Y-231832D01*
X162492Y-231695D01*
X161465Y-231490D01*
X160453Y-231219D01*
X159461Y-230883D01*
X158493Y-230482D01*
X157554Y-230018D01*
X156646Y-229495D01*
X155775Y-228913D01*
X154944Y-228275D01*
X154157Y-227584D01*
X153416Y-226843D01*
X152725Y-226056D01*
X152088Y-225225D01*
X151506Y-224354D01*
X150982Y-223446D01*
X150518Y-222507D01*
X150117Y-221539D01*
X149781Y-220547D01*
X149510Y-219535D01*
X149305Y-218508D01*
X149169Y-217469D01*
X149100Y-216424D01*
X149100Y-215376D01*
X149169Y-214331D01*
X149305Y-213292D01*
X149510Y-212265D01*
X149781Y-211253D01*
X150117Y-210261D01*
X150518Y-209293D01*
X150982Y-208354D01*
X151506Y-207446D01*
X152088Y-206575D01*
X152725Y-205744D01*
X153416Y-204957D01*
X154157Y-204216D01*
X154944Y-203525D01*
X155775Y-202888D01*
X156646Y-202306D01*
X157554Y-201782D01*
X158493Y-201318D01*
X159461Y-200917D01*
X160453Y-200581D01*
X161465Y-200310D01*
X162492Y-200105D01*
X163531Y-199969D01*
X164576Y-199900D01*
X165624Y-199900D01*
X166669Y-199969D01*
X167708Y-200105D01*
X168735Y-200310D01*
X169747Y-200581D01*
X170739Y-200917D01*
X171707Y-201318D01*
X172646Y-201782D01*
X173554Y-202306D01*
X174425Y-202888D01*
X175256Y-203525D01*
X176043Y-204216D01*
X176784Y-204957D01*
X177475Y-205744D01*
X178113Y-206575D01*
X178695Y-207446D01*
X179218Y-208354D01*
X179682Y-209293D01*
X180083Y-210261D01*
X180419Y-211253D01*
X180690Y-212265D01*
X180895Y-213292D01*
X181032Y-214331D01*
X181100Y-215376D01*
X181100Y-216424D01*
M02*
