G04 EAGLE Gerber RS-274X export*
G75*
%MOMM*%
%FSLAX34Y34*%
%LPD*%
%INSilkscreen Bottom*%
%IPPOS*%
%AMOC8*
5,1,8,0,0,1.08239X$1,22.5*%
G01*
%ADD10C,0.304800*%


D10*
X-127000Y-266700D02*
X-127000Y-256387D01*
X-127000Y-246387D02*
X-127000Y-236074D01*
X-127000Y-226074D02*
X-127000Y-215761D01*
X-127000Y-205761D02*
X-127000Y-195448D01*
X-127000Y-185448D02*
X-127000Y-175135D01*
X-127000Y-165135D02*
X-127000Y-154822D01*
X-127000Y-144822D02*
X-127000Y-134509D01*
X-127000Y-124509D02*
X-127000Y-114196D01*
X-127000Y-104196D02*
X-127000Y-93883D01*
X-127000Y-83883D02*
X-127000Y-73570D01*
X-127000Y-63570D02*
X-127000Y-53257D01*
X-127000Y-43257D02*
X-127000Y-32943D01*
X-127000Y-22943D02*
X-127000Y-12630D01*
X-127000Y-2630D02*
X-127000Y7683D01*
X-127000Y17683D02*
X-127000Y27996D01*
X-127000Y37996D02*
X-127000Y48309D01*
X-127000Y58309D02*
X-127000Y68622D01*
X-127000Y78622D02*
X-127000Y88935D01*
X-127000Y98935D02*
X-127000Y109248D01*
X-127000Y119248D02*
X-127000Y129561D01*
X-127000Y139561D02*
X-127000Y149874D01*
X-127000Y159874D02*
X-127000Y170187D01*
X-127000Y180187D02*
X-127000Y190500D01*
X127000Y190500D02*
X127000Y180187D01*
X127000Y170187D02*
X127000Y159874D01*
X127000Y149874D02*
X127000Y139561D01*
X127000Y129561D02*
X127000Y119248D01*
X127000Y109248D02*
X127000Y98935D01*
X127000Y88935D02*
X127000Y78622D01*
X127000Y68622D02*
X127000Y58309D01*
X127000Y48309D02*
X127000Y37996D01*
X127000Y27996D02*
X127000Y17683D01*
X127000Y7683D02*
X127000Y-2630D01*
X127000Y-12630D02*
X127000Y-22943D01*
X127000Y-32943D02*
X127000Y-43257D01*
X127000Y-53257D02*
X127000Y-63570D01*
X127000Y-73570D02*
X127000Y-83883D01*
X127000Y-93883D02*
X127000Y-104196D01*
X127000Y-114196D02*
X127000Y-124509D01*
X127000Y-134509D02*
X127000Y-144822D01*
X127000Y-154822D02*
X127000Y-165135D01*
X127000Y-175135D02*
X127000Y-185448D01*
X127000Y-195448D02*
X127000Y-205761D01*
X127000Y-215761D02*
X127000Y-226074D01*
X127000Y-236074D02*
X127000Y-246387D01*
X127000Y-256387D02*
X127000Y-266700D01*
X-50667Y254000D02*
X-63500Y254000D01*
X-40667Y254000D02*
X-27833Y254000D01*
X-17833Y254000D02*
X-5000Y254000D01*
X5000Y254000D02*
X17833Y254000D01*
X27833Y254000D02*
X40667Y254000D01*
X50667Y254000D02*
X63500Y254000D01*
X-63500Y254000D02*
X-74072Y243428D01*
X-81143Y236357D02*
X-91714Y225786D01*
X-98786Y218714D02*
X-109357Y208143D01*
X-116428Y201072D02*
X-127000Y190500D01*
X63500Y254000D02*
X74072Y243428D01*
X81143Y236357D02*
X91714Y225786D01*
X98786Y218714D02*
X109357Y208143D01*
X116428Y201072D02*
X127000Y190500D01*
M02*
