G04 EAGLE Gerber RS-274X export*
G75*
%MOMM*%
%FSLAX34Y34*%
%LPD*%
%INSilkscreen Top*%
%IPPOS*%
%AMOC8*
5,1,8,0,0,1.08239X$1,22.5*%
G01*
%ADD10C,0.304800*%
%ADD11C,0.812800*%
%ADD12C,0.152400*%
%ADD13C,0.000000*%
%ADD14C,0.127000*%
%ADD15C,0.254000*%
%ADD16C,0.025400*%
%ADD17C,0.282838*%
%ADD18C,0.177800*%
%ADD19C,0.050800*%
%ADD20R,0.042162X0.972819*%
%ADD21R,0.042419X1.440181*%
%ADD22R,0.042419X2.242819*%
%ADD23R,0.042162X2.496819*%
%ADD24R,0.042419X0.718819*%
%ADD25R,0.042419X0.635000*%
%ADD26R,0.042419X0.678181*%
%ADD27R,0.042162X0.551181*%
%ADD28R,0.042162X0.548638*%
%ADD29R,0.042419X0.508000*%
%ADD30R,0.042419X0.464819*%
%ADD31R,0.042419X0.424181*%
%ADD32R,0.042162X0.424181*%
%ADD33R,0.042419X0.381000*%
%ADD34R,0.042419X0.297181*%
%ADD35R,0.042162X0.381000*%
%ADD36R,0.042162X0.254000*%
%ADD37R,0.042162X0.508000*%
%ADD38R,0.042162X0.337819*%
%ADD39R,0.042419X0.337819*%
%ADD40R,0.042419X0.551181*%
%ADD41R,0.042419X0.340363*%
%ADD42R,0.042419X0.421637*%
%ADD43R,0.042419X0.254000*%
%ADD44R,0.042162X0.297181*%
%ADD45R,0.042162X0.210819*%
%ADD46R,0.042419X0.170181*%
%ADD47R,0.042419X0.167637*%
%ADD48R,0.042419X0.213363*%
%ADD49R,0.042419X0.210819*%
%ADD50R,0.042162X0.170181*%
%ADD51R,0.042162X0.591819*%
%ADD52R,0.042162X0.294637*%
%ADD53R,0.042419X0.294637*%
%ADD54R,0.042162X0.213363*%
%ADD55R,0.042162X0.167637*%
%ADD56R,0.042162X0.083819*%
%ADD57R,0.042419X0.127000*%
%ADD58R,0.042419X0.083819*%
%ADD59R,0.042162X0.127000*%
%ADD60R,0.042162X0.421637*%
%ADD61R,0.042419X0.467363*%
%ADD62R,0.042419X1.483363*%
%ADD63R,0.042162X0.340363*%
%ADD64R,0.042162X1.694181*%
%ADD65R,0.042419X2.286000*%
%ADD66R,0.042419X2.456181*%
%ADD67R,0.042419X0.591819*%
%ADD68R,0.042419X0.040638*%
%ADD69R,0.042162X0.762000*%
%ADD70R,0.042419X0.721363*%
%ADD71R,0.042162X0.467363*%
%ADD72R,0.042162X0.464819*%
%ADD73R,0.042419X0.086363*%
%ADD74R,0.042162X0.845819*%
%ADD75R,0.042419X1.016000*%
%ADD76R,0.042162X0.086363*%
%ADD77R,0.042162X0.635000*%
%ADD78R,0.042419X0.675638*%
%ADD79R,0.042419X0.762000*%
%ADD80R,0.042162X0.805181*%
%ADD81R,0.042162X0.043181*%
%ADD82R,0.042162X0.678181*%
%ADD83R,0.042419X0.043181*%
%ADD84R,0.042162X0.889000*%
%ADD85R,0.042419X1.186181*%
%ADD86R,0.042419X1.143000*%
%ADD87R,0.042419X0.848363*%
%ADD88R,0.042162X0.848363*%
%ADD89R,0.042162X0.040638*%
%ADD90R,0.042162X0.932181*%
%ADD91R,0.042419X1.356363*%
%ADD92R,0.042162X1.056638*%
%ADD93R,0.042419X0.972819*%
%ADD94R,0.042419X0.594363*%
%ADD95R,0.042419X0.845819*%
%ADD96R,0.042419X0.805181*%
%ADD97R,0.042162X0.594363*%
%ADD98R,0.042419X0.548638*%
%ADD99R,0.042419X0.889000*%
%ADD100R,0.042162X0.929638*%
%ADD101R,0.042419X1.102363*%
%ADD102R,0.042419X0.932181*%
%ADD103R,0.042162X0.721363*%
%ADD104R,0.042162X0.718819*%
%ADD105R,0.042419X1.778000*%
%ADD106R,0.042162X1.440181*%
%ADD107R,0.042419X1.183638*%
%ADD108R,0.042162X2.369819*%
%ADD109R,0.042419X1.694181*%
%ADD110C,0.200000*%
%ADD111C,0.203200*%

G36*
X176920Y206760D02*
X176920Y206760D01*
X176922Y206762D01*
X176923Y206761D01*
X177594Y206996D01*
X177595Y206997D01*
X177596Y206997D01*
X178198Y207375D01*
X178199Y207377D01*
X178201Y207377D01*
X178703Y207879D01*
X178703Y207881D01*
X178705Y207882D01*
X179083Y208484D01*
X179083Y208485D01*
X179084Y208486D01*
X179319Y209157D01*
X179319Y209159D01*
X179320Y209160D01*
X179399Y209866D01*
X179399Y209867D01*
X179398Y209868D01*
X179399Y209869D01*
X179320Y210575D01*
X179318Y210577D01*
X179319Y210578D01*
X179084Y211249D01*
X179083Y211250D01*
X179083Y211251D01*
X178705Y211853D01*
X178703Y211854D01*
X178703Y211856D01*
X178201Y212358D01*
X178199Y212358D01*
X178198Y212360D01*
X177596Y212738D01*
X177595Y212738D01*
X177594Y212739D01*
X176923Y212974D01*
X176921Y212974D01*
X176920Y212975D01*
X176214Y213054D01*
X176212Y213053D01*
X176211Y213054D01*
X175505Y212975D01*
X175503Y212973D01*
X175502Y212974D01*
X174831Y212739D01*
X174830Y212738D01*
X174829Y212738D01*
X174227Y212360D01*
X174226Y212358D01*
X174224Y212358D01*
X173722Y211856D01*
X173722Y211854D01*
X173720Y211853D01*
X173342Y211251D01*
X173342Y211250D01*
X173341Y211249D01*
X173106Y210578D01*
X173107Y210576D01*
X173105Y210575D01*
X173026Y209869D01*
X173027Y209867D01*
X173026Y209866D01*
X173105Y209160D01*
X173107Y209158D01*
X173106Y209157D01*
X173341Y208486D01*
X173342Y208485D01*
X173342Y208484D01*
X173720Y207882D01*
X173722Y207881D01*
X173722Y207879D01*
X174224Y207377D01*
X174226Y207377D01*
X174227Y207375D01*
X174829Y206997D01*
X174830Y206997D01*
X174831Y206996D01*
X175502Y206761D01*
X175504Y206762D01*
X175505Y206760D01*
X176211Y206681D01*
X176213Y206682D01*
X176214Y206681D01*
X176920Y206760D01*
G37*
D10*
X-63500Y0D02*
X-63481Y1558D01*
X-63424Y3116D01*
X-63328Y4671D01*
X-63194Y6224D01*
X-63022Y7773D01*
X-62813Y9317D01*
X-62565Y10856D01*
X-62280Y12388D01*
X-61957Y13913D01*
X-61597Y15429D01*
X-61200Y16936D01*
X-60766Y18433D01*
X-60295Y19919D01*
X-59788Y21393D01*
X-59245Y22853D01*
X-58666Y24300D01*
X-58052Y25733D01*
X-57403Y27150D01*
X-56720Y28550D01*
X-56002Y29934D01*
X-55251Y31299D01*
X-54466Y32646D01*
X-53648Y33972D01*
X-52798Y35279D01*
X-51917Y36564D01*
X-51004Y37827D01*
X-50060Y39067D01*
X-49086Y40284D01*
X-48083Y41476D01*
X-47050Y42644D01*
X-45990Y43786D01*
X-44901Y44901D01*
X-43786Y45990D01*
X-42644Y47050D01*
X-41476Y48083D01*
X-40284Y49086D01*
X-39067Y50060D01*
X-37827Y51004D01*
X-36564Y51917D01*
X-35279Y52798D01*
X-33972Y53648D01*
X-32646Y54466D01*
X-31299Y55251D01*
X-29934Y56002D01*
X-28550Y56720D01*
X-27150Y57403D01*
X-25733Y58052D01*
X-24300Y58666D01*
X-22853Y59245D01*
X-21393Y59788D01*
X-19919Y60295D01*
X-18433Y60766D01*
X-16936Y61200D01*
X-15429Y61597D01*
X-13913Y61957D01*
X-12388Y62280D01*
X-10856Y62565D01*
X-9317Y62813D01*
X-7773Y63022D01*
X-6224Y63194D01*
X-4671Y63328D01*
X-3116Y63424D01*
X-1558Y63481D01*
X0Y63500D01*
X1558Y63481D01*
X3116Y63424D01*
X4671Y63328D01*
X6224Y63194D01*
X7773Y63022D01*
X9317Y62813D01*
X10856Y62565D01*
X12388Y62280D01*
X13913Y61957D01*
X15429Y61597D01*
X16936Y61200D01*
X18433Y60766D01*
X19919Y60295D01*
X21393Y59788D01*
X22853Y59245D01*
X24300Y58666D01*
X25733Y58052D01*
X27150Y57403D01*
X28550Y56720D01*
X29934Y56002D01*
X31299Y55251D01*
X32646Y54466D01*
X33972Y53648D01*
X35279Y52798D01*
X36564Y51917D01*
X37827Y51004D01*
X39067Y50060D01*
X40284Y49086D01*
X41476Y48083D01*
X42644Y47050D01*
X43786Y45990D01*
X44901Y44901D01*
X45990Y43786D01*
X47050Y42644D01*
X48083Y41476D01*
X49086Y40284D01*
X50060Y39067D01*
X51004Y37827D01*
X51917Y36564D01*
X52798Y35279D01*
X53648Y33972D01*
X54466Y32646D01*
X55251Y31299D01*
X56002Y29934D01*
X56720Y28550D01*
X57403Y27150D01*
X58052Y25733D01*
X58666Y24300D01*
X59245Y22853D01*
X59788Y21393D01*
X60295Y19919D01*
X60766Y18433D01*
X61200Y16936D01*
X61597Y15429D01*
X61957Y13913D01*
X62280Y12388D01*
X62565Y10856D01*
X62813Y9317D01*
X63022Y7773D01*
X63194Y6224D01*
X63328Y4671D01*
X63424Y3116D01*
X63481Y1558D01*
X63500Y0D01*
X63481Y-1558D01*
X63424Y-3116D01*
X63328Y-4671D01*
X63194Y-6224D01*
X63022Y-7773D01*
X62813Y-9317D01*
X62565Y-10856D01*
X62280Y-12388D01*
X61957Y-13913D01*
X61597Y-15429D01*
X61200Y-16936D01*
X60766Y-18433D01*
X60295Y-19919D01*
X59788Y-21393D01*
X59245Y-22853D01*
X58666Y-24300D01*
X58052Y-25733D01*
X57403Y-27150D01*
X56720Y-28550D01*
X56002Y-29934D01*
X55251Y-31299D01*
X54466Y-32646D01*
X53648Y-33972D01*
X52798Y-35279D01*
X51917Y-36564D01*
X51004Y-37827D01*
X50060Y-39067D01*
X49086Y-40284D01*
X48083Y-41476D01*
X47050Y-42644D01*
X45990Y-43786D01*
X44901Y-44901D01*
X43786Y-45990D01*
X42644Y-47050D01*
X41476Y-48083D01*
X40284Y-49086D01*
X39067Y-50060D01*
X37827Y-51004D01*
X36564Y-51917D01*
X35279Y-52798D01*
X33972Y-53648D01*
X32646Y-54466D01*
X31299Y-55251D01*
X29934Y-56002D01*
X28550Y-56720D01*
X27150Y-57403D01*
X25733Y-58052D01*
X24300Y-58666D01*
X22853Y-59245D01*
X21393Y-59788D01*
X19919Y-60295D01*
X18433Y-60766D01*
X16936Y-61200D01*
X15429Y-61597D01*
X13913Y-61957D01*
X12388Y-62280D01*
X10856Y-62565D01*
X9317Y-62813D01*
X7773Y-63022D01*
X6224Y-63194D01*
X4671Y-63328D01*
X3116Y-63424D01*
X1558Y-63481D01*
X0Y-63500D01*
X-1558Y-63481D01*
X-3116Y-63424D01*
X-4671Y-63328D01*
X-6224Y-63194D01*
X-7773Y-63022D01*
X-9317Y-62813D01*
X-10856Y-62565D01*
X-12388Y-62280D01*
X-13913Y-61957D01*
X-15429Y-61597D01*
X-16936Y-61200D01*
X-18433Y-60766D01*
X-19919Y-60295D01*
X-21393Y-59788D01*
X-22853Y-59245D01*
X-24300Y-58666D01*
X-25733Y-58052D01*
X-27150Y-57403D01*
X-28550Y-56720D01*
X-29934Y-56002D01*
X-31299Y-55251D01*
X-32646Y-54466D01*
X-33972Y-53648D01*
X-35279Y-52798D01*
X-36564Y-51917D01*
X-37827Y-51004D01*
X-39067Y-50060D01*
X-40284Y-49086D01*
X-41476Y-48083D01*
X-42644Y-47050D01*
X-43786Y-45990D01*
X-44901Y-44901D01*
X-45990Y-43786D01*
X-47050Y-42644D01*
X-48083Y-41476D01*
X-49086Y-40284D01*
X-50060Y-39067D01*
X-51004Y-37827D01*
X-51917Y-36564D01*
X-52798Y-35279D01*
X-53648Y-33972D01*
X-54466Y-32646D01*
X-55251Y-31299D01*
X-56002Y-29934D01*
X-56720Y-28550D01*
X-57403Y-27150D01*
X-58052Y-25733D01*
X-58666Y-24300D01*
X-59245Y-22853D01*
X-59788Y-21393D01*
X-60295Y-19919D01*
X-60766Y-18433D01*
X-61200Y-16936D01*
X-61597Y-15429D01*
X-61957Y-13913D01*
X-62280Y-12388D01*
X-62565Y-10856D01*
X-62813Y-9317D01*
X-63022Y-7773D01*
X-63194Y-6224D01*
X-63328Y-4671D01*
X-63424Y-3116D01*
X-63481Y-1558D01*
X-63500Y0D01*
X-44450Y-190500D02*
X-44437Y-189409D01*
X-44396Y-188319D01*
X-44330Y-187230D01*
X-44236Y-186143D01*
X-44116Y-185059D01*
X-43969Y-183978D01*
X-43796Y-182901D01*
X-43596Y-181828D01*
X-43370Y-180761D01*
X-43118Y-179700D01*
X-42840Y-178645D01*
X-42536Y-177597D01*
X-42207Y-176557D01*
X-41852Y-175525D01*
X-41472Y-174503D01*
X-41066Y-173490D01*
X-40637Y-172487D01*
X-40182Y-171495D01*
X-39704Y-170515D01*
X-39201Y-169546D01*
X-38675Y-168591D01*
X-38126Y-167648D01*
X-37554Y-166719D01*
X-36959Y-165805D01*
X-36342Y-164905D01*
X-35703Y-164021D01*
X-35042Y-163153D01*
X-34360Y-162301D01*
X-33658Y-161466D01*
X-32935Y-160649D01*
X-32193Y-159850D01*
X-31431Y-159069D01*
X-30650Y-158307D01*
X-29851Y-157565D01*
X-29034Y-156842D01*
X-28199Y-156140D01*
X-27347Y-155458D01*
X-26479Y-154797D01*
X-25595Y-154158D01*
X-24695Y-153541D01*
X-23781Y-152946D01*
X-22852Y-152374D01*
X-21909Y-151825D01*
X-20954Y-151299D01*
X-19985Y-150796D01*
X-19005Y-150318D01*
X-18013Y-149863D01*
X-17010Y-149434D01*
X-15997Y-149028D01*
X-14975Y-148648D01*
X-13943Y-148293D01*
X-12903Y-147964D01*
X-11855Y-147660D01*
X-10800Y-147382D01*
X-9739Y-147130D01*
X-8672Y-146904D01*
X-7599Y-146704D01*
X-6522Y-146531D01*
X-5441Y-146384D01*
X-4357Y-146264D01*
X-3270Y-146170D01*
X-2181Y-146104D01*
X-1091Y-146063D01*
X0Y-146050D01*
X1091Y-146063D01*
X2181Y-146104D01*
X3270Y-146170D01*
X4357Y-146264D01*
X5441Y-146384D01*
X6522Y-146531D01*
X7599Y-146704D01*
X8672Y-146904D01*
X9739Y-147130D01*
X10800Y-147382D01*
X11855Y-147660D01*
X12903Y-147964D01*
X13943Y-148293D01*
X14975Y-148648D01*
X15997Y-149028D01*
X17010Y-149434D01*
X18013Y-149863D01*
X19005Y-150318D01*
X19985Y-150796D01*
X20954Y-151299D01*
X21909Y-151825D01*
X22852Y-152374D01*
X23781Y-152946D01*
X24695Y-153541D01*
X25595Y-154158D01*
X26479Y-154797D01*
X27347Y-155458D01*
X28199Y-156140D01*
X29034Y-156842D01*
X29851Y-157565D01*
X30650Y-158307D01*
X31431Y-159069D01*
X32193Y-159850D01*
X32935Y-160649D01*
X33658Y-161466D01*
X34360Y-162301D01*
X35042Y-163153D01*
X35703Y-164021D01*
X36342Y-164905D01*
X36959Y-165805D01*
X37554Y-166719D01*
X38126Y-167648D01*
X38675Y-168591D01*
X39201Y-169546D01*
X39704Y-170515D01*
X40182Y-171495D01*
X40637Y-172487D01*
X41066Y-173490D01*
X41472Y-174503D01*
X41852Y-175525D01*
X42207Y-176557D01*
X42536Y-177597D01*
X42840Y-178645D01*
X43118Y-179700D01*
X43370Y-180761D01*
X43596Y-181828D01*
X43796Y-182901D01*
X43969Y-183978D01*
X44116Y-185059D01*
X44236Y-186143D01*
X44330Y-187230D01*
X44396Y-188319D01*
X44437Y-189409D01*
X44450Y-190500D01*
X44437Y-191591D01*
X44396Y-192681D01*
X44330Y-193770D01*
X44236Y-194857D01*
X44116Y-195941D01*
X43969Y-197022D01*
X43796Y-198099D01*
X43596Y-199172D01*
X43370Y-200239D01*
X43118Y-201300D01*
X42840Y-202355D01*
X42536Y-203403D01*
X42207Y-204443D01*
X41852Y-205475D01*
X41472Y-206497D01*
X41066Y-207510D01*
X40637Y-208513D01*
X40182Y-209505D01*
X39704Y-210485D01*
X39201Y-211454D01*
X38675Y-212409D01*
X38126Y-213352D01*
X37554Y-214281D01*
X36959Y-215195D01*
X36342Y-216095D01*
X35703Y-216979D01*
X35042Y-217847D01*
X34360Y-218699D01*
X33658Y-219534D01*
X32935Y-220351D01*
X32193Y-221150D01*
X31431Y-221931D01*
X30650Y-222693D01*
X29851Y-223435D01*
X29034Y-224158D01*
X28199Y-224860D01*
X27347Y-225542D01*
X26479Y-226203D01*
X25595Y-226842D01*
X24695Y-227459D01*
X23781Y-228054D01*
X22852Y-228626D01*
X21909Y-229175D01*
X20954Y-229701D01*
X19985Y-230204D01*
X19005Y-230682D01*
X18013Y-231137D01*
X17010Y-231566D01*
X15997Y-231972D01*
X14975Y-232352D01*
X13943Y-232707D01*
X12903Y-233036D01*
X11855Y-233340D01*
X10800Y-233618D01*
X9739Y-233870D01*
X8672Y-234096D01*
X7599Y-234296D01*
X6522Y-234469D01*
X5441Y-234616D01*
X4357Y-234736D01*
X3270Y-234830D01*
X2181Y-234896D01*
X1091Y-234937D01*
X0Y-234950D01*
X-1091Y-234937D01*
X-2181Y-234896D01*
X-3270Y-234830D01*
X-4357Y-234736D01*
X-5441Y-234616D01*
X-6522Y-234469D01*
X-7599Y-234296D01*
X-8672Y-234096D01*
X-9739Y-233870D01*
X-10800Y-233618D01*
X-11855Y-233340D01*
X-12903Y-233036D01*
X-13943Y-232707D01*
X-14975Y-232352D01*
X-15997Y-231972D01*
X-17010Y-231566D01*
X-18013Y-231137D01*
X-19005Y-230682D01*
X-19985Y-230204D01*
X-20954Y-229701D01*
X-21909Y-229175D01*
X-22852Y-228626D01*
X-23781Y-228054D01*
X-24695Y-227459D01*
X-25595Y-226842D01*
X-26479Y-226203D01*
X-27347Y-225542D01*
X-28199Y-224860D01*
X-29034Y-224158D01*
X-29851Y-223435D01*
X-30650Y-222693D01*
X-31431Y-221931D01*
X-32193Y-221150D01*
X-32935Y-220351D01*
X-33658Y-219534D01*
X-34360Y-218699D01*
X-35042Y-217847D01*
X-35703Y-216979D01*
X-36342Y-216095D01*
X-36959Y-215195D01*
X-37554Y-214281D01*
X-38126Y-213352D01*
X-38675Y-212409D01*
X-39201Y-211454D01*
X-39704Y-210485D01*
X-40182Y-209505D01*
X-40637Y-208513D01*
X-41066Y-207510D01*
X-41472Y-206497D01*
X-41852Y-205475D01*
X-42207Y-204443D01*
X-42536Y-203403D01*
X-42840Y-202355D01*
X-43118Y-201300D01*
X-43370Y-200239D01*
X-43596Y-199172D01*
X-43796Y-198099D01*
X-43969Y-197022D01*
X-44116Y-195941D01*
X-44236Y-194857D01*
X-44330Y-193770D01*
X-44396Y-192681D01*
X-44437Y-191591D01*
X-44450Y-190500D01*
X-44450Y190500D02*
X-44437Y191591D01*
X-44396Y192681D01*
X-44330Y193770D01*
X-44236Y194857D01*
X-44116Y195941D01*
X-43969Y197022D01*
X-43796Y198099D01*
X-43596Y199172D01*
X-43370Y200239D01*
X-43118Y201300D01*
X-42840Y202355D01*
X-42536Y203403D01*
X-42207Y204443D01*
X-41852Y205475D01*
X-41472Y206497D01*
X-41066Y207510D01*
X-40637Y208513D01*
X-40182Y209505D01*
X-39704Y210485D01*
X-39201Y211454D01*
X-38675Y212409D01*
X-38126Y213352D01*
X-37554Y214281D01*
X-36959Y215195D01*
X-36342Y216095D01*
X-35703Y216979D01*
X-35042Y217847D01*
X-34360Y218699D01*
X-33658Y219534D01*
X-32935Y220351D01*
X-32193Y221150D01*
X-31431Y221931D01*
X-30650Y222693D01*
X-29851Y223435D01*
X-29034Y224158D01*
X-28199Y224860D01*
X-27347Y225542D01*
X-26479Y226203D01*
X-25595Y226842D01*
X-24695Y227459D01*
X-23781Y228054D01*
X-22852Y228626D01*
X-21909Y229175D01*
X-20954Y229701D01*
X-19985Y230204D01*
X-19005Y230682D01*
X-18013Y231137D01*
X-17010Y231566D01*
X-15997Y231972D01*
X-14975Y232352D01*
X-13943Y232707D01*
X-12903Y233036D01*
X-11855Y233340D01*
X-10800Y233618D01*
X-9739Y233870D01*
X-8672Y234096D01*
X-7599Y234296D01*
X-6522Y234469D01*
X-5441Y234616D01*
X-4357Y234736D01*
X-3270Y234830D01*
X-2181Y234896D01*
X-1091Y234937D01*
X0Y234950D01*
X1091Y234937D01*
X2181Y234896D01*
X3270Y234830D01*
X4357Y234736D01*
X5441Y234616D01*
X6522Y234469D01*
X7599Y234296D01*
X8672Y234096D01*
X9739Y233870D01*
X10800Y233618D01*
X11855Y233340D01*
X12903Y233036D01*
X13943Y232707D01*
X14975Y232352D01*
X15997Y231972D01*
X17010Y231566D01*
X18013Y231137D01*
X19005Y230682D01*
X19985Y230204D01*
X20954Y229701D01*
X21909Y229175D01*
X22852Y228626D01*
X23781Y228054D01*
X24695Y227459D01*
X25595Y226842D01*
X26479Y226203D01*
X27347Y225542D01*
X28199Y224860D01*
X29034Y224158D01*
X29851Y223435D01*
X30650Y222693D01*
X31431Y221931D01*
X32193Y221150D01*
X32935Y220351D01*
X33658Y219534D01*
X34360Y218699D01*
X35042Y217847D01*
X35703Y216979D01*
X36342Y216095D01*
X36959Y215195D01*
X37554Y214281D01*
X38126Y213352D01*
X38675Y212409D01*
X39201Y211454D01*
X39704Y210485D01*
X40182Y209505D01*
X40637Y208513D01*
X41066Y207510D01*
X41472Y206497D01*
X41852Y205475D01*
X42207Y204443D01*
X42536Y203403D01*
X42840Y202355D01*
X43118Y201300D01*
X43370Y200239D01*
X43596Y199172D01*
X43796Y198099D01*
X43969Y197022D01*
X44116Y195941D01*
X44236Y194857D01*
X44330Y193770D01*
X44396Y192681D01*
X44437Y191591D01*
X44450Y190500D01*
X44437Y189409D01*
X44396Y188319D01*
X44330Y187230D01*
X44236Y186143D01*
X44116Y185059D01*
X43969Y183978D01*
X43796Y182901D01*
X43596Y181828D01*
X43370Y180761D01*
X43118Y179700D01*
X42840Y178645D01*
X42536Y177597D01*
X42207Y176557D01*
X41852Y175525D01*
X41472Y174503D01*
X41066Y173490D01*
X40637Y172487D01*
X40182Y171495D01*
X39704Y170515D01*
X39201Y169546D01*
X38675Y168591D01*
X38126Y167648D01*
X37554Y166719D01*
X36959Y165805D01*
X36342Y164905D01*
X35703Y164021D01*
X35042Y163153D01*
X34360Y162301D01*
X33658Y161466D01*
X32935Y160649D01*
X32193Y159850D01*
X31431Y159069D01*
X30650Y158307D01*
X29851Y157565D01*
X29034Y156842D01*
X28199Y156140D01*
X27347Y155458D01*
X26479Y154797D01*
X25595Y154158D01*
X24695Y153541D01*
X23781Y152946D01*
X22852Y152374D01*
X21909Y151825D01*
X20954Y151299D01*
X19985Y150796D01*
X19005Y150318D01*
X18013Y149863D01*
X17010Y149434D01*
X15997Y149028D01*
X14975Y148648D01*
X13943Y148293D01*
X12903Y147964D01*
X11855Y147660D01*
X10800Y147382D01*
X9739Y147130D01*
X8672Y146904D01*
X7599Y146704D01*
X6522Y146531D01*
X5441Y146384D01*
X4357Y146264D01*
X3270Y146170D01*
X2181Y146104D01*
X1091Y146063D01*
X0Y146050D01*
X-1091Y146063D01*
X-2181Y146104D01*
X-3270Y146170D01*
X-4357Y146264D01*
X-5441Y146384D01*
X-6522Y146531D01*
X-7599Y146704D01*
X-8672Y146904D01*
X-9739Y147130D01*
X-10800Y147382D01*
X-11855Y147660D01*
X-12903Y147964D01*
X-13943Y148293D01*
X-14975Y148648D01*
X-15997Y149028D01*
X-17010Y149434D01*
X-18013Y149863D01*
X-19005Y150318D01*
X-19985Y150796D01*
X-20954Y151299D01*
X-21909Y151825D01*
X-22852Y152374D01*
X-23781Y152946D01*
X-24695Y153541D01*
X-25595Y154158D01*
X-26479Y154797D01*
X-27347Y155458D01*
X-28199Y156140D01*
X-29034Y156842D01*
X-29851Y157565D01*
X-30650Y158307D01*
X-31431Y159069D01*
X-32193Y159850D01*
X-32935Y160649D01*
X-33658Y161466D01*
X-34360Y162301D01*
X-35042Y163153D01*
X-35703Y164021D01*
X-36342Y164905D01*
X-36959Y165805D01*
X-37554Y166719D01*
X-38126Y167648D01*
X-38675Y168591D01*
X-39201Y169546D01*
X-39704Y170515D01*
X-40182Y171495D01*
X-40637Y172487D01*
X-41066Y173490D01*
X-41472Y174503D01*
X-41852Y175525D01*
X-42207Y176557D01*
X-42536Y177597D01*
X-42840Y178645D01*
X-43118Y179700D01*
X-43370Y180761D01*
X-43596Y181828D01*
X-43796Y182901D01*
X-43969Y183978D01*
X-44116Y185059D01*
X-44236Y186143D01*
X-44330Y187230D01*
X-44396Y188319D01*
X-44437Y189409D01*
X-44450Y190500D01*
X12700Y-63500D02*
X215900Y-266700D01*
X317500Y-266700D02*
X63500Y-12700D01*
D11*
X71882Y71882D02*
X-71882Y-71882D01*
D12*
X-179832Y-247815D02*
X-185255Y-253238D01*
X-190679Y-253238D01*
X-196102Y-247815D01*
X-190679Y-239612D02*
X-190679Y-231477D01*
X-190679Y-239612D02*
X-187967Y-242324D01*
X-182544Y-242324D01*
X-179832Y-239612D01*
X-179832Y-231477D01*
X-179832Y-225952D02*
X-185255Y-220529D01*
X-190679Y-220529D01*
X-196102Y-225952D01*
X-179832Y-198666D02*
X-179832Y-187820D01*
X-179832Y-198666D02*
X-190679Y-187820D01*
X-193390Y-187820D01*
X-196102Y-190531D01*
X-196102Y-195955D01*
X-193390Y-198666D01*
X-193390Y-182295D02*
X-182544Y-182295D01*
X-193390Y-182295D02*
X-196102Y-179583D01*
X-196102Y-174160D01*
X-193390Y-171448D01*
X-182544Y-171448D01*
X-179832Y-174160D01*
X-179832Y-179583D01*
X-182544Y-182295D01*
X-193390Y-171448D01*
X-190679Y-165923D02*
X-196102Y-160500D01*
X-179832Y-160500D01*
X-179832Y-165923D02*
X-179832Y-155076D01*
X-182544Y-149551D02*
X-179832Y-146840D01*
X-179832Y-141417D01*
X-182544Y-138705D01*
X-193390Y-138705D01*
X-196102Y-141417D01*
X-196102Y-146840D01*
X-193390Y-149551D01*
X-190679Y-149551D01*
X-187967Y-146840D01*
X-187967Y-138705D01*
X-147739Y-250526D02*
X-147739Y-253238D01*
X-147739Y-250526D02*
X-150450Y-247815D01*
X-164009Y-247815D01*
X-169432Y-247815D02*
X-172144Y-247815D01*
X-153162Y-239612D02*
X-153162Y-234189D01*
X-155874Y-231477D01*
X-161297Y-231477D01*
X-164009Y-234189D01*
X-164009Y-239612D01*
X-161297Y-242324D01*
X-155874Y-242324D01*
X-153162Y-239612D01*
X-153162Y-225952D02*
X-169432Y-225952D01*
X-164009Y-223240D02*
X-161297Y-225952D01*
X-164009Y-223240D02*
X-164009Y-217817D01*
X-161297Y-215105D01*
X-153162Y-215105D01*
X-153162Y-209581D02*
X-164009Y-209581D01*
X-164009Y-201446D01*
X-161297Y-198734D01*
X-153162Y-198734D01*
X-153162Y-193209D02*
X-155874Y-193209D01*
X-155874Y-190497D01*
X-153162Y-190497D01*
X-153162Y-193209D01*
X-153162Y-185023D02*
X-169432Y-185023D01*
X-164009Y-182312D02*
X-161297Y-185023D01*
X-164009Y-182312D02*
X-164009Y-176888D01*
X-161297Y-174177D01*
X-153162Y-174177D01*
X-155874Y-168652D02*
X-164009Y-168652D01*
X-155874Y-168652D02*
X-153162Y-165940D01*
X-153162Y-157805D01*
X-164009Y-157805D01*
X-169432Y-152280D02*
X-169432Y-149568D01*
X-153162Y-149568D01*
X-153162Y-146857D02*
X-153162Y-152280D01*
X-155874Y-138654D02*
X-166720Y-138654D01*
X-155874Y-138654D02*
X-153162Y-135942D01*
X-164009Y-135942D02*
X-164009Y-141366D01*
X-169432Y-130451D02*
X-153162Y-130451D01*
X-161297Y-130451D02*
X-164009Y-127740D01*
X-164009Y-122316D01*
X-161297Y-119605D01*
X-153162Y-119605D01*
X-153162Y-105945D02*
X-155874Y-103233D01*
X-153162Y-105945D02*
X-153162Y-111368D01*
X-155874Y-114080D01*
X-166720Y-114080D01*
X-169432Y-111368D01*
X-169432Y-105945D01*
X-166720Y-103233D01*
X-161297Y-103233D01*
X-158585Y-105945D01*
X-158585Y-111368D01*
X-164009Y-111368D01*
X-164009Y-105945D01*
X-158585Y-105945D01*
X-147739Y-92285D02*
X-147739Y-89573D01*
X-150450Y-86862D01*
X-164009Y-86862D01*
X-164009Y-94997D01*
X-161297Y-97708D01*
X-155874Y-97708D01*
X-153162Y-94997D01*
X-153162Y-86862D01*
X-153162Y-78625D02*
X-153162Y-73202D01*
X-153162Y-78625D02*
X-155874Y-81337D01*
X-161297Y-81337D01*
X-164009Y-78625D01*
X-164009Y-73202D01*
X-161297Y-70490D01*
X-158585Y-70490D01*
X-158585Y-81337D01*
X-153162Y-62253D02*
X-153162Y-56830D01*
X-155874Y-54118D01*
X-161297Y-54118D01*
X-164009Y-56830D01*
X-164009Y-62253D01*
X-161297Y-64965D01*
X-155874Y-64965D01*
X-153162Y-62253D01*
X-153162Y-48593D02*
X-155874Y-48593D01*
X-155874Y-45882D01*
X-153162Y-45882D01*
X-153162Y-48593D01*
X-155874Y-40408D02*
X-164009Y-40408D01*
X-155874Y-40408D02*
X-153162Y-37696D01*
X-153162Y-29561D01*
X-164009Y-29561D01*
X-164009Y-24036D02*
X-164009Y-21325D01*
X-153162Y-21325D01*
X-153162Y-24036D02*
X-153162Y-18613D01*
X-169432Y-21325D02*
X-172144Y-21325D01*
X-153162Y-10410D02*
X-153162Y-4987D01*
X-155874Y-2275D01*
X-161297Y-2275D01*
X-164009Y-4987D01*
X-164009Y-10410D01*
X-161297Y-13122D01*
X-155874Y-13122D01*
X-153162Y-10410D01*
X-153162Y3250D02*
X-155874Y3250D01*
X-155874Y5961D01*
X-153162Y5961D01*
X-153162Y3250D01*
X-153162Y11436D02*
X-164009Y11436D01*
X-164009Y19571D01*
X-161297Y22282D01*
X-153162Y22282D01*
X-153162Y30519D02*
X-153162Y35942D01*
X-155874Y38654D01*
X-161297Y38654D01*
X-164009Y35942D01*
X-164009Y30519D01*
X-161297Y27807D01*
X-155874Y27807D01*
X-153162Y30519D01*
X-224282Y-253238D02*
X-240552Y-253238D01*
X-224282Y-253238D02*
X-224282Y-242391D01*
X-235129Y-234155D02*
X-235129Y-228732D01*
X-232417Y-226020D01*
X-224282Y-226020D01*
X-224282Y-234155D01*
X-226994Y-236866D01*
X-229705Y-234155D01*
X-229705Y-226020D01*
X-218859Y-215072D02*
X-218859Y-212360D01*
X-221570Y-209648D01*
X-235129Y-209648D01*
X-235129Y-217783D01*
X-232417Y-220495D01*
X-226994Y-220495D01*
X-224282Y-217783D01*
X-224282Y-209648D01*
X-224282Y-201412D02*
X-224282Y-195988D01*
X-226994Y-193277D01*
X-232417Y-193277D01*
X-235129Y-195988D01*
X-235129Y-201412D01*
X-232417Y-204123D01*
X-226994Y-204123D01*
X-224282Y-201412D01*
X-218859Y-187752D02*
X-235129Y-187752D01*
X-235129Y-179617D01*
X-232417Y-176905D01*
X-226994Y-176905D01*
X-224282Y-179617D01*
X-224282Y-187752D01*
X-226994Y-171380D02*
X-235129Y-171380D01*
X-226994Y-171380D02*
X-224282Y-168669D01*
X-224282Y-160534D01*
X-235129Y-160534D01*
X-224282Y-155009D02*
X-224282Y-146874D01*
X-226994Y-144162D01*
X-229705Y-146874D01*
X-229705Y-152297D01*
X-232417Y-155009D01*
X-235129Y-152297D01*
X-235129Y-144162D01*
X-235129Y-122266D02*
X-224282Y-122266D01*
X-235129Y-122266D02*
X-240552Y-116842D01*
X-235129Y-111419D01*
X-224282Y-111419D01*
X-232417Y-111419D02*
X-232417Y-122266D01*
X-229705Y-89522D02*
X-240552Y-89522D01*
X-229705Y-89522D02*
X-224282Y-84099D01*
X-229705Y-78676D01*
X-240552Y-78676D01*
X-224282Y-73151D02*
X-224282Y-62304D01*
X-224282Y-73151D02*
X-235129Y-62304D01*
X-237840Y-62304D01*
X-240552Y-65016D01*
X-240552Y-70439D01*
X-237840Y-73151D01*
X-226994Y-56779D02*
X-224282Y-56779D01*
X-226994Y-56779D02*
X-226994Y-54068D01*
X-224282Y-54068D01*
X-224282Y-56779D01*
X-226994Y-48593D02*
X-237840Y-48593D01*
X-240552Y-45882D01*
X-240552Y-40459D01*
X-237840Y-37747D01*
X-226994Y-37747D01*
X-224282Y-40459D01*
X-224282Y-45882D01*
X-226994Y-48593D01*
X-237840Y-37747D01*
D13*
X-228600Y203200D02*
X-284480Y259080D01*
D14*
X218055Y286730D02*
X218860Y287535D01*
X218055Y286730D02*
X218055Y285120D01*
X218860Y284315D01*
X222080Y284315D01*
X222885Y285120D01*
X222885Y286730D01*
X222080Y287535D01*
X219665Y289928D02*
X218055Y291538D01*
X222885Y291538D01*
X222885Y289928D02*
X222885Y293149D01*
X219665Y295542D02*
X218055Y297152D01*
X222885Y297152D01*
X222885Y295542D02*
X222885Y298762D01*
X198540Y287535D02*
X197735Y286730D01*
X197735Y285120D01*
X198540Y284315D01*
X201760Y284315D01*
X202565Y285120D01*
X202565Y286730D01*
X201760Y287535D01*
X199345Y289928D02*
X197735Y291538D01*
X202565Y291538D01*
X202565Y289928D02*
X202565Y293149D01*
X202565Y295542D02*
X202565Y298762D01*
X202565Y295542D02*
X199345Y298762D01*
X198540Y298762D01*
X197735Y297957D01*
X197735Y296347D01*
X198540Y295542D01*
X20880Y36581D02*
X19742Y36581D01*
X20880Y36581D02*
X21449Y37150D01*
X21449Y38288D01*
X18603Y41134D01*
X18034Y40565D02*
X19172Y41704D01*
X22003Y42257D02*
X22003Y44534D01*
X25418Y41119D01*
X24280Y39980D02*
X26557Y42257D01*
X-37726Y88519D02*
X-38531Y89324D01*
X-37726Y88519D02*
X-36921Y88519D01*
X-36116Y89324D01*
X-36116Y93349D01*
X-36921Y93349D02*
X-35311Y93349D01*
X-32918Y88519D02*
X-29698Y88519D01*
X-32918Y88519D02*
X-29698Y91739D01*
X-29698Y92544D01*
X-30503Y93349D01*
X-32113Y93349D01*
X-32918Y92544D01*
D15*
X-257737Y167993D02*
X-261978Y163751D01*
X-268696Y170468D02*
X-264453Y174711D01*
X-269049Y170115D02*
X-262332Y163397D01*
X-274143Y203200D02*
X-274129Y204318D01*
X-274088Y205435D01*
X-274020Y206550D01*
X-273924Y207664D01*
X-273800Y208775D01*
X-273650Y209883D01*
X-273472Y210986D01*
X-273268Y212085D01*
X-273036Y213179D01*
X-272778Y214266D01*
X-272493Y215347D01*
X-272182Y216420D01*
X-271844Y217486D01*
X-271481Y218543D01*
X-271091Y219591D01*
X-270676Y220629D01*
X-270236Y221656D01*
X-269770Y222672D01*
X-269280Y223677D01*
X-268765Y224669D01*
X-268226Y225648D01*
X-267664Y226614D01*
X-267077Y227565D01*
X-266468Y228502D01*
X-265835Y229424D01*
X-265180Y230330D01*
X-264504Y231219D01*
X-263805Y232092D01*
X-263086Y232947D01*
X-262345Y233785D01*
X-261584Y234604D01*
X-260804Y235404D01*
X-260004Y236184D01*
X-259185Y236945D01*
X-258347Y237686D01*
X-257492Y238405D01*
X-256619Y239104D01*
X-255730Y239780D01*
X-254824Y240435D01*
X-253902Y241068D01*
X-252965Y241677D01*
X-252014Y242264D01*
X-251048Y242826D01*
X-250069Y243365D01*
X-249077Y243880D01*
X-248072Y244370D01*
X-247056Y244836D01*
X-246029Y245276D01*
X-244991Y245691D01*
X-243943Y246081D01*
X-242886Y246444D01*
X-241820Y246782D01*
X-240747Y247093D01*
X-239666Y247378D01*
X-238579Y247636D01*
X-237485Y247868D01*
X-236386Y248072D01*
X-235283Y248250D01*
X-234175Y248400D01*
X-233064Y248524D01*
X-231950Y248620D01*
X-230835Y248688D01*
X-229718Y248729D01*
X-228600Y248743D01*
X-227482Y248729D01*
X-226365Y248688D01*
X-225250Y248620D01*
X-224136Y248524D01*
X-223025Y248400D01*
X-221917Y248250D01*
X-220814Y248072D01*
X-219715Y247868D01*
X-218621Y247636D01*
X-217534Y247378D01*
X-216453Y247093D01*
X-215380Y246782D01*
X-214314Y246444D01*
X-213257Y246081D01*
X-212209Y245691D01*
X-211171Y245276D01*
X-210144Y244836D01*
X-209128Y244370D01*
X-208123Y243880D01*
X-207131Y243365D01*
X-206152Y242826D01*
X-205186Y242264D01*
X-204235Y241677D01*
X-203298Y241068D01*
X-202376Y240435D01*
X-201470Y239780D01*
X-200581Y239104D01*
X-199708Y238405D01*
X-198853Y237686D01*
X-198015Y236945D01*
X-197196Y236184D01*
X-196396Y235404D01*
X-195616Y234604D01*
X-194855Y233785D01*
X-194114Y232947D01*
X-193395Y232092D01*
X-192696Y231219D01*
X-192020Y230330D01*
X-191365Y229424D01*
X-190732Y228502D01*
X-190123Y227565D01*
X-189536Y226614D01*
X-188974Y225648D01*
X-188435Y224669D01*
X-187920Y223677D01*
X-187430Y222672D01*
X-186964Y221656D01*
X-186524Y220629D01*
X-186109Y219591D01*
X-185719Y218543D01*
X-185356Y217486D01*
X-185018Y216420D01*
X-184707Y215347D01*
X-184422Y214266D01*
X-184164Y213179D01*
X-183932Y212085D01*
X-183728Y210986D01*
X-183550Y209883D01*
X-183400Y208775D01*
X-183276Y207664D01*
X-183180Y206550D01*
X-183112Y205435D01*
X-183071Y204318D01*
X-183057Y203200D01*
X-183071Y202082D01*
X-183112Y200965D01*
X-183180Y199850D01*
X-183276Y198736D01*
X-183400Y197625D01*
X-183550Y196517D01*
X-183728Y195414D01*
X-183932Y194315D01*
X-184164Y193221D01*
X-184422Y192134D01*
X-184707Y191053D01*
X-185018Y189980D01*
X-185356Y188914D01*
X-185719Y187857D01*
X-186109Y186809D01*
X-186524Y185771D01*
X-186964Y184744D01*
X-187430Y183728D01*
X-187920Y182723D01*
X-188435Y181731D01*
X-188974Y180752D01*
X-189536Y179786D01*
X-190123Y178835D01*
X-190732Y177898D01*
X-191365Y176976D01*
X-192020Y176070D01*
X-192696Y175181D01*
X-193395Y174308D01*
X-194114Y173453D01*
X-194855Y172615D01*
X-195616Y171796D01*
X-196396Y170996D01*
X-197196Y170216D01*
X-198015Y169455D01*
X-198853Y168714D01*
X-199708Y167995D01*
X-200581Y167296D01*
X-201470Y166620D01*
X-202376Y165965D01*
X-203298Y165332D01*
X-204235Y164723D01*
X-205186Y164136D01*
X-206152Y163574D01*
X-207131Y163035D01*
X-208123Y162520D01*
X-209128Y162030D01*
X-210144Y161564D01*
X-211171Y161124D01*
X-212209Y160709D01*
X-213257Y160319D01*
X-214314Y159956D01*
X-215380Y159618D01*
X-216453Y159307D01*
X-217534Y159022D01*
X-218621Y158764D01*
X-219715Y158532D01*
X-220814Y158328D01*
X-221917Y158150D01*
X-223025Y158000D01*
X-224136Y157876D01*
X-225250Y157780D01*
X-226365Y157712D01*
X-227482Y157671D01*
X-228600Y157657D01*
X-229718Y157671D01*
X-230835Y157712D01*
X-231950Y157780D01*
X-233064Y157876D01*
X-234175Y158000D01*
X-235283Y158150D01*
X-236386Y158328D01*
X-237485Y158532D01*
X-238579Y158764D01*
X-239666Y159022D01*
X-240747Y159307D01*
X-241820Y159618D01*
X-242886Y159956D01*
X-243943Y160319D01*
X-244991Y160709D01*
X-246029Y161124D01*
X-247056Y161564D01*
X-248072Y162030D01*
X-249077Y162520D01*
X-250069Y163035D01*
X-251048Y163574D01*
X-252014Y164136D01*
X-252965Y164723D01*
X-253902Y165332D01*
X-254824Y165965D01*
X-255730Y166620D01*
X-256619Y167296D01*
X-257492Y167995D01*
X-258347Y168714D01*
X-259185Y169455D01*
X-260004Y170216D01*
X-260804Y170996D01*
X-261584Y171796D01*
X-262345Y172615D01*
X-263086Y173453D01*
X-263805Y174308D01*
X-264504Y175181D01*
X-265180Y176070D01*
X-265835Y176976D01*
X-266468Y177898D01*
X-267077Y178835D01*
X-267664Y179786D01*
X-268226Y180752D01*
X-268765Y181731D01*
X-269280Y182723D01*
X-269770Y183728D01*
X-270236Y184744D01*
X-270676Y185771D01*
X-271091Y186809D01*
X-271481Y187857D01*
X-271844Y188914D01*
X-272182Y189980D01*
X-272493Y191053D01*
X-272778Y192134D01*
X-273036Y193221D01*
X-273268Y194315D01*
X-273472Y195414D01*
X-273650Y196517D01*
X-273800Y197625D01*
X-273924Y198736D01*
X-274020Y199850D01*
X-274088Y200965D01*
X-274129Y202082D01*
X-274143Y203200D01*
D16*
X-178476Y235843D02*
X-175299Y235843D01*
X-174663Y236478D01*
X-174663Y237749D01*
X-175299Y238385D01*
X-178476Y238385D01*
X-174663Y239585D02*
X-174663Y242127D01*
X-174663Y239585D02*
X-177205Y242127D01*
X-177841Y242127D01*
X-178476Y241492D01*
X-178476Y240220D01*
X-177841Y239585D01*
D17*
X246600Y219200D03*
D18*
X213600Y224200D02*
X213600Y230200D01*
X223600Y230200D01*
X233600Y230200D02*
X243600Y230200D01*
X243600Y224200D01*
X243600Y182200D02*
X243600Y176200D01*
X233600Y176200D01*
X223600Y176200D02*
X213600Y176200D01*
X213600Y182200D01*
D14*
X213600Y199200D02*
X213474Y199202D01*
X213349Y199208D01*
X213224Y199218D01*
X213099Y199232D01*
X212974Y199249D01*
X212850Y199271D01*
X212727Y199296D01*
X212605Y199326D01*
X212484Y199359D01*
X212364Y199396D01*
X212245Y199436D01*
X212128Y199481D01*
X212011Y199529D01*
X211897Y199581D01*
X211784Y199636D01*
X211673Y199695D01*
X211564Y199757D01*
X211457Y199823D01*
X211352Y199892D01*
X211249Y199964D01*
X211148Y200039D01*
X211050Y200118D01*
X210955Y200200D01*
X210862Y200284D01*
X210772Y200372D01*
X210684Y200462D01*
X210600Y200555D01*
X210518Y200650D01*
X210439Y200748D01*
X210364Y200849D01*
X210292Y200952D01*
X210223Y201057D01*
X210157Y201164D01*
X210095Y201273D01*
X210036Y201384D01*
X209981Y201497D01*
X209929Y201611D01*
X209881Y201728D01*
X209836Y201845D01*
X209796Y201964D01*
X209759Y202084D01*
X209726Y202205D01*
X209696Y202327D01*
X209671Y202450D01*
X209649Y202574D01*
X209632Y202699D01*
X209618Y202824D01*
X209608Y202949D01*
X209602Y203074D01*
X209600Y203200D01*
X209602Y203326D01*
X209608Y203451D01*
X209618Y203576D01*
X209632Y203701D01*
X209649Y203826D01*
X209671Y203950D01*
X209696Y204073D01*
X209726Y204195D01*
X209759Y204316D01*
X209796Y204436D01*
X209836Y204555D01*
X209881Y204672D01*
X209929Y204789D01*
X209981Y204903D01*
X210036Y205016D01*
X210095Y205127D01*
X210157Y205236D01*
X210223Y205343D01*
X210292Y205448D01*
X210364Y205551D01*
X210439Y205652D01*
X210518Y205750D01*
X210600Y205845D01*
X210684Y205938D01*
X210772Y206028D01*
X210862Y206116D01*
X210955Y206200D01*
X211050Y206282D01*
X211148Y206361D01*
X211249Y206436D01*
X211352Y206508D01*
X211457Y206577D01*
X211564Y206643D01*
X211673Y206705D01*
X211784Y206764D01*
X211897Y206819D01*
X212011Y206871D01*
X212128Y206919D01*
X212245Y206964D01*
X212364Y207004D01*
X212484Y207041D01*
X212605Y207074D01*
X212727Y207104D01*
X212850Y207129D01*
X212974Y207151D01*
X213099Y207168D01*
X213224Y207182D01*
X213349Y207192D01*
X213474Y207198D01*
X213600Y207200D01*
D19*
X210083Y178954D02*
X206270Y178954D01*
X210083Y178954D02*
X210846Y179717D01*
X210846Y181242D01*
X210083Y182005D01*
X206270Y182005D01*
X207795Y183632D02*
X206270Y185157D01*
X210846Y185157D01*
X210846Y183632D02*
X210846Y186682D01*
D14*
X-99695Y160122D02*
X-104525Y160122D01*
X-104525Y162537D01*
X-103720Y163342D01*
X-102110Y163342D01*
X-101305Y162537D01*
X-101305Y160122D01*
X-101305Y161732D02*
X-99695Y163342D01*
X-99695Y165735D02*
X-99695Y168955D01*
X-99695Y165735D02*
X-102915Y168955D01*
X-103720Y168955D01*
X-104525Y168150D01*
X-104525Y166540D01*
X-103720Y165735D01*
X-125095Y160122D02*
X-129925Y160122D01*
X-129925Y162537D01*
X-129120Y163342D01*
X-127510Y163342D01*
X-126705Y162537D01*
X-126705Y160122D01*
X-126705Y161732D02*
X-125095Y163342D01*
X-129120Y165735D02*
X-129925Y166540D01*
X-129925Y168150D01*
X-129120Y168955D01*
X-128315Y168955D01*
X-127510Y168150D01*
X-127510Y167345D01*
X-127510Y168150D02*
X-126705Y168955D01*
X-125900Y168955D01*
X-125095Y168150D01*
X-125095Y166540D01*
X-125900Y165735D01*
X-286384Y254529D02*
X-287523Y254529D01*
X-288661Y253390D01*
X-288661Y252252D01*
X-286384Y249975D01*
X-285246Y249975D01*
X-284107Y251113D01*
X-284107Y252252D01*
X-281846Y253375D02*
X-279569Y255652D01*
X-281846Y253375D02*
X-281846Y257929D01*
X-282415Y258498D01*
X-283554Y258498D01*
X-284692Y257359D01*
X-284692Y256221D01*
X-280154Y259621D02*
X-280154Y261898D01*
X-276738Y258482D01*
X-277877Y257344D02*
X-275600Y259621D01*
X-272283Y239289D02*
X-271144Y239289D01*
X-272283Y239289D02*
X-273421Y238150D01*
X-273421Y237012D01*
X-271144Y234735D01*
X-270006Y234735D01*
X-268867Y235873D01*
X-268867Y237012D01*
X-266606Y238135D02*
X-264329Y240412D01*
X-266606Y238135D02*
X-266606Y242689D01*
X-267175Y243258D01*
X-268314Y243258D01*
X-269452Y242119D01*
X-269452Y240981D01*
X-262637Y242104D02*
X-260360Y244381D01*
X-262637Y242104D02*
X-262637Y246658D01*
X-263206Y247227D01*
X-264344Y247227D01*
X-265483Y246088D01*
X-265483Y244950D01*
D20*
X-256540Y-152819D03*
D21*
X-256963Y-152616D03*
D22*
X-257387Y-152819D03*
D23*
X-257810Y-152819D03*
D24*
X-258233Y-164249D03*
X-258233Y-141389D03*
D25*
X-258657Y-165532D03*
D26*
X-258657Y-139916D03*
D27*
X-259080Y-168059D03*
D28*
X-259080Y-137160D03*
D29*
X-259503Y-169113D03*
X-259503Y-136525D03*
D30*
X-259927Y-171031D03*
D31*
X-259927Y-134404D03*
D32*
X-260350Y-171666D03*
X-260350Y-133566D03*
D33*
X-260773Y-173558D03*
D31*
X-260773Y-131864D03*
X-261197Y-174206D03*
D34*
X-261197Y-149441D03*
D33*
X-261197Y-131242D03*
D35*
X-261620Y-175692D03*
D36*
X-261620Y-161087D03*
D37*
X-261620Y-149225D03*
D38*
X-261620Y-129756D03*
D39*
X-262043Y-176314D03*
X-262043Y-161074D03*
D40*
X-262043Y-149441D03*
D41*
X-262043Y-128905D03*
D39*
X-262467Y-177584D03*
D42*
X-262467Y-161925D03*
D43*
X-262467Y-151333D03*
D41*
X-262467Y-127635D03*
D44*
X-262890Y-178219D03*
X-262890Y-162979D03*
D45*
X-262890Y-151549D03*
D38*
X-262890Y-127216D03*
D34*
X-263313Y-179489D03*
D46*
X-263313Y-163614D03*
D47*
X-263313Y-151765D03*
D33*
X-263313Y-137592D03*
D39*
X-263313Y-125946D03*
D34*
X-263737Y-179921D03*
D48*
X-263737Y-163830D03*
D49*
X-263737Y-151981D03*
D30*
X-263737Y-137579D03*
D34*
X-263737Y-125311D03*
D44*
X-264160Y-181191D03*
D50*
X-264160Y-164046D03*
D45*
X-264160Y-151981D03*
D51*
X-264160Y-137376D03*
D52*
X-264160Y-124460D03*
D53*
X-264583Y-181610D03*
D49*
X-264583Y-164249D03*
D46*
X-264583Y-152184D03*
D43*
X-264583Y-139497D03*
D47*
X-264583Y-135255D03*
D34*
X-264583Y-123609D03*
D43*
X-265007Y-182677D03*
D49*
X-265007Y-164249D03*
D46*
X-265007Y-152184D03*
X-265007Y-139916D03*
D34*
X-265007Y-122771D03*
D36*
X-265430Y-183083D03*
D45*
X-265430Y-164249D03*
D50*
X-265430Y-152184D03*
D45*
X-265430Y-140119D03*
D44*
X-265430Y-122339D03*
D43*
X-265853Y-183947D03*
D42*
X-265853Y-173355D03*
D49*
X-265853Y-164249D03*
D46*
X-265853Y-152184D03*
D49*
X-265853Y-140119D03*
D43*
X-265853Y-121285D03*
X-266277Y-184353D03*
D29*
X-266277Y-173355D03*
D46*
X-266277Y-164046D03*
D49*
X-266277Y-151981D03*
X-266277Y-140551D03*
D43*
X-266277Y-120853D03*
D36*
X-266700Y-185217D03*
X-266700Y-175895D03*
X-266700Y-171653D03*
D54*
X-266700Y-163830D03*
D55*
X-266700Y-151765D03*
D45*
X-266700Y-140551D03*
D56*
X-266700Y-128054D03*
D36*
X-266700Y-120015D03*
D49*
X-267123Y-185839D03*
D43*
X-267123Y-176327D03*
X-267123Y-171247D03*
D48*
X-267123Y-163830D03*
D47*
X-267123Y-151765D03*
D46*
X-267123Y-140754D03*
D57*
X-267123Y-127838D03*
D43*
X-267123Y-119583D03*
D48*
X-267547Y-186690D03*
D43*
X-267547Y-176733D03*
X-267547Y-170815D03*
D46*
X-267547Y-163614D03*
D58*
X-267547Y-158966D03*
D46*
X-267547Y-151346D03*
X-267547Y-147536D03*
X-267547Y-140754D03*
X-267547Y-127216D03*
D43*
X-267547Y-118745D03*
D45*
X-267970Y-187109D03*
D36*
X-267970Y-176733D03*
D45*
X-267970Y-170599D03*
X-267970Y-163411D03*
D59*
X-267970Y-158750D03*
D54*
X-267970Y-151130D03*
D50*
X-267970Y-147536D03*
X-267970Y-140754D03*
X-267970Y-127216D03*
D36*
X-267970Y-118313D03*
D43*
X-268393Y-187757D03*
D46*
X-268393Y-176314D03*
X-268393Y-170396D03*
D43*
X-268393Y-162763D03*
D49*
X-268393Y-159169D03*
D30*
X-268393Y-149009D03*
D46*
X-268393Y-140754D03*
X-268393Y-127216D03*
D43*
X-268393Y-117475D03*
D49*
X-268817Y-188379D03*
X-268817Y-176111D03*
D46*
X-268817Y-170396D03*
D40*
X-268817Y-160871D03*
D33*
X-268817Y-149022D03*
D47*
X-268817Y-140335D03*
D57*
X-268817Y-127432D03*
D43*
X-268817Y-117043D03*
D45*
X-269240Y-188811D03*
X-269240Y-175679D03*
D50*
X-269240Y-170396D03*
D35*
X-269240Y-160858D03*
D59*
X-269240Y-140132D03*
D50*
X-269240Y-127216D03*
D59*
X-269240Y-123622D03*
D45*
X-269240Y-116421D03*
D43*
X-269663Y-189433D03*
D46*
X-269663Y-175476D03*
X-269663Y-170396D03*
D43*
X-269663Y-161087D03*
D46*
X-269663Y-139916D03*
D58*
X-269663Y-136106D03*
D46*
X-269663Y-127216D03*
D49*
X-269663Y-123609D03*
X-269663Y-115989D03*
X-270087Y-190081D03*
D48*
X-270087Y-175260D03*
D46*
X-270087Y-170396D03*
D30*
X-270087Y-138011D03*
D46*
X-270087Y-127216D03*
D39*
X-270087Y-123406D03*
D49*
X-270087Y-115151D03*
D54*
X-270510Y-190500D03*
X-270510Y-175260D03*
D50*
X-270510Y-170396D03*
D60*
X-270510Y-137795D03*
D59*
X-270510Y-127000D03*
D35*
X-270510Y-123622D03*
D36*
X-270510Y-114935D03*
D49*
X-270933Y-190919D03*
D57*
X-270933Y-183718D03*
D49*
X-270933Y-174841D03*
D46*
X-270933Y-170396D03*
D43*
X-270933Y-137363D03*
D29*
X-270933Y-125095D03*
D48*
X-270933Y-114300D03*
D49*
X-271357Y-191351D03*
D46*
X-271357Y-183934D03*
D47*
X-271357Y-174625D03*
D46*
X-271357Y-170396D03*
D57*
X-271357Y-137160D03*
D61*
X-271357Y-125730D03*
D49*
X-271357Y-113881D03*
D45*
X-271780Y-192189D03*
D36*
X-271780Y-184353D03*
D45*
X-271780Y-174409D03*
D50*
X-271780Y-171234D03*
D35*
X-271780Y-126568D03*
D45*
X-271780Y-113449D03*
D49*
X-272203Y-192621D03*
D43*
X-272203Y-184353D03*
X-272203Y-174193D03*
D46*
X-272203Y-171234D03*
D31*
X-272203Y-127216D03*
D46*
X-272203Y-112814D03*
D48*
X-272627Y-193040D03*
D53*
X-272627Y-184150D03*
D33*
X-272627Y-173152D03*
D62*
X-272627Y-152400D03*
D29*
X-272627Y-128473D03*
D49*
X-272627Y-112179D03*
D45*
X-273050Y-193459D03*
D36*
X-273050Y-183515D03*
D63*
X-273050Y-173355D03*
D64*
X-273050Y-152616D03*
D27*
X-273050Y-128689D03*
D50*
X-273050Y-111976D03*
D49*
X-273473Y-193891D03*
X-273473Y-183299D03*
D48*
X-273473Y-173990D03*
D65*
X-273473Y-152603D03*
D39*
X-273473Y-129756D03*
D57*
X-273473Y-126568D03*
D49*
X-273473Y-111341D03*
D48*
X-273897Y-194310D03*
D47*
X-273897Y-187325D03*
D48*
X-273897Y-182880D03*
D46*
X-273897Y-174206D03*
D66*
X-273897Y-152616D03*
D43*
X-273897Y-130175D03*
D47*
X-273897Y-126365D03*
X-273897Y-111125D03*
D45*
X-274320Y-194729D03*
D36*
X-274320Y-186893D03*
X-274320Y-182677D03*
D28*
X-274320Y-163830D03*
D50*
X-274320Y-154724D03*
D37*
X-274320Y-150495D03*
D28*
X-274320Y-140970D03*
D59*
X-274320Y-129540D03*
D55*
X-274320Y-126365D03*
D56*
X-274320Y-116624D03*
D54*
X-274320Y-110490D03*
D49*
X-274743Y-195161D03*
D53*
X-274743Y-186690D03*
D49*
X-274743Y-182461D03*
D61*
X-274743Y-165100D03*
D57*
X-274743Y-154508D03*
D31*
X-274743Y-149644D03*
D67*
X-274743Y-140754D03*
D68*
X-274743Y-129540D03*
D47*
X-274743Y-126365D03*
D57*
X-274743Y-116408D03*
D46*
X-274743Y-110274D03*
X-275167Y-195796D03*
D41*
X-275167Y-186055D03*
D49*
X-275167Y-182029D03*
D42*
X-275167Y-167005D03*
D57*
X-275167Y-154508D03*
D34*
X-275167Y-148171D03*
D39*
X-275167Y-143294D03*
D31*
X-275167Y-138214D03*
D49*
X-275167Y-126581D03*
D47*
X-275167Y-116205D03*
D49*
X-275167Y-109639D03*
D45*
X-275590Y-195999D03*
D35*
X-275590Y-185852D03*
D36*
X-275590Y-181813D03*
D35*
X-275590Y-167640D03*
D55*
X-275590Y-154305D03*
D69*
X-275590Y-145415D03*
D35*
X-275590Y-137592D03*
D45*
X-275590Y-126581D03*
X-275590Y-115989D03*
D50*
X-275590Y-109436D03*
D46*
X-276013Y-196634D03*
D57*
X-276013Y-190068D03*
D70*
X-276013Y-184150D03*
D31*
X-276013Y-169126D03*
D47*
X-276013Y-154305D03*
D67*
X-276013Y-144996D03*
D33*
X-276013Y-135890D03*
D47*
X-276013Y-126365D03*
D34*
X-276013Y-115989D03*
D49*
X-276013Y-108801D03*
D48*
X-276437Y-196850D03*
D49*
X-276437Y-190081D03*
D46*
X-276437Y-186474D03*
D40*
X-276437Y-182029D03*
D33*
X-276437Y-169748D03*
D47*
X-276437Y-154305D03*
D29*
X-276437Y-144983D03*
D41*
X-276437Y-135255D03*
D57*
X-276437Y-126162D03*
D41*
X-276437Y-116205D03*
D47*
X-276437Y-108585D03*
D45*
X-276860Y-197269D03*
D36*
X-276860Y-190297D03*
D50*
X-276860Y-186474D03*
D71*
X-276860Y-181610D03*
D35*
X-276860Y-171018D03*
D59*
X-276860Y-154102D03*
D50*
X-276860Y-145834D03*
D63*
X-276860Y-133985D03*
D36*
X-276860Y-117043D03*
D50*
X-276860Y-108166D03*
D47*
X-277283Y-197485D03*
D43*
X-277283Y-190297D03*
D46*
X-277283Y-186474D03*
D33*
X-277283Y-181610D03*
X-277283Y-171450D03*
D57*
X-277283Y-154102D03*
D46*
X-277283Y-145834D03*
D53*
X-277283Y-133350D03*
D43*
X-277283Y-117475D03*
D46*
X-277283Y-107734D03*
X-277707Y-197904D03*
D48*
X-277707Y-189230D03*
D49*
X-277707Y-186271D03*
X-277707Y-181191D03*
D39*
X-277707Y-172504D03*
D57*
X-277707Y-154102D03*
D46*
X-277707Y-146266D03*
D53*
X-277707Y-132080D03*
D49*
X-277707Y-117691D03*
D47*
X-277707Y-107315D03*
D50*
X-278130Y-198336D03*
X-278130Y-189014D03*
D45*
X-278130Y-186271D03*
D59*
X-278130Y-181178D03*
D35*
X-278130Y-173152D03*
D59*
X-278130Y-154102D03*
D55*
X-278130Y-146685D03*
D44*
X-278130Y-131661D03*
D54*
X-278130Y-118110D03*
D50*
X-278130Y-106896D03*
D47*
X-278553Y-198755D03*
D30*
X-278553Y-187109D03*
D33*
X-278553Y-173990D03*
D57*
X-278553Y-153670D03*
X-278553Y-146888D03*
D43*
X-278553Y-130607D03*
D49*
X-278553Y-118529D03*
D46*
X-278553Y-106464D03*
X-278977Y-199174D03*
D31*
X-278977Y-186906D03*
D33*
X-278977Y-174422D03*
D57*
X-278977Y-153670D03*
D46*
X-278977Y-147104D03*
D43*
X-278977Y-130175D03*
D49*
X-278977Y-118961D03*
X-278977Y-106261D03*
D54*
X-279400Y-199390D03*
D35*
X-279400Y-186690D03*
X-279400Y-175260D03*
D59*
X-279400Y-153670D03*
X-279400Y-147320D03*
D36*
X-279400Y-129337D03*
D52*
X-279400Y-119380D03*
D55*
X-279400Y-106045D03*
D49*
X-279823Y-199809D03*
D39*
X-279823Y-186474D03*
D33*
X-279823Y-175692D03*
D46*
X-279823Y-153454D03*
D57*
X-279823Y-147320D03*
D34*
X-279823Y-128689D03*
X-279823Y-119799D03*
D46*
X-279823Y-105626D03*
D47*
X-280247Y-200025D03*
D34*
X-280247Y-186271D03*
D33*
X-280247Y-176530D03*
D46*
X-280247Y-153454D03*
D33*
X-280247Y-146050D03*
D49*
X-280247Y-127851D03*
D43*
X-280247Y-120015D03*
D46*
X-280247Y-105194D03*
D50*
X-280670Y-200444D03*
D36*
X-280670Y-186055D03*
D35*
X-280670Y-176962D03*
D50*
X-280670Y-153454D03*
D72*
X-280670Y-145199D03*
D45*
X-280670Y-127419D03*
X-280670Y-120231D03*
D55*
X-280670Y-104775D03*
D46*
X-281093Y-200876D03*
D43*
X-281093Y-186055D03*
D31*
X-281093Y-177584D03*
D57*
X-281093Y-153238D03*
D25*
X-281093Y-144348D03*
D43*
X-281093Y-126797D03*
D46*
X-281093Y-119596D03*
X-281093Y-104356D03*
X-281517Y-200876D03*
D49*
X-281517Y-185839D03*
D31*
X-281517Y-178016D03*
D57*
X-281517Y-153238D03*
D24*
X-281517Y-143929D03*
D49*
X-281517Y-126149D03*
D58*
X-281517Y-119596D03*
D46*
X-281517Y-104356D03*
D55*
X-281940Y-201295D03*
D59*
X-281940Y-186258D03*
D60*
X-281940Y-178435D03*
D59*
X-281940Y-153238D03*
X-281940Y-146888D03*
D35*
X-281940Y-140970D03*
D36*
X-281940Y-125527D03*
D50*
X-281940Y-103924D03*
D46*
X-282363Y-201714D03*
D57*
X-282363Y-186258D03*
D49*
X-282363Y-179921D03*
D46*
X-282363Y-177584D03*
D73*
X-282363Y-153035D03*
D58*
X-282363Y-147104D03*
D41*
X-282363Y-140335D03*
D43*
X-282363Y-125095D03*
D47*
X-282363Y-103505D03*
D46*
X-282787Y-202146D03*
D49*
X-282787Y-180759D03*
D46*
X-282787Y-178016D03*
D57*
X-282787Y-152832D03*
X-282787Y-146888D03*
D34*
X-282787Y-139281D03*
D48*
X-282787Y-124460D03*
D47*
X-282787Y-103505D03*
D50*
X-283210Y-202146D03*
D36*
X-283210Y-180975D03*
D50*
X-283210Y-178016D03*
D59*
X-283210Y-152832D03*
X-283210Y-146888D03*
D36*
X-283210Y-138633D03*
D45*
X-283210Y-124041D03*
D50*
X-283210Y-103086D03*
D47*
X-283633Y-202565D03*
D43*
X-283633Y-181407D03*
D47*
X-283633Y-178435D03*
D57*
X-283633Y-152832D03*
X-283633Y-146888D03*
D49*
X-283633Y-138011D03*
X-283633Y-123609D03*
D46*
X-283633Y-102654D03*
D57*
X-284057Y-202768D03*
D29*
X-284057Y-180543D03*
D46*
X-284057Y-152616D03*
D57*
X-284057Y-146888D03*
D49*
X-284057Y-137579D03*
D48*
X-284057Y-123190D03*
D46*
X-284057Y-102654D03*
D59*
X-284480Y-203200D03*
D27*
X-284480Y-180759D03*
D50*
X-284480Y-152616D03*
D59*
X-284480Y-146888D03*
D50*
X-284480Y-137376D03*
D45*
X-284480Y-122339D03*
D55*
X-284480Y-102235D03*
D46*
X-284903Y-203416D03*
X-284903Y-183096D03*
D41*
X-284903Y-179705D03*
D46*
X-284903Y-152616D03*
D57*
X-284903Y-146888D03*
X-284903Y-137160D03*
D46*
X-284903Y-122136D03*
X-284903Y-101816D03*
D57*
X-285327Y-203632D03*
D47*
X-285327Y-183515D03*
D24*
X-285327Y-176949D03*
D46*
X-285327Y-152616D03*
D57*
X-285327Y-146888D03*
X-285327Y-137160D03*
D49*
X-285327Y-121501D03*
D46*
X-285327Y-101816D03*
D55*
X-285750Y-203835D03*
D50*
X-285750Y-183934D03*
D74*
X-285750Y-176314D03*
D59*
X-285750Y-152400D03*
X-285750Y-146888D03*
X-285750Y-136728D03*
D55*
X-285750Y-121285D03*
D50*
X-285750Y-101384D03*
D46*
X-286173Y-204254D03*
X-286173Y-184366D03*
D75*
X-286173Y-175057D03*
D57*
X-286173Y-152400D03*
X-286173Y-146888D03*
X-286173Y-136728D03*
D48*
X-286173Y-120650D03*
D47*
X-286173Y-100965D03*
D46*
X-286597Y-204254D03*
D47*
X-286597Y-184785D03*
D49*
X-286597Y-178651D03*
D25*
X-286597Y-172288D03*
D57*
X-286597Y-152400D03*
X-286597Y-146888D03*
X-286597Y-136728D03*
D46*
X-286597Y-120434D03*
D47*
X-286597Y-100965D03*
D50*
X-287020Y-204686D03*
X-287020Y-185204D03*
D55*
X-287020Y-178435D03*
D72*
X-287020Y-169761D03*
D56*
X-287020Y-152184D03*
D59*
X-287020Y-146888D03*
X-287020Y-136728D03*
D55*
X-287020Y-120015D03*
D50*
X-287020Y-100546D03*
D47*
X-287443Y-205105D03*
D46*
X-287443Y-185636D03*
D49*
X-287443Y-178219D03*
D31*
X-287443Y-169126D03*
D57*
X-287443Y-151968D03*
X-287443Y-146888D03*
X-287443Y-136728D03*
D46*
X-287443Y-119596D03*
D57*
X-287443Y-100330D03*
D47*
X-287867Y-205105D03*
D49*
X-287867Y-185839D03*
D34*
X-287867Y-178219D03*
D39*
X-287867Y-167424D03*
D57*
X-287867Y-151968D03*
X-287867Y-146888D03*
X-287867Y-136728D03*
D46*
X-287867Y-119164D03*
X-287867Y-100114D03*
D59*
X-288290Y-205308D03*
D45*
X-288290Y-186271D03*
D35*
X-288290Y-178232D03*
D44*
X-288290Y-166789D03*
D59*
X-288290Y-151968D03*
X-288290Y-146888D03*
X-288290Y-136728D03*
D55*
X-288290Y-118745D03*
D50*
X-288290Y-100114D03*
D57*
X-288713Y-205740D03*
D46*
X-288713Y-186474D03*
D49*
X-288713Y-179489D03*
X-288713Y-176949D03*
D34*
X-288713Y-165519D03*
D47*
X-288713Y-151765D03*
D57*
X-288713Y-146888D03*
X-288713Y-136728D03*
D49*
X-288713Y-118529D03*
D47*
X-288713Y-99695D03*
D46*
X-289137Y-205956D03*
X-289137Y-186906D03*
D47*
X-289137Y-179705D03*
D48*
X-289137Y-176530D03*
D53*
X-289137Y-165100D03*
D47*
X-289137Y-151765D03*
D57*
X-289137Y-146888D03*
X-289137Y-136728D03*
D48*
X-289137Y-118110D03*
D46*
X-289137Y-99276D03*
D50*
X-289560Y-205956D03*
D55*
X-289560Y-187325D03*
D54*
X-289560Y-180340D03*
D50*
X-289560Y-176314D03*
D36*
X-289560Y-164033D03*
D55*
X-289560Y-151765D03*
X-289560Y-146685D03*
D59*
X-289560Y-136728D03*
D50*
X-289560Y-117894D03*
X-289560Y-99276D03*
D57*
X-289983Y-206172D03*
D46*
X-289983Y-187744D03*
X-289983Y-180556D03*
D47*
X-289983Y-175895D03*
D43*
X-289983Y-163627D03*
D47*
X-289983Y-151765D03*
X-289983Y-146685D03*
D57*
X-289983Y-136728D03*
D47*
X-289983Y-117475D03*
D57*
X-289983Y-99060D03*
X-290407Y-206578D03*
D46*
X-290407Y-188176D03*
D47*
X-290407Y-180975D03*
D46*
X-290407Y-175476D03*
D49*
X-290407Y-162979D03*
D57*
X-290407Y-151562D03*
D47*
X-290407Y-146685D03*
D49*
X-290407Y-136309D03*
D46*
X-290407Y-117056D03*
D47*
X-290407Y-107315D03*
D46*
X-290407Y-98844D03*
D50*
X-290830Y-206794D03*
X-290830Y-188176D03*
X-290830Y-181394D03*
X-290830Y-175044D03*
D36*
X-290830Y-162357D03*
D59*
X-290830Y-151562D03*
D55*
X-290830Y-146685D03*
D36*
X-290830Y-136093D03*
D50*
X-290830Y-117056D03*
D36*
X-290830Y-107315D03*
D55*
X-290830Y-98425D03*
D46*
X-291253Y-206794D03*
D57*
X-291253Y-198552D03*
D47*
X-291253Y-188595D03*
D46*
X-291253Y-181826D03*
D47*
X-291253Y-174625D03*
D49*
X-291253Y-161709D03*
D57*
X-291253Y-151562D03*
D47*
X-291253Y-146685D03*
D39*
X-291253Y-135674D03*
D46*
X-291253Y-116624D03*
D34*
X-291253Y-107099D03*
D47*
X-291253Y-98425D03*
D57*
X-291677Y-207010D03*
D43*
X-291677Y-198755D03*
D46*
X-291677Y-189014D03*
D47*
X-291677Y-182245D03*
D49*
X-291677Y-174409D03*
D48*
X-291677Y-161290D03*
D58*
X-291677Y-151346D03*
D47*
X-291677Y-146685D03*
D42*
X-291677Y-135255D03*
D47*
X-291677Y-116205D03*
D41*
X-291677Y-107315D03*
D57*
X-291677Y-98222D03*
D59*
X-292100Y-207442D03*
D44*
X-292100Y-198539D03*
D50*
X-292100Y-189014D03*
D55*
X-292100Y-182245D03*
D54*
X-292100Y-173990D03*
D45*
X-292100Y-160871D03*
D59*
X-292100Y-151130D03*
D55*
X-292100Y-146685D03*
D59*
X-292100Y-136728D03*
D44*
X-292100Y-133769D03*
D50*
X-292100Y-115786D03*
D44*
X-292100Y-107099D03*
D50*
X-292100Y-98006D03*
D47*
X-292523Y-207645D03*
D34*
X-292523Y-198539D03*
D46*
X-292523Y-189446D03*
X-292523Y-182664D03*
X-292523Y-173774D03*
D49*
X-292523Y-160439D03*
D57*
X-292523Y-151130D03*
D47*
X-292523Y-146685D03*
D58*
X-292523Y-136944D03*
D48*
X-292523Y-133350D03*
D57*
X-292523Y-115570D03*
D43*
X-292523Y-107315D03*
D57*
X-292523Y-97790D03*
D47*
X-292947Y-207645D03*
D34*
X-292947Y-198539D03*
D47*
X-292947Y-189865D03*
D46*
X-292947Y-183096D03*
D47*
X-292947Y-173355D03*
D48*
X-292947Y-160020D03*
D57*
X-292947Y-151130D03*
D47*
X-292947Y-146685D03*
D58*
X-292947Y-136944D03*
D47*
X-292947Y-132715D03*
D46*
X-292947Y-115354D03*
D43*
X-292947Y-107315D03*
D46*
X-292947Y-97574D03*
D59*
X-293370Y-207848D03*
D44*
X-293370Y-198539D03*
D55*
X-293370Y-189865D03*
D50*
X-293370Y-183096D03*
X-293370Y-172936D03*
D45*
X-293370Y-159601D03*
D50*
X-293370Y-150914D03*
D55*
X-293370Y-146685D03*
D59*
X-293370Y-136728D03*
X-293370Y-132512D03*
X-293370Y-115138D03*
D55*
X-293370Y-107315D03*
D50*
X-293370Y-97574D03*
D57*
X-293793Y-208280D03*
D49*
X-293793Y-198539D03*
D46*
X-293793Y-190284D03*
D47*
X-293793Y-183515D03*
D46*
X-293793Y-172504D03*
D49*
X-293793Y-159169D03*
D46*
X-293793Y-150914D03*
D47*
X-293793Y-146685D03*
D57*
X-293793Y-136728D03*
X-293793Y-132512D03*
X-293793Y-114732D03*
X-293793Y-97358D03*
X-294217Y-208280D03*
X-294217Y-198552D03*
D46*
X-294217Y-190716D03*
X-294217Y-183934D03*
D47*
X-294217Y-172085D03*
D48*
X-294217Y-158750D03*
D46*
X-294217Y-150914D03*
D47*
X-294217Y-146685D03*
D57*
X-294217Y-136728D03*
X-294217Y-132512D03*
D46*
X-294217Y-114516D03*
D57*
X-294217Y-96952D03*
D50*
X-294640Y-208496D03*
X-294640Y-190716D03*
D59*
X-294640Y-184150D03*
D50*
X-294640Y-171666D03*
X-294640Y-158534D03*
X-294640Y-150914D03*
D55*
X-294640Y-146685D03*
D56*
X-294640Y-136944D03*
D76*
X-294640Y-132715D03*
D59*
X-294640Y-114300D03*
D50*
X-294640Y-96736D03*
D46*
X-295063Y-208496D03*
D47*
X-295063Y-191135D03*
D46*
X-295063Y-184366D03*
D48*
X-295063Y-171450D03*
D47*
X-295063Y-158115D03*
D46*
X-295063Y-150914D03*
D47*
X-295063Y-146685D03*
D58*
X-295063Y-136944D03*
D73*
X-295063Y-132715D03*
D46*
X-295063Y-114084D03*
X-295063Y-96736D03*
D57*
X-295487Y-208712D03*
X-295487Y-191338D03*
D47*
X-295487Y-184785D03*
D49*
X-295487Y-171031D03*
D46*
X-295487Y-157696D03*
D57*
X-295487Y-150698D03*
D47*
X-295487Y-146685D03*
D58*
X-295487Y-136944D03*
D57*
X-295487Y-132918D03*
D47*
X-295487Y-113665D03*
D57*
X-295487Y-96520D03*
D59*
X-295910Y-209118D03*
D50*
X-295910Y-191554D03*
D59*
X-295910Y-184988D03*
D55*
X-295910Y-170815D03*
D50*
X-295910Y-157264D03*
D59*
X-295910Y-150698D03*
D55*
X-295910Y-146685D03*
D56*
X-295910Y-136944D03*
D59*
X-295910Y-132918D03*
D55*
X-295910Y-113665D03*
D59*
X-295910Y-96520D03*
D57*
X-296333Y-209118D03*
X-296333Y-191770D03*
X-296333Y-185420D03*
D46*
X-296333Y-170396D03*
D57*
X-296333Y-157048D03*
X-296333Y-150698D03*
D47*
X-296333Y-146685D03*
D58*
X-296333Y-136944D03*
D57*
X-296333Y-132918D03*
X-296333Y-113462D03*
X-296333Y-96088D03*
D46*
X-296757Y-209334D03*
X-296757Y-191986D03*
X-296757Y-185636D03*
X-296757Y-169964D03*
D47*
X-296757Y-156845D03*
D57*
X-296757Y-150698D03*
D47*
X-296757Y-146685D03*
D58*
X-296757Y-136944D03*
D57*
X-296757Y-132918D03*
X-296757Y-113030D03*
X-296757Y-96088D03*
D50*
X-297180Y-209334D03*
D55*
X-297180Y-192405D03*
D50*
X-297180Y-185636D03*
D55*
X-297180Y-169545D03*
D59*
X-297180Y-156642D03*
D76*
X-297180Y-150495D03*
D55*
X-297180Y-146685D03*
D56*
X-297180Y-136944D03*
D59*
X-297180Y-132918D03*
D50*
X-297180Y-112814D03*
D55*
X-297180Y-95885D03*
D57*
X-297603Y-209550D03*
D47*
X-297603Y-192405D03*
X-297603Y-186055D03*
D49*
X-297603Y-169329D03*
D46*
X-297603Y-156426D03*
D57*
X-297603Y-150292D03*
X-297603Y-146482D03*
D58*
X-297603Y-136944D03*
D57*
X-297603Y-132918D03*
D46*
X-297603Y-112814D03*
D47*
X-297603Y-95885D03*
D57*
X-298027Y-209550D03*
X-298027Y-192608D03*
D46*
X-298027Y-186474D03*
X-298027Y-168694D03*
X-298027Y-155994D03*
D57*
X-298027Y-150292D03*
X-298027Y-146482D03*
D58*
X-298027Y-136944D03*
D46*
X-298027Y-133134D03*
D57*
X-298027Y-112598D03*
X-298027Y-95682D03*
D59*
X-298450Y-209982D03*
D50*
X-298450Y-192824D03*
X-298450Y-186474D03*
X-298450Y-168694D03*
X-298450Y-155994D03*
D59*
X-298450Y-150292D03*
X-298450Y-146482D03*
D56*
X-298450Y-136944D03*
D50*
X-298450Y-133134D03*
D59*
X-298450Y-112192D03*
X-298450Y-95682D03*
D57*
X-298873Y-209982D03*
X-298873Y-193040D03*
X-298873Y-186690D03*
D49*
X-298873Y-168059D03*
D57*
X-298873Y-155778D03*
X-298873Y-150292D03*
X-298873Y-146482D03*
D58*
X-298873Y-136944D03*
D46*
X-298873Y-133134D03*
X-298873Y-111976D03*
D57*
X-298873Y-95250D03*
D47*
X-299297Y-210185D03*
D46*
X-299297Y-193256D03*
D57*
X-299297Y-187122D03*
D46*
X-299297Y-167856D03*
D57*
X-299297Y-155372D03*
D46*
X-299297Y-150076D03*
D57*
X-299297Y-146482D03*
D58*
X-299297Y-136944D03*
D46*
X-299297Y-133134D03*
X-299297Y-111976D03*
D57*
X-299297Y-95250D03*
D55*
X-299720Y-210185D03*
D50*
X-299720Y-193256D03*
D55*
X-299720Y-187325D03*
D50*
X-299720Y-167424D03*
X-299720Y-155156D03*
X-299720Y-150076D03*
D59*
X-299720Y-146482D03*
D56*
X-299720Y-136944D03*
D50*
X-299720Y-133134D03*
D59*
X-299720Y-111760D03*
D50*
X-299720Y-95034D03*
D57*
X-300143Y-210388D03*
X-300143Y-193472D03*
D47*
X-300143Y-187325D03*
X-300143Y-167005D03*
D46*
X-300143Y-155156D03*
X-300143Y-150076D03*
D57*
X-300143Y-146482D03*
D58*
X-300143Y-136944D03*
D46*
X-300143Y-133134D03*
X-300143Y-111544D03*
X-300143Y-95034D03*
D57*
X-300567Y-210388D03*
X-300567Y-193878D03*
X-300567Y-187528D03*
X-300567Y-166802D03*
X-300567Y-154940D03*
D46*
X-300567Y-150076D03*
D57*
X-300567Y-146482D03*
D58*
X-300567Y-136944D03*
D46*
X-300567Y-133134D03*
D57*
X-300567Y-111328D03*
X-300567Y-94818D03*
D59*
X-300990Y-210820D03*
D50*
X-300990Y-194094D03*
X-300990Y-187744D03*
D59*
X-300990Y-166370D03*
D50*
X-300990Y-154724D03*
X-300990Y-150076D03*
D59*
X-300990Y-146482D03*
D56*
X-300990Y-136944D03*
D50*
X-300990Y-133134D03*
D55*
X-300990Y-111125D03*
D59*
X-300990Y-94818D03*
D57*
X-301413Y-210820D03*
D46*
X-301413Y-194094D03*
D57*
X-301413Y-187960D03*
X-301413Y-166370D03*
X-301413Y-154508D03*
X-301413Y-149860D03*
X-301413Y-146482D03*
X-301413Y-137160D03*
X-301413Y-133350D03*
D47*
X-301413Y-111125D03*
D57*
X-301413Y-94412D03*
X-301837Y-210820D03*
D46*
X-301837Y-194094D03*
X-301837Y-188176D03*
X-301837Y-166154D03*
D47*
X-301837Y-154305D03*
D57*
X-301837Y-149860D03*
X-301837Y-146482D03*
X-301837Y-137160D03*
X-301837Y-133350D03*
X-301837Y-110922D03*
X-301837Y-94412D03*
D50*
X-302260Y-211036D03*
D59*
X-302260Y-194310D03*
D50*
X-302260Y-188176D03*
X-302260Y-166154D03*
D55*
X-302260Y-154305D03*
D59*
X-302260Y-149860D03*
X-302260Y-146482D03*
X-302260Y-137160D03*
X-302260Y-133350D03*
D50*
X-302260Y-110706D03*
D59*
X-302260Y-94412D03*
D46*
X-302683Y-211036D03*
D57*
X-302683Y-194742D03*
D46*
X-302683Y-188176D03*
D57*
X-302683Y-165938D03*
X-302683Y-154102D03*
X-302683Y-149860D03*
X-302683Y-146482D03*
X-302683Y-137160D03*
X-302683Y-133350D03*
X-302683Y-110490D03*
D46*
X-302683Y-94196D03*
X-303107Y-211036D03*
D57*
X-303107Y-194742D03*
X-303107Y-188392D03*
X-303107Y-165938D03*
X-303107Y-154102D03*
X-303107Y-149860D03*
X-303107Y-146482D03*
X-303107Y-137160D03*
X-303107Y-133350D03*
D46*
X-303107Y-110274D03*
X-303107Y-94196D03*
D59*
X-303530Y-211252D03*
D55*
X-303530Y-194945D03*
D59*
X-303530Y-188392D03*
X-303530Y-165938D03*
X-303530Y-153670D03*
D56*
X-303530Y-149644D03*
D59*
X-303530Y-146482D03*
X-303530Y-137160D03*
X-303530Y-133350D03*
D50*
X-303530Y-110274D03*
X-303530Y-94196D03*
D57*
X-303953Y-211252D03*
D47*
X-303953Y-194945D03*
D73*
X-303953Y-188595D03*
D57*
X-303953Y-165532D03*
X-303953Y-153670D03*
X-303953Y-149428D03*
X-303953Y-146482D03*
X-303953Y-137160D03*
D58*
X-303953Y-133566D03*
D46*
X-303953Y-110274D03*
D57*
X-303953Y-93980D03*
X-304377Y-211658D03*
X-304377Y-195148D03*
D73*
X-304377Y-188595D03*
D57*
X-304377Y-165532D03*
D46*
X-304377Y-153454D03*
D57*
X-304377Y-149428D03*
X-304377Y-146482D03*
X-304377Y-137160D03*
D58*
X-304377Y-133566D03*
D57*
X-304377Y-110058D03*
X-304377Y-93980D03*
D59*
X-304800Y-211658D03*
X-304800Y-195148D03*
D76*
X-304800Y-188595D03*
D50*
X-304800Y-165316D03*
X-304800Y-153454D03*
D59*
X-304800Y-149428D03*
X-304800Y-146482D03*
D56*
X-304800Y-136944D03*
D59*
X-304800Y-133782D03*
X-304800Y-110058D03*
D56*
X-304800Y-93764D03*
D57*
X-305223Y-211658D03*
X-305223Y-195580D03*
X-305223Y-188392D03*
D46*
X-305223Y-165316D03*
D57*
X-305223Y-153238D03*
X-305223Y-149428D03*
D58*
X-305223Y-146266D03*
D57*
X-305223Y-137160D03*
X-305223Y-133782D03*
X-305223Y-109652D03*
X-305223Y-93548D03*
D46*
X-305647Y-211874D03*
D57*
X-305647Y-195580D03*
X-305647Y-188392D03*
D30*
X-305647Y-182029D03*
D46*
X-305647Y-165316D03*
D57*
X-305647Y-153238D03*
X-305647Y-149428D03*
D58*
X-305647Y-146266D03*
D57*
X-305647Y-137160D03*
X-305647Y-133782D03*
X-305647Y-109652D03*
X-305647Y-93548D03*
D50*
X-306070Y-211874D03*
D59*
X-306070Y-195580D03*
D50*
X-306070Y-188176D03*
D27*
X-306070Y-182029D03*
D59*
X-306070Y-165100D03*
D76*
X-306070Y-153035D03*
D55*
X-306070Y-149225D03*
D56*
X-306070Y-146266D03*
D59*
X-306070Y-137160D03*
X-306070Y-133782D03*
D50*
X-306070Y-109436D03*
D59*
X-306070Y-93548D03*
D46*
X-306493Y-211874D03*
D57*
X-306493Y-207442D03*
D46*
X-306493Y-195796D03*
D70*
X-306493Y-185420D03*
D49*
X-306493Y-179921D03*
D57*
X-306493Y-165100D03*
X-306493Y-152832D03*
D47*
X-306493Y-149225D03*
D57*
X-306493Y-146050D03*
X-306493Y-137160D03*
X-306493Y-133782D03*
D46*
X-306493Y-109436D03*
D47*
X-306493Y-98425D03*
X-306493Y-93345D03*
D46*
X-306917Y-211874D03*
D43*
X-306917Y-207213D03*
D46*
X-306917Y-195796D03*
D40*
X-306917Y-185839D03*
D47*
X-306917Y-179705D03*
D57*
X-306917Y-164668D03*
X-306917Y-152832D03*
D47*
X-306917Y-149225D03*
D57*
X-306917Y-146050D03*
X-306917Y-137160D03*
X-306917Y-133782D03*
D46*
X-306917Y-109436D03*
D57*
X-306917Y-102870D03*
D47*
X-306917Y-98425D03*
X-306917Y-93345D03*
D59*
X-307340Y-212090D03*
D77*
X-307340Y-205308D03*
D50*
X-307340Y-195796D03*
D52*
X-307340Y-186690D03*
D50*
X-307340Y-179286D03*
D59*
X-307340Y-164668D03*
D50*
X-307340Y-152616D03*
D55*
X-307340Y-149225D03*
D59*
X-307340Y-146050D03*
X-307340Y-137160D03*
D55*
X-307340Y-133985D03*
D59*
X-307340Y-109220D03*
D52*
X-307340Y-102870D03*
D55*
X-307340Y-98425D03*
X-307340Y-93345D03*
D57*
X-307763Y-212090D03*
D78*
X-307763Y-205105D03*
D57*
X-307763Y-196012D03*
D49*
X-307763Y-187109D03*
D46*
X-307763Y-178854D03*
D47*
X-307763Y-164465D03*
D46*
X-307763Y-152616D03*
D47*
X-307763Y-149225D03*
D57*
X-307763Y-146050D03*
X-307763Y-137160D03*
D47*
X-307763Y-133985D03*
D57*
X-307763Y-109220D03*
D33*
X-307763Y-102870D03*
D46*
X-307763Y-98006D03*
D47*
X-307763Y-93345D03*
D57*
X-308187Y-212090D03*
D79*
X-308187Y-204673D03*
D57*
X-308187Y-196012D03*
D48*
X-308187Y-186690D03*
X-308187Y-179070D03*
D47*
X-308187Y-164465D03*
D46*
X-308187Y-152616D03*
D47*
X-308187Y-149225D03*
D57*
X-308187Y-146050D03*
X-308187Y-137160D03*
D47*
X-308187Y-133985D03*
D57*
X-308187Y-109220D03*
D61*
X-308187Y-102870D03*
D57*
X-308187Y-97790D03*
X-308187Y-93142D03*
D56*
X-308610Y-212306D03*
X-308610Y-208064D03*
D27*
X-308610Y-203619D03*
D76*
X-308610Y-196215D03*
D50*
X-308610Y-186474D03*
D54*
X-308610Y-179070D03*
D55*
X-308610Y-164465D03*
D59*
X-308610Y-152400D03*
D55*
X-308610Y-149225D03*
D59*
X-308610Y-146050D03*
X-308610Y-137160D03*
D55*
X-308610Y-133985D03*
D59*
X-308610Y-108788D03*
D71*
X-308610Y-102870D03*
D59*
X-308610Y-97358D03*
X-308610Y-93142D03*
D57*
X-309033Y-212522D03*
D46*
X-309033Y-201714D03*
D57*
X-309033Y-196418D03*
D47*
X-309033Y-186055D03*
D53*
X-309033Y-179070D03*
D57*
X-309033Y-164262D03*
X-309033Y-152400D03*
X-309033Y-149022D03*
X-309033Y-146050D03*
X-309033Y-137160D03*
D47*
X-309033Y-133985D03*
D57*
X-309033Y-108788D03*
X-309033Y-104572D03*
D49*
X-309033Y-101181D03*
D57*
X-309033Y-97358D03*
X-309033Y-93142D03*
X-309457Y-212522D03*
X-309457Y-201498D03*
X-309457Y-196418D03*
D47*
X-309457Y-186055D03*
D53*
X-309457Y-179070D03*
D57*
X-309457Y-164262D03*
X-309457Y-152400D03*
X-309457Y-149022D03*
X-309457Y-146050D03*
X-309457Y-137160D03*
D47*
X-309457Y-133985D03*
D57*
X-309457Y-108788D03*
X-309457Y-104572D03*
D49*
X-309457Y-100749D03*
D46*
X-309457Y-97574D03*
D57*
X-309457Y-93142D03*
D59*
X-309880Y-212522D03*
X-309880Y-201092D03*
X-309880Y-196418D03*
D50*
X-309880Y-185636D03*
X-309880Y-180556D03*
X-309880Y-178016D03*
D56*
X-309880Y-164046D03*
D59*
X-309880Y-151968D03*
X-309880Y-149022D03*
X-309880Y-146050D03*
X-309880Y-137160D03*
D55*
X-309880Y-133985D03*
X-309880Y-108585D03*
D59*
X-309880Y-104572D03*
D32*
X-309880Y-99276D03*
D56*
X-309880Y-92926D03*
D57*
X-310303Y-212522D03*
X-310303Y-201092D03*
X-310303Y-196418D03*
D46*
X-310303Y-185204D03*
X-310303Y-180556D03*
X-310303Y-178016D03*
D57*
X-310303Y-163830D03*
X-310303Y-151968D03*
X-310303Y-149022D03*
X-310303Y-146050D03*
X-310303Y-137160D03*
D47*
X-310303Y-133985D03*
X-310303Y-108585D03*
D57*
X-310303Y-104572D03*
D33*
X-310303Y-99060D03*
D57*
X-310303Y-92710D03*
X-310727Y-212522D03*
D73*
X-310727Y-201295D03*
D46*
X-310727Y-196634D03*
D47*
X-310727Y-184785D03*
D49*
X-310727Y-181191D03*
D57*
X-310727Y-177800D03*
X-310727Y-163830D03*
X-310727Y-151968D03*
X-310727Y-149022D03*
X-310727Y-146050D03*
X-310727Y-137160D03*
X-310727Y-134188D03*
D47*
X-310727Y-108585D03*
D46*
X-310727Y-104356D03*
D39*
X-310727Y-99276D03*
D57*
X-310727Y-92710D03*
D59*
X-311150Y-212522D03*
D76*
X-311150Y-201295D03*
D50*
X-311150Y-196634D03*
D55*
X-311150Y-184785D03*
D50*
X-311150Y-181394D03*
X-311150Y-177584D03*
X-311150Y-163614D03*
D55*
X-311150Y-151765D03*
D59*
X-311150Y-149022D03*
X-311150Y-146050D03*
X-311150Y-137160D03*
X-311150Y-134188D03*
D55*
X-311150Y-108585D03*
D50*
X-311150Y-103924D03*
D52*
X-311150Y-99060D03*
D59*
X-311150Y-92710D03*
D47*
X-311573Y-212725D03*
D58*
X-311573Y-208064D03*
D73*
X-311573Y-201295D03*
D46*
X-311573Y-196634D03*
D31*
X-311573Y-183096D03*
D57*
X-311573Y-177368D03*
D46*
X-311573Y-163614D03*
D47*
X-311573Y-151765D03*
D58*
X-311573Y-148806D03*
D57*
X-311573Y-146050D03*
X-311573Y-137160D03*
X-311573Y-134188D03*
D47*
X-311573Y-108585D03*
D49*
X-311573Y-103721D03*
D57*
X-311573Y-92710D03*
D47*
X-311997Y-212725D03*
D49*
X-311997Y-207861D03*
D57*
X-311997Y-201498D03*
D46*
X-311997Y-196634D03*
D39*
X-311997Y-183096D03*
D47*
X-311997Y-177165D03*
D46*
X-311997Y-163614D03*
D47*
X-311997Y-151765D03*
D58*
X-311997Y-148806D03*
D57*
X-311997Y-146050D03*
X-311997Y-137160D03*
X-311997Y-134188D03*
X-311997Y-108382D03*
D47*
X-311997Y-103505D03*
D57*
X-311997Y-92710D03*
D55*
X-312420Y-212725D03*
D80*
X-312420Y-204889D03*
D50*
X-312420Y-196634D03*
D44*
X-312420Y-183299D03*
D55*
X-312420Y-177165D03*
D59*
X-312420Y-163398D03*
D55*
X-312420Y-151765D03*
D59*
X-312420Y-148590D03*
X-312420Y-146050D03*
X-312420Y-137160D03*
X-312420Y-134188D03*
X-312420Y-108382D03*
D81*
X-312420Y-103721D03*
D59*
X-312420Y-92710D03*
D47*
X-312843Y-212725D03*
D79*
X-312843Y-205105D03*
D57*
X-312843Y-196850D03*
D43*
X-312843Y-183515D03*
D57*
X-312843Y-176962D03*
X-312843Y-163398D03*
X-312843Y-151562D03*
X-312843Y-148590D03*
X-312843Y-146050D03*
X-312843Y-137160D03*
X-312843Y-134188D03*
X-312843Y-108382D03*
D46*
X-312843Y-92494D03*
D47*
X-313267Y-212725D03*
D46*
X-313267Y-208496D03*
D29*
X-313267Y-204267D03*
D57*
X-313267Y-196850D03*
D46*
X-313267Y-183934D03*
D57*
X-313267Y-176530D03*
X-313267Y-162992D03*
X-313267Y-151562D03*
X-313267Y-148590D03*
X-313267Y-146050D03*
X-313267Y-137160D03*
X-313267Y-134188D03*
X-313267Y-108382D03*
D46*
X-313267Y-92494D03*
D55*
X-313690Y-212725D03*
D81*
X-313690Y-208699D03*
D44*
X-313690Y-203619D03*
D59*
X-313690Y-196850D03*
D54*
X-313690Y-184150D03*
D50*
X-313690Y-176314D03*
X-313690Y-162776D03*
D59*
X-313690Y-151562D03*
X-313690Y-148590D03*
X-313690Y-146050D03*
X-313690Y-137160D03*
D56*
X-313690Y-134404D03*
D59*
X-313690Y-108382D03*
D50*
X-313690Y-92494D03*
D47*
X-314113Y-212725D03*
D57*
X-314113Y-196850D03*
D47*
X-314113Y-184785D03*
D46*
X-314113Y-176314D03*
D43*
X-314113Y-162357D03*
D57*
X-314113Y-151562D03*
X-314113Y-148590D03*
D46*
X-314113Y-145834D03*
D57*
X-314113Y-137160D03*
X-314113Y-134620D03*
X-314113Y-108382D03*
D46*
X-314113Y-92494D03*
D47*
X-314537Y-212725D03*
D57*
X-314537Y-196850D03*
D49*
X-314537Y-185001D03*
D57*
X-314537Y-176098D03*
D33*
X-314537Y-162128D03*
D58*
X-314537Y-151346D03*
D57*
X-314537Y-148590D03*
D46*
X-314537Y-145834D03*
D57*
X-314537Y-137160D03*
X-314537Y-134620D03*
D58*
X-314537Y-108166D03*
D46*
X-314537Y-92494D03*
D55*
X-314960Y-212725D03*
D59*
X-314960Y-196850D03*
D50*
X-314960Y-185636D03*
D55*
X-314960Y-175895D03*
D82*
X-314960Y-161074D03*
D59*
X-314960Y-151130D03*
X-314960Y-148590D03*
D50*
X-314960Y-145834D03*
D59*
X-314960Y-137160D03*
X-314960Y-134620D03*
D56*
X-314960Y-108166D03*
D50*
X-314960Y-92494D03*
D47*
X-315383Y-212725D03*
D57*
X-315383Y-196850D03*
D49*
X-315383Y-186271D03*
D57*
X-315383Y-175692D03*
D49*
X-315383Y-163411D03*
D29*
X-315383Y-159385D03*
D57*
X-315383Y-151130D03*
X-315383Y-148590D03*
D46*
X-315383Y-145834D03*
D57*
X-315383Y-137160D03*
X-315383Y-134620D03*
D58*
X-315383Y-108166D03*
D46*
X-315383Y-92494D03*
D47*
X-315807Y-212725D03*
D58*
X-315807Y-197066D03*
D48*
X-315807Y-186690D03*
D46*
X-315807Y-175476D03*
X-315807Y-163614D03*
D24*
X-315807Y-156629D03*
D46*
X-315807Y-151346D03*
X-315807Y-148374D03*
X-315807Y-145834D03*
D57*
X-315807Y-137160D03*
X-315807Y-134620D03*
D58*
X-315807Y-108166D03*
X-315807Y-103924D03*
D83*
X-315807Y-96939D03*
D46*
X-315807Y-92494D03*
D59*
X-316230Y-212928D03*
D56*
X-316230Y-197066D03*
D45*
X-316230Y-187109D03*
D50*
X-316230Y-175476D03*
X-316230Y-163614D03*
D84*
X-316230Y-154508D03*
D54*
X-316230Y-148590D03*
D50*
X-316230Y-145834D03*
D59*
X-316230Y-137160D03*
X-316230Y-134620D03*
D56*
X-316230Y-108166D03*
X-316230Y-103924D03*
D76*
X-316230Y-97155D03*
D50*
X-316230Y-92494D03*
D57*
X-316653Y-212928D03*
D58*
X-316653Y-197066D03*
D49*
X-316653Y-187541D03*
D57*
X-316653Y-175260D03*
D46*
X-316653Y-163614D03*
D85*
X-316653Y-150914D03*
D57*
X-316653Y-137160D03*
X-316653Y-134620D03*
X-316653Y-107950D03*
D79*
X-316653Y-100533D03*
D46*
X-316653Y-92494D03*
D57*
X-317077Y-212928D03*
D58*
X-317077Y-197066D03*
D48*
X-317077Y-187960D03*
D46*
X-317077Y-175044D03*
D57*
X-317077Y-163398D03*
D86*
X-317077Y-150292D03*
D57*
X-317077Y-137160D03*
D46*
X-317077Y-134836D03*
D57*
X-317077Y-107950D03*
D79*
X-317077Y-100533D03*
D46*
X-317077Y-92494D03*
D59*
X-317500Y-212928D03*
X-317500Y-201930D03*
D56*
X-317500Y-197066D03*
D50*
X-317500Y-188176D03*
D59*
X-317500Y-174828D03*
X-317500Y-163398D03*
D35*
X-317500Y-146482D03*
D59*
X-317500Y-137160D03*
D50*
X-317500Y-134836D03*
D59*
X-317500Y-107950D03*
D69*
X-317500Y-100533D03*
D50*
X-317500Y-92494D03*
D57*
X-317923Y-212928D03*
D73*
X-317923Y-208915D03*
D34*
X-317923Y-202349D03*
D58*
X-317923Y-197066D03*
D46*
X-317923Y-188176D03*
D47*
X-317923Y-174625D03*
D57*
X-317923Y-162992D03*
D47*
X-317923Y-145415D03*
D57*
X-317923Y-137160D03*
D46*
X-317923Y-134836D03*
D57*
X-317923Y-107950D03*
D79*
X-317923Y-100533D03*
D46*
X-317923Y-92494D03*
D57*
X-318347Y-212928D03*
D87*
X-318347Y-205105D03*
D58*
X-318347Y-197066D03*
D48*
X-318347Y-187960D03*
D47*
X-318347Y-174625D03*
D57*
X-318347Y-162992D03*
X-318347Y-145212D03*
X-318347Y-137160D03*
D46*
X-318347Y-134836D03*
D58*
X-318347Y-108166D03*
X-318347Y-103924D03*
D73*
X-318347Y-97155D03*
D46*
X-318347Y-92494D03*
D59*
X-318770Y-212928D03*
D88*
X-318770Y-205105D03*
D56*
X-318770Y-197066D03*
D45*
X-318770Y-187541D03*
D59*
X-318770Y-174422D03*
D50*
X-318770Y-162776D03*
D59*
X-318770Y-145212D03*
X-318770Y-137160D03*
D50*
X-318770Y-134836D03*
D56*
X-318770Y-108166D03*
D89*
X-318770Y-104140D03*
D50*
X-318770Y-92494D03*
D47*
X-319193Y-212725D03*
D61*
X-319193Y-207010D03*
D57*
X-319193Y-201498D03*
X-319193Y-196850D03*
D49*
X-319193Y-187109D03*
D57*
X-319193Y-173990D03*
D46*
X-319193Y-162776D03*
D57*
X-319193Y-145212D03*
X-319193Y-137160D03*
D46*
X-319193Y-134836D03*
D58*
X-319193Y-108166D03*
D46*
X-319193Y-92494D03*
D47*
X-319617Y-212725D03*
D43*
X-319617Y-207645D03*
D57*
X-319617Y-196850D03*
D48*
X-319617Y-186690D03*
D46*
X-319617Y-173774D03*
X-319617Y-162776D03*
D57*
X-319617Y-145212D03*
X-319617Y-137160D03*
D46*
X-319617Y-134836D03*
D58*
X-319617Y-108166D03*
D46*
X-319617Y-92494D03*
D55*
X-320040Y-212725D03*
D38*
X-320040Y-207226D03*
D59*
X-320040Y-196850D03*
D45*
X-320040Y-186271D03*
D50*
X-320040Y-173774D03*
D59*
X-320040Y-162560D03*
X-320040Y-145212D03*
X-320040Y-137160D03*
X-320040Y-135052D03*
D56*
X-320040Y-108166D03*
D50*
X-320040Y-92494D03*
D47*
X-320463Y-212725D03*
D39*
X-320463Y-206794D03*
D57*
X-320463Y-196850D03*
D49*
X-320463Y-185839D03*
D57*
X-320463Y-173558D03*
X-320463Y-162560D03*
X-320463Y-145212D03*
X-320463Y-137160D03*
X-320463Y-135052D03*
X-320463Y-108382D03*
D46*
X-320463Y-92494D03*
D47*
X-320887Y-212725D03*
D39*
X-320887Y-205956D03*
D57*
X-320887Y-196850D03*
D48*
X-320887Y-185420D03*
D47*
X-320887Y-173355D03*
D57*
X-320887Y-162128D03*
X-320887Y-145212D03*
X-320887Y-137160D03*
X-320887Y-135052D03*
X-320887Y-108382D03*
D46*
X-320887Y-92494D03*
D55*
X-321310Y-212725D03*
D44*
X-321310Y-205321D03*
D59*
X-321310Y-196850D03*
D45*
X-321310Y-185001D03*
D59*
X-321310Y-173152D03*
X-321310Y-162128D03*
X-321310Y-145212D03*
X-321310Y-137160D03*
X-321310Y-135052D03*
X-321310Y-108382D03*
D50*
X-321310Y-92494D03*
D47*
X-321733Y-212725D03*
D39*
X-321733Y-204254D03*
D57*
X-321733Y-196850D03*
D49*
X-321733Y-184569D03*
D46*
X-321733Y-172936D03*
D47*
X-321733Y-161925D03*
D57*
X-321733Y-145212D03*
X-321733Y-137160D03*
X-321733Y-135052D03*
X-321733Y-108382D03*
D83*
X-321733Y-102451D03*
D46*
X-321733Y-92494D03*
D47*
X-322157Y-212725D03*
D41*
X-322157Y-203835D03*
D46*
X-322157Y-196634D03*
D48*
X-322157Y-184150D03*
D46*
X-322157Y-172936D03*
D47*
X-322157Y-161925D03*
D46*
X-322157Y-144996D03*
X-322157Y-137376D03*
D57*
X-322157Y-135052D03*
X-322157Y-108382D03*
D46*
X-322157Y-102654D03*
X-322157Y-92494D03*
D55*
X-322580Y-212725D03*
D38*
X-322580Y-202984D03*
D50*
X-322580Y-196634D03*
D45*
X-322580Y-183731D03*
D59*
X-322580Y-172720D03*
D55*
X-322580Y-161925D03*
D90*
X-322580Y-141186D03*
D36*
X-322580Y-134417D03*
D59*
X-322580Y-108382D03*
D38*
X-322580Y-102654D03*
D59*
X-322580Y-92710D03*
D47*
X-323003Y-212725D03*
D58*
X-323003Y-208064D03*
D41*
X-323003Y-202565D03*
D46*
X-323003Y-196634D03*
D49*
X-323003Y-183299D03*
D46*
X-323003Y-172504D03*
D57*
X-323003Y-161722D03*
D91*
X-323003Y-139065D03*
D47*
X-323003Y-108585D03*
D39*
X-323003Y-102654D03*
D57*
X-323003Y-97790D03*
X-323003Y-92710D03*
X-323427Y-212522D03*
D79*
X-323427Y-204673D03*
D46*
X-323427Y-196634D03*
D48*
X-323427Y-182880D03*
D57*
X-323427Y-172288D03*
X-323427Y-161722D03*
D30*
X-323427Y-143929D03*
D79*
X-323427Y-135687D03*
D47*
X-323427Y-108585D03*
D31*
X-323427Y-102654D03*
D48*
X-323427Y-97790D03*
D57*
X-323427Y-92710D03*
D59*
X-323850Y-212522D03*
D69*
X-323850Y-204673D03*
D50*
X-323850Y-196634D03*
D45*
X-323850Y-182461D03*
D55*
X-323850Y-172085D03*
D59*
X-323850Y-161290D03*
D38*
X-323850Y-144996D03*
D77*
X-323850Y-134620D03*
D55*
X-323850Y-108585D03*
D59*
X-323850Y-104140D03*
D36*
X-323850Y-101397D03*
D54*
X-323850Y-97790D03*
D59*
X-323850Y-92710D03*
D57*
X-324273Y-212522D03*
D25*
X-324273Y-205308D03*
D57*
X-324273Y-196418D03*
D49*
X-324273Y-182029D03*
D47*
X-324273Y-172085D03*
D57*
X-324273Y-161290D03*
D48*
X-324273Y-146050D03*
D49*
X-324273Y-135039D03*
X-324273Y-131661D03*
D47*
X-324273Y-108585D03*
D57*
X-324273Y-104572D03*
D47*
X-324273Y-100965D03*
D57*
X-324273Y-97358D03*
X-324273Y-92710D03*
X-324697Y-212522D03*
D39*
X-324697Y-206794D03*
D57*
X-324697Y-196418D03*
D48*
X-324697Y-181610D03*
D57*
X-324697Y-171882D03*
D46*
X-324697Y-161074D03*
D49*
X-324697Y-146469D03*
D46*
X-324697Y-134836D03*
D47*
X-324697Y-131445D03*
X-324697Y-108585D03*
D57*
X-324697Y-104572D03*
D47*
X-324697Y-100965D03*
D73*
X-324697Y-97155D03*
D58*
X-324697Y-92926D03*
D59*
X-325120Y-212522D03*
D56*
X-325120Y-208064D03*
D59*
X-325120Y-196418D03*
D45*
X-325120Y-181191D03*
D59*
X-325120Y-171450D03*
D50*
X-325120Y-161074D03*
X-325120Y-147104D03*
D59*
X-325120Y-135052D03*
D50*
X-325120Y-131026D03*
D59*
X-325120Y-108788D03*
X-325120Y-104572D03*
D55*
X-325120Y-100965D03*
D59*
X-325120Y-97358D03*
X-325120Y-93142D03*
D57*
X-325543Y-212522D03*
X-325543Y-196418D03*
D49*
X-325543Y-180759D03*
D46*
X-325543Y-171234D03*
D57*
X-325543Y-160858D03*
D46*
X-325543Y-147536D03*
X-325543Y-134836D03*
D57*
X-325543Y-130810D03*
X-325543Y-108788D03*
X-325543Y-104572D03*
D46*
X-325543Y-100546D03*
D57*
X-325543Y-97358D03*
X-325543Y-93142D03*
D58*
X-325967Y-212306D03*
D73*
X-325967Y-196215D03*
D48*
X-325967Y-180340D03*
D46*
X-325967Y-171234D03*
D47*
X-325967Y-160655D03*
X-325967Y-147955D03*
D48*
X-325967Y-134620D03*
D57*
X-325967Y-130810D03*
X-325967Y-108788D03*
D46*
X-325967Y-104356D03*
D48*
X-325967Y-100330D03*
D57*
X-325967Y-97790D03*
X-325967Y-93142D03*
D59*
X-326390Y-212090D03*
X-326390Y-196012D03*
D45*
X-326390Y-179921D03*
D50*
X-326390Y-171234D03*
D36*
X-326390Y-160223D03*
D50*
X-326390Y-148374D03*
X-326390Y-134404D03*
D59*
X-326390Y-130810D03*
X-326390Y-109220D03*
D54*
X-326390Y-104140D03*
D35*
X-326390Y-99060D03*
D59*
X-326390Y-93142D03*
D57*
X-326813Y-212090D03*
X-326813Y-196012D03*
D49*
X-326813Y-179489D03*
D57*
X-326813Y-171018D03*
D25*
X-326813Y-158750D03*
D46*
X-326813Y-148374D03*
D47*
X-326813Y-133985D03*
X-326813Y-131445D03*
D57*
X-326813Y-109220D03*
X-326813Y-104140D03*
D39*
X-326813Y-99276D03*
D57*
X-326813Y-93142D03*
X-327237Y-212090D03*
D46*
X-327237Y-195796D03*
D48*
X-327237Y-179070D03*
D57*
X-327237Y-170612D03*
D75*
X-327237Y-156845D03*
D46*
X-327237Y-148806D03*
D47*
X-327237Y-133985D03*
D49*
X-327237Y-131661D03*
D57*
X-327237Y-109220D03*
D58*
X-327237Y-103924D03*
D53*
X-327237Y-99060D03*
D47*
X-327237Y-93345D03*
D50*
X-327660Y-211874D03*
D56*
X-327660Y-200444D03*
D50*
X-327660Y-195796D03*
D45*
X-327660Y-178651D03*
D50*
X-327660Y-170396D03*
X-327660Y-161506D03*
D92*
X-327660Y-153670D03*
D60*
X-327660Y-132715D03*
D50*
X-327660Y-109436D03*
D59*
X-327660Y-99060D03*
D55*
X-327660Y-93345D03*
D46*
X-328083Y-211874D03*
D58*
X-328083Y-200444D03*
D46*
X-328083Y-195796D03*
D49*
X-328083Y-178219D03*
D46*
X-328083Y-170396D03*
D57*
X-328083Y-161722D03*
D93*
X-328083Y-153251D03*
D41*
X-328083Y-140335D03*
D33*
X-328083Y-132918D03*
D46*
X-328083Y-109436D03*
D47*
X-328083Y-93345D03*
D46*
X-328507Y-211874D03*
X-328507Y-200876D03*
D57*
X-328507Y-195580D03*
D48*
X-328507Y-177800D03*
D57*
X-328507Y-170180D03*
D47*
X-328507Y-161925D03*
D49*
X-328507Y-149441D03*
D94*
X-328507Y-140335D03*
D39*
X-328507Y-132296D03*
D46*
X-328507Y-109436D03*
D47*
X-328507Y-93345D03*
D50*
X-328930Y-211874D03*
D44*
X-328930Y-201079D03*
D59*
X-328930Y-195580D03*
D45*
X-328930Y-177381D03*
D50*
X-328930Y-169964D03*
D59*
X-328930Y-162128D03*
D50*
X-328930Y-149644D03*
D69*
X-328930Y-140335D03*
D55*
X-328930Y-131445D03*
D59*
X-328930Y-109652D03*
X-328930Y-93548D03*
D57*
X-329353Y-211658D03*
D58*
X-329353Y-207226D03*
D40*
X-329353Y-202349D03*
D57*
X-329353Y-195580D03*
D49*
X-329353Y-176949D03*
D57*
X-329353Y-169748D03*
D46*
X-329353Y-162344D03*
D48*
X-329353Y-149860D03*
D34*
X-329353Y-143091D03*
D29*
X-329353Y-138633D03*
D57*
X-329353Y-131242D03*
X-329353Y-109652D03*
X-329353Y-93548D03*
X-329777Y-211658D03*
X-329777Y-207010D03*
D78*
X-329777Y-202565D03*
D57*
X-329777Y-195148D03*
D46*
X-329777Y-176746D03*
D47*
X-329777Y-169545D03*
D46*
X-329777Y-162776D03*
D43*
X-329777Y-150063D03*
D39*
X-329777Y-143294D03*
D73*
X-329777Y-140335D03*
D39*
X-329777Y-137376D03*
D57*
X-329777Y-131242D03*
X-329777Y-110058D03*
X-329777Y-93548D03*
D59*
X-330200Y-211658D03*
D82*
X-330200Y-204254D03*
D59*
X-330200Y-199822D03*
X-330200Y-195148D03*
D50*
X-330200Y-176314D03*
D55*
X-330200Y-169545D03*
D50*
X-330200Y-162776D03*
D72*
X-330200Y-150711D03*
D35*
X-330200Y-143510D03*
D76*
X-330200Y-140335D03*
D35*
X-330200Y-137160D03*
D59*
X-330200Y-131242D03*
X-330200Y-110058D03*
D56*
X-330200Y-105626D03*
D59*
X-330200Y-93980D03*
D73*
X-330623Y-211455D03*
D40*
X-330623Y-204889D03*
D47*
X-330623Y-194945D03*
X-330623Y-175895D03*
D57*
X-330623Y-169342D03*
X-330623Y-162992D03*
D40*
X-330623Y-150711D03*
D46*
X-330623Y-144996D03*
X-330623Y-142456D03*
D73*
X-330623Y-140335D03*
D46*
X-330623Y-138214D03*
X-330623Y-135674D03*
D58*
X-330623Y-131026D03*
D46*
X-330623Y-110274D03*
X-330623Y-105194D03*
D57*
X-330623Y-93980D03*
X-331047Y-211252D03*
D34*
X-331047Y-206159D03*
D47*
X-331047Y-194945D03*
D46*
X-331047Y-175476D03*
X-331047Y-169126D03*
D57*
X-331047Y-162992D03*
D33*
X-331047Y-153238D03*
D49*
X-331047Y-148171D03*
D57*
X-331047Y-145212D03*
X-331047Y-142240D03*
D73*
X-331047Y-140335D03*
D46*
X-331047Y-138214D03*
X-331047Y-135674D03*
D57*
X-331047Y-130810D03*
D46*
X-331047Y-110274D03*
D39*
X-331047Y-104356D03*
D57*
X-331047Y-93980D03*
D59*
X-331470Y-211252D03*
D55*
X-331470Y-206375D03*
D59*
X-331470Y-194742D03*
D50*
X-331470Y-175044D03*
X-331470Y-168694D03*
D59*
X-331470Y-163398D03*
D38*
X-331470Y-153886D03*
D45*
X-331470Y-147739D03*
D55*
X-331470Y-145415D03*
D59*
X-331470Y-142240D03*
D76*
X-331470Y-140335D03*
D50*
X-331470Y-138214D03*
D59*
X-331470Y-135458D03*
X-331470Y-130810D03*
D50*
X-331470Y-110274D03*
D32*
X-331470Y-103924D03*
D50*
X-331470Y-94196D03*
D46*
X-331893Y-211036D03*
D73*
X-331893Y-206375D03*
D57*
X-331893Y-194742D03*
D47*
X-331893Y-174625D03*
D46*
X-331893Y-168694D03*
X-331893Y-163614D03*
D39*
X-331893Y-155156D03*
D41*
X-331893Y-146685D03*
D57*
X-331893Y-142240D03*
D73*
X-331893Y-140335D03*
D46*
X-331893Y-138214D03*
D57*
X-331893Y-135052D03*
X-331893Y-130810D03*
X-331893Y-110490D03*
D67*
X-331893Y-103086D03*
D58*
X-331893Y-98844D03*
D46*
X-331893Y-94196D03*
X-332317Y-211036D03*
D57*
X-332317Y-194310D03*
D46*
X-332317Y-174206D03*
X-332317Y-168694D03*
X-332317Y-163614D03*
D39*
X-332317Y-155994D03*
D34*
X-332317Y-146469D03*
D57*
X-332317Y-142240D03*
D73*
X-332317Y-140335D03*
D46*
X-332317Y-138214D03*
X-332317Y-134836D03*
D57*
X-332317Y-130810D03*
D46*
X-332317Y-110706D03*
D24*
X-332317Y-102019D03*
D46*
X-332317Y-94196D03*
D50*
X-332740Y-211036D03*
D59*
X-332740Y-194310D03*
D50*
X-332740Y-173774D03*
D59*
X-332740Y-168478D03*
D50*
X-332740Y-163614D03*
D63*
X-332740Y-156845D03*
D45*
X-332740Y-146469D03*
D59*
X-332740Y-142240D03*
D76*
X-332740Y-140335D03*
D50*
X-332740Y-138214D03*
X-332740Y-134836D03*
D59*
X-332740Y-130810D03*
X-332740Y-110922D03*
D36*
X-332740Y-103937D03*
D38*
X-332740Y-100114D03*
D59*
X-332740Y-94412D03*
D57*
X-333163Y-210820D03*
D46*
X-333163Y-194094D03*
D47*
X-333163Y-173355D03*
D57*
X-333163Y-168072D03*
X-333163Y-163830D03*
D39*
X-333163Y-157696D03*
D48*
X-333163Y-146050D03*
D57*
X-333163Y-142240D03*
D73*
X-333163Y-140335D03*
D46*
X-333163Y-138214D03*
X-333163Y-134836D03*
D58*
X-333163Y-131026D03*
D47*
X-333163Y-111125D03*
D49*
X-333163Y-103721D03*
D43*
X-333163Y-99695D03*
D57*
X-333163Y-94412D03*
X-333587Y-210820D03*
D46*
X-333587Y-194094D03*
X-333587Y-172936D03*
X-333587Y-167856D03*
D57*
X-333587Y-163830D03*
D53*
X-333587Y-158750D03*
D46*
X-333587Y-145834D03*
D57*
X-333587Y-142240D03*
D73*
X-333587Y-140335D03*
D46*
X-333587Y-138214D03*
D57*
X-333587Y-134620D03*
X-333587Y-131242D03*
D47*
X-333587Y-111125D03*
X-333587Y-103505D03*
D46*
X-333587Y-99276D03*
D57*
X-333587Y-94818D03*
D59*
X-334010Y-210388D03*
X-334010Y-193878D03*
D50*
X-334010Y-172504D03*
X-334010Y-167856D03*
D59*
X-334010Y-164262D03*
D63*
X-334010Y-159385D03*
D50*
X-334010Y-145834D03*
D59*
X-334010Y-142240D03*
D76*
X-334010Y-140335D03*
D50*
X-334010Y-138214D03*
D59*
X-334010Y-134620D03*
X-334010Y-131242D03*
X-334010Y-111328D03*
D45*
X-334010Y-103289D03*
D56*
X-334010Y-99276D03*
D59*
X-334010Y-94818D03*
D57*
X-334433Y-210388D03*
X-334433Y-193472D03*
D47*
X-334433Y-172085D03*
D57*
X-334433Y-167640D03*
X-334433Y-164262D03*
D34*
X-334433Y-160439D03*
D46*
X-334433Y-144996D03*
D57*
X-334433Y-142240D03*
D73*
X-334433Y-140335D03*
D46*
X-334433Y-138214D03*
D57*
X-334433Y-134620D03*
X-334433Y-131242D03*
D46*
X-334433Y-111544D03*
D48*
X-334433Y-102870D03*
D46*
X-334433Y-95034D03*
D47*
X-334857Y-210185D03*
D46*
X-334857Y-193256D03*
X-334857Y-171666D03*
X-334857Y-167424D03*
D57*
X-334857Y-164262D03*
D43*
X-334857Y-161087D03*
D46*
X-334857Y-144996D03*
D57*
X-334857Y-142240D03*
D73*
X-334857Y-140335D03*
D46*
X-334857Y-138214D03*
D57*
X-334857Y-134620D03*
X-334857Y-131242D03*
X-334857Y-111760D03*
D73*
X-334857Y-107315D03*
D46*
X-334857Y-102654D03*
X-334857Y-95034D03*
D55*
X-335280Y-210185D03*
D50*
X-335280Y-193256D03*
X-335280Y-171234D03*
D59*
X-335280Y-167208D03*
D32*
X-335280Y-162776D03*
D54*
X-335280Y-151130D03*
D50*
X-335280Y-144564D03*
X-335280Y-142456D03*
D76*
X-335280Y-140335D03*
D50*
X-335280Y-138214D03*
D59*
X-335280Y-134620D03*
D55*
X-335280Y-131445D03*
D50*
X-335280Y-111976D03*
D59*
X-335280Y-107112D03*
D45*
X-335280Y-102451D03*
D50*
X-335280Y-95034D03*
D47*
X-335703Y-210185D03*
D58*
X-335703Y-205524D03*
D31*
X-335703Y-199606D03*
D57*
X-335703Y-193040D03*
D47*
X-335703Y-170815D03*
X-335703Y-167005D03*
D42*
X-335703Y-163195D03*
D53*
X-335703Y-151130D03*
D39*
X-335703Y-143294D03*
D73*
X-335703Y-140335D03*
D46*
X-335703Y-138214D03*
X-335703Y-134836D03*
D47*
X-335703Y-131445D03*
D46*
X-335703Y-111976D03*
X-335703Y-106896D03*
D49*
X-335703Y-102019D03*
D57*
X-335703Y-95250D03*
X-336127Y-209982D03*
D95*
X-336127Y-201714D03*
D46*
X-336127Y-192824D03*
X-336127Y-170396D03*
D47*
X-336127Y-167005D03*
D39*
X-336127Y-163614D03*
D31*
X-336127Y-151346D03*
D39*
X-336127Y-143294D03*
D73*
X-336127Y-140335D03*
D46*
X-336127Y-138214D03*
X-336127Y-134836D03*
D47*
X-336127Y-131445D03*
D57*
X-336127Y-112192D03*
D33*
X-336127Y-105842D03*
D48*
X-336127Y-101600D03*
D57*
X-336127Y-95250D03*
D59*
X-336550Y-209982D03*
D74*
X-336550Y-201714D03*
D59*
X-336550Y-192608D03*
D50*
X-336550Y-169964D03*
D59*
X-336550Y-166802D03*
D36*
X-336550Y-164033D03*
D37*
X-336550Y-151333D03*
D44*
X-336550Y-143091D03*
D76*
X-336550Y-140335D03*
D50*
X-336550Y-138214D03*
X-336550Y-134836D03*
D59*
X-336550Y-131648D03*
X-336550Y-112598D03*
D32*
X-336550Y-105626D03*
D54*
X-336550Y-101600D03*
D59*
X-336550Y-95682D03*
D57*
X-336973Y-209550D03*
D96*
X-336973Y-201511D03*
D47*
X-336973Y-192405D03*
X-336973Y-169545D03*
D57*
X-336973Y-166370D03*
D49*
X-336973Y-164249D03*
D43*
X-336973Y-153467D03*
D49*
X-336973Y-149009D03*
D43*
X-336973Y-142875D03*
D73*
X-336973Y-140335D03*
D46*
X-336973Y-138214D03*
X-336973Y-134836D03*
D57*
X-336973Y-131648D03*
D46*
X-336973Y-112814D03*
D67*
X-336973Y-103086D03*
D47*
X-336973Y-95885D03*
D46*
X-337397Y-209334D03*
D39*
X-337397Y-203416D03*
D49*
X-337397Y-198971D03*
D47*
X-337397Y-192405D03*
D46*
X-337397Y-169126D03*
D39*
X-337397Y-165316D03*
D43*
X-337397Y-153873D03*
D48*
X-337397Y-148590D03*
D49*
X-337397Y-142659D03*
D47*
X-337397Y-140335D03*
D46*
X-337397Y-138214D03*
D57*
X-337397Y-135052D03*
X-337397Y-132080D03*
D46*
X-337397Y-112814D03*
D29*
X-337397Y-102667D03*
D47*
X-337397Y-95885D03*
D50*
X-337820Y-209334D03*
D56*
X-337820Y-204686D03*
D50*
X-337820Y-199174D03*
X-337820Y-191986D03*
X-337820Y-168694D03*
D38*
X-337820Y-165316D03*
D36*
X-337820Y-154737D03*
X-337820Y-147955D03*
D97*
X-337820Y-140335D03*
D59*
X-337820Y-135052D03*
X-337820Y-132080D03*
X-337820Y-113030D03*
D38*
X-337820Y-101816D03*
D55*
X-337820Y-95885D03*
D57*
X-338243Y-209118D03*
D46*
X-338243Y-199606D03*
D57*
X-338243Y-191770D03*
D98*
X-338243Y-166370D03*
D43*
X-338243Y-155143D03*
X-338243Y-147523D03*
D94*
X-338243Y-140335D03*
D73*
X-338243Y-135255D03*
D46*
X-338243Y-132296D03*
D57*
X-338243Y-113462D03*
D43*
X-338243Y-101397D03*
D57*
X-338243Y-96088D03*
X-338667Y-209118D03*
D47*
X-338667Y-200025D03*
D46*
X-338667Y-191554D03*
D61*
X-338667Y-166370D03*
D49*
X-338667Y-155791D03*
D53*
X-338667Y-147320D03*
D30*
X-338667Y-139281D03*
D57*
X-338667Y-135458D03*
D46*
X-338667Y-132296D03*
D47*
X-338667Y-113665D03*
D57*
X-338667Y-101168D03*
X-338667Y-96520D03*
D59*
X-339090Y-208712D03*
D50*
X-339090Y-200444D03*
D59*
X-339090Y-191338D03*
D32*
X-339090Y-166154D03*
D54*
X-339090Y-156210D03*
D44*
X-339090Y-146901D03*
D27*
X-339090Y-137579D03*
D59*
X-339090Y-132512D03*
D55*
X-339090Y-113665D03*
D81*
X-339090Y-101181D03*
D59*
X-339090Y-96520D03*
D46*
X-339513Y-208496D03*
X-339513Y-200876D03*
D47*
X-339513Y-191135D03*
D33*
X-339513Y-165938D03*
D47*
X-339513Y-156845D03*
D33*
X-339513Y-146482D03*
X-339513Y-136728D03*
D57*
X-339513Y-132512D03*
D46*
X-339513Y-114084D03*
X-339513Y-96736D03*
X-339937Y-208496D03*
D47*
X-339937Y-201295D03*
D46*
X-339937Y-190716D03*
D41*
X-339937Y-165735D03*
D47*
X-339937Y-156845D03*
D31*
X-339937Y-146266D03*
D33*
X-339937Y-136728D03*
D57*
X-339937Y-132512D03*
X-339937Y-114300D03*
D68*
X-339937Y-109220D03*
D46*
X-339937Y-96736D03*
D50*
X-340360Y-208496D03*
D44*
X-340360Y-202349D03*
D50*
X-340360Y-190716D03*
D44*
X-340360Y-165519D03*
D50*
X-340360Y-157264D03*
X-340360Y-147536D03*
D36*
X-340360Y-144577D03*
D55*
X-340360Y-137795D03*
D50*
X-340360Y-135674D03*
D59*
X-340360Y-132918D03*
D50*
X-340360Y-114516D03*
D54*
X-340360Y-109220D03*
D59*
X-340360Y-96952D03*
D57*
X-340783Y-208280D03*
D43*
X-340783Y-202565D03*
D46*
X-340783Y-190284D03*
D39*
X-340783Y-165316D03*
D46*
X-340783Y-157696D03*
X-340783Y-147536D03*
D43*
X-340783Y-144577D03*
D46*
X-340783Y-138214D03*
X-340783Y-135674D03*
D57*
X-340783Y-132918D03*
X-340783Y-114732D03*
D48*
X-340783Y-109220D03*
D47*
X-340783Y-97155D03*
D57*
X-341207Y-207848D03*
D49*
X-341207Y-202781D03*
D47*
X-341207Y-189865D03*
D43*
X-341207Y-164897D03*
D47*
X-341207Y-158115D03*
D46*
X-341207Y-147536D03*
D41*
X-341207Y-144145D03*
D46*
X-341207Y-138214D03*
X-341207Y-135674D03*
D57*
X-341207Y-132918D03*
X-341207Y-115138D03*
D47*
X-341207Y-109855D03*
D57*
X-341207Y-97358D03*
D55*
X-341630Y-207645D03*
D59*
X-341630Y-202768D03*
D56*
X-341630Y-195364D03*
D55*
X-341630Y-189865D03*
D44*
X-341630Y-164681D03*
D45*
X-341630Y-158331D03*
X-341630Y-155791D03*
X-341630Y-147739D03*
D35*
X-341630Y-143510D03*
D50*
X-341630Y-138214D03*
X-341630Y-135674D03*
X-341630Y-133134D03*
X-341630Y-115354D03*
X-341630Y-110274D03*
X-341630Y-97574D03*
D47*
X-342053Y-207645D03*
D57*
X-342053Y-202768D03*
D47*
X-342053Y-194945D03*
D46*
X-342053Y-189446D03*
D53*
X-342053Y-163830D03*
D99*
X-342053Y-155372D03*
D43*
X-342053Y-147955D03*
D57*
X-342053Y-144780D03*
D94*
X-342053Y-140335D03*
D46*
X-342053Y-135674D03*
X-342053Y-133134D03*
D57*
X-342053Y-115570D03*
X-342053Y-110490D03*
D46*
X-342053Y-97574D03*
D57*
X-342477Y-207442D03*
D58*
X-342477Y-202984D03*
D47*
X-342477Y-194945D03*
D46*
X-342477Y-189014D03*
D33*
X-342477Y-163398D03*
D75*
X-342477Y-155575D03*
D43*
X-342477Y-147955D03*
D57*
X-342477Y-144780D03*
D94*
X-342477Y-140335D03*
D57*
X-342477Y-135890D03*
D46*
X-342477Y-133134D03*
X-342477Y-115786D03*
D58*
X-342477Y-110706D03*
D73*
X-342477Y-107315D03*
D57*
X-342477Y-97790D03*
D50*
X-342900Y-207226D03*
D44*
X-342900Y-195161D03*
D50*
X-342900Y-189014D03*
D74*
X-342900Y-160236D03*
D45*
X-342900Y-151981D03*
D38*
X-342900Y-148374D03*
D59*
X-342900Y-144780D03*
D97*
X-342900Y-140335D03*
D59*
X-342900Y-135890D03*
D50*
X-342900Y-133134D03*
D55*
X-342900Y-116205D03*
D59*
X-342900Y-110922D03*
D50*
X-342900Y-106896D03*
D81*
X-342900Y-104559D03*
D59*
X-342900Y-98222D03*
D57*
X-343323Y-207010D03*
D33*
X-343323Y-195148D03*
D47*
X-343323Y-188595D03*
D24*
X-343323Y-160439D03*
D25*
X-343323Y-149860D03*
D57*
X-343323Y-144780D03*
D40*
X-343323Y-140119D03*
D57*
X-343323Y-135890D03*
D46*
X-343323Y-133134D03*
D57*
X-343323Y-116408D03*
D47*
X-343323Y-111125D03*
D46*
X-343323Y-106896D03*
X-343323Y-104356D03*
D47*
X-343323Y-98425D03*
D46*
X-343747Y-206794D03*
D61*
X-343747Y-195580D03*
D46*
X-343747Y-188176D03*
D67*
X-343747Y-160236D03*
D31*
X-343747Y-150914D03*
D57*
X-343747Y-147320D03*
X-343747Y-144780D03*
X-343747Y-142240D03*
X-343747Y-140132D03*
D46*
X-343747Y-138214D03*
D57*
X-343747Y-135890D03*
D46*
X-343747Y-133134D03*
X-343747Y-117056D03*
D43*
X-343747Y-110693D03*
D46*
X-343747Y-106896D03*
X-343747Y-103924D03*
D47*
X-343747Y-98425D03*
D59*
X-344170Y-206578D03*
D38*
X-344170Y-196634D03*
D76*
X-344170Y-193675D03*
D50*
X-344170Y-188176D03*
D37*
X-344170Y-160223D03*
D32*
X-344170Y-151346D03*
D59*
X-344170Y-147320D03*
X-344170Y-144780D03*
X-344170Y-142240D03*
D76*
X-344170Y-140335D03*
D50*
X-344170Y-138214D03*
D59*
X-344170Y-135890D03*
D50*
X-344170Y-133134D03*
X-344170Y-117056D03*
D38*
X-344170Y-110706D03*
D59*
X-344170Y-107112D03*
D50*
X-344170Y-103924D03*
D59*
X-344170Y-98628D03*
D47*
X-344593Y-206375D03*
D41*
X-344593Y-197485D03*
D46*
X-344593Y-193256D03*
X-344593Y-187744D03*
D39*
X-344593Y-160236D03*
X-344593Y-152184D03*
D57*
X-344593Y-147320D03*
X-344593Y-144780D03*
X-344593Y-142240D03*
D73*
X-344593Y-140335D03*
D46*
X-344593Y-138214D03*
D57*
X-344593Y-135890D03*
D46*
X-344593Y-133134D03*
D47*
X-344593Y-117475D03*
D29*
X-344593Y-109855D03*
D58*
X-344593Y-103924D03*
D57*
X-344593Y-99060D03*
X-345017Y-206172D03*
D39*
X-345017Y-197904D03*
D57*
X-345017Y-193040D03*
D47*
X-345017Y-187325D03*
D43*
X-345017Y-159817D03*
D34*
X-345017Y-152819D03*
D57*
X-345017Y-147320D03*
X-345017Y-144780D03*
D46*
X-345017Y-142456D03*
D57*
X-345017Y-140132D03*
D46*
X-345017Y-138214D03*
D57*
X-345017Y-135890D03*
D46*
X-345017Y-133134D03*
X-345017Y-117894D03*
D83*
X-345017Y-112179D03*
D33*
X-345017Y-109220D03*
D57*
X-345017Y-104140D03*
D46*
X-345017Y-99276D03*
D50*
X-345440Y-205956D03*
D72*
X-345440Y-198971D03*
D59*
X-345440Y-192608D03*
D50*
X-345440Y-186906D03*
D55*
X-345440Y-159385D03*
D45*
X-345440Y-153251D03*
D59*
X-345440Y-147320D03*
D50*
X-345440Y-144564D03*
D97*
X-345440Y-140335D03*
D50*
X-345440Y-136106D03*
X-345440Y-133134D03*
D54*
X-345440Y-118110D03*
D35*
X-345440Y-108382D03*
D59*
X-345440Y-104572D03*
D50*
X-345440Y-99276D03*
D57*
X-345863Y-205740D03*
D29*
X-345863Y-198755D03*
D57*
X-345863Y-192608D03*
D46*
X-345863Y-186474D03*
D57*
X-345863Y-159182D03*
D49*
X-345863Y-153251D03*
D57*
X-345863Y-147320D03*
D75*
X-345863Y-140335D03*
D46*
X-345863Y-133134D03*
D49*
X-345863Y-118529D03*
D39*
X-345863Y-107734D03*
D73*
X-345863Y-104775D03*
D57*
X-345863Y-99492D03*
D46*
X-346287Y-205524D03*
D49*
X-346287Y-199809D03*
X-346287Y-195999D03*
D46*
X-346287Y-192824D03*
D49*
X-346287Y-186271D03*
D47*
X-346287Y-159385D03*
D39*
X-346287Y-152616D03*
D57*
X-346287Y-147320D03*
D93*
X-346287Y-140119D03*
D46*
X-346287Y-133134D03*
D47*
X-346287Y-118745D03*
D31*
X-346287Y-106464D03*
D57*
X-346287Y-99898D03*
D55*
X-346710Y-205105D03*
X-346710Y-200025D03*
D45*
X-346710Y-195999D03*
D59*
X-346710Y-193040D03*
D45*
X-346710Y-185839D03*
X-346710Y-159169D03*
D38*
X-346710Y-152616D03*
D59*
X-346710Y-147320D03*
D100*
X-346710Y-140335D03*
D50*
X-346710Y-133134D03*
X-346710Y-119164D03*
D35*
X-346710Y-106248D03*
D50*
X-346710Y-100114D03*
D47*
X-347133Y-205105D03*
D57*
X-347133Y-199822D03*
D47*
X-347133Y-196215D03*
D46*
X-347133Y-185636D03*
D41*
X-347133Y-159385D03*
D57*
X-347133Y-151562D03*
X-347133Y-147320D03*
D46*
X-347133Y-133134D03*
X-347133Y-119596D03*
D43*
X-347133Y-106045D03*
D57*
X-347133Y-100330D03*
X-347557Y-204902D03*
D58*
X-347557Y-199606D03*
D57*
X-347557Y-196418D03*
D46*
X-347557Y-185204D03*
D42*
X-347557Y-159385D03*
D57*
X-347557Y-151130D03*
X-347557Y-147320D03*
D46*
X-347557Y-133134D03*
D47*
X-347557Y-120015D03*
X-347557Y-106045D03*
D46*
X-347557Y-100546D03*
D59*
X-347980Y-204470D03*
X-347980Y-199390D03*
D55*
X-347980Y-184785D03*
D50*
X-347980Y-161074D03*
X-347980Y-157696D03*
D59*
X-347980Y-151130D03*
X-347980Y-147320D03*
D100*
X-347980Y-140335D03*
D50*
X-347980Y-133134D03*
X-347980Y-120434D03*
D36*
X-347980Y-113665D03*
D55*
X-347980Y-106045D03*
X-347980Y-100965D03*
D46*
X-348403Y-204254D03*
D57*
X-348403Y-198958D03*
D46*
X-348403Y-184366D03*
X-348403Y-161074D03*
X-348403Y-157696D03*
X-348403Y-150914D03*
D57*
X-348403Y-147320D03*
D75*
X-348403Y-140335D03*
D46*
X-348403Y-133134D03*
D48*
X-348403Y-120650D03*
D41*
X-348403Y-113665D03*
D73*
X-348403Y-106045D03*
D47*
X-348403Y-100965D03*
D57*
X-348827Y-204038D03*
D43*
X-348827Y-197917D03*
D57*
X-348827Y-189662D03*
D46*
X-348827Y-183934D03*
D57*
X-348827Y-161290D03*
D48*
X-348827Y-157480D03*
D46*
X-348827Y-150914D03*
D57*
X-348827Y-147320D03*
D101*
X-348827Y-140335D03*
D46*
X-348827Y-133134D03*
D47*
X-348827Y-121285D03*
D29*
X-348827Y-113665D03*
D46*
X-348827Y-101384D03*
D55*
X-349250Y-203835D03*
D36*
X-349250Y-197917D03*
D55*
X-349250Y-189865D03*
X-349250Y-183515D03*
D59*
X-349250Y-161290D03*
D50*
X-349250Y-157696D03*
X-349250Y-150914D03*
D59*
X-349250Y-147320D03*
D54*
X-349250Y-144780D03*
D32*
X-349250Y-134404D03*
D45*
X-349250Y-121501D03*
D97*
X-349250Y-113665D03*
D59*
X-349250Y-101600D03*
D46*
X-349673Y-203416D03*
D57*
X-349673Y-198120D03*
D43*
X-349673Y-189433D03*
D46*
X-349673Y-183096D03*
D58*
X-349673Y-161506D03*
D46*
X-349673Y-157696D03*
D49*
X-349673Y-150711D03*
D39*
X-349673Y-146266D03*
D41*
X-349673Y-133985D03*
D46*
X-349673Y-122136D03*
D47*
X-349673Y-116205D03*
D43*
X-349673Y-111557D03*
D46*
X-349673Y-101816D03*
X-350097Y-203416D03*
D68*
X-350097Y-198120D03*
D34*
X-350097Y-189649D03*
D49*
X-350097Y-182461D03*
D58*
X-350097Y-161506D03*
D57*
X-350097Y-157912D03*
D49*
X-350097Y-150279D03*
D34*
X-350097Y-146469D03*
D41*
X-350097Y-133985D03*
D49*
X-350097Y-122339D03*
D57*
X-350097Y-116408D03*
D43*
X-350097Y-111125D03*
D57*
X-350097Y-102032D03*
D50*
X-350520Y-202984D03*
D63*
X-350520Y-189865D03*
D45*
X-350520Y-182029D03*
D56*
X-350520Y-161506D03*
D54*
X-350520Y-157480D03*
D50*
X-350520Y-150076D03*
D55*
X-350520Y-146685D03*
D56*
X-350520Y-133566D03*
D54*
X-350520Y-123190D03*
D59*
X-350520Y-116840D03*
D36*
X-350520Y-110693D03*
D59*
X-350520Y-102438D03*
D47*
X-350943Y-202565D03*
D39*
X-350943Y-190284D03*
D48*
X-350943Y-181610D03*
D57*
X-350943Y-161290D03*
D43*
X-350943Y-157277D03*
D46*
X-350943Y-150076D03*
D83*
X-350943Y-146901D03*
D49*
X-350943Y-123609D03*
D57*
X-350943Y-116840D03*
D48*
X-350943Y-110490D03*
D46*
X-350943Y-102654D03*
D47*
X-351367Y-202565D03*
D43*
X-351367Y-191135D03*
D49*
X-351367Y-181191D03*
X-351367Y-160871D03*
D41*
X-351367Y-156845D03*
D58*
X-351367Y-152184D03*
D49*
X-351367Y-150279D03*
X-351367Y-124041D03*
D57*
X-351367Y-116840D03*
D46*
X-351367Y-110274D03*
X-351367Y-103086D03*
D50*
X-351790Y-202146D03*
D36*
X-351790Y-191567D03*
D45*
X-351790Y-180759D03*
D36*
X-351790Y-160655D03*
D44*
X-351790Y-156629D03*
D35*
X-351790Y-151130D03*
D54*
X-351790Y-124460D03*
D50*
X-351790Y-117056D03*
X-351790Y-110274D03*
D59*
X-351790Y-103302D03*
D46*
X-352213Y-201714D03*
D53*
X-352213Y-191770D03*
D33*
X-352213Y-187960D03*
D49*
X-352213Y-179921D03*
D33*
X-352213Y-160020D03*
D47*
X-352213Y-155575D03*
D33*
X-352213Y-151562D03*
D43*
X-352213Y-125095D03*
D46*
X-352213Y-116624D03*
D57*
X-352213Y-110058D03*
D47*
X-352213Y-103505D03*
D57*
X-352637Y-201498D03*
D96*
X-352637Y-189649D03*
D49*
X-352637Y-179489D03*
D33*
X-352637Y-160020D03*
D46*
X-352637Y-155156D03*
D39*
X-352637Y-151346D03*
D43*
X-352637Y-125527D03*
D49*
X-352637Y-116421D03*
D57*
X-352637Y-110058D03*
D46*
X-352637Y-103924D03*
D50*
X-353060Y-200876D03*
D88*
X-353060Y-189865D03*
D36*
X-353060Y-178867D03*
D35*
X-353060Y-160020D03*
D50*
X-353060Y-154724D03*
D55*
X-353060Y-150495D03*
D45*
X-353060Y-126149D03*
X-353060Y-115989D03*
D59*
X-353060Y-110058D03*
D50*
X-353060Y-104356D03*
D46*
X-353483Y-200876D03*
D41*
X-353483Y-193675D03*
D40*
X-353483Y-188379D03*
D43*
X-353483Y-178435D03*
D30*
X-353483Y-159601D03*
D49*
X-353483Y-154521D03*
D47*
X-353483Y-150495D03*
D43*
X-353483Y-126797D03*
X-353483Y-115773D03*
D46*
X-353483Y-110274D03*
X-353483Y-104356D03*
X-353907Y-200444D03*
D34*
X-353907Y-193891D03*
D57*
X-353907Y-190068D03*
D43*
X-353907Y-177597D03*
D67*
X-353907Y-158966D03*
D98*
X-353907Y-152400D03*
D49*
X-353907Y-127419D03*
D58*
X-353907Y-120866D03*
D43*
X-353907Y-115367D03*
D57*
X-353907Y-110490D03*
D47*
X-353907Y-104775D03*
D55*
X-354330Y-200025D03*
D45*
X-354330Y-193891D03*
D59*
X-354330Y-190068D03*
D36*
X-354330Y-177165D03*
D50*
X-354330Y-161074D03*
D38*
X-354330Y-157696D03*
D37*
X-354330Y-152197D03*
D45*
X-354330Y-127851D03*
D50*
X-354330Y-120866D03*
D44*
X-354330Y-115151D03*
D59*
X-354330Y-110922D03*
D50*
X-354330Y-105194D03*
D47*
X-354753Y-200025D03*
D57*
X-354753Y-193878D03*
X-354753Y-190068D03*
D43*
X-354753Y-176327D03*
D46*
X-354753Y-161074D03*
D33*
X-354753Y-157480D03*
D42*
X-354753Y-151765D03*
D43*
X-354753Y-128473D03*
X-354753Y-120853D03*
D29*
X-354753Y-113233D03*
D46*
X-354753Y-105626D03*
X-355177Y-199606D03*
D57*
X-355177Y-193472D03*
D49*
X-355177Y-190081D03*
D73*
X-355177Y-183515D03*
D43*
X-355177Y-175895D03*
D57*
X-355177Y-160858D03*
D31*
X-355177Y-157264D03*
D39*
X-355177Y-150914D03*
D43*
X-355177Y-129337D03*
D34*
X-355177Y-121069D03*
D31*
X-355177Y-113246D03*
D49*
X-355177Y-105829D03*
D50*
X-355600Y-199174D03*
D32*
X-355600Y-191554D03*
D36*
X-355600Y-183083D03*
X-355600Y-175057D03*
D59*
X-355600Y-160452D03*
D60*
X-355600Y-155575D03*
D50*
X-355600Y-150076D03*
D36*
X-355600Y-130175D03*
D55*
X-355600Y-122555D03*
D36*
X-355600Y-113233D03*
D55*
X-355600Y-106045D03*
D47*
X-356023Y-198755D03*
D33*
X-356023Y-191338D03*
D39*
X-356023Y-183096D03*
D34*
X-356023Y-174409D03*
D46*
X-356023Y-160236D03*
D33*
X-356023Y-155372D03*
D46*
X-356023Y-150076D03*
D43*
X-356023Y-130607D03*
D46*
X-356023Y-122974D03*
D57*
X-356023Y-113030D03*
D46*
X-356023Y-106464D03*
X-356447Y-198336D03*
D34*
X-356447Y-191351D03*
D57*
X-356447Y-183718D03*
D46*
X-356447Y-181826D03*
D34*
X-356447Y-173571D03*
D46*
X-356447Y-159804D03*
D39*
X-356447Y-155156D03*
D46*
X-356447Y-150076D03*
D34*
X-356447Y-131661D03*
D48*
X-356447Y-123190D03*
D46*
X-356447Y-106896D03*
D50*
X-356870Y-198336D03*
D45*
X-356870Y-191351D03*
D50*
X-356870Y-181394D03*
D44*
X-356870Y-173139D03*
D45*
X-356870Y-159601D03*
D56*
X-356870Y-156426D03*
D55*
X-356870Y-154305D03*
D44*
X-356870Y-150711D03*
D52*
X-356870Y-132080D03*
D36*
X-356870Y-123393D03*
D55*
X-356870Y-107315D03*
D49*
X-357293Y-197701D03*
D57*
X-357293Y-181178D03*
D34*
X-357293Y-171869D03*
D33*
X-357293Y-158318D03*
D29*
X-357293Y-152603D03*
D53*
X-357293Y-133350D03*
X-357293Y-123190D03*
D46*
X-357293Y-107734D03*
D47*
X-357717Y-197485D03*
X-357717Y-180975D03*
D39*
X-357717Y-171234D03*
D102*
X-357717Y-154724D03*
D41*
X-357717Y-133985D03*
D34*
X-357717Y-122771D03*
D48*
X-357717Y-107950D03*
D54*
X-358140Y-196850D03*
D55*
X-358140Y-180975D03*
D38*
X-358140Y-169964D03*
D77*
X-358140Y-155372D03*
D63*
X-358140Y-135255D03*
D45*
X-358140Y-122339D03*
X-358140Y-108369D03*
D46*
X-358563Y-196634D03*
D49*
X-358563Y-181191D03*
D33*
X-358563Y-169342D03*
D29*
X-358563Y-155575D03*
D33*
X-358563Y-135890D03*
D48*
X-358563Y-121920D03*
D49*
X-358563Y-108801D03*
X-358987Y-195999D03*
D78*
X-358987Y-183515D03*
D31*
X-358987Y-167856D03*
X-358987Y-137376D03*
D49*
X-358987Y-121501D03*
D48*
X-358987Y-109220D03*
D50*
X-359410Y-195796D03*
D82*
X-359410Y-183934D03*
D60*
X-359410Y-167005D03*
D32*
X-359410Y-138214D03*
D89*
X-359410Y-128270D03*
D45*
X-359410Y-121069D03*
D50*
X-359410Y-109436D03*
D49*
X-359833Y-195161D03*
D26*
X-359833Y-183934D03*
D46*
X-359833Y-176314D03*
D61*
X-359833Y-165100D03*
D29*
X-359833Y-139903D03*
D39*
X-359833Y-128486D03*
D43*
X-359833Y-120853D03*
D49*
X-359833Y-110071D03*
D47*
X-360257Y-194945D03*
D49*
X-360257Y-186271D03*
D33*
X-360257Y-182880D03*
D49*
X-360257Y-176111D03*
D29*
X-360257Y-164033D03*
X-360257Y-140767D03*
D31*
X-360257Y-128486D03*
D48*
X-360257Y-120650D03*
D46*
X-360257Y-110274D03*
D54*
X-360680Y-194310D03*
D50*
X-360680Y-186474D03*
D36*
X-360680Y-175895D03*
D103*
X-360680Y-161290D03*
D104*
X-360680Y-143929D03*
D45*
X-360680Y-130391D03*
D54*
X-360680Y-127000D03*
D44*
X-360680Y-119799D03*
D45*
X-360680Y-110909D03*
D46*
X-361103Y-194094D03*
D57*
X-361103Y-186690D03*
D43*
X-361103Y-175895D03*
D99*
X-361103Y-159588D03*
X-361103Y-145618D03*
D46*
X-361103Y-130594D03*
D48*
X-361103Y-127000D03*
D53*
X-361103Y-119380D03*
D49*
X-361103Y-111341D03*
X-361527Y-193459D03*
D46*
X-361527Y-186474D03*
D48*
X-361527Y-176530D03*
D105*
X-361527Y-152603D03*
D46*
X-361527Y-131026D03*
D48*
X-361527Y-127000D03*
D43*
X-361527Y-119177D03*
D48*
X-361527Y-111760D03*
D50*
X-361950Y-193256D03*
D59*
X-361950Y-186258D03*
D54*
X-361950Y-176530D03*
D106*
X-361950Y-152616D03*
D50*
X-361950Y-131026D03*
D54*
X-361950Y-127000D03*
X-361950Y-119380D03*
D45*
X-361950Y-112179D03*
D49*
X-362373Y-192621D03*
D41*
X-362373Y-184785D03*
D49*
X-362373Y-176949D03*
D58*
X-362373Y-170396D03*
X-362373Y-131026D03*
D46*
X-362373Y-127216D03*
D57*
X-362373Y-119812D03*
D49*
X-362373Y-112611D03*
X-362797Y-192189D03*
D34*
X-362797Y-184569D03*
D47*
X-362797Y-177165D03*
D57*
X-362797Y-170180D03*
D46*
X-362797Y-127216D03*
D73*
X-362797Y-120015D03*
D48*
X-362797Y-113030D03*
D54*
X-363220Y-191770D03*
D50*
X-363220Y-184366D03*
D45*
X-363220Y-177381D03*
D36*
X-363220Y-169113D03*
D63*
X-363220Y-136525D03*
D55*
X-363220Y-127635D03*
D45*
X-363220Y-113881D03*
D49*
X-363643Y-191351D03*
D58*
X-363643Y-184366D03*
D49*
X-363643Y-177381D03*
D43*
X-363643Y-169113D03*
D42*
X-363643Y-136525D03*
D49*
X-363643Y-127851D03*
D43*
X-363643Y-114097D03*
D48*
X-364067Y-190500D03*
X-364067Y-177800D03*
D49*
X-364067Y-169761D03*
D48*
X-364067Y-138430D03*
D43*
X-364067Y-135255D03*
D46*
X-364067Y-128054D03*
D73*
X-364067Y-125095D03*
D49*
X-364067Y-114719D03*
D45*
X-364490Y-190081D03*
D50*
X-364490Y-178016D03*
D45*
X-364490Y-169761D03*
D50*
X-364490Y-164884D03*
D45*
X-364490Y-138849D03*
D36*
X-364490Y-134823D03*
D54*
X-364490Y-128270D03*
D59*
X-364490Y-124892D03*
D45*
X-364490Y-115151D03*
D43*
X-364913Y-189433D03*
D49*
X-364913Y-178219D03*
D48*
X-364913Y-170180D03*
D49*
X-364913Y-164249D03*
D47*
X-364913Y-139065D03*
D43*
X-364913Y-134417D03*
D46*
X-364913Y-128486D03*
X-364913Y-124676D03*
D43*
X-364913Y-115773D03*
D48*
X-365337Y-189230D03*
D49*
X-365337Y-178651D03*
D48*
X-365337Y-170180D03*
D49*
X-365337Y-164249D03*
D57*
X-365337Y-160020D03*
D46*
X-365337Y-139484D03*
D49*
X-365337Y-134201D03*
X-365337Y-128689D03*
D46*
X-365337Y-124676D03*
D43*
X-365337Y-116205D03*
D45*
X-365760Y-188379D03*
D36*
X-365760Y-179273D03*
D50*
X-365760Y-170396D03*
D55*
X-365760Y-164465D03*
D36*
X-365760Y-159385D03*
D35*
X-365760Y-153238D03*
D59*
X-365760Y-139700D03*
D55*
X-365760Y-133985D03*
D54*
X-365760Y-128270D03*
D45*
X-365760Y-125311D03*
D54*
X-365760Y-116840D03*
D48*
X-366183Y-187960D03*
D43*
X-366183Y-179273D03*
D46*
X-366183Y-170396D03*
D47*
X-366183Y-164465D03*
D43*
X-366183Y-159385D03*
D30*
X-366183Y-153251D03*
D46*
X-366183Y-139916D03*
D49*
X-366183Y-133769D03*
D61*
X-366183Y-127000D03*
D43*
X-366183Y-117475D03*
D49*
X-366607Y-187109D03*
D46*
X-366607Y-178854D03*
D49*
X-366607Y-170599D03*
D57*
X-366607Y-164262D03*
D49*
X-366607Y-159601D03*
D46*
X-366607Y-154724D03*
D49*
X-366607Y-151549D03*
D48*
X-366607Y-139700D03*
D49*
X-366607Y-133769D03*
D39*
X-366607Y-127216D03*
D48*
X-366607Y-118110D03*
D36*
X-367030Y-186893D03*
D59*
X-367030Y-178638D03*
D55*
X-367030Y-170815D03*
D59*
X-367030Y-164262D03*
D54*
X-367030Y-160020D03*
D59*
X-367030Y-154940D03*
D54*
X-367030Y-151130D03*
X-367030Y-139700D03*
D50*
X-367030Y-133566D03*
D36*
X-367030Y-127203D03*
D45*
X-367030Y-118529D03*
D43*
X-367453Y-186055D03*
D58*
X-367453Y-174206D03*
D49*
X-367453Y-171031D03*
D48*
X-367453Y-163830D03*
D46*
X-367453Y-160236D03*
D58*
X-367453Y-154724D03*
D46*
X-367453Y-150914D03*
X-367453Y-139484D03*
X-367453Y-133566D03*
D43*
X-367453Y-119177D03*
X-367877Y-185623D03*
D57*
X-367877Y-173990D03*
D46*
X-367877Y-171234D03*
D43*
X-367877Y-163195D03*
D49*
X-367877Y-160439D03*
D46*
X-367877Y-150914D03*
D49*
X-367877Y-139281D03*
D46*
X-367877Y-133566D03*
D43*
X-367877Y-120015D03*
D36*
X-368300Y-184785D03*
D50*
X-368300Y-174206D03*
X-368300Y-171234D03*
D72*
X-368300Y-162141D03*
D54*
X-368300Y-151130D03*
D45*
X-368300Y-139281D03*
D50*
X-368300Y-133566D03*
D36*
X-368300Y-120853D03*
D43*
X-368723Y-184353D03*
D48*
X-368723Y-173990D03*
X-368723Y-171450D03*
D30*
X-368723Y-162141D03*
D43*
X-368723Y-151333D03*
D47*
X-368723Y-139065D03*
D46*
X-368723Y-133566D03*
D43*
X-368723Y-121285D03*
D34*
X-369147Y-183299D03*
D31*
X-369147Y-172504D03*
D57*
X-369147Y-163830D03*
D46*
X-369147Y-161074D03*
D34*
X-369147Y-151981D03*
D49*
X-369147Y-138849D03*
D47*
X-369147Y-133985D03*
D43*
X-369147Y-122123D03*
D36*
X-369570Y-182677D03*
D63*
X-369570Y-172085D03*
D59*
X-369570Y-168910D03*
X-369570Y-163830D03*
D50*
X-369570Y-161074D03*
D38*
X-369570Y-152616D03*
D54*
X-369570Y-138430D03*
D55*
X-369570Y-133985D03*
D36*
X-369570Y-122555D03*
D43*
X-369993Y-181813D03*
D31*
X-369993Y-170396D03*
D33*
X-369993Y-162560D03*
D39*
X-369993Y-153454D03*
D40*
X-369993Y-136309D03*
D34*
X-369993Y-123609D03*
X-370417Y-181191D03*
D39*
X-370417Y-169964D03*
X-370417Y-162776D03*
D53*
X-370417Y-153670D03*
D29*
X-370417Y-136525D03*
D34*
X-370417Y-124041D03*
D52*
X-370840Y-180340D03*
D59*
X-370840Y-169342D03*
D38*
X-370840Y-162776D03*
D45*
X-370840Y-154521D03*
D44*
X-370840Y-136741D03*
X-370840Y-125311D03*
D34*
X-371263Y-179489D03*
D53*
X-371263Y-162560D03*
D49*
X-371263Y-154521D03*
D57*
X-371263Y-136728D03*
D53*
X-371263Y-125730D03*
D41*
X-371687Y-178435D03*
D43*
X-371687Y-162763D03*
D46*
X-371687Y-154724D03*
D57*
X-371687Y-151130D03*
D53*
X-371687Y-127000D03*
D38*
X-372110Y-178016D03*
D50*
X-372110Y-162776D03*
D45*
X-372110Y-154521D03*
D59*
X-372110Y-151130D03*
D44*
X-372110Y-127419D03*
D39*
X-372533Y-176746D03*
D46*
X-372533Y-162776D03*
D49*
X-372533Y-154089D03*
D43*
X-372533Y-151333D03*
D41*
X-372533Y-128905D03*
X-372957Y-175895D03*
D30*
X-372957Y-152819D03*
D39*
X-372957Y-129324D03*
D35*
X-373380Y-174422D03*
D38*
X-373380Y-152616D03*
D35*
X-373380Y-130810D03*
D33*
X-373803Y-173990D03*
D58*
X-373803Y-152616D03*
D33*
X-373803Y-131648D03*
D42*
X-374227Y-172085D03*
D31*
X-374227Y-133134D03*
D32*
X-374650Y-171234D03*
D60*
X-374650Y-133985D03*
D29*
X-375073Y-169545D03*
X-375073Y-136093D03*
X-375497Y-168707D03*
X-375497Y-136957D03*
D77*
X-375920Y-165938D03*
X-375920Y-139268D03*
D26*
X-376343Y-164884D03*
X-376343Y-140754D03*
D86*
X-376767Y-160020D03*
D107*
X-376767Y-145415D03*
D108*
X-377190Y-152616D03*
D109*
X-377613Y-152616D03*
D85*
X-378037Y-152616D03*
D14*
X90801Y286730D02*
X91606Y287535D01*
X90801Y286730D02*
X90801Y285120D01*
X91606Y284315D01*
X94826Y284315D01*
X95631Y285120D01*
X95631Y286730D01*
X94826Y287535D01*
X91606Y289928D02*
X90801Y290733D01*
X90801Y292343D01*
X91606Y293148D01*
X92411Y293148D01*
X93216Y292343D01*
X93216Y291538D01*
X93216Y292343D02*
X94021Y293148D01*
X94826Y293148D01*
X95631Y292343D01*
X95631Y290733D01*
X94826Y289928D01*
X95631Y295542D02*
X95631Y298762D01*
X95631Y295542D02*
X92411Y298762D01*
X91606Y298762D01*
X90801Y297957D01*
X90801Y296347D01*
X91606Y295542D01*
D110*
X115900Y335600D02*
X115902Y335663D01*
X115908Y335725D01*
X115918Y335787D01*
X115931Y335849D01*
X115949Y335909D01*
X115970Y335968D01*
X115995Y336026D01*
X116024Y336082D01*
X116056Y336136D01*
X116091Y336188D01*
X116129Y336237D01*
X116171Y336285D01*
X116215Y336329D01*
X116263Y336371D01*
X116312Y336409D01*
X116364Y336444D01*
X116418Y336476D01*
X116474Y336505D01*
X116532Y336530D01*
X116591Y336551D01*
X116651Y336569D01*
X116713Y336582D01*
X116775Y336592D01*
X116837Y336598D01*
X116900Y336600D01*
X116963Y336598D01*
X117025Y336592D01*
X117087Y336582D01*
X117149Y336569D01*
X117209Y336551D01*
X117268Y336530D01*
X117326Y336505D01*
X117382Y336476D01*
X117436Y336444D01*
X117488Y336409D01*
X117537Y336371D01*
X117585Y336329D01*
X117629Y336285D01*
X117671Y336237D01*
X117709Y336188D01*
X117744Y336136D01*
X117776Y336082D01*
X117805Y336026D01*
X117830Y335968D01*
X117851Y335909D01*
X117869Y335849D01*
X117882Y335787D01*
X117892Y335725D01*
X117898Y335663D01*
X117900Y335600D01*
X117898Y335537D01*
X117892Y335475D01*
X117882Y335413D01*
X117869Y335351D01*
X117851Y335291D01*
X117830Y335232D01*
X117805Y335174D01*
X117776Y335118D01*
X117744Y335064D01*
X117709Y335012D01*
X117671Y334963D01*
X117629Y334915D01*
X117585Y334871D01*
X117537Y334829D01*
X117488Y334791D01*
X117436Y334756D01*
X117382Y334724D01*
X117326Y334695D01*
X117268Y334670D01*
X117209Y334649D01*
X117149Y334631D01*
X117087Y334618D01*
X117025Y334608D01*
X116963Y334602D01*
X116900Y334600D01*
X116837Y334602D01*
X116775Y334608D01*
X116713Y334618D01*
X116651Y334631D01*
X116591Y334649D01*
X116532Y334670D01*
X116474Y334695D01*
X116418Y334724D01*
X116364Y334756D01*
X116312Y334791D01*
X116263Y334829D01*
X116215Y334871D01*
X116171Y334915D01*
X116129Y334963D01*
X116091Y335012D01*
X116056Y335064D01*
X116024Y335118D01*
X115995Y335174D01*
X115970Y335232D01*
X115949Y335291D01*
X115931Y335351D01*
X115918Y335413D01*
X115908Y335475D01*
X115902Y335537D01*
X115900Y335600D01*
D14*
X112900Y338600D02*
X112900Y332600D01*
X105900Y332600D01*
X71900Y332600D02*
X64900Y332600D01*
X64900Y338600D01*
X105900Y378600D02*
X112900Y378600D01*
X71900Y378600D02*
X64900Y378600D01*
X64900Y372600D01*
X112900Y372600D02*
X112900Y378600D01*
D19*
X91631Y321062D02*
X91631Y315130D01*
X92818Y313944D01*
X95190Y313944D01*
X96377Y315130D01*
X96377Y321062D01*
X98648Y319876D02*
X99834Y321062D01*
X102207Y321062D01*
X103393Y319876D01*
X103393Y318689D01*
X102207Y317503D01*
X101020Y317503D01*
X102207Y317503D02*
X103393Y316317D01*
X103393Y315130D01*
X102207Y313944D01*
X99834Y313944D01*
X98648Y315130D01*
D14*
X178431Y284315D02*
X183261Y284315D01*
X178431Y284315D02*
X178431Y286730D01*
X179236Y287535D01*
X180846Y287535D01*
X181651Y286730D01*
X181651Y284315D01*
X181651Y285925D02*
X183261Y287535D01*
X179236Y289928D02*
X178431Y290733D01*
X178431Y292343D01*
X179236Y293148D01*
X180041Y293148D01*
X180846Y292343D01*
X180846Y291538D01*
X180846Y292343D02*
X181651Y293148D01*
X182456Y293148D01*
X183261Y292343D01*
X183261Y290733D01*
X182456Y289928D01*
X183261Y295542D02*
X183261Y298762D01*
X183261Y295542D02*
X180041Y298762D01*
X179236Y298762D01*
X178431Y297957D01*
X178431Y296347D01*
X179236Y295542D01*
X162941Y284315D02*
X158111Y284315D01*
X158111Y286730D01*
X158916Y287535D01*
X160526Y287535D01*
X161331Y286730D01*
X161331Y284315D01*
X161331Y285925D02*
X162941Y287535D01*
X158916Y289928D02*
X158111Y290733D01*
X158111Y292343D01*
X158916Y293148D01*
X159721Y293148D01*
X160526Y292343D01*
X160526Y291538D01*
X160526Y292343D02*
X161331Y293148D01*
X162136Y293148D01*
X162941Y292343D01*
X162941Y290733D01*
X162136Y289928D01*
X159721Y295542D02*
X158111Y297152D01*
X162941Y297152D01*
X162941Y295542D02*
X162941Y298762D01*
D111*
X132937Y263398D02*
X132937Y216662D01*
X168053Y267208D02*
X168166Y267224D01*
X168280Y267235D01*
X168394Y267242D01*
X168508Y267246D01*
X168623Y267245D01*
X168737Y267241D01*
X168851Y267233D01*
X168965Y267221D01*
X169078Y267205D01*
X169190Y267185D01*
X169302Y267161D01*
X169413Y267134D01*
X169523Y267102D01*
X169632Y267067D01*
X169740Y267029D01*
X169846Y266986D01*
X169950Y266940D01*
X170054Y266891D01*
X170155Y266838D01*
X170254Y266782D01*
X170352Y266722D01*
X170447Y266659D01*
X170540Y266592D01*
X170631Y266523D01*
X170719Y266451D01*
X170805Y266375D01*
X170889Y266297D01*
X170969Y266216D01*
X171047Y266132D01*
X171122Y266045D01*
X171193Y265956D01*
X171262Y265865D01*
X171328Y265771D01*
X171390Y265676D01*
X171449Y265578D01*
X171505Y265478D01*
X171557Y265376D01*
X171606Y265273D01*
X171651Y265168D01*
X171692Y265061D01*
X171730Y264953D01*
X171765Y264844D01*
X171795Y264734D01*
X171822Y264623D01*
X171844Y264511D01*
X171863Y264398D01*
X132937Y216662D02*
X132954Y216532D01*
X132975Y216403D01*
X133000Y216274D01*
X133028Y216146D01*
X133061Y216019D01*
X133097Y215893D01*
X133138Y215768D01*
X133182Y215645D01*
X133229Y215523D01*
X133281Y215402D01*
X133335Y215283D01*
X133394Y215166D01*
X133456Y215051D01*
X133521Y214937D01*
X133590Y214825D01*
X133663Y214716D01*
X133738Y214609D01*
X133817Y214504D01*
X133899Y214402D01*
X133984Y214302D01*
X134071Y214205D01*
X134162Y214110D01*
X134256Y214018D01*
X134352Y213929D01*
X134451Y213843D01*
X134552Y213761D01*
X134656Y213681D01*
X134763Y213604D01*
X134871Y213531D01*
X134982Y213461D01*
X135095Y213394D01*
X135210Y213331D01*
X135326Y213271D01*
X135445Y213215D01*
X135565Y213162D01*
X135686Y213113D01*
X135809Y213068D01*
X135934Y213026D01*
X136059Y212988D01*
X136186Y212955D01*
X136313Y212924D01*
X136442Y212898D01*
X136571Y212876D01*
X136701Y212857D01*
X136831Y212843D01*
X136962Y212832D01*
X137093Y212826D01*
X137224Y212823D01*
X137355Y212824D01*
X137486Y212830D01*
X137616Y212839D01*
X137747Y212852D01*
X132937Y263398D02*
X132939Y263520D01*
X132945Y263642D01*
X132955Y263764D01*
X132968Y263885D01*
X132986Y264006D01*
X133007Y264126D01*
X133032Y264246D01*
X133061Y264365D01*
X133094Y264482D01*
X133131Y264599D01*
X133171Y264714D01*
X133215Y264828D01*
X133263Y264940D01*
X133314Y265051D01*
X133369Y265160D01*
X133427Y265268D01*
X133489Y265373D01*
X133554Y265477D01*
X133622Y265578D01*
X133693Y265677D01*
X133768Y265774D01*
X133846Y265868D01*
X133926Y265960D01*
X134010Y266049D01*
X134096Y266135D01*
X134185Y266219D01*
X134277Y266299D01*
X134371Y266377D01*
X134468Y266452D01*
X134567Y266523D01*
X134668Y266591D01*
X134772Y266656D01*
X134877Y266718D01*
X134985Y266776D01*
X135094Y266831D01*
X135205Y266882D01*
X135317Y266930D01*
X135431Y266974D01*
X135546Y267014D01*
X135663Y267051D01*
X135780Y267084D01*
X135899Y267113D01*
X136019Y267138D01*
X136139Y267159D01*
X136260Y267177D01*
X136381Y267190D01*
X136503Y267200D01*
X136625Y267206D01*
X136747Y267208D01*
X171863Y216663D02*
X171878Y216549D01*
X171890Y216435D01*
X171897Y216321D01*
X171901Y216207D01*
X171900Y216093D01*
X171896Y215978D01*
X171888Y215864D01*
X171876Y215751D01*
X171860Y215638D01*
X171840Y215525D01*
X171816Y215413D01*
X171789Y215302D01*
X171758Y215192D01*
X171723Y215083D01*
X171684Y214976D01*
X171642Y214869D01*
X171596Y214765D01*
X171546Y214662D01*
X171493Y214560D01*
X171437Y214461D01*
X171377Y214363D01*
X171314Y214268D01*
X171248Y214175D01*
X171178Y214084D01*
X171106Y213996D01*
X171030Y213910D01*
X170952Y213827D01*
X170871Y213746D01*
X170787Y213668D01*
X170701Y213594D01*
X170612Y213522D01*
X170520Y213453D01*
X170427Y213387D01*
X170331Y213325D01*
X170233Y213266D01*
X170133Y213210D01*
X170031Y213158D01*
X169928Y213110D01*
X169823Y213064D01*
X169716Y213023D01*
X169608Y212985D01*
X169499Y212951D01*
X169389Y212921D01*
X169278Y212894D01*
X169166Y212871D01*
X169053Y212852D01*
X171863Y216662D02*
X171863Y264398D01*
X168053Y267208D02*
X136747Y267208D01*
X146304Y213360D02*
X146306Y213518D01*
X146312Y213677D01*
X146322Y213835D01*
X146336Y213992D01*
X146353Y214150D01*
X146375Y214306D01*
X146400Y214463D01*
X146430Y214618D01*
X146463Y214773D01*
X146500Y214927D01*
X146541Y215080D01*
X146586Y215232D01*
X146635Y215382D01*
X146687Y215532D01*
X146743Y215680D01*
X146803Y215827D01*
X146866Y215972D01*
X146933Y216115D01*
X147003Y216257D01*
X147077Y216397D01*
X147155Y216535D01*
X147236Y216671D01*
X147320Y216805D01*
X147407Y216937D01*
X147498Y217067D01*
X147592Y217194D01*
X147689Y217319D01*
X147790Y217442D01*
X147893Y217562D01*
X147999Y217679D01*
X148108Y217794D01*
X148220Y217906D01*
X148335Y218015D01*
X148452Y218121D01*
X148572Y218224D01*
X148695Y218325D01*
X148820Y218422D01*
X148947Y218516D01*
X149077Y218607D01*
X149209Y218694D01*
X149343Y218778D01*
X149479Y218859D01*
X149617Y218937D01*
X149757Y219011D01*
X149899Y219081D01*
X150042Y219148D01*
X150187Y219211D01*
X150334Y219271D01*
X150482Y219327D01*
X150632Y219379D01*
X150782Y219428D01*
X150934Y219473D01*
X151087Y219514D01*
X151241Y219551D01*
X151396Y219584D01*
X151551Y219614D01*
X151708Y219639D01*
X151864Y219661D01*
X152022Y219678D01*
X152179Y219692D01*
X152337Y219702D01*
X152496Y219708D01*
X152654Y219710D01*
X152812Y219708D01*
X152971Y219702D01*
X153129Y219692D01*
X153286Y219678D01*
X153444Y219661D01*
X153600Y219639D01*
X153757Y219614D01*
X153912Y219584D01*
X154067Y219551D01*
X154221Y219514D01*
X154374Y219473D01*
X154526Y219428D01*
X154676Y219379D01*
X154826Y219327D01*
X154974Y219271D01*
X155121Y219211D01*
X155266Y219148D01*
X155409Y219081D01*
X155551Y219011D01*
X155691Y218937D01*
X155829Y218859D01*
X155965Y218778D01*
X156099Y218694D01*
X156231Y218607D01*
X156361Y218516D01*
X156488Y218422D01*
X156613Y218325D01*
X156736Y218224D01*
X156856Y218121D01*
X156973Y218015D01*
X157088Y217906D01*
X157200Y217794D01*
X157309Y217679D01*
X157415Y217562D01*
X157518Y217442D01*
X157619Y217319D01*
X157716Y217194D01*
X157810Y217067D01*
X157901Y216937D01*
X157988Y216805D01*
X158072Y216671D01*
X158153Y216535D01*
X158231Y216397D01*
X158305Y216257D01*
X158375Y216115D01*
X158442Y215972D01*
X158505Y215827D01*
X158565Y215680D01*
X158621Y215532D01*
X158673Y215382D01*
X158722Y215232D01*
X158767Y215080D01*
X158808Y214927D01*
X158845Y214773D01*
X158878Y214618D01*
X158908Y214463D01*
X158933Y214306D01*
X158955Y214150D01*
X158972Y213992D01*
X158986Y213835D01*
X158996Y213677D01*
X159002Y213518D01*
X159004Y213360D01*
X146304Y212852D02*
X137874Y212852D01*
X159004Y212852D02*
X169053Y212852D01*
D14*
X147422Y207649D02*
X147422Y203624D01*
X148227Y202819D01*
X149837Y202819D01*
X150642Y203624D01*
X150642Y207649D01*
X154645Y206844D02*
X156255Y207649D01*
X154645Y206844D02*
X153035Y205234D01*
X153035Y203624D01*
X153840Y202819D01*
X155450Y202819D01*
X156255Y203624D01*
X156255Y204429D01*
X155450Y205234D01*
X153035Y205234D01*
X177415Y286730D02*
X178220Y287535D01*
X177415Y286730D02*
X177415Y285120D01*
X178220Y284315D01*
X181440Y284315D01*
X182245Y285120D01*
X182245Y286730D01*
X181440Y287535D01*
X178220Y291538D02*
X177415Y293149D01*
X178220Y291538D02*
X179830Y289928D01*
X181440Y289928D01*
X182245Y290733D01*
X182245Y292344D01*
X181440Y293149D01*
X180635Y293149D01*
X179830Y292344D01*
X179830Y289928D01*
X179025Y295542D02*
X177415Y297152D01*
X182245Y297152D01*
X182245Y295542D02*
X182245Y298762D01*
X72556Y287535D02*
X71751Y286730D01*
X71751Y285120D01*
X72556Y284315D01*
X75776Y284315D01*
X76581Y285120D01*
X76581Y286730D01*
X75776Y287535D01*
X72556Y289928D02*
X71751Y290733D01*
X71751Y292343D01*
X72556Y293148D01*
X73361Y293148D01*
X74166Y292343D01*
X74166Y291538D01*
X74166Y292343D02*
X74971Y293148D01*
X75776Y293148D01*
X76581Y292343D01*
X76581Y290733D01*
X75776Y289928D01*
X73361Y295542D02*
X71751Y297152D01*
X76581Y297152D01*
X76581Y295542D02*
X76581Y298762D01*
X2706Y287535D02*
X1901Y286730D01*
X1901Y285120D01*
X2706Y284315D01*
X5926Y284315D01*
X6731Y285120D01*
X6731Y286730D01*
X5926Y287535D01*
X6731Y292343D02*
X1901Y292343D01*
X4316Y289928D01*
X4316Y293148D01*
X6731Y295542D02*
X6731Y298762D01*
X6731Y295542D02*
X3511Y298762D01*
X2706Y298762D01*
X1901Y297957D01*
X1901Y296347D01*
X2706Y295542D01*
X33651Y401155D02*
X38481Y401155D01*
X33651Y401155D02*
X33651Y403570D01*
X34456Y404375D01*
X36066Y404375D01*
X36871Y403570D01*
X36871Y401155D01*
X36871Y402765D02*
X38481Y404375D01*
X38481Y409183D02*
X33651Y409183D01*
X36066Y406768D01*
X36066Y409988D01*
X38481Y412382D02*
X38481Y415602D01*
X38481Y412382D02*
X35261Y415602D01*
X34456Y415602D01*
X33651Y414797D01*
X33651Y413187D01*
X34456Y412382D01*
X-16344Y287535D02*
X-17149Y286730D01*
X-17149Y285120D01*
X-16344Y284315D01*
X-13124Y284315D01*
X-12319Y285120D01*
X-12319Y286730D01*
X-13124Y287535D01*
X-12319Y292343D02*
X-17149Y292343D01*
X-14734Y289928D01*
X-14734Y293148D01*
X-15539Y295542D02*
X-17149Y297152D01*
X-12319Y297152D01*
X-12319Y295542D02*
X-12319Y298762D01*
X14601Y401155D02*
X19431Y401155D01*
X14601Y401155D02*
X14601Y403570D01*
X15406Y404375D01*
X17016Y404375D01*
X17821Y403570D01*
X17821Y401155D01*
X17821Y402765D02*
X19431Y404375D01*
X19431Y409183D02*
X14601Y409183D01*
X17016Y406768D01*
X17016Y409988D01*
X16211Y412382D02*
X14601Y413992D01*
X19431Y413992D01*
X19431Y412382D02*
X19431Y415602D01*
X-86194Y287535D02*
X-86999Y286730D01*
X-86999Y285120D01*
X-86194Y284315D01*
X-82974Y284315D01*
X-82169Y285120D01*
X-82169Y286730D01*
X-82974Y287535D01*
X-86999Y289928D02*
X-86999Y293148D01*
X-86999Y289928D02*
X-84584Y289928D01*
X-85389Y291538D01*
X-85389Y292343D01*
X-84584Y293148D01*
X-82974Y293148D01*
X-82169Y292343D01*
X-82169Y290733D01*
X-82974Y289928D01*
X-82169Y295542D02*
X-82169Y298762D01*
X-82169Y295542D02*
X-85389Y298762D01*
X-86194Y298762D01*
X-86999Y297957D01*
X-86999Y296347D01*
X-86194Y295542D01*
X-55249Y401155D02*
X-50419Y401155D01*
X-55249Y401155D02*
X-55249Y403570D01*
X-54444Y404375D01*
X-52834Y404375D01*
X-52029Y403570D01*
X-52029Y401155D01*
X-52029Y402765D02*
X-50419Y404375D01*
X-55249Y406768D02*
X-55249Y409988D01*
X-55249Y406768D02*
X-52834Y406768D01*
X-53639Y408378D01*
X-53639Y409183D01*
X-52834Y409988D01*
X-51224Y409988D01*
X-50419Y409183D01*
X-50419Y407573D01*
X-51224Y406768D01*
X-50419Y412382D02*
X-50419Y415602D01*
X-50419Y412382D02*
X-53639Y415602D01*
X-54444Y415602D01*
X-55249Y414797D01*
X-55249Y413187D01*
X-54444Y412382D01*
X-105244Y287535D02*
X-106049Y286730D01*
X-106049Y285120D01*
X-105244Y284315D01*
X-102024Y284315D01*
X-101219Y285120D01*
X-101219Y286730D01*
X-102024Y287535D01*
X-106049Y289928D02*
X-106049Y293148D01*
X-106049Y289928D02*
X-103634Y289928D01*
X-104439Y291538D01*
X-104439Y292343D01*
X-103634Y293148D01*
X-102024Y293148D01*
X-101219Y292343D01*
X-101219Y290733D01*
X-102024Y289928D01*
X-104439Y295542D02*
X-106049Y297152D01*
X-101219Y297152D01*
X-101219Y295542D02*
X-101219Y298762D01*
X-74299Y401155D02*
X-69469Y401155D01*
X-74299Y401155D02*
X-74299Y403570D01*
X-73494Y404375D01*
X-71884Y404375D01*
X-71079Y403570D01*
X-71079Y401155D01*
X-71079Y402765D02*
X-69469Y404375D01*
X-74299Y406768D02*
X-74299Y409988D01*
X-74299Y406768D02*
X-71884Y406768D01*
X-72689Y408378D01*
X-72689Y409183D01*
X-71884Y409988D01*
X-70274Y409988D01*
X-69469Y409183D01*
X-69469Y407573D01*
X-70274Y406768D01*
X-72689Y412382D02*
X-74299Y413992D01*
X-69469Y413992D01*
X-69469Y412382D02*
X-69469Y415602D01*
D110*
X-61900Y335600D02*
X-61898Y335663D01*
X-61892Y335725D01*
X-61882Y335787D01*
X-61869Y335849D01*
X-61851Y335909D01*
X-61830Y335968D01*
X-61805Y336026D01*
X-61776Y336082D01*
X-61744Y336136D01*
X-61709Y336188D01*
X-61671Y336237D01*
X-61629Y336285D01*
X-61585Y336329D01*
X-61537Y336371D01*
X-61488Y336409D01*
X-61436Y336444D01*
X-61382Y336476D01*
X-61326Y336505D01*
X-61268Y336530D01*
X-61209Y336551D01*
X-61149Y336569D01*
X-61087Y336582D01*
X-61025Y336592D01*
X-60963Y336598D01*
X-60900Y336600D01*
X-60837Y336598D01*
X-60775Y336592D01*
X-60713Y336582D01*
X-60651Y336569D01*
X-60591Y336551D01*
X-60532Y336530D01*
X-60474Y336505D01*
X-60418Y336476D01*
X-60364Y336444D01*
X-60312Y336409D01*
X-60263Y336371D01*
X-60215Y336329D01*
X-60171Y336285D01*
X-60129Y336237D01*
X-60091Y336188D01*
X-60056Y336136D01*
X-60024Y336082D01*
X-59995Y336026D01*
X-59970Y335968D01*
X-59949Y335909D01*
X-59931Y335849D01*
X-59918Y335787D01*
X-59908Y335725D01*
X-59902Y335663D01*
X-59900Y335600D01*
X-59902Y335537D01*
X-59908Y335475D01*
X-59918Y335413D01*
X-59931Y335351D01*
X-59949Y335291D01*
X-59970Y335232D01*
X-59995Y335174D01*
X-60024Y335118D01*
X-60056Y335064D01*
X-60091Y335012D01*
X-60129Y334963D01*
X-60171Y334915D01*
X-60215Y334871D01*
X-60263Y334829D01*
X-60312Y334791D01*
X-60364Y334756D01*
X-60418Y334724D01*
X-60474Y334695D01*
X-60532Y334670D01*
X-60591Y334649D01*
X-60651Y334631D01*
X-60713Y334618D01*
X-60775Y334608D01*
X-60837Y334602D01*
X-60900Y334600D01*
X-60963Y334602D01*
X-61025Y334608D01*
X-61087Y334618D01*
X-61149Y334631D01*
X-61209Y334649D01*
X-61268Y334670D01*
X-61326Y334695D01*
X-61382Y334724D01*
X-61436Y334756D01*
X-61488Y334791D01*
X-61537Y334829D01*
X-61585Y334871D01*
X-61629Y334915D01*
X-61671Y334963D01*
X-61709Y335012D01*
X-61744Y335064D01*
X-61776Y335118D01*
X-61805Y335174D01*
X-61830Y335232D01*
X-61851Y335291D01*
X-61869Y335351D01*
X-61882Y335413D01*
X-61892Y335475D01*
X-61898Y335537D01*
X-61900Y335600D01*
D14*
X-64900Y338600D02*
X-64900Y332600D01*
X-71900Y332600D01*
X-105900Y332600D02*
X-112900Y332600D01*
X-112900Y338600D01*
X-71900Y378600D02*
X-64900Y378600D01*
X-105900Y378600D02*
X-112900Y378600D01*
X-112900Y372600D01*
X-64900Y372600D02*
X-64900Y378600D01*
D19*
X-86169Y321062D02*
X-86169Y315130D01*
X-84982Y313944D01*
X-82610Y313944D01*
X-81423Y315130D01*
X-81423Y321062D01*
X-79152Y321062D02*
X-74407Y321062D01*
X-79152Y321062D02*
X-79152Y317503D01*
X-76780Y318689D01*
X-75593Y318689D01*
X-74407Y317503D01*
X-74407Y315130D01*
X-75593Y313944D01*
X-77966Y313944D01*
X-79152Y315130D01*
D110*
X27000Y335600D02*
X27002Y335663D01*
X27008Y335725D01*
X27018Y335787D01*
X27031Y335849D01*
X27049Y335909D01*
X27070Y335968D01*
X27095Y336026D01*
X27124Y336082D01*
X27156Y336136D01*
X27191Y336188D01*
X27229Y336237D01*
X27271Y336285D01*
X27315Y336329D01*
X27363Y336371D01*
X27412Y336409D01*
X27464Y336444D01*
X27518Y336476D01*
X27574Y336505D01*
X27632Y336530D01*
X27691Y336551D01*
X27751Y336569D01*
X27813Y336582D01*
X27875Y336592D01*
X27937Y336598D01*
X28000Y336600D01*
X28063Y336598D01*
X28125Y336592D01*
X28187Y336582D01*
X28249Y336569D01*
X28309Y336551D01*
X28368Y336530D01*
X28426Y336505D01*
X28482Y336476D01*
X28536Y336444D01*
X28588Y336409D01*
X28637Y336371D01*
X28685Y336329D01*
X28729Y336285D01*
X28771Y336237D01*
X28809Y336188D01*
X28844Y336136D01*
X28876Y336082D01*
X28905Y336026D01*
X28930Y335968D01*
X28951Y335909D01*
X28969Y335849D01*
X28982Y335787D01*
X28992Y335725D01*
X28998Y335663D01*
X29000Y335600D01*
X28998Y335537D01*
X28992Y335475D01*
X28982Y335413D01*
X28969Y335351D01*
X28951Y335291D01*
X28930Y335232D01*
X28905Y335174D01*
X28876Y335118D01*
X28844Y335064D01*
X28809Y335012D01*
X28771Y334963D01*
X28729Y334915D01*
X28685Y334871D01*
X28637Y334829D01*
X28588Y334791D01*
X28536Y334756D01*
X28482Y334724D01*
X28426Y334695D01*
X28368Y334670D01*
X28309Y334649D01*
X28249Y334631D01*
X28187Y334618D01*
X28125Y334608D01*
X28063Y334602D01*
X28000Y334600D01*
X27937Y334602D01*
X27875Y334608D01*
X27813Y334618D01*
X27751Y334631D01*
X27691Y334649D01*
X27632Y334670D01*
X27574Y334695D01*
X27518Y334724D01*
X27464Y334756D01*
X27412Y334791D01*
X27363Y334829D01*
X27315Y334871D01*
X27271Y334915D01*
X27229Y334963D01*
X27191Y335012D01*
X27156Y335064D01*
X27124Y335118D01*
X27095Y335174D01*
X27070Y335232D01*
X27049Y335291D01*
X27031Y335351D01*
X27018Y335413D01*
X27008Y335475D01*
X27002Y335537D01*
X27000Y335600D01*
D14*
X24000Y338600D02*
X24000Y332600D01*
X17000Y332600D01*
X-17000Y332600D02*
X-24000Y332600D01*
X-24000Y338600D01*
X17000Y378600D02*
X24000Y378600D01*
X-17000Y378600D02*
X-24000Y378600D01*
X-24000Y372600D01*
X24000Y372600D02*
X24000Y378600D01*
D19*
X2731Y321062D02*
X2731Y315130D01*
X3918Y313944D01*
X6290Y313944D01*
X7477Y315130D01*
X7477Y321062D01*
X13307Y321062D02*
X13307Y313944D01*
X9748Y317503D02*
X13307Y321062D01*
X14493Y317503D02*
X9748Y317503D01*
D14*
X117471Y287122D02*
X122301Y287122D01*
X117471Y287122D02*
X117471Y289537D01*
X118276Y290342D01*
X119886Y290342D01*
X120691Y289537D01*
X120691Y287122D01*
X120691Y288732D02*
X122301Y290342D01*
X117471Y292735D02*
X117471Y295955D01*
X117471Y292735D02*
X119886Y292735D01*
X119081Y294345D01*
X119081Y295150D01*
X119886Y295955D01*
X121496Y295955D01*
X122301Y295150D01*
X122301Y293540D01*
X121496Y292735D01*
X137791Y287122D02*
X142621Y287122D01*
X137791Y287122D02*
X137791Y289537D01*
X138596Y290342D01*
X140206Y290342D01*
X141011Y289537D01*
X141011Y287122D01*
X141011Y288732D02*
X142621Y290342D01*
X142621Y295150D02*
X137791Y295150D01*
X140206Y292735D01*
X140206Y295955D01*
X258695Y195415D02*
X263525Y195415D01*
X258695Y195415D02*
X258695Y197830D01*
X259500Y198635D01*
X261110Y198635D01*
X261915Y197830D01*
X261915Y195415D01*
X261915Y197025D02*
X263525Y198635D01*
X260305Y201028D02*
X258695Y202638D01*
X263525Y202638D01*
X263525Y201028D02*
X263525Y204249D01*
X260305Y206642D02*
X258695Y208252D01*
X263525Y208252D01*
X263525Y206642D02*
X263525Y209862D01*
D12*
X-91440Y193040D02*
X-116840Y193040D01*
X-91440Y213360D02*
X-91340Y213358D01*
X-91241Y213352D01*
X-91141Y213342D01*
X-91043Y213329D01*
X-90944Y213311D01*
X-90847Y213290D01*
X-90751Y213265D01*
X-90655Y213236D01*
X-90561Y213203D01*
X-90468Y213167D01*
X-90377Y213127D01*
X-90287Y213083D01*
X-90199Y213036D01*
X-90113Y212986D01*
X-90029Y212932D01*
X-89947Y212875D01*
X-89868Y212815D01*
X-89790Y212751D01*
X-89716Y212685D01*
X-89644Y212616D01*
X-89575Y212544D01*
X-89509Y212470D01*
X-89445Y212392D01*
X-89385Y212313D01*
X-89328Y212231D01*
X-89274Y212147D01*
X-89224Y212061D01*
X-89177Y211973D01*
X-89133Y211883D01*
X-89093Y211792D01*
X-89057Y211699D01*
X-89024Y211605D01*
X-88995Y211509D01*
X-88970Y211413D01*
X-88949Y211316D01*
X-88931Y211217D01*
X-88918Y211119D01*
X-88908Y211019D01*
X-88902Y210920D01*
X-88900Y210820D01*
X-116840Y213360D02*
X-116940Y213358D01*
X-117039Y213352D01*
X-117139Y213342D01*
X-117237Y213329D01*
X-117336Y213311D01*
X-117433Y213290D01*
X-117529Y213265D01*
X-117625Y213236D01*
X-117719Y213203D01*
X-117812Y213167D01*
X-117903Y213127D01*
X-117993Y213083D01*
X-118081Y213036D01*
X-118167Y212986D01*
X-118251Y212932D01*
X-118333Y212875D01*
X-118412Y212815D01*
X-118490Y212751D01*
X-118564Y212685D01*
X-118636Y212616D01*
X-118705Y212544D01*
X-118771Y212470D01*
X-118835Y212392D01*
X-118895Y212313D01*
X-118952Y212231D01*
X-119006Y212147D01*
X-119056Y212061D01*
X-119103Y211973D01*
X-119147Y211883D01*
X-119187Y211792D01*
X-119223Y211699D01*
X-119256Y211605D01*
X-119285Y211509D01*
X-119310Y211413D01*
X-119331Y211316D01*
X-119349Y211217D01*
X-119362Y211119D01*
X-119372Y211019D01*
X-119378Y210920D01*
X-119380Y210820D01*
X-119380Y195580D02*
X-119378Y195480D01*
X-119372Y195381D01*
X-119362Y195281D01*
X-119349Y195183D01*
X-119331Y195084D01*
X-119310Y194987D01*
X-119285Y194891D01*
X-119256Y194795D01*
X-119223Y194701D01*
X-119187Y194608D01*
X-119147Y194517D01*
X-119103Y194427D01*
X-119056Y194339D01*
X-119006Y194253D01*
X-118952Y194169D01*
X-118895Y194087D01*
X-118835Y194008D01*
X-118771Y193930D01*
X-118705Y193856D01*
X-118636Y193784D01*
X-118564Y193715D01*
X-118490Y193649D01*
X-118412Y193585D01*
X-118333Y193525D01*
X-118251Y193468D01*
X-118167Y193414D01*
X-118081Y193364D01*
X-117993Y193317D01*
X-117903Y193273D01*
X-117812Y193233D01*
X-117719Y193197D01*
X-117625Y193164D01*
X-117529Y193135D01*
X-117433Y193110D01*
X-117336Y193089D01*
X-117237Y193071D01*
X-117139Y193058D01*
X-117039Y193048D01*
X-116940Y193042D01*
X-116840Y193040D01*
X-91440Y193040D02*
X-91340Y193042D01*
X-91241Y193048D01*
X-91141Y193058D01*
X-91043Y193071D01*
X-90944Y193089D01*
X-90847Y193110D01*
X-90751Y193135D01*
X-90655Y193164D01*
X-90561Y193197D01*
X-90468Y193233D01*
X-90377Y193273D01*
X-90287Y193317D01*
X-90199Y193364D01*
X-90113Y193414D01*
X-90029Y193468D01*
X-89947Y193525D01*
X-89868Y193585D01*
X-89790Y193649D01*
X-89716Y193715D01*
X-89644Y193784D01*
X-89575Y193856D01*
X-89509Y193930D01*
X-89445Y194008D01*
X-89385Y194087D01*
X-89328Y194169D01*
X-89274Y194253D01*
X-89224Y194339D01*
X-89177Y194427D01*
X-89133Y194517D01*
X-89093Y194608D01*
X-89057Y194701D01*
X-89024Y194795D01*
X-88995Y194891D01*
X-88970Y194987D01*
X-88949Y195084D01*
X-88931Y195183D01*
X-88918Y195281D01*
X-88908Y195381D01*
X-88902Y195480D01*
X-88900Y195580D01*
X-88900Y210820D01*
X-119380Y210820D02*
X-119380Y195580D01*
X-116840Y213360D02*
X-91440Y213360D01*
D14*
X-111120Y215265D02*
X-111925Y216070D01*
X-111120Y215265D02*
X-110315Y215265D01*
X-109510Y216070D01*
X-109510Y220095D01*
X-110315Y220095D02*
X-108705Y220095D01*
X-106312Y220095D02*
X-106312Y215265D01*
X-106312Y220095D02*
X-103897Y220095D01*
X-103092Y219290D01*
X-103092Y217680D01*
X-103897Y216875D01*
X-106312Y216875D01*
X-100698Y215265D02*
X-97478Y215265D01*
X-100698Y215265D02*
X-97478Y218485D01*
X-97478Y219290D01*
X-98283Y220095D01*
X-99893Y220095D01*
X-100698Y219290D01*
D111*
X193040Y113030D02*
X203200Y113030D01*
D14*
X277706Y101169D02*
X278511Y101974D01*
X278511Y102779D01*
X277706Y103584D01*
X273681Y103584D01*
X273681Y102779D02*
X273681Y104389D01*
X274486Y106782D02*
X273681Y107587D01*
X273681Y109197D01*
X274486Y110002D01*
X275291Y110002D01*
X276096Y109197D01*
X276096Y108392D01*
X276096Y109197D02*
X276901Y110002D01*
X277706Y110002D01*
X278511Y109197D01*
X278511Y107587D01*
X277706Y106782D01*
M02*
