G04 EAGLE Gerber RS-274X export*
G75*
%MOMM*%
%FSLAX34Y34*%
%LPD*%
%INSolderpaste Top*%
%IPPOS*%
%AMOC8*
5,1,8,0,0,1.08239X$1,22.5*%
G01*
%ADD10R,1.000000X1.100000*%
%ADD11R,0.600000X0.500000*%
%ADD12R,0.500000X0.600000*%
%ADD13R,1.100000X1.000000*%
%ADD14R,1.100000X0.300000*%
%ADD15R,0.300000X1.100000*%
%ADD16R,1.200000X0.600000*%
%ADD17R,1.900000X1.020000*%


D10*
X231140Y283600D03*
X231140Y300600D03*
X210820Y283600D03*
X210820Y300600D03*
D11*
X237100Y187200D03*
X237100Y195200D03*
X237100Y203200D03*
X237100Y211200D03*
X237100Y219200D03*
D12*
X228600Y219700D03*
D11*
X220100Y219200D03*
X220100Y211200D03*
X220100Y203200D03*
X220100Y195200D03*
X220100Y187200D03*
D12*
X228600Y186700D03*
D10*
X-91440Y156600D03*
X-91440Y173600D03*
X-116840Y156600D03*
X-116840Y173600D03*
D13*
G36*
X-290974Y269817D02*
X-283197Y277594D01*
X-276126Y270523D01*
X-283903Y262746D01*
X-290974Y269817D01*
G37*
G36*
X-302994Y257797D02*
X-295217Y265574D01*
X-288146Y258503D01*
X-295923Y250726D01*
X-302994Y257797D01*
G37*
G36*
X-275734Y254577D02*
X-267957Y262354D01*
X-260886Y255283D01*
X-268663Y247506D01*
X-275734Y254577D01*
G37*
G36*
X-287754Y242557D02*
X-279977Y250334D01*
X-272906Y243263D01*
X-280683Y235486D01*
X-287754Y242557D01*
G37*
D10*
X82550Y300600D03*
X82550Y283600D03*
D14*
X110900Y342600D03*
X110900Y349100D03*
X110900Y355600D03*
X110900Y362100D03*
X110900Y368600D03*
D15*
X101900Y377600D03*
X95400Y377600D03*
X88900Y377600D03*
X82400Y377600D03*
X75900Y377600D03*
D14*
X66900Y368600D03*
X66900Y362100D03*
X66900Y355600D03*
X66900Y349100D03*
X66900Y342600D03*
D15*
X75900Y332600D03*
X82400Y332600D03*
X88900Y332600D03*
X95400Y332600D03*
X101900Y332600D03*
D10*
X170180Y300600D03*
X170180Y283600D03*
X149860Y300600D03*
X149860Y283600D03*
D16*
X180400Y220980D03*
X180400Y233680D03*
X180400Y246380D03*
X180400Y259080D03*
X124400Y259080D03*
X124400Y246380D03*
X124400Y233680D03*
X124400Y220980D03*
D10*
X190500Y283600D03*
X190500Y300600D03*
X63500Y300600D03*
X63500Y283600D03*
X-6350Y300600D03*
X-6350Y283600D03*
X25400Y417440D03*
X25400Y400440D03*
X-25400Y300600D03*
X-25400Y283600D03*
X6350Y417440D03*
X6350Y400440D03*
X-95250Y300600D03*
X-95250Y283600D03*
X-63500Y417440D03*
X-63500Y400440D03*
X-114300Y300600D03*
X-114300Y283600D03*
X-82550Y417440D03*
X-82550Y400440D03*
D14*
X-66900Y342600D03*
X-66900Y349100D03*
X-66900Y355600D03*
X-66900Y362100D03*
X-66900Y368600D03*
D15*
X-75900Y377600D03*
X-82400Y377600D03*
X-88900Y377600D03*
X-95400Y377600D03*
X-101900Y377600D03*
D14*
X-110900Y368600D03*
X-110900Y362100D03*
X-110900Y355600D03*
X-110900Y349100D03*
X-110900Y342600D03*
D15*
X-101900Y332600D03*
X-95400Y332600D03*
X-88900Y332600D03*
X-82400Y332600D03*
X-75900Y332600D03*
D14*
X22000Y342600D03*
X22000Y349100D03*
X22000Y355600D03*
X22000Y362100D03*
X22000Y368600D03*
D15*
X13000Y377600D03*
X6500Y377600D03*
X0Y377600D03*
X-6500Y377600D03*
X-13000Y377600D03*
D14*
X-22000Y368600D03*
X-22000Y362100D03*
X-22000Y355600D03*
X-22000Y349100D03*
X-22000Y342600D03*
D15*
X-13000Y332600D03*
X-6500Y332600D03*
X0Y332600D03*
X6500Y332600D03*
X13000Y332600D03*
D10*
X109220Y300600D03*
X109220Y283600D03*
X129540Y300600D03*
X129540Y283600D03*
X271780Y194700D03*
X271780Y211700D03*
D17*
X202640Y104140D03*
X259640Y104140D03*
X202640Y78740D03*
X259640Y78740D03*
X202640Y53340D03*
X259640Y53340D03*
X202640Y27940D03*
X259640Y27940D03*
X202640Y2540D03*
X259640Y2540D03*
X202640Y-22860D03*
X259640Y-22860D03*
M02*
