M48
;GenerationSoftware,Autodesk,EAGLE,9.6.2*%
;CreationDate,2022-08-16T13:30:11Z*%
FMAT,2
ICI,OFF
METRIC,TZ,000.000
T4C0.350
T3C0.483
T2C1.000
T1C1.016
%
G90
M71
T1
X22542Y1270
X20003Y1270
X17463Y1270
X14922Y1270
X12382Y1270
X9843Y1270
X9843Y17780
X14922Y17780
X12382Y17780
X27622Y1270
X25082Y1270
X17463Y17780
X20003Y17780
X22542Y17780
X25082Y17780
X27622Y17780
T2
X1270Y3175
X1270Y5715
X1270Y8255
X1270Y10795
X1270Y13335
X1270Y15875
T3
X21273Y2540
X23812Y2540
X28892Y2540
X7937Y18415
X23177Y8255
X18098Y8255
X28257Y8255
X26352Y2540
X8255Y9843
X11112Y2540
X13652Y2540
X16192Y2540
X18733Y2540
T4
X5230Y1092
X7302Y1252
X4763Y15240
X22225Y12700
X5398Y14605
X19685Y12700
X6350Y14605
X17145Y12700
X6985Y13970
X14605Y12700
X9208Y12700
X12065Y12700
X7620Y7620
X6985Y8255
X6032Y8255
X4132Y3906
X24765Y12700
X1905Y12065
X3175Y8255
X3810Y15240
X27305Y12700
X2857Y15240
X4763Y7937
X7302Y2857
M30