%
M48
M72
T01C0.01969
T02C0.03150
T03C0.03543
T04C0.04331
T05C0.04724
T06C0.07874
T07C0.09449
T08C0.12598
T09C0.13583
T10C0.19685
%
T01
X471256Y11167
X456256Y16167
X456256Y22167
X446256Y24167
X443756Y32167
X449256Y38167
X493756Y82667
X510256Y114667
T02
X74366Y401643
X74366Y421643
X168854Y401643
X168854Y421643
X263343Y401643
X263343Y421643
X357831Y401643
X357831Y421643
X452319Y421643
X452319Y401643
X476256Y27667
T03
X681374Y309241
X681374Y319241
X681374Y299241
X681374Y289241
X681374Y279241
X681374Y269241
X681374Y259241
X681374Y249241
X681374Y239241
X681374Y229241
X681374Y219241
X681374Y209241
X531374Y204241
X521374Y204241
X521374Y194241
X531374Y194241
X521374Y214241
X531374Y214241
X531374Y224241
X521374Y224241
X521374Y234241
X531374Y234241
X531374Y244241
X521374Y244241
X521374Y254241
X531374Y254241
X531374Y264241
X521374Y264241
X521374Y274241
X531374Y274241
X531374Y284241
X521374Y284241
X521374Y294241
X531374Y294241
X531374Y304241
X521374Y304241
T04
X548756Y365167
X558756Y365167
X568756Y365167
X578756Y365167
X578756Y375167
X568756Y375167
X558756Y375167
X548756Y375167
X541256Y22667
X531256Y22667
X521256Y22667
X511256Y22667
X511256Y12667
X521256Y12667
X531256Y12667
X541256Y12667
T05
X78303Y81643
X172791Y81643
X267280Y81643
X361768Y81643
X456256Y81643
X78303Y363690
X172791Y363690
X267280Y363690
X361768Y363690
X456256Y363690
X575735Y22667
X560556Y22667
T06
X506256Y57667
T07
X109799Y363690
X204287Y363690
X298776Y363690
X393264Y363690
X487752Y363690
T08
X57634Y49832
X109799Y49832
X153106Y49832
X231846Y49832
X310587Y49832
X424760Y49832
X601925Y49832
X680665Y49832
X759406Y49832
X854878Y49832
X885390Y143927
X885390Y222667
X885390Y301407
X786374Y309281
X759406Y395501
X680665Y395501
X601925Y395501
X424760Y395501
X310587Y395501
X231846Y395501
X153106Y395501
X109799Y395501
X57634Y395501
X27122Y301407
X27122Y222667
X521413Y154281
X27122Y143927
X854878Y395501
T09
X298776Y114399
X204287Y114399
X109799Y114399
X46807Y330934
X424760Y330934
X487752Y114399
X235783Y330934
X141295Y330934
X330272Y330934
X393264Y114399
T10
X125547Y202982
X125547Y242352
X31059Y242352
X503500Y202982
X409012Y202982
X409012Y242352
X314524Y242352
X314524Y202982
X220035Y202982
X220035Y242352
M30
