G04 EAGLE Gerber RS-274X export*
G75*
%MOMM*%
%FSLAX34Y34*%
%LPD*%
%INSilkscreen Top*%
%IPPOS*%
%AMOC8*
5,1,8,0,0,1.08239X$1,22.5*%
G01*
%ADD10C,0.152400*%
%ADD11C,0.076200*%
%ADD12C,0.304800*%
%ADD13C,0.101600*%
%ADD14C,0.127000*%
%ADD15C,0.203200*%


D10*
X86741Y90170D02*
X86741Y74930D01*
X110109Y74930D02*
X110109Y90170D01*
D11*
X112339Y97317D02*
X116318Y97317D01*
X112339Y97317D02*
X109354Y94996D01*
X112339Y97317D02*
X109354Y99639D01*
X112339Y97317D02*
X113665Y93670D01*
X112339Y97317D02*
X113665Y100965D01*
D12*
X41275Y166370D02*
X41275Y176530D01*
D13*
X38961Y180213D02*
X37832Y180213D01*
X37766Y180215D01*
X37701Y180221D01*
X37636Y180230D01*
X37572Y180243D01*
X37508Y180260D01*
X37446Y180281D01*
X37385Y180305D01*
X37325Y180333D01*
X37268Y180364D01*
X37212Y180399D01*
X37158Y180436D01*
X37106Y180477D01*
X37057Y180521D01*
X37011Y180567D01*
X36967Y180616D01*
X36926Y180668D01*
X36889Y180722D01*
X36854Y180778D01*
X36823Y180835D01*
X36795Y180895D01*
X36771Y180956D01*
X36750Y181018D01*
X36733Y181082D01*
X36720Y181146D01*
X36711Y181211D01*
X36705Y181276D01*
X36703Y181342D01*
X36703Y184164D01*
X36705Y184230D01*
X36711Y184295D01*
X36720Y184360D01*
X36733Y184424D01*
X36750Y184488D01*
X36771Y184550D01*
X36795Y184611D01*
X36823Y184671D01*
X36854Y184728D01*
X36889Y184784D01*
X36926Y184838D01*
X36967Y184890D01*
X37011Y184939D01*
X37057Y184985D01*
X37106Y185029D01*
X37158Y185070D01*
X37212Y185107D01*
X37267Y185142D01*
X37325Y185173D01*
X37385Y185201D01*
X37446Y185225D01*
X37508Y185246D01*
X37572Y185263D01*
X37636Y185276D01*
X37701Y185285D01*
X37766Y185291D01*
X37832Y185293D01*
X38961Y185293D01*
X42852Y185293D02*
X42921Y185291D01*
X42989Y185286D01*
X43057Y185276D01*
X43125Y185263D01*
X43192Y185247D01*
X43258Y185227D01*
X43322Y185203D01*
X43385Y185176D01*
X43447Y185145D01*
X43507Y185111D01*
X43565Y185074D01*
X43621Y185034D01*
X43674Y184991D01*
X43725Y184945D01*
X43774Y184896D01*
X43820Y184845D01*
X43863Y184792D01*
X43903Y184736D01*
X43940Y184678D01*
X43974Y184618D01*
X44005Y184556D01*
X44032Y184493D01*
X44056Y184429D01*
X44076Y184363D01*
X44092Y184296D01*
X44105Y184228D01*
X44115Y184160D01*
X44120Y184092D01*
X44122Y184023D01*
X42852Y185293D02*
X42773Y185291D01*
X42694Y185285D01*
X42616Y185276D01*
X42538Y185263D01*
X42461Y185246D01*
X42385Y185225D01*
X42310Y185200D01*
X42236Y185172D01*
X42164Y185141D01*
X42093Y185106D01*
X42024Y185067D01*
X41957Y185026D01*
X41892Y184981D01*
X41829Y184933D01*
X41769Y184882D01*
X41711Y184828D01*
X41656Y184772D01*
X41604Y184713D01*
X41555Y184651D01*
X41508Y184587D01*
X41465Y184521D01*
X41425Y184453D01*
X41388Y184383D01*
X41355Y184311D01*
X41326Y184238D01*
X41299Y184164D01*
X43699Y183035D02*
X43747Y183084D01*
X43794Y183135D01*
X43837Y183189D01*
X43878Y183245D01*
X43916Y183302D01*
X43951Y183362D01*
X43983Y183423D01*
X44012Y183486D01*
X44037Y183550D01*
X44060Y183615D01*
X44079Y183682D01*
X44094Y183749D01*
X44106Y183817D01*
X44115Y183885D01*
X44120Y183954D01*
X44122Y184023D01*
X43698Y183035D02*
X41300Y180213D01*
X44122Y180213D01*
D12*
X65850Y165100D02*
X73850Y165100D01*
D14*
X83566Y165876D02*
X83566Y166948D01*
X83566Y165876D02*
X83564Y165811D01*
X83558Y165747D01*
X83548Y165683D01*
X83535Y165619D01*
X83517Y165557D01*
X83496Y165496D01*
X83472Y165436D01*
X83443Y165378D01*
X83411Y165321D01*
X83376Y165267D01*
X83338Y165215D01*
X83296Y165165D01*
X83252Y165118D01*
X83205Y165074D01*
X83155Y165032D01*
X83103Y164994D01*
X83049Y164959D01*
X82992Y164927D01*
X82934Y164898D01*
X82874Y164874D01*
X82813Y164853D01*
X82751Y164835D01*
X82687Y164822D01*
X82623Y164812D01*
X82559Y164806D01*
X82494Y164804D01*
X82494Y164803D02*
X79812Y164803D01*
X79747Y164805D01*
X79683Y164811D01*
X79619Y164821D01*
X79555Y164834D01*
X79493Y164852D01*
X79432Y164873D01*
X79372Y164898D01*
X79313Y164926D01*
X79257Y164958D01*
X79202Y164993D01*
X79150Y165031D01*
X79100Y165073D01*
X79053Y165117D01*
X79009Y165164D01*
X78967Y165214D01*
X78929Y165266D01*
X78894Y165321D01*
X78862Y165377D01*
X78834Y165436D01*
X78809Y165495D01*
X78788Y165557D01*
X78770Y165619D01*
X78757Y165683D01*
X78747Y165747D01*
X78741Y165811D01*
X78739Y165876D01*
X78740Y165876D02*
X78740Y166948D01*
X79812Y169404D02*
X78740Y170744D01*
X83566Y170744D01*
X83566Y169404D02*
X83566Y172085D01*
D10*
X30607Y102108D02*
X30607Y96012D01*
X77343Y96012D02*
X77343Y102108D01*
X77343Y126492D02*
X77343Y132588D01*
X30607Y132588D02*
X30607Y126492D01*
X77343Y117094D02*
X77343Y111506D01*
X30607Y111506D02*
X30607Y117094D01*
X25147Y99300D02*
X25149Y99406D01*
X25155Y99511D01*
X25165Y99617D01*
X25179Y99721D01*
X25196Y99826D01*
X25218Y99929D01*
X25243Y100032D01*
X25273Y100134D01*
X25306Y100234D01*
X25342Y100333D01*
X25383Y100431D01*
X25427Y100527D01*
X25475Y100621D01*
X25526Y100714D01*
X25580Y100805D01*
X25638Y100893D01*
X25700Y100979D01*
X25764Y101063D01*
X25831Y101145D01*
X25902Y101224D01*
X25975Y101300D01*
X26051Y101373D01*
X26130Y101444D01*
X26212Y101511D01*
X26296Y101575D01*
X26382Y101637D01*
X26470Y101695D01*
X26561Y101749D01*
X26654Y101800D01*
X26748Y101848D01*
X26844Y101892D01*
X26942Y101933D01*
X27041Y101969D01*
X27141Y102002D01*
X27243Y102032D01*
X27346Y102057D01*
X27449Y102079D01*
X27554Y102096D01*
X27658Y102110D01*
X27764Y102120D01*
X27869Y102126D01*
X27975Y102128D01*
X28081Y102126D01*
X28186Y102120D01*
X28292Y102110D01*
X28396Y102096D01*
X28501Y102079D01*
X28604Y102057D01*
X28707Y102032D01*
X28809Y102002D01*
X28909Y101969D01*
X29008Y101933D01*
X29106Y101892D01*
X29202Y101848D01*
X29296Y101800D01*
X29389Y101749D01*
X29480Y101695D01*
X29568Y101637D01*
X29654Y101575D01*
X29738Y101511D01*
X29820Y101444D01*
X29899Y101373D01*
X29975Y101300D01*
X30048Y101224D01*
X30119Y101145D01*
X30186Y101063D01*
X30250Y100979D01*
X30312Y100893D01*
X30370Y100805D01*
X30424Y100714D01*
X30475Y100621D01*
X30523Y100527D01*
X30567Y100431D01*
X30608Y100333D01*
X30644Y100234D01*
X30677Y100134D01*
X30707Y100032D01*
X30732Y99929D01*
X30754Y99826D01*
X30771Y99721D01*
X30785Y99617D01*
X30795Y99511D01*
X30801Y99406D01*
X30803Y99300D01*
X30801Y99194D01*
X30795Y99089D01*
X30785Y98983D01*
X30771Y98879D01*
X30754Y98774D01*
X30732Y98671D01*
X30707Y98568D01*
X30677Y98466D01*
X30644Y98366D01*
X30608Y98267D01*
X30567Y98169D01*
X30523Y98073D01*
X30475Y97979D01*
X30424Y97886D01*
X30370Y97795D01*
X30312Y97707D01*
X30250Y97621D01*
X30186Y97537D01*
X30119Y97455D01*
X30048Y97376D01*
X29975Y97300D01*
X29899Y97227D01*
X29820Y97156D01*
X29738Y97089D01*
X29654Y97025D01*
X29568Y96963D01*
X29480Y96905D01*
X29389Y96851D01*
X29296Y96800D01*
X29202Y96752D01*
X29106Y96708D01*
X29008Y96667D01*
X28909Y96631D01*
X28809Y96598D01*
X28707Y96568D01*
X28604Y96543D01*
X28501Y96521D01*
X28396Y96504D01*
X28292Y96490D01*
X28186Y96480D01*
X28081Y96474D01*
X27975Y96472D01*
X27869Y96474D01*
X27764Y96480D01*
X27658Y96490D01*
X27554Y96504D01*
X27449Y96521D01*
X27346Y96543D01*
X27243Y96568D01*
X27141Y96598D01*
X27041Y96631D01*
X26942Y96667D01*
X26844Y96708D01*
X26748Y96752D01*
X26654Y96800D01*
X26561Y96851D01*
X26470Y96905D01*
X26382Y96963D01*
X26296Y97025D01*
X26212Y97089D01*
X26130Y97156D01*
X26051Y97227D01*
X25975Y97300D01*
X25902Y97376D01*
X25831Y97455D01*
X25764Y97537D01*
X25700Y97621D01*
X25638Y97707D01*
X25580Y97795D01*
X25526Y97886D01*
X25475Y97979D01*
X25427Y98073D01*
X25383Y98169D01*
X25342Y98267D01*
X25306Y98366D01*
X25273Y98466D01*
X25243Y98568D01*
X25218Y98671D01*
X25196Y98774D01*
X25179Y98879D01*
X25165Y98983D01*
X25155Y99089D01*
X25149Y99194D01*
X25147Y99300D01*
D15*
X72975Y71150D02*
X72975Y43150D01*
X34975Y43150D02*
X34975Y71150D01*
D10*
X38737Y73912D02*
X38737Y80516D01*
X40571Y80516D01*
X40656Y80514D01*
X40740Y80508D01*
X40824Y80498D01*
X40908Y80485D01*
X40991Y80467D01*
X41073Y80446D01*
X41154Y80421D01*
X41234Y80392D01*
X41312Y80360D01*
X41388Y80324D01*
X41463Y80284D01*
X41536Y80241D01*
X41607Y80195D01*
X41676Y80146D01*
X41743Y80093D01*
X41807Y80037D01*
X41868Y79979D01*
X41926Y79918D01*
X41982Y79854D01*
X42035Y79787D01*
X42084Y79718D01*
X42130Y79647D01*
X42173Y79574D01*
X42213Y79499D01*
X42249Y79423D01*
X42281Y79345D01*
X42310Y79265D01*
X42335Y79184D01*
X42356Y79102D01*
X42374Y79019D01*
X42387Y78935D01*
X42397Y78851D01*
X42403Y78767D01*
X42405Y78682D01*
X42403Y78597D01*
X42397Y78513D01*
X42387Y78429D01*
X42374Y78345D01*
X42356Y78262D01*
X42335Y78180D01*
X42310Y78099D01*
X42281Y78019D01*
X42249Y77941D01*
X42213Y77865D01*
X42173Y77790D01*
X42130Y77717D01*
X42084Y77646D01*
X42035Y77577D01*
X41982Y77510D01*
X41926Y77446D01*
X41868Y77385D01*
X41807Y77327D01*
X41743Y77271D01*
X41676Y77218D01*
X41607Y77169D01*
X41536Y77123D01*
X41463Y77080D01*
X41388Y77040D01*
X41312Y77004D01*
X41234Y76972D01*
X41154Y76943D01*
X41073Y76918D01*
X40991Y76897D01*
X40908Y76879D01*
X40824Y76866D01*
X40740Y76856D01*
X40656Y76850D01*
X40571Y76848D01*
X40571Y76847D02*
X38737Y76847D01*
X40938Y76847D02*
X42406Y73912D01*
X45973Y79048D02*
X47808Y80516D01*
X47808Y73912D01*
X49642Y73912D02*
X45973Y73912D01*
D14*
X46748Y41656D02*
X46748Y36830D01*
X46748Y41656D02*
X48089Y41656D01*
X48160Y41654D01*
X48232Y41648D01*
X48302Y41639D01*
X48372Y41626D01*
X48442Y41609D01*
X48510Y41588D01*
X48577Y41564D01*
X48643Y41536D01*
X48707Y41505D01*
X48770Y41470D01*
X48830Y41432D01*
X48889Y41391D01*
X48945Y41347D01*
X48999Y41300D01*
X49050Y41251D01*
X49098Y41198D01*
X49144Y41143D01*
X49186Y41086D01*
X49226Y41026D01*
X49262Y40965D01*
X49295Y40901D01*
X49324Y40836D01*
X49350Y40770D01*
X49373Y40702D01*
X49392Y40633D01*
X49407Y40563D01*
X49418Y40493D01*
X49426Y40422D01*
X49430Y40351D01*
X49430Y40279D01*
X49426Y40208D01*
X49418Y40137D01*
X49407Y40067D01*
X49392Y39997D01*
X49373Y39928D01*
X49350Y39860D01*
X49324Y39794D01*
X49295Y39729D01*
X49262Y39665D01*
X49226Y39604D01*
X49186Y39544D01*
X49144Y39487D01*
X49098Y39432D01*
X49050Y39379D01*
X48999Y39330D01*
X48945Y39283D01*
X48889Y39239D01*
X48830Y39198D01*
X48770Y39160D01*
X48707Y39125D01*
X48643Y39094D01*
X48577Y39066D01*
X48510Y39042D01*
X48442Y39021D01*
X48372Y39004D01*
X48302Y38991D01*
X48232Y38982D01*
X48160Y38976D01*
X48089Y38974D01*
X48089Y38975D02*
X46748Y38975D01*
X48357Y38975D02*
X49429Y36830D01*
X53645Y41656D02*
X53713Y41654D01*
X53780Y41648D01*
X53847Y41639D01*
X53914Y41626D01*
X53979Y41609D01*
X54044Y41588D01*
X54107Y41564D01*
X54169Y41536D01*
X54229Y41505D01*
X54287Y41471D01*
X54343Y41433D01*
X54398Y41393D01*
X54449Y41349D01*
X54498Y41302D01*
X54545Y41253D01*
X54589Y41202D01*
X54629Y41147D01*
X54667Y41091D01*
X54701Y41033D01*
X54732Y40973D01*
X54760Y40911D01*
X54784Y40848D01*
X54805Y40783D01*
X54822Y40718D01*
X54835Y40651D01*
X54844Y40584D01*
X54850Y40517D01*
X54852Y40449D01*
X53645Y41656D02*
X53567Y41654D01*
X53489Y41648D01*
X53412Y41638D01*
X53335Y41625D01*
X53259Y41607D01*
X53184Y41586D01*
X53110Y41561D01*
X53038Y41532D01*
X52967Y41500D01*
X52898Y41464D01*
X52830Y41425D01*
X52765Y41382D01*
X52702Y41336D01*
X52641Y41287D01*
X52583Y41235D01*
X52528Y41180D01*
X52475Y41123D01*
X52426Y41063D01*
X52379Y41000D01*
X52336Y40936D01*
X52296Y40869D01*
X52259Y40800D01*
X52226Y40729D01*
X52196Y40657D01*
X52170Y40584D01*
X54450Y39511D02*
X54499Y39560D01*
X54546Y39612D01*
X54589Y39667D01*
X54630Y39724D01*
X54668Y39783D01*
X54702Y39844D01*
X54733Y39907D01*
X54761Y39971D01*
X54785Y40037D01*
X54805Y40103D01*
X54822Y40171D01*
X54835Y40240D01*
X54844Y40309D01*
X54850Y40379D01*
X54852Y40449D01*
X54450Y39511D02*
X52171Y36830D01*
X54852Y36830D01*
X46748Y22606D02*
X46748Y17780D01*
X46748Y22606D02*
X48089Y22606D01*
X48160Y22604D01*
X48232Y22598D01*
X48302Y22589D01*
X48372Y22576D01*
X48442Y22559D01*
X48510Y22538D01*
X48577Y22514D01*
X48643Y22486D01*
X48707Y22455D01*
X48770Y22420D01*
X48830Y22382D01*
X48889Y22341D01*
X48945Y22297D01*
X48999Y22250D01*
X49050Y22201D01*
X49098Y22148D01*
X49144Y22093D01*
X49186Y22036D01*
X49226Y21976D01*
X49262Y21915D01*
X49295Y21851D01*
X49324Y21786D01*
X49350Y21720D01*
X49373Y21652D01*
X49392Y21583D01*
X49407Y21513D01*
X49418Y21443D01*
X49426Y21372D01*
X49430Y21301D01*
X49430Y21229D01*
X49426Y21158D01*
X49418Y21087D01*
X49407Y21017D01*
X49392Y20947D01*
X49373Y20878D01*
X49350Y20810D01*
X49324Y20744D01*
X49295Y20679D01*
X49262Y20615D01*
X49226Y20554D01*
X49186Y20494D01*
X49144Y20437D01*
X49098Y20382D01*
X49050Y20329D01*
X48999Y20280D01*
X48945Y20233D01*
X48889Y20189D01*
X48830Y20148D01*
X48770Y20110D01*
X48707Y20075D01*
X48643Y20044D01*
X48577Y20016D01*
X48510Y19992D01*
X48442Y19971D01*
X48372Y19954D01*
X48302Y19941D01*
X48232Y19932D01*
X48160Y19926D01*
X48089Y19924D01*
X48089Y19925D02*
X46748Y19925D01*
X48357Y19925D02*
X49429Y17780D01*
X52171Y17780D02*
X53511Y17780D01*
X53582Y17782D01*
X53654Y17788D01*
X53724Y17797D01*
X53794Y17810D01*
X53864Y17827D01*
X53932Y17848D01*
X53999Y17872D01*
X54065Y17900D01*
X54129Y17931D01*
X54192Y17966D01*
X54252Y18004D01*
X54311Y18045D01*
X54367Y18089D01*
X54421Y18136D01*
X54472Y18185D01*
X54520Y18238D01*
X54566Y18293D01*
X54608Y18350D01*
X54648Y18410D01*
X54684Y18471D01*
X54717Y18535D01*
X54746Y18600D01*
X54772Y18666D01*
X54795Y18734D01*
X54814Y18803D01*
X54829Y18873D01*
X54840Y18943D01*
X54848Y19014D01*
X54852Y19085D01*
X54852Y19157D01*
X54848Y19228D01*
X54840Y19299D01*
X54829Y19369D01*
X54814Y19439D01*
X54795Y19508D01*
X54772Y19576D01*
X54746Y19642D01*
X54717Y19707D01*
X54684Y19771D01*
X54648Y19832D01*
X54608Y19892D01*
X54566Y19949D01*
X54520Y20004D01*
X54472Y20057D01*
X54421Y20106D01*
X54367Y20153D01*
X54311Y20197D01*
X54252Y20238D01*
X54192Y20276D01*
X54129Y20311D01*
X54065Y20342D01*
X53999Y20370D01*
X53932Y20394D01*
X53864Y20415D01*
X53794Y20432D01*
X53724Y20445D01*
X53654Y20454D01*
X53582Y20460D01*
X53511Y20462D01*
X53779Y22606D02*
X52171Y22606D01*
X53779Y22606D02*
X53844Y22604D01*
X53908Y22598D01*
X53972Y22588D01*
X54036Y22575D01*
X54098Y22557D01*
X54159Y22536D01*
X54219Y22512D01*
X54277Y22483D01*
X54334Y22451D01*
X54388Y22416D01*
X54440Y22378D01*
X54490Y22336D01*
X54537Y22292D01*
X54581Y22245D01*
X54623Y22195D01*
X54661Y22143D01*
X54696Y22089D01*
X54728Y22032D01*
X54757Y21974D01*
X54781Y21914D01*
X54802Y21853D01*
X54820Y21791D01*
X54833Y21727D01*
X54843Y21663D01*
X54849Y21599D01*
X54851Y21534D01*
X54849Y21469D01*
X54843Y21405D01*
X54833Y21341D01*
X54820Y21277D01*
X54802Y21215D01*
X54781Y21154D01*
X54757Y21094D01*
X54728Y21036D01*
X54696Y20979D01*
X54661Y20925D01*
X54623Y20873D01*
X54581Y20823D01*
X54537Y20776D01*
X54490Y20732D01*
X54440Y20690D01*
X54388Y20652D01*
X54334Y20617D01*
X54277Y20585D01*
X54219Y20556D01*
X54159Y20532D01*
X54098Y20511D01*
X54036Y20493D01*
X53972Y20480D01*
X53908Y20470D01*
X53844Y20464D01*
X53779Y20462D01*
X53779Y20461D02*
X52707Y20461D01*
X90805Y41882D02*
X90805Y42954D01*
X90805Y41882D02*
X90803Y41817D01*
X90797Y41753D01*
X90787Y41689D01*
X90774Y41625D01*
X90756Y41563D01*
X90735Y41502D01*
X90711Y41442D01*
X90682Y41384D01*
X90650Y41327D01*
X90615Y41273D01*
X90577Y41221D01*
X90535Y41171D01*
X90491Y41124D01*
X90444Y41080D01*
X90394Y41038D01*
X90342Y41000D01*
X90288Y40965D01*
X90231Y40933D01*
X90173Y40904D01*
X90113Y40880D01*
X90052Y40859D01*
X89990Y40841D01*
X89926Y40828D01*
X89862Y40818D01*
X89798Y40812D01*
X89733Y40810D01*
X89733Y40809D02*
X87051Y40809D01*
X86986Y40811D01*
X86922Y40817D01*
X86858Y40827D01*
X86794Y40840D01*
X86732Y40858D01*
X86671Y40879D01*
X86611Y40904D01*
X86552Y40932D01*
X86496Y40964D01*
X86441Y40999D01*
X86389Y41037D01*
X86339Y41079D01*
X86292Y41123D01*
X86248Y41170D01*
X86206Y41220D01*
X86168Y41272D01*
X86133Y41327D01*
X86101Y41383D01*
X86073Y41442D01*
X86048Y41501D01*
X86027Y41563D01*
X86009Y41625D01*
X85996Y41689D01*
X85986Y41753D01*
X85980Y41817D01*
X85978Y41882D01*
X85979Y41882D02*
X85979Y42954D01*
X90805Y45410D02*
X90805Y46750D01*
X90803Y46821D01*
X90797Y46893D01*
X90788Y46963D01*
X90775Y47033D01*
X90758Y47103D01*
X90737Y47171D01*
X90713Y47238D01*
X90685Y47304D01*
X90654Y47368D01*
X90619Y47431D01*
X90581Y47491D01*
X90540Y47550D01*
X90496Y47606D01*
X90449Y47660D01*
X90400Y47711D01*
X90347Y47759D01*
X90292Y47805D01*
X90235Y47847D01*
X90175Y47887D01*
X90114Y47923D01*
X90050Y47956D01*
X89985Y47985D01*
X89919Y48011D01*
X89851Y48034D01*
X89782Y48053D01*
X89712Y48068D01*
X89642Y48079D01*
X89571Y48087D01*
X89500Y48091D01*
X89428Y48091D01*
X89357Y48087D01*
X89286Y48079D01*
X89216Y48068D01*
X89146Y48053D01*
X89077Y48034D01*
X89009Y48011D01*
X88943Y47985D01*
X88878Y47956D01*
X88814Y47923D01*
X88753Y47887D01*
X88693Y47847D01*
X88636Y47805D01*
X88581Y47759D01*
X88528Y47711D01*
X88479Y47660D01*
X88432Y47606D01*
X88388Y47550D01*
X88347Y47491D01*
X88309Y47431D01*
X88274Y47368D01*
X88243Y47304D01*
X88215Y47238D01*
X88191Y47171D01*
X88170Y47103D01*
X88153Y47033D01*
X88140Y46963D01*
X88131Y46893D01*
X88125Y46821D01*
X88123Y46750D01*
X85979Y47018D02*
X85979Y45410D01*
X85979Y47018D02*
X85981Y47083D01*
X85987Y47147D01*
X85997Y47211D01*
X86010Y47275D01*
X86028Y47337D01*
X86049Y47398D01*
X86073Y47458D01*
X86102Y47516D01*
X86134Y47573D01*
X86169Y47627D01*
X86207Y47679D01*
X86249Y47729D01*
X86293Y47776D01*
X86340Y47820D01*
X86390Y47862D01*
X86442Y47900D01*
X86496Y47935D01*
X86553Y47967D01*
X86611Y47996D01*
X86671Y48020D01*
X86732Y48041D01*
X86794Y48059D01*
X86858Y48072D01*
X86922Y48082D01*
X86986Y48088D01*
X87051Y48090D01*
X87116Y48088D01*
X87180Y48082D01*
X87244Y48072D01*
X87308Y48059D01*
X87370Y48041D01*
X87431Y48020D01*
X87491Y47996D01*
X87549Y47967D01*
X87606Y47935D01*
X87660Y47900D01*
X87712Y47862D01*
X87762Y47820D01*
X87809Y47776D01*
X87853Y47729D01*
X87895Y47679D01*
X87933Y47627D01*
X87968Y47573D01*
X88000Y47516D01*
X88029Y47458D01*
X88053Y47398D01*
X88074Y47337D01*
X88092Y47275D01*
X88105Y47211D01*
X88115Y47147D01*
X88121Y47083D01*
X88123Y47018D01*
X88124Y47018D02*
X88124Y45946D01*
D12*
X94425Y149225D02*
X102425Y149225D01*
D14*
X88646Y145824D02*
X88646Y144752D01*
X88644Y144687D01*
X88638Y144623D01*
X88628Y144559D01*
X88615Y144495D01*
X88597Y144433D01*
X88576Y144372D01*
X88552Y144312D01*
X88523Y144254D01*
X88491Y144197D01*
X88456Y144143D01*
X88418Y144091D01*
X88376Y144041D01*
X88332Y143994D01*
X88285Y143950D01*
X88235Y143908D01*
X88183Y143870D01*
X88129Y143835D01*
X88072Y143803D01*
X88014Y143774D01*
X87954Y143750D01*
X87893Y143729D01*
X87831Y143711D01*
X87767Y143698D01*
X87703Y143688D01*
X87639Y143682D01*
X87574Y143680D01*
X87574Y143679D02*
X84892Y143679D01*
X84827Y143681D01*
X84763Y143687D01*
X84699Y143697D01*
X84635Y143710D01*
X84573Y143728D01*
X84512Y143749D01*
X84452Y143774D01*
X84393Y143802D01*
X84337Y143834D01*
X84282Y143869D01*
X84230Y143907D01*
X84180Y143949D01*
X84133Y143993D01*
X84089Y144040D01*
X84047Y144090D01*
X84009Y144142D01*
X83974Y144197D01*
X83942Y144253D01*
X83914Y144312D01*
X83889Y144371D01*
X83868Y144433D01*
X83850Y144495D01*
X83837Y144559D01*
X83827Y144623D01*
X83821Y144687D01*
X83819Y144752D01*
X83820Y144752D02*
X83820Y145824D01*
X83820Y149352D02*
X87574Y148280D01*
X87574Y150961D01*
X86501Y150157D02*
X88646Y150157D01*
D10*
X112141Y112395D02*
X112141Y97155D01*
X135509Y97155D02*
X135509Y112395D01*
D11*
X137739Y119542D02*
X141718Y119542D01*
X137739Y119542D02*
X134754Y117221D01*
X137739Y119542D02*
X134754Y121864D01*
X137739Y119542D02*
X139065Y115895D01*
X137739Y119542D02*
X139065Y123190D01*
D14*
X115570Y42954D02*
X115570Y41882D01*
X115568Y41817D01*
X115562Y41753D01*
X115552Y41689D01*
X115539Y41625D01*
X115521Y41563D01*
X115500Y41502D01*
X115476Y41442D01*
X115447Y41384D01*
X115415Y41327D01*
X115380Y41273D01*
X115342Y41221D01*
X115300Y41171D01*
X115256Y41124D01*
X115209Y41080D01*
X115159Y41038D01*
X115107Y41000D01*
X115053Y40965D01*
X114996Y40933D01*
X114938Y40904D01*
X114878Y40880D01*
X114817Y40859D01*
X114755Y40841D01*
X114691Y40828D01*
X114627Y40818D01*
X114563Y40812D01*
X114498Y40810D01*
X114498Y40809D02*
X111816Y40809D01*
X111751Y40811D01*
X111687Y40817D01*
X111623Y40827D01*
X111559Y40840D01*
X111497Y40858D01*
X111436Y40879D01*
X111376Y40904D01*
X111317Y40932D01*
X111261Y40964D01*
X111206Y40999D01*
X111154Y41037D01*
X111104Y41079D01*
X111057Y41123D01*
X111013Y41170D01*
X110971Y41220D01*
X110933Y41272D01*
X110898Y41327D01*
X110866Y41383D01*
X110838Y41442D01*
X110813Y41501D01*
X110792Y41563D01*
X110774Y41625D01*
X110761Y41689D01*
X110751Y41753D01*
X110745Y41817D01*
X110743Y41882D01*
X110744Y41882D02*
X110744Y42954D01*
X115570Y45410D02*
X115570Y47018D01*
X115568Y47083D01*
X115562Y47147D01*
X115552Y47211D01*
X115539Y47275D01*
X115521Y47337D01*
X115500Y47398D01*
X115476Y47458D01*
X115447Y47516D01*
X115415Y47573D01*
X115380Y47627D01*
X115342Y47679D01*
X115300Y47729D01*
X115256Y47776D01*
X115209Y47820D01*
X115159Y47862D01*
X115107Y47900D01*
X115053Y47935D01*
X114996Y47967D01*
X114938Y47996D01*
X114878Y48020D01*
X114817Y48041D01*
X114755Y48059D01*
X114691Y48072D01*
X114627Y48082D01*
X114563Y48088D01*
X114498Y48090D01*
X114498Y48091D02*
X113961Y48091D01*
X113961Y48090D02*
X113896Y48088D01*
X113832Y48082D01*
X113768Y48072D01*
X113704Y48059D01*
X113642Y48041D01*
X113581Y48020D01*
X113521Y47996D01*
X113463Y47967D01*
X113406Y47935D01*
X113352Y47900D01*
X113300Y47862D01*
X113250Y47820D01*
X113203Y47776D01*
X113159Y47729D01*
X113117Y47679D01*
X113079Y47627D01*
X113044Y47573D01*
X113012Y47516D01*
X112983Y47458D01*
X112959Y47398D01*
X112938Y47337D01*
X112920Y47275D01*
X112907Y47211D01*
X112897Y47147D01*
X112891Y47083D01*
X112889Y47018D01*
X112889Y45410D01*
X110744Y45410D01*
X110744Y48091D01*
D12*
X119825Y149225D02*
X127825Y149225D01*
D14*
X115316Y145824D02*
X115316Y144752D01*
X115314Y144687D01*
X115308Y144623D01*
X115298Y144559D01*
X115285Y144495D01*
X115267Y144433D01*
X115246Y144372D01*
X115222Y144312D01*
X115193Y144254D01*
X115161Y144197D01*
X115126Y144143D01*
X115088Y144091D01*
X115046Y144041D01*
X115002Y143994D01*
X114955Y143950D01*
X114905Y143908D01*
X114853Y143870D01*
X114799Y143835D01*
X114742Y143803D01*
X114684Y143774D01*
X114624Y143750D01*
X114563Y143729D01*
X114501Y143711D01*
X114437Y143698D01*
X114373Y143688D01*
X114309Y143682D01*
X114244Y143680D01*
X114244Y143679D02*
X111562Y143679D01*
X111497Y143681D01*
X111433Y143687D01*
X111369Y143697D01*
X111305Y143710D01*
X111243Y143728D01*
X111182Y143749D01*
X111122Y143774D01*
X111063Y143802D01*
X111007Y143834D01*
X110952Y143869D01*
X110900Y143907D01*
X110850Y143949D01*
X110803Y143993D01*
X110759Y144040D01*
X110717Y144090D01*
X110679Y144142D01*
X110644Y144197D01*
X110612Y144253D01*
X110584Y144312D01*
X110559Y144371D01*
X110538Y144433D01*
X110520Y144495D01*
X110507Y144559D01*
X110497Y144623D01*
X110491Y144687D01*
X110489Y144752D01*
X110490Y144752D02*
X110490Y145824D01*
X112635Y148280D02*
X112635Y149888D01*
X112637Y149953D01*
X112643Y150017D01*
X112653Y150081D01*
X112666Y150145D01*
X112684Y150207D01*
X112705Y150268D01*
X112729Y150328D01*
X112758Y150386D01*
X112790Y150443D01*
X112825Y150497D01*
X112863Y150549D01*
X112905Y150599D01*
X112949Y150646D01*
X112996Y150690D01*
X113046Y150732D01*
X113098Y150770D01*
X113152Y150805D01*
X113209Y150837D01*
X113267Y150866D01*
X113327Y150890D01*
X113388Y150911D01*
X113450Y150929D01*
X113514Y150942D01*
X113578Y150952D01*
X113642Y150958D01*
X113707Y150960D01*
X113707Y150961D02*
X113975Y150961D01*
X114046Y150959D01*
X114118Y150953D01*
X114188Y150944D01*
X114258Y150931D01*
X114328Y150914D01*
X114396Y150893D01*
X114463Y150869D01*
X114529Y150841D01*
X114593Y150810D01*
X114656Y150775D01*
X114716Y150737D01*
X114775Y150696D01*
X114831Y150652D01*
X114885Y150605D01*
X114936Y150556D01*
X114984Y150503D01*
X115030Y150448D01*
X115072Y150391D01*
X115112Y150331D01*
X115148Y150270D01*
X115181Y150206D01*
X115210Y150141D01*
X115236Y150075D01*
X115259Y150007D01*
X115278Y149938D01*
X115293Y149868D01*
X115304Y149798D01*
X115312Y149727D01*
X115316Y149656D01*
X115316Y149584D01*
X115312Y149513D01*
X115304Y149442D01*
X115293Y149372D01*
X115278Y149302D01*
X115259Y149233D01*
X115236Y149165D01*
X115210Y149099D01*
X115181Y149034D01*
X115148Y148970D01*
X115112Y148909D01*
X115072Y148849D01*
X115030Y148792D01*
X114984Y148737D01*
X114936Y148684D01*
X114885Y148635D01*
X114831Y148588D01*
X114775Y148544D01*
X114716Y148503D01*
X114656Y148465D01*
X114593Y148430D01*
X114529Y148399D01*
X114463Y148371D01*
X114396Y148347D01*
X114328Y148326D01*
X114258Y148309D01*
X114188Y148296D01*
X114118Y148287D01*
X114046Y148281D01*
X113975Y148279D01*
X113975Y148280D02*
X112635Y148280D01*
X112544Y148282D01*
X112453Y148288D01*
X112363Y148297D01*
X112272Y148311D01*
X112183Y148328D01*
X112095Y148349D01*
X112007Y148374D01*
X111920Y148403D01*
X111835Y148435D01*
X111751Y148470D01*
X111669Y148510D01*
X111589Y148552D01*
X111510Y148598D01*
X111434Y148648D01*
X111360Y148700D01*
X111287Y148756D01*
X111218Y148815D01*
X111151Y148876D01*
X111086Y148941D01*
X111025Y149008D01*
X110966Y149077D01*
X110910Y149149D01*
X110858Y149224D01*
X110808Y149300D01*
X110762Y149379D01*
X110720Y149459D01*
X110680Y149541D01*
X110645Y149625D01*
X110613Y149710D01*
X110584Y149797D01*
X110559Y149884D01*
X110538Y149973D01*
X110521Y150062D01*
X110507Y150152D01*
X110498Y150243D01*
X110492Y150334D01*
X110490Y150425D01*
D10*
X137541Y90170D02*
X137541Y74930D01*
X160909Y74930D02*
X160909Y90170D01*
D11*
X163139Y97317D02*
X167118Y97317D01*
X163139Y97317D02*
X160154Y94996D01*
X163139Y97317D02*
X160154Y99639D01*
X163139Y97317D02*
X164465Y93670D01*
X163139Y97317D02*
X164465Y100965D01*
D14*
X140970Y42954D02*
X140970Y41882D01*
X140968Y41817D01*
X140962Y41753D01*
X140952Y41689D01*
X140939Y41625D01*
X140921Y41563D01*
X140900Y41502D01*
X140876Y41442D01*
X140847Y41384D01*
X140815Y41327D01*
X140780Y41273D01*
X140742Y41221D01*
X140700Y41171D01*
X140656Y41124D01*
X140609Y41080D01*
X140559Y41038D01*
X140507Y41000D01*
X140453Y40965D01*
X140396Y40933D01*
X140338Y40904D01*
X140278Y40880D01*
X140217Y40859D01*
X140155Y40841D01*
X140091Y40828D01*
X140027Y40818D01*
X139963Y40812D01*
X139898Y40810D01*
X139898Y40809D02*
X137216Y40809D01*
X137151Y40811D01*
X137087Y40817D01*
X137023Y40827D01*
X136959Y40840D01*
X136897Y40858D01*
X136836Y40879D01*
X136776Y40904D01*
X136717Y40932D01*
X136661Y40964D01*
X136606Y40999D01*
X136554Y41037D01*
X136504Y41079D01*
X136457Y41123D01*
X136413Y41170D01*
X136371Y41220D01*
X136333Y41272D01*
X136298Y41327D01*
X136266Y41383D01*
X136238Y41442D01*
X136213Y41501D01*
X136192Y41563D01*
X136174Y41625D01*
X136161Y41689D01*
X136151Y41753D01*
X136145Y41817D01*
X136143Y41882D01*
X136144Y41882D02*
X136144Y42954D01*
X136144Y45410D02*
X136680Y45410D01*
X136144Y45410D02*
X136144Y48091D01*
X140970Y46750D01*
D12*
X145225Y149225D02*
X153225Y149225D01*
D14*
X140716Y145824D02*
X140716Y144752D01*
X140714Y144687D01*
X140708Y144623D01*
X140698Y144559D01*
X140685Y144495D01*
X140667Y144433D01*
X140646Y144372D01*
X140622Y144312D01*
X140593Y144254D01*
X140561Y144197D01*
X140526Y144143D01*
X140488Y144091D01*
X140446Y144041D01*
X140402Y143994D01*
X140355Y143950D01*
X140305Y143908D01*
X140253Y143870D01*
X140199Y143835D01*
X140142Y143803D01*
X140084Y143774D01*
X140024Y143750D01*
X139963Y143729D01*
X139901Y143711D01*
X139837Y143698D01*
X139773Y143688D01*
X139709Y143682D01*
X139644Y143680D01*
X139644Y143679D02*
X136962Y143679D01*
X136897Y143681D01*
X136833Y143687D01*
X136769Y143697D01*
X136705Y143710D01*
X136643Y143728D01*
X136582Y143749D01*
X136522Y143774D01*
X136463Y143802D01*
X136407Y143834D01*
X136352Y143869D01*
X136300Y143907D01*
X136250Y143949D01*
X136203Y143993D01*
X136159Y144040D01*
X136117Y144090D01*
X136079Y144142D01*
X136044Y144197D01*
X136012Y144253D01*
X135984Y144312D01*
X135959Y144371D01*
X135938Y144433D01*
X135920Y144495D01*
X135907Y144559D01*
X135897Y144623D01*
X135891Y144687D01*
X135889Y144752D01*
X135890Y144752D02*
X135890Y145824D01*
X139375Y148279D02*
X139304Y148281D01*
X139232Y148287D01*
X139162Y148296D01*
X139092Y148309D01*
X139022Y148326D01*
X138954Y148347D01*
X138887Y148371D01*
X138821Y148399D01*
X138757Y148430D01*
X138694Y148465D01*
X138634Y148503D01*
X138575Y148544D01*
X138519Y148588D01*
X138465Y148635D01*
X138414Y148684D01*
X138366Y148737D01*
X138320Y148792D01*
X138278Y148849D01*
X138238Y148909D01*
X138202Y148970D01*
X138169Y149034D01*
X138140Y149099D01*
X138114Y149165D01*
X138091Y149233D01*
X138072Y149302D01*
X138057Y149372D01*
X138046Y149442D01*
X138038Y149513D01*
X138034Y149584D01*
X138034Y149656D01*
X138038Y149727D01*
X138046Y149798D01*
X138057Y149868D01*
X138072Y149938D01*
X138091Y150007D01*
X138114Y150075D01*
X138140Y150141D01*
X138169Y150206D01*
X138202Y150270D01*
X138238Y150331D01*
X138278Y150391D01*
X138320Y150448D01*
X138366Y150503D01*
X138414Y150556D01*
X138465Y150605D01*
X138519Y150652D01*
X138575Y150696D01*
X138634Y150737D01*
X138694Y150775D01*
X138757Y150810D01*
X138821Y150841D01*
X138887Y150869D01*
X138954Y150893D01*
X139022Y150914D01*
X139092Y150931D01*
X139162Y150944D01*
X139232Y150953D01*
X139304Y150959D01*
X139375Y150961D01*
X139446Y150959D01*
X139518Y150953D01*
X139588Y150944D01*
X139658Y150931D01*
X139728Y150914D01*
X139796Y150893D01*
X139863Y150869D01*
X139929Y150841D01*
X139993Y150810D01*
X140056Y150775D01*
X140116Y150737D01*
X140175Y150696D01*
X140231Y150652D01*
X140285Y150605D01*
X140336Y150556D01*
X140384Y150503D01*
X140430Y150448D01*
X140472Y150391D01*
X140512Y150331D01*
X140548Y150270D01*
X140581Y150206D01*
X140610Y150141D01*
X140636Y150075D01*
X140659Y150007D01*
X140678Y149938D01*
X140693Y149868D01*
X140704Y149798D01*
X140712Y149727D01*
X140716Y149656D01*
X140716Y149584D01*
X140712Y149513D01*
X140704Y149442D01*
X140693Y149372D01*
X140678Y149302D01*
X140659Y149233D01*
X140636Y149165D01*
X140610Y149099D01*
X140581Y149034D01*
X140548Y148970D01*
X140512Y148909D01*
X140472Y148849D01*
X140430Y148792D01*
X140384Y148737D01*
X140336Y148684D01*
X140285Y148635D01*
X140231Y148588D01*
X140175Y148544D01*
X140116Y148503D01*
X140056Y148465D01*
X139993Y148430D01*
X139929Y148399D01*
X139863Y148371D01*
X139796Y148347D01*
X139728Y148326D01*
X139658Y148309D01*
X139588Y148296D01*
X139518Y148287D01*
X139446Y148281D01*
X139375Y148279D01*
X136962Y148548D02*
X136897Y148550D01*
X136833Y148556D01*
X136769Y148566D01*
X136705Y148579D01*
X136643Y148597D01*
X136582Y148618D01*
X136522Y148642D01*
X136464Y148671D01*
X136407Y148703D01*
X136353Y148738D01*
X136301Y148776D01*
X136251Y148818D01*
X136204Y148862D01*
X136160Y148909D01*
X136118Y148959D01*
X136080Y149011D01*
X136045Y149065D01*
X136013Y149122D01*
X135984Y149180D01*
X135960Y149240D01*
X135939Y149301D01*
X135921Y149363D01*
X135908Y149427D01*
X135898Y149491D01*
X135892Y149555D01*
X135890Y149620D01*
X135892Y149685D01*
X135898Y149749D01*
X135908Y149813D01*
X135921Y149877D01*
X135939Y149939D01*
X135960Y150000D01*
X135984Y150060D01*
X136013Y150118D01*
X136045Y150175D01*
X136080Y150229D01*
X136118Y150281D01*
X136160Y150331D01*
X136204Y150378D01*
X136251Y150422D01*
X136301Y150464D01*
X136353Y150502D01*
X136407Y150537D01*
X136464Y150569D01*
X136522Y150598D01*
X136582Y150622D01*
X136643Y150643D01*
X136705Y150661D01*
X136769Y150674D01*
X136833Y150684D01*
X136897Y150690D01*
X136962Y150692D01*
X137027Y150690D01*
X137091Y150684D01*
X137155Y150674D01*
X137219Y150661D01*
X137281Y150643D01*
X137342Y150622D01*
X137402Y150598D01*
X137460Y150569D01*
X137517Y150537D01*
X137571Y150502D01*
X137623Y150464D01*
X137673Y150422D01*
X137720Y150378D01*
X137764Y150331D01*
X137806Y150281D01*
X137844Y150229D01*
X137879Y150175D01*
X137911Y150118D01*
X137940Y150060D01*
X137964Y150000D01*
X137985Y149939D01*
X138003Y149877D01*
X138016Y149813D01*
X138026Y149749D01*
X138032Y149685D01*
X138034Y149620D01*
X138032Y149555D01*
X138026Y149491D01*
X138016Y149427D01*
X138003Y149363D01*
X137985Y149301D01*
X137964Y149240D01*
X137940Y149180D01*
X137911Y149122D01*
X137879Y149065D01*
X137844Y149011D01*
X137806Y148959D01*
X137764Y148909D01*
X137720Y148862D01*
X137673Y148818D01*
X137623Y148776D01*
X137571Y148738D01*
X137517Y148703D01*
X137460Y148671D01*
X137402Y148642D01*
X137342Y148618D01*
X137281Y148597D01*
X137219Y148579D01*
X137155Y148566D01*
X137091Y148556D01*
X137027Y148550D01*
X136962Y148548D01*
D10*
X162941Y112395D02*
X162941Y97155D01*
X186309Y97155D02*
X186309Y112395D01*
D11*
X188539Y119542D02*
X192518Y119542D01*
X188539Y119542D02*
X185554Y117221D01*
X188539Y119542D02*
X185554Y121864D01*
X188539Y119542D02*
X189865Y115895D01*
X188539Y119542D02*
X189865Y123190D01*
D14*
X166370Y42954D02*
X166370Y41882D01*
X166368Y41817D01*
X166362Y41753D01*
X166352Y41689D01*
X166339Y41625D01*
X166321Y41563D01*
X166300Y41502D01*
X166276Y41442D01*
X166247Y41384D01*
X166215Y41327D01*
X166180Y41273D01*
X166142Y41221D01*
X166100Y41171D01*
X166056Y41124D01*
X166009Y41080D01*
X165959Y41038D01*
X165907Y41000D01*
X165853Y40965D01*
X165796Y40933D01*
X165738Y40904D01*
X165678Y40880D01*
X165617Y40859D01*
X165555Y40841D01*
X165491Y40828D01*
X165427Y40818D01*
X165363Y40812D01*
X165298Y40810D01*
X165298Y40809D02*
X162616Y40809D01*
X162551Y40811D01*
X162487Y40817D01*
X162423Y40827D01*
X162359Y40840D01*
X162297Y40858D01*
X162236Y40879D01*
X162176Y40904D01*
X162117Y40932D01*
X162061Y40964D01*
X162006Y40999D01*
X161954Y41037D01*
X161904Y41079D01*
X161857Y41123D01*
X161813Y41170D01*
X161771Y41220D01*
X161733Y41272D01*
X161698Y41327D01*
X161666Y41383D01*
X161638Y41442D01*
X161613Y41501D01*
X161592Y41563D01*
X161574Y41625D01*
X161561Y41689D01*
X161551Y41753D01*
X161545Y41817D01*
X161543Y41882D01*
X161544Y41882D02*
X161544Y42954D01*
X164225Y46482D02*
X164225Y48091D01*
X164225Y46482D02*
X164223Y46417D01*
X164217Y46353D01*
X164207Y46289D01*
X164194Y46225D01*
X164176Y46163D01*
X164155Y46102D01*
X164131Y46042D01*
X164102Y45984D01*
X164070Y45927D01*
X164035Y45873D01*
X163997Y45821D01*
X163955Y45771D01*
X163911Y45724D01*
X163864Y45680D01*
X163814Y45638D01*
X163762Y45600D01*
X163708Y45565D01*
X163651Y45533D01*
X163593Y45504D01*
X163533Y45480D01*
X163472Y45459D01*
X163410Y45441D01*
X163346Y45428D01*
X163282Y45418D01*
X163218Y45412D01*
X163153Y45410D01*
X162885Y45410D01*
X162885Y45409D02*
X162814Y45411D01*
X162742Y45417D01*
X162672Y45426D01*
X162602Y45439D01*
X162532Y45456D01*
X162464Y45477D01*
X162397Y45501D01*
X162331Y45529D01*
X162267Y45560D01*
X162204Y45595D01*
X162144Y45633D01*
X162085Y45674D01*
X162029Y45718D01*
X161975Y45765D01*
X161924Y45814D01*
X161876Y45867D01*
X161830Y45922D01*
X161788Y45979D01*
X161748Y46039D01*
X161712Y46100D01*
X161679Y46164D01*
X161650Y46229D01*
X161624Y46295D01*
X161601Y46363D01*
X161582Y46432D01*
X161567Y46502D01*
X161556Y46572D01*
X161548Y46643D01*
X161544Y46714D01*
X161544Y46786D01*
X161548Y46857D01*
X161556Y46928D01*
X161567Y46998D01*
X161582Y47068D01*
X161601Y47137D01*
X161624Y47205D01*
X161650Y47271D01*
X161679Y47336D01*
X161712Y47400D01*
X161748Y47461D01*
X161788Y47521D01*
X161830Y47578D01*
X161876Y47633D01*
X161924Y47686D01*
X161975Y47735D01*
X162029Y47782D01*
X162085Y47826D01*
X162144Y47867D01*
X162204Y47905D01*
X162267Y47940D01*
X162331Y47971D01*
X162397Y47999D01*
X162464Y48023D01*
X162532Y48044D01*
X162602Y48061D01*
X162672Y48074D01*
X162742Y48083D01*
X162814Y48089D01*
X162885Y48091D01*
X164225Y48091D01*
X164316Y48089D01*
X164407Y48083D01*
X164497Y48074D01*
X164588Y48060D01*
X164677Y48043D01*
X164765Y48022D01*
X164853Y47997D01*
X164940Y47968D01*
X165025Y47936D01*
X165109Y47901D01*
X165191Y47861D01*
X165271Y47819D01*
X165350Y47773D01*
X165426Y47723D01*
X165500Y47671D01*
X165573Y47615D01*
X165642Y47556D01*
X165709Y47495D01*
X165774Y47430D01*
X165835Y47363D01*
X165894Y47294D01*
X165950Y47221D01*
X166002Y47147D01*
X166052Y47071D01*
X166098Y46992D01*
X166140Y46912D01*
X166180Y46830D01*
X166215Y46746D01*
X166247Y46661D01*
X166276Y46574D01*
X166301Y46486D01*
X166322Y46398D01*
X166339Y46309D01*
X166353Y46218D01*
X166362Y46128D01*
X166368Y46037D01*
X166370Y45946D01*
D12*
X170625Y149225D02*
X178625Y149225D01*
D14*
X166116Y143081D02*
X166116Y142008D01*
X166114Y141943D01*
X166108Y141879D01*
X166098Y141815D01*
X166085Y141751D01*
X166067Y141689D01*
X166046Y141628D01*
X166022Y141568D01*
X165993Y141510D01*
X165961Y141453D01*
X165926Y141399D01*
X165888Y141347D01*
X165846Y141297D01*
X165802Y141250D01*
X165755Y141206D01*
X165705Y141164D01*
X165653Y141126D01*
X165599Y141091D01*
X165542Y141059D01*
X165484Y141030D01*
X165424Y141006D01*
X165363Y140985D01*
X165301Y140967D01*
X165237Y140954D01*
X165173Y140944D01*
X165109Y140938D01*
X165044Y140936D01*
X162362Y140936D01*
X162362Y140935D02*
X162297Y140937D01*
X162233Y140943D01*
X162169Y140953D01*
X162105Y140966D01*
X162043Y140984D01*
X161982Y141005D01*
X161922Y141030D01*
X161863Y141058D01*
X161807Y141090D01*
X161752Y141125D01*
X161700Y141163D01*
X161650Y141205D01*
X161603Y141249D01*
X161559Y141296D01*
X161517Y141346D01*
X161479Y141398D01*
X161444Y141453D01*
X161412Y141509D01*
X161384Y141568D01*
X161359Y141627D01*
X161338Y141689D01*
X161320Y141751D01*
X161307Y141815D01*
X161297Y141879D01*
X161291Y141943D01*
X161289Y142008D01*
X161290Y142008D02*
X161290Y143081D01*
X162362Y145537D02*
X161290Y146877D01*
X166116Y146877D01*
X166116Y145537D02*
X166116Y148218D01*
X163703Y151023D02*
X163583Y151025D01*
X163463Y151030D01*
X163343Y151039D01*
X163223Y151052D01*
X163104Y151068D01*
X162985Y151088D01*
X162867Y151112D01*
X162750Y151139D01*
X162634Y151169D01*
X162519Y151203D01*
X162404Y151241D01*
X162291Y151282D01*
X162180Y151326D01*
X162069Y151374D01*
X161960Y151425D01*
X161960Y151426D02*
X161903Y151447D01*
X161847Y151473D01*
X161792Y151501D01*
X161740Y151533D01*
X161689Y151569D01*
X161641Y151607D01*
X161595Y151648D01*
X161552Y151692D01*
X161512Y151738D01*
X161475Y151787D01*
X161441Y151839D01*
X161410Y151892D01*
X161382Y151947D01*
X161358Y152003D01*
X161337Y152061D01*
X161320Y152120D01*
X161307Y152180D01*
X161298Y152241D01*
X161292Y152303D01*
X161290Y152364D01*
X161292Y152425D01*
X161298Y152487D01*
X161307Y152548D01*
X161320Y152608D01*
X161337Y152667D01*
X161358Y152725D01*
X161382Y152781D01*
X161410Y152836D01*
X161441Y152889D01*
X161475Y152941D01*
X161512Y152990D01*
X161552Y153036D01*
X161595Y153080D01*
X161641Y153121D01*
X161689Y153159D01*
X161740Y153195D01*
X161792Y153227D01*
X161847Y153255D01*
X161903Y153281D01*
X161960Y153302D01*
X162069Y153353D01*
X162180Y153401D01*
X162291Y153445D01*
X162404Y153486D01*
X162519Y153524D01*
X162634Y153558D01*
X162750Y153588D01*
X162867Y153615D01*
X162985Y153639D01*
X163104Y153659D01*
X163223Y153675D01*
X163343Y153688D01*
X163463Y153697D01*
X163583Y153702D01*
X163703Y153704D01*
X163703Y151023D02*
X163823Y151025D01*
X163943Y151030D01*
X164063Y151039D01*
X164183Y151052D01*
X164302Y151068D01*
X164421Y151088D01*
X164539Y151112D01*
X164656Y151139D01*
X164772Y151169D01*
X164887Y151203D01*
X165002Y151241D01*
X165115Y151282D01*
X165226Y151326D01*
X165337Y151374D01*
X165446Y151425D01*
X165446Y151426D02*
X165503Y151447D01*
X165559Y151473D01*
X165614Y151501D01*
X165666Y151533D01*
X165717Y151569D01*
X165765Y151607D01*
X165811Y151648D01*
X165854Y151692D01*
X165894Y151738D01*
X165931Y151787D01*
X165965Y151839D01*
X165996Y151892D01*
X166024Y151947D01*
X166048Y152003D01*
X166069Y152061D01*
X166086Y152120D01*
X166099Y152180D01*
X166108Y152241D01*
X166114Y152303D01*
X166116Y152364D01*
X165446Y153302D02*
X165337Y153353D01*
X165226Y153401D01*
X165115Y153445D01*
X165002Y153486D01*
X164887Y153524D01*
X164772Y153558D01*
X164656Y153588D01*
X164539Y153615D01*
X164421Y153639D01*
X164302Y153659D01*
X164183Y153675D01*
X164063Y153688D01*
X163943Y153697D01*
X163823Y153702D01*
X163703Y153704D01*
X165446Y153302D02*
X165503Y153281D01*
X165559Y153255D01*
X165614Y153227D01*
X165666Y153195D01*
X165717Y153159D01*
X165765Y153121D01*
X165811Y153080D01*
X165854Y153036D01*
X165894Y152989D01*
X165931Y152941D01*
X165965Y152889D01*
X165996Y152836D01*
X166024Y152781D01*
X166048Y152725D01*
X166069Y152667D01*
X166086Y152608D01*
X166099Y152548D01*
X166108Y152487D01*
X166114Y152425D01*
X166116Y152364D01*
X165044Y151291D02*
X162362Y153436D01*
D10*
X188341Y90170D02*
X188341Y74930D01*
X211709Y74930D02*
X211709Y90170D01*
D11*
X213939Y97317D02*
X217918Y97317D01*
X213939Y97317D02*
X210954Y94996D01*
X213939Y97317D02*
X210954Y99639D01*
X213939Y97317D02*
X215265Y93670D01*
X213939Y97317D02*
X215265Y100965D01*
D14*
X191770Y40211D02*
X191770Y39138D01*
X191768Y39073D01*
X191762Y39009D01*
X191752Y38945D01*
X191739Y38881D01*
X191721Y38819D01*
X191700Y38758D01*
X191676Y38698D01*
X191647Y38640D01*
X191615Y38583D01*
X191580Y38529D01*
X191542Y38477D01*
X191500Y38427D01*
X191456Y38380D01*
X191409Y38336D01*
X191359Y38294D01*
X191307Y38256D01*
X191253Y38221D01*
X191196Y38189D01*
X191138Y38160D01*
X191078Y38136D01*
X191017Y38115D01*
X190955Y38097D01*
X190891Y38084D01*
X190827Y38074D01*
X190763Y38068D01*
X190698Y38066D01*
X188016Y38066D01*
X188016Y38065D02*
X187951Y38067D01*
X187887Y38073D01*
X187823Y38083D01*
X187759Y38096D01*
X187697Y38114D01*
X187636Y38135D01*
X187576Y38160D01*
X187517Y38188D01*
X187461Y38220D01*
X187406Y38255D01*
X187354Y38293D01*
X187304Y38335D01*
X187257Y38379D01*
X187213Y38426D01*
X187171Y38476D01*
X187133Y38528D01*
X187098Y38583D01*
X187066Y38639D01*
X187038Y38698D01*
X187013Y38757D01*
X186992Y38819D01*
X186974Y38881D01*
X186961Y38945D01*
X186951Y39009D01*
X186945Y39073D01*
X186943Y39138D01*
X186944Y39138D02*
X186944Y40211D01*
X188016Y42667D02*
X186944Y44007D01*
X191770Y44007D01*
X191770Y42667D02*
X191770Y45348D01*
X188016Y48153D02*
X186944Y49494D01*
X191770Y49494D01*
X191770Y50834D02*
X191770Y48153D01*
D12*
X196025Y149225D02*
X204025Y149225D01*
D14*
X191516Y143081D02*
X191516Y142008D01*
X191514Y141943D01*
X191508Y141879D01*
X191498Y141815D01*
X191485Y141751D01*
X191467Y141689D01*
X191446Y141628D01*
X191422Y141568D01*
X191393Y141510D01*
X191361Y141453D01*
X191326Y141399D01*
X191288Y141347D01*
X191246Y141297D01*
X191202Y141250D01*
X191155Y141206D01*
X191105Y141164D01*
X191053Y141126D01*
X190999Y141091D01*
X190942Y141059D01*
X190884Y141030D01*
X190824Y141006D01*
X190763Y140985D01*
X190701Y140967D01*
X190637Y140954D01*
X190573Y140944D01*
X190509Y140938D01*
X190444Y140936D01*
X187762Y140936D01*
X187762Y140935D02*
X187697Y140937D01*
X187633Y140943D01*
X187569Y140953D01*
X187505Y140966D01*
X187443Y140984D01*
X187382Y141005D01*
X187322Y141030D01*
X187263Y141058D01*
X187207Y141090D01*
X187152Y141125D01*
X187100Y141163D01*
X187050Y141205D01*
X187003Y141249D01*
X186959Y141296D01*
X186917Y141346D01*
X186879Y141398D01*
X186844Y141453D01*
X186812Y141509D01*
X186784Y141568D01*
X186759Y141627D01*
X186738Y141689D01*
X186720Y141751D01*
X186707Y141815D01*
X186697Y141879D01*
X186691Y141943D01*
X186689Y142008D01*
X186690Y142008D02*
X186690Y143081D01*
X187762Y145537D02*
X186690Y146877D01*
X191516Y146877D01*
X191516Y145537D02*
X191516Y148218D01*
X186690Y152498D02*
X186692Y152566D01*
X186698Y152633D01*
X186707Y152700D01*
X186720Y152767D01*
X186737Y152832D01*
X186758Y152897D01*
X186782Y152960D01*
X186810Y153022D01*
X186841Y153082D01*
X186875Y153140D01*
X186913Y153196D01*
X186953Y153251D01*
X186997Y153302D01*
X187044Y153351D01*
X187093Y153398D01*
X187144Y153442D01*
X187199Y153482D01*
X187255Y153520D01*
X187313Y153554D01*
X187373Y153585D01*
X187435Y153613D01*
X187498Y153637D01*
X187563Y153658D01*
X187628Y153675D01*
X187695Y153688D01*
X187762Y153697D01*
X187829Y153703D01*
X187897Y153705D01*
X186690Y152497D02*
X186692Y152419D01*
X186698Y152341D01*
X186708Y152264D01*
X186721Y152187D01*
X186739Y152111D01*
X186760Y152036D01*
X186785Y151962D01*
X186814Y151890D01*
X186846Y151819D01*
X186882Y151750D01*
X186921Y151682D01*
X186964Y151617D01*
X187010Y151554D01*
X187059Y151493D01*
X187111Y151435D01*
X187166Y151380D01*
X187223Y151327D01*
X187283Y151278D01*
X187346Y151231D01*
X187411Y151188D01*
X187477Y151148D01*
X187546Y151111D01*
X187617Y151078D01*
X187689Y151048D01*
X187763Y151022D01*
X188835Y153302D02*
X188786Y153351D01*
X188734Y153398D01*
X188679Y153441D01*
X188622Y153482D01*
X188563Y153520D01*
X188502Y153554D01*
X188439Y153585D01*
X188375Y153613D01*
X188309Y153637D01*
X188243Y153657D01*
X188175Y153674D01*
X188106Y153687D01*
X188037Y153696D01*
X187967Y153702D01*
X187897Y153704D01*
X188835Y153302D02*
X191516Y151023D01*
X191516Y153704D01*
D10*
X213741Y112395D02*
X213741Y97155D01*
X237109Y97155D02*
X237109Y112395D01*
D11*
X239339Y119542D02*
X243318Y119542D01*
X239339Y119542D02*
X236354Y117221D01*
X239339Y119542D02*
X236354Y121864D01*
X239339Y119542D02*
X240665Y115895D01*
X239339Y119542D02*
X240665Y123190D01*
D14*
X217170Y40211D02*
X217170Y39138D01*
X217168Y39073D01*
X217162Y39009D01*
X217152Y38945D01*
X217139Y38881D01*
X217121Y38819D01*
X217100Y38758D01*
X217076Y38698D01*
X217047Y38640D01*
X217015Y38583D01*
X216980Y38529D01*
X216942Y38477D01*
X216900Y38427D01*
X216856Y38380D01*
X216809Y38336D01*
X216759Y38294D01*
X216707Y38256D01*
X216653Y38221D01*
X216596Y38189D01*
X216538Y38160D01*
X216478Y38136D01*
X216417Y38115D01*
X216355Y38097D01*
X216291Y38084D01*
X216227Y38074D01*
X216163Y38068D01*
X216098Y38066D01*
X213416Y38066D01*
X213416Y38065D02*
X213351Y38067D01*
X213287Y38073D01*
X213223Y38083D01*
X213159Y38096D01*
X213097Y38114D01*
X213036Y38135D01*
X212976Y38160D01*
X212917Y38188D01*
X212861Y38220D01*
X212806Y38255D01*
X212754Y38293D01*
X212704Y38335D01*
X212657Y38379D01*
X212613Y38426D01*
X212571Y38476D01*
X212533Y38528D01*
X212498Y38583D01*
X212466Y38639D01*
X212438Y38698D01*
X212413Y38757D01*
X212392Y38819D01*
X212374Y38881D01*
X212361Y38945D01*
X212351Y39009D01*
X212345Y39073D01*
X212343Y39138D01*
X212344Y39138D02*
X212344Y40211D01*
X213416Y42667D02*
X212344Y44007D01*
X217170Y44007D01*
X217170Y42667D02*
X217170Y45348D01*
X217170Y48153D02*
X217170Y49494D01*
X217168Y49565D01*
X217162Y49637D01*
X217153Y49707D01*
X217140Y49777D01*
X217123Y49847D01*
X217102Y49915D01*
X217078Y49982D01*
X217050Y50048D01*
X217019Y50112D01*
X216984Y50175D01*
X216946Y50235D01*
X216905Y50294D01*
X216861Y50350D01*
X216814Y50404D01*
X216765Y50455D01*
X216712Y50503D01*
X216657Y50549D01*
X216600Y50591D01*
X216540Y50631D01*
X216479Y50667D01*
X216415Y50700D01*
X216350Y50729D01*
X216284Y50755D01*
X216216Y50778D01*
X216147Y50797D01*
X216077Y50812D01*
X216007Y50823D01*
X215936Y50831D01*
X215865Y50835D01*
X215793Y50835D01*
X215722Y50831D01*
X215651Y50823D01*
X215581Y50812D01*
X215511Y50797D01*
X215442Y50778D01*
X215374Y50755D01*
X215308Y50729D01*
X215243Y50700D01*
X215179Y50667D01*
X215118Y50631D01*
X215058Y50591D01*
X215001Y50549D01*
X214946Y50503D01*
X214893Y50455D01*
X214844Y50404D01*
X214797Y50350D01*
X214753Y50294D01*
X214712Y50235D01*
X214674Y50175D01*
X214639Y50112D01*
X214608Y50048D01*
X214580Y49982D01*
X214556Y49915D01*
X214535Y49847D01*
X214518Y49777D01*
X214505Y49707D01*
X214496Y49637D01*
X214490Y49565D01*
X214488Y49494D01*
X212344Y49762D02*
X212344Y48153D01*
X212344Y49762D02*
X212346Y49827D01*
X212352Y49891D01*
X212362Y49955D01*
X212375Y50019D01*
X212393Y50081D01*
X212414Y50142D01*
X212438Y50202D01*
X212467Y50260D01*
X212499Y50317D01*
X212534Y50371D01*
X212572Y50423D01*
X212614Y50473D01*
X212658Y50520D01*
X212705Y50564D01*
X212755Y50606D01*
X212807Y50644D01*
X212861Y50679D01*
X212918Y50711D01*
X212976Y50740D01*
X213036Y50764D01*
X213097Y50785D01*
X213159Y50803D01*
X213223Y50816D01*
X213287Y50826D01*
X213351Y50832D01*
X213416Y50834D01*
X213481Y50832D01*
X213545Y50826D01*
X213609Y50816D01*
X213673Y50803D01*
X213735Y50785D01*
X213796Y50764D01*
X213856Y50740D01*
X213914Y50711D01*
X213971Y50679D01*
X214025Y50644D01*
X214077Y50606D01*
X214127Y50564D01*
X214174Y50520D01*
X214218Y50473D01*
X214260Y50423D01*
X214298Y50371D01*
X214333Y50317D01*
X214365Y50260D01*
X214394Y50202D01*
X214418Y50142D01*
X214439Y50081D01*
X214457Y50019D01*
X214470Y49955D01*
X214480Y49891D01*
X214486Y49827D01*
X214488Y49762D01*
X214489Y49762D02*
X214489Y48689D01*
D12*
X221425Y149225D02*
X229425Y149225D01*
D14*
X216916Y143081D02*
X216916Y142008D01*
X216914Y141943D01*
X216908Y141879D01*
X216898Y141815D01*
X216885Y141751D01*
X216867Y141689D01*
X216846Y141628D01*
X216822Y141568D01*
X216793Y141510D01*
X216761Y141453D01*
X216726Y141399D01*
X216688Y141347D01*
X216646Y141297D01*
X216602Y141250D01*
X216555Y141206D01*
X216505Y141164D01*
X216453Y141126D01*
X216399Y141091D01*
X216342Y141059D01*
X216284Y141030D01*
X216224Y141006D01*
X216163Y140985D01*
X216101Y140967D01*
X216037Y140954D01*
X215973Y140944D01*
X215909Y140938D01*
X215844Y140936D01*
X213162Y140936D01*
X213162Y140935D02*
X213097Y140937D01*
X213033Y140943D01*
X212969Y140953D01*
X212905Y140966D01*
X212843Y140984D01*
X212782Y141005D01*
X212722Y141030D01*
X212663Y141058D01*
X212607Y141090D01*
X212552Y141125D01*
X212500Y141163D01*
X212450Y141205D01*
X212403Y141249D01*
X212359Y141296D01*
X212317Y141346D01*
X212279Y141398D01*
X212244Y141453D01*
X212212Y141509D01*
X212184Y141568D01*
X212159Y141627D01*
X212138Y141689D01*
X212120Y141751D01*
X212107Y141815D01*
X212097Y141879D01*
X212091Y141943D01*
X212089Y142008D01*
X212090Y142008D02*
X212090Y143081D01*
X213162Y145537D02*
X212090Y146877D01*
X216916Y146877D01*
X216916Y145537D02*
X216916Y148218D01*
X215844Y151023D02*
X212090Y152095D01*
X215844Y151023D02*
X215844Y153704D01*
X214771Y152900D02*
X216916Y152900D01*
D10*
X239141Y90170D02*
X239141Y74930D01*
X262509Y74930D02*
X262509Y90170D01*
D11*
X264739Y97317D02*
X268718Y97317D01*
X264739Y97317D02*
X261754Y94996D01*
X264739Y97317D02*
X261754Y99639D01*
X264739Y97317D02*
X266065Y93670D01*
X264739Y97317D02*
X266065Y100965D01*
D14*
X242570Y40211D02*
X242570Y39138D01*
X242568Y39073D01*
X242562Y39009D01*
X242552Y38945D01*
X242539Y38881D01*
X242521Y38819D01*
X242500Y38758D01*
X242476Y38698D01*
X242447Y38640D01*
X242415Y38583D01*
X242380Y38529D01*
X242342Y38477D01*
X242300Y38427D01*
X242256Y38380D01*
X242209Y38336D01*
X242159Y38294D01*
X242107Y38256D01*
X242053Y38221D01*
X241996Y38189D01*
X241938Y38160D01*
X241878Y38136D01*
X241817Y38115D01*
X241755Y38097D01*
X241691Y38084D01*
X241627Y38074D01*
X241563Y38068D01*
X241498Y38066D01*
X238816Y38066D01*
X238816Y38065D02*
X238751Y38067D01*
X238687Y38073D01*
X238623Y38083D01*
X238559Y38096D01*
X238497Y38114D01*
X238436Y38135D01*
X238376Y38160D01*
X238317Y38188D01*
X238261Y38220D01*
X238206Y38255D01*
X238154Y38293D01*
X238104Y38335D01*
X238057Y38379D01*
X238013Y38426D01*
X237971Y38476D01*
X237933Y38528D01*
X237898Y38583D01*
X237866Y38639D01*
X237838Y38698D01*
X237813Y38757D01*
X237792Y38819D01*
X237774Y38881D01*
X237761Y38945D01*
X237751Y39009D01*
X237745Y39073D01*
X237743Y39138D01*
X237744Y39138D02*
X237744Y40211D01*
X238816Y42667D02*
X237744Y44007D01*
X242570Y44007D01*
X242570Y42667D02*
X242570Y45348D01*
X242570Y48153D02*
X242570Y49762D01*
X242568Y49827D01*
X242562Y49891D01*
X242552Y49955D01*
X242539Y50019D01*
X242521Y50081D01*
X242500Y50142D01*
X242476Y50202D01*
X242447Y50260D01*
X242415Y50317D01*
X242380Y50371D01*
X242342Y50423D01*
X242300Y50473D01*
X242256Y50520D01*
X242209Y50564D01*
X242159Y50606D01*
X242107Y50644D01*
X242053Y50679D01*
X241996Y50711D01*
X241938Y50740D01*
X241878Y50764D01*
X241817Y50785D01*
X241755Y50803D01*
X241691Y50816D01*
X241627Y50826D01*
X241563Y50832D01*
X241498Y50834D01*
X240961Y50834D01*
X240896Y50832D01*
X240832Y50826D01*
X240768Y50816D01*
X240704Y50803D01*
X240642Y50785D01*
X240581Y50764D01*
X240521Y50740D01*
X240463Y50711D01*
X240406Y50679D01*
X240352Y50644D01*
X240300Y50606D01*
X240250Y50564D01*
X240203Y50520D01*
X240159Y50473D01*
X240117Y50423D01*
X240079Y50371D01*
X240044Y50317D01*
X240012Y50260D01*
X239983Y50202D01*
X239959Y50142D01*
X239938Y50081D01*
X239920Y50019D01*
X239907Y49955D01*
X239897Y49891D01*
X239891Y49827D01*
X239889Y49762D01*
X239889Y48153D01*
X237744Y48153D01*
X237744Y50834D01*
D12*
X246825Y149225D02*
X254825Y149225D01*
D14*
X242316Y143081D02*
X242316Y142008D01*
X242314Y141943D01*
X242308Y141879D01*
X242298Y141815D01*
X242285Y141751D01*
X242267Y141689D01*
X242246Y141628D01*
X242222Y141568D01*
X242193Y141510D01*
X242161Y141453D01*
X242126Y141399D01*
X242088Y141347D01*
X242046Y141297D01*
X242002Y141250D01*
X241955Y141206D01*
X241905Y141164D01*
X241853Y141126D01*
X241799Y141091D01*
X241742Y141059D01*
X241684Y141030D01*
X241624Y141006D01*
X241563Y140985D01*
X241501Y140967D01*
X241437Y140954D01*
X241373Y140944D01*
X241309Y140938D01*
X241244Y140936D01*
X238562Y140936D01*
X238562Y140935D02*
X238497Y140937D01*
X238433Y140943D01*
X238369Y140953D01*
X238305Y140966D01*
X238243Y140984D01*
X238182Y141005D01*
X238122Y141030D01*
X238063Y141058D01*
X238007Y141090D01*
X237952Y141125D01*
X237900Y141163D01*
X237850Y141205D01*
X237803Y141249D01*
X237759Y141296D01*
X237717Y141346D01*
X237679Y141398D01*
X237644Y141453D01*
X237612Y141509D01*
X237584Y141568D01*
X237559Y141627D01*
X237538Y141689D01*
X237520Y141751D01*
X237507Y141815D01*
X237497Y141879D01*
X237491Y141943D01*
X237489Y142008D01*
X237490Y142008D02*
X237490Y143081D01*
X238562Y145537D02*
X237490Y146877D01*
X242316Y146877D01*
X242316Y145537D02*
X242316Y148218D01*
X239635Y151023D02*
X239635Y152632D01*
X239637Y152697D01*
X239643Y152761D01*
X239653Y152825D01*
X239666Y152889D01*
X239684Y152951D01*
X239705Y153012D01*
X239729Y153072D01*
X239758Y153130D01*
X239790Y153187D01*
X239825Y153241D01*
X239863Y153293D01*
X239905Y153343D01*
X239949Y153390D01*
X239996Y153434D01*
X240046Y153476D01*
X240098Y153514D01*
X240152Y153549D01*
X240209Y153581D01*
X240267Y153610D01*
X240327Y153634D01*
X240388Y153655D01*
X240450Y153673D01*
X240514Y153686D01*
X240578Y153696D01*
X240642Y153702D01*
X240707Y153704D01*
X240975Y153704D01*
X240975Y153705D02*
X241046Y153703D01*
X241118Y153697D01*
X241188Y153688D01*
X241258Y153675D01*
X241328Y153658D01*
X241396Y153637D01*
X241463Y153613D01*
X241529Y153585D01*
X241593Y153554D01*
X241656Y153519D01*
X241716Y153481D01*
X241775Y153440D01*
X241831Y153396D01*
X241885Y153349D01*
X241936Y153300D01*
X241984Y153247D01*
X242030Y153192D01*
X242072Y153135D01*
X242112Y153075D01*
X242148Y153014D01*
X242181Y152950D01*
X242210Y152885D01*
X242236Y152819D01*
X242259Y152751D01*
X242278Y152682D01*
X242293Y152612D01*
X242304Y152542D01*
X242312Y152471D01*
X242316Y152400D01*
X242316Y152328D01*
X242312Y152257D01*
X242304Y152186D01*
X242293Y152116D01*
X242278Y152046D01*
X242259Y151977D01*
X242236Y151909D01*
X242210Y151843D01*
X242181Y151778D01*
X242148Y151714D01*
X242112Y151653D01*
X242072Y151593D01*
X242030Y151536D01*
X241984Y151481D01*
X241936Y151428D01*
X241885Y151379D01*
X241831Y151332D01*
X241775Y151288D01*
X241716Y151247D01*
X241656Y151209D01*
X241593Y151174D01*
X241529Y151143D01*
X241463Y151115D01*
X241396Y151091D01*
X241328Y151070D01*
X241258Y151053D01*
X241188Y151040D01*
X241118Y151031D01*
X241046Y151025D01*
X240975Y151023D01*
X239635Y151023D01*
X239544Y151025D01*
X239453Y151031D01*
X239363Y151040D01*
X239272Y151054D01*
X239183Y151071D01*
X239095Y151092D01*
X239007Y151117D01*
X238920Y151146D01*
X238835Y151178D01*
X238751Y151213D01*
X238669Y151253D01*
X238589Y151295D01*
X238510Y151341D01*
X238434Y151391D01*
X238360Y151443D01*
X238287Y151499D01*
X238218Y151558D01*
X238151Y151619D01*
X238086Y151684D01*
X238025Y151751D01*
X237966Y151820D01*
X237910Y151892D01*
X237858Y151967D01*
X237808Y152043D01*
X237762Y152122D01*
X237720Y152202D01*
X237680Y152284D01*
X237645Y152368D01*
X237613Y152453D01*
X237584Y152540D01*
X237559Y152627D01*
X237538Y152716D01*
X237521Y152805D01*
X237507Y152895D01*
X237498Y152986D01*
X237492Y153077D01*
X237490Y153168D01*
D10*
X264541Y112395D02*
X264541Y97155D01*
X287909Y97155D02*
X287909Y112395D01*
D11*
X290139Y119542D02*
X294118Y119542D01*
X290139Y119542D02*
X287154Y117221D01*
X290139Y119542D02*
X287154Y121864D01*
X290139Y119542D02*
X291465Y115895D01*
X290139Y119542D02*
X291465Y123190D01*
D14*
X267970Y40211D02*
X267970Y39138D01*
X267968Y39073D01*
X267962Y39009D01*
X267952Y38945D01*
X267939Y38881D01*
X267921Y38819D01*
X267900Y38758D01*
X267876Y38698D01*
X267847Y38640D01*
X267815Y38583D01*
X267780Y38529D01*
X267742Y38477D01*
X267700Y38427D01*
X267656Y38380D01*
X267609Y38336D01*
X267559Y38294D01*
X267507Y38256D01*
X267453Y38221D01*
X267396Y38189D01*
X267338Y38160D01*
X267278Y38136D01*
X267217Y38115D01*
X267155Y38097D01*
X267091Y38084D01*
X267027Y38074D01*
X266963Y38068D01*
X266898Y38066D01*
X264216Y38066D01*
X264216Y38065D02*
X264151Y38067D01*
X264087Y38073D01*
X264023Y38083D01*
X263959Y38096D01*
X263897Y38114D01*
X263836Y38135D01*
X263776Y38160D01*
X263717Y38188D01*
X263661Y38220D01*
X263606Y38255D01*
X263554Y38293D01*
X263504Y38335D01*
X263457Y38379D01*
X263413Y38426D01*
X263371Y38476D01*
X263333Y38528D01*
X263298Y38583D01*
X263266Y38639D01*
X263238Y38698D01*
X263213Y38757D01*
X263192Y38819D01*
X263174Y38881D01*
X263161Y38945D01*
X263151Y39009D01*
X263145Y39073D01*
X263143Y39138D01*
X263144Y39138D02*
X263144Y40211D01*
X264216Y42667D02*
X263144Y44007D01*
X267970Y44007D01*
X267970Y42667D02*
X267970Y45348D01*
X263680Y48153D02*
X263144Y48153D01*
X263144Y50834D01*
X267970Y49494D01*
D12*
X272225Y149225D02*
X280225Y149225D01*
D14*
X267716Y143081D02*
X267716Y142008D01*
X267714Y141943D01*
X267708Y141879D01*
X267698Y141815D01*
X267685Y141751D01*
X267667Y141689D01*
X267646Y141628D01*
X267622Y141568D01*
X267593Y141510D01*
X267561Y141453D01*
X267526Y141399D01*
X267488Y141347D01*
X267446Y141297D01*
X267402Y141250D01*
X267355Y141206D01*
X267305Y141164D01*
X267253Y141126D01*
X267199Y141091D01*
X267142Y141059D01*
X267084Y141030D01*
X267024Y141006D01*
X266963Y140985D01*
X266901Y140967D01*
X266837Y140954D01*
X266773Y140944D01*
X266709Y140938D01*
X266644Y140936D01*
X263962Y140936D01*
X263962Y140935D02*
X263897Y140937D01*
X263833Y140943D01*
X263769Y140953D01*
X263705Y140966D01*
X263643Y140984D01*
X263582Y141005D01*
X263522Y141030D01*
X263463Y141058D01*
X263407Y141090D01*
X263352Y141125D01*
X263300Y141163D01*
X263250Y141205D01*
X263203Y141249D01*
X263159Y141296D01*
X263117Y141346D01*
X263079Y141398D01*
X263044Y141453D01*
X263012Y141509D01*
X262984Y141568D01*
X262959Y141627D01*
X262938Y141689D01*
X262920Y141751D01*
X262907Y141815D01*
X262897Y141879D01*
X262891Y141943D01*
X262889Y142008D01*
X262890Y142008D02*
X262890Y143081D01*
X263962Y145537D02*
X262890Y146877D01*
X267716Y146877D01*
X267716Y145537D02*
X267716Y148218D01*
X266375Y151023D02*
X266304Y151025D01*
X266232Y151031D01*
X266162Y151040D01*
X266092Y151053D01*
X266022Y151070D01*
X265954Y151091D01*
X265887Y151115D01*
X265821Y151143D01*
X265757Y151174D01*
X265694Y151209D01*
X265634Y151247D01*
X265575Y151288D01*
X265519Y151332D01*
X265465Y151379D01*
X265414Y151428D01*
X265366Y151481D01*
X265320Y151536D01*
X265278Y151593D01*
X265238Y151653D01*
X265202Y151714D01*
X265169Y151778D01*
X265140Y151843D01*
X265114Y151909D01*
X265091Y151977D01*
X265072Y152046D01*
X265057Y152116D01*
X265046Y152186D01*
X265038Y152257D01*
X265034Y152328D01*
X265034Y152400D01*
X265038Y152471D01*
X265046Y152542D01*
X265057Y152612D01*
X265072Y152682D01*
X265091Y152751D01*
X265114Y152819D01*
X265140Y152885D01*
X265169Y152950D01*
X265202Y153014D01*
X265238Y153075D01*
X265278Y153135D01*
X265320Y153192D01*
X265366Y153247D01*
X265414Y153300D01*
X265465Y153349D01*
X265519Y153396D01*
X265575Y153440D01*
X265634Y153481D01*
X265694Y153519D01*
X265757Y153554D01*
X265821Y153585D01*
X265887Y153613D01*
X265954Y153637D01*
X266022Y153658D01*
X266092Y153675D01*
X266162Y153688D01*
X266232Y153697D01*
X266304Y153703D01*
X266375Y153705D01*
X266446Y153703D01*
X266518Y153697D01*
X266588Y153688D01*
X266658Y153675D01*
X266728Y153658D01*
X266796Y153637D01*
X266863Y153613D01*
X266929Y153585D01*
X266993Y153554D01*
X267056Y153519D01*
X267116Y153481D01*
X267175Y153440D01*
X267231Y153396D01*
X267285Y153349D01*
X267336Y153300D01*
X267384Y153247D01*
X267430Y153192D01*
X267472Y153135D01*
X267512Y153075D01*
X267548Y153014D01*
X267581Y152950D01*
X267610Y152885D01*
X267636Y152819D01*
X267659Y152751D01*
X267678Y152682D01*
X267693Y152612D01*
X267704Y152542D01*
X267712Y152471D01*
X267716Y152400D01*
X267716Y152328D01*
X267712Y152257D01*
X267704Y152186D01*
X267693Y152116D01*
X267678Y152046D01*
X267659Y151977D01*
X267636Y151909D01*
X267610Y151843D01*
X267581Y151778D01*
X267548Y151714D01*
X267512Y151653D01*
X267472Y151593D01*
X267430Y151536D01*
X267384Y151481D01*
X267336Y151428D01*
X267285Y151379D01*
X267231Y151332D01*
X267175Y151288D01*
X267116Y151247D01*
X267056Y151209D01*
X266993Y151174D01*
X266929Y151143D01*
X266863Y151115D01*
X266796Y151091D01*
X266728Y151070D01*
X266658Y151053D01*
X266588Y151040D01*
X266518Y151031D01*
X266446Y151025D01*
X266375Y151023D01*
X263962Y151292D02*
X263897Y151294D01*
X263833Y151300D01*
X263769Y151310D01*
X263705Y151323D01*
X263643Y151341D01*
X263582Y151362D01*
X263522Y151386D01*
X263464Y151415D01*
X263407Y151447D01*
X263353Y151482D01*
X263301Y151520D01*
X263251Y151562D01*
X263204Y151606D01*
X263160Y151653D01*
X263118Y151703D01*
X263080Y151755D01*
X263045Y151809D01*
X263013Y151866D01*
X262984Y151924D01*
X262960Y151984D01*
X262939Y152045D01*
X262921Y152107D01*
X262908Y152171D01*
X262898Y152235D01*
X262892Y152299D01*
X262890Y152364D01*
X262892Y152429D01*
X262898Y152493D01*
X262908Y152557D01*
X262921Y152621D01*
X262939Y152683D01*
X262960Y152744D01*
X262984Y152804D01*
X263013Y152862D01*
X263045Y152919D01*
X263080Y152973D01*
X263118Y153025D01*
X263160Y153075D01*
X263204Y153122D01*
X263251Y153166D01*
X263301Y153208D01*
X263353Y153246D01*
X263407Y153281D01*
X263464Y153313D01*
X263522Y153342D01*
X263582Y153366D01*
X263643Y153387D01*
X263705Y153405D01*
X263769Y153418D01*
X263833Y153428D01*
X263897Y153434D01*
X263962Y153436D01*
X264027Y153434D01*
X264091Y153428D01*
X264155Y153418D01*
X264219Y153405D01*
X264281Y153387D01*
X264342Y153366D01*
X264402Y153342D01*
X264460Y153313D01*
X264517Y153281D01*
X264571Y153246D01*
X264623Y153208D01*
X264673Y153166D01*
X264720Y153122D01*
X264764Y153075D01*
X264806Y153025D01*
X264844Y152973D01*
X264879Y152919D01*
X264911Y152862D01*
X264940Y152804D01*
X264964Y152744D01*
X264985Y152683D01*
X265003Y152621D01*
X265016Y152557D01*
X265026Y152493D01*
X265032Y152429D01*
X265034Y152364D01*
X265032Y152299D01*
X265026Y152235D01*
X265016Y152171D01*
X265003Y152107D01*
X264985Y152045D01*
X264964Y151984D01*
X264940Y151924D01*
X264911Y151866D01*
X264879Y151809D01*
X264844Y151755D01*
X264806Y151703D01*
X264764Y151653D01*
X264720Y151606D01*
X264673Y151562D01*
X264623Y151520D01*
X264571Y151482D01*
X264517Y151447D01*
X264460Y151415D01*
X264402Y151386D01*
X264342Y151362D01*
X264281Y151341D01*
X264219Y151323D01*
X264155Y151310D01*
X264091Y151300D01*
X264027Y151294D01*
X263962Y151292D01*
X288925Y25400D02*
X85725Y25400D01*
X288925Y25400D02*
X288925Y0D01*
X85725Y0D01*
X85725Y25400D01*
X85725Y190500D02*
X288925Y190500D01*
X288925Y165100D01*
X85725Y165100D01*
X85725Y190500D01*
M02*
