G04 EAGLE Gerber RS-274X export*
G75*
%MOMM*%
%FSLAX34Y34*%
%LPD*%
%INSoldermask Top*%
%IPPOS*%
%AMOC8*
5,1,8,0,0,1.08239X$1,22.5*%
G01*
%ADD10R,0.355600X0.812800*%
%ADD11R,1.240000X1.500000*%
%ADD12R,1.000000X1.075000*%
%ADD13C,1.778000*%
%ADD14C,0.196000*%
%ADD15C,0.400000*%
%ADD16R,0.450000X0.900000*%
%ADD17R,1.100000X1.000000*%
%ADD18R,1.000000X1.100000*%
%ADD19P,1.924489X8X112.500000*%
%ADD20C,0.732600*%


D10*
X104925Y92964D03*
X98425Y92964D03*
X91925Y92964D03*
X91925Y72136D03*
X98425Y72136D03*
X104925Y72136D03*
D11*
X50775Y171450D03*
X31775Y171450D03*
D12*
X69850Y173600D03*
X69850Y156600D03*
D13*
X12700Y158750D03*
X12700Y133350D03*
X12700Y107950D03*
X12700Y82550D03*
X12700Y57150D03*
X12700Y31750D03*
D14*
X28455Y106380D02*
X28455Y107220D01*
X34995Y107220D01*
X34995Y106380D01*
X28455Y106380D01*
X36055Y93780D02*
X36895Y93780D01*
X36055Y93780D02*
X36055Y100320D01*
X36895Y100320D01*
X36895Y93780D01*
X36895Y95642D02*
X36055Y95642D01*
X36055Y97504D02*
X36895Y97504D01*
X36895Y99366D02*
X36055Y99366D01*
X41055Y93780D02*
X41895Y93780D01*
X41055Y93780D02*
X41055Y100320D01*
X41895Y100320D01*
X41895Y93780D01*
X41895Y95642D02*
X41055Y95642D01*
X41055Y97504D02*
X41895Y97504D01*
X41895Y99366D02*
X41055Y99366D01*
X46055Y93780D02*
X46895Y93780D01*
X46055Y93780D02*
X46055Y100320D01*
X46895Y100320D01*
X46895Y93780D01*
X46895Y95642D02*
X46055Y95642D01*
X46055Y97504D02*
X46895Y97504D01*
X46895Y99366D02*
X46055Y99366D01*
X51055Y93780D02*
X51895Y93780D01*
X51055Y93780D02*
X51055Y100320D01*
X51895Y100320D01*
X51895Y93780D01*
X51895Y95642D02*
X51055Y95642D01*
X51055Y97504D02*
X51895Y97504D01*
X51895Y99366D02*
X51055Y99366D01*
X56055Y93780D02*
X56895Y93780D01*
X56055Y93780D02*
X56055Y100320D01*
X56895Y100320D01*
X56895Y93780D01*
X56895Y95642D02*
X56055Y95642D01*
X56055Y97504D02*
X56895Y97504D01*
X56895Y99366D02*
X56055Y99366D01*
X61055Y93780D02*
X61895Y93780D01*
X61055Y93780D02*
X61055Y100320D01*
X61895Y100320D01*
X61895Y93780D01*
X61895Y95642D02*
X61055Y95642D01*
X61055Y97504D02*
X61895Y97504D01*
X61895Y99366D02*
X61055Y99366D01*
X66055Y93780D02*
X66895Y93780D01*
X66055Y93780D02*
X66055Y100320D01*
X66895Y100320D01*
X66895Y93780D01*
X66895Y95642D02*
X66055Y95642D01*
X66055Y97504D02*
X66895Y97504D01*
X66895Y99366D02*
X66055Y99366D01*
X71055Y93780D02*
X71895Y93780D01*
X71055Y93780D02*
X71055Y100320D01*
X71895Y100320D01*
X71895Y93780D01*
X71895Y95642D02*
X71055Y95642D01*
X71055Y97504D02*
X71895Y97504D01*
X71895Y99366D02*
X71055Y99366D01*
X72955Y106380D02*
X72955Y107220D01*
X79495Y107220D01*
X79495Y106380D01*
X72955Y106380D01*
X72955Y121380D02*
X72955Y122220D01*
X79495Y122220D01*
X79495Y121380D01*
X72955Y121380D01*
X71895Y128280D02*
X71055Y128280D01*
X71055Y134820D01*
X71895Y134820D01*
X71895Y128280D01*
X71895Y130142D02*
X71055Y130142D01*
X71055Y132004D02*
X71895Y132004D01*
X71895Y133866D02*
X71055Y133866D01*
X66895Y128280D02*
X66055Y128280D01*
X66055Y134820D01*
X66895Y134820D01*
X66895Y128280D01*
X66895Y130142D02*
X66055Y130142D01*
X66055Y132004D02*
X66895Y132004D01*
X66895Y133866D02*
X66055Y133866D01*
X61895Y128280D02*
X61055Y128280D01*
X61055Y134820D01*
X61895Y134820D01*
X61895Y128280D01*
X61895Y130142D02*
X61055Y130142D01*
X61055Y132004D02*
X61895Y132004D01*
X61895Y133866D02*
X61055Y133866D01*
X56895Y128280D02*
X56055Y128280D01*
X56055Y134820D01*
X56895Y134820D01*
X56895Y128280D01*
X56895Y130142D02*
X56055Y130142D01*
X56055Y132004D02*
X56895Y132004D01*
X56895Y133866D02*
X56055Y133866D01*
X51895Y128280D02*
X51055Y128280D01*
X51055Y134820D01*
X51895Y134820D01*
X51895Y128280D01*
X51895Y130142D02*
X51055Y130142D01*
X51055Y132004D02*
X51895Y132004D01*
X51895Y133866D02*
X51055Y133866D01*
X46895Y128280D02*
X46055Y128280D01*
X46055Y134820D01*
X46895Y134820D01*
X46895Y128280D01*
X46895Y130142D02*
X46055Y130142D01*
X46055Y132004D02*
X46895Y132004D01*
X46895Y133866D02*
X46055Y133866D01*
X41895Y128280D02*
X41055Y128280D01*
X41055Y134820D01*
X41895Y134820D01*
X41895Y128280D01*
X41895Y130142D02*
X41055Y130142D01*
X41055Y132004D02*
X41895Y132004D01*
X41895Y133866D02*
X41055Y133866D01*
X36895Y128280D02*
X36055Y128280D01*
X36055Y134820D01*
X36895Y134820D01*
X36895Y128280D01*
X36895Y130142D02*
X36055Y130142D01*
X36055Y132004D02*
X36895Y132004D01*
X36895Y133866D02*
X36055Y133866D01*
X28455Y122220D02*
X28455Y121380D01*
X28455Y122220D02*
X34995Y122220D01*
X34995Y121380D01*
X28455Y121380D01*
D15*
X67225Y122300D02*
X67225Y106300D01*
X40725Y106300D01*
X40725Y122300D01*
X67225Y122300D01*
X67225Y110100D02*
X40725Y110100D01*
X40725Y113900D02*
X67225Y113900D01*
X67225Y117700D02*
X40725Y117700D01*
X40725Y121500D02*
X67225Y121500D01*
D16*
X40975Y65650D03*
X40975Y48650D03*
X49975Y65650D03*
X57975Y65650D03*
X66975Y65650D03*
X66975Y48650D03*
X49975Y48650D03*
X57975Y48650D03*
D17*
X42300Y28575D03*
X59300Y28575D03*
X42300Y9525D03*
X59300Y9525D03*
D18*
X98425Y35950D03*
X98425Y52950D03*
D12*
X98425Y157725D03*
X98425Y140725D03*
D10*
X130325Y115189D03*
X123825Y115189D03*
X117325Y115189D03*
X117325Y94361D03*
X123825Y94361D03*
X130325Y94361D03*
D18*
X123825Y35950D03*
X123825Y52950D03*
D12*
X123825Y157725D03*
X123825Y140725D03*
D10*
X155725Y92964D03*
X149225Y92964D03*
X142725Y92964D03*
X142725Y72136D03*
X149225Y72136D03*
X155725Y72136D03*
D18*
X149225Y35950D03*
X149225Y52950D03*
D12*
X149225Y157725D03*
X149225Y140725D03*
D10*
X181125Y115189D03*
X174625Y115189D03*
X168125Y115189D03*
X168125Y94361D03*
X174625Y94361D03*
X181125Y94361D03*
D18*
X174625Y35950D03*
X174625Y52950D03*
D12*
X174625Y157725D03*
X174625Y140725D03*
D10*
X206525Y92964D03*
X200025Y92964D03*
X193525Y92964D03*
X193525Y72136D03*
X200025Y72136D03*
X206525Y72136D03*
D18*
X200025Y35950D03*
X200025Y52950D03*
D12*
X200025Y157725D03*
X200025Y140725D03*
D10*
X231925Y115189D03*
X225425Y115189D03*
X218925Y115189D03*
X218925Y94361D03*
X225425Y94361D03*
X231925Y94361D03*
D18*
X225425Y35950D03*
X225425Y52950D03*
D12*
X225425Y157725D03*
X225425Y140725D03*
D10*
X257325Y92964D03*
X250825Y92964D03*
X244325Y92964D03*
X244325Y72136D03*
X250825Y72136D03*
X257325Y72136D03*
D18*
X250825Y35950D03*
X250825Y52950D03*
D12*
X250825Y157725D03*
X250825Y140725D03*
D10*
X282725Y115189D03*
X276225Y115189D03*
X269725Y115189D03*
X269725Y94361D03*
X276225Y94361D03*
X282725Y94361D03*
D18*
X276225Y35950D03*
X276225Y52950D03*
D12*
X276225Y157725D03*
X276225Y140725D03*
D19*
X98425Y12700D03*
X123825Y12700D03*
X149225Y12700D03*
X174625Y12700D03*
X200025Y12700D03*
X225425Y12700D03*
X250825Y12700D03*
X276225Y12700D03*
X98425Y177800D03*
X123825Y177800D03*
X149225Y177800D03*
X174625Y177800D03*
X200025Y177800D03*
X225425Y177800D03*
X250825Y177800D03*
X276225Y177800D03*
D20*
X82550Y98425D03*
X111125Y25400D03*
X136525Y25400D03*
X161925Y25400D03*
X187325Y25400D03*
X212725Y25400D03*
X238125Y25400D03*
X263525Y25400D03*
X288925Y25400D03*
X79375Y184150D03*
X231775Y82550D03*
X180975Y82550D03*
X282575Y82550D03*
M02*
