G04 EAGLE Gerber RS-274X export*
G75*
%MOMM*%
%FSLAX34Y34*%
%LPD*%
%INSoldermask Bottom*%
%IPPOS*%
%AMOC8*
5,1,8,0,0,1.08239X$1,22.5*%
G01*
%ADD10C,1.778000*%
%ADD11R,1.651000X2.921000*%
%ADD12R,1.270000X0.635000*%
%ADD13P,1.924489X8X112.500000*%
%ADD14C,0.732600*%


D10*
X12700Y158750D03*
X12700Y133350D03*
X12700Y107950D03*
X12700Y82550D03*
X12700Y57150D03*
X12700Y31750D03*
D11*
X98425Y101600D03*
X127000Y101600D03*
X155575Y101600D03*
D12*
X50800Y10922D03*
X50800Y19050D03*
X50800Y27178D03*
D13*
X98425Y12700D03*
X123825Y12700D03*
X149225Y12700D03*
X174625Y12700D03*
X200025Y12700D03*
X225425Y12700D03*
X250825Y12700D03*
X276225Y12700D03*
X98425Y177800D03*
X123825Y177800D03*
X149225Y177800D03*
X174625Y177800D03*
X200025Y177800D03*
X225425Y177800D03*
X250825Y177800D03*
X276225Y177800D03*
D14*
X82550Y98425D03*
X111125Y25400D03*
X136525Y25400D03*
X161925Y25400D03*
X187325Y25400D03*
X212725Y25400D03*
X238125Y25400D03*
X263525Y25400D03*
X288925Y25400D03*
X79375Y184150D03*
X231775Y82550D03*
X180975Y82550D03*
X282575Y82550D03*
M02*
