G04 EAGLE Gerber RS-274X export*
G75*
%MOMM*%
%FSLAX34Y34*%
%LPD*%
%INBottom Copper*%
%IPPOS*%
%AMOC8*
5,1,8,0,0,1.08239X$1,22.5*%
G01*
%ADD10C,1.408000*%
%ADD11C,1.650000*%
%ADD12C,0.904800*%
%ADD13C,0.609600*%
%ADD14C,0.812800*%

G36*
X452646Y2543D02*
X452646Y2543D01*
X452664Y2541D01*
X452846Y2562D01*
X453029Y2581D01*
X453046Y2586D01*
X453063Y2588D01*
X453238Y2645D01*
X453414Y2699D01*
X453429Y2707D01*
X453446Y2713D01*
X453606Y2803D01*
X453768Y2891D01*
X453781Y2902D01*
X453797Y2911D01*
X453936Y3031D01*
X454077Y3148D01*
X454088Y3162D01*
X454102Y3174D01*
X454214Y3319D01*
X454329Y3462D01*
X454337Y3478D01*
X454348Y3492D01*
X454430Y3657D01*
X454515Y3819D01*
X454520Y3836D01*
X454528Y3852D01*
X454575Y4031D01*
X454626Y4206D01*
X454628Y4224D01*
X454632Y4241D01*
X454659Y4572D01*
X454659Y503428D01*
X454657Y503446D01*
X454659Y503464D01*
X454638Y503646D01*
X454619Y503829D01*
X454614Y503846D01*
X454612Y503863D01*
X454555Y504038D01*
X454501Y504214D01*
X454493Y504229D01*
X454487Y504246D01*
X454397Y504406D01*
X454309Y504568D01*
X454298Y504581D01*
X454289Y504597D01*
X454169Y504736D01*
X454052Y504877D01*
X454038Y504888D01*
X454026Y504902D01*
X453881Y505014D01*
X453738Y505129D01*
X453722Y505137D01*
X453708Y505148D01*
X453543Y505230D01*
X453381Y505315D01*
X453364Y505320D01*
X453348Y505328D01*
X453169Y505375D01*
X452994Y505426D01*
X452976Y505428D01*
X452959Y505432D01*
X452628Y505459D01*
X438298Y505459D01*
X438289Y505458D01*
X438280Y505459D01*
X438088Y505438D01*
X437897Y505419D01*
X437889Y505417D01*
X437880Y505416D01*
X437697Y505358D01*
X437512Y505301D01*
X437504Y505297D01*
X437496Y505294D01*
X437327Y505201D01*
X437158Y505109D01*
X437151Y505104D01*
X437143Y505099D01*
X436996Y504974D01*
X436849Y504852D01*
X436843Y504845D01*
X436836Y504839D01*
X436717Y504687D01*
X436597Y504538D01*
X436592Y504530D01*
X436587Y504523D01*
X436500Y504351D01*
X436411Y504181D01*
X436409Y504172D01*
X436405Y504164D01*
X436353Y503978D01*
X436300Y503794D01*
X436299Y503785D01*
X436297Y503776D01*
X436282Y503584D01*
X436267Y503392D01*
X436268Y503384D01*
X436267Y503375D01*
X436292Y503182D01*
X436314Y502993D01*
X436316Y502984D01*
X436318Y502975D01*
X436379Y502792D01*
X436439Y502610D01*
X436443Y502602D01*
X436446Y502594D01*
X436541Y502428D01*
X436636Y502259D01*
X436642Y502252D01*
X436647Y502245D01*
X436861Y501992D01*
X438846Y500008D01*
X440111Y496953D01*
X440111Y493647D01*
X438846Y490592D01*
X436508Y488254D01*
X433453Y486989D01*
X430147Y486989D01*
X427092Y488254D01*
X424754Y490592D01*
X423489Y493647D01*
X423489Y496953D01*
X424754Y500008D01*
X426739Y501992D01*
X426744Y501999D01*
X426751Y502004D01*
X426871Y502154D01*
X426994Y502303D01*
X426998Y502311D01*
X427003Y502318D01*
X427092Y502488D01*
X427182Y502659D01*
X427185Y502668D01*
X427189Y502675D01*
X427242Y502860D01*
X427297Y503045D01*
X427298Y503054D01*
X427300Y503062D01*
X427316Y503253D01*
X427333Y503446D01*
X427332Y503455D01*
X427333Y503464D01*
X427311Y503652D01*
X427290Y503846D01*
X427287Y503855D01*
X427286Y503863D01*
X427227Y504045D01*
X427169Y504230D01*
X427164Y504238D01*
X427161Y504246D01*
X427066Y504415D01*
X426974Y504582D01*
X426968Y504589D01*
X426964Y504597D01*
X426838Y504743D01*
X426713Y504889D01*
X426706Y504895D01*
X426700Y504902D01*
X426549Y505019D01*
X426397Y505139D01*
X426389Y505143D01*
X426382Y505148D01*
X426210Y505234D01*
X426038Y505321D01*
X426030Y505324D01*
X426022Y505328D01*
X425836Y505378D01*
X425651Y505429D01*
X425642Y505430D01*
X425633Y505432D01*
X425302Y505459D01*
X4572Y505459D01*
X4554Y505457D01*
X4536Y505459D01*
X4354Y505438D01*
X4171Y505419D01*
X4154Y505414D01*
X4137Y505412D01*
X3962Y505355D01*
X3786Y505301D01*
X3771Y505293D01*
X3754Y505287D01*
X3594Y505197D01*
X3432Y505109D01*
X3419Y505098D01*
X3403Y505089D01*
X3264Y504969D01*
X3123Y504852D01*
X3112Y504838D01*
X3098Y504826D01*
X2986Y504681D01*
X2871Y504538D01*
X2863Y504522D01*
X2852Y504508D01*
X2770Y504343D01*
X2685Y504181D01*
X2680Y504164D01*
X2672Y504148D01*
X2625Y503969D01*
X2574Y503794D01*
X2572Y503776D01*
X2568Y503759D01*
X2541Y503428D01*
X2541Y118872D01*
X2543Y118854D01*
X2541Y118836D01*
X2562Y118654D01*
X2581Y118471D01*
X2586Y118454D01*
X2588Y118437D01*
X2645Y118262D01*
X2699Y118086D01*
X2707Y118071D01*
X2713Y118054D01*
X2803Y117894D01*
X2891Y117732D01*
X2902Y117719D01*
X2911Y117703D01*
X3031Y117564D01*
X3148Y117423D01*
X3162Y117412D01*
X3174Y117398D01*
X3319Y117286D01*
X3462Y117171D01*
X3478Y117163D01*
X3492Y117152D01*
X3657Y117070D01*
X3819Y116985D01*
X3836Y116980D01*
X3852Y116972D01*
X4031Y116925D01*
X4206Y116874D01*
X4224Y116872D01*
X4241Y116868D01*
X4572Y116841D01*
X64552Y116841D01*
X66041Y115352D01*
X66041Y4572D01*
X66043Y4554D01*
X66041Y4536D01*
X66062Y4354D01*
X66081Y4171D01*
X66086Y4154D01*
X66088Y4137D01*
X66145Y3962D01*
X66199Y3786D01*
X66207Y3771D01*
X66213Y3754D01*
X66303Y3594D01*
X66391Y3432D01*
X66402Y3419D01*
X66411Y3403D01*
X66531Y3264D01*
X66648Y3123D01*
X66662Y3112D01*
X66674Y3098D01*
X66819Y2986D01*
X66962Y2871D01*
X66978Y2863D01*
X66992Y2852D01*
X67157Y2770D01*
X67319Y2685D01*
X67336Y2680D01*
X67352Y2672D01*
X67531Y2625D01*
X67706Y2574D01*
X67724Y2572D01*
X67741Y2568D01*
X68072Y2541D01*
X452628Y2541D01*
X452646Y2543D01*
G37*
%LPC*%
G36*
X227001Y30059D02*
X227001Y30059D01*
X224045Y31283D01*
X221783Y33545D01*
X220559Y36501D01*
X220559Y39699D01*
X221783Y42655D01*
X223321Y44192D01*
X223332Y44206D01*
X223346Y44218D01*
X223459Y44361D01*
X223576Y44504D01*
X223584Y44519D01*
X223595Y44533D01*
X223679Y44698D01*
X223765Y44859D01*
X223770Y44876D01*
X223778Y44892D01*
X223827Y45069D01*
X223879Y45245D01*
X223881Y45263D01*
X223886Y45280D01*
X223899Y45463D01*
X223916Y45646D01*
X223914Y45664D01*
X223915Y45682D01*
X223892Y45864D01*
X223872Y46047D01*
X223867Y46064D01*
X223865Y46081D01*
X223806Y46255D01*
X223751Y46430D01*
X223742Y46446D01*
X223737Y46463D01*
X223645Y46622D01*
X223556Y46783D01*
X223544Y46796D01*
X223536Y46812D01*
X223321Y47065D01*
X220529Y49857D01*
X219079Y53356D01*
X219079Y73644D01*
X220529Y77143D01*
X223254Y79868D01*
X223382Y79937D01*
X223399Y79951D01*
X223419Y79962D01*
X223554Y80079D01*
X223693Y80193D01*
X223707Y80211D01*
X223724Y80225D01*
X223833Y80367D01*
X223946Y80506D01*
X223957Y80526D01*
X223970Y80543D01*
X224050Y80704D01*
X224133Y80863D01*
X224140Y80884D01*
X224150Y80904D01*
X224196Y81077D01*
X224246Y81249D01*
X224248Y81271D01*
X224254Y81293D01*
X224281Y81624D01*
X224281Y86270D01*
X224279Y86296D01*
X224281Y86323D01*
X224259Y86497D01*
X224241Y86670D01*
X224234Y86696D01*
X224230Y86722D01*
X224175Y86888D01*
X224123Y87055D01*
X224110Y87079D01*
X224102Y87104D01*
X224015Y87256D01*
X223931Y87409D01*
X223914Y87430D01*
X223901Y87453D01*
X223686Y87706D01*
X174139Y137254D01*
X173481Y138841D01*
X173481Y414382D01*
X173479Y414409D01*
X173481Y414436D01*
X173459Y414610D01*
X173441Y414783D01*
X173434Y414808D01*
X173430Y414835D01*
X173375Y415001D01*
X173323Y415168D01*
X173310Y415191D01*
X173302Y415217D01*
X173215Y415368D01*
X173131Y415522D01*
X173114Y415542D01*
X173101Y415566D01*
X172888Y415817D01*
X172005Y417947D01*
X172005Y420253D01*
X172887Y422382D01*
X174696Y424191D01*
X174704Y424201D01*
X174714Y424210D01*
X174831Y424357D01*
X174951Y424502D01*
X174957Y424514D01*
X174965Y424525D01*
X175052Y424692D01*
X175139Y424858D01*
X175143Y424871D01*
X175149Y424883D01*
X175200Y425063D01*
X175254Y425244D01*
X175255Y425257D01*
X175259Y425270D01*
X175273Y425456D01*
X175291Y425645D01*
X175289Y425658D01*
X175290Y425671D01*
X175268Y425856D01*
X175247Y426045D01*
X175243Y426058D01*
X175241Y426071D01*
X175183Y426248D01*
X175126Y426429D01*
X175119Y426441D01*
X175115Y426453D01*
X175022Y426616D01*
X174931Y426781D01*
X174922Y426791D01*
X174916Y426803D01*
X174792Y426945D01*
X174670Y427088D01*
X174660Y427097D01*
X174651Y427107D01*
X174502Y427221D01*
X174354Y427338D01*
X174342Y427344D01*
X174332Y427352D01*
X174037Y427504D01*
X172407Y428179D01*
X169729Y430857D01*
X168279Y434356D01*
X168279Y454644D01*
X169729Y458143D01*
X172521Y460935D01*
X172532Y460949D01*
X172546Y460961D01*
X172660Y461105D01*
X172776Y461247D01*
X172784Y461262D01*
X172795Y461276D01*
X172879Y461440D01*
X172965Y461602D01*
X172970Y461620D01*
X172978Y461635D01*
X173027Y461812D01*
X173079Y461988D01*
X173081Y462006D01*
X173086Y462023D01*
X173099Y462206D01*
X173116Y462389D01*
X173114Y462407D01*
X173115Y462425D01*
X173092Y462607D01*
X173072Y462790D01*
X173067Y462807D01*
X173065Y462824D01*
X173006Y462998D01*
X172951Y463173D01*
X172942Y463189D01*
X172937Y463206D01*
X172845Y463365D01*
X172756Y463526D01*
X172744Y463539D01*
X172736Y463555D01*
X172521Y463808D01*
X170983Y465345D01*
X169759Y468301D01*
X169759Y471499D01*
X170983Y474455D01*
X173245Y476717D01*
X176201Y477941D01*
X179399Y477941D01*
X182355Y476717D01*
X184617Y474455D01*
X185841Y471499D01*
X185841Y468301D01*
X184617Y465345D01*
X183079Y463808D01*
X183068Y463794D01*
X183054Y463782D01*
X182941Y463639D01*
X182824Y463496D01*
X182816Y463481D01*
X182805Y463467D01*
X182721Y463302D01*
X182635Y463141D01*
X182630Y463124D01*
X182622Y463108D01*
X182573Y462931D01*
X182521Y462755D01*
X182519Y462737D01*
X182514Y462720D01*
X182501Y462537D01*
X182484Y462354D01*
X182486Y462336D01*
X182485Y462318D01*
X182508Y462136D01*
X182528Y461953D01*
X182533Y461936D01*
X182535Y461919D01*
X182594Y461745D01*
X182649Y461570D01*
X182658Y461554D01*
X182663Y461537D01*
X182755Y461378D01*
X182844Y461217D01*
X182856Y461204D01*
X182864Y461188D01*
X183079Y460935D01*
X185871Y458143D01*
X187321Y454644D01*
X187321Y434356D01*
X185871Y430857D01*
X183193Y428179D01*
X181563Y427504D01*
X181552Y427497D01*
X181539Y427493D01*
X181374Y427402D01*
X181208Y427313D01*
X181198Y427305D01*
X181186Y427298D01*
X181044Y427177D01*
X180898Y427057D01*
X180890Y427047D01*
X180879Y427038D01*
X180763Y426890D01*
X180644Y426744D01*
X180638Y426733D01*
X180630Y426722D01*
X180544Y426554D01*
X180457Y426388D01*
X180454Y426375D01*
X180447Y426363D01*
X180397Y426181D01*
X180344Y426001D01*
X180343Y425988D01*
X180339Y425975D01*
X180326Y425787D01*
X180310Y425600D01*
X180311Y425587D01*
X180310Y425574D01*
X180334Y425385D01*
X180355Y425200D01*
X180359Y425188D01*
X180360Y425174D01*
X180421Y424995D01*
X180478Y424817D01*
X180484Y424805D01*
X180489Y424793D01*
X180583Y424629D01*
X180674Y424465D01*
X180683Y424455D01*
X180690Y424444D01*
X180904Y424191D01*
X182713Y422382D01*
X183595Y420253D01*
X183595Y417947D01*
X182712Y415817D01*
X182697Y415798D01*
X182676Y415780D01*
X182569Y415643D01*
X182459Y415507D01*
X182446Y415484D01*
X182430Y415462D01*
X182352Y415305D01*
X182270Y415151D01*
X182262Y415126D01*
X182250Y415102D01*
X182205Y414932D01*
X182155Y414766D01*
X182153Y414739D01*
X182146Y414713D01*
X182119Y414382D01*
X182119Y398418D01*
X182120Y398409D01*
X182119Y398400D01*
X182140Y398208D01*
X182159Y398017D01*
X182161Y398008D01*
X182162Y398000D01*
X182220Y397816D01*
X182277Y397632D01*
X182281Y397624D01*
X182284Y397616D01*
X182377Y397447D01*
X182469Y397278D01*
X182474Y397271D01*
X182479Y397263D01*
X182604Y397116D01*
X182726Y396969D01*
X182733Y396963D01*
X182739Y396956D01*
X182891Y396836D01*
X183040Y396716D01*
X183048Y396712D01*
X183055Y396707D01*
X183227Y396619D01*
X183397Y396531D01*
X183406Y396528D01*
X183414Y396524D01*
X183600Y396473D01*
X183784Y396420D01*
X183793Y396419D01*
X183802Y396416D01*
X183994Y396402D01*
X184186Y396387D01*
X184194Y396388D01*
X184203Y396387D01*
X184396Y396411D01*
X184585Y396434D01*
X184594Y396436D01*
X184603Y396437D01*
X184786Y396499D01*
X184968Y396558D01*
X184976Y396563D01*
X184984Y396566D01*
X185150Y396661D01*
X185319Y396756D01*
X185326Y396762D01*
X185333Y396767D01*
X185586Y396981D01*
X187218Y398613D01*
X189347Y399495D01*
X191653Y399495D01*
X193782Y398613D01*
X195413Y396982D01*
X196295Y394853D01*
X196295Y392547D01*
X195412Y390417D01*
X195397Y390398D01*
X195376Y390380D01*
X195269Y390243D01*
X195159Y390107D01*
X195146Y390084D01*
X195130Y390062D01*
X195052Y389905D01*
X194970Y389751D01*
X194962Y389726D01*
X194950Y389702D01*
X194905Y389532D01*
X194855Y389366D01*
X194853Y389339D01*
X194846Y389313D01*
X194819Y388982D01*
X194819Y353968D01*
X194820Y353959D01*
X194819Y353950D01*
X194840Y353758D01*
X194859Y353567D01*
X194861Y353558D01*
X194862Y353550D01*
X194920Y353367D01*
X194977Y353182D01*
X194981Y353174D01*
X194984Y353166D01*
X195077Y352997D01*
X195169Y352828D01*
X195174Y352821D01*
X195179Y352813D01*
X195304Y352666D01*
X195426Y352519D01*
X195433Y352513D01*
X195439Y352506D01*
X195591Y352386D01*
X195740Y352266D01*
X195748Y352262D01*
X195755Y352257D01*
X195927Y352169D01*
X196097Y352081D01*
X196106Y352078D01*
X196114Y352074D01*
X196300Y352023D01*
X196484Y351970D01*
X196493Y351969D01*
X196502Y351966D01*
X196694Y351952D01*
X196886Y351937D01*
X196894Y351938D01*
X196903Y351937D01*
X197096Y351961D01*
X197285Y351984D01*
X197294Y351986D01*
X197303Y351987D01*
X197486Y352049D01*
X197668Y352108D01*
X197676Y352113D01*
X197684Y352116D01*
X197850Y352211D01*
X198019Y352306D01*
X198026Y352312D01*
X198033Y352317D01*
X198286Y352531D01*
X199918Y354163D01*
X202047Y355045D01*
X204353Y355045D01*
X206483Y354162D01*
X206502Y354147D01*
X206520Y354126D01*
X206657Y354019D01*
X206793Y353909D01*
X206816Y353896D01*
X206838Y353880D01*
X206995Y353802D01*
X207149Y353720D01*
X207174Y353712D01*
X207198Y353700D01*
X207368Y353655D01*
X207534Y353605D01*
X207561Y353603D01*
X207587Y353596D01*
X207918Y353569D01*
X366757Y353569D01*
X366784Y353571D01*
X366811Y353569D01*
X366985Y353591D01*
X367158Y353609D01*
X367183Y353616D01*
X367210Y353620D01*
X367376Y353675D01*
X367543Y353727D01*
X367566Y353740D01*
X367592Y353748D01*
X367743Y353835D01*
X367897Y353919D01*
X367917Y353936D01*
X367941Y353949D01*
X368192Y354162D01*
X370322Y355045D01*
X372628Y355045D01*
X374757Y354163D01*
X376388Y352532D01*
X377270Y350403D01*
X377270Y348097D01*
X376388Y345968D01*
X374757Y344337D01*
X372628Y343455D01*
X370322Y343455D01*
X368192Y344338D01*
X368173Y344353D01*
X368155Y344374D01*
X368018Y344481D01*
X367882Y344591D01*
X367859Y344604D01*
X367837Y344620D01*
X367680Y344698D01*
X367526Y344780D01*
X367501Y344788D01*
X367477Y344800D01*
X367307Y344845D01*
X367141Y344895D01*
X367114Y344897D01*
X367088Y344904D01*
X366757Y344931D01*
X207918Y344931D01*
X207891Y344929D01*
X207864Y344931D01*
X207690Y344909D01*
X207517Y344891D01*
X207492Y344884D01*
X207465Y344880D01*
X207299Y344825D01*
X207132Y344773D01*
X207109Y344760D01*
X207083Y344752D01*
X206932Y344665D01*
X206778Y344581D01*
X206758Y344564D01*
X206734Y344551D01*
X206483Y344338D01*
X204353Y343455D01*
X202047Y343455D01*
X199918Y344337D01*
X198286Y345969D01*
X198279Y345974D01*
X198274Y345981D01*
X198124Y346102D01*
X197975Y346224D01*
X197967Y346228D01*
X197960Y346234D01*
X197790Y346322D01*
X197619Y346412D01*
X197610Y346415D01*
X197603Y346419D01*
X197418Y346472D01*
X197233Y346527D01*
X197224Y346528D01*
X197216Y346530D01*
X197025Y346546D01*
X196832Y346564D01*
X196823Y346563D01*
X196814Y346563D01*
X196625Y346541D01*
X196432Y346520D01*
X196423Y346517D01*
X196415Y346516D01*
X196233Y346457D01*
X196048Y346399D01*
X196040Y346394D01*
X196032Y346392D01*
X195865Y346297D01*
X195696Y346204D01*
X195689Y346198D01*
X195681Y346194D01*
X195536Y346069D01*
X195389Y345943D01*
X195383Y345936D01*
X195376Y345931D01*
X195260Y345780D01*
X195139Y345627D01*
X195135Y345619D01*
X195130Y345612D01*
X195044Y345441D01*
X194957Y345269D01*
X194954Y345260D01*
X194950Y345252D01*
X194900Y345066D01*
X194849Y344881D01*
X194848Y344872D01*
X194846Y344863D01*
X194819Y344532D01*
X194819Y246018D01*
X194820Y246009D01*
X194819Y246000D01*
X194840Y245808D01*
X194859Y245617D01*
X194861Y245608D01*
X194862Y245600D01*
X194920Y245417D01*
X194977Y245232D01*
X194981Y245224D01*
X194984Y245216D01*
X195077Y245047D01*
X195169Y244878D01*
X195174Y244871D01*
X195179Y244863D01*
X195304Y244716D01*
X195426Y244569D01*
X195433Y244563D01*
X195439Y244556D01*
X195591Y244436D01*
X195740Y244316D01*
X195748Y244312D01*
X195755Y244307D01*
X195927Y244219D01*
X196097Y244131D01*
X196106Y244128D01*
X196114Y244124D01*
X196300Y244073D01*
X196484Y244020D01*
X196493Y244019D01*
X196502Y244016D01*
X196694Y244002D01*
X196886Y243987D01*
X196894Y243988D01*
X196903Y243987D01*
X197096Y244011D01*
X197285Y244034D01*
X197294Y244036D01*
X197303Y244037D01*
X197486Y244099D01*
X197668Y244158D01*
X197676Y244163D01*
X197684Y244166D01*
X197850Y244261D01*
X198019Y244356D01*
X198026Y244362D01*
X198033Y244367D01*
X198286Y244581D01*
X199918Y246213D01*
X200488Y246449D01*
X202047Y247095D01*
X204353Y247095D01*
X205090Y246789D01*
X205120Y246780D01*
X205148Y246766D01*
X205312Y246722D01*
X205475Y246673D01*
X205506Y246670D01*
X205537Y246662D01*
X205867Y246635D01*
X390649Y246635D01*
X390675Y246637D01*
X390702Y246635D01*
X390876Y246657D01*
X391050Y246675D01*
X391075Y246682D01*
X391102Y246686D01*
X391267Y246741D01*
X391434Y246793D01*
X391458Y246806D01*
X391483Y246814D01*
X391635Y246901D01*
X391788Y246985D01*
X391809Y247002D01*
X391832Y247015D01*
X392085Y247230D01*
X416078Y271223D01*
X418039Y272035D01*
X424540Y272035D01*
X424567Y272037D01*
X424594Y272035D01*
X424767Y272057D01*
X424941Y272075D01*
X424966Y272082D01*
X424993Y272086D01*
X425159Y272141D01*
X425326Y272193D01*
X425349Y272206D01*
X425375Y272214D01*
X425526Y272301D01*
X425680Y272385D01*
X425700Y272402D01*
X425724Y272415D01*
X425977Y272630D01*
X427092Y273746D01*
X430147Y275011D01*
X433453Y275011D01*
X436508Y273746D01*
X438846Y271408D01*
X440111Y268353D01*
X440111Y265047D01*
X438846Y261992D01*
X436508Y259654D01*
X433453Y258389D01*
X430147Y258389D01*
X427092Y259654D01*
X425977Y260770D01*
X425956Y260787D01*
X425938Y260808D01*
X425800Y260915D01*
X425665Y261025D01*
X425641Y261038D01*
X425620Y261054D01*
X425463Y261132D01*
X425309Y261214D01*
X425284Y261222D01*
X425260Y261234D01*
X425090Y261279D01*
X424923Y261329D01*
X424897Y261331D01*
X424871Y261338D01*
X424540Y261365D01*
X422151Y261365D01*
X422125Y261363D01*
X422098Y261365D01*
X421924Y261343D01*
X421750Y261325D01*
X421725Y261318D01*
X421698Y261314D01*
X421533Y261259D01*
X421366Y261207D01*
X421342Y261194D01*
X421317Y261186D01*
X421165Y261099D01*
X421012Y261015D01*
X420991Y260998D01*
X420968Y260985D01*
X420715Y260770D01*
X396722Y236777D01*
X394788Y235976D01*
X394761Y235965D01*
X205867Y235965D01*
X205836Y235962D01*
X205805Y235964D01*
X205636Y235942D01*
X205467Y235925D01*
X205437Y235916D01*
X205406Y235912D01*
X205090Y235811D01*
X204353Y235505D01*
X202047Y235505D01*
X199918Y236387D01*
X198286Y238019D01*
X198279Y238024D01*
X198274Y238031D01*
X198124Y238152D01*
X197975Y238274D01*
X197967Y238278D01*
X197960Y238284D01*
X197790Y238372D01*
X197619Y238462D01*
X197610Y238465D01*
X197603Y238469D01*
X197418Y238522D01*
X197233Y238577D01*
X197224Y238578D01*
X197216Y238580D01*
X197025Y238596D01*
X196832Y238614D01*
X196823Y238613D01*
X196814Y238613D01*
X196625Y238591D01*
X196432Y238570D01*
X196423Y238567D01*
X196415Y238566D01*
X196233Y238507D01*
X196048Y238449D01*
X196040Y238444D01*
X196032Y238442D01*
X195865Y238347D01*
X195696Y238254D01*
X195689Y238248D01*
X195681Y238244D01*
X195536Y238119D01*
X195389Y237993D01*
X195383Y237986D01*
X195376Y237981D01*
X195260Y237830D01*
X195139Y237677D01*
X195135Y237669D01*
X195130Y237662D01*
X195044Y237491D01*
X194957Y237319D01*
X194954Y237310D01*
X194950Y237302D01*
X194900Y237116D01*
X194849Y236931D01*
X194848Y236922D01*
X194846Y236913D01*
X194819Y236582D01*
X194819Y220618D01*
X194820Y220609D01*
X194819Y220600D01*
X194840Y220408D01*
X194859Y220217D01*
X194861Y220208D01*
X194862Y220200D01*
X194920Y220016D01*
X194977Y219832D01*
X194981Y219824D01*
X194984Y219816D01*
X195077Y219647D01*
X195169Y219478D01*
X195174Y219471D01*
X195179Y219463D01*
X195304Y219316D01*
X195426Y219169D01*
X195433Y219163D01*
X195439Y219156D01*
X195591Y219036D01*
X195740Y218916D01*
X195748Y218912D01*
X195755Y218907D01*
X195927Y218819D01*
X196097Y218731D01*
X196106Y218728D01*
X196114Y218724D01*
X196300Y218673D01*
X196484Y218620D01*
X196493Y218619D01*
X196502Y218616D01*
X196694Y218602D01*
X196886Y218587D01*
X196894Y218588D01*
X196903Y218587D01*
X197096Y218611D01*
X197285Y218634D01*
X197294Y218636D01*
X197303Y218637D01*
X197486Y218699D01*
X197668Y218758D01*
X197676Y218763D01*
X197684Y218766D01*
X197850Y218861D01*
X198019Y218956D01*
X198026Y218962D01*
X198033Y218967D01*
X198286Y219181D01*
X199918Y220813D01*
X202047Y221695D01*
X204353Y221695D01*
X205090Y221389D01*
X205120Y221380D01*
X205148Y221366D01*
X205312Y221322D01*
X205475Y221273D01*
X205506Y221270D01*
X205537Y221262D01*
X205867Y221235D01*
X261743Y221235D01*
X261774Y221238D01*
X261805Y221236D01*
X261974Y221258D01*
X262143Y221275D01*
X262173Y221284D01*
X262204Y221288D01*
X262520Y221389D01*
X263257Y221695D01*
X265563Y221695D01*
X266300Y221389D01*
X266330Y221380D01*
X266358Y221366D01*
X266522Y221322D01*
X266685Y221273D01*
X266716Y221270D01*
X266747Y221262D01*
X267077Y221235D01*
X312543Y221235D01*
X312574Y221238D01*
X312605Y221236D01*
X312774Y221258D01*
X312943Y221275D01*
X312973Y221284D01*
X313004Y221288D01*
X313320Y221389D01*
X314057Y221695D01*
X316363Y221695D01*
X317100Y221389D01*
X317130Y221380D01*
X317158Y221366D01*
X317322Y221322D01*
X317485Y221273D01*
X317516Y221270D01*
X317547Y221262D01*
X317877Y221235D01*
X363343Y221235D01*
X363374Y221238D01*
X363405Y221236D01*
X363574Y221258D01*
X363743Y221275D01*
X363773Y221284D01*
X363804Y221288D01*
X364120Y221389D01*
X364857Y221695D01*
X367163Y221695D01*
X369292Y220813D01*
X370923Y219182D01*
X371805Y217053D01*
X371805Y214747D01*
X370923Y212618D01*
X369292Y210987D01*
X367163Y210105D01*
X364857Y210105D01*
X364120Y210411D01*
X364090Y210420D01*
X364062Y210434D01*
X363898Y210478D01*
X363735Y210527D01*
X363704Y210530D01*
X363673Y210538D01*
X363343Y210565D01*
X317877Y210565D01*
X317846Y210562D01*
X317815Y210564D01*
X317646Y210542D01*
X317477Y210525D01*
X317447Y210516D01*
X317416Y210512D01*
X317100Y210411D01*
X316363Y210105D01*
X314057Y210105D01*
X313320Y210411D01*
X313290Y210420D01*
X313262Y210434D01*
X313098Y210478D01*
X312935Y210527D01*
X312904Y210530D01*
X312873Y210538D01*
X312543Y210565D01*
X267077Y210565D01*
X267046Y210562D01*
X267015Y210564D01*
X266846Y210542D01*
X266677Y210525D01*
X266647Y210516D01*
X266616Y210512D01*
X266300Y210411D01*
X265563Y210105D01*
X263257Y210105D01*
X262520Y210411D01*
X262490Y210420D01*
X262462Y210434D01*
X262297Y210478D01*
X262135Y210527D01*
X262104Y210530D01*
X262074Y210538D01*
X261743Y210565D01*
X205867Y210565D01*
X205836Y210562D01*
X205805Y210564D01*
X205636Y210542D01*
X205467Y210525D01*
X205437Y210516D01*
X205406Y210512D01*
X205090Y210411D01*
X204353Y210105D01*
X202047Y210105D01*
X199918Y210987D01*
X198286Y212619D01*
X198279Y212624D01*
X198274Y212631D01*
X198124Y212752D01*
X197975Y212874D01*
X197967Y212878D01*
X197960Y212884D01*
X197790Y212972D01*
X197619Y213062D01*
X197610Y213065D01*
X197603Y213069D01*
X197418Y213122D01*
X197233Y213177D01*
X197224Y213178D01*
X197216Y213180D01*
X197025Y213196D01*
X196832Y213214D01*
X196823Y213213D01*
X196814Y213213D01*
X196625Y213191D01*
X196432Y213170D01*
X196423Y213167D01*
X196415Y213166D01*
X196233Y213107D01*
X196048Y213049D01*
X196040Y213044D01*
X196032Y213042D01*
X195865Y212947D01*
X195696Y212854D01*
X195689Y212848D01*
X195681Y212844D01*
X195536Y212719D01*
X195389Y212593D01*
X195383Y212586D01*
X195376Y212581D01*
X195260Y212430D01*
X195139Y212277D01*
X195135Y212269D01*
X195130Y212262D01*
X195044Y212091D01*
X194957Y211919D01*
X194954Y211910D01*
X194950Y211902D01*
X194900Y211716D01*
X194849Y211531D01*
X194848Y211522D01*
X194846Y211513D01*
X194819Y211182D01*
X194819Y155030D01*
X194821Y155004D01*
X194819Y154977D01*
X194841Y154803D01*
X194859Y154630D01*
X194866Y154604D01*
X194870Y154578D01*
X194925Y154412D01*
X194977Y154245D01*
X194990Y154221D01*
X194998Y154196D01*
X195085Y154044D01*
X195169Y153891D01*
X195186Y153870D01*
X195199Y153847D01*
X195414Y153594D01*
X242494Y106514D01*
X242515Y106497D01*
X242532Y106476D01*
X242670Y106369D01*
X242805Y106259D01*
X242829Y106246D01*
X242850Y106230D01*
X243007Y106152D01*
X243161Y106070D01*
X243187Y106062D01*
X243211Y106050D01*
X243380Y106005D01*
X243547Y105955D01*
X243574Y105953D01*
X243600Y105946D01*
X243930Y105919D01*
X312782Y105919D01*
X312809Y105921D01*
X312836Y105919D01*
X313010Y105941D01*
X313183Y105959D01*
X313208Y105966D01*
X313235Y105970D01*
X313401Y106025D01*
X313568Y106077D01*
X313591Y106090D01*
X313617Y106098D01*
X313768Y106185D01*
X313922Y106269D01*
X313942Y106286D01*
X313966Y106299D01*
X314217Y106512D01*
X316347Y107395D01*
X318653Y107395D01*
X320782Y106513D01*
X322413Y104882D01*
X323295Y102753D01*
X323295Y100447D01*
X322413Y98318D01*
X320782Y96687D01*
X318653Y95805D01*
X316347Y95805D01*
X314217Y96688D01*
X314198Y96703D01*
X314180Y96724D01*
X314043Y96831D01*
X313907Y96941D01*
X313884Y96954D01*
X313862Y96970D01*
X313705Y97048D01*
X313551Y97130D01*
X313526Y97138D01*
X313502Y97150D01*
X313332Y97195D01*
X313166Y97245D01*
X313139Y97247D01*
X313113Y97254D01*
X312782Y97281D01*
X240441Y97281D01*
X238854Y97939D01*
X186839Y149954D01*
X186181Y151541D01*
X186181Y388982D01*
X186171Y389085D01*
X186171Y389188D01*
X186151Y389285D01*
X186141Y389383D01*
X186111Y389482D01*
X186090Y389583D01*
X186046Y389693D01*
X186027Y389756D01*
X186023Y389768D01*
X185996Y389818D01*
X185967Y389891D01*
X185895Y390004D01*
X185831Y390122D01*
X185788Y390174D01*
X185752Y390231D01*
X185659Y390328D01*
X185574Y390431D01*
X185521Y390474D01*
X185474Y390523D01*
X185364Y390600D01*
X185260Y390684D01*
X185200Y390715D01*
X185144Y390754D01*
X185021Y390807D01*
X184903Y390869D01*
X184838Y390888D01*
X184775Y390915D01*
X184644Y390943D01*
X184516Y390980D01*
X184448Y390986D01*
X184382Y391000D01*
X184248Y391002D01*
X184114Y391013D01*
X184047Y391005D01*
X183979Y391006D01*
X183848Y390982D01*
X183715Y390966D01*
X183650Y390945D01*
X183584Y390933D01*
X183459Y390883D01*
X183332Y390842D01*
X183273Y390808D01*
X183210Y390783D01*
X183098Y390710D01*
X182981Y390644D01*
X182930Y390599D01*
X182873Y390562D01*
X182778Y390468D01*
X182676Y390381D01*
X182635Y390327D01*
X182587Y390279D01*
X182512Y390168D01*
X182430Y390062D01*
X182400Y390002D01*
X182362Y389946D01*
X182310Y389822D01*
X182250Y389702D01*
X182233Y389636D01*
X182207Y389574D01*
X182181Y389442D01*
X182146Y389313D01*
X182139Y389235D01*
X182128Y389179D01*
X182128Y389101D01*
X182119Y388982D01*
X182119Y142330D01*
X182121Y142304D01*
X182119Y142277D01*
X182141Y142103D01*
X182159Y141930D01*
X182166Y141904D01*
X182170Y141878D01*
X182225Y141712D01*
X182277Y141545D01*
X182290Y141521D01*
X182298Y141496D01*
X182385Y141344D01*
X182469Y141191D01*
X182486Y141170D01*
X182499Y141147D01*
X182714Y140894D01*
X232261Y91346D01*
X232919Y89759D01*
X232919Y81624D01*
X232921Y81601D01*
X232919Y81579D01*
X232941Y81401D01*
X232959Y81223D01*
X232965Y81202D01*
X232968Y81179D01*
X233024Y81009D01*
X233077Y80838D01*
X233087Y80818D01*
X233094Y80797D01*
X233183Y80642D01*
X233269Y80484D01*
X233283Y80467D01*
X233294Y80447D01*
X233412Y80312D01*
X233526Y80175D01*
X233544Y80161D01*
X233558Y80144D01*
X233701Y80034D01*
X233840Y79922D01*
X233860Y79912D01*
X233878Y79898D01*
X233956Y79858D01*
X236671Y77143D01*
X238121Y73644D01*
X238121Y53356D01*
X236671Y49857D01*
X233879Y47065D01*
X233868Y47051D01*
X233854Y47039D01*
X233740Y46895D01*
X233624Y46753D01*
X233616Y46738D01*
X233605Y46724D01*
X233521Y46560D01*
X233435Y46398D01*
X233430Y46380D01*
X233422Y46365D01*
X233373Y46188D01*
X233321Y46012D01*
X233319Y45994D01*
X233314Y45977D01*
X233301Y45794D01*
X233284Y45611D01*
X233286Y45593D01*
X233285Y45575D01*
X233308Y45393D01*
X233328Y45210D01*
X233333Y45193D01*
X233335Y45176D01*
X233394Y45002D01*
X233449Y44827D01*
X233458Y44811D01*
X233463Y44794D01*
X233555Y44635D01*
X233644Y44474D01*
X233656Y44461D01*
X233664Y44445D01*
X233879Y44192D01*
X235417Y42655D01*
X236641Y39699D01*
X236641Y36501D01*
X235417Y33545D01*
X233155Y31283D01*
X230199Y30059D01*
X227001Y30059D01*
G37*
%LPD*%
%LPC*%
G36*
X252847Y375205D02*
X252847Y375205D01*
X250718Y376087D01*
X249087Y377718D01*
X248205Y379847D01*
X248205Y382153D01*
X249087Y384282D01*
X250719Y385914D01*
X250724Y385921D01*
X250731Y385926D01*
X250852Y386076D01*
X250974Y386225D01*
X250978Y386233D01*
X250984Y386240D01*
X251072Y386410D01*
X251162Y386581D01*
X251165Y386590D01*
X251169Y386597D01*
X251222Y386782D01*
X251277Y386967D01*
X251278Y386976D01*
X251280Y386984D01*
X251296Y387175D01*
X251314Y387368D01*
X251313Y387377D01*
X251313Y387386D01*
X251291Y387575D01*
X251270Y387768D01*
X251267Y387777D01*
X251266Y387785D01*
X251207Y387967D01*
X251149Y388152D01*
X251144Y388160D01*
X251142Y388168D01*
X251047Y388335D01*
X250954Y388504D01*
X250948Y388511D01*
X250944Y388519D01*
X250819Y388664D01*
X250693Y388811D01*
X250686Y388817D01*
X250681Y388824D01*
X250530Y388940D01*
X250377Y389061D01*
X250369Y389065D01*
X250362Y389070D01*
X250191Y389156D01*
X250019Y389243D01*
X250010Y389246D01*
X250002Y389250D01*
X249816Y389300D01*
X249631Y389351D01*
X249622Y389352D01*
X249613Y389354D01*
X249282Y389381D01*
X246018Y389381D01*
X245991Y389379D01*
X245964Y389381D01*
X245790Y389359D01*
X245617Y389341D01*
X245592Y389334D01*
X245565Y389330D01*
X245399Y389275D01*
X245232Y389223D01*
X245209Y389210D01*
X245183Y389202D01*
X245032Y389115D01*
X244878Y389031D01*
X244858Y389014D01*
X244834Y389001D01*
X244583Y388788D01*
X242453Y387905D01*
X240147Y387905D01*
X238018Y388787D01*
X236387Y390418D01*
X235505Y392547D01*
X235505Y394853D01*
X236387Y396982D01*
X238018Y398613D01*
X240147Y399495D01*
X242453Y399495D01*
X244583Y398612D01*
X244602Y398597D01*
X244620Y398576D01*
X244757Y398469D01*
X244893Y398359D01*
X244916Y398346D01*
X244938Y398330D01*
X245095Y398252D01*
X245249Y398170D01*
X245274Y398162D01*
X245298Y398150D01*
X245468Y398105D01*
X245634Y398055D01*
X245661Y398053D01*
X245687Y398046D01*
X246018Y398019D01*
X340270Y398019D01*
X340296Y398021D01*
X340323Y398019D01*
X340497Y398041D01*
X340670Y398059D01*
X340696Y398066D01*
X340722Y398070D01*
X340888Y398125D01*
X341055Y398177D01*
X341079Y398190D01*
X341104Y398198D01*
X341256Y398285D01*
X341409Y398369D01*
X341430Y398386D01*
X341453Y398399D01*
X341706Y398614D01*
X350686Y407594D01*
X350703Y407615D01*
X350724Y407632D01*
X350831Y407770D01*
X350941Y407905D01*
X350954Y407929D01*
X350970Y407950D01*
X351048Y408107D01*
X351130Y408261D01*
X351138Y408287D01*
X351150Y408311D01*
X351195Y408480D01*
X351245Y408647D01*
X351247Y408674D01*
X351254Y408700D01*
X351281Y409030D01*
X351281Y426376D01*
X351279Y426399D01*
X351281Y426421D01*
X351259Y426599D01*
X351241Y426777D01*
X351235Y426798D01*
X351232Y426821D01*
X351176Y426991D01*
X351123Y427162D01*
X351113Y427182D01*
X351106Y427203D01*
X351017Y427358D01*
X350931Y427516D01*
X350917Y427533D01*
X350906Y427553D01*
X350788Y427688D01*
X350674Y427825D01*
X350656Y427839D01*
X350642Y427856D01*
X350499Y427966D01*
X350360Y428078D01*
X350340Y428088D01*
X350322Y428102D01*
X350244Y428142D01*
X347529Y430857D01*
X346079Y434356D01*
X346079Y454644D01*
X347529Y458143D01*
X350321Y460935D01*
X350332Y460949D01*
X350346Y460961D01*
X350460Y461105D01*
X350576Y461247D01*
X350584Y461262D01*
X350595Y461276D01*
X350679Y461440D01*
X350765Y461602D01*
X350770Y461620D01*
X350778Y461635D01*
X350827Y461812D01*
X350879Y461988D01*
X350881Y462006D01*
X350886Y462023D01*
X350899Y462206D01*
X350916Y462389D01*
X350914Y462407D01*
X350915Y462425D01*
X350892Y462607D01*
X350872Y462790D01*
X350867Y462807D01*
X350865Y462824D01*
X350806Y462998D01*
X350751Y463173D01*
X350742Y463189D01*
X350737Y463206D01*
X350645Y463365D01*
X350556Y463526D01*
X350544Y463539D01*
X350536Y463555D01*
X350321Y463808D01*
X348783Y465345D01*
X347559Y468301D01*
X347559Y471499D01*
X348783Y474455D01*
X351045Y476717D01*
X354001Y477941D01*
X357199Y477941D01*
X360155Y476717D01*
X362417Y474455D01*
X363641Y471499D01*
X363641Y468301D01*
X362417Y465345D01*
X360879Y463808D01*
X360868Y463794D01*
X360854Y463782D01*
X360741Y463639D01*
X360624Y463496D01*
X360616Y463481D01*
X360605Y463467D01*
X360521Y463302D01*
X360435Y463141D01*
X360430Y463124D01*
X360422Y463108D01*
X360373Y462931D01*
X360321Y462755D01*
X360319Y462737D01*
X360314Y462720D01*
X360301Y462537D01*
X360284Y462354D01*
X360286Y462336D01*
X360285Y462318D01*
X360308Y462136D01*
X360328Y461953D01*
X360333Y461936D01*
X360335Y461919D01*
X360394Y461745D01*
X360449Y461570D01*
X360458Y461554D01*
X360463Y461537D01*
X360555Y461378D01*
X360644Y461217D01*
X360656Y461204D01*
X360664Y461188D01*
X360879Y460935D01*
X363671Y458143D01*
X365121Y454644D01*
X365121Y434356D01*
X363671Y430857D01*
X360946Y428132D01*
X360818Y428063D01*
X360801Y428049D01*
X360781Y428038D01*
X360646Y427921D01*
X360507Y427807D01*
X360493Y427789D01*
X360476Y427775D01*
X360367Y427633D01*
X360254Y427494D01*
X360243Y427474D01*
X360230Y427457D01*
X360150Y427296D01*
X360067Y427137D01*
X360060Y427116D01*
X360050Y427096D01*
X360004Y426922D01*
X359954Y426751D01*
X359952Y426729D01*
X359946Y426707D01*
X359919Y426376D01*
X359919Y405541D01*
X359261Y403954D01*
X345346Y390039D01*
X343759Y389381D01*
X325393Y389381D01*
X325384Y389380D01*
X325375Y389381D01*
X325183Y389360D01*
X324992Y389341D01*
X324983Y389339D01*
X324975Y389338D01*
X324792Y389280D01*
X324607Y389223D01*
X324599Y389219D01*
X324591Y389216D01*
X324422Y389123D01*
X324253Y389031D01*
X324246Y389026D01*
X324238Y389021D01*
X324091Y388896D01*
X323944Y388774D01*
X323938Y388767D01*
X323931Y388761D01*
X323811Y388609D01*
X323691Y388460D01*
X323687Y388452D01*
X323682Y388445D01*
X323594Y388273D01*
X323506Y388103D01*
X323503Y388094D01*
X323499Y388086D01*
X323447Y387899D01*
X323395Y387716D01*
X323394Y387707D01*
X323391Y387698D01*
X323377Y387506D01*
X323362Y387314D01*
X323363Y387306D01*
X323362Y387297D01*
X323386Y387104D01*
X323409Y386915D01*
X323411Y386906D01*
X323412Y386897D01*
X323474Y386714D01*
X323533Y386532D01*
X323538Y386524D01*
X323541Y386516D01*
X323636Y386350D01*
X323731Y386181D01*
X323737Y386174D01*
X323742Y386167D01*
X323956Y385914D01*
X325588Y384282D01*
X326470Y382153D01*
X326470Y379847D01*
X325588Y377718D01*
X323957Y376087D01*
X321828Y375205D01*
X319522Y375205D01*
X317392Y376088D01*
X317373Y376103D01*
X317355Y376124D01*
X317218Y376231D01*
X317082Y376341D01*
X317059Y376354D01*
X317037Y376370D01*
X316880Y376448D01*
X316726Y376530D01*
X316701Y376538D01*
X316677Y376550D01*
X316507Y376595D01*
X316341Y376645D01*
X316314Y376647D01*
X316288Y376654D01*
X315957Y376681D01*
X258718Y376681D01*
X258691Y376679D01*
X258664Y376681D01*
X258490Y376659D01*
X258317Y376641D01*
X258292Y376634D01*
X258265Y376630D01*
X258099Y376575D01*
X257932Y376523D01*
X257909Y376510D01*
X257883Y376502D01*
X257732Y376415D01*
X257578Y376331D01*
X257558Y376314D01*
X257534Y376301D01*
X257283Y376088D01*
X255153Y375205D01*
X252847Y375205D01*
G37*
%LPD*%
%LPC*%
G36*
X138101Y30059D02*
X138101Y30059D01*
X135145Y31283D01*
X132883Y33545D01*
X131659Y36501D01*
X131659Y39699D01*
X132883Y42655D01*
X134421Y44192D01*
X134432Y44206D01*
X134446Y44218D01*
X134559Y44361D01*
X134676Y44504D01*
X134684Y44519D01*
X134695Y44533D01*
X134779Y44698D01*
X134865Y44859D01*
X134870Y44876D01*
X134878Y44892D01*
X134927Y45069D01*
X134979Y45245D01*
X134981Y45263D01*
X134986Y45280D01*
X134999Y45463D01*
X135016Y45646D01*
X135014Y45664D01*
X135015Y45682D01*
X134992Y45864D01*
X134972Y46047D01*
X134967Y46064D01*
X134965Y46081D01*
X134906Y46255D01*
X134851Y46430D01*
X134842Y46446D01*
X134837Y46463D01*
X134745Y46622D01*
X134656Y46783D01*
X134644Y46796D01*
X134636Y46812D01*
X134421Y47065D01*
X131629Y49857D01*
X130179Y53356D01*
X130179Y73644D01*
X131629Y77143D01*
X134354Y79868D01*
X134482Y79937D01*
X134499Y79951D01*
X134519Y79962D01*
X134654Y80079D01*
X134793Y80193D01*
X134807Y80211D01*
X134824Y80225D01*
X134933Y80367D01*
X135046Y80506D01*
X135057Y80526D01*
X135070Y80543D01*
X135150Y80704D01*
X135233Y80863D01*
X135240Y80884D01*
X135250Y80904D01*
X135296Y81077D01*
X135346Y81249D01*
X135348Y81271D01*
X135354Y81293D01*
X135381Y81624D01*
X135381Y165645D01*
X135379Y165671D01*
X135381Y165698D01*
X135359Y165872D01*
X135341Y166045D01*
X135334Y166071D01*
X135330Y166097D01*
X135275Y166263D01*
X135223Y166430D01*
X135210Y166454D01*
X135202Y166479D01*
X135115Y166631D01*
X135031Y166784D01*
X135014Y166805D01*
X135001Y166828D01*
X134786Y167081D01*
X111407Y190460D01*
X111386Y190477D01*
X111369Y190498D01*
X111231Y190605D01*
X111096Y190715D01*
X111072Y190728D01*
X111051Y190744D01*
X110894Y190822D01*
X110740Y190904D01*
X110714Y190912D01*
X110690Y190924D01*
X110521Y190969D01*
X110354Y191019D01*
X110327Y191021D01*
X110301Y191028D01*
X109973Y191055D01*
X107843Y191937D01*
X106212Y193568D01*
X105330Y195697D01*
X105330Y198003D01*
X106212Y200132D01*
X107843Y201763D01*
X109972Y202645D01*
X112278Y202645D01*
X114407Y201763D01*
X116038Y200132D01*
X116920Y198002D01*
X116922Y197978D01*
X116920Y197951D01*
X116942Y197777D01*
X116960Y197604D01*
X116967Y197578D01*
X116971Y197552D01*
X117026Y197386D01*
X117078Y197219D01*
X117091Y197195D01*
X117099Y197170D01*
X117186Y197018D01*
X117270Y196865D01*
X117287Y196844D01*
X117300Y196821D01*
X117515Y196568D01*
X143361Y170721D01*
X144019Y169134D01*
X144019Y81624D01*
X144021Y81601D01*
X144019Y81579D01*
X144041Y81401D01*
X144059Y81223D01*
X144065Y81202D01*
X144068Y81179D01*
X144124Y81009D01*
X144177Y80838D01*
X144187Y80818D01*
X144194Y80797D01*
X144283Y80642D01*
X144369Y80484D01*
X144383Y80467D01*
X144394Y80447D01*
X144512Y80312D01*
X144626Y80175D01*
X144644Y80161D01*
X144658Y80144D01*
X144801Y80034D01*
X144940Y79922D01*
X144960Y79912D01*
X144978Y79898D01*
X145056Y79858D01*
X147771Y77143D01*
X149221Y73644D01*
X149221Y53356D01*
X147771Y49857D01*
X144979Y47065D01*
X144968Y47051D01*
X144954Y47039D01*
X144840Y46895D01*
X144724Y46753D01*
X144716Y46738D01*
X144705Y46724D01*
X144621Y46560D01*
X144535Y46398D01*
X144530Y46380D01*
X144522Y46365D01*
X144473Y46188D01*
X144421Y46012D01*
X144419Y45994D01*
X144414Y45977D01*
X144401Y45794D01*
X144384Y45611D01*
X144386Y45593D01*
X144385Y45575D01*
X144408Y45393D01*
X144428Y45210D01*
X144433Y45193D01*
X144435Y45176D01*
X144494Y45002D01*
X144549Y44827D01*
X144558Y44811D01*
X144563Y44794D01*
X144655Y44635D01*
X144744Y44474D01*
X144756Y44461D01*
X144764Y44445D01*
X144979Y44192D01*
X146517Y42655D01*
X147741Y39699D01*
X147741Y36501D01*
X146517Y33545D01*
X144255Y31283D01*
X141299Y30059D01*
X138101Y30059D01*
G37*
%LPD*%
%LPC*%
G36*
X112701Y30059D02*
X112701Y30059D01*
X109745Y31283D01*
X107483Y33545D01*
X106259Y36501D01*
X106259Y39699D01*
X107483Y42655D01*
X109021Y44192D01*
X109032Y44206D01*
X109046Y44218D01*
X109159Y44361D01*
X109276Y44504D01*
X109284Y44519D01*
X109295Y44533D01*
X109379Y44698D01*
X109465Y44859D01*
X109470Y44876D01*
X109478Y44892D01*
X109527Y45069D01*
X109579Y45245D01*
X109581Y45263D01*
X109586Y45280D01*
X109599Y45463D01*
X109616Y45646D01*
X109614Y45664D01*
X109615Y45682D01*
X109592Y45864D01*
X109572Y46047D01*
X109567Y46064D01*
X109565Y46081D01*
X109506Y46255D01*
X109451Y46430D01*
X109442Y46446D01*
X109437Y46463D01*
X109345Y46622D01*
X109256Y46783D01*
X109244Y46796D01*
X109236Y46812D01*
X109021Y47065D01*
X106229Y49857D01*
X104779Y53356D01*
X104779Y73644D01*
X106229Y77143D01*
X108954Y79868D01*
X109082Y79937D01*
X109099Y79951D01*
X109119Y79962D01*
X109254Y80079D01*
X109393Y80193D01*
X109407Y80211D01*
X109424Y80225D01*
X109533Y80367D01*
X109646Y80506D01*
X109657Y80526D01*
X109670Y80543D01*
X109750Y80704D01*
X109833Y80863D01*
X109840Y80884D01*
X109850Y80904D01*
X109896Y81077D01*
X109946Y81249D01*
X109948Y81271D01*
X109954Y81293D01*
X109981Y81624D01*
X109981Y128632D01*
X109979Y128659D01*
X109981Y128686D01*
X109959Y128860D01*
X109941Y129033D01*
X109934Y129058D01*
X109930Y129085D01*
X109875Y129251D01*
X109823Y129418D01*
X109810Y129441D01*
X109802Y129467D01*
X109715Y129618D01*
X109631Y129772D01*
X109614Y129792D01*
X109601Y129816D01*
X109388Y130067D01*
X108505Y132197D01*
X108505Y134503D01*
X109387Y136632D01*
X111018Y138263D01*
X113147Y139145D01*
X115453Y139145D01*
X117582Y138263D01*
X119213Y136632D01*
X120095Y134503D01*
X120095Y132197D01*
X119212Y130067D01*
X119197Y130048D01*
X119176Y130030D01*
X119069Y129893D01*
X118959Y129757D01*
X118946Y129734D01*
X118930Y129712D01*
X118852Y129555D01*
X118770Y129401D01*
X118762Y129376D01*
X118750Y129352D01*
X118705Y129182D01*
X118655Y129016D01*
X118653Y128989D01*
X118646Y128963D01*
X118619Y128632D01*
X118619Y81624D01*
X118621Y81601D01*
X118619Y81579D01*
X118641Y81401D01*
X118659Y81223D01*
X118665Y81202D01*
X118668Y81179D01*
X118724Y81009D01*
X118777Y80838D01*
X118787Y80818D01*
X118794Y80797D01*
X118883Y80642D01*
X118969Y80484D01*
X118983Y80467D01*
X118994Y80447D01*
X119112Y80312D01*
X119226Y80175D01*
X119244Y80161D01*
X119258Y80144D01*
X119401Y80034D01*
X119540Y79922D01*
X119560Y79912D01*
X119578Y79898D01*
X119656Y79858D01*
X122371Y77143D01*
X123821Y73644D01*
X123821Y53356D01*
X122371Y49857D01*
X119579Y47065D01*
X119568Y47051D01*
X119554Y47039D01*
X119440Y46895D01*
X119324Y46753D01*
X119316Y46738D01*
X119305Y46724D01*
X119221Y46560D01*
X119135Y46398D01*
X119130Y46380D01*
X119122Y46365D01*
X119073Y46188D01*
X119021Y46012D01*
X119019Y45994D01*
X119014Y45977D01*
X119001Y45794D01*
X118984Y45611D01*
X118986Y45593D01*
X118985Y45575D01*
X119008Y45393D01*
X119028Y45210D01*
X119033Y45193D01*
X119035Y45176D01*
X119094Y45002D01*
X119149Y44827D01*
X119158Y44811D01*
X119163Y44794D01*
X119255Y44635D01*
X119344Y44474D01*
X119356Y44461D01*
X119364Y44445D01*
X119579Y44192D01*
X121117Y42655D01*
X122341Y39699D01*
X122341Y36501D01*
X121117Y33545D01*
X118855Y31283D01*
X115899Y30059D01*
X112701Y30059D01*
G37*
%LPD*%
%LPC*%
G36*
X290501Y30059D02*
X290501Y30059D01*
X287545Y31283D01*
X285283Y33545D01*
X284059Y36501D01*
X284059Y39699D01*
X285283Y42655D01*
X286821Y44192D01*
X286832Y44206D01*
X286846Y44218D01*
X286960Y44362D01*
X287076Y44504D01*
X287084Y44519D01*
X287095Y44533D01*
X287179Y44698D01*
X287265Y44859D01*
X287270Y44876D01*
X287278Y44892D01*
X287327Y45070D01*
X287379Y45245D01*
X287381Y45263D01*
X287386Y45280D01*
X287399Y45463D01*
X287416Y45646D01*
X287414Y45664D01*
X287415Y45682D01*
X287392Y45864D01*
X287372Y46047D01*
X287367Y46064D01*
X287365Y46081D01*
X287306Y46255D01*
X287251Y46430D01*
X287242Y46446D01*
X287236Y46463D01*
X287145Y46622D01*
X287056Y46783D01*
X287045Y46796D01*
X287036Y46812D01*
X286821Y47065D01*
X284029Y49857D01*
X282579Y53356D01*
X282579Y73644D01*
X284029Y77143D01*
X286707Y79821D01*
X290206Y81271D01*
X293994Y81271D01*
X297493Y79821D01*
X300171Y77143D01*
X301621Y73644D01*
X301621Y53356D01*
X300171Y49857D01*
X297379Y47065D01*
X297368Y47051D01*
X297354Y47039D01*
X297240Y46895D01*
X297124Y46753D01*
X297116Y46738D01*
X297105Y46724D01*
X297021Y46558D01*
X296935Y46398D01*
X296930Y46381D01*
X296922Y46365D01*
X296873Y46187D01*
X296821Y46012D01*
X296819Y45994D01*
X296814Y45977D01*
X296801Y45794D01*
X296784Y45611D01*
X296786Y45593D01*
X296785Y45575D01*
X296808Y45393D01*
X296828Y45210D01*
X296833Y45193D01*
X296835Y45176D01*
X296894Y45002D01*
X296949Y44827D01*
X296958Y44811D01*
X296964Y44794D01*
X297055Y44635D01*
X297144Y44474D01*
X297155Y44461D01*
X297164Y44445D01*
X297379Y44192D01*
X298917Y42655D01*
X300141Y39699D01*
X300141Y36501D01*
X298917Y33545D01*
X296655Y31283D01*
X293699Y30059D01*
X290501Y30059D01*
G37*
%LPD*%
%LPC*%
G36*
X315901Y30059D02*
X315901Y30059D01*
X312945Y31283D01*
X310683Y33545D01*
X309459Y36501D01*
X309459Y39699D01*
X310683Y42655D01*
X312221Y44192D01*
X312232Y44206D01*
X312246Y44218D01*
X312360Y44362D01*
X312476Y44504D01*
X312484Y44519D01*
X312495Y44533D01*
X312579Y44698D01*
X312665Y44859D01*
X312670Y44876D01*
X312678Y44892D01*
X312727Y45070D01*
X312779Y45245D01*
X312781Y45263D01*
X312786Y45280D01*
X312799Y45463D01*
X312816Y45646D01*
X312814Y45664D01*
X312815Y45682D01*
X312792Y45864D01*
X312772Y46047D01*
X312767Y46064D01*
X312765Y46081D01*
X312706Y46255D01*
X312651Y46430D01*
X312642Y46446D01*
X312636Y46463D01*
X312545Y46622D01*
X312456Y46783D01*
X312445Y46796D01*
X312436Y46812D01*
X312221Y47065D01*
X309429Y49857D01*
X307979Y53356D01*
X307979Y73644D01*
X309429Y77143D01*
X312107Y79821D01*
X315606Y81271D01*
X319394Y81271D01*
X322893Y79821D01*
X325571Y77143D01*
X327021Y73644D01*
X327021Y53356D01*
X325571Y49857D01*
X322779Y47065D01*
X322768Y47051D01*
X322754Y47039D01*
X322640Y46895D01*
X322524Y46753D01*
X322516Y46738D01*
X322505Y46724D01*
X322421Y46558D01*
X322335Y46398D01*
X322330Y46381D01*
X322322Y46365D01*
X322273Y46187D01*
X322221Y46012D01*
X322219Y45994D01*
X322214Y45977D01*
X322201Y45794D01*
X322184Y45611D01*
X322186Y45593D01*
X322185Y45575D01*
X322208Y45393D01*
X322228Y45210D01*
X322233Y45193D01*
X322235Y45176D01*
X322294Y45002D01*
X322349Y44827D01*
X322358Y44811D01*
X322364Y44794D01*
X322455Y44635D01*
X322544Y44474D01*
X322555Y44461D01*
X322564Y44445D01*
X322779Y44192D01*
X324317Y42655D01*
X325541Y39699D01*
X325541Y36501D01*
X324317Y33545D01*
X322055Y31283D01*
X319099Y30059D01*
X315901Y30059D01*
G37*
%LPD*%
%LPC*%
G36*
X87301Y30059D02*
X87301Y30059D01*
X84345Y31283D01*
X82083Y33545D01*
X80859Y36501D01*
X80859Y39699D01*
X82083Y42655D01*
X83621Y44192D01*
X83632Y44206D01*
X83646Y44218D01*
X83759Y44361D01*
X83876Y44504D01*
X83884Y44519D01*
X83895Y44533D01*
X83979Y44698D01*
X84065Y44859D01*
X84070Y44876D01*
X84078Y44892D01*
X84127Y45069D01*
X84179Y45245D01*
X84181Y45263D01*
X84186Y45280D01*
X84199Y45463D01*
X84216Y45646D01*
X84214Y45664D01*
X84215Y45682D01*
X84192Y45864D01*
X84172Y46047D01*
X84167Y46064D01*
X84165Y46081D01*
X84106Y46255D01*
X84051Y46430D01*
X84042Y46446D01*
X84037Y46463D01*
X83945Y46622D01*
X83856Y46783D01*
X83844Y46796D01*
X83836Y46812D01*
X83621Y47065D01*
X80829Y49857D01*
X79379Y53356D01*
X79379Y73644D01*
X80829Y77143D01*
X83507Y79821D01*
X87006Y81271D01*
X90794Y81271D01*
X94293Y79821D01*
X96971Y77143D01*
X98421Y73644D01*
X98421Y53356D01*
X96971Y49857D01*
X94179Y47065D01*
X94168Y47051D01*
X94154Y47039D01*
X94040Y46895D01*
X93924Y46753D01*
X93916Y46738D01*
X93905Y46724D01*
X93821Y46560D01*
X93735Y46398D01*
X93730Y46380D01*
X93722Y46365D01*
X93673Y46188D01*
X93621Y46012D01*
X93619Y45994D01*
X93614Y45977D01*
X93601Y45794D01*
X93584Y45611D01*
X93586Y45593D01*
X93585Y45575D01*
X93608Y45393D01*
X93628Y45210D01*
X93633Y45193D01*
X93635Y45176D01*
X93694Y45002D01*
X93749Y44827D01*
X93758Y44811D01*
X93763Y44794D01*
X93855Y44635D01*
X93944Y44474D01*
X93956Y44461D01*
X93964Y44445D01*
X94179Y44192D01*
X95717Y42655D01*
X96941Y39699D01*
X96941Y36501D01*
X95717Y33545D01*
X93455Y31283D01*
X90499Y30059D01*
X87301Y30059D01*
G37*
%LPD*%
%LPC*%
G36*
X379106Y426729D02*
X379106Y426729D01*
X375607Y428179D01*
X372929Y430857D01*
X371479Y434356D01*
X371479Y454644D01*
X372929Y458143D01*
X375721Y460935D01*
X375732Y460949D01*
X375746Y460961D01*
X375860Y461105D01*
X375976Y461247D01*
X375984Y461262D01*
X375995Y461276D01*
X376079Y461440D01*
X376165Y461602D01*
X376170Y461620D01*
X376178Y461635D01*
X376227Y461812D01*
X376279Y461988D01*
X376281Y462006D01*
X376286Y462023D01*
X376299Y462206D01*
X376316Y462389D01*
X376314Y462407D01*
X376315Y462425D01*
X376292Y462607D01*
X376272Y462790D01*
X376267Y462807D01*
X376265Y462824D01*
X376206Y462998D01*
X376151Y463173D01*
X376142Y463189D01*
X376137Y463206D01*
X376045Y463365D01*
X375956Y463526D01*
X375944Y463539D01*
X375936Y463555D01*
X375721Y463808D01*
X374183Y465345D01*
X372959Y468301D01*
X372959Y471499D01*
X374183Y474455D01*
X376445Y476717D01*
X379401Y477941D01*
X382599Y477941D01*
X385555Y476717D01*
X387817Y474455D01*
X389041Y471499D01*
X389041Y468301D01*
X387817Y465345D01*
X386279Y463808D01*
X386268Y463794D01*
X386254Y463782D01*
X386141Y463639D01*
X386024Y463496D01*
X386016Y463481D01*
X386005Y463467D01*
X385921Y463302D01*
X385835Y463141D01*
X385830Y463124D01*
X385822Y463108D01*
X385773Y462931D01*
X385721Y462755D01*
X385719Y462737D01*
X385714Y462720D01*
X385701Y462537D01*
X385684Y462354D01*
X385686Y462336D01*
X385685Y462318D01*
X385708Y462136D01*
X385728Y461953D01*
X385733Y461936D01*
X385735Y461919D01*
X385794Y461745D01*
X385849Y461570D01*
X385858Y461554D01*
X385863Y461537D01*
X385955Y461378D01*
X386044Y461217D01*
X386056Y461204D01*
X386064Y461188D01*
X386279Y460935D01*
X389071Y458143D01*
X390521Y454644D01*
X390521Y434356D01*
X389071Y430857D01*
X386393Y428179D01*
X382894Y426729D01*
X379106Y426729D01*
G37*
%LPD*%
%LPC*%
G36*
X290206Y426729D02*
X290206Y426729D01*
X286707Y428179D01*
X284029Y430857D01*
X282579Y434356D01*
X282579Y454644D01*
X284029Y458143D01*
X286821Y460935D01*
X286832Y460949D01*
X286846Y460961D01*
X286960Y461105D01*
X287076Y461247D01*
X287084Y461262D01*
X287095Y461276D01*
X287179Y461440D01*
X287265Y461602D01*
X287270Y461620D01*
X287278Y461635D01*
X287327Y461812D01*
X287379Y461988D01*
X287381Y462006D01*
X287386Y462023D01*
X287399Y462206D01*
X287416Y462389D01*
X287414Y462407D01*
X287415Y462425D01*
X287392Y462607D01*
X287372Y462790D01*
X287367Y462807D01*
X287365Y462824D01*
X287306Y462998D01*
X287251Y463173D01*
X287242Y463189D01*
X287237Y463206D01*
X287145Y463365D01*
X287056Y463526D01*
X287044Y463539D01*
X287036Y463555D01*
X286821Y463808D01*
X285283Y465345D01*
X284059Y468301D01*
X284059Y471499D01*
X285283Y474455D01*
X287545Y476717D01*
X290501Y477941D01*
X293699Y477941D01*
X296655Y476717D01*
X298917Y474455D01*
X300141Y471499D01*
X300141Y468301D01*
X298917Y465345D01*
X297379Y463808D01*
X297368Y463794D01*
X297354Y463782D01*
X297241Y463639D01*
X297124Y463496D01*
X297116Y463481D01*
X297105Y463467D01*
X297021Y463302D01*
X296935Y463141D01*
X296930Y463124D01*
X296922Y463108D01*
X296873Y462931D01*
X296821Y462755D01*
X296819Y462737D01*
X296814Y462720D01*
X296801Y462537D01*
X296784Y462354D01*
X296786Y462336D01*
X296785Y462318D01*
X296808Y462136D01*
X296828Y461953D01*
X296833Y461936D01*
X296835Y461919D01*
X296894Y461745D01*
X296949Y461570D01*
X296958Y461554D01*
X296963Y461537D01*
X297055Y461378D01*
X297144Y461217D01*
X297156Y461204D01*
X297164Y461188D01*
X297379Y460935D01*
X300171Y458143D01*
X301621Y454644D01*
X301621Y434356D01*
X300171Y430857D01*
X297493Y428179D01*
X293994Y426729D01*
X290206Y426729D01*
G37*
%LPD*%
%LPC*%
G36*
X264806Y426729D02*
X264806Y426729D01*
X261307Y428179D01*
X258629Y430857D01*
X257179Y434356D01*
X257179Y454644D01*
X258629Y458143D01*
X261421Y460935D01*
X261432Y460949D01*
X261446Y460961D01*
X261560Y461105D01*
X261676Y461247D01*
X261684Y461262D01*
X261695Y461276D01*
X261779Y461440D01*
X261865Y461602D01*
X261870Y461620D01*
X261878Y461635D01*
X261927Y461812D01*
X261979Y461988D01*
X261981Y462006D01*
X261986Y462023D01*
X261999Y462206D01*
X262016Y462389D01*
X262014Y462407D01*
X262015Y462425D01*
X261992Y462607D01*
X261972Y462790D01*
X261967Y462807D01*
X261965Y462824D01*
X261906Y462998D01*
X261851Y463173D01*
X261842Y463189D01*
X261837Y463206D01*
X261745Y463365D01*
X261656Y463526D01*
X261644Y463539D01*
X261636Y463555D01*
X261421Y463808D01*
X259883Y465345D01*
X258659Y468301D01*
X258659Y471499D01*
X259883Y474455D01*
X262145Y476717D01*
X265101Y477941D01*
X268299Y477941D01*
X271255Y476717D01*
X273517Y474455D01*
X274741Y471499D01*
X274741Y468301D01*
X273517Y465345D01*
X271979Y463808D01*
X271968Y463794D01*
X271954Y463782D01*
X271841Y463639D01*
X271724Y463496D01*
X271716Y463481D01*
X271705Y463467D01*
X271621Y463302D01*
X271535Y463141D01*
X271530Y463124D01*
X271522Y463108D01*
X271473Y462931D01*
X271421Y462755D01*
X271419Y462737D01*
X271414Y462720D01*
X271401Y462537D01*
X271384Y462354D01*
X271386Y462336D01*
X271385Y462318D01*
X271408Y462136D01*
X271428Y461953D01*
X271433Y461936D01*
X271435Y461919D01*
X271494Y461745D01*
X271549Y461570D01*
X271558Y461554D01*
X271563Y461537D01*
X271655Y461378D01*
X271744Y461217D01*
X271756Y461204D01*
X271764Y461188D01*
X271979Y460935D01*
X274771Y458143D01*
X276221Y454644D01*
X276221Y434356D01*
X274771Y430857D01*
X272093Y428179D01*
X268594Y426729D01*
X264806Y426729D01*
G37*
%LPD*%
%LPC*%
G36*
X201306Y426729D02*
X201306Y426729D01*
X197807Y428179D01*
X195129Y430857D01*
X193679Y434356D01*
X193679Y454644D01*
X195129Y458143D01*
X197921Y460935D01*
X197932Y460949D01*
X197946Y460961D01*
X198060Y461105D01*
X198176Y461247D01*
X198184Y461262D01*
X198195Y461276D01*
X198279Y461440D01*
X198365Y461602D01*
X198370Y461620D01*
X198378Y461635D01*
X198427Y461812D01*
X198479Y461988D01*
X198481Y462006D01*
X198486Y462023D01*
X198499Y462206D01*
X198516Y462389D01*
X198514Y462407D01*
X198515Y462425D01*
X198492Y462607D01*
X198472Y462790D01*
X198467Y462807D01*
X198465Y462824D01*
X198406Y462998D01*
X198351Y463173D01*
X198342Y463189D01*
X198337Y463206D01*
X198245Y463365D01*
X198156Y463526D01*
X198144Y463539D01*
X198136Y463555D01*
X197921Y463808D01*
X196383Y465345D01*
X195159Y468301D01*
X195159Y471499D01*
X196383Y474455D01*
X198645Y476717D01*
X201601Y477941D01*
X204799Y477941D01*
X207755Y476717D01*
X210017Y474455D01*
X211241Y471499D01*
X211241Y468301D01*
X210017Y465345D01*
X208479Y463808D01*
X208468Y463794D01*
X208454Y463782D01*
X208341Y463639D01*
X208224Y463496D01*
X208216Y463481D01*
X208205Y463467D01*
X208121Y463302D01*
X208035Y463141D01*
X208030Y463124D01*
X208022Y463108D01*
X207973Y462931D01*
X207921Y462755D01*
X207919Y462737D01*
X207914Y462720D01*
X207901Y462537D01*
X207884Y462354D01*
X207886Y462336D01*
X207885Y462318D01*
X207908Y462136D01*
X207928Y461953D01*
X207933Y461936D01*
X207935Y461919D01*
X207994Y461745D01*
X208049Y461570D01*
X208058Y461554D01*
X208063Y461537D01*
X208155Y461378D01*
X208244Y461217D01*
X208256Y461204D01*
X208264Y461188D01*
X208479Y460935D01*
X211271Y458143D01*
X212721Y454644D01*
X212721Y434356D01*
X211271Y430857D01*
X208593Y428179D01*
X205094Y426729D01*
X201306Y426729D01*
G37*
%LPD*%
%LPC*%
G36*
X404801Y30059D02*
X404801Y30059D01*
X401845Y31283D01*
X399583Y33545D01*
X398359Y36501D01*
X398359Y39699D01*
X399583Y42655D01*
X401121Y44192D01*
X401132Y44206D01*
X401146Y44218D01*
X401259Y44361D01*
X401376Y44504D01*
X401384Y44519D01*
X401395Y44533D01*
X401479Y44698D01*
X401565Y44859D01*
X401570Y44876D01*
X401578Y44892D01*
X401627Y45069D01*
X401679Y45245D01*
X401681Y45263D01*
X401686Y45280D01*
X401699Y45463D01*
X401716Y45646D01*
X401714Y45664D01*
X401715Y45682D01*
X401692Y45864D01*
X401672Y46047D01*
X401667Y46064D01*
X401665Y46081D01*
X401606Y46255D01*
X401551Y46430D01*
X401542Y46446D01*
X401537Y46463D01*
X401445Y46622D01*
X401356Y46783D01*
X401344Y46796D01*
X401336Y46812D01*
X401121Y47065D01*
X398329Y49857D01*
X396879Y53356D01*
X396879Y73644D01*
X398329Y77143D01*
X401007Y79821D01*
X404506Y81271D01*
X408294Y81271D01*
X411793Y79821D01*
X414471Y77143D01*
X415921Y73644D01*
X415921Y53356D01*
X414471Y49857D01*
X411679Y47065D01*
X411668Y47051D01*
X411654Y47039D01*
X411540Y46895D01*
X411424Y46753D01*
X411416Y46738D01*
X411405Y46724D01*
X411321Y46560D01*
X411235Y46398D01*
X411230Y46380D01*
X411222Y46365D01*
X411173Y46188D01*
X411121Y46012D01*
X411119Y45994D01*
X411114Y45977D01*
X411101Y45794D01*
X411084Y45611D01*
X411086Y45593D01*
X411085Y45575D01*
X411108Y45393D01*
X411128Y45210D01*
X411133Y45193D01*
X411135Y45176D01*
X411194Y45002D01*
X411249Y44827D01*
X411258Y44811D01*
X411263Y44794D01*
X411355Y44635D01*
X411444Y44474D01*
X411456Y44461D01*
X411464Y44445D01*
X411679Y44192D01*
X413217Y42655D01*
X414441Y39699D01*
X414441Y36501D01*
X413217Y33545D01*
X410955Y31283D01*
X407999Y30059D01*
X404801Y30059D01*
G37*
%LPD*%
%LPC*%
G36*
X201601Y30059D02*
X201601Y30059D01*
X198645Y31283D01*
X196383Y33545D01*
X195159Y36501D01*
X195159Y39699D01*
X196383Y42655D01*
X197921Y44192D01*
X197932Y44206D01*
X197946Y44218D01*
X198059Y44361D01*
X198176Y44504D01*
X198184Y44519D01*
X198195Y44533D01*
X198279Y44698D01*
X198365Y44859D01*
X198370Y44876D01*
X198378Y44892D01*
X198427Y45069D01*
X198479Y45245D01*
X198481Y45263D01*
X198486Y45280D01*
X198499Y45463D01*
X198516Y45646D01*
X198514Y45664D01*
X198515Y45682D01*
X198492Y45864D01*
X198472Y46047D01*
X198467Y46064D01*
X198465Y46081D01*
X198406Y46255D01*
X198351Y46430D01*
X198342Y46446D01*
X198337Y46463D01*
X198245Y46622D01*
X198156Y46783D01*
X198144Y46796D01*
X198136Y46812D01*
X197921Y47065D01*
X195129Y49857D01*
X193679Y53356D01*
X193679Y73644D01*
X195129Y77143D01*
X197807Y79821D01*
X201306Y81271D01*
X205094Y81271D01*
X208593Y79821D01*
X211271Y77143D01*
X212721Y73644D01*
X212721Y53356D01*
X211271Y49857D01*
X208479Y47065D01*
X208468Y47051D01*
X208454Y47039D01*
X208340Y46895D01*
X208224Y46753D01*
X208216Y46738D01*
X208205Y46724D01*
X208121Y46560D01*
X208035Y46398D01*
X208030Y46380D01*
X208022Y46365D01*
X207973Y46188D01*
X207921Y46012D01*
X207919Y45994D01*
X207914Y45977D01*
X207901Y45794D01*
X207884Y45611D01*
X207886Y45593D01*
X207885Y45575D01*
X207908Y45393D01*
X207928Y45210D01*
X207933Y45193D01*
X207935Y45176D01*
X207994Y45002D01*
X208049Y44827D01*
X208058Y44811D01*
X208063Y44794D01*
X208155Y44635D01*
X208244Y44474D01*
X208256Y44461D01*
X208264Y44445D01*
X208479Y44192D01*
X210017Y42655D01*
X211241Y39699D01*
X211241Y36501D01*
X210017Y33545D01*
X207755Y31283D01*
X204799Y30059D01*
X201601Y30059D01*
G37*
%LPD*%
%LPC*%
G36*
X379401Y30059D02*
X379401Y30059D01*
X376445Y31283D01*
X374183Y33545D01*
X372959Y36501D01*
X372959Y39699D01*
X374183Y42655D01*
X375721Y44192D01*
X375732Y44206D01*
X375746Y44218D01*
X375859Y44361D01*
X375976Y44504D01*
X375984Y44519D01*
X375995Y44533D01*
X376079Y44698D01*
X376165Y44859D01*
X376170Y44876D01*
X376178Y44892D01*
X376227Y45069D01*
X376279Y45245D01*
X376281Y45263D01*
X376286Y45280D01*
X376299Y45463D01*
X376316Y45646D01*
X376314Y45664D01*
X376315Y45682D01*
X376292Y45864D01*
X376272Y46047D01*
X376267Y46064D01*
X376265Y46081D01*
X376206Y46255D01*
X376151Y46430D01*
X376142Y46446D01*
X376137Y46463D01*
X376045Y46622D01*
X375956Y46783D01*
X375944Y46796D01*
X375936Y46812D01*
X375721Y47065D01*
X372929Y49857D01*
X371479Y53356D01*
X371479Y73644D01*
X372929Y77143D01*
X375607Y79821D01*
X379106Y81271D01*
X382894Y81271D01*
X386393Y79821D01*
X389071Y77143D01*
X390521Y73644D01*
X390521Y53356D01*
X389071Y49857D01*
X386279Y47065D01*
X386268Y47051D01*
X386254Y47039D01*
X386140Y46895D01*
X386024Y46753D01*
X386016Y46738D01*
X386005Y46724D01*
X385921Y46560D01*
X385835Y46398D01*
X385830Y46380D01*
X385822Y46365D01*
X385773Y46188D01*
X385721Y46012D01*
X385719Y45994D01*
X385714Y45977D01*
X385701Y45794D01*
X385684Y45611D01*
X385686Y45593D01*
X385685Y45575D01*
X385708Y45393D01*
X385728Y45210D01*
X385733Y45193D01*
X385735Y45176D01*
X385794Y45002D01*
X385849Y44827D01*
X385858Y44811D01*
X385863Y44794D01*
X385955Y44635D01*
X386044Y44474D01*
X386056Y44461D01*
X386064Y44445D01*
X386279Y44192D01*
X387817Y42655D01*
X389041Y39699D01*
X389041Y36501D01*
X387817Y33545D01*
X385555Y31283D01*
X382599Y30059D01*
X379401Y30059D01*
G37*
%LPD*%
%LPC*%
G36*
X241301Y447118D02*
X241301Y447118D01*
X241123Y447165D01*
X240948Y447216D01*
X240930Y447218D01*
X240913Y447222D01*
X240582Y447249D01*
X230509Y447249D01*
X230509Y453599D01*
X230775Y455277D01*
X231300Y456892D01*
X232071Y458406D01*
X233069Y459780D01*
X234270Y460981D01*
X234998Y461509D01*
X235130Y461627D01*
X235265Y461742D01*
X235280Y461761D01*
X235298Y461777D01*
X235405Y461918D01*
X235514Y462057D01*
X235526Y462079D01*
X235540Y462099D01*
X235617Y462258D01*
X235697Y462416D01*
X235703Y462440D01*
X235714Y462462D01*
X235757Y462633D01*
X235805Y462804D01*
X235807Y462829D01*
X235813Y462852D01*
X235821Y463028D01*
X235834Y463206D01*
X235831Y463230D01*
X235832Y463254D01*
X235806Y463430D01*
X235784Y463605D01*
X235776Y463628D01*
X235772Y463653D01*
X235712Y463819D01*
X235656Y463987D01*
X235643Y464008D01*
X235635Y464031D01*
X235543Y464182D01*
X235455Y464336D01*
X235437Y464356D01*
X235426Y464375D01*
X235370Y464435D01*
X235240Y464589D01*
X234483Y465345D01*
X233259Y468301D01*
X233259Y471499D01*
X234483Y474455D01*
X236745Y476717D01*
X239701Y477941D01*
X242899Y477941D01*
X245855Y476717D01*
X248117Y474455D01*
X249341Y471499D01*
X249341Y468301D01*
X248117Y465345D01*
X247360Y464589D01*
X247248Y464452D01*
X247132Y464317D01*
X247120Y464296D01*
X247105Y464277D01*
X247022Y464121D01*
X246935Y463966D01*
X246928Y463943D01*
X246916Y463922D01*
X246866Y463752D01*
X246811Y463583D01*
X246809Y463559D01*
X246802Y463536D01*
X246786Y463359D01*
X246765Y463183D01*
X246767Y463159D01*
X246765Y463135D01*
X246784Y462958D01*
X246799Y462782D01*
X246806Y462759D01*
X246809Y462734D01*
X246862Y462566D01*
X246911Y462396D01*
X246923Y462374D01*
X246930Y462351D01*
X247016Y462195D01*
X247098Y462039D01*
X247113Y462020D01*
X247125Y461998D01*
X247240Y461863D01*
X247351Y461725D01*
X247371Y461708D01*
X247385Y461691D01*
X247450Y461640D01*
X247602Y461509D01*
X248330Y460981D01*
X249531Y459780D01*
X250529Y458406D01*
X251300Y456892D01*
X251825Y455277D01*
X252091Y453599D01*
X252091Y447249D01*
X242018Y447249D01*
X242000Y447247D01*
X241983Y447249D01*
X241800Y447228D01*
X241618Y447209D01*
X241601Y447204D01*
X241583Y447202D01*
X241408Y447145D01*
X241308Y447114D01*
X241301Y447118D01*
G37*
%LPD*%
%LPC*%
G36*
X330201Y447118D02*
X330201Y447118D01*
X330023Y447165D01*
X329848Y447216D01*
X329830Y447218D01*
X329813Y447222D01*
X329482Y447249D01*
X319409Y447249D01*
X319409Y453599D01*
X319675Y455277D01*
X320200Y456892D01*
X320971Y458406D01*
X321969Y459780D01*
X323170Y460981D01*
X323898Y461509D01*
X324030Y461627D01*
X324165Y461741D01*
X324180Y461761D01*
X324198Y461777D01*
X324305Y461918D01*
X324414Y462057D01*
X324426Y462079D01*
X324440Y462099D01*
X324516Y462258D01*
X324597Y462416D01*
X324603Y462440D01*
X324614Y462462D01*
X324657Y462633D01*
X324705Y462804D01*
X324707Y462829D01*
X324713Y462852D01*
X324721Y463028D01*
X324734Y463206D01*
X324731Y463230D01*
X324732Y463254D01*
X324706Y463429D01*
X324684Y463605D01*
X324676Y463628D01*
X324672Y463652D01*
X324612Y463819D01*
X324556Y463987D01*
X324543Y464008D01*
X324535Y464031D01*
X324443Y464182D01*
X324355Y464336D01*
X324337Y464356D01*
X324326Y464375D01*
X324270Y464435D01*
X324140Y464589D01*
X323383Y465345D01*
X322159Y468301D01*
X322159Y471499D01*
X323383Y474455D01*
X325645Y476717D01*
X328601Y477941D01*
X331799Y477941D01*
X334755Y476717D01*
X337017Y474455D01*
X338241Y471499D01*
X338241Y468301D01*
X337017Y465345D01*
X336260Y464589D01*
X336148Y464452D01*
X336032Y464317D01*
X336020Y464296D01*
X336005Y464277D01*
X335922Y464121D01*
X335835Y463966D01*
X335828Y463943D01*
X335816Y463922D01*
X335766Y463752D01*
X335711Y463583D01*
X335709Y463559D01*
X335702Y463536D01*
X335686Y463359D01*
X335665Y463183D01*
X335667Y463159D01*
X335665Y463135D01*
X335684Y462958D01*
X335699Y462782D01*
X335706Y462759D01*
X335709Y462734D01*
X335762Y462565D01*
X335811Y462395D01*
X335823Y462374D01*
X335830Y462351D01*
X335916Y462195D01*
X335998Y462039D01*
X336013Y462020D01*
X336025Y461998D01*
X336139Y461863D01*
X336251Y461725D01*
X336271Y461708D01*
X336285Y461691D01*
X336350Y461640D01*
X336502Y461509D01*
X337230Y460981D01*
X338431Y459780D01*
X339429Y458406D01*
X340200Y456892D01*
X340725Y455277D01*
X340991Y453599D01*
X340991Y447249D01*
X330918Y447249D01*
X330900Y447247D01*
X330883Y447249D01*
X330700Y447228D01*
X330518Y447209D01*
X330501Y447204D01*
X330483Y447202D01*
X330308Y447145D01*
X330208Y447114D01*
X330201Y447118D01*
G37*
%LPD*%
%LPC*%
G36*
X152401Y447118D02*
X152401Y447118D01*
X152223Y447165D01*
X152048Y447216D01*
X152030Y447218D01*
X152013Y447222D01*
X151682Y447249D01*
X141609Y447249D01*
X141609Y453599D01*
X141875Y455277D01*
X142400Y456892D01*
X143171Y458406D01*
X144169Y459780D01*
X145370Y460981D01*
X146098Y461509D01*
X146230Y461627D01*
X146365Y461741D01*
X146380Y461761D01*
X146398Y461777D01*
X146505Y461918D01*
X146615Y462057D01*
X146626Y462079D01*
X146640Y462099D01*
X146717Y462258D01*
X146797Y462416D01*
X146803Y462440D01*
X146814Y462462D01*
X146857Y462633D01*
X146905Y462804D01*
X146907Y462829D01*
X146913Y462852D01*
X146921Y463029D01*
X146934Y463206D01*
X146931Y463230D01*
X146932Y463254D01*
X146906Y463430D01*
X146884Y463605D01*
X146876Y463628D01*
X146872Y463652D01*
X146812Y463819D01*
X146756Y463987D01*
X146743Y464008D01*
X146735Y464031D01*
X146643Y464182D01*
X146555Y464336D01*
X146537Y464356D01*
X146526Y464375D01*
X146471Y464435D01*
X146340Y464589D01*
X145583Y465345D01*
X144359Y468301D01*
X144359Y471499D01*
X145583Y474455D01*
X147845Y476717D01*
X150801Y477941D01*
X153999Y477941D01*
X156955Y476717D01*
X159217Y474455D01*
X160441Y471499D01*
X160441Y468301D01*
X159217Y465345D01*
X158460Y464589D01*
X158348Y464452D01*
X158232Y464317D01*
X158220Y464296D01*
X158205Y464277D01*
X158122Y464121D01*
X158035Y463966D01*
X158028Y463943D01*
X158016Y463922D01*
X157966Y463751D01*
X157911Y463583D01*
X157909Y463559D01*
X157902Y463536D01*
X157886Y463359D01*
X157865Y463183D01*
X157867Y463159D01*
X157865Y463135D01*
X157884Y462958D01*
X157899Y462782D01*
X157906Y462759D01*
X157909Y462734D01*
X157962Y462565D01*
X158011Y462395D01*
X158023Y462374D01*
X158030Y462351D01*
X158116Y462195D01*
X158198Y462039D01*
X158213Y462020D01*
X158225Y461998D01*
X158340Y461863D01*
X158451Y461725D01*
X158471Y461708D01*
X158485Y461691D01*
X158550Y461640D01*
X158702Y461509D01*
X159430Y460981D01*
X160631Y459780D01*
X161629Y458406D01*
X162400Y456892D01*
X162925Y455277D01*
X163191Y453599D01*
X163191Y447249D01*
X153118Y447249D01*
X153100Y447247D01*
X153083Y447249D01*
X152900Y447228D01*
X152718Y447209D01*
X152701Y447204D01*
X152683Y447202D01*
X152508Y447145D01*
X152408Y447114D01*
X152401Y447118D01*
G37*
%LPD*%
%LPC*%
G36*
X430201Y30059D02*
X430201Y30059D01*
X427245Y31283D01*
X424983Y33545D01*
X423759Y36501D01*
X423759Y39699D01*
X424983Y42655D01*
X425740Y43411D01*
X425852Y43548D01*
X425968Y43683D01*
X425980Y43704D01*
X425995Y43723D01*
X426078Y43879D01*
X426165Y44034D01*
X426172Y44057D01*
X426184Y44078D01*
X426234Y44248D01*
X426289Y44417D01*
X426291Y44441D01*
X426298Y44464D01*
X426314Y44641D01*
X426335Y44817D01*
X426333Y44841D01*
X426335Y44865D01*
X426316Y45042D01*
X426301Y45218D01*
X426294Y45241D01*
X426291Y45266D01*
X426238Y45435D01*
X426189Y45605D01*
X426177Y45626D01*
X426170Y45649D01*
X426084Y45805D01*
X426002Y45961D01*
X425987Y45980D01*
X425975Y46002D01*
X425861Y46137D01*
X425749Y46275D01*
X425729Y46292D01*
X425715Y46309D01*
X425650Y46360D01*
X425498Y46491D01*
X424770Y47019D01*
X423569Y48220D01*
X422571Y49594D01*
X421800Y51108D01*
X421275Y52723D01*
X421009Y54401D01*
X421009Y60751D01*
X431082Y60751D01*
X431100Y60752D01*
X431117Y60751D01*
X431300Y60772D01*
X431482Y60791D01*
X431499Y60796D01*
X431517Y60798D01*
X431692Y60855D01*
X431792Y60886D01*
X431799Y60882D01*
X431977Y60834D01*
X432152Y60784D01*
X432170Y60782D01*
X432187Y60778D01*
X432518Y60751D01*
X442591Y60751D01*
X442591Y54401D01*
X442325Y52723D01*
X441800Y51108D01*
X441029Y49594D01*
X440031Y48220D01*
X438830Y47019D01*
X438102Y46491D01*
X437970Y46373D01*
X437835Y46259D01*
X437820Y46239D01*
X437802Y46223D01*
X437695Y46082D01*
X437586Y45943D01*
X437574Y45921D01*
X437560Y45901D01*
X437484Y45742D01*
X437403Y45584D01*
X437397Y45560D01*
X437386Y45538D01*
X437343Y45367D01*
X437295Y45196D01*
X437293Y45171D01*
X437287Y45148D01*
X437279Y44972D01*
X437266Y44794D01*
X437269Y44770D01*
X437268Y44746D01*
X437294Y44571D01*
X437316Y44395D01*
X437324Y44372D01*
X437328Y44348D01*
X437388Y44181D01*
X437444Y44013D01*
X437457Y43992D01*
X437465Y43969D01*
X437557Y43818D01*
X437645Y43664D01*
X437663Y43644D01*
X437674Y43625D01*
X437730Y43565D01*
X437860Y43411D01*
X438617Y42655D01*
X439841Y39699D01*
X439841Y36501D01*
X438617Y33545D01*
X436355Y31283D01*
X433399Y30059D01*
X430201Y30059D01*
G37*
%LPD*%
%LPC*%
G36*
X163501Y30059D02*
X163501Y30059D01*
X160545Y31283D01*
X158283Y33545D01*
X157059Y36501D01*
X157059Y39699D01*
X158283Y42655D01*
X159040Y43411D01*
X159152Y43548D01*
X159268Y43683D01*
X159280Y43704D01*
X159295Y43723D01*
X159378Y43879D01*
X159465Y44034D01*
X159472Y44057D01*
X159484Y44078D01*
X159534Y44248D01*
X159589Y44417D01*
X159591Y44441D01*
X159598Y44464D01*
X159614Y44641D01*
X159635Y44817D01*
X159633Y44841D01*
X159635Y44865D01*
X159616Y45042D01*
X159601Y45218D01*
X159594Y45241D01*
X159591Y45266D01*
X159538Y45435D01*
X159489Y45605D01*
X159477Y45626D01*
X159470Y45649D01*
X159384Y45805D01*
X159302Y45961D01*
X159287Y45980D01*
X159275Y46002D01*
X159161Y46137D01*
X159049Y46275D01*
X159029Y46292D01*
X159015Y46309D01*
X158950Y46360D01*
X158798Y46491D01*
X158070Y47019D01*
X156869Y48220D01*
X155871Y49594D01*
X155100Y51108D01*
X154575Y52723D01*
X154309Y54401D01*
X154309Y60751D01*
X164382Y60751D01*
X164400Y60752D01*
X164417Y60751D01*
X164600Y60772D01*
X164782Y60791D01*
X164799Y60796D01*
X164817Y60798D01*
X164992Y60855D01*
X165092Y60886D01*
X165099Y60882D01*
X165277Y60834D01*
X165452Y60784D01*
X165470Y60782D01*
X165487Y60778D01*
X165818Y60751D01*
X175891Y60751D01*
X175891Y54401D01*
X175625Y52723D01*
X175100Y51108D01*
X174329Y49594D01*
X173331Y48220D01*
X172130Y47019D01*
X171402Y46491D01*
X171270Y46373D01*
X171135Y46259D01*
X171120Y46239D01*
X171102Y46223D01*
X170995Y46082D01*
X170886Y45943D01*
X170874Y45921D01*
X170860Y45901D01*
X170784Y45742D01*
X170703Y45584D01*
X170697Y45560D01*
X170686Y45538D01*
X170643Y45367D01*
X170595Y45196D01*
X170593Y45171D01*
X170587Y45148D01*
X170579Y44972D01*
X170566Y44794D01*
X170569Y44770D01*
X170568Y44746D01*
X170594Y44571D01*
X170616Y44395D01*
X170624Y44372D01*
X170628Y44348D01*
X170688Y44181D01*
X170744Y44013D01*
X170757Y43992D01*
X170765Y43969D01*
X170857Y43818D01*
X170945Y43664D01*
X170963Y43644D01*
X170974Y43625D01*
X171030Y43565D01*
X171160Y43411D01*
X171917Y42655D01*
X173141Y39699D01*
X173141Y36501D01*
X171917Y33545D01*
X169655Y31283D01*
X166699Y30059D01*
X163501Y30059D01*
G37*
%LPD*%
%LPC*%
G36*
X341301Y30059D02*
X341301Y30059D01*
X338345Y31283D01*
X336083Y33545D01*
X334859Y36501D01*
X334859Y39699D01*
X336083Y42655D01*
X336840Y43411D01*
X336952Y43548D01*
X337068Y43683D01*
X337080Y43704D01*
X337095Y43723D01*
X337178Y43879D01*
X337265Y44034D01*
X337272Y44057D01*
X337284Y44078D01*
X337334Y44248D01*
X337389Y44417D01*
X337391Y44441D01*
X337398Y44464D01*
X337414Y44641D01*
X337435Y44817D01*
X337433Y44841D01*
X337435Y44865D01*
X337416Y45042D01*
X337401Y45218D01*
X337394Y45241D01*
X337391Y45266D01*
X337338Y45435D01*
X337289Y45605D01*
X337277Y45626D01*
X337270Y45649D01*
X337184Y45805D01*
X337102Y45961D01*
X337087Y45980D01*
X337075Y46002D01*
X336961Y46137D01*
X336849Y46275D01*
X336829Y46292D01*
X336815Y46309D01*
X336750Y46360D01*
X336598Y46491D01*
X335870Y47019D01*
X334669Y48220D01*
X333671Y49594D01*
X332900Y51108D01*
X332375Y52723D01*
X332109Y54401D01*
X332109Y60751D01*
X342182Y60751D01*
X342200Y60752D01*
X342217Y60751D01*
X342400Y60772D01*
X342582Y60791D01*
X342599Y60796D01*
X342617Y60798D01*
X342792Y60855D01*
X342892Y60886D01*
X342899Y60882D01*
X343077Y60834D01*
X343252Y60784D01*
X343270Y60782D01*
X343287Y60778D01*
X343618Y60751D01*
X353691Y60751D01*
X353691Y54401D01*
X353425Y52723D01*
X352900Y51108D01*
X352129Y49594D01*
X351131Y48220D01*
X349930Y47019D01*
X349202Y46491D01*
X349070Y46373D01*
X348935Y46259D01*
X348920Y46239D01*
X348902Y46223D01*
X348795Y46082D01*
X348686Y45943D01*
X348674Y45921D01*
X348660Y45901D01*
X348584Y45742D01*
X348503Y45584D01*
X348497Y45560D01*
X348486Y45538D01*
X348443Y45367D01*
X348395Y45196D01*
X348393Y45171D01*
X348387Y45148D01*
X348379Y44972D01*
X348366Y44794D01*
X348369Y44770D01*
X348368Y44746D01*
X348394Y44571D01*
X348416Y44395D01*
X348424Y44372D01*
X348428Y44348D01*
X348488Y44181D01*
X348544Y44013D01*
X348557Y43992D01*
X348565Y43969D01*
X348657Y43818D01*
X348745Y43664D01*
X348763Y43644D01*
X348774Y43625D01*
X348830Y43565D01*
X348960Y43411D01*
X349717Y42655D01*
X350941Y39699D01*
X350941Y36501D01*
X349717Y33545D01*
X347455Y31283D01*
X344499Y30059D01*
X341301Y30059D01*
G37*
%LPD*%
%LPC*%
G36*
X252401Y30059D02*
X252401Y30059D01*
X249445Y31283D01*
X247183Y33545D01*
X245959Y36501D01*
X245959Y39699D01*
X247183Y42655D01*
X247940Y43411D01*
X248052Y43548D01*
X248168Y43683D01*
X248180Y43704D01*
X248195Y43723D01*
X248278Y43879D01*
X248365Y44034D01*
X248372Y44057D01*
X248384Y44078D01*
X248434Y44249D01*
X248489Y44417D01*
X248491Y44441D01*
X248498Y44464D01*
X248514Y44641D01*
X248535Y44817D01*
X248533Y44841D01*
X248535Y44865D01*
X248516Y45042D01*
X248501Y45218D01*
X248494Y45241D01*
X248491Y45266D01*
X248438Y45435D01*
X248389Y45605D01*
X248377Y45626D01*
X248370Y45649D01*
X248284Y45804D01*
X248202Y45961D01*
X248187Y45980D01*
X248175Y46002D01*
X248060Y46137D01*
X247949Y46275D01*
X247929Y46292D01*
X247915Y46309D01*
X247850Y46360D01*
X247698Y46491D01*
X246970Y47019D01*
X245769Y48220D01*
X244771Y49594D01*
X244000Y51108D01*
X243475Y52723D01*
X243209Y54401D01*
X243209Y60751D01*
X253282Y60751D01*
X253300Y60752D01*
X253317Y60751D01*
X253500Y60772D01*
X253682Y60791D01*
X253699Y60796D01*
X253717Y60798D01*
X253892Y60855D01*
X253992Y60886D01*
X253999Y60882D01*
X254177Y60834D01*
X254352Y60784D01*
X254370Y60782D01*
X254387Y60778D01*
X254718Y60751D01*
X264791Y60751D01*
X264791Y54401D01*
X264525Y52723D01*
X264000Y51108D01*
X263229Y49594D01*
X262231Y48220D01*
X261030Y47019D01*
X260302Y46491D01*
X260170Y46373D01*
X260035Y46259D01*
X260020Y46239D01*
X260002Y46223D01*
X259895Y46082D01*
X259785Y45943D01*
X259774Y45921D01*
X259760Y45901D01*
X259683Y45742D01*
X259603Y45584D01*
X259597Y45560D01*
X259586Y45538D01*
X259543Y45367D01*
X259495Y45196D01*
X259493Y45171D01*
X259487Y45148D01*
X259479Y44971D01*
X259466Y44794D01*
X259469Y44770D01*
X259468Y44746D01*
X259494Y44570D01*
X259516Y44395D01*
X259524Y44372D01*
X259528Y44348D01*
X259588Y44181D01*
X259644Y44013D01*
X259657Y43992D01*
X259665Y43969D01*
X259757Y43818D01*
X259845Y43664D01*
X259863Y43644D01*
X259874Y43625D01*
X259929Y43565D01*
X260060Y43411D01*
X260817Y42655D01*
X262041Y39699D01*
X262041Y36501D01*
X260817Y33545D01*
X258555Y31283D01*
X255599Y30059D01*
X252401Y30059D01*
G37*
%LPD*%
%LPC*%
G36*
X430147Y207589D02*
X430147Y207589D01*
X427092Y208854D01*
X424754Y211192D01*
X423489Y214247D01*
X423489Y217553D01*
X424754Y220608D01*
X427092Y222946D01*
X429892Y224105D01*
X430147Y224211D01*
X433453Y224211D01*
X436508Y222946D01*
X438846Y220608D01*
X440111Y217553D01*
X440111Y214247D01*
X438846Y211192D01*
X436508Y208854D01*
X433453Y207589D01*
X430147Y207589D01*
G37*
%LPD*%
%LPC*%
G36*
X49147Y220289D02*
X49147Y220289D01*
X46092Y221554D01*
X43754Y223892D01*
X42489Y226947D01*
X42489Y230253D01*
X43754Y233308D01*
X46092Y235646D01*
X47654Y236292D01*
X47654Y236293D01*
X49147Y236911D01*
X52453Y236911D01*
X55508Y235646D01*
X57846Y233308D01*
X59111Y230253D01*
X59111Y226947D01*
X57846Y223892D01*
X55508Y221554D01*
X52453Y220289D01*
X49147Y220289D01*
G37*
%LPD*%
%LPC*%
G36*
X23747Y220289D02*
X23747Y220289D01*
X20692Y221554D01*
X18354Y223892D01*
X17089Y226947D01*
X17089Y230253D01*
X18354Y233308D01*
X20692Y235646D01*
X22254Y236292D01*
X22254Y236293D01*
X23747Y236911D01*
X27053Y236911D01*
X30108Y235646D01*
X32446Y233308D01*
X33711Y230253D01*
X33711Y226947D01*
X32446Y223892D01*
X30108Y221554D01*
X27053Y220289D01*
X23747Y220289D01*
G37*
%LPD*%
%LPC*%
G36*
X430147Y232989D02*
X430147Y232989D01*
X427092Y234254D01*
X424754Y236592D01*
X423489Y239647D01*
X423489Y242953D01*
X424754Y246008D01*
X427092Y248346D01*
X427417Y248480D01*
X430147Y249611D01*
X433453Y249611D01*
X436508Y248346D01*
X438846Y246008D01*
X440111Y242953D01*
X440111Y239647D01*
X438846Y236592D01*
X436508Y234254D01*
X433453Y232989D01*
X430147Y232989D01*
G37*
%LPD*%
%LPC*%
G36*
X430147Y385389D02*
X430147Y385389D01*
X427092Y386654D01*
X424754Y388992D01*
X423489Y392047D01*
X423489Y395353D01*
X424754Y398408D01*
X427092Y400746D01*
X430147Y402011D01*
X433453Y402011D01*
X436508Y400746D01*
X438846Y398408D01*
X440111Y395353D01*
X440111Y392047D01*
X438846Y388992D01*
X436508Y386654D01*
X435625Y386289D01*
X433453Y385389D01*
X430147Y385389D01*
G37*
%LPD*%
%LPC*%
G36*
X430147Y309189D02*
X430147Y309189D01*
X427092Y310454D01*
X424754Y312792D01*
X423489Y315847D01*
X423489Y319153D01*
X424754Y322208D01*
X427092Y324546D01*
X429801Y325667D01*
X429801Y325668D01*
X430147Y325811D01*
X433453Y325811D01*
X436508Y324546D01*
X438846Y322208D01*
X440111Y319153D01*
X440111Y315847D01*
X438846Y312792D01*
X436508Y310454D01*
X433453Y309189D01*
X430147Y309189D01*
G37*
%LPD*%
%LPC*%
G36*
X430147Y283789D02*
X430147Y283789D01*
X427092Y285054D01*
X424754Y287392D01*
X423489Y290447D01*
X423489Y293753D01*
X424754Y296808D01*
X427092Y299146D01*
X430147Y300411D01*
X433453Y300411D01*
X436508Y299146D01*
X438846Y296808D01*
X440111Y293753D01*
X440111Y290447D01*
X438846Y287392D01*
X436508Y285054D01*
X435716Y284726D01*
X433453Y283789D01*
X430147Y283789D01*
G37*
%LPD*%
%LPC*%
G36*
X23747Y448889D02*
X23747Y448889D01*
X20692Y450154D01*
X18354Y452492D01*
X17089Y455547D01*
X17089Y458853D01*
X18354Y461908D01*
X20692Y464246D01*
X23747Y465511D01*
X27053Y465511D01*
X30108Y464246D01*
X32446Y461908D01*
X33711Y458853D01*
X33711Y455547D01*
X32446Y452492D01*
X30108Y450154D01*
X27053Y448889D01*
X23747Y448889D01*
G37*
%LPD*%
%LPC*%
G36*
X49147Y448889D02*
X49147Y448889D01*
X46092Y450154D01*
X43754Y452492D01*
X42489Y455547D01*
X42489Y458853D01*
X43754Y461908D01*
X46092Y464246D01*
X49147Y465511D01*
X52453Y465511D01*
X55508Y464246D01*
X57846Y461908D01*
X59111Y458853D01*
X59111Y455547D01*
X57846Y452492D01*
X55508Y450154D01*
X52453Y448889D01*
X49147Y448889D01*
G37*
%LPD*%
%LPC*%
G36*
X430147Y436189D02*
X430147Y436189D01*
X427092Y437454D01*
X424754Y439792D01*
X423489Y442847D01*
X423489Y446153D01*
X424754Y449208D01*
X427092Y451546D01*
X430147Y452811D01*
X433453Y452811D01*
X436508Y451546D01*
X438846Y449208D01*
X440111Y446153D01*
X440111Y442847D01*
X438846Y439792D01*
X436508Y437454D01*
X433453Y436189D01*
X430147Y436189D01*
G37*
%LPD*%
%LPC*%
G36*
X23747Y169489D02*
X23747Y169489D01*
X20692Y170754D01*
X18354Y173092D01*
X17089Y176147D01*
X17089Y179453D01*
X18354Y182508D01*
X20692Y184846D01*
X23747Y186111D01*
X27053Y186111D01*
X30108Y184846D01*
X32446Y182508D01*
X33711Y179453D01*
X33711Y176147D01*
X32446Y173092D01*
X30108Y170754D01*
X27053Y169489D01*
X23747Y169489D01*
G37*
%LPD*%
%LPC*%
G36*
X49147Y169489D02*
X49147Y169489D01*
X46092Y170754D01*
X43754Y173092D01*
X42489Y176147D01*
X42489Y179453D01*
X43754Y182508D01*
X46092Y184846D01*
X49147Y186111D01*
X52453Y186111D01*
X55508Y184846D01*
X57846Y182508D01*
X59111Y179453D01*
X59111Y176147D01*
X57846Y173092D01*
X55508Y170754D01*
X52453Y169489D01*
X49147Y169489D01*
G37*
%LPD*%
%LPC*%
G36*
X23747Y423489D02*
X23747Y423489D01*
X20692Y424754D01*
X18354Y427092D01*
X17089Y430147D01*
X17089Y433453D01*
X18354Y436508D01*
X20692Y438846D01*
X23747Y440111D01*
X27053Y440111D01*
X30108Y438846D01*
X32446Y436508D01*
X33711Y433453D01*
X33711Y430147D01*
X32446Y427092D01*
X30108Y424754D01*
X27053Y423489D01*
X23747Y423489D01*
G37*
%LPD*%
%LPC*%
G36*
X49147Y372689D02*
X49147Y372689D01*
X46092Y373954D01*
X43754Y376292D01*
X42489Y379347D01*
X42489Y382653D01*
X43754Y385708D01*
X46092Y388046D01*
X49147Y389311D01*
X52453Y389311D01*
X55508Y388046D01*
X57846Y385708D01*
X59111Y382653D01*
X59111Y379347D01*
X57846Y376292D01*
X55508Y373954D01*
X52453Y372689D01*
X49147Y372689D01*
G37*
%LPD*%
%LPC*%
G36*
X23747Y372689D02*
X23747Y372689D01*
X20692Y373954D01*
X18354Y376292D01*
X17089Y379347D01*
X17089Y382653D01*
X18354Y385708D01*
X20692Y388046D01*
X23747Y389311D01*
X27053Y389311D01*
X30108Y388046D01*
X32446Y385708D01*
X33711Y382653D01*
X33711Y379347D01*
X32446Y376292D01*
X30108Y373954D01*
X27053Y372689D01*
X23747Y372689D01*
G37*
%LPD*%
%LPC*%
G36*
X23747Y271089D02*
X23747Y271089D01*
X20692Y272354D01*
X18354Y274692D01*
X17089Y277747D01*
X17089Y281053D01*
X18354Y284108D01*
X20692Y286446D01*
X23747Y287711D01*
X27053Y287711D01*
X30108Y286446D01*
X32446Y284108D01*
X33711Y281053D01*
X33711Y277747D01*
X32446Y274692D01*
X30108Y272354D01*
X27053Y271089D01*
X23747Y271089D01*
G37*
%LPD*%
%LPC*%
G36*
X49147Y271089D02*
X49147Y271089D01*
X46092Y272354D01*
X43754Y274692D01*
X42489Y277747D01*
X42489Y281053D01*
X43754Y284108D01*
X46092Y286446D01*
X49147Y287711D01*
X52453Y287711D01*
X55508Y286446D01*
X57846Y284108D01*
X59111Y281053D01*
X59111Y277747D01*
X57846Y274692D01*
X55508Y272354D01*
X52453Y271089D01*
X49147Y271089D01*
G37*
%LPD*%
%LPC*%
G36*
X23747Y245689D02*
X23747Y245689D01*
X20692Y246954D01*
X18354Y249292D01*
X17089Y252347D01*
X17089Y255653D01*
X18354Y258708D01*
X20692Y261046D01*
X23747Y262311D01*
X27053Y262311D01*
X30108Y261046D01*
X32446Y258708D01*
X33711Y255653D01*
X33711Y252347D01*
X32446Y249292D01*
X30108Y246954D01*
X27053Y245689D01*
X23747Y245689D01*
G37*
%LPD*%
%LPC*%
G36*
X49147Y347289D02*
X49147Y347289D01*
X46092Y348554D01*
X43754Y350892D01*
X42489Y353947D01*
X42489Y357253D01*
X43754Y360308D01*
X46092Y362646D01*
X49147Y363911D01*
X52453Y363911D01*
X55508Y362646D01*
X57846Y360308D01*
X59111Y357253D01*
X59111Y353947D01*
X57846Y350892D01*
X55508Y348554D01*
X52453Y347289D01*
X49147Y347289D01*
G37*
%LPD*%
%LPC*%
G36*
X49147Y245689D02*
X49147Y245689D01*
X46092Y246954D01*
X43754Y249292D01*
X42489Y252347D01*
X42489Y255653D01*
X43754Y258708D01*
X46092Y261046D01*
X49147Y262311D01*
X52453Y262311D01*
X55508Y261046D01*
X57846Y258708D01*
X59111Y255653D01*
X59111Y252347D01*
X57846Y249292D01*
X55508Y246954D01*
X52453Y245689D01*
X49147Y245689D01*
G37*
%LPD*%
%LPC*%
G36*
X23747Y347289D02*
X23747Y347289D01*
X20692Y348554D01*
X18354Y350892D01*
X17089Y353947D01*
X17089Y357253D01*
X18354Y360308D01*
X20692Y362646D01*
X23747Y363911D01*
X27053Y363911D01*
X30108Y362646D01*
X32446Y360308D01*
X33711Y357253D01*
X33711Y353947D01*
X32446Y350892D01*
X30108Y348554D01*
X27053Y347289D01*
X23747Y347289D01*
G37*
%LPD*%
%LPC*%
G36*
X430147Y410789D02*
X430147Y410789D01*
X427092Y412054D01*
X424754Y414392D01*
X423489Y417447D01*
X423489Y420753D01*
X424754Y423808D01*
X427092Y426146D01*
X430147Y427411D01*
X433453Y427411D01*
X436508Y426146D01*
X438846Y423808D01*
X440111Y420753D01*
X440111Y417447D01*
X438846Y414392D01*
X436508Y412054D01*
X433453Y410789D01*
X430147Y410789D01*
G37*
%LPD*%
%LPC*%
G36*
X430147Y461589D02*
X430147Y461589D01*
X427092Y462854D01*
X424754Y465192D01*
X423489Y468247D01*
X423489Y471553D01*
X424754Y474608D01*
X427092Y476946D01*
X430147Y478211D01*
X433453Y478211D01*
X436508Y476946D01*
X438846Y474608D01*
X440111Y471553D01*
X440111Y468247D01*
X438846Y465192D01*
X436508Y462854D01*
X433453Y461589D01*
X430147Y461589D01*
G37*
%LPD*%
%LPC*%
G36*
X49147Y398089D02*
X49147Y398089D01*
X46092Y399354D01*
X43754Y401692D01*
X42489Y404747D01*
X42489Y408053D01*
X43754Y411108D01*
X46092Y413446D01*
X49147Y414711D01*
X52453Y414711D01*
X55508Y413446D01*
X57846Y411108D01*
X59111Y408053D01*
X59111Y404747D01*
X57846Y401692D01*
X55508Y399354D01*
X53388Y398476D01*
X52453Y398089D01*
X49147Y398089D01*
G37*
%LPD*%
%LPC*%
G36*
X23747Y398089D02*
X23747Y398089D01*
X20692Y399354D01*
X18354Y401692D01*
X17089Y404747D01*
X17089Y408053D01*
X18354Y411108D01*
X20692Y413446D01*
X23747Y414711D01*
X27053Y414711D01*
X30108Y413446D01*
X32446Y411108D01*
X33711Y408053D01*
X33711Y404747D01*
X32446Y401692D01*
X30108Y399354D01*
X27988Y398476D01*
X27053Y398089D01*
X23747Y398089D01*
G37*
%LPD*%
%LPC*%
G36*
X49147Y296489D02*
X49147Y296489D01*
X46092Y297754D01*
X43754Y300092D01*
X42489Y303147D01*
X42489Y306453D01*
X43754Y309508D01*
X46092Y311846D01*
X49147Y313111D01*
X52453Y313111D01*
X55508Y311846D01*
X57846Y309508D01*
X59111Y306453D01*
X59111Y303147D01*
X57846Y300092D01*
X55508Y297754D01*
X53478Y296914D01*
X52453Y296489D01*
X49147Y296489D01*
G37*
%LPD*%
%LPC*%
G36*
X23747Y296489D02*
X23747Y296489D01*
X20692Y297754D01*
X18354Y300092D01*
X17089Y303147D01*
X17089Y306453D01*
X18354Y309508D01*
X20692Y311846D01*
X23747Y313111D01*
X27053Y313111D01*
X30108Y311846D01*
X32446Y309508D01*
X33711Y306453D01*
X33711Y303147D01*
X32446Y300092D01*
X30108Y297754D01*
X28078Y296914D01*
X27053Y296489D01*
X23747Y296489D01*
G37*
%LPD*%
%LPC*%
G36*
X23747Y194889D02*
X23747Y194889D01*
X20692Y196154D01*
X18354Y198492D01*
X17089Y201547D01*
X17089Y204853D01*
X18354Y207908D01*
X20692Y210246D01*
X23747Y211511D01*
X27053Y211511D01*
X30108Y210246D01*
X32446Y207908D01*
X33711Y204853D01*
X33711Y201547D01*
X32446Y198492D01*
X30108Y196154D01*
X28169Y195351D01*
X27053Y194889D01*
X23747Y194889D01*
G37*
%LPD*%
%LPC*%
G36*
X49147Y194889D02*
X49147Y194889D01*
X46092Y196154D01*
X43754Y198492D01*
X42489Y201547D01*
X42489Y204853D01*
X43754Y207908D01*
X46092Y210246D01*
X49147Y211511D01*
X52453Y211511D01*
X55508Y210246D01*
X57846Y207908D01*
X59111Y204853D01*
X59111Y201547D01*
X57846Y198492D01*
X55508Y196154D01*
X53569Y195351D01*
X52453Y194889D01*
X49147Y194889D01*
G37*
%LPD*%
%LPC*%
G36*
X49147Y321889D02*
X49147Y321889D01*
X46092Y323154D01*
X43754Y325492D01*
X42489Y328547D01*
X42489Y331853D01*
X43754Y334908D01*
X46092Y337246D01*
X47564Y337855D01*
X49147Y338511D01*
X52453Y338511D01*
X55508Y337246D01*
X57846Y334908D01*
X59111Y331853D01*
X59111Y328547D01*
X57846Y325492D01*
X55508Y323154D01*
X52453Y321889D01*
X49147Y321889D01*
G37*
%LPD*%
%LPC*%
G36*
X23747Y321889D02*
X23747Y321889D01*
X20692Y323154D01*
X18354Y325492D01*
X17089Y328547D01*
X17089Y331853D01*
X18354Y334908D01*
X20692Y337246D01*
X22164Y337855D01*
X23747Y338511D01*
X27053Y338511D01*
X30108Y337246D01*
X32446Y334908D01*
X33711Y331853D01*
X33711Y328547D01*
X32446Y325492D01*
X30108Y323154D01*
X27053Y321889D01*
X23747Y321889D01*
G37*
%LPD*%
%LPC*%
G36*
X430147Y334589D02*
X430147Y334589D01*
X427092Y335854D01*
X424754Y338192D01*
X423489Y341247D01*
X423489Y344553D01*
X424754Y347608D01*
X427092Y349946D01*
X427326Y350042D01*
X427327Y350043D01*
X430147Y351211D01*
X433453Y351211D01*
X436508Y349946D01*
X438846Y347608D01*
X440111Y344553D01*
X440111Y341247D01*
X438846Y338192D01*
X436508Y335854D01*
X433453Y334589D01*
X430147Y334589D01*
G37*
%LPD*%
%LPC*%
G36*
X167849Y66249D02*
X167849Y66249D01*
X167849Y82203D01*
X169242Y81750D01*
X170756Y80979D01*
X172130Y79981D01*
X173331Y78780D01*
X174329Y77406D01*
X175100Y75892D01*
X175625Y74277D01*
X175891Y72599D01*
X175891Y66249D01*
X167849Y66249D01*
G37*
%LPD*%
%LPC*%
G36*
X256749Y66249D02*
X256749Y66249D01*
X256749Y82203D01*
X258142Y81750D01*
X259656Y80979D01*
X261030Y79981D01*
X262231Y78780D01*
X263229Y77406D01*
X264000Y75892D01*
X264525Y74277D01*
X264791Y72599D01*
X264791Y66249D01*
X256749Y66249D01*
G37*
%LPD*%
%LPC*%
G36*
X345649Y66249D02*
X345649Y66249D01*
X345649Y82203D01*
X347042Y81750D01*
X348556Y80979D01*
X349930Y79981D01*
X351131Y78780D01*
X352129Y77406D01*
X352900Y75892D01*
X353425Y74277D01*
X353691Y72599D01*
X353691Y66249D01*
X345649Y66249D01*
G37*
%LPD*%
%LPC*%
G36*
X434549Y66249D02*
X434549Y66249D01*
X434549Y82203D01*
X435942Y81750D01*
X437456Y80979D01*
X438830Y79981D01*
X440031Y78780D01*
X441029Y77406D01*
X441800Y75892D01*
X442325Y74277D01*
X442591Y72599D01*
X442591Y66249D01*
X434549Y66249D01*
G37*
%LPD*%
%LPC*%
G36*
X155149Y441751D02*
X155149Y441751D01*
X163191Y441751D01*
X163191Y435401D01*
X162925Y433723D01*
X162400Y432108D01*
X161629Y430594D01*
X160631Y429220D01*
X159430Y428019D01*
X158056Y427021D01*
X156542Y426250D01*
X155149Y425797D01*
X155149Y441751D01*
G37*
%LPD*%
%LPC*%
G36*
X244049Y441751D02*
X244049Y441751D01*
X252091Y441751D01*
X252091Y435401D01*
X251825Y433723D01*
X251300Y432108D01*
X250529Y430594D01*
X249531Y429220D01*
X248330Y428019D01*
X246956Y427021D01*
X245442Y426250D01*
X244049Y425797D01*
X244049Y441751D01*
G37*
%LPD*%
%LPC*%
G36*
X332949Y441751D02*
X332949Y441751D01*
X340991Y441751D01*
X340991Y435401D01*
X340725Y433723D01*
X340200Y432108D01*
X339429Y430594D01*
X338431Y429220D01*
X337230Y428019D01*
X335856Y427021D01*
X334342Y426250D01*
X332949Y425797D01*
X332949Y441751D01*
G37*
%LPD*%
%LPC*%
G36*
X421009Y66249D02*
X421009Y66249D01*
X421009Y72599D01*
X421275Y74277D01*
X421800Y75892D01*
X422571Y77406D01*
X423569Y78780D01*
X424770Y79981D01*
X426144Y80979D01*
X427658Y81750D01*
X429051Y82203D01*
X429051Y66249D01*
X421009Y66249D01*
G37*
%LPD*%
%LPC*%
G36*
X154309Y66249D02*
X154309Y66249D01*
X154309Y72599D01*
X154575Y74277D01*
X155100Y75892D01*
X155871Y77406D01*
X156869Y78780D01*
X158070Y79981D01*
X159444Y80979D01*
X160958Y81750D01*
X162351Y82203D01*
X162351Y66249D01*
X154309Y66249D01*
G37*
%LPD*%
%LPC*%
G36*
X243209Y66249D02*
X243209Y66249D01*
X243209Y72599D01*
X243475Y74277D01*
X244000Y75892D01*
X244771Y77406D01*
X245769Y78780D01*
X246970Y79981D01*
X248344Y80979D01*
X249858Y81750D01*
X251251Y82203D01*
X251251Y66249D01*
X243209Y66249D01*
G37*
%LPD*%
%LPC*%
G36*
X332109Y66249D02*
X332109Y66249D01*
X332109Y72599D01*
X332375Y74277D01*
X332900Y75892D01*
X333671Y77406D01*
X334669Y78780D01*
X335870Y79981D01*
X337244Y80979D01*
X338758Y81750D01*
X340151Y82203D01*
X340151Y66249D01*
X332109Y66249D01*
G37*
%LPD*%
%LPC*%
G36*
X237158Y426250D02*
X237158Y426250D01*
X235644Y427021D01*
X234270Y428019D01*
X233069Y429220D01*
X232071Y430594D01*
X231300Y432108D01*
X230775Y433723D01*
X230509Y435401D01*
X230509Y441751D01*
X238551Y441751D01*
X238551Y425797D01*
X237158Y426250D01*
G37*
%LPD*%
%LPC*%
G36*
X326058Y426250D02*
X326058Y426250D01*
X324544Y427021D01*
X323170Y428019D01*
X321969Y429220D01*
X320971Y430594D01*
X320200Y432108D01*
X319675Y433723D01*
X319409Y435401D01*
X319409Y441751D01*
X327451Y441751D01*
X327451Y425797D01*
X326058Y426250D01*
G37*
%LPD*%
%LPC*%
G36*
X148258Y426250D02*
X148258Y426250D01*
X146744Y427021D01*
X145370Y428019D01*
X144169Y429220D01*
X143171Y430594D01*
X142400Y432108D01*
X141875Y433723D01*
X141609Y435401D01*
X141609Y441751D01*
X149651Y441751D01*
X149651Y425797D01*
X148258Y426250D01*
G37*
%LPD*%
%LPC*%
G36*
X53049Y434049D02*
X53049Y434049D01*
X53049Y441143D01*
X54478Y440679D01*
X55821Y439994D01*
X57041Y439108D01*
X58108Y438041D01*
X58994Y436821D01*
X59679Y435478D01*
X60143Y434049D01*
X53049Y434049D01*
G37*
%LPD*%
%LPC*%
G36*
X434049Y370549D02*
X434049Y370549D01*
X434049Y377643D01*
X435478Y377179D01*
X436821Y376494D01*
X438041Y375608D01*
X439108Y374541D01*
X439994Y373321D01*
X440679Y371978D01*
X441143Y370549D01*
X434049Y370549D01*
G37*
%LPD*%
%LPC*%
G36*
X434049Y366051D02*
X434049Y366051D01*
X441143Y366051D01*
X440679Y364622D01*
X439994Y363278D01*
X439108Y362059D01*
X438041Y360992D01*
X436821Y360106D01*
X435478Y359421D01*
X434049Y358957D01*
X434049Y366051D01*
G37*
%LPD*%
%LPC*%
G36*
X53049Y429551D02*
X53049Y429551D01*
X60143Y429551D01*
X59679Y428122D01*
X58994Y426778D01*
X58108Y425559D01*
X57041Y424492D01*
X55821Y423606D01*
X54478Y422921D01*
X53049Y422457D01*
X53049Y429551D01*
G37*
%LPD*%
%LPC*%
G36*
X41457Y434049D02*
X41457Y434049D01*
X41921Y435478D01*
X42606Y436821D01*
X43492Y438041D01*
X44559Y439108D01*
X45779Y439994D01*
X47122Y440679D01*
X48551Y441143D01*
X48551Y434049D01*
X41457Y434049D01*
G37*
%LPD*%
%LPC*%
G36*
X422457Y370549D02*
X422457Y370549D01*
X422921Y371978D01*
X423606Y373321D01*
X424492Y374541D01*
X425559Y375608D01*
X426779Y376494D01*
X428122Y377179D01*
X429551Y377643D01*
X429551Y370549D01*
X422457Y370549D01*
G37*
%LPD*%
%LPC*%
G36*
X428122Y359421D02*
X428122Y359421D01*
X426779Y360106D01*
X425559Y360992D01*
X424492Y362059D01*
X423606Y363278D01*
X422921Y364622D01*
X422457Y366051D01*
X429551Y366051D01*
X429551Y358957D01*
X428122Y359421D01*
G37*
%LPD*%
%LPC*%
G36*
X47122Y422921D02*
X47122Y422921D01*
X45779Y423606D01*
X44559Y424492D01*
X43492Y425559D01*
X42606Y426778D01*
X41921Y428122D01*
X41457Y429551D01*
X48551Y429551D01*
X48551Y422457D01*
X47122Y422921D01*
G37*
%LPD*%
D10*
X25400Y457200D03*
X50800Y457200D03*
X25400Y431800D03*
X50800Y431800D03*
X25400Y406400D03*
X50800Y406400D03*
X25400Y381000D03*
X50800Y381000D03*
X25400Y355600D03*
X50800Y355600D03*
X25400Y330200D03*
X50800Y330200D03*
X25400Y304800D03*
X50800Y304800D03*
X25400Y279400D03*
X50800Y279400D03*
X25400Y254000D03*
X50800Y254000D03*
X25400Y228600D03*
X50800Y228600D03*
X25400Y203200D03*
X50800Y203200D03*
X25400Y177800D03*
X50800Y177800D03*
X431800Y495300D03*
X431800Y469900D03*
X431800Y444500D03*
X431800Y419100D03*
X431800Y393700D03*
X431800Y368300D03*
X431800Y342900D03*
X431800Y317500D03*
X431800Y292100D03*
X431800Y266700D03*
X431800Y241300D03*
X431800Y215900D03*
D11*
X165100Y71750D02*
X165100Y55250D01*
X139700Y55250D02*
X139700Y71750D01*
X114300Y71750D02*
X114300Y55250D01*
X88900Y55250D02*
X88900Y71750D01*
X342900Y71750D02*
X342900Y55250D01*
X317500Y55250D02*
X317500Y71750D01*
X292100Y71750D02*
X292100Y55250D01*
X254000Y55250D02*
X254000Y71750D01*
X228600Y71750D02*
X228600Y55250D01*
X203200Y55250D02*
X203200Y71750D01*
X431800Y71750D02*
X431800Y55250D01*
X406400Y55250D02*
X406400Y71750D01*
X381000Y71750D02*
X381000Y55250D01*
X330200Y436250D02*
X330200Y452750D01*
X355600Y452750D02*
X355600Y436250D01*
X381000Y436250D02*
X381000Y452750D01*
X241300Y452750D02*
X241300Y436250D01*
X266700Y436250D02*
X266700Y452750D01*
X292100Y452750D02*
X292100Y436250D01*
X152400Y436250D02*
X152400Y452750D01*
X177800Y452750D02*
X177800Y436250D01*
X203200Y436250D02*
X203200Y452750D01*
D12*
X104775Y142875D03*
X101600Y187325D03*
X222250Y434975D03*
X311150Y434975D03*
X336550Y371475D03*
X285750Y371475D03*
X234950Y371475D03*
X387350Y371475D03*
X209550Y282575D03*
X260350Y282575D03*
X158750Y282575D03*
X190500Y393700D03*
D13*
X190500Y152400D01*
X241300Y101600D01*
X317500Y101600D01*
D12*
X317500Y101600D03*
X241300Y393700D03*
D13*
X342900Y393700D01*
X355600Y406400D01*
X355600Y444500D01*
X114300Y133350D02*
X114300Y63500D01*
D12*
X114300Y133350D03*
D13*
X139700Y168275D02*
X139700Y63500D01*
X139700Y168275D02*
X111125Y196850D01*
D12*
X111125Y196850D03*
X203200Y349250D03*
D13*
X371475Y349250D01*
D12*
X371475Y349250D03*
X254000Y381000D03*
D13*
X320675Y381000D01*
D12*
X320675Y381000D03*
X177800Y419100D03*
D13*
X177800Y139700D01*
X228600Y88900D01*
X228600Y63500D01*
D12*
X264410Y215900D03*
D14*
X315210Y215900D01*
D12*
X315210Y215900D03*
D14*
X366010Y215900D01*
D12*
X366010Y215900D03*
X203200Y215900D03*
D14*
X264410Y215900D01*
X419100Y266700D02*
X431800Y266700D01*
X419100Y266700D02*
X393700Y241300D01*
X203200Y241300D01*
D12*
X203200Y241300D03*
M02*
