G04 EAGLE Gerber RS-274X export*
G75*
%MOMM*%
%FSLAX34Y34*%
%LPD*%
%IN*%
%IPPOS*%
%AMOC8*
5,1,8,0,0,1.08239X$1,22.5*%
G01*
%ADD10C,0.254000*%


D10*
X0Y114300D02*
X63500Y114300D01*
X63500Y0D01*
X457200Y0D01*
X457200Y508000D01*
X0Y508000D01*
X0Y114300D01*
X159600Y38409D02*
X159669Y39023D01*
X159807Y39625D01*
X160011Y40208D01*
X160279Y40765D01*
X160607Y41288D01*
X160993Y41771D01*
X161429Y42208D01*
X161912Y42593D01*
X162435Y42921D01*
X162992Y43189D01*
X163575Y43393D01*
X164177Y43531D01*
X164791Y43600D01*
X165409Y43600D01*
X166023Y43531D01*
X166625Y43393D01*
X167208Y43189D01*
X167765Y42921D01*
X168288Y42593D01*
X168771Y42208D01*
X169208Y41771D01*
X169593Y41288D01*
X169921Y40765D01*
X170189Y40208D01*
X170393Y39625D01*
X170531Y39023D01*
X170600Y38409D01*
X170600Y37791D01*
X170531Y37177D01*
X170393Y36575D01*
X170189Y35992D01*
X169921Y35435D01*
X169593Y34912D01*
X169208Y34429D01*
X168771Y33993D01*
X168288Y33607D01*
X167765Y33279D01*
X167208Y33011D01*
X166625Y32807D01*
X166023Y32669D01*
X165409Y32600D01*
X164791Y32600D01*
X164177Y32669D01*
X163575Y32807D01*
X162992Y33011D01*
X162435Y33279D01*
X161912Y33607D01*
X161429Y33993D01*
X160993Y34429D01*
X160607Y34912D01*
X160279Y35435D01*
X160011Y35992D01*
X159807Y36575D01*
X159669Y37177D01*
X159600Y37791D01*
X159600Y38409D01*
X134200Y38409D02*
X134269Y39023D01*
X134407Y39625D01*
X134611Y40208D01*
X134879Y40765D01*
X135207Y41288D01*
X135593Y41771D01*
X136029Y42208D01*
X136512Y42593D01*
X137035Y42921D01*
X137592Y43189D01*
X138175Y43393D01*
X138777Y43531D01*
X139391Y43600D01*
X140009Y43600D01*
X140623Y43531D01*
X141225Y43393D01*
X141808Y43189D01*
X142365Y42921D01*
X142888Y42593D01*
X143371Y42208D01*
X143808Y41771D01*
X144193Y41288D01*
X144521Y40765D01*
X144789Y40208D01*
X144993Y39625D01*
X145131Y39023D01*
X145200Y38409D01*
X145200Y37791D01*
X145131Y37177D01*
X144993Y36575D01*
X144789Y35992D01*
X144521Y35435D01*
X144193Y34912D01*
X143808Y34429D01*
X143371Y33993D01*
X142888Y33607D01*
X142365Y33279D01*
X141808Y33011D01*
X141225Y32807D01*
X140623Y32669D01*
X140009Y32600D01*
X139391Y32600D01*
X138777Y32669D01*
X138175Y32807D01*
X137592Y33011D01*
X137035Y33279D01*
X136512Y33607D01*
X136029Y33993D01*
X135593Y34429D01*
X135207Y34912D01*
X134879Y35435D01*
X134611Y35992D01*
X134407Y36575D01*
X134269Y37177D01*
X134200Y37791D01*
X134200Y38409D01*
X108800Y38409D02*
X108869Y39023D01*
X109007Y39625D01*
X109211Y40208D01*
X109479Y40765D01*
X109807Y41288D01*
X110193Y41771D01*
X110629Y42208D01*
X111112Y42593D01*
X111635Y42921D01*
X112192Y43189D01*
X112775Y43393D01*
X113377Y43531D01*
X113991Y43600D01*
X114609Y43600D01*
X115223Y43531D01*
X115825Y43393D01*
X116408Y43189D01*
X116965Y42921D01*
X117488Y42593D01*
X117971Y42208D01*
X118408Y41771D01*
X118793Y41288D01*
X119121Y40765D01*
X119389Y40208D01*
X119593Y39625D01*
X119731Y39023D01*
X119800Y38409D01*
X119800Y37791D01*
X119731Y37177D01*
X119593Y36575D01*
X119389Y35992D01*
X119121Y35435D01*
X118793Y34912D01*
X118408Y34429D01*
X117971Y33993D01*
X117488Y33607D01*
X116965Y33279D01*
X116408Y33011D01*
X115825Y32807D01*
X115223Y32669D01*
X114609Y32600D01*
X113991Y32600D01*
X113377Y32669D01*
X112775Y32807D01*
X112192Y33011D01*
X111635Y33279D01*
X111112Y33607D01*
X110629Y33993D01*
X110193Y34429D01*
X109807Y34912D01*
X109479Y35435D01*
X109211Y35992D01*
X109007Y36575D01*
X108869Y37177D01*
X108800Y37791D01*
X108800Y38409D01*
X83400Y38409D02*
X83469Y39023D01*
X83607Y39625D01*
X83811Y40208D01*
X84079Y40765D01*
X84407Y41288D01*
X84793Y41771D01*
X85229Y42208D01*
X85712Y42593D01*
X86235Y42921D01*
X86792Y43189D01*
X87375Y43393D01*
X87977Y43531D01*
X88591Y43600D01*
X89209Y43600D01*
X89823Y43531D01*
X90425Y43393D01*
X91008Y43189D01*
X91565Y42921D01*
X92088Y42593D01*
X92571Y42208D01*
X93008Y41771D01*
X93393Y41288D01*
X93721Y40765D01*
X93989Y40208D01*
X94193Y39625D01*
X94331Y39023D01*
X94400Y38409D01*
X94400Y37791D01*
X94331Y37177D01*
X94193Y36575D01*
X93989Y35992D01*
X93721Y35435D01*
X93393Y34912D01*
X93008Y34429D01*
X92571Y33993D01*
X92088Y33607D01*
X91565Y33279D01*
X91008Y33011D01*
X90425Y32807D01*
X89823Y32669D01*
X89209Y32600D01*
X88591Y32600D01*
X87977Y32669D01*
X87375Y32807D01*
X86792Y33011D01*
X86235Y33279D01*
X85712Y33607D01*
X85229Y33993D01*
X84793Y34429D01*
X84407Y34912D01*
X84079Y35435D01*
X83811Y35992D01*
X83607Y36575D01*
X83469Y37177D01*
X83400Y37791D01*
X83400Y38409D01*
X337400Y38409D02*
X337469Y39023D01*
X337607Y39625D01*
X337811Y40208D01*
X338079Y40765D01*
X338407Y41288D01*
X338793Y41771D01*
X339229Y42208D01*
X339712Y42593D01*
X340235Y42921D01*
X340792Y43189D01*
X341375Y43393D01*
X341977Y43531D01*
X342591Y43600D01*
X343209Y43600D01*
X343823Y43531D01*
X344425Y43393D01*
X345008Y43189D01*
X345565Y42921D01*
X346088Y42593D01*
X346571Y42208D01*
X347008Y41771D01*
X347393Y41288D01*
X347721Y40765D01*
X347989Y40208D01*
X348193Y39625D01*
X348331Y39023D01*
X348400Y38409D01*
X348400Y37791D01*
X348331Y37177D01*
X348193Y36575D01*
X347989Y35992D01*
X347721Y35435D01*
X347393Y34912D01*
X347008Y34429D01*
X346571Y33993D01*
X346088Y33607D01*
X345565Y33279D01*
X345008Y33011D01*
X344425Y32807D01*
X343823Y32669D01*
X343209Y32600D01*
X342591Y32600D01*
X341977Y32669D01*
X341375Y32807D01*
X340792Y33011D01*
X340235Y33279D01*
X339712Y33607D01*
X339229Y33993D01*
X338793Y34429D01*
X338407Y34912D01*
X338079Y35435D01*
X337811Y35992D01*
X337607Y36575D01*
X337469Y37177D01*
X337400Y37791D01*
X337400Y38409D01*
X312000Y38409D02*
X312069Y39023D01*
X312207Y39625D01*
X312411Y40208D01*
X312679Y40765D01*
X313007Y41288D01*
X313393Y41771D01*
X313829Y42208D01*
X314312Y42593D01*
X314835Y42921D01*
X315392Y43189D01*
X315975Y43393D01*
X316577Y43531D01*
X317191Y43600D01*
X317809Y43600D01*
X318423Y43531D01*
X319025Y43393D01*
X319608Y43189D01*
X320165Y42921D01*
X320688Y42593D01*
X321171Y42208D01*
X321608Y41771D01*
X321993Y41288D01*
X322321Y40765D01*
X322589Y40208D01*
X322793Y39625D01*
X322931Y39023D01*
X323000Y38409D01*
X323000Y37791D01*
X322931Y37177D01*
X322793Y36575D01*
X322589Y35992D01*
X322321Y35435D01*
X321993Y34912D01*
X321608Y34429D01*
X321171Y33993D01*
X320688Y33607D01*
X320165Y33279D01*
X319608Y33011D01*
X319025Y32807D01*
X318423Y32669D01*
X317809Y32600D01*
X317191Y32600D01*
X316577Y32669D01*
X315975Y32807D01*
X315392Y33011D01*
X314835Y33279D01*
X314312Y33607D01*
X313829Y33993D01*
X313393Y34429D01*
X313007Y34912D01*
X312679Y35435D01*
X312411Y35992D01*
X312207Y36575D01*
X312069Y37177D01*
X312000Y37791D01*
X312000Y38409D01*
X286600Y38409D02*
X286669Y39023D01*
X286807Y39625D01*
X287011Y40208D01*
X287279Y40765D01*
X287607Y41288D01*
X287993Y41771D01*
X288429Y42208D01*
X288912Y42593D01*
X289435Y42921D01*
X289992Y43189D01*
X290575Y43393D01*
X291177Y43531D01*
X291791Y43600D01*
X292409Y43600D01*
X293023Y43531D01*
X293625Y43393D01*
X294208Y43189D01*
X294765Y42921D01*
X295288Y42593D01*
X295771Y42208D01*
X296208Y41771D01*
X296593Y41288D01*
X296921Y40765D01*
X297189Y40208D01*
X297393Y39625D01*
X297531Y39023D01*
X297600Y38409D01*
X297600Y37791D01*
X297531Y37177D01*
X297393Y36575D01*
X297189Y35992D01*
X296921Y35435D01*
X296593Y34912D01*
X296208Y34429D01*
X295771Y33993D01*
X295288Y33607D01*
X294765Y33279D01*
X294208Y33011D01*
X293625Y32807D01*
X293023Y32669D01*
X292409Y32600D01*
X291791Y32600D01*
X291177Y32669D01*
X290575Y32807D01*
X289992Y33011D01*
X289435Y33279D01*
X288912Y33607D01*
X288429Y33993D01*
X287993Y34429D01*
X287607Y34912D01*
X287279Y35435D01*
X287011Y35992D01*
X286807Y36575D01*
X286669Y37177D01*
X286600Y37791D01*
X286600Y38409D01*
X248500Y38409D02*
X248569Y39023D01*
X248707Y39625D01*
X248911Y40208D01*
X249179Y40765D01*
X249507Y41288D01*
X249893Y41771D01*
X250329Y42208D01*
X250812Y42593D01*
X251335Y42921D01*
X251892Y43189D01*
X252475Y43393D01*
X253077Y43531D01*
X253691Y43600D01*
X254309Y43600D01*
X254923Y43531D01*
X255525Y43393D01*
X256108Y43189D01*
X256665Y42921D01*
X257188Y42593D01*
X257671Y42208D01*
X258108Y41771D01*
X258493Y41288D01*
X258821Y40765D01*
X259089Y40208D01*
X259293Y39625D01*
X259431Y39023D01*
X259500Y38409D01*
X259500Y37791D01*
X259431Y37177D01*
X259293Y36575D01*
X259089Y35992D01*
X258821Y35435D01*
X258493Y34912D01*
X258108Y34429D01*
X257671Y33993D01*
X257188Y33607D01*
X256665Y33279D01*
X256108Y33011D01*
X255525Y32807D01*
X254923Y32669D01*
X254309Y32600D01*
X253691Y32600D01*
X253077Y32669D01*
X252475Y32807D01*
X251892Y33011D01*
X251335Y33279D01*
X250812Y33607D01*
X250329Y33993D01*
X249893Y34429D01*
X249507Y34912D01*
X249179Y35435D01*
X248911Y35992D01*
X248707Y36575D01*
X248569Y37177D01*
X248500Y37791D01*
X248500Y38409D01*
X223100Y38409D02*
X223169Y39023D01*
X223307Y39625D01*
X223511Y40208D01*
X223779Y40765D01*
X224107Y41288D01*
X224493Y41771D01*
X224929Y42208D01*
X225412Y42593D01*
X225935Y42921D01*
X226492Y43189D01*
X227075Y43393D01*
X227677Y43531D01*
X228291Y43600D01*
X228909Y43600D01*
X229523Y43531D01*
X230125Y43393D01*
X230708Y43189D01*
X231265Y42921D01*
X231788Y42593D01*
X232271Y42208D01*
X232708Y41771D01*
X233093Y41288D01*
X233421Y40765D01*
X233689Y40208D01*
X233893Y39625D01*
X234031Y39023D01*
X234100Y38409D01*
X234100Y37791D01*
X234031Y37177D01*
X233893Y36575D01*
X233689Y35992D01*
X233421Y35435D01*
X233093Y34912D01*
X232708Y34429D01*
X232271Y33993D01*
X231788Y33607D01*
X231265Y33279D01*
X230708Y33011D01*
X230125Y32807D01*
X229523Y32669D01*
X228909Y32600D01*
X228291Y32600D01*
X227677Y32669D01*
X227075Y32807D01*
X226492Y33011D01*
X225935Y33279D01*
X225412Y33607D01*
X224929Y33993D01*
X224493Y34429D01*
X224107Y34912D01*
X223779Y35435D01*
X223511Y35992D01*
X223307Y36575D01*
X223169Y37177D01*
X223100Y37791D01*
X223100Y38409D01*
X197700Y38409D02*
X197769Y39023D01*
X197907Y39625D01*
X198111Y40208D01*
X198379Y40765D01*
X198707Y41288D01*
X199093Y41771D01*
X199529Y42208D01*
X200012Y42593D01*
X200535Y42921D01*
X201092Y43189D01*
X201675Y43393D01*
X202277Y43531D01*
X202891Y43600D01*
X203509Y43600D01*
X204123Y43531D01*
X204725Y43393D01*
X205308Y43189D01*
X205865Y42921D01*
X206388Y42593D01*
X206871Y42208D01*
X207308Y41771D01*
X207693Y41288D01*
X208021Y40765D01*
X208289Y40208D01*
X208493Y39625D01*
X208631Y39023D01*
X208700Y38409D01*
X208700Y37791D01*
X208631Y37177D01*
X208493Y36575D01*
X208289Y35992D01*
X208021Y35435D01*
X207693Y34912D01*
X207308Y34429D01*
X206871Y33993D01*
X206388Y33607D01*
X205865Y33279D01*
X205308Y33011D01*
X204725Y32807D01*
X204123Y32669D01*
X203509Y32600D01*
X202891Y32600D01*
X202277Y32669D01*
X201675Y32807D01*
X201092Y33011D01*
X200535Y33279D01*
X200012Y33607D01*
X199529Y33993D01*
X199093Y34429D01*
X198707Y34912D01*
X198379Y35435D01*
X198111Y35992D01*
X197907Y36575D01*
X197769Y37177D01*
X197700Y37791D01*
X197700Y38409D01*
X426300Y38409D02*
X426369Y39023D01*
X426507Y39625D01*
X426711Y40208D01*
X426979Y40765D01*
X427307Y41288D01*
X427693Y41771D01*
X428129Y42208D01*
X428612Y42593D01*
X429135Y42921D01*
X429692Y43189D01*
X430275Y43393D01*
X430877Y43531D01*
X431491Y43600D01*
X432109Y43600D01*
X432723Y43531D01*
X433325Y43393D01*
X433908Y43189D01*
X434465Y42921D01*
X434988Y42593D01*
X435471Y42208D01*
X435908Y41771D01*
X436293Y41288D01*
X436621Y40765D01*
X436889Y40208D01*
X437093Y39625D01*
X437231Y39023D01*
X437300Y38409D01*
X437300Y37791D01*
X437231Y37177D01*
X437093Y36575D01*
X436889Y35992D01*
X436621Y35435D01*
X436293Y34912D01*
X435908Y34429D01*
X435471Y33993D01*
X434988Y33607D01*
X434465Y33279D01*
X433908Y33011D01*
X433325Y32807D01*
X432723Y32669D01*
X432109Y32600D01*
X431491Y32600D01*
X430877Y32669D01*
X430275Y32807D01*
X429692Y33011D01*
X429135Y33279D01*
X428612Y33607D01*
X428129Y33993D01*
X427693Y34429D01*
X427307Y34912D01*
X426979Y35435D01*
X426711Y35992D01*
X426507Y36575D01*
X426369Y37177D01*
X426300Y37791D01*
X426300Y38409D01*
X400900Y38409D02*
X400969Y39023D01*
X401107Y39625D01*
X401311Y40208D01*
X401579Y40765D01*
X401907Y41288D01*
X402293Y41771D01*
X402729Y42208D01*
X403212Y42593D01*
X403735Y42921D01*
X404292Y43189D01*
X404875Y43393D01*
X405477Y43531D01*
X406091Y43600D01*
X406709Y43600D01*
X407323Y43531D01*
X407925Y43393D01*
X408508Y43189D01*
X409065Y42921D01*
X409588Y42593D01*
X410071Y42208D01*
X410508Y41771D01*
X410893Y41288D01*
X411221Y40765D01*
X411489Y40208D01*
X411693Y39625D01*
X411831Y39023D01*
X411900Y38409D01*
X411900Y37791D01*
X411831Y37177D01*
X411693Y36575D01*
X411489Y35992D01*
X411221Y35435D01*
X410893Y34912D01*
X410508Y34429D01*
X410071Y33993D01*
X409588Y33607D01*
X409065Y33279D01*
X408508Y33011D01*
X407925Y32807D01*
X407323Y32669D01*
X406709Y32600D01*
X406091Y32600D01*
X405477Y32669D01*
X404875Y32807D01*
X404292Y33011D01*
X403735Y33279D01*
X403212Y33607D01*
X402729Y33993D01*
X402293Y34429D01*
X401907Y34912D01*
X401579Y35435D01*
X401311Y35992D01*
X401107Y36575D01*
X400969Y37177D01*
X400900Y37791D01*
X400900Y38409D01*
X375500Y38409D02*
X375569Y39023D01*
X375707Y39625D01*
X375911Y40208D01*
X376179Y40765D01*
X376507Y41288D01*
X376893Y41771D01*
X377329Y42208D01*
X377812Y42593D01*
X378335Y42921D01*
X378892Y43189D01*
X379475Y43393D01*
X380077Y43531D01*
X380691Y43600D01*
X381309Y43600D01*
X381923Y43531D01*
X382525Y43393D01*
X383108Y43189D01*
X383665Y42921D01*
X384188Y42593D01*
X384671Y42208D01*
X385108Y41771D01*
X385493Y41288D01*
X385821Y40765D01*
X386089Y40208D01*
X386293Y39625D01*
X386431Y39023D01*
X386500Y38409D01*
X386500Y37791D01*
X386431Y37177D01*
X386293Y36575D01*
X386089Y35992D01*
X385821Y35435D01*
X385493Y34912D01*
X385108Y34429D01*
X384671Y33993D01*
X384188Y33607D01*
X383665Y33279D01*
X383108Y33011D01*
X382525Y32807D01*
X381923Y32669D01*
X381309Y32600D01*
X380691Y32600D01*
X380077Y32669D01*
X379475Y32807D01*
X378892Y33011D01*
X378335Y33279D01*
X377812Y33607D01*
X377329Y33993D01*
X376893Y34429D01*
X376507Y34912D01*
X376179Y35435D01*
X375911Y35992D01*
X375707Y36575D01*
X375569Y37177D01*
X375500Y37791D01*
X375500Y38409D01*
X335700Y469591D02*
X335631Y468977D01*
X335493Y468375D01*
X335289Y467792D01*
X335021Y467235D01*
X334693Y466712D01*
X334308Y466229D01*
X333871Y465793D01*
X333388Y465407D01*
X332865Y465079D01*
X332308Y464811D01*
X331725Y464607D01*
X331123Y464469D01*
X330509Y464400D01*
X329891Y464400D01*
X329277Y464469D01*
X328675Y464607D01*
X328092Y464811D01*
X327535Y465079D01*
X327012Y465407D01*
X326529Y465793D01*
X326093Y466229D01*
X325707Y466712D01*
X325379Y467235D01*
X325111Y467792D01*
X324907Y468375D01*
X324769Y468977D01*
X324700Y469591D01*
X324700Y470209D01*
X324769Y470823D01*
X324907Y471425D01*
X325111Y472008D01*
X325379Y472565D01*
X325707Y473088D01*
X326093Y473571D01*
X326529Y474008D01*
X327012Y474393D01*
X327535Y474721D01*
X328092Y474989D01*
X328675Y475193D01*
X329277Y475331D01*
X329891Y475400D01*
X330509Y475400D01*
X331123Y475331D01*
X331725Y475193D01*
X332308Y474989D01*
X332865Y474721D01*
X333388Y474393D01*
X333871Y474008D01*
X334308Y473571D01*
X334693Y473088D01*
X335021Y472565D01*
X335289Y472008D01*
X335493Y471425D01*
X335631Y470823D01*
X335700Y470209D01*
X335700Y469591D01*
X361100Y469591D02*
X361031Y468977D01*
X360893Y468375D01*
X360689Y467792D01*
X360421Y467235D01*
X360093Y466712D01*
X359708Y466229D01*
X359271Y465793D01*
X358788Y465407D01*
X358265Y465079D01*
X357708Y464811D01*
X357125Y464607D01*
X356523Y464469D01*
X355909Y464400D01*
X355291Y464400D01*
X354677Y464469D01*
X354075Y464607D01*
X353492Y464811D01*
X352935Y465079D01*
X352412Y465407D01*
X351929Y465793D01*
X351493Y466229D01*
X351107Y466712D01*
X350779Y467235D01*
X350511Y467792D01*
X350307Y468375D01*
X350169Y468977D01*
X350100Y469591D01*
X350100Y470209D01*
X350169Y470823D01*
X350307Y471425D01*
X350511Y472008D01*
X350779Y472565D01*
X351107Y473088D01*
X351493Y473571D01*
X351929Y474008D01*
X352412Y474393D01*
X352935Y474721D01*
X353492Y474989D01*
X354075Y475193D01*
X354677Y475331D01*
X355291Y475400D01*
X355909Y475400D01*
X356523Y475331D01*
X357125Y475193D01*
X357708Y474989D01*
X358265Y474721D01*
X358788Y474393D01*
X359271Y474008D01*
X359708Y473571D01*
X360093Y473088D01*
X360421Y472565D01*
X360689Y472008D01*
X360893Y471425D01*
X361031Y470823D01*
X361100Y470209D01*
X361100Y469591D01*
X386500Y469591D02*
X386431Y468977D01*
X386293Y468375D01*
X386089Y467792D01*
X385821Y467235D01*
X385493Y466712D01*
X385108Y466229D01*
X384671Y465793D01*
X384188Y465407D01*
X383665Y465079D01*
X383108Y464811D01*
X382525Y464607D01*
X381923Y464469D01*
X381309Y464400D01*
X380691Y464400D01*
X380077Y464469D01*
X379475Y464607D01*
X378892Y464811D01*
X378335Y465079D01*
X377812Y465407D01*
X377329Y465793D01*
X376893Y466229D01*
X376507Y466712D01*
X376179Y467235D01*
X375911Y467792D01*
X375707Y468375D01*
X375569Y468977D01*
X375500Y469591D01*
X375500Y470209D01*
X375569Y470823D01*
X375707Y471425D01*
X375911Y472008D01*
X376179Y472565D01*
X376507Y473088D01*
X376893Y473571D01*
X377329Y474008D01*
X377812Y474393D01*
X378335Y474721D01*
X378892Y474989D01*
X379475Y475193D01*
X380077Y475331D01*
X380691Y475400D01*
X381309Y475400D01*
X381923Y475331D01*
X382525Y475193D01*
X383108Y474989D01*
X383665Y474721D01*
X384188Y474393D01*
X384671Y474008D01*
X385108Y473571D01*
X385493Y473088D01*
X385821Y472565D01*
X386089Y472008D01*
X386293Y471425D01*
X386431Y470823D01*
X386500Y470209D01*
X386500Y469591D01*
X246800Y469591D02*
X246731Y468977D01*
X246593Y468375D01*
X246389Y467792D01*
X246121Y467235D01*
X245793Y466712D01*
X245408Y466229D01*
X244971Y465793D01*
X244488Y465407D01*
X243965Y465079D01*
X243408Y464811D01*
X242825Y464607D01*
X242223Y464469D01*
X241609Y464400D01*
X240991Y464400D01*
X240377Y464469D01*
X239775Y464607D01*
X239192Y464811D01*
X238635Y465079D01*
X238112Y465407D01*
X237629Y465793D01*
X237193Y466229D01*
X236807Y466712D01*
X236479Y467235D01*
X236211Y467792D01*
X236007Y468375D01*
X235869Y468977D01*
X235800Y469591D01*
X235800Y470209D01*
X235869Y470823D01*
X236007Y471425D01*
X236211Y472008D01*
X236479Y472565D01*
X236807Y473088D01*
X237193Y473571D01*
X237629Y474008D01*
X238112Y474393D01*
X238635Y474721D01*
X239192Y474989D01*
X239775Y475193D01*
X240377Y475331D01*
X240991Y475400D01*
X241609Y475400D01*
X242223Y475331D01*
X242825Y475193D01*
X243408Y474989D01*
X243965Y474721D01*
X244488Y474393D01*
X244971Y474008D01*
X245408Y473571D01*
X245793Y473088D01*
X246121Y472565D01*
X246389Y472008D01*
X246593Y471425D01*
X246731Y470823D01*
X246800Y470209D01*
X246800Y469591D01*
X272200Y469591D02*
X272131Y468977D01*
X271993Y468375D01*
X271789Y467792D01*
X271521Y467235D01*
X271193Y466712D01*
X270808Y466229D01*
X270371Y465793D01*
X269888Y465407D01*
X269365Y465079D01*
X268808Y464811D01*
X268225Y464607D01*
X267623Y464469D01*
X267009Y464400D01*
X266391Y464400D01*
X265777Y464469D01*
X265175Y464607D01*
X264592Y464811D01*
X264035Y465079D01*
X263512Y465407D01*
X263029Y465793D01*
X262593Y466229D01*
X262207Y466712D01*
X261879Y467235D01*
X261611Y467792D01*
X261407Y468375D01*
X261269Y468977D01*
X261200Y469591D01*
X261200Y470209D01*
X261269Y470823D01*
X261407Y471425D01*
X261611Y472008D01*
X261879Y472565D01*
X262207Y473088D01*
X262593Y473571D01*
X263029Y474008D01*
X263512Y474393D01*
X264035Y474721D01*
X264592Y474989D01*
X265175Y475193D01*
X265777Y475331D01*
X266391Y475400D01*
X267009Y475400D01*
X267623Y475331D01*
X268225Y475193D01*
X268808Y474989D01*
X269365Y474721D01*
X269888Y474393D01*
X270371Y474008D01*
X270808Y473571D01*
X271193Y473088D01*
X271521Y472565D01*
X271789Y472008D01*
X271993Y471425D01*
X272131Y470823D01*
X272200Y470209D01*
X272200Y469591D01*
X297600Y469591D02*
X297531Y468977D01*
X297393Y468375D01*
X297189Y467792D01*
X296921Y467235D01*
X296593Y466712D01*
X296208Y466229D01*
X295771Y465793D01*
X295288Y465407D01*
X294765Y465079D01*
X294208Y464811D01*
X293625Y464607D01*
X293023Y464469D01*
X292409Y464400D01*
X291791Y464400D01*
X291177Y464469D01*
X290575Y464607D01*
X289992Y464811D01*
X289435Y465079D01*
X288912Y465407D01*
X288429Y465793D01*
X287993Y466229D01*
X287607Y466712D01*
X287279Y467235D01*
X287011Y467792D01*
X286807Y468375D01*
X286669Y468977D01*
X286600Y469591D01*
X286600Y470209D01*
X286669Y470823D01*
X286807Y471425D01*
X287011Y472008D01*
X287279Y472565D01*
X287607Y473088D01*
X287993Y473571D01*
X288429Y474008D01*
X288912Y474393D01*
X289435Y474721D01*
X289992Y474989D01*
X290575Y475193D01*
X291177Y475331D01*
X291791Y475400D01*
X292409Y475400D01*
X293023Y475331D01*
X293625Y475193D01*
X294208Y474989D01*
X294765Y474721D01*
X295288Y474393D01*
X295771Y474008D01*
X296208Y473571D01*
X296593Y473088D01*
X296921Y472565D01*
X297189Y472008D01*
X297393Y471425D01*
X297531Y470823D01*
X297600Y470209D01*
X297600Y469591D01*
X157900Y469591D02*
X157831Y468977D01*
X157693Y468375D01*
X157489Y467792D01*
X157221Y467235D01*
X156893Y466712D01*
X156508Y466229D01*
X156071Y465793D01*
X155588Y465407D01*
X155065Y465079D01*
X154508Y464811D01*
X153925Y464607D01*
X153323Y464469D01*
X152709Y464400D01*
X152091Y464400D01*
X151477Y464469D01*
X150875Y464607D01*
X150292Y464811D01*
X149735Y465079D01*
X149212Y465407D01*
X148729Y465793D01*
X148293Y466229D01*
X147907Y466712D01*
X147579Y467235D01*
X147311Y467792D01*
X147107Y468375D01*
X146969Y468977D01*
X146900Y469591D01*
X146900Y470209D01*
X146969Y470823D01*
X147107Y471425D01*
X147311Y472008D01*
X147579Y472565D01*
X147907Y473088D01*
X148293Y473571D01*
X148729Y474008D01*
X149212Y474393D01*
X149735Y474721D01*
X150292Y474989D01*
X150875Y475193D01*
X151477Y475331D01*
X152091Y475400D01*
X152709Y475400D01*
X153323Y475331D01*
X153925Y475193D01*
X154508Y474989D01*
X155065Y474721D01*
X155588Y474393D01*
X156071Y474008D01*
X156508Y473571D01*
X156893Y473088D01*
X157221Y472565D01*
X157489Y472008D01*
X157693Y471425D01*
X157831Y470823D01*
X157900Y470209D01*
X157900Y469591D01*
X183300Y469591D02*
X183231Y468977D01*
X183093Y468375D01*
X182889Y467792D01*
X182621Y467235D01*
X182293Y466712D01*
X181908Y466229D01*
X181471Y465793D01*
X180988Y465407D01*
X180465Y465079D01*
X179908Y464811D01*
X179325Y464607D01*
X178723Y464469D01*
X178109Y464400D01*
X177491Y464400D01*
X176877Y464469D01*
X176275Y464607D01*
X175692Y464811D01*
X175135Y465079D01*
X174612Y465407D01*
X174129Y465793D01*
X173693Y466229D01*
X173307Y466712D01*
X172979Y467235D01*
X172711Y467792D01*
X172507Y468375D01*
X172369Y468977D01*
X172300Y469591D01*
X172300Y470209D01*
X172369Y470823D01*
X172507Y471425D01*
X172711Y472008D01*
X172979Y472565D01*
X173307Y473088D01*
X173693Y473571D01*
X174129Y474008D01*
X174612Y474393D01*
X175135Y474721D01*
X175692Y474989D01*
X176275Y475193D01*
X176877Y475331D01*
X177491Y475400D01*
X178109Y475400D01*
X178723Y475331D01*
X179325Y475193D01*
X179908Y474989D01*
X180465Y474721D01*
X180988Y474393D01*
X181471Y474008D01*
X181908Y473571D01*
X182293Y473088D01*
X182621Y472565D01*
X182889Y472008D01*
X183093Y471425D01*
X183231Y470823D01*
X183300Y470209D01*
X183300Y469591D01*
X208700Y469591D02*
X208631Y468977D01*
X208493Y468375D01*
X208289Y467792D01*
X208021Y467235D01*
X207693Y466712D01*
X207308Y466229D01*
X206871Y465793D01*
X206388Y465407D01*
X205865Y465079D01*
X205308Y464811D01*
X204725Y464607D01*
X204123Y464469D01*
X203509Y464400D01*
X202891Y464400D01*
X202277Y464469D01*
X201675Y464607D01*
X201092Y464811D01*
X200535Y465079D01*
X200012Y465407D01*
X199529Y465793D01*
X199093Y466229D01*
X198707Y466712D01*
X198379Y467235D01*
X198111Y467792D01*
X197907Y468375D01*
X197769Y468977D01*
X197700Y469591D01*
X197700Y470209D01*
X197769Y470823D01*
X197907Y471425D01*
X198111Y472008D01*
X198379Y472565D01*
X198707Y473088D01*
X199093Y473571D01*
X199529Y474008D01*
X200012Y474393D01*
X200535Y474721D01*
X201092Y474989D01*
X201675Y475193D01*
X202277Y475331D01*
X202891Y475400D01*
X203509Y475400D01*
X204123Y475331D01*
X204725Y475193D01*
X205308Y474989D01*
X205865Y474721D01*
X206388Y474393D01*
X206871Y474008D01*
X207308Y473571D01*
X207693Y473088D01*
X208021Y472565D01*
X208289Y472008D01*
X208493Y471425D01*
X208631Y470823D01*
X208700Y470209D01*
X208700Y469591D01*
M02*
