G04 EAGLE Gerber RS-274X export*
G75*
%MOMM*%
%FSLAX34Y34*%
%LPD*%
%INSilkscreen Bottom*%
%IPPOS*%
%AMOC8*
5,1,8,0,0,1.08239X$1,22.5*%
G01*
%ADD10C,0.152400*%
%ADD11C,0.127000*%


D10*
X109982Y210418D02*
X115405Y204995D01*
X120829Y204995D01*
X126252Y210418D01*
X126252Y224044D02*
X123540Y226756D01*
X126252Y224044D02*
X126252Y218621D01*
X123540Y215909D01*
X112694Y215909D01*
X109982Y218621D01*
X109982Y224044D01*
X112694Y226756D01*
X109982Y232281D02*
X115405Y237704D01*
X120829Y237704D01*
X126252Y232281D01*
X109982Y259567D02*
X109982Y270413D01*
X109982Y259567D02*
X120829Y270413D01*
X123540Y270413D01*
X126252Y267702D01*
X126252Y262278D01*
X123540Y259567D01*
X123540Y275938D02*
X112694Y275938D01*
X123540Y275938D02*
X126252Y278650D01*
X126252Y284073D01*
X123540Y286785D01*
X112694Y286785D01*
X109982Y284073D01*
X109982Y278650D01*
X112694Y275938D01*
X123540Y286785D01*
X120829Y292310D02*
X126252Y297733D01*
X109982Y297733D01*
X109982Y292310D02*
X109982Y303156D01*
X123540Y308681D02*
X126252Y311393D01*
X126252Y316816D01*
X123540Y319528D01*
X120829Y319528D01*
X118117Y316816D01*
X115405Y319528D01*
X112694Y319528D01*
X109982Y316816D01*
X109982Y311393D01*
X112694Y308681D01*
X115405Y308681D01*
X118117Y311393D01*
X120829Y308681D01*
X123540Y308681D01*
X118117Y311393D02*
X118117Y316816D01*
X77889Y207706D02*
X77889Y204995D01*
X77889Y207706D02*
X80600Y210418D01*
X94159Y210418D01*
X99582Y210418D02*
X102294Y210418D01*
X83312Y218621D02*
X83312Y224044D01*
X86024Y226756D01*
X91447Y226756D01*
X94159Y224044D01*
X94159Y218621D01*
X91447Y215909D01*
X86024Y215909D01*
X83312Y218621D01*
X83312Y232281D02*
X99582Y232281D01*
X94159Y234992D02*
X91447Y232281D01*
X94159Y234992D02*
X94159Y240416D01*
X91447Y243127D01*
X83312Y243127D01*
X83312Y248652D02*
X94159Y248652D01*
X94159Y256787D01*
X91447Y259499D01*
X83312Y259499D01*
X83312Y265024D02*
X86024Y265024D01*
X86024Y267735D01*
X83312Y267735D01*
X83312Y265024D01*
X83312Y273210D02*
X99582Y273210D01*
X94159Y275921D02*
X91447Y273210D01*
X94159Y275921D02*
X94159Y281345D01*
X91447Y284056D01*
X83312Y284056D01*
X86024Y289581D02*
X94159Y289581D01*
X86024Y289581D02*
X83312Y292293D01*
X83312Y300428D01*
X94159Y300428D01*
X99582Y305953D02*
X99582Y308664D01*
X83312Y308664D01*
X83312Y305953D02*
X83312Y311376D01*
X86024Y319579D02*
X96870Y319579D01*
X86024Y319579D02*
X83312Y322290D01*
X94159Y322290D02*
X94159Y316867D01*
X99582Y327781D02*
X83312Y327781D01*
X91447Y327781D02*
X94159Y330493D01*
X94159Y335916D01*
X91447Y338628D01*
X83312Y338628D01*
X83312Y352288D02*
X86024Y355000D01*
X83312Y352288D02*
X83312Y346865D01*
X86024Y344153D01*
X96870Y344153D01*
X99582Y346865D01*
X99582Y352288D01*
X96870Y355000D01*
X91447Y355000D01*
X88735Y352288D01*
X88735Y346865D01*
X94159Y346865D01*
X94159Y352288D01*
X88735Y352288D01*
X77889Y365948D02*
X77889Y368660D01*
X80600Y371371D01*
X94159Y371371D01*
X94159Y363236D01*
X91447Y360525D01*
X86024Y360525D01*
X83312Y363236D01*
X83312Y371371D01*
X83312Y379608D02*
X83312Y385031D01*
X83312Y379608D02*
X86024Y376896D01*
X91447Y376896D01*
X94159Y379608D01*
X94159Y385031D01*
X91447Y387743D01*
X88735Y387743D01*
X88735Y376896D01*
X83312Y395979D02*
X83312Y401403D01*
X86024Y404114D01*
X91447Y404114D01*
X94159Y401403D01*
X94159Y395979D01*
X91447Y393268D01*
X86024Y393268D01*
X83312Y395979D01*
X83312Y409639D02*
X86024Y409639D01*
X86024Y412351D01*
X83312Y412351D01*
X83312Y409639D01*
X86024Y417825D02*
X94159Y417825D01*
X86024Y417825D02*
X83312Y420537D01*
X83312Y428672D01*
X94159Y428672D01*
X94159Y434197D02*
X94159Y436908D01*
X83312Y436908D01*
X83312Y434197D02*
X83312Y439620D01*
X99582Y436908D02*
X102294Y436908D01*
X83312Y447823D02*
X83312Y453246D01*
X86024Y455958D01*
X91447Y455958D01*
X94159Y453246D01*
X94159Y447823D01*
X91447Y445111D01*
X86024Y445111D01*
X83312Y447823D01*
X83312Y461483D02*
X86024Y461483D01*
X86024Y464194D01*
X83312Y464194D01*
X83312Y461483D01*
X83312Y469668D02*
X94159Y469668D01*
X94159Y477803D01*
X91447Y480515D01*
X83312Y480515D01*
X83312Y488752D02*
X83312Y494175D01*
X86024Y496887D01*
X91447Y496887D01*
X94159Y494175D01*
X94159Y488752D01*
X91447Y486040D01*
X86024Y486040D01*
X83312Y488752D01*
X395732Y235060D02*
X412002Y235060D01*
X395732Y235060D02*
X395732Y245906D01*
X395732Y254143D02*
X395732Y259566D01*
X395732Y254143D02*
X398444Y251431D01*
X403867Y251431D01*
X406579Y254143D01*
X406579Y259566D01*
X403867Y262278D01*
X401155Y262278D01*
X401155Y251431D01*
X395732Y267803D02*
X406579Y267803D01*
X406579Y270514D01*
X403867Y273226D01*
X395732Y273226D01*
X403867Y273226D02*
X406579Y275938D01*
X403867Y278649D01*
X395732Y278649D01*
X395732Y284174D02*
X406579Y284174D01*
X406579Y286886D01*
X403867Y289598D01*
X395732Y289598D01*
X403867Y289598D02*
X406579Y292309D01*
X403867Y295021D01*
X395732Y295021D01*
X406579Y300546D02*
X406579Y303257D01*
X395732Y303257D01*
X395732Y300546D02*
X395732Y305969D01*
X412002Y303257D02*
X414714Y303257D01*
X406579Y311460D02*
X395732Y311460D01*
X406579Y311460D02*
X406579Y319595D01*
X403867Y322307D01*
X395732Y322307D01*
X390309Y333255D02*
X390309Y335967D01*
X393020Y338678D01*
X406579Y338678D01*
X406579Y330543D01*
X403867Y327832D01*
X398444Y327832D01*
X395732Y330543D01*
X395732Y338678D01*
X412002Y368710D02*
X409290Y371421D01*
X412002Y368710D02*
X412002Y363286D01*
X409290Y360575D01*
X406579Y360575D01*
X403867Y363286D01*
X403867Y368710D01*
X401155Y371421D01*
X398444Y371421D01*
X395732Y368710D01*
X395732Y363286D01*
X398444Y360575D01*
X395732Y376946D02*
X412002Y376946D01*
X406579Y382370D01*
X412002Y387793D01*
X395732Y387793D01*
X395732Y393318D02*
X412002Y393318D01*
X395732Y393318D02*
X395732Y401453D01*
X398444Y404165D01*
X409290Y404165D01*
X412002Y401453D01*
X412002Y393318D01*
X412002Y426061D02*
X401155Y426061D01*
X395732Y431484D01*
X401155Y436908D01*
X412002Y436908D01*
X406579Y442433D02*
X412002Y447856D01*
X395732Y447856D01*
X395732Y442433D02*
X395732Y453279D01*
X395732Y458804D02*
X398444Y458804D01*
X398444Y461516D01*
X395732Y461516D01*
X395732Y458804D01*
X398444Y466990D02*
X409290Y466990D01*
X412002Y469702D01*
X412002Y475125D01*
X409290Y477837D01*
X398444Y477837D01*
X395732Y475125D01*
X395732Y469702D01*
X398444Y466990D01*
X409290Y477837D01*
D11*
X419100Y508000D02*
X444500Y508000D01*
X63500Y469900D02*
X12700Y469900D01*
X0Y28583D02*
X0Y0D01*
X0Y43583D02*
X0Y72167D01*
X0Y87167D02*
X0Y115750D01*
X0Y130750D02*
X0Y159333D01*
X0Y174333D02*
X0Y202917D01*
X0Y217917D02*
X0Y246500D01*
X0Y261500D02*
X0Y290083D01*
X0Y305083D02*
X0Y333667D01*
X0Y348667D02*
X0Y377250D01*
X0Y392250D02*
X0Y420833D01*
X0Y435833D02*
X0Y464417D01*
X0Y479417D02*
X0Y508000D01*
X29212Y508000D01*
X44212Y508000D02*
X73424Y508000D01*
X88424Y508000D02*
X117635Y508000D01*
X132635Y508000D02*
X161847Y508000D01*
X176847Y508000D02*
X206059Y508000D01*
X221059Y508000D02*
X250271Y508000D01*
X265271Y508000D02*
X294482Y508000D01*
X309482Y508000D02*
X338694Y508000D01*
X353694Y508000D02*
X382906Y508000D01*
X397906Y508000D02*
X427118Y508000D01*
X442118Y508000D02*
X471329Y508000D01*
X486329Y508000D02*
X515541Y508000D01*
X530541Y508000D02*
X559753Y508000D01*
X574753Y508000D02*
X603965Y508000D01*
X618965Y508000D02*
X648176Y508000D01*
X663176Y508000D02*
X692388Y508000D01*
X707388Y508000D02*
X736600Y508000D01*
X736600Y479417D01*
X736600Y464417D02*
X736600Y435833D01*
X736600Y420833D02*
X736600Y392250D01*
X736600Y377250D02*
X736600Y348667D01*
X736600Y333667D02*
X736600Y305083D01*
X736600Y290083D02*
X736600Y261500D01*
X736600Y246500D02*
X736600Y217917D01*
X736600Y202917D02*
X736600Y174333D01*
X736600Y159333D02*
X736600Y130750D01*
X736600Y115750D02*
X736600Y87167D01*
X736600Y72167D02*
X736600Y43583D01*
X736600Y28583D02*
X736600Y0D01*
X707388Y0D01*
X692388Y0D02*
X663176Y0D01*
X648176Y0D02*
X618965Y0D01*
X603965Y0D02*
X574753Y0D01*
X559753Y0D02*
X530541Y0D01*
X515541Y0D02*
X486329Y0D01*
X471329Y0D02*
X442118Y0D01*
X427118Y0D02*
X397906Y0D01*
X382906Y0D02*
X353694Y0D01*
X338694Y0D02*
X309482Y0D01*
X294482Y0D02*
X265271Y0D01*
X250271Y0D02*
X221059Y0D01*
X206059Y0D02*
X176847Y0D01*
X161847Y0D02*
X132635Y0D01*
X117635Y0D02*
X88424Y0D01*
X73424Y0D02*
X44212Y0D01*
X29212Y0D02*
X0Y0D01*
X7900Y76200D02*
X7905Y76629D01*
X7921Y77059D01*
X7947Y77487D01*
X7984Y77915D01*
X8032Y78342D01*
X8089Y78768D01*
X8158Y79192D01*
X8236Y79614D01*
X8325Y80034D01*
X8424Y80452D01*
X8534Y80867D01*
X8654Y81280D01*
X8783Y81689D01*
X8923Y82096D01*
X9073Y82498D01*
X9232Y82897D01*
X9401Y83292D01*
X9580Y83682D01*
X9769Y84068D01*
X9966Y84449D01*
X10173Y84826D01*
X10390Y85197D01*
X10615Y85562D01*
X10849Y85922D01*
X11092Y86277D01*
X11344Y86625D01*
X11604Y86967D01*
X11872Y87302D01*
X12149Y87631D01*
X12433Y87952D01*
X12726Y88267D01*
X13026Y88574D01*
X13333Y88874D01*
X13648Y89167D01*
X13969Y89451D01*
X14298Y89728D01*
X14633Y89996D01*
X14975Y90256D01*
X15323Y90508D01*
X15678Y90751D01*
X16038Y90985D01*
X16403Y91210D01*
X16774Y91427D01*
X17151Y91634D01*
X17532Y91831D01*
X17918Y92020D01*
X18308Y92199D01*
X18703Y92368D01*
X19102Y92527D01*
X19504Y92677D01*
X19911Y92817D01*
X20320Y92946D01*
X20733Y93066D01*
X21148Y93176D01*
X21566Y93275D01*
X21986Y93364D01*
X22408Y93442D01*
X22832Y93511D01*
X23258Y93568D01*
X23685Y93616D01*
X24113Y93653D01*
X24541Y93679D01*
X24971Y93695D01*
X25400Y93700D01*
X25829Y93695D01*
X26259Y93679D01*
X26687Y93653D01*
X27115Y93616D01*
X27542Y93568D01*
X27968Y93511D01*
X28392Y93442D01*
X28814Y93364D01*
X29234Y93275D01*
X29652Y93176D01*
X30067Y93066D01*
X30480Y92946D01*
X30889Y92817D01*
X31296Y92677D01*
X31698Y92527D01*
X32097Y92368D01*
X32492Y92199D01*
X32882Y92020D01*
X33268Y91831D01*
X33649Y91634D01*
X34026Y91427D01*
X34397Y91210D01*
X34762Y90985D01*
X35122Y90751D01*
X35477Y90508D01*
X35825Y90256D01*
X36167Y89996D01*
X36502Y89728D01*
X36831Y89451D01*
X37152Y89167D01*
X37467Y88874D01*
X37774Y88574D01*
X38074Y88267D01*
X38367Y87952D01*
X38651Y87631D01*
X38928Y87302D01*
X39196Y86967D01*
X39456Y86625D01*
X39708Y86277D01*
X39951Y85922D01*
X40185Y85562D01*
X40410Y85197D01*
X40627Y84826D01*
X40834Y84449D01*
X41031Y84068D01*
X41220Y83682D01*
X41399Y83292D01*
X41568Y82897D01*
X41727Y82498D01*
X41877Y82096D01*
X42017Y81689D01*
X42146Y81280D01*
X42266Y80867D01*
X42376Y80452D01*
X42475Y80034D01*
X42564Y79614D01*
X42642Y79192D01*
X42711Y78768D01*
X42768Y78342D01*
X42816Y77915D01*
X42853Y77487D01*
X42879Y77059D01*
X42895Y76629D01*
X42900Y76200D01*
X42895Y75771D01*
X42879Y75341D01*
X42853Y74913D01*
X42816Y74485D01*
X42768Y74058D01*
X42711Y73632D01*
X42642Y73208D01*
X42564Y72786D01*
X42475Y72366D01*
X42376Y71948D01*
X42266Y71533D01*
X42146Y71120D01*
X42017Y70711D01*
X41877Y70304D01*
X41727Y69902D01*
X41568Y69503D01*
X41399Y69108D01*
X41220Y68718D01*
X41031Y68332D01*
X40834Y67951D01*
X40627Y67574D01*
X40410Y67203D01*
X40185Y66838D01*
X39951Y66478D01*
X39708Y66123D01*
X39456Y65775D01*
X39196Y65433D01*
X38928Y65098D01*
X38651Y64769D01*
X38367Y64448D01*
X38074Y64133D01*
X37774Y63826D01*
X37467Y63526D01*
X37152Y63233D01*
X36831Y62949D01*
X36502Y62672D01*
X36167Y62404D01*
X35825Y62144D01*
X35477Y61892D01*
X35122Y61649D01*
X34762Y61415D01*
X34397Y61190D01*
X34026Y60973D01*
X33649Y60766D01*
X33268Y60569D01*
X32882Y60380D01*
X32492Y60201D01*
X32097Y60032D01*
X31698Y59873D01*
X31296Y59723D01*
X30889Y59583D01*
X30480Y59454D01*
X30067Y59334D01*
X29652Y59224D01*
X29234Y59125D01*
X28814Y59036D01*
X28392Y58958D01*
X27968Y58889D01*
X27542Y58832D01*
X27115Y58784D01*
X26687Y58747D01*
X26259Y58721D01*
X25829Y58705D01*
X25400Y58700D01*
X24971Y58705D01*
X24541Y58721D01*
X24113Y58747D01*
X23685Y58784D01*
X23258Y58832D01*
X22832Y58889D01*
X22408Y58958D01*
X21986Y59036D01*
X21566Y59125D01*
X21148Y59224D01*
X20733Y59334D01*
X20320Y59454D01*
X19911Y59583D01*
X19504Y59723D01*
X19102Y59873D01*
X18703Y60032D01*
X18308Y60201D01*
X17918Y60380D01*
X17532Y60569D01*
X17151Y60766D01*
X16774Y60973D01*
X16403Y61190D01*
X16038Y61415D01*
X15678Y61649D01*
X15323Y61892D01*
X14975Y62144D01*
X14633Y62404D01*
X14298Y62672D01*
X13969Y62949D01*
X13648Y63233D01*
X13333Y63526D01*
X13026Y63826D01*
X12726Y64133D01*
X12433Y64448D01*
X12149Y64769D01*
X11872Y65098D01*
X11604Y65433D01*
X11344Y65775D01*
X11092Y66123D01*
X10849Y66478D01*
X10615Y66838D01*
X10390Y67203D01*
X10173Y67574D01*
X9966Y67951D01*
X9769Y68332D01*
X9580Y68718D01*
X9401Y69108D01*
X9232Y69503D01*
X9073Y69902D01*
X8923Y70304D01*
X8783Y70711D01*
X8654Y71120D01*
X8534Y71533D01*
X8424Y71948D01*
X8325Y72366D01*
X8236Y72786D01*
X8158Y73208D01*
X8089Y73632D01*
X8032Y74058D01*
X7984Y74485D01*
X7947Y74913D01*
X7921Y75341D01*
X7905Y75771D01*
X7900Y76200D01*
X681000Y469900D02*
X681005Y470329D01*
X681021Y470759D01*
X681047Y471187D01*
X681084Y471615D01*
X681132Y472042D01*
X681189Y472468D01*
X681258Y472892D01*
X681336Y473314D01*
X681425Y473734D01*
X681524Y474152D01*
X681634Y474567D01*
X681754Y474980D01*
X681883Y475389D01*
X682023Y475796D01*
X682173Y476198D01*
X682332Y476597D01*
X682501Y476992D01*
X682680Y477382D01*
X682869Y477768D01*
X683066Y478149D01*
X683273Y478526D01*
X683490Y478897D01*
X683715Y479262D01*
X683949Y479622D01*
X684192Y479977D01*
X684444Y480325D01*
X684704Y480667D01*
X684972Y481002D01*
X685249Y481331D01*
X685533Y481652D01*
X685826Y481967D01*
X686126Y482274D01*
X686433Y482574D01*
X686748Y482867D01*
X687069Y483151D01*
X687398Y483428D01*
X687733Y483696D01*
X688075Y483956D01*
X688423Y484208D01*
X688778Y484451D01*
X689138Y484685D01*
X689503Y484910D01*
X689874Y485127D01*
X690251Y485334D01*
X690632Y485531D01*
X691018Y485720D01*
X691408Y485899D01*
X691803Y486068D01*
X692202Y486227D01*
X692604Y486377D01*
X693011Y486517D01*
X693420Y486646D01*
X693833Y486766D01*
X694248Y486876D01*
X694666Y486975D01*
X695086Y487064D01*
X695508Y487142D01*
X695932Y487211D01*
X696358Y487268D01*
X696785Y487316D01*
X697213Y487353D01*
X697641Y487379D01*
X698071Y487395D01*
X698500Y487400D01*
X698929Y487395D01*
X699359Y487379D01*
X699787Y487353D01*
X700215Y487316D01*
X700642Y487268D01*
X701068Y487211D01*
X701492Y487142D01*
X701914Y487064D01*
X702334Y486975D01*
X702752Y486876D01*
X703167Y486766D01*
X703580Y486646D01*
X703989Y486517D01*
X704396Y486377D01*
X704798Y486227D01*
X705197Y486068D01*
X705592Y485899D01*
X705982Y485720D01*
X706368Y485531D01*
X706749Y485334D01*
X707126Y485127D01*
X707497Y484910D01*
X707862Y484685D01*
X708222Y484451D01*
X708577Y484208D01*
X708925Y483956D01*
X709267Y483696D01*
X709602Y483428D01*
X709931Y483151D01*
X710252Y482867D01*
X710567Y482574D01*
X710874Y482274D01*
X711174Y481967D01*
X711467Y481652D01*
X711751Y481331D01*
X712028Y481002D01*
X712296Y480667D01*
X712556Y480325D01*
X712808Y479977D01*
X713051Y479622D01*
X713285Y479262D01*
X713510Y478897D01*
X713727Y478526D01*
X713934Y478149D01*
X714131Y477768D01*
X714320Y477382D01*
X714499Y476992D01*
X714668Y476597D01*
X714827Y476198D01*
X714977Y475796D01*
X715117Y475389D01*
X715246Y474980D01*
X715366Y474567D01*
X715476Y474152D01*
X715575Y473734D01*
X715664Y473314D01*
X715742Y472892D01*
X715811Y472468D01*
X715868Y472042D01*
X715916Y471615D01*
X715953Y471187D01*
X715979Y470759D01*
X715995Y470329D01*
X716000Y469900D01*
X715995Y469471D01*
X715979Y469041D01*
X715953Y468613D01*
X715916Y468185D01*
X715868Y467758D01*
X715811Y467332D01*
X715742Y466908D01*
X715664Y466486D01*
X715575Y466066D01*
X715476Y465648D01*
X715366Y465233D01*
X715246Y464820D01*
X715117Y464411D01*
X714977Y464004D01*
X714827Y463602D01*
X714668Y463203D01*
X714499Y462808D01*
X714320Y462418D01*
X714131Y462032D01*
X713934Y461651D01*
X713727Y461274D01*
X713510Y460903D01*
X713285Y460538D01*
X713051Y460178D01*
X712808Y459823D01*
X712556Y459475D01*
X712296Y459133D01*
X712028Y458798D01*
X711751Y458469D01*
X711467Y458148D01*
X711174Y457833D01*
X710874Y457526D01*
X710567Y457226D01*
X710252Y456933D01*
X709931Y456649D01*
X709602Y456372D01*
X709267Y456104D01*
X708925Y455844D01*
X708577Y455592D01*
X708222Y455349D01*
X707862Y455115D01*
X707497Y454890D01*
X707126Y454673D01*
X706749Y454466D01*
X706368Y454269D01*
X705982Y454080D01*
X705592Y453901D01*
X705197Y453732D01*
X704798Y453573D01*
X704396Y453423D01*
X703989Y453283D01*
X703580Y453154D01*
X703167Y453034D01*
X702752Y452924D01*
X702334Y452825D01*
X701914Y452736D01*
X701492Y452658D01*
X701068Y452589D01*
X700642Y452532D01*
X700215Y452484D01*
X699787Y452447D01*
X699359Y452421D01*
X698929Y452405D01*
X698500Y452400D01*
X698071Y452405D01*
X697641Y452421D01*
X697213Y452447D01*
X696785Y452484D01*
X696358Y452532D01*
X695932Y452589D01*
X695508Y452658D01*
X695086Y452736D01*
X694666Y452825D01*
X694248Y452924D01*
X693833Y453034D01*
X693420Y453154D01*
X693011Y453283D01*
X692604Y453423D01*
X692202Y453573D01*
X691803Y453732D01*
X691408Y453901D01*
X691018Y454080D01*
X690632Y454269D01*
X690251Y454466D01*
X689874Y454673D01*
X689503Y454890D01*
X689138Y455115D01*
X688778Y455349D01*
X688423Y455592D01*
X688075Y455844D01*
X687733Y456104D01*
X687398Y456372D01*
X687069Y456649D01*
X686748Y456933D01*
X686433Y457226D01*
X686126Y457526D01*
X685826Y457833D01*
X685533Y458148D01*
X685249Y458469D01*
X684972Y458798D01*
X684704Y459133D01*
X684444Y459475D01*
X684192Y459823D01*
X683949Y460178D01*
X683715Y460538D01*
X683490Y460903D01*
X683273Y461274D01*
X683066Y461651D01*
X682869Y462032D01*
X682680Y462418D01*
X682501Y462808D01*
X682332Y463203D01*
X682173Y463602D01*
X682023Y464004D01*
X681883Y464411D01*
X681754Y464820D01*
X681634Y465233D01*
X681524Y465648D01*
X681425Y466066D01*
X681336Y466486D01*
X681258Y466908D01*
X681189Y467332D01*
X681132Y467758D01*
X681084Y468185D01*
X681047Y468613D01*
X681021Y469041D01*
X681005Y469471D01*
X681000Y469900D01*
X63500Y469900D02*
X63500Y165100D01*
X12700Y165100D01*
X12700Y469900D01*
X444500Y508000D02*
X444500Y203200D01*
X419100Y203200D02*
X419100Y508000D01*
X419100Y203200D02*
X444500Y203200D01*
M02*
