G04 EAGLE Gerber RS-274X export*
G75*
%MOMM*%
%FSLAX34Y34*%
%LPD*%
%INSoldermask Top*%
%IPPOS*%
%AMOC8*
5,1,8,0,0,1.08239X$1,22.5*%
G01*
%ADD10C,1.509600*%
%ADD11C,1.751600*%
%ADD12C,1.201600*%
%ADD13R,0.901600X1.501600*%
%ADD14R,0.901600X2.001600*%
%ADD15C,1.621534*%
%ADD16R,1.101600X1.501600*%
%ADD17R,1.201600X1.101600*%
%ADD18R,1.101600X1.201600*%
%ADD19R,0.601600X0.451600*%
%ADD20R,1.371600X0.736600*%


D10*
X25400Y457200D03*
X50800Y457200D03*
X25400Y431800D03*
X50800Y431800D03*
X25400Y406400D03*
X50800Y406400D03*
X25400Y381000D03*
X50800Y381000D03*
X25400Y355600D03*
X50800Y355600D03*
X25400Y330200D03*
X50800Y330200D03*
X25400Y304800D03*
X50800Y304800D03*
X25400Y279400D03*
X50800Y279400D03*
X25400Y254000D03*
X50800Y254000D03*
X25400Y228600D03*
X50800Y228600D03*
X25400Y203200D03*
X50800Y203200D03*
X25400Y177800D03*
X50800Y177800D03*
X431800Y495300D03*
X431800Y469900D03*
X431800Y444500D03*
X431800Y419100D03*
X431800Y393700D03*
X431800Y368300D03*
X431800Y342900D03*
X431800Y317500D03*
X431800Y292100D03*
X431800Y266700D03*
X431800Y241300D03*
X431800Y215900D03*
D11*
X165100Y71750D02*
X165100Y55250D01*
X139700Y55250D02*
X139700Y71750D01*
X114300Y71750D02*
X114300Y55250D01*
X88900Y55250D02*
X88900Y71750D01*
D12*
X165100Y38100D03*
X139700Y38100D03*
X114300Y38100D03*
X88900Y38100D03*
D11*
X342900Y55250D02*
X342900Y71750D01*
X317500Y71750D02*
X317500Y55250D01*
X292100Y55250D02*
X292100Y71750D01*
D12*
X342900Y38100D03*
X317500Y38100D03*
X292100Y38100D03*
D11*
X254000Y55250D02*
X254000Y71750D01*
X228600Y71750D02*
X228600Y55250D01*
X203200Y55250D02*
X203200Y71750D01*
D12*
X254000Y38100D03*
X228600Y38100D03*
X203200Y38100D03*
D11*
X431800Y55250D02*
X431800Y71750D01*
X406400Y71750D02*
X406400Y55250D01*
X381000Y55250D02*
X381000Y71750D01*
D12*
X431800Y38100D03*
X406400Y38100D03*
X381000Y38100D03*
D13*
X395990Y197610D03*
X366010Y197610D03*
D14*
X381000Y195070D03*
D15*
X378439Y179051D02*
X383561Y179051D01*
X383561Y157749D01*
X378439Y157749D01*
X378439Y179051D01*
X378439Y173153D02*
X383561Y173153D01*
D16*
X381000Y281100D03*
X371500Y303100D03*
X390500Y303100D03*
D17*
X389500Y330200D03*
X372500Y330200D03*
X389500Y254000D03*
X372500Y254000D03*
X372500Y228600D03*
X389500Y228600D03*
D13*
X345190Y197610D03*
X315210Y197610D03*
D14*
X330200Y195070D03*
D15*
X327639Y179051D02*
X332761Y179051D01*
X332761Y157749D01*
X327639Y157749D01*
X327639Y179051D01*
X327639Y173153D02*
X332761Y173153D01*
D16*
X330200Y281100D03*
X320700Y303100D03*
X339700Y303100D03*
D17*
X338700Y330200D03*
X321700Y330200D03*
X338700Y254000D03*
X321700Y254000D03*
X321700Y228600D03*
X338700Y228600D03*
D13*
X294390Y197610D03*
X264410Y197610D03*
D14*
X279400Y195070D03*
D15*
X276839Y179051D02*
X281961Y179051D01*
X281961Y157749D01*
X276839Y157749D01*
X276839Y179051D01*
X276839Y173153D02*
X281961Y173153D01*
D16*
X279400Y281100D03*
X269900Y303100D03*
X288900Y303100D03*
D17*
X287900Y330200D03*
X270900Y330200D03*
X287900Y254000D03*
X270900Y254000D03*
X270900Y228600D03*
X287900Y228600D03*
D13*
X243590Y197610D03*
X213610Y197610D03*
D14*
X228600Y195070D03*
D15*
X226039Y179051D02*
X231161Y179051D01*
X231161Y157749D01*
X226039Y157749D01*
X226039Y179051D01*
X226039Y173153D02*
X231161Y173153D01*
D16*
X228600Y281100D03*
X219100Y303100D03*
X238100Y303100D03*
D17*
X237100Y330200D03*
X220100Y330200D03*
X237100Y254000D03*
X220100Y254000D03*
X220100Y228600D03*
X237100Y228600D03*
X258200Y127000D03*
X275200Y127000D03*
X313300Y127000D03*
X296300Y127000D03*
X131200Y133350D03*
X148200Y133350D03*
X131200Y196850D03*
X148200Y196850D03*
D18*
X139700Y156600D03*
X139700Y173600D03*
D19*
X97700Y155350D03*
X97700Y161850D03*
X97700Y168350D03*
X97700Y174850D03*
X118200Y174850D03*
X118200Y168350D03*
X118200Y161850D03*
X118200Y155350D03*
D11*
X330200Y436250D02*
X330200Y452750D01*
X355600Y452750D02*
X355600Y436250D01*
X381000Y436250D02*
X381000Y452750D01*
D12*
X330200Y469900D03*
X355600Y469900D03*
X381000Y469900D03*
D11*
X241300Y452750D02*
X241300Y436250D01*
X266700Y436250D02*
X266700Y452750D01*
X292100Y452750D02*
X292100Y436250D01*
D12*
X241300Y469900D03*
X266700Y469900D03*
X292100Y469900D03*
D11*
X152400Y452750D02*
X152400Y436250D01*
X177800Y436250D02*
X177800Y452750D01*
X203200Y452750D02*
X203200Y436250D01*
D12*
X152400Y469900D03*
X177800Y469900D03*
X203200Y469900D03*
D20*
X165100Y173228D03*
X165100Y165100D03*
X165100Y156972D03*
M02*
