G04 EAGLE Gerber RS-274X export*
G75*
%MOMM*%
%FSLAX34Y34*%
%LPD*%
%INSolderpaste Top*%
%IPPOS*%
%AMOC8*
5,1,8,0,0,1.08239X$1,22.5*%
G01*
%ADD10R,0.800000X1.400000*%
%ADD11R,0.800000X1.900000*%
%ADD12C,1.524000*%
%ADD13R,1.000000X1.400000*%
%ADD14R,1.100000X1.000000*%
%ADD15R,1.000000X1.100000*%
%ADD16R,0.500000X0.350000*%


D10*
X395990Y197610D03*
X366010Y197610D03*
D11*
X381000Y195070D03*
D12*
X378460Y179030D02*
X383540Y179030D01*
X383540Y157770D01*
X378460Y157770D01*
X378460Y179030D01*
X378460Y172248D02*
X383540Y172248D01*
D13*
X381000Y281100D03*
X371500Y303100D03*
X390500Y303100D03*
D14*
X389500Y330200D03*
X372500Y330200D03*
X389500Y254000D03*
X372500Y254000D03*
X372500Y228600D03*
X389500Y228600D03*
D10*
X345190Y197610D03*
X315210Y197610D03*
D11*
X330200Y195070D03*
D12*
X327660Y179030D02*
X332740Y179030D01*
X332740Y157770D01*
X327660Y157770D01*
X327660Y179030D01*
X327660Y172248D02*
X332740Y172248D01*
D13*
X330200Y281100D03*
X320700Y303100D03*
X339700Y303100D03*
D14*
X338700Y330200D03*
X321700Y330200D03*
X338700Y254000D03*
X321700Y254000D03*
X321700Y228600D03*
X338700Y228600D03*
D10*
X294390Y197610D03*
X264410Y197610D03*
D11*
X279400Y195070D03*
D12*
X276860Y179030D02*
X281940Y179030D01*
X281940Y157770D01*
X276860Y157770D01*
X276860Y179030D01*
X276860Y172248D02*
X281940Y172248D01*
D13*
X279400Y281100D03*
X269900Y303100D03*
X288900Y303100D03*
D14*
X287900Y330200D03*
X270900Y330200D03*
X287900Y254000D03*
X270900Y254000D03*
X270900Y228600D03*
X287900Y228600D03*
D10*
X243590Y197610D03*
X213610Y197610D03*
D11*
X228600Y195070D03*
D12*
X226060Y179030D02*
X231140Y179030D01*
X231140Y157770D01*
X226060Y157770D01*
X226060Y179030D01*
X226060Y172248D02*
X231140Y172248D01*
D13*
X228600Y281100D03*
X219100Y303100D03*
X238100Y303100D03*
D14*
X237100Y330200D03*
X220100Y330200D03*
X237100Y254000D03*
X220100Y254000D03*
X220100Y228600D03*
X237100Y228600D03*
X258200Y127000D03*
X275200Y127000D03*
X313300Y127000D03*
X296300Y127000D03*
X131200Y133350D03*
X148200Y133350D03*
X131200Y196850D03*
X148200Y196850D03*
D15*
X139700Y156600D03*
X139700Y173600D03*
D16*
X97700Y155350D03*
X97700Y161850D03*
X97700Y168350D03*
X97700Y174850D03*
X118200Y174850D03*
X118200Y168350D03*
X118200Y161850D03*
X118200Y155350D03*
M02*
