M48
;GenerationSoftware,Autodesk,EAGLE,9.5.2*%
;CreationDate,2019-12-19T11:46:19Z*%
FMAT,2
ICI,OFF
METRIC,TZ,000.000
T5C0.400
T4C0.500
T3C0.600
T2C1.016
T1C1.500
%
G90
M71
T1
X-7620Y-5398
X7620Y-5398
X7620Y-2223
X-7620Y-2223
T2
X-3810Y-5080
X-1270Y-5080
X1270Y-5080
X3810Y-5080
T3
X0Y25527
X0Y40132
T4
X-2032Y31369
X2032Y31369
X2540Y2540
X-2540Y2540
X2540Y22225
X-2540Y22225
X0Y49530
X-3302Y43688
X3302Y43688
X3048Y34544
X-3048Y34544
T5
X889Y44577
X-889Y44577
M30