M48
;GenerationSoftware,Autodesk,EAGLE,9.5.2*%
;CreationDate,2020-10-07T12:13:21Z*%
FMAT,2
ICI,OFF
METRIC,TZ,000.000
T3C0.600
T2C0.900
T1C1.100
%
G90
M71
T1
X16510Y3810
X29210Y46990
X15240Y46990
X17780Y46990
X20320Y46990
X17780Y44450
X15240Y44450
X29210Y44450
X26670Y44450
X24130Y44450
X38100Y44450
X35560Y44450
X33020Y44450
X20320Y44450
X38100Y6350
X40640Y6350
X43180Y6350
X20320Y6350
X25400Y6350
X29210Y6350
X31750Y6350
X34290Y6350
X8890Y6350
X11430Y6350
X13970Y6350
X16510Y6350
X22860Y6350
X13970Y3810
X11430Y3810
X8890Y3810
X34290Y3810
X31750Y3810
X29210Y3810
X25400Y3810
X22860Y3810
X20320Y3810
X43180Y3810
X40640Y3810
X38100Y3810
X33020Y46990
X35560Y46990
X38100Y46990
X24130Y46990
X26670Y46990
T2
X43180Y26670
X43180Y24130
X43180Y21590
X43180Y31750
X2540Y45720
X5080Y45720
X2540Y43180
X5080Y43180
X2540Y40640
X5080Y40640
X2540Y38100
X5080Y38100
X2540Y35560
X5080Y35560
X2540Y33020
X5080Y33020
X2540Y30480
X5080Y30480
X2540Y27940
X5080Y27940
X2540Y25400
X5080Y25400
X2540Y22860
X5080Y22860
X2540Y20320
X5080Y20320
X2540Y17780
X5080Y17780
X43180Y49530
X43180Y46990
X43180Y44450
X43180Y41910
X43180Y39370
X43180Y36830
X43180Y34290
X43180Y29210
T3
X10160Y18733
X22225Y43498
X31115Y43498
X33655Y37148
X20320Y24130
X20320Y21590
X36601Y21590
X31521Y21590
X26441Y21590
X17780Y41910
X32067Y38100
X25400Y38100
X10478Y14287
X37148Y34925
X20320Y34925
X11112Y19685
X11430Y13335
X31750Y10160
X19050Y39370
X15875Y28257
X26035Y28257
X20955Y28257
X38735Y37148
X23495Y37148
X28575Y37148
X24130Y39370
M30